<!-- Generated by IcoMoon.io -->
<svg version="1.1" xmlns="http://www.w3.org/2000/svg" width="43" height="32" viewBox="0 0 43 32">
<title>surah</title>
<path d="M39 8.828q0 0.594-0.461 1.258t-1.055 0.664q-1.266 0-1.266-2.063 0-1.094 1.016-3.031h0.609q0.203 0 0.203 0.313 0 0.172-0.281 0.75t-0.281 0.781v1.188q0.063 0 0.344 0.266 0.172-0.469 0.688-0.688 0.484 0 0.484 0.563zM38.313 3.422q0 0.281-0.242 0.688t-0.523 0.406q-0.172 0-0.836-0.344t-0.836-0.344q-0.141 0-0.828 0.891-0.797 1.031-1.188 1.406-1.75 1.641-4.875 3.469-1.938 1.156-2.266 1.156h-0.703v-0.672l4.375-3.219q3.766-2.828 3.766-3.563 0-0.047-0.688-0.898t-0.688-1.477q0-0.781 0.719-2.016 0.859-1.453 1.844-1.453 1.203 0 1.406 2.078 0.063 0.813 0.188 2.375l0.859 0.625q0.516 0.359 0.516 0.891zM27.516 4.938q0 0.641-0.555 1.297t-1.18 0.656q-0.531 0-0.906-1.063-0.266-0.813-0.266-1.5 0-0.516 0.516-1.695t0.906-1.414h0.641v0.766q0 0.156-0.344 0.742t-0.344 0.742v1.109l0.25 0.234q0.125-0.063 0.484-0.406h0.625q0.172 0.172 0.172 0.531zM27.219-1.063q0 0.313-3.109 1.922l-4.375 2.234q-0.781 0.391-2.344 1.203-1.922 1.063-1.922 1.609 0 0.094 0.344 0.586t0.344 0.742q0 0.766-0.688 0.766-1.172 0-1.25-1.828-0.031-1.281 0.609-1.898t4-2.414q1.469-0.781 4.891-2.438 2.938-1.391 2.906-1.391 0.141 0 0.344 0.070t0.25 0.070v0.766zM40.391 19.906q0 0.375-0.336 0.938t-0.68 0.688q-0.484-0.047-1.375 0.078-1.625 0.516-1.406 0.516-0.219 0-0.672-0.219t-0.656-0.219q-0.516 0-1.531 0.781-0.266 0.203-1.047 0.828-2.344 1.547-3.188 1.547h-0.984l-0.172-0.141v-0.359q1.109-0.625 4.063-2.484 2.469-1.563 2.641-1.563 0.219 0 0.898 0.211t0.914 0.211q0.125 0 0.742-0.477t0.758-0.477q0.297 0 0.594 0.266 0.172-0.094 0.5-0.688h0.609q0.328 0.313 0.328 0.563zM13.656 0.75q-0.078 0.031-1.438 0.078-1.734 1.484-3.313 2.469l-0.625-0.156v-0.516l1.359-1.031q1.25-0.984 1.25-1.422 0-0.156-0.266-0.609t-0.266-0.625q0-0.563 0.578-1.156t1.141-0.594q0.734 0 0.906 2.094 0.281 0.25 0.672 0.734v0.734zM42.75 14.141q0 1.234-0.813 2.172t-2.016 0.938q-0.453 0-1.203-0.422t-1.047-0.813q-0.734 0.672-1.453 1.359-0.813 0.594-1.906 0.594-1.656 0-2.734-1.688-0.75 0.328-1.453 0.641-0.859 0.422-1.203 0.984-0.125 0.672-0.641 1.828-1.563 1.875-4.125 3.422-2.828 1.719-4.938 1.719-3.594 0-3.672-3.375 0-0.109-0.141-0.359-1.703 0.984-5.25 2.609-1.25 0.438-3.906 1.094-2.297 0.563-2.641 0.563h-0.844l-0.313-0.344q0.781-0.594 2.656-1.344 2.391-0.984 2.641-1.078 7.063-3.469 10.531-6.422 1.328-1.141 1.328-1.375 0-0.156-1.172-2.383t-1.172-2.82 0.594-1.766h0.422q0.297 0 2.109 1.938 0.203 0.516 0.203 0.594 0 0.125-0.273 0.422t-0.273 0.422q0 0.109 0.484 1.133t0.484 1.758q0 1.578-1.063 2.984-0.484 0.688-1.922 1.969-1.031 0.938-1.031 1.406 0 0.906 0.813 1.5 0.734 0.516 1.672 0.516 1.703 0 4.148-1.328t3.336-2.75l-0.125-0.125q-0.656-0.047-1.984-0.172-1.156-0.109-1.859-1.094-0.188-0.234-0.188-0.766 0-1 0.766-2.281 0.875-1.453 1.938-1.453 0.906 0 2.008 1.32t1.242 1.32q0.781 0 2.227-0.961l1.445-0.961q0.297 0 0.625 1.164t1.438 1.164q1.578 0 3.422-3.016h0.672q0.125 0.188 0.297 1.422 0.141 0.844 1.344 0.844 0.281 0 0.625-0.063 0.172-0.141 0.172-0.609 0-0.219-0.055-0.688t-0.055-0.719q0-1.063 0.719-1.063 0.5 0 0.844 1.047 0.266 0.813 0.266 1.391zM12.422 4.75q0 0.344-0.422 0.883t-0.734 0.539q-0.219 0-0.703-0.195t-0.703-0.195q-0.141 0-0.734 0.477t-0.719 0.477q-0.438 0-1.266-0.578t-0.828-1.016q0-0.453 0.523-0.953t0.961-0.5q0.141 0 0.695 0.281t0.758 0.281q0.125 0 0.602-0.477t0.898-0.477q0.438 0 1.055 0.516t0.617 0.938zM13.406 8.531q0 0.203-0.969 2.063t-0.969 2.031q0 0.047 0.672 0.813t0.781 0.984q0.188 0.391 0.188 1.25 0-0.547-0.188 1.375-0.109 0.969-1.797 2.078-1.609 1.047-2.641 1.047-0.719 0-1.125-0.859-0.328-0.641-0.328-1.156 0-1.813 1.203-3.906 0.172-0.328 0.172-0.594 0-0.156-0.906-1.141-1.031-1.156-1.25-1.516-0.063-0.078-0.063-0.938 0-1.375 0.641-1.375 0.156 0 1.156 0.641 1.266 0.781 1.453 0.906-0.016 0.422 0.422 1.359 0.5-0.234 0.859-0.813 1.781-2.781 2.125-2.781 0.563 0 0.563 0.531zM35.406 0.359q0-0.438-0.516-0.688-0.438 0.469-0.438 0.813 0.594 0.594 0.813 0.563 0-0.063 0.070-0.297t0.070-0.391zM26.109 15.625q-0.219-0.266-0.859-0.563-0.547-0.047-0.594 0.344-0.031 0.188 0.594 0.219 0.344 0.031 0.859 0zM11.578 16.094q-0.141-0.375-0.656-0.852t-0.844-0.477q-0.391 0-0.969 0.898t-0.578 1.32q0 0.563 0.563 0.563 0.453 0 1.359-0.531t1.125-0.922z"></path>
</svg>
