<!-- Generated by IcoMoon.io -->
<svg version="1.1" xmlns="http://www.w3.org/2000/svg" width="69" height="32" viewBox="0 0 69 32">
<title>surah1</title>
<path d="M68.641 5.359q0 0.141-0.063 0.141-0.031 0-0.438-0.453t-0.625-0.453q-0.125 0.031-0.203 0.094 0.156 6.141 1.094 11.188-0.078 0.063-0.078 1.031 0 0.984 0.078 2.828-0.422 1.578-0.875 2.313h-0.578l-2.125-20.234q0-1.922 0.969-1.922 0.922 0 2.844 5.469zM58.5 3.484q0 0.688-1.922 1.625-1.047 0.5-3.141 1.484-3.156 1.547-3.672 1.547-0.813 0-0.813-0.781 0.047-0.109 0.219-0.594l1.781-1.031q0.75-0.594 0.75-1.703 0-1.422-0.359-2.063-0.891-1.563-0.938-1.688 0-0.875 0.734-0.875 2.016 0 2.016 4.922 0.125 0.094 0.5 0.094 0.266 0 1.844-0.648t1.969-0.648q0.328 0 1.031 0.359zM57.375 11.219q0 1.156-1.281 1.156-0.563 0-1.258-0.648t-0.695-1.227q0-1.047 1.063-1.047 0.469 0 1.32 0.648t0.852 1.117zM63.313 5.094q-0.063 0.047-0.125 0.047-0.156 0-0.695-0.422t-0.633-0.422q-0.109 0.203 0.047 0.969 0.172 0.938 0.172 1.031l1.125 11q0 4.953-4.203 4.953-0.422 0-1.531-0.25t-1.547-0.25q-0.719 0-2.516 0.516-1.891 0.578-2.75 0.625-1.484 0.125-2.727-0.773t-1.508-2.352q-0.219-1.109-0.375-3.422-0.047-0.813-0.172-3.016-0.219-3.781-0.219-4.281 0-1.563-0.375-4.797l-0.359-3.156q0-1.203 0.734-1.375 0.391 0.172 0.984 0.859 0.391 1.656 0.641 7.656 0.031 0.625 0.219 3.031l0.375 4.563q0.359 4.453 3.125 4.453 1.797 0 1.969-0.922-0.047-0.484 0.094-1.453 0.547-1.266 1.781-2.578 1.453-1.5 2.531-1.5 2.094 0 2.094 3.672 0 0.938-0.156 1.891 0.109 0.094 0.672 0.094 1.672 0 1.453-1.688l-2.094-16.281q-0.078-0.563 0.141-1.25 0.328-0.859 0.813-0.859 0.516 0 1.703 2.406 1.078 2.25 1.313 3.281zM52.031 14.438q-0.734 0.672-1.031 0.672-0.672 0-1.188-0.742t-0.516-1.445q0-1.063 0.844-2.484h0.563q0.047 0.094 0.047 1.766 0 0.766 1.281 1.656v0.578zM42.797 5.234q0 0.344-0.352 0.742t-0.68 0.398q-0.656 0-2.109-1.453-1.141 1.109-1.563 1.109-0.688 0-1.344-0.891-0.594-0.766-0.594-1.109 0-0.906 1.125-0.906 1.063 0 2.047 1.125 0.078-0.016 0.719-0.594 0.422-0.359 0.656-0.359 0.625 0 1.359 0.672t0.734 1.266zM36.969-0.156q-0.641 0.719-1.031 0.813-6.672 2.047-9.703 3.5-0.609 0.297-0.781 1.063-0.156 0.656-0.625 0.656-0.391 0-0.688-0.445t-0.297-0.852q0-1.609 5.859-3.766 5.125-1.906 6.375-1.906 0.156 0 0.891 0.375v0.563zM31.625 8.953q0 1.125-1.313 1.125-1.438 0-1.438-1.844 0-0.438 0.266-1.172 0.297-0.891 0.656-0.859 0.469 0.281 0.578 1.672 1.25 0.906 1.25 1.078zM43.938 20.375q-0.25 0.641-0.766 0.859-4.453 1.797-5.313 1.797h-1.188q0-0.125-0.086-0.445t-0.086-0.492q5.406-2.453 6.453-2.453 0.609 0 0.984 0.734zM44.75 17.516q-0.75 0.672-1.391 0.672-0.344 0-1.008-0.078t-1.008-0.078q-2.281-0.016-6.766 1.375t-6.516 1.391q-1.828 0-1.969-0.031-2.5-0.313-4.125-2.75-0.516-0.797-1.094-0.797-1.016 0-2.031 1.484-0.906 1.359-1.797 2.703-1.109 1.484-2.359 1.484h-0.891q-0.875-0.219-1.5-1.953-0.438-1.203-0.594-2.5-0.344-3.547-0.391-3.703-0.016-0.266-0.531-1.813-0.375-1.141-0.375-1.359 0-1.703 0.984-4.281 0.906-2.359 2-3.969 0.234-0.344 0.859-0.344 0.359 0.375 0.359 0.641 0 0.094-1.047 1.922-1.531 2.578-1.531 4.625 0 0.563 0.266 1.266 0.406 0.953 0.938 0.953 0.328 0 1.281-0.984 0.266 0 0.586 0.305t0.32 0.586q0 0.781-1.25 2.094-0.375 0.406-1.281 1.328-0.219 1.047-0.219 1.422 0 3.328 2.109 3.328 0.719 0 2.789-2.922t3.445-2.922q0.891 0 1.844 0.969 1.609 1.641 1.797 1.797 1.313 0.984 3 0.984 2.813 0 5.453-1.266 0.016-0.516-2.047-0.813-0.594-0.047-1.734-0.219-1.594-0.313-1.594-1.031 0-1.172 1.656-1.703l1.969-0.359q0.516-0.094 1.625-0.469 0.609-0.344 2.906-1.625 0.063-0.047 1.813-1.547 1.375-1.188 2.016-1.188 1.016 0 1.625 1.359 0.5 1.047 0.5 1.891 0 1.125-0.813 1.125-0.391 0-0.875-0.813t-0.75-0.813q-0.203 0-1.875 1.313-1.922 1.484-2.688 1.891 0 0.281 0.297 0.5 2.891 0.734 4.516 0.953 0.859 0.047 2.531 0.148t2.563 0.883v0.938zM24.656 10.078q0 0.297-0.344 0.719t-0.641 0.422q-0.188 0-0.953-0.406t-0.969-0.406q-0.141 0-0.656 0.242t-0.719 0.242q-0.641 0-1.203-0.391-0.672-0.438-0.672-1.047 0-0.984 1.063-0.984 0.219 0 0.898 0.328t0.867 0.328q0.156 0 0.695-0.328t0.758-0.328q0.578 0 1.227 0.547t0.648 1.063zM19.313 23.531q0 0.781-0.516 1.109-0.688 0.406-3.617 1.43t-3.539 1.023q-0.734 0-0.734-0.641 0-0.625 0.516-0.922 0.953-0.266 3.422-1.047 1.031-0.391 3.734-1.422h0.516q0.219 0.188 0.219 0.469zM57.859 17.094q-0.531-0.516-0.875-0.516-1.484 0-2.203 1.563 0.938 0.906 1.453 0.906 0.891 0 1.625-1.953z"></path>
</svg>
