<!-- Generated by IcoMoon.io -->
<svg version="1.1" xmlns="http://www.w3.org/2000/svg" width="54" height="32" viewBox="0 0 54 32">
<title>surah10</title>
<path d="M49.859 4.547q0 0.422-0.078 0.672l-0.063 0.234q-1.625-0.531-1.359-0.531-0.125 0-1.156 1.078-1.281 1.281-1.945 1.781t-3.742 1.813q2.438-1.828 5.891-5.141-1.109-1.266-1.109-1.828 0-0.594 0.734-1.438t1.328-0.844q0.844 0 0.844 1.516 0-0.531-0.125 1.563 0.266 0.359 0.781 1.125zM41.297 3.766q-0.859 1.281-1.328 1.281-0.891 0-0.891-1.516 0-0.656 0.453-1.688t0.969-1.359q-0.016 0.344-0.297 1.133t-0.281 1.086q0 0.422 0.234 0.828h0.344q0.203 0 0.398-0.203t0.242-0.203zM35.484 4.234q0 0.266-0.414 0.82t-0.695 0.555q-0.422 0-1.797-1.016 0-0.516 0.297-1.078 0.328-0.688 0.813-0.688 0.391 0 1.094 0.516t0.703 0.891zM53.063 24.516q0 0.313-0.398 0.867t-0.711 0.555q-0.203 0-0.766-0.375l-0.953-0.594q-0.25 0.219-0.75 0.859-0.266 0.391-0.578 0.391-0.516 0-1.922-0.984 0.094-1.906 1.172-1.906 0.125 0 0.844 0.422t0.891 0.422q0.141 0 0.719-0.555t0.734-0.555q0.297 0.141 1.641 1.031 0.078 0.125 0.078 0.422zM30.359 1.328q0 0.641-2.656 1.563-1.547 0.547-3.609 1.234-0.891 0.453-4.484 1.75-2.563 0.938-3.766 1.891 0 0.125 0.195 0.523t0.195 0.57l-0.313 0.766q-1.188-0.328-1.188-1.266 0-1.469 2.172-2.578l2.672-1.031q0.156-0.078 3.625-1.406 2.609-0.984 6.969-2.438 0.188 0.188 0.188 0.422zM29.406 8.281l-0.328 0.766h-0.438q-0.172 0-0.719-0.531-0.641 0.266-0.813 1.688-0.172 1.828-0.656 2.594-0.422 0-0.813-0.766-0.25-0.547-0.5-1.078-0.313-0.516-0.859-0.766l-0.781-0.344-0.172-0.25q-0.172-0.266-0.172-0.469 0-1.031 0.781-1.031 0.641 0 1.469 1.031t0.969 1.063q0.172-0.625 0.516-1.844 0.453-1.484 1.031-1.484 0.453 0 0.969 0.516t0.516 0.906zM17.047 2.656q0 0.344-0.406 0.813t-0.75 0.469q-0.891 0-0.891-1.234 0-0.625 0.375-1.469t0.844-1.141q-0.406 1.547-0.406 1.703 0 0.406 0.375 0.75 0.297-0.109 0.859-0.391v0.5zM51 15.016q0 1.969-1.141 2.875-0.516 0.391-2.438 1.406-0.094 0.828-0.781 2.734-0.344 0.641-2.188 1.891-0.797 0.547-2.906 1.859-2.266 1.25-3.578 1.25-5.109 0-5.109-4.266 0-1.078 0.313-2.016 0.672-2.031 0.672-1.859 0-0.234-0.508-0.664t-0.758-0.43q-0.016 0-0.781 0.75t-1.438 0.75q-0.906 0-1.469-0.578-0.031-0.047-0.813-1.203-0.813 0.813-2 1.109-0.938 0.156-1.844 0.328-0.391 0.219-0.5 0.688t-0.219 0.859q-0.344 1-1.266 1.938-0.469 0.5-0.922 0.688-4.016 2-5.016 2-0.375 0-1.109 0.133t-1.109 0.133q-1.594 0-3.078-0.703-2.656-1.313-2.656-4.344 0-1.5 1.031-4.297-0.078-0.625-0.172-1.781 0.031-2.156 1.656-5.797 0.703-1.578 1.516-2.172-0.141 0.813-1.125 3.031-0.844 1.891-0.844 2.922 0 1.953 0.891 1.953 0.25 0 1.578-0.969v0.5q0 0.984-1.234 2.234-0.375 0.375-1.406 0.469-0.781 1.234-0.781 2.813 0 1.984 1.875 3.094 1.625 0.953 3.688 0.859 0.641-1.078 0.641-2.234 0-1.031-0.172-1.703-0.766-2.781-0.766-2.922 0-0.172 0.5-1.328 0.625-1.391 0.75-1.75 0.172-0.469 0.75-0.469 0.406 0 1 0.664t0.594 1.086q0 0.828-1.156 0.938-1.313 0.109-1.5 0.438 0.313 0.891 0.656 2.625 0.031 0.922 0.031 1.656 0 1.969-0.25 2.641 0.078 0.063 0.469 0.063 1.063 0 3.469-1.109 2.828-1.281 2.828-2.5 0-0.203-0.688-1.742t-0.688-1.789q0-0.094 0.453-1.422h0.516q0.172 0.813 1.047 1.641t1.656 0.828q1.594 0 2.469-0.75 1.5-1.281 1.844-1.453 0 0.625 0.047 1.859 0.719 0.609 1.172 0.609 0.75 0 1.453-0.906l0.969-1.578q0.172 0.219 0.438 1.031 0.125 0.344 0.867 0.766t1.102 0.422q1.328-0.469 1.484-1.094l-2.219-6.094q0.219-1.109 0.594-2.078 0.734 0.453 2.156 2.422-0.047 0.141-0.367 0.484t-0.32 0.5q0 0.391 0.297 1.047 1.109 2.516 1.109 3.297 0 1.453-0.766 2.594-0.344 0.516-1.375 0.734-0.891 0.203-1.375 0.297-0.297 0.172-0.563 1.141-0.234 0.828-0.234 1.328 0 3.438 3.594 3.438 1.781 0 5.109-1.703 3.484-1.813 3.484-3.047 0-0.484-0.641-0.484-0.313 0-0.953 0.133t-0.969 0.133q-2.547 0-2.547-2.141 0-0.984 0.703-2.172 0.859-1.344 1.922-1.344 1.281 0 3.25 2.891 1.406 0.078 2.828-1.328-2.063-4.594-2.063-4.688 0.078-0.234 0.422-1.703 0-0.172 0.344-0.172 0.469 0 1.797 1.875-0.453 0.828-0.328 1.078 1.094 2.094 1.094 2.859zM31.063 21.578q0 0.734-1.094 1.406-0.984 0.609-1.75 0.609-0.141 0-0.477-0.133t-0.508-0.133q-0.141 0-0.859 0.609-0.906 0.766-1.328 1.016-0.484 0.281-3.25 0.984 0.25-0.453 2.359-1.531 0.156-0.234 0.578-0.609 2.719-1.5 2.922-1.578 0.125 0 0.383 0.063t0.383 0.063q0.391 0 0.734-0.688 0.125 0 0.383 0.148t0.414 0.148q0.219 0 0.547-0.344t0.375-0.344q0.188 0.016 0.188 0.313zM48.484 2.672q-0.094-0.344-0.469-0.953-0.25 0.172-0.609 0.469 0.094 0.609 1.078 0.484zM44.906 17.516q-1.266-1.109-1.625-1.109-0.734 0-0.734 0.797 0.797 0.594 1.578 0.594 0.422 0 0.781-0.281z"></path>
</svg>
