<!-- Generated by IcoMoon.io -->
<svg version="1.1" xmlns="http://www.w3.org/2000/svg" width="88" height="32" viewBox="0 0 88 32">
<title>surah100</title>
<path d="M87.891 18.875q0 0.344-0.625 3.734-0.047 0.375-0.688 0.625 0.125-1.906-0.266-5.594l-1.594-16.266q0-0.844 0.75-2.078 2.125 3.672 2.266 5.203-0.188 0.188-0.406 0.188-0.156 0-0.477-0.266t-0.398-0.297q-0.094 0.172-0.094 0.719zM74.594 8.234q0 0.5-0.406 1.039t-0.891 0.539q-1.047 0-1.047-1.531 0-0.656 0.422-1.641t0.906-1.375q0.078 0.391-0.141 1.219-0.219 0.969-0.219 1.188 0 0.391 0.359 0.766 0.328 0 0.813-0.563 0.203 0.016 0.203 0.359zM75.781 1.375q0 1.156-0.813 1.469l-9.063 3.547q-5.219 2.078-6.625 3-0.188-0.219-0.188-0.484 0-0.859 0.609-1.375 0.266-0.234 2.75-1.359 3.578-1.594 8.031-3.172 5.078-1.781 4.875-1.781 0.141 0 0.297 0.156h0.125zM83.734 22.563q0 2.438-2.203 3.438v-0.469q0-0.141 0.617-0.852t0.617-0.836v-0.938q-0.094 0.047-0.938 0.047-0.172-0.016-0.172-0.344 0-0.391 0.398-0.844t0.758-0.453q0.922 0 0.922 1.25zM63.094 1.156q0 0.141-0.070 0.352t-0.070 0.258q-0.172 0-0.43-0.063t-0.383-0.063q-0.469 0-0.516 0.5-0.094 0.953-0.5 2.828-0.297-0.078-0.984-1.063-0.609-0.906-0.859-1.109-0.344-0.297-1.25-0.484-0.469-0.125-0.469-0.719 0-1.063 0.766-1.063 0.516 0 2.234 1.797 0.391-0.047 0.75-1.133t0.828-1.086q0.953 0 0.953 1.047zM81.234 4.641l-0.344 0.328q-0.297-0.219-0.813-0.563-0.063 0.188-0.063 1.047 0 0.172 0.297 2.594 0.391 2.875 0.453 3.766 0.359 3.469 0.359 6.031 0 2.016-1.188 3.313-1.234 1.406-3.203 1.406-1.594 0-3.602-1.461t-2.055-1.461q-7.75 3.313-11.5 3.313-1.719 0-3.25-1.094-1.641-1.188-1.875-2.844-0.141-0.313-0.313-0.984-0.094-3.656-0.438-8.406-0.078-0.984-0.719-4.313l-0.547-2.984q0-1.5 0.844-2.219 1 2.734 1.547 8.641l0.844 8.719q0.109 1.078 1.594 2.438 1.594 0.719 3.344 0.719 4.391 0 8.469-2.469v-0.359q-1.797-1.219-2.094-1.219-0.125 0-0.383 0.078t-0.398 0.078q-0.031-0.031-0.047-0.031-0.156-0.172-0.156-0.516 0-1.469 2.078-2.219 1.547-0.563 3.344-0.563 3.219 0 5.234 1.547 0.078 1.531-0.953 2.141-0.734 0.422-2.219 1.234 1.406 2 3.516 2 0.797 0 1.734-0.469 1.125-0.594 1.125-1.453l-1.797-16.984q0-1.109 0.766-1.844 2.219 3.516 2.406 5.063zM62.141 14.594q0 0.484-0.594 1.102t-1.078 0.617q-0.969 0-0.969-1.797 0-0.688 0.516-1.797 0.547-1.234 1.094-1.375 0.188 0.188 0.188 0.422t-0.344 1.125-0.344 1.156q0 0.625 0.344 0.625-0.063 0 1.016-0.547l0.086 0.148t0.086 0.32zM71.813 22.609q0 0.672-1.055 2t-1.68 1.375q0.281-0.922 1.5-2.281v-0.5q-0.125-0.078-0.359-0.078-0.297 0-0.75 0.109v-0.625q0-0.234 0.461-0.633t0.695-0.398q0.297 0 0.742 0.383t0.445 0.648zM49.125 4.672q-0.578 1.813-1.391 1.813-0.906 0-1.109-2.016 0-1.469 1.781-3.375-0.672 2.609-0.672 2.844 0 0.469 0.375 1.047-0.172 0 0.688-0.438zM43.844 0.484q0 0.5-1.906 1.578-2.891 1.625-5.938 3.172v-0.641q0.25-0.438 0.594-0.656 2.5-1.563 7.078-3.969 0.172 0.219 0.172 0.516zM51.484 16.734q0 1.844-0.641 2.484-1.625 1.625-5.047 3.844-4.141 2.672-6.078 2.672-2.094 0-2.094-2.781 0-0.578 0.828-3.391v-0.375q-1 0.063-3-0.406-1.297-0.672-1.672-2.516-0.563-3.156-1.328-8.984-0.641-5.078-0.641-5.641 0-0.438 0.641-1.375 0.813 1.25 1.484 6.281 0.219 1.203 0.578 4.297 0.125 1.438 0.453 3.547 0.734 2.344 2.656 2.344 2.359 0 2.359-1.188 0-0.141-0.766-1.297t-0.766-1.313q0-0.391 0.328-1.297h0.422q0.688 0 1.5 1.516 0.688 1.313 0.688 1.734 0 0.813-0.641 2.5-0.5 0.547-0.906 1.109-0.328 0.422-0.719 1.688t-0.391 1.813q0 1.672 1.469 1.672 0.625 0 4.656-2.109 1.031-0.547 3.594-2.484 0.766-0.594 1.766-1.875-0.188-0.469-0.641-0.688l-3.438-1.734q-1.078-0.563-1.797-1.453-0.5-0.531-1.422-1.625-0.875-1-0.875-1.688 0-0.516 0.328-1.438h0.609q0.391 0.25 2.547 1.688 0 0.109-0.211 0.422t-0.211 0.438q0 0.656 1.891 1.547 0.688 0.297 2.063 0.953 2.422 1.219 2.422 3.109zM54.234 22.953q0 0.453-1.063 1.094l-1.172 0.609q-1.578 1.281-3.516 1.891-0.203 0-0.203-0.344 0-0.594 2.469-2.016 1.047-0.594 3.172-1.766 0.313 0.344 0.313 0.531zM29.578 4.156q-0.625 1.797-1.438 1.797-1.031 0-1.031-1.609 0-0.641 0.625-2.063 0.656-1.531 1.156-1.594l0.172 0.484q-0.25 0.203-0.547 1.211t-0.297 1.43q0 0.359 0.375 0.734 0.141-0.078 0.656-0.547 0.203 0.156 0.328 0.156zM24.766 1.984q0 0.297-0.453 0.766-0.156 0-0.484-0.133t-0.484-0.133q-0.313 1.156-1.078 3.563-0.125 0.031-0.344 0.172-0.328-0.734-1.063-2.109-0.078-0.109-1.625-1.109-0.438-0.297-0.438-0.813 0-0.422 0.906-1.234 1.281 1.063 2.344 2.344 0.344-0.813 1.25-2.609 1.469 0.484 1.469 1.297zM25.875 11.875q0 0.422-0.32 0.906t-0.727 0.484q-0.156 0-0.828-0.422t-0.844-0.422q-0.125 0-0.633 0.492t-0.68 0.492q-0.297 0-1.18-0.586t-0.883-0.789q0-0.25 0.492-0.953t0.727-0.703q0.172 0 0.953 0.484t0.922 0.484q0.172 0 0.625-0.484t0.641-0.484q0.531 0 1.133 0.492t0.602 1.008zM31.547 16.531q0 1.234-1.5 3.594-1.406 2.188-2.484 2.953v-0.469q-0.031-0.141 1.281-2.344t1.313-2.281q0-0.563-0.625-0.563 2.531 0-3.289 1.664t-7.383 1.664q-6 0-6-4.828 0-1.078 0.594-2.734 0.25-0.313 0.25-0.516 0-0.297-0.359-1.305t-0.359-1.289q0-1.766 1.078-4.078 1.109-2.406 2.484-3.375l0.172 0.469q-0.047 0.156-1.469 2.703-0.734 1.281-0.734 2.641 0 2.063 0.828 2.063 0.203 0 0.641-0.438 0.563-0.594 0.672-0.672 0.219 0.203 0.219 0.5 0 0.859-1.188 2.391-0.422 0.234-1.156 0.984-0.563 0.813-0.563 1.75 0 1.156 1.359 2.375 1.25 1.141 4.172 1.141 1.016 0 4.906-0.859l2.656-1.266q2.531-1.203 3.297-1.203 1.188 0 1.188 1.328zM35.281 24.063q0 0.422-0.359 0.969t-0.75 0.547q-0.172 0-0.93-0.547t-0.867-0.547q-0.172 0-0.672 0.547t-0.656 0.547q-0.266 0-0.992-0.531t-0.727-0.781q0-0.219 0.453-0.898t0.656-0.68q0.141 0 0.844 0.422t0.875 0.422q0.156 0 0.633-0.484t0.617-0.484q0.422 0 1.148 0.578t0.727 0.922zM25.047 21.922q0 0.938-8.969 4.922l-0.172-0.172v-0.641q0.984-0.766 4.063-2.203 3.422-1.656 4.438-2.25h0.469q0.172 0.031 0.172 0.344zM72.766 15.922q-0.234 0-0.742-0.148t-0.758-0.148q-0.344 0-0.688 0.375 0.891 0.875 1.031 0.875 0.641 0 1.109-0.594 0.047-0.141 0.047-0.359z"></path>
</svg>
