<!-- Generated by IcoMoon.io -->
<svg version="1.1" xmlns="http://www.w3.org/2000/svg" width="73" height="32" viewBox="0 0 73 32">
<title>surah101</title>
<path d="M72.953 22.266q-0.094 1.875-0.984 3.094-0.141 0-0.484-0.438 0.141-1.438 0-3.344-0.219-3.094-0.969-12.109l-0.609-7.484q0-0.344 0.891-1.641 0.266 0 0.438 0.313 1.719 4.313 1.719 4.578 0 0.172-0.070 0.32l-0.070 0.148q-0.422 0-0.688-0.078l-0.297-0.063 1.125 12.969q0.203 2.313 0 3.734zM60.656 9.391q0 0.406-0.461 0.93t-0.805 0.523q-0.406 0-1.719-0.953-0.125 0.078-0.688 0.656-0.438 0.453-0.641 0.453-0.484 0-1.141-0.531t-0.656-1q0-0.344 0.406-0.938t0.703-0.594q0.141 0 0.859 0.492t0.891 0.492q0.125 0 0.578-0.492t0.797-0.492q0.484 0 1.18 0.492t0.695 0.961zM60.656 0.953q0 0.734-0.594 0.984-2.391 0.953-7.172 2.906-4.234 1.766-6.781 4.016 0.406 0.828 0.406 0.953 0 0.453-0.313 0.734h-0.422q-0.781 0-0.781-1.297 0-1.484 2.313-2.828 1.172-0.594 3.547-1.828 3.125-1.641 5.219-2.453l3.781-1.531h0.625q0.172 0.031 0.172 0.344zM69.094 23.188q0.031 0.188 0.031 0.406 0 0.984-0.75 2.188-0.859 1.359-1.766 1.234 0.266-0.594 1.375-2v-0.5q-0.219-0.234-0.344-0.234-0.172 0-0.719 0.281-0.188-0.203-0.188-0.422 0-0.469 0.5-1t0.969-0.531q0.281 0 0.891 0.578zM45.828 3.094q-0.266 0.672-0.516 1.328-0.422 0.734-1.156 0.734-0.953 0-0.953-1.719 0-0.484 1-2.953h0.516q-0.047 0.297-0.313 1.203-0.25 0.813-0.25 1.141 0 0.313 0.375 0.688 0.266-0.219 0.813-0.641 0.125 0 0.484 0.219zM51.766 13.859q0 0.313-0.664 0.938t-0.992 0.625q-0.953 0-0.953-1.938-0.031-1.578 1.484-3.047 0 0.016 0.086 0.125t0.086 0.281q0 0.25-0.273 0.977t-0.273 0.945q0 0.516 0.375 0.984 0.219 0 0.625-0.391h0.5v0.5zM58.172 24.219q0 0.672-0.75 1.766-0.813 1.25-1.688 1.172 0.063-0.219 1.172-1.859 0.078-0.344-0.484-0.344-0.156 0-0.352 0.070t-0.211 0.070q-0.031 0-0.063-0.031-0.141-0.141-0.141-0.375 0-0.406 0.641-0.898t1.031-0.492q0.25 0 0.547 0.32t0.297 0.602zM35.172 0.266q0 0.078-0.758 1.672t-0.758 2.344q0 0.516 0.359 0.875 0.797-0.359 0.844-0.391l0.016 0.031h0.031q0.141 0.125 0.141 0.359 0 0.344-0.477 1.016t-0.773 0.672q-0.547 0-0.938-0.703-0.313-0.578-0.313-1.172 0-0.219 1.109-3.172-0.078-0.078-0.422-0.078-0.25 0-8.813 3.734-0.172-0.219-0.172-0.484 0-0.797 2.234-1.844 1.453-0.578 2.875-1.156 4.609-2.047 5.078-2.047h0.563q0.172 0 0.172 0.344zM66.453 17.719q0.188 2.188-0.516 3.594t-2.969 2.234q-0.516 0.172-1.547 0.172-1.609 0-3.109-1.281-0.391-0.734-0.422-0.75-0.266-0.328-0.766-0.328-0.172 0-1.797 0.641-1.797 0.672-2.484 0.859-4.406 1.141-6.672 1.141-2.5 0-4.406-1.063-2.266-1.25-2.5-3.547-0.078-0.172-0.297-0.375-1.375 0.719-3.516 3.281-2.266 2.672-3.5 3.469-0.469 0.281-1.547 0.281-1.438 0-2.492-1.141t-1.055-2.563q0-0.719 1.125-4.188-0.531-0.016-1.641 0.078l-1.219 0.078q-0.781 0-1.672-0.156-2.094-0.422-3.469-3.438-1.297 0.219-2.578 3.828-1.266 3.531-2.781 3.531-2.422 0-3.172-4.406-0.406-2.313-0.281-4.828 0.031-0.516-0.094-1.492t-0.125-1.383q0-1.5 1.008-4.109t2.039-3.578q0.281 0 0.281 0.328 0 0.188-0.891 2.266-1.203 2.75-1.203 3.766 0 1 0.641 1.516 0.438-0.094 0.813-0.766 0.391-0.75 0.641-0.906 0.391 0.297 0.391 0.438 0 0.375-1.016 2.438-0.609 0.516-1.578 1.797-0.172 0.344-0.172 1.516 0 1.328 0.672 3 0.859 2.188 2.172 2.188 1.031 0 1.688-1.703 0.156-0.344 0.766-2.563 0.219-0.734 0.984-1.859 1.031-1.484 1.953-1.484 0.703 0 1.172 0.688 0.375 0.641 0.734 1.281 0.547 0.859 1.313 1.313 0.688 0.172 0.5 0.172 0.219-0.219 0.234-0.281 0-0.313-0.344-1.445t-0.344-1.461q0-0.516 0.57-1.695t0.961-1.57q0.859-0.813 1.578-0.984 1.391-0.328 1.672-0.328 1 0 2.234 0.5 1.359 0.563 1.828 1.359 0 0.516-0.391 0.516-0.234 0-1.047-0.359t-1.031-0.359q-1.078 0-2.703 0.469-0.641 0.172-1.625 0.828-0.516 0.328-0.516 0.797 0 1.203 1.156 2.531t2.359 1.328q1.063 0 2.984-1.281 2.625-1.75 2.969-1.891 0.203 0.203 0.203 0.469 0 1.031-0.734 1.75-0.516 0.469-1.922 1.281-0.969 0.563-2.297 1.719-0.484 0.641-1.086 2.367t-0.602 2.508q0 0.641 0.516 1.328 0.531 0.766 1.156 0.766 1.641 0 3.484-2.422 1.047-1.344 2.938-3.094 2.109-2 2.688-2.641 0.172-0.219 0.172-1.422 0-2.188-0.328-5.422-0.266-2.719-0.563-5.438-0.031-0.172-0.297-1.328-0.203-0.828-0.203-1.078 0-0.344 0.719-1.797h0.641q0.5 1.297 0.734 3.375 0.406 3 0.406 3.594v4.188q0 0.734 0.406 3.984 0.125 0.094 0.422 0.047 1.625-0.672 3.25-0.672 1.188 0 2.148 0.836t0.961 2.008l-0.453 1.172q-0.141-0.016-0.594-0.172-0.859-1.469-2.484-1.469-0.594 0-1.625 0.344-1.344 0.438-1.344 1.109 0 0.172 0.219 0.516 0.422 1.422 2.188 2.203 1.484 0.641 3.203 0.641 1.891 0 5.359-0.703 3.984-0.813 4.906-1.734-0.156-0.875-0.203-2.609 0.094-1.125 0.672-2.203 0.766-1.453 1.766-1.453 1.031 0 1.781 1.422 0.578 1.141 0.578 1.969 0 2.141-1.641 3.625v0.516q0.813 0.906 2.016 0.906h0.813q0.219 0 1.328-0.531t1.188-0.672q0.313-0.563 0.313-1.203l-1.641-16.125q0-0.391 0.734-2.219 0.484 0.094 0.891 1.016 0.188 0.484 0.609 1.516 0.078 0.109 0.359 0.516t0.281 0.594v1.063q-0.078 0.016-0.328 0.016-0.234 0-0.641-0.016zM20.891 2.359q0 0.344-0.438 0.82t-0.781 0.477q-0.969 0-0.969-1.375 0-0.219 0.398-1.031t0.539-0.906v1.547l0.25 0.25q0.781-0.406 1-0.406v0.625zM40.563 24.219q-0.391 0.578-1.75 1.25-1.797 0.875-2.281 1.25-0.25 0.172-0.766 0.172-0.172-0.031-0.172-0.313 0-0.766 2.281-1.969 1.656-0.891 2.516-1.156zM22.578 7.109q0 0.375-0.461 0.953t-0.805 0.578q-0.141 0-0.805-0.406t-0.836-0.406q-0.156 0-0.656 0.477t-0.656 0.477q-0.094 0-1.875-1.25-0.016-0.578 0.352-1.188t0.883-0.609q0.172 0 0.805 0.344t0.805 0.344q0.188 0 0.719-0.484t0.656-0.484q0.344 0 1.109 0.68t0.766 0.977zM23.969 21.859q0 0.219-0.516 0.688t-0.781 0.578q-6.797 3.078-6.969 3.078h-0.734v-0.438q0-0.5 3.547-2.141l4.969-2.391q0.484 0.469 0.484 0.625zM59.938 17.078q0-0.219-0.438-0.938-0.578-0.859-0.984-0.859-0.234 0-0.648 0.367t-0.414 0.586q0 0.281 0.734 2.078 0.266 0 0.938-0.328 0.813-0.422 0.813-0.906z"></path>
</svg>
