<!-- Generated by IcoMoon.io -->
<svg version="1.1" xmlns="http://www.w3.org/2000/svg" width="69" height="32" viewBox="0 0 69 32">
<title>surah102</title>
<path d="M68.891 4.297q-0.141 0.219-0.453 0.625-0.281-0.156-0.844-0.578-0.25 0.531-0.219 1.047l0.953 11.641v4.578q0 0.703-0.953 3.344-0.094 0-0.344 0.172-0.328-0.516-0.328-2.016v-4.828q-0.266-3.328-0.875-14.969-0.031-0.234-0.203-0.852t-0.172-0.867q0-0.688 0.984-2.344h0.484zM58.656 2.016q-0.219 0.641-0.344 0.906-1.5 0.641-4.547 1.969h-0.469q-0.172-0.016-0.172-0.313 0-0.5 2.266-1.563 2.109-1 2.531-1h0.734zM56.859 8.438q0 1.25-0.891 1.422-0.406-0.047-1.219 0.078-0.938 0.344-0.938 0.375-1.109 0-1.109-1.531 0-0.203 0.070-0.594t0.070-0.594q0.297-0.313 0.516-0.313 0.125 0.547 0.578 1.641h0.313q0.25-1.203 0.594-2.063 0.078 0.594 0.844 1.5 0.281-0.094 0.281-0.906 0-0.375 0.109-0.594h0.484q0.297 0.906 0.297 1.578zM57.547 13.219q0 0.344-0.5 0.867t-0.828 0.523q-0.141 0-0.992-0.555t-0.992-0.555q-0.156 0-0.625 0.484t-0.641 0.484q-0.344 0-1.922-1.141 0.453-1.766 1.391-1.766 0.141 0 0.914 0.477t0.945 0.477q0.156 0 0.734-0.477t0.719-0.477q0.453 0 1.125 0.617t0.672 1.039zM63.906 22.906q0 0.797-0.859 1.734-0.797 0.797-1.609 1.141v-0.594q0-0.172 0.469-0.656 0.547-0.594 0.766-0.828-0.25-0.156-0.969-0.125v-0.594q0-0.266 0.57-0.664t0.883-0.398q0.75 0 0.75 0.984zM42.609-1.531q0 0.781-1.313 1.453-1.031 0.438-2.063 0.891-1.063 0.531-3.766 1.891-0.188-0.172-0.313-0.172v-0.766q2.266-1.766 7.25-3.766 0.203 0.172 0.203 0.469zM62.406 4.594q-0.281 0.156-0.5 0.156t-0.391-0.109q-0.266 0.516-0.219 0.969l0.953 11.266q0.031 0.406 0.031 0.766 0 4.578-4.391 4.578-0.953 0-1.984-0.734t-1.391-1.625q-0.063 0-0.188 0.047-2.125 2.578-5.484 2.578-2.344 0-5.172-3.219-1.109-1.281-2.906-2.578-0.203 0.953-0.719 2.438-0.984 1.625-3.328 2.359-0.953 0.313-1.938 0.313-1.328 0-2.109-0.75-1.281-1.188-1.344-5.547-0.063-2.234-0.188-8.016-0.031-1.141-0.25-3.797l-0.188-2.594q0-0.516 0.563-1.984h0.516q0.078 0.078 0.25 0.297 0.359 1.328 0.391 4.422 0.016 2.984 0.438 4.141 0.688-0.688 2.016-1.75 1.453-0.859 5.266-2.906 8.172-4.078 11.188-4.078 1.641 0 1.641 1.641 0 2.141-2.672 5.172-2.547 2.813-3.531 2.703 0.641-1.219 1.406-1.891l0.094 0.672q0.125 0 0.273-0.055t0.18-0.055q-0.031 0.203-0.297-1.078l1.969-2.063q1.203-1.313 1.203-1.844 0-0.984-0.906-0.984-1.484 0-7.516 2.719-4.766 2.172-6.422 3.125-1.328 0.797-1.656 1.047-0.953 0.656-1.5 1.344 0.25 0.391 1.859 1.094 2.281 0.953 2.828 1.25 2.313 1.25 5.359 4.156 0.906 0.938 2.781 2.781 1.234 1.188 2.828 1.188 2.203 0 3.359-0.891 0.313-0.25 1.688-1.641 1.016-1.063 1.563-1.094 0 0.891 0.063 1.453 0.078 0.844 1.016 1.406 0.813 0.469 1.719 0.469 1.438 0 1.844-0.672 0.219-0.391 0.219-1.547l-1.5-16.125q0-0.344 0.719-2.141h0.641l1.828 4.063v1.156zM48 13.578q-0.891 1.438-1.234 1.438-0.984 0-0.984-1.453 0-0.688 0.422-1.625 0.5-1.094 1.063-1.219 0.172 0.031 0.172 0.359 0 0.188-0.336 0.805t-0.352 0.805v0.578q0.188 0.094 0.391 0.094 0.313 0 0.656-0.297zM44.953 9.078q0 0.656-0.688 0.656-0.172 0-0.813-0.477t-0.813-0.477h-0.891q-0.125-0.094-0.125 0.219 0 0.156 0.891 0.891 1.125 0.906 1.547 1.422l0.203 0.516q0 1.234-1.453 1.234-0.547 0-2.844-1.125-2.5-1.234-2.5-1.828 0-0.547 0.766-0.891h0.609q0.094 0.672 1.234 1.391 0.313 0.188 1.922 1.078l0.469-0.094q-2.781-2.375-2.781-2.516 0-1.109 2.844-1.109 2.422 0 2.422 1.109zM54.922 23.531q0 1.484-1.438 2.281-0.516 0-0.516-0.281 0-0.172 0.336-0.766t0.383-0.797q-0.344-0.078-0.984-0.438 1-1.047 1.375-1.047 0.844 0 0.844 1.047zM25.844-2.641q0-0.344-0.188 2.234-0.375 0.109-0.938 0.375-0.578 0.422-1.719 1.219t-1.813 0.797l-0.188-0.141v-0.375q1.891-1.281 2.781-2.172-0.719-0.984-0.719-1.297 0-0.469 0.68-1.281t1.148-0.813q0.953 0 0.953 1.453zM28.609 5.453q0 0.344-0.422 0.875t-0.734 0.531q-0.406 0-1.531-0.828-0.156 0.094-0.797 0.641-0.516 0.453-0.656 0.453-0.375 0-1.023-0.664t-0.648-1.008q0-0.641 0.344-1.078 0.297-0.313 0.859-0.938-0.25-1-0.203-1.234 0.078-0.297 0.453-0.734 0.438-0.594 0.828-0.594 0.547 0 1.109 0.891 0.5 0.719 0.5 0.938 0-0.156-0.594 1.359v0.172q0.594-0.578 0.813-0.578 0.469 0 1.086 0.664t0.617 1.133zM43 21.797q0 0.688-0.688 1.859-0.813 1.313-1.641 1.438v-0.578q0-0.156 0.438-0.672 0.313-0.313 0.656-0.734v-0.516q-0.188-0.031-0.359-0.031-0.375 0-0.547 0.203-0.188-0.031-0.188-0.344 0-0.453 0.523-1.031t0.992-0.578q0.813 0 0.813 0.984zM21 9.813q0 0.391-0.508 0.938t-0.867 0.547q-0.469 0-0.93-0.43t-0.461-0.898q0-0.797 0.57-2.102t1.133-1.82h0.641q-1.063 2.813-1.109 2.875 0 0.703 0.563 0.703 0.125 0 0.383-0.063t0.43-0.063q0.156 0.016 0.156 0.313zM31.797 22.688q0 0.938-1.563 2.406-0.531 0-0.531-0.25 0.125-0.234 0.844-1.313-0.219-0.281-0.953-0.641v-0.516q0.875-0.719 1.297-0.719 0.906 0 0.906 1.031zM28.203 12.25q0 0.328-0.391 1.297t-0.609 1.141q-0.766 0.344-2.016 1.25-0.109 0.75-0.234 1.391-0.359 1.688-1.469 2.828-0.641 0.641-2.641 1.969-2.406 1.578-3.766 1.984-0.484 0.063-3.047 0.375-1.063 0.125-2.938 0.609-0.531 0-1.297-0.141 0.469-0.891 1.156-1.031 1.625-0.328 3.719-0.906 1.672-0.844 5-2.547 4.109-2.094 4.109-3.516 0-0.813-0.688-2.117t-0.688-1.617q0-0.844 0.875-1.531 0.422 0.516 0.844 1.023t1.109 0.508q0.391 0 1.453-0.5-0.047-0.266-0.445-1.156t-0.398-1.063q0-0.828 0.766-1.578 0.719 0.375 1.203 1.609 0.391 0.984 0.391 1.719zM17.672 15.016q0 1.031-1.406 2.438-0.188 0.188-0.734 0.188-1.328 0-1.328-2.281 0-2.891 1.844-5.031 0.516 0 0.516 0.328 0 0.219-0.555 1.523t-0.555 1.523q0 1.109 0.641 1.719 0.422-0.406 1.266-0.953 0.313 0.313 0.313 0.547zM22.109 24.219q0 0.797-1.094 1.25l-1.422 0.516q-1.5 0.813-2.656 1.203h-0.469q-0.172-0.297-0.172-0.969 1.75-0.75 5.172-2.469h0.469q0.172 0.172 0.172 0.469zM39.141 17.5q0-0.219-0.047-0.375-0.641-1.25-1.391-1.922-0.109-0.078-0.391-0.219-0.594-0.688-2.094-1.547-1.453-0.797-2.406-1.031l-0.172 2.547q0.078 0.672 0.25 2.031 0.125 1.125 0.609 1.688 0.641 0.766 1.359 0.766h0.828q0.422 0 1.781-0.547 1.672-0.656 1.672-1.391z"></path>
</svg>
