<!-- Generated by IcoMoon.io -->
<svg version="1.1" xmlns="http://www.w3.org/2000/svg" width="63" height="32" viewBox="0 0 63 32">
<title>surah103</title>
<path d="M63.031 4q-0.172 0.203-0.141 0.344h-0.484q-0.281-0.234-0.813-0.516-0.078 0.109 0.063 4.922 0.344 1.141 0.375 1.922l0.172 5.422q0.203 5.984-0.797 7.563-0.063 0.047-0.438 0.141l-1.234-22.328q-0.047-0.984 0.813-2.438 0.25 0.156 0.594 0.453 0.672 1.5 1.891 4.516zM48.172 6.859q0.031 0.5-0.516 1.227t-1.016 0.727q-1.031 0.016-1.078-1.359-0.031-0.688 0.477-1.953t1.023-1.688q-0.594 2.016-0.563 2.578 0.016 0.547 0.391 0.891 0.375-0.156 1.063-0.859 0.094 0.047 0.219 0.438zM58.234 21.703q0.031 0.844-1.055 2.133t-1.914 1.383q1.922-2.234 1.891-2.578-0.031-0.641-0.641-0.609-0.141 0.063-0.734 0.141 0.047-0.422 0.547-0.977t0.906-0.57q0.953-0.031 1 1.078zM49.719 0.047q0.031 1-5.75 2.797-0.297 0.109-3.969 1.578-1.953 0.734-5.828 2.219-3.5 1.359-6.328 3.094h-0.453q-0.094-0.016-0.188-0.391-0.031-1.156 3.594-2.734 1.813-0.734 5.406-2.188 5.563-2.281 13.344-4.844 0.078 0.094 0.172 0.469zM39.922 8.953q0.031 0.813-0.648 1.516t-1.461 0.719q-1.266 0.063-1.313-1.281 0-0.406 0.469-1.266 0.563-1.047 1.109-1.063 0.563-0.031 1.195 0.391t0.648 0.984zM31.906 1.078q0 0.094-0.297 0.43t-0.344 0.461q-0.422 1.109-1.531 1.547-0.609 0.219-1.797 0.656l-0.5 0.031q0.078-0.219 2.156-1.969 0-0.734-1.75-0.688-0.641 0.016-1.563 0.734 0.625-2.359 2.391-2.406 0.719-0.031 1.781 0.266 1.422 0.375 1.453 0.938zM50.281 24.219q-0.281 1.125-2.438 2.063-1.844 0.828-3.188 0.875-2.141 0.078-2.203-1.391 0 0.391 0.531-1.531-0.203-0.344-0.203-0.906 0-1.406 1.078-2.094l0.734-0.047q0.25 0.203 0.25 0.563 0 0.391-0.266 1.031 0.094 0.109 0.266 0.109 0.344 0 0.938-0.328-0.016 0.594-1.063 1.414t-1.031 1.117q0.031 0.844 1.75 0.781 1.594-0.047 4.844-1.656zM56.656 4q0.031 0.375-0.313 0.719-0.344-0.266-1.109-0.656-0.047 0.734-0.047 1.391 0 1.156 0.219 3.234 0.297 2.828 0.422 4.703-0.125 1.391-0.125 1.969 0.031 3.047-1.484 4.703-1.391 1.547-3.656 1.625-2.422 0.063-5.547-2.938-0.125-0.047-0.313-0.047-1.672 0.828-3.469 1.469-1.703 0.625-6.156 1.516l-2.594 0.094q-2.328 0.078-4.516-0.297-0.109-0.031-0.523-0.273t-0.586-0.227q-0.281 0-0.672 0.422l-0.484 0.031q0.047-0.328 0.063-0.969-0.047-1.375-2.156-1.297-1.672 0.047-3.719 1.938-1.703 1.781-3.406 3.531-1.938 1.906-3.297 1.938-1.047 0.047-2.188-0.672-1.406-0.891-1.453-2.156-0.047-1.031 0.125-1.547 0.641-1.328 1.328-2.984 0.172-0.391 0.172-0.859-0.313-0.969-0.641-2.641-0.125-3.484 3.203-7.969 0.547-0.031 0.547 0.297 0 0.141-0.688 1.234-0.797 1.172-1 1.641-0.656 1.484-0.609 3.109 0.078 2.203 0.984 2.188 0.203 0 1.375-1.453 0.297 0.172 0.328 0.484 0.047 1.313-1.375 2.688-0.5 0.297-1.391 1.328-1.203 2.094-1.125 3.75 0.047 2 1.875 1.938 1.047-0.063 1.672-0.641 1.547-1.578 5.609-5.641 0.563-0.594 2.008-1.227t2.273-0.664q1.063-0.047 2.125 0.547 0.234 0.219 0.484 0.438 0.344 0.313 0.547 0.297 0.266 0 1.938-1.781 2-2.141 2.258-2.359t1.711-0.906q0.359-0.172 0.766-0.328 0.641 0 2.031 0.547 2.219 0.891 2.297 2.484 0 0.078-1.016 3.578 0.109 0.063 0.516 0.047 0.75-0.031 2.703-0.914t2.406-1.43q-0.078-0.484-0.953-0.992t-1.391-0.477q-0.219 0.047-0.719 0.141-0.094 0-0.188-0.313-0.063-1.406 2.109-2.375 1.656-0.734 3.125-0.813 1.438-0.047 3.406 0.516 2.375 0.672 2.422 1.703 0 0.625-0.453 1.188-0.156 0.172-1.734 0.813-1.344 0.563-1.328 1.172 0.031 0.469 1.5 1.188 1.266 0.594 1.844 0.672 0.234 0.047 0.703 0.016 1.203-0.016 2.141-0.734 1.109-0.859 1-2.063l-0.703-8-0.234-6.656q-0.063-0.094-0.141-0.422-0.031-0.484 0.953-2.313 0.297 0.281 0.75 0.844 1.547 3.203 1.563 3.906zM21.266 1.797q0 0.688-0.672 0.703-0.219 0.031-0.563-0.266-0.422-0.344-0.484-0.391-0.719 0.688-0.938 1.859-0.328 1.656-0.563 2.203l-0.5 0.016q-0.422-1.125-0.547-1.328-0.359-0.734-0.906-1.063-1.063-0.219-1.125-0.234-0.594-0.25-0.625-0.859-0.016-1.234 0.859-1.266 0.875-0.016 2.594 2.141 0.25-0.047 0.773-1.508t1.117-1.492q0.469 0 1.063 0.719 0.484 0.594 0.516 0.766zM36.016 23.703q0.016 0.781-0.82 1.773t-1.617 1.336q1.297-1.938 1.344-2.078 0-0.734-1.109-0.672v-0.516q0.813-0.906 1.266-0.906 0.313 0 0.609 0.359t0.328 0.703zM20.828 9.375q0-0.094-0.172 0.438-0.75 0.297-2.141 0.891 0.469 1.672 0.984 3.688 0.016 1.406-0.922 2.734 0.078-0.375 0.078-0.891 0-0.828-0.203-2.063-0.578-1.281-1.172-3.031-0.031-1.25 1.172-2.266-0.141-0.047-0.281-0.047-0.234 0-0.5 0.156-0.094 0-0.203-0.344 0-0.328 0.352-0.836t0.633-0.508q0.531-0.016 1.453 0.773t0.922 1.305zM25.891 23.75q-0.469 0.609-2.281 1.563l-3.328 1.703-0.484 0.016v-0.453q-0.031-0.422 2.375-1.703 1.141-0.594 3.375-1.766 0.203 0.141 0.328 0.141zM46.797 15.078q-0.922-0.563-1.359-0.531h-0.563l-0.078 0.313q0.422 0.906 0.984 0.891 0.734-0.031 1.016-0.672zM38.688 9.594q-0.344-0.609-0.953-0.594 0.031 0.641 0.203 0.797zM36.875 16.906q0-0.438-1.063-1.109-0.828-0.563-1.25-0.688-0.125-0.047-0.984-0.047-0.5 0-1.016 0.125-3.422 2.313-3.641 3.734 0.594 0.438 1.875 0.422 6.125-0.844 6.078-2.438z"></path>
</svg>
