<!-- Generated by IcoMoon.io -->
<svg version="1.1" xmlns="http://www.w3.org/2000/svg" width="67" height="32" viewBox="0 0 67 32">
<title>surah104</title>
<path d="M66.25 4.922q-0.344 0.016-0.984 0.125-0.188 0.438-0.188 1 0 0.297 0.047 0.641l0.594 7.219q-0.047 0.141 0.125 6.094l-0.516 2.25q-0.453 1.422-1.109 1.844 0.016-0.469 0.125-1.797t0.109-1.375l-0.922-14.328-0.078-4.141q-0.156-0.438-0.297-1.25 0-0.156 0.688-2h0.5q1.891 4.5 1.891 4.438zM54.984 10.922q0.031 0.328-0.453 0.758t-0.797 0.43q-1.328 0-1.359-2.125 0.313-1.125 0.641-2.859-0.031-0.984-0.906-0.953l-1.922 1.828q-2.141 1.969-4.266 2.719-0.094-0.047-0.313-0.188 0.188-0.391 2.781-2.391 2.391-1.844 2.391-2.438-0.578-0.719-1.172-2.047 0-0.641 0.875-1.609t1.516-1q0.813 0 0.922 1.391v1.563q0.578 1.016 1.172 2.344 0 0.266-0.391 1.398t-0.391 1.383q0.016 0.344 0.25 0.781 0.234 0.531 0.531 0.531 0.156-0.063 0.891-0.422v0.906zM45.313 1.453q0 0.703-0.5 0.984-0.344-0.281-0.984-0.703-0.531 0.422-0.977 2.211t-0.867 2.133q-0.422-0.859-1.25-2.219-0.125-0.125-1.313-0.391-0.875-0.203-0.906-1.203 0-0.328 0.273-0.797t0.539-0.469q1.063-0.016 2.609 1.891 0.469-0.219 0.984-1.641 0.438-1.313 1.031-1.313 1.328 0 1.359 1.516zM59.359 22.469q0.031 1.188-1.172 2.484-1.063 1.156-2.313 1.641-0.156-0.25-0.125-0.375 0.938-0.828 2.531-2.641-0.172-0.469-0.422-0.469-0.219 0.047-0.953 0.125 0.531-1.656 1.625-1.656 0.813-0.016 0.828 0.891zM36.672-0.063q0.016 0.547-0.563 0.813-5.094 2.172-11.031 4.813-0.203-0.172-0.328-0.172-0.016-0.719 0.547-1.156 0.391-0.359 4.281-2 2-0.891 6.203-2.688l0.719-0.016q0.094 0.047 0.172 0.406zM34.156 6.984q0.031 0.422-0.547 0.953t-1 0.531q-0.469 0-0.836-0.508t-0.367-1.008q-0.031-0.734 0.453-1.742t1.047-1.336q0 0.297-0.273 0.992t-0.273 0.914q0.031 1.031 0.688 1 0.422-0.266 1.109-0.563v0.766zM41 8.656q0 0.969-1.969 1.406-0.297 0.047-2.344 0.859-2.109 0.844-4.156 1.703-0.188-0.172-0.313-0.172l-0.031-0.766q0.469-0.516 0.859-0.688 1.609-0.766 4.453-1.828 2.594-0.984 2.938-0.984 0.563-0.016 0.563 0.469zM40.391 14.641q0.016 0.25-0.484 0.703t-0.797 0.484q-0.906 0-0.938-1.438-0.031-1.406 1.703-3.438 0.188 0.266 0.125 0.359-0.719 1.016-0.719 2.516 0.172 0.375 0.656 0.375 0.203 0 0.422-0.063zM60.297 4.344q-0.359 0-0.984 0.109-0.344 0.422-0.25 1.547l0.719 7.531q0.047 0.672-0.297 3.672-0.094 1-0.813 1.875-0.516 0.625-3.141 1.078-1.109 0.172-4.016 0.609-0.344 0.047-0.734 0.453 0.359 1.094 0.734 2.547 0 0.938-0.563 1.969-0.703 1.234-1.609 1.25-1.797 0.031-2.703-1.5-0.094-0.141-1.156-2.891-0.156-0.391-0.547-0.422l-0.656 0.047q0.047-0.656-0.375-0.766-0.688-0.172-1.875-0.141-1.578 0.016-1.859-0.031-0.844-0.125-3.031-0.438-0.125 0.203-0.688 1.422-0.5 1.094-1.047 1.094-0.281 0.016-0.984-0.75-0.625-0.688-0.781-1.047-0.203-0.844-0.891-2.172-1.547-0.031-2.141 0.094-0.813 0.156-2.203 0.844-2.266 1.156-3.781 3.047-2.828 3.547-4.641 3.563-1.141 0-2.086-0.875t-1.070-2.016q0.031 0.063 0.219-3.719-0.266-0.125-0.766-0.422-1-0.766-1.031-2.016 0-0.516 0.219-1.188 0.078-0.516 0.75-2.391 0.047-0.141 0.609-0.906 0.422-0.563 0.422-0.813-0.563-0.953-1.672-2.906-0.047-0.063-0.047-0.875 0-0.672 0.141-1.156h0.422q0.516 0 2.75 1.766 0 0.094-0.531 0.609 0.391 0.75 0.859 0.75 1.328-1.281 4.031-3.828 0 0.031 0.086 0.133t0.086 0.289q0 0.328-1.414 2.359t-1.383 2.25q0.313 0.563 0.625 1.109 0.625 1.109 0.641 1.984 0.031 1.578-1.047 2.828-1.016 1.047-2.047 2.047-1.078 1.359-1.063 3.172 0.047 2.063 1.625 2.047 1.75-0.031 4.5-3.375 0.813-0.984 3.25-2.953 1.453-1.156 3.75-1.719 0.563-0.078 1.695-0.258t1.742-0.977q2.688 3.156 8.031 3.063 2.172-0.063 2.906-0.469 0.984-0.594 1.641-2.734 0.281-0.375 0.719-1.141 0.625-1.391 2.266-3.391l0.609-0.031q0.25 1.438 0.5 3.188 0.031 1.891-1.188 4.469 0.203 0.125 0.844 0.109 1.156-0.031 4.078-0.625 2.688-0.563 3.141-0.781 0.656-0.328 0.625-1.156-0.219-0.938-0.453-2.641l-0.063-3.172-0.859-9.484q-0.016-0.344 0.367-1.102t0.664-0.977q2.219 3.875 2.219 4.719v0.609zM21.781 2.484q0.016 0.359-0.391 0.914t-0.766 0.555q-0.156 0-0.828-0.406t-0.844-0.406q-0.156 0.031-0.773 0.445t-0.742 0.414q-0.391 0-1.141-0.625t-0.75-1q0-0.297 0.367-0.922t0.648-0.625q0.141 0 0.969 0.539t0.969 0.539q0.156 0 0.68-0.492t0.695-0.492q0.344 0 1.125 0.633t0.781 0.93zM29.281 12.516q0.031 0.922-1.281 1.563-2.016-1.156-2.031-1.563 0-0.313 0.477-0.969t0.789-0.656q0.453 0 1.25 0.609t0.797 1.016zM39.453 23.203q0.016 1.031-1.484 2.359-1.344 1.203-2.453 1.5 0.781-0.859 2.406-2.703-0.266-0.172-0.531-0.766-0.031-0.406 0.375-0.758t0.828-0.367q0.828 0 0.859 0.734zM30.047 24.469q-0.297 0.5-0.563 1-0.453 0.641-0.859 0.641-1.031 0.016-1.063-1.578 0-0.297 0.664-1.547t0.914-1.422q-0.5 1.563-0.5 1.922 0.031 0.953 0.563 0.953 0.703-0.031 0.844 0.031zM16.438 20.984q0 1.109-5.984 3.906l-0.344-0.328q0.125-0.297 0.438-0.688 1.672-1.141 5.672-3.234 0.094 0 0.219 0.344zM51.828 3.516l-0.016-0.469-0.328-0.328q-0.469 0.469-0.484 0.531 0.344 0.313 0.641 0.313 0.094 0 0.188-0.047zM49.688 15.703q0-0.578-0.484-1.031-1.406 1.438-1.406 2.031v0.75h0.484q1.406-1.266 1.406-1.75zM49.844 24.172q-0.078-0.344-0.234-0.75-1-1.281-1.813-1.25l-0.609 0.031 0.016 0.734q0.031 0.641 0.617 1.031t1.258 0.391q0.609-0.016 0.766-0.188zM20.625 15.969q-0.109-0.516-0.766-1.328-0.734-0.844-1.203-0.813-0.625 0-1.352 1.023t-0.695 1.633q0.016 0.969 0.859 0.969 1.063-0.031 3.156-1.484z"></path>
</svg>
