<!-- Generated by IcoMoon.io -->
<svg version="1.1" xmlns="http://www.w3.org/2000/svg" width="75" height="32" viewBox="0 0 75 32">
<title>surah105</title>
<path d="M74.922 5.063h-0.469q0.172 0-0.688-0.391l-0.094 0.078q0.078-0.938 0.172 0.406 0.047 0.875 0.125 3.234t0.094 2.75q0.172 1.953 0.516 7.828 0.172 3.297-1.688 4.656 0-0.516 0.094-4.625l-1.078-17.531q-0.063-0.859 0.703-1.922 0.344 0 0.469 0.172 1.844 4.234 1.844 4.438v0.906zM61.516 0.906q0 0.219-0.5 0.719-1.031-0.547-1.031-0.578-0.469 0-0.766 1.063 0.047 0.859-0.516 2.563-0.359-0.078-1.063-1.031-0.813-1.141-1.219-1.438-0.375-0.094-1.109-0.484-0.297-0.25-0.297-0.438 0-1.188 0.734-1.188 0.453 0 2.516 2.063 0.469-0.188 1.109-1.516 0.609-1.234 0.813-1.234 0.469 0 0.938 0.703 0.391 0.625 0.391 0.797zM59.563 7.766q0 0.406-0.5 0.93t-0.875 0.523q-0.391 0-1.031-0.516t-0.641-0.859q0-0.484 1.188-1.672 0.359 0.219 1.047 0.641 0.813 0.547 0.813 0.953zM52.781 6.813q0 0.297-0.445 0.742t-0.711 0.445q-0.453 0-0.922-0.453 0.031-1.547 0.078-1.766 0.219-1.281 1.203-2.219-0.016 0.297-0.227 1.023t-0.211 0.977q0 0.484 0.219 0.906h0.375l0.281-0.297q0.234 0.172 0.359 0.172v0.469zM70.797 23.359q0 1.609-2.266 3.141h-0.516q0.609-0.859 1.797-2.531-0.172-0.469-0.547-0.469-0.313 0-0.547 0.094l-0.070-0.148t-0.070-0.32q0-0.344 0.406-0.758t0.75-0.414q1.063 0 1.063 1.406zM49.188 1.469q0 0.375-0.328 0.688h-0.422q0.109 0-0.734-0.422-0.125 0-0.297 0.25-0.266 1.063-0.766 3.453-0.094 0.172-0.469 0.469-0.297-0.797-1.172-2.391-0.297-0.391-1.156-0.984-0.625-0.453-0.625-0.906 0-0.984 0.719-0.984 0.422 0 2.281 2.5 0.297-0.094 0.75-1.547 0.422-1.359 0.875-1.359 0.422 0 0.883 0.422t0.461 0.813zM49.75 15.672q0 0.766-0.422 1.672-0.547 1.156-1.406 1.156-0.766 0-1.172-1.203-0.328-0.891-0.328-1.922 0-1.328 1.406-4.203 0.547 0 0.547 0.266 0 0.172-0.25 0.57t-0.297 0.492q-0.297 0.938-0.297 1.703 0 1.344 0.906 2.078 0.328-0.438 1.109-0.953 0.203 0.031 0.203 0.344zM59.688 24.563q-4.469 2.234-5.344 2.234h-0.734v-0.469q0-0.766 5.766-2.703 0.188 0.172 0.313 0.172v0.766zM42.391 8.656q-0.297 0.328-1.32 0.477t-1.289 0.43q0.063 0.625 0.313 2.203 0.219 1.297 0.219 1.469 0 1.109-0.313 2.438-0.094 0.391-0.547 0.734 0.047-1.172-0.141-3.344-0.797-2.906-0.797-3.156 0 0.469 0.641-1.625l0.25-1q0.156-0.563 0.688-1.031 0.172-0.078 0.375-0.078 0.563 0 1.273 0.797t0.711 1.391q0 0.172-0.063 0.297zM68.828 4.75l-0.328 0.313q-0.219-0.125-0.594-0.422h-0.344l0.859 13.375q0.031 0.313-0.234 1.406-0.172 0.75-0.641 2.078-0.422 0.891-2.016 1.406-1.266 0.453-2.375 0.453-1.422 0-2.5-0.688-0.672-0.422-1.328-1.266-0.547-0.688-0.719-0.688-0.156 0-2.188 0.781-2.375 0.938-3 1.109-3.531 1.016-7.563 1.016-2.641 0-5.484-0.859-2-0.625-3.031-1.703-0.344-0.516-1.234-1.594-2.906 3.047-4.922 3.047-2.875 0-4.234-3.734-0.953 0.953-3.125 2.719-1.203 0.813-3.203 1.625-2.453 1.047-3.859 1.047h-0.938q-0.984 0-1.891-0.453-1.453-0.734-1.953-1.516-0.859-1.438-0.859-3.281 0-0.938 0.422-1.969 0.734-1.766 0.906-2.406 0.047-0.203 0.047-0.516 0-0.453-0.195-1.328t-0.195-1.313l0.344-1.25q0.422-2.984 2.859-5.625 0.516 0 0.516 0.359 0 0.094-0.859 1.766-0.969 1.875-1.328 2.828-0.172 0.422-0.172 0.859 0 2.094 1.031 2.094 0.141 0 0.742-0.586t0.789-0.664l0.344 0.313q-0.453 1.234-0.641 1.656-0.547 1.063-1.188 1.422-0.328 0.078-0.844 0.219-1.344 0.891-1.344 3.109 0 1.578 1.156 2.82t2.734 1.242h0.813q2.031 0 5.313-1.75 3.5-1.844 4.063-3.594 0.094-0.328 0.047-0.938l-1.109-14.469q-0.125-1.547 0.766-2.781 0.484 0.516 0.563 0.906 0.516 3 0.875 9.172t0.875 9.234q0.078 0.453 0.781 1.266 0.813 0.875 1.484 0.984l1.313 0.188q1.203 0 2.859-1.891t2.203-1.844q0.172 0.547 0.641 1.547 0.469 0.813 1.188 1.453 0.922 0.844 3.609 1.375 2.25 0.469 3.938 0.469 2.953 0 6.063-0.656 3.719-0.766 5.469-2.094 0.063-0.219 0-0.797-0.172-1.422-0.172-1.25 0.063-1.078 0.578-2.563 0.859-2.328 2.203-2.328 0.953 0 1.688 1.688 0.594 1.328 0.594 1.906 0 1.047-1.031 3-1.031 0.984-1.031 1.344 0 0.75 1.172 1.219 0.969 0.391 1.875 0.391 1.328 0 2.984-1.359 0.125-0.531 0.047-1.5l-1.109-17.156q-0.031-0.594 0.594-1.844 0.422 0 0.594 0.297 0.781 1.844 1.844 5.172zM34.516 11.313q0 0.469-0.508 1.125t-0.945 0.656q-1.031 0-1.031-1.656 0-0.719 0.477-1.813t1.023-1.484q-0.172 1.031-0.297 1.672t-0.188 0.875-0.063 0.063q0 0.141 0.070 0.352t0.070 0.242q0.109 0.094 0.281 0.094t0.516-0.258 0.422-0.289q0 0.031 0.086 0.133t0.086 0.289zM22.328 0.641q0 0.703-0.469 0.703-0.156 0-0.438-0.219t-0.375-0.219q-0.391 0.219-0.625 1.719-0.234 1.75-0.625 2.438-0.406-0.078-0.766-0.984-0.25-0.609-0.75-1.531l-1.766-1.219v-1.063q0.25-0.469 0.766-0.469 0.469 0 1.328 1.063l1.156 1.453q0.172-0.516 0.547-1.563 0.516-1.344 0.984-1.344 0.391 0 0.75 0.594 0.281 0.438 0.281 0.641zM40.047 25.344q0 0.313-0.578 0.953t-0.875 0.641q-0.125 0-0.852-0.477t-0.945-0.477q-0.141 0-0.781 0.555t-0.813 0.555q-0.375 0-1.023-0.57t-0.648-0.883q0-0.453 0.414-0.961t0.836-0.508q0.172 0 0.906 0.414t0.891 0.414q0.125 0 0.711-0.555t0.742-0.555q0.344 0 1.18 0.586t0.836 0.867zM22.328 8.813q0 0.828-1.531 0.922-1 0.063-1.375 0.547 0.688 4.875 0.688 5.938 0 1.5-0.688 2.969-0.078-1.641-0.438-4.922l-0.406-3.172q0-0.516 0.375-1.813-0.047-0.422 0.094-1.266 0.594-1.422 1.266-1.422 0.656 0 1.391 1 0.625 0.875 0.625 1.219zM28.141 23.281q0 0.563-0.594 0.859-3.984 1.969-4.484 1.969h-0.594v-0.469q0-0.516 5.5-2.703 0.172 0.016 0.172 0.344zM61.516 16.063q0-0.313-0.344-0.984-0.422-0.875-1.063-0.875-0.391 0-0.75 0.414t-0.359 0.836q0 0.203 0.891 1.922 1.625-0.625 1.625-1.313z"></path>
</svg>
