<!-- Generated by IcoMoon.io -->
<svg version="1.1" xmlns="http://www.w3.org/2000/svg" width="52" height="32" viewBox="0 0 52 32">
<title>surah106</title>
<path d="M49.609-3.25q-0.391-0.031-1.125 0.063-0.391 0.375-1.234 1.016-1.203 0.734-2.234 1.156-0.125-0.047-0.375-0.219 2.781-2.344 2.781-2.563 0-0.125-0.281-0.594t-0.281-0.641q0-0.359 0.477-0.938t0.852-0.578q0.734 0 0.813 1.047 0.094 1.281 0.609 1.609v0.641zM51.016 1.453q-0.125 0.438-0.68 0.953t-0.977 0.516q-0.172 0-0.797-0.344t-0.797-0.344q-0.125 0-0.773 0.555t-0.82 0.555q-0.891 0-1.797-1.672 0-0.391 0.469-0.961t0.828-0.57q0.172 0 0.914 0.492t0.914 0.492q0.141 0 0.781-0.492t0.797-0.492q0.813 0 1.938 1.313zM42.422-1.281q0 0.406-0.445 0.914t-0.852 0.508q-1.031 0-1.031-1.453 0-0.719 0.359-1.641 0.5-1.219 1.266-1.578-0.25 0.594-0.547 1.547v1.109q0.25 0.219 0.359 0.219 0.156 0 0.43-0.125t0.461-0.125v0.625zM37.188-3.938q0 0.781-1.563 2.078-0.266 0.234-2.141 0.625-0.188-0.172-0.313-0.172 0.094-0.172 1.5-1.438-0.375-0.188-0.953-0.188-0.766 0-1.563 0.656h-0.516q0.891-2.609 3.172-2.609 2.375 0 2.375 1.047zM44.906 5.219q0 0.391-2.109 1.297-0.969 0.391-2.641 1.078h-0.609q0.016-0.438 0.313-1.047 1.234-0.844 4.703-2.094 0.219 0.141 0.344 0.141v0.625zM47.422 19.125q0 0.781-1.156 2.172t-1.844 1.266q-0.172 0-0.172-0.344 0-0.188 0.875-1.086t0.922-1.227q-0.078-0.047-0.203-0.047-0.266 0-0.859 0.219l-0.344-0.313q0.906-1.906 1.797-1.906 0.984 0 0.984 1.266zM30.813 4.375q0 0.266-0.594 0.922t-0.797 0.656q-0.141 0-0.781-0.406t-0.813-0.406q-0.141 0-0.711 0.477t-0.742 0.477q-0.469 0-1.133-0.641t-0.664-1.078q0-0.891 1.063-1.703-0.109-2.531 1.156-2.531 0.344 0 0.938 0.57t0.594 0.883q0-0.078-0.969 1.797l0.219 0.219q0.109-0.094 0.672-0.594 0.422-0.391 0.609-0.391 0.375 0 1.164 0.727t0.789 1.023zM22.359-2.906q0 0.828-0.609 0.828 0.141 0-0.969-0.531-0.438 0.609-0.703 2.359-0.25 1.625-0.844 2.219-1.172-2.438-1.969-3.578-1.422-0.188-1.422-1.078 0-1.188 0.828-1.188 0.859 0 2.469 2.359 0.125 0 0.266-0.219 0.453-2.563 1.5-2.563 0.5 0 0.977 0.445t0.477 0.945zM51.969 11.016q0 2.953-2.281 4.109-0.203 0.109-5.359 1.531-1.781 0.5-3.578 1.922-0.813 0.891-2.453 2.609-2.047 2.063-3.484 2.063-1.391 0-2.438-1.469-0.875-1.266-0.875-2.313 0-0.75 0.172-1.266 0.219-0.703 0.953-2.281 0.672-1.438 0.672-1.578 0-0.344-1.031-1.031-1.531 1.5-2.906 1.5-0.922 0-1.586-0.688t-0.93-0.688q0.266 0-2.734 1-0.25 0.172-0.469 0.469-0.078 0.797-0.484 2.297-0.203 0.469-0.594 0.875-1.547 1.75-3.844 2.609-0.828 0.422-2.516 1.016-2.156 0.438-3.313 0.438-1.922 0-2.953-0.734-2.516-1.766-2.516-4.578 0-1.031 0.555-2.375t0.555-1.563q0-0.25-0.359-1.219t-0.359-1.219q0-1.594 1.281-4.359 1.156-2.563 2.359-3.984h0.5q0.172 0 0.172 0.328-0.031 0-0.203 0.438-0.531 1-1.555 2.984t-1.023 3.219q0 0.375 0.359 0.922t0.672 0.672q0.375-0.234 0.953-1.109h0.469q0.172 0.172 0.172 0.469 0 1.094-0.875 2.266-0.625 0.422-1.734 1.531-0.438 0.594-0.438 1.703 0 2.031 1.703 3.188 1.375 0.969 3 0.969-0.609 0 3.391-0.594 0.5-0.078 2.688-1.297 2.656-1.484 2.656-2.422 0-0.438-0.625-1.867t-0.625-1.867q0-0.625 0.297-1.5 0.016-0.156 0.344-0.156 0.078 0 0.891 0.977t1.859 0.977q1.031 0 2.125-0.813 0.891-0.797 1.766-1.563 0.078 0.078 0.281 0.234 0 0.953 0.063 1.719 0.109 0.953 1.156 0.953 1.109 0 1.672-1.125 0.797-1.531 1.109-1.781 0.344 0.172 0.922 1.563 0.563 0.938 1.797 0.938 0.438 0 0.969-0.359t0.531-0.75q0-0.422-0.961-3.047t-0.961-3.063q0-1.766 0.813-1.766 0.563 0 1.469 1.125 0.688 0.891 0.891 1.406-0.266 0.219-0.953 0.859 1.109 2.344 1.109 3.906 0 2.859-2 3.844-0.594 0.078-1.625 0.516-0.781 0.516-1.203 1.547-0.859 2.094-0.859 3.406 0 0.563 0.477 1.164t1.039 0.602q1.828 0 5.172-3.984 2.906-3.438 8.734-3.906 2.563-0.891 2.563-1.5 0-0.969-1.984-0.969-0.172 0-0.664 0.133t-0.727 0.133q-2.016 0-2.016-2.016 0-0.875 0.813-2.328 0.984-1.734 2.172-1.734 0.641 0 1.5 0.969 0.734 0.781 1.078 1.547 1.203 2.063 1.203 3.219zM29.125 20.578q0 0.391-0.453 0.922t-0.844 0.531q-0.141 0-0.75-0.359t-0.781-0.359q-0.125 0-0.734 0.516t-0.781 0.594q-0.594-0.391-1.734-1.266 0.078-0.563 0.523-1.234t0.93-0.672q0.156 0 0.758 0.344t0.773 0.344q0.141 0 0.648-0.406t0.68-0.406q0.422 0 1.094 0.516t0.672 0.938zM17.938 7.125q0 0.891-0.859 1.141-1.438 0.391-1.781 0.688 1.109 4.844 1.109 5.594 0 0.531-0.297 1.969-0.313 1.594-0.563 1.766-0.125-2.016-0.563-5.734-0.063-0.266-0.469-1.672-0.328-1.188-0.328-1.453 0-0.219 0.156-0.766 0.188-0.656 0.219-0.828 0.391-2.547 1.281-2.547 0.484 0 1.289 0.742t0.805 1.102zM15.422 23.125q-1.016 0.625-2.828 1.141l-3.031 0.828h-0.438q-0.203-0.203-0.203-0.484 0-0.563 0.344-0.688 1.625-0.688 5.547-1.609l0.609 0.156v0.656zM15.453 24.875q-0.328 0.703-0.75 0.859-3.391 1.156-5.016 1.156h-1.313v-0.469q0-0.688 1.047-0.859 5.234-1.031 4.719-1.031h0.984zM48.375 8.563q0-0.203-0.313-0.516h-0.609q-0.297 0.297-0.297 0.516 0.359 0.125 0.656 0.125 0.328 0 0.563-0.125z"></path>
</svg>
