<!-- Generated by IcoMoon.io -->
<svg version="1.1" xmlns="http://www.w3.org/2000/svg" width="78" height="32" viewBox="0 0 78 32">
<title>surah107</title>
<path d="M78 19.734q0 0.891-0.344 2.172-0.391 1.469-0.859 1.625l-2.516-23.047q0-0.641 0.859-2.406 0.375 0.234 1.438 2.313 1.156 2.188 1.156 3.031 0 0.609-0.578 0.609-0.141 0-0.336-0.078t-0.242-0.078q-0.234 0.234-0.234 0.422zM62.375 5.75q0 2.188-0.938 2.719-0.344-0.531-0.344-1.047 0.047-0.359 0.125-1.109 0.063-1.734-0.703-3.016-0.234-0.406-1.344-1.969-0.844-1.188-0.844-1.391 0-0.406 0.641-1.031 3.406 2.016 3.406 6.844zM74.828 19.813q0 0.906-0.5 1.984-0.688 1.484-1.797 1.484-0.266 0-1.188-0.469t-1.047-0.688q-0.328-0.563-1.109-1.922-0.641 0.078-1.797 0.719-1.484 0.813-1.891 0.938-4.953 1.547-6.609 1.547-4 0-5.266-3.156-0.609-1.594-0.906-7.141-0.047-0.688-0.047-2.703l-1.25-9.203q0.234-1.313 0.734-2.141 0.781 0 1.078 1.797l0.25 2.406q0.563 3.859 0.563 4.828v3.609q0 0.359 0.328 3.016 0.344 2.828 0.563 3.625t0.922 1.539 1.469 0.867q1.031 0.172 2.328 0.172 1.656 0 6.5-1.563 0.688-0.219 2.266-1.594 0.156-0.438 0.172-0.438l-1.672-16.766q0-0.344 0.719-2.188h0.516q2.359 5.141 2.359 5.359 0 0.203-0.148 0.438t-0.148 0.25q-0.172 0-0.469-0.063t-0.359-0.063q-0.25 0.25-0.25 0.5 0 0.781 0.219 2.188 0.25 1.578 0.266 2.219-0.047 0.516-0.016 1.547 0.094 0.609 0.313 2.219 0.047 0.813 0.172 2.453 0.125 1.359 0.641 1.734 0.422-0.031 0.734-0.031 3.359 0 3.359 2.688zM66.5 10.078q-1.297 0.703-4.234 1.828-2.656 1.016-3.813 1.719-0.391 0.234-0.422 0.594 0 0.203 0.078 0.688 0.094 0.891-0.734 0.891 0.141 0-0.813-0.422-0.375-2.281 1.844-3.266 6.25-2.813 7.359-2.813h0.594q0 0.125 0.070 0.398t0.070 0.383zM64.859 16.406q0 0.547-0.492 1.078t-1.039 0.531q-1.109 0-1.109-1.875 0-1.281 1.141-2.953h0.516v0.891q0 0.172-0.273 0.75t-0.273 0.766q0 0.766 0.547 0.766 0.063-0.078 0.781-0.438 0.203 0.219 0.203 0.484zM47.547 1.672q0 0.469-0.578 1.070t-1.016 0.602q-1.031 0-1.031-1.828 0-1.406 1.328-2.734 0.047 0.5-0.078 1.094-0.141 0.688-0.141 0.984 0 0.438 0.359 0.813 0.156 0 0.508-0.195t0.508-0.195q0 0.016 0.070 0.117t0.070 0.273zM40.063 3.703q-0.172 0.172-0.484 0.172-0.125 0-0.492-0.203t-0.539-0.203q-0.125 0-1.156 1.078-1.188 1.234-1.828 1.656-1.547 1.031-3.469 1.969-0.203 0-0.203-0.328 0-0.125 1.406-1.531l2.063-1.547q1.797-1.422 1.797-1.922 0-0.063-0.477-0.914t-0.477-1.148q0-0.594 0.547-1.5 0.609-1.078 1.328-1.078 0.516 0 0.688 0.313 0.594 0.984 0.563 1.969-0.031 1.313-0.047 1.234 0.047 0.141 0.469 0.688 0.313 0.391 0.313 0.563v0.734zM30.656 1.391q0 0.453-0.578 1.125t-1.016 0.672q-1.156 0-1.156-1.938 0-1.891 1.063-2.609-0.109 0.547-0.109 1.125 0 0.75 0.156 1.531 0.172 0.125 0.469 0.375 0.266-0.344 0.984-0.813 0.188 0.172 0.188 0.531zM49.625 23.234q-1.609 1.453-2.547 1.813-0.734 0.297-2.313 0.297-1.406 0-1.844-0.172-0.906-0.344-0.906-1.5 0-0.125 0.555-1.109t0.555-1.172q0-0.156-0.289-0.688t-0.289-0.703q0-0.469 0.633-1.164t1.117-0.695q0.422 0 0.891 0.438v0.938q-0.203 0.172-0.688 0.484 0.188-0.016 1.797-0.016-0.203 0.359-1.875 1.703-1.297 1.047-1.172 1.906 1.078 0.516 1.516 0.516 2.016 0 4.359-1.391h0.5v0.516zM21.656 0.266q-0.469 0.438-0.609 0.438-0.156 0-0.18-0.070t-0.18-0.070q-0.609 0-0.813 0.813 0 0.016-0.109 1.273t-0.516 1.93q-0.75-1.063-2.266-2.859-0.344-0.094-1.109-0.344-0.297-0.219-0.297-0.734 0-1.047 0.813-1.047 0.594 0 1.406 0.797 0.984 0.938 1.156 1 0.172-0.359 0.484-1.797 0.172-0.688 0.844-0.688 0.406 0 0.891 0.469t0.484 0.891zM50.578 10.75q0 1.125-1.016 1.922-0.297 0.219-2.063 1.109-2.703 1.344-4.281 1.922-1.453 0.516-5.125 1.938-0.313 0.172-0.703 1.703-0.234 0.859-2.609 3.172-0.969 0.969-3.703 2.281-2.828 1.375-4.016 1.375h-0.906q-0.891 0-2.102-1.039t-1.398-1.898q-0.313-1.844-0.219-3.172-0.016-0.078-0.188-0.25-0.219-0.047-0.844 0.172-0.719 0.266-1.031 0.344-2.391 0.469-2.875 0.469-2.766 0-4.352-1.664t-1.586-4.445q0-0.469 0.477-1.75t0.477-1.719q0-0.141-0.172-0.453t-0.188-0.438q-0.203-1.234-0.203-1.719 0-1.125 0.594-2.836t1.281-2.586q0.344 0.328 0.344 0.422 0 0.344-0.555 2.008t-0.555 2.008q0 1.031 0.797 1.797 0.359-0.266 1.266-0.953 0 0.063 0.078 0.336t0.078 0.414q0 1.016-0.844 1.859-0.484 0.234-1.281 1.078-0.359 0.766-0.359 1.922 0 1.047 0.859 2.438 1.203 1.922 4.328 1.922 1.781 0 4.969-1.625 1.328-0.672 2.984-1.859 2.234-1.625 2.234-2.406 0-0.172-1.242-2.867t-1.242-2.945q0-0.484 0.297-1.578 0.078-0.063 0.453-0.438 0.391 0.203 1.406 1.195t1.016 1.289q0 0.156-0.281 0.5t-0.281 0.469q0-1.109 0.633 1.297t0.633 3.281q0 1.516-2.719 3.828-0.938 0.75-2.797 2.219-0.297 0.516-0.297 1.203 0 1.531 0.938 2.602t2.438 1.070q2.016 0 4.969-1.703 2.797-1.641 4.109-3.359 0.078-0.328-0.5-0.328-0.219 0-0.648 0.078t-0.648 0.078q-3.328 0-3.328-2.641 0-1.016 0.75-2.313 0.906-1.547 2.016-1.547 0.859 0 2.313 1.656t1.641 1.656q0.422 0 1.016-0.219 0.719-0.266 0.719-0.609 0-0.031-0.703-1.289t-0.797-1.695q-0.031-0.141-0.031-0.609 0-2 1.461-3.5t3.43-1.5q0.891 0 2.266 0.484 1.5 0.531 1.969 1.109-0.469 0.25-1.688 0.156-1.438-0.094-1.828-0.031-0.813 0.156-2.156 0.797-1.797 0.859-1.797 1.641 0 0.891 1.391 2.031t2.297 1.141q1.344 0 3-1.031 1.188-0.594 3.469-1.859h0.469q0.297 0.313 0.297 0.484zM22.078 12.203q0 0.344-0.398 0.922t-0.711 0.578q-0.109 0-2.078-1.109 0.203-1.922 1.313-1.922 0.438 0 1.156 0.555t0.719 0.977zM21.266 22.094q0 0.719-3.359 2.438-2.609 1.344-4.234 1.922-0.172-0.203-0.172-0.5 0-0.656 2-1.609 0.203-0.078 2.188-0.969 0.391-0.25 2.906-1.625h0.5q0.172 0.031 0.172 0.344zM73.297 20.422q-0.688-0.438-1.234-0.438-0.141 0-0.297 0.016 1.266 0.641 1.109 0.641 0.219 0 0.422-0.219zM38.094 0.828v-0.484q-0.172-0.203-0.391-0.203-0.125 0-0.266 0.047 0.219 0.453 0.656 0.641zM34.266 15.484q-0.031-0.25-0.352-0.531t-0.539-0.266q-0.375 0-0.375 0.5 0 0.141 0.344 0.469z"></path>
</svg>
