<!-- Generated by IcoMoon.io -->
<svg version="1.1" xmlns="http://www.w3.org/2000/svg" width="67" height="32" viewBox="0 0 67 32">
<title>surah108</title>
<path d="M67.141 1.344q-0.344 0.297-0.5 0.297-0.172 0-0.344-0.133t-0.188-0.133q-0.375 0.172-0.375 0.688l1.25 13.094q0 1.875-0.469 4.156-0.266 1.328-1 1.844-0.203-2.828-0.203-6.766l-1.5-16.141q0-0.422 1.031-2.141 0.328 0.313 1.313 2.344t0.984 2.422v0.469zM54.234 9.625q0 0.313-0.688 1.016t-0.953 0.703q-0.813 0-0.844-1.719-0.047-2.219 1.656-3.406-0.813 2.813-0.813 2.641 0 0.531 0.609 0.953 0.625-0.563 0.859-0.531 0.172 0.016 0.172 0.344zM43.875-4.641q0 0.547-2.859 1.859-2.141 0.953-3.469 1.391-0.172-0.219-0.172-0.484 0-0.672 3.203-1.891 1.766-0.703 2.953-1.391 0.344 0.375 0.344 0.516zM60.891 20.25q0 0.672-0.844 1.656-0.953 1.156-2.188 1.297 0.859-1.125 1.938-1.984v-0.375q-0.094-0.078-0.484-0.078-0.172 0-0.32-0.086l-0.148-0.086v-0.484q0.906-0.891 1.156-0.891 0.891 0 0.891 1.031zM35.563-1.266q0 0.938-0.75 1.789t-1.672 0.852q-1.031 0-1.031-1.375 0-0.422 0.547-1.609 0.594-1.328 0.953-1.328 0.469 0 1.211 0.617t0.742 1.055zM28.781-0.766q0 0.266-0.5 0.992t-0.75 0.727q-0.719 0-1.531-1.672 0-0.344 0.398-0.859t0.711-0.516q0.375 0 1.023 0.5t0.648 0.828zM49.813 18.719q0 0.469-0.172 1.188-1.141-0.391-1.266-0.391-0.469 0-0.813 1.578-0.406 1.922-0.703 2.281-0.422-0.766-1.844-2.156-0.5-0.109-1.266-0.344-0.172-0.188-0.172-0.672 0-1.109 0.844-1.109 0.516 0 1.078 0.516 0.984 0.891 1.328 1.156 0.125-0.188 0.625-1.719 0.391-1.203 0.859-1.203 0.641 0 1.5 0.875zM31 2.141q0 0.359-0.477 0.961t-0.852 0.602q-0.094 0-0.563-0.406t-0.672-0.406q-0.141 0-0.656 0.484t-0.672 0.484q-0.359 0-1.078-0.516t-0.719-0.859q0-0.453 0.406-1.055t0.859-0.602q0.141 0 0.82 0.406t0.82 0.406q0.156 0 0.633-0.406t0.617-0.406q0.453 0 0.992 0.43t0.539 0.883zM60.047 1.047q-0.125 0.109-0.469 0-0.25-0.047-0.516-0.094-0.25 0.25-0.25 0.688 0-0.438 0.5 3.938 0.469 4.063 0.469 6.406 0 3.219-0.734 4.719-0.297 0.594-1.234 0.969-1.484 0.594-3.078 0.594-1.203 0-1.969-0.297-2.172-0.922-4.859-3.406-1.625-1.516-3.813-2.953-0.016 1.031-0.297 3-0.266 1.141-1.734 1.797-0.234 0.109-2.25 0.922-0.391 0.266-1.25 2.406-0.844 1.594-4.156 3.523t-5.156 1.93q-4.375 0-4.375-4.344 0-0.781 0.172-1.656-0.078-0.094-0.297-0.094-0.172 0-1.031 0.641-1.141 0.781-1.484 0.953-0.875 0.594-4.031 1.984-1.422 0.406-4.375 0.953-2.547 0.469-2.906 0.469-0.297 0-0.547-0.516 4.281-1.672 10.688-4.5 0.594-0.281 2.875-2 2.75-2.063 2.75-2.875 0-0.875-0.898-2.336t-0.898-2.32q0-0.453 0.297-1.375 0.156 0 0.672 0.188 0.891 1.328 1.813 1.328 0.594 0 1.391-0.516-0.047-0.25-0.367-1.031t-0.32-0.953q0-0.469 0.297-1.359 0-0.172 0.313-0.172 0.594 0 1.156 1.578 0.438 1.25 0.438 1.625 0 0.313-0.289 1.25t-0.492 1.078q-0.438 0.344-1.625 0.891-0.391 0.172-0.469 0.719 0 0.094-0.516 2.781-0.094 0.563-0.609 1.703-0.422 0.906-0.422 1.859 0 3.547 3.516 3.547 3.125 0 7.438-3.469 0.297-0.25 0.813-1.031-0.125-0.031-0.375-0.156-2.234-0.188-2.953-0.438-1.516-0.563-1.516-2.094 0-0.688 0.75-2.094 0.938-1.641 1.922-1.641 0.844 0 2.125 1.734t1.578 1.734q0.344 0 1.609-0.555t1.516-0.82q0.047-0.109 0.047-0.453 0-1.422-3.672-4.664t-3.672-4.117q0-4.063 7.813-6.453 1.422-0.547 5.266-1.875 2.734-0.875 4.313-0.875 1.844 0 1.844 1.719 0 0.188-0.25 0.719-0.297 0.609-0.391 0.828-0.844 2.438-2.828 3.922-0.125 0.094-1.406 1.453-0.922 0.984-1.625 1.078 0.063-0.391 0.188-0.813 0.203-0.563 0.844-1.281 3.906-4.266 4.078-4.5 0-0.766-1.5-0.766-0.188 0-0.484 0.109t-0.391 0.141q-3.125 0.516-9.828 3.094-1.891 0.734-2.219 0.891-1.234 0.594-1.891 1.344 0.906 0.797 3.156 2.563 0.438 0.203 1.25 0.641 3.125 2.172 9.5 7.484 0.344 0.391 1.141 1.016 1.797 0.828 3.297 0.828 3.391 0 3.391-1.766l-1.672-16q0-0.984 0.891-2.016 0.391 0.125 1.336 1.922t0.945 2.281v0.734zM25.047-2.547q-0.844 0.891-2.938 1.906l-3.344 1.594h-0.516v-0.641q0.516-0.813 2.688-1.594 0.391-0.156 3.594-1.906h0.516v0.641zM22.828 6.219q0 0.203-0.313 0.813-0.156 0-0.438-0.063t-0.422-0.063q-0.453 0-0.594 0.375-0.047 1.234-0.75 3.609-0.094 0.031-0.344 0.188-0.297-0.797-1.203-2.391-0.563-0.281-1.75-0.969v-1.203q0.203-0.438 0.688-0.438 0.625 0 2.297 1.938 0.266-0.25 0.719-1.641 0.359-1.109 1-1.109 1.109 0 1.109 0.953zM21.031 14.469q0 2.172-3.125 3.516-0.094-0.016-0.344-0.188 0.672-0.844 2.234-2.391v-0.375q-0.344-0.047-0.984-0.266v-0.563q0-0.25 0.398-0.586t0.648-0.336q1.172 0 1.172 1.188zM20.469 24.609q-0.672 0.531-3.375 1.609-2.516 1.047-2.859 1.047-0.563 0-0.563-0.688 0-0.547 0.516-0.797 0.844-0.422 2.891-1.203 2.313-0.906 2.797-0.906h0.594v0.938zM34.297-0.797q-0.297-0.141-0.906-0.438l-0.172 0.781 0.906 0.172q0.172-0.188 0.172-0.516zM36.391 15.297q-0.219-0.391-0.719-0.906h-0.484l-0.313 0.391q0.141 0.422 0.141 0.453 0.047-0.078 0.125-0.125 0.141 0 0.625 0.094t0.625 0.094z"></path>
</svg>
