<!-- Generated by IcoMoon.io -->
<svg version="1.1" xmlns="http://www.w3.org/2000/svg" width="84" height="32" viewBox="0 0 84 32">
<title>surah109</title>
<path d="M84.078 2.156q-0.313 0.328-0.469 0.328-0.297 0-0.703-0.422-0.328 0.344-0.328 1.031l1.375 14.125q0 3.938-1.172 5.625l-0.281-0.203q0-4.141-0.453-8.172-0.406-3.219-0.844-8.859v-1.141q0-0.438-0.133-1.359t-0.133-1.391q0-1.5-0.078-2.188 0-0.125-0.109-0.375t-0.109-0.422q0-0.609 0.563-1.797h0.641q0.484 0.516 0.656 0.891 1.578 3.516 1.578 3.859v0.469zM72.172 11.984q0 0.297-0.57 0.859t-0.883 0.563q-1.156 0-1.156-1.797 0-1.578 1.703-3.734 0.516 0 0.516 0.359 0 0.172-0.555 1.367t-0.555 1.398q0 0.266 0.359 0.641-0.234 0 0.641-0.422h0.5v0.766zM62.734-2.125q-1.906 1.234-6.125 3.797-0.188-0.172-0.313-0.172-0.047-0.844 0.297-1.094 4.75-3.172 5.156-3.172h0.984v0.641zM78 14.891q0 5.531-3.391 6.047-0.125 0-0.703 0.258t-0.828 0.258h-1.297q-1.016 0-2.547-1.281-0.703-0.641-2.156-1.891-1.188-1-1.578-1.281-0.984-0.719-1.797-0.953-0.172 1.516-0.344 3.078-0.453 1.688-2.141 2.563-1.953 1-3.766 1-1.734 0-2.859-1.422-0.844-1.094-1.063-2.516-0.188-1.234-0.188-4.703l-1.5-14.047q0-0.344 0.734-2.219 0.172 0.141 0.438 0.438 0.969 4.828 1.531 9.266 1.063-1.016 3.266-2.719 10.938-6.859 13.047-6.859 1.313 0 1.313 1.672 0 2.578-2 5.438-1.672 2.406-4.125 4.266-0.125-0.063-0.375-0.234 1.234-1.969 2.531-3.641 0.547-0.641 1.609-1.969 1.125-1.469 1.125-2.281 0-0.75-0.688-0.75-0.844 0-3.766 1.563-7.016 3.766-10.766 6.984-0.172 0.688-0.172 0.5 0.531 0.531 1.859 0.922 0.656 0.203 1.984 0.594 2.531 0.859 6.797 3.766 0.438 0.281 3.5 2.953 1.422 1.266 3.203 1.266 3.594 0 3.594-2.422l-1.953-17.453q0-0.359 0.25-0.953 0.313-0.844 0.813-1.031l2.406 5.172v0.875l-0.078 0.078q-0.063 0.078-0.344 0.078-0.313 0-0.75-0.406-0.078 0.25-0.078 1.109zM49.75 1.219q0 0.469-0.469 1.070t-0.922 0.602q-0.953 0-0.953-1.797 0-0.703 0.313-1.594 0.375-1.063 0.891-1.297 0.094 0.406-0.125 1.094-0.234 0.813-0.234 1.109 0 0.453 0.359 0.813 0.125 0 0.484-0.195t0.484-0.195l0.016 0.031q0.156 0.125 0.156 0.359zM67.203 22.125q0 0.906-0.875 2.063-0.953 1.344-2.25 1.688-0.078-0.047-0.328-0.219 2.344-2.281 2.344-2.625 0-0.469-0.578-0.469-0.109 0-0.281 0.063t-0.234 0.063q-0.141-0.016-0.141-0.344 0-0.422 0.445-0.938t0.852-0.516q1.047 0 1.047 1.234zM45.313 3.188q0.031 0.578-0.313 1.219-0.375 0.703-0.922 0.703-0.266 0-0.969-0.406t-0.703-0.625q0-1.109 1.188-1.875 1.156 0.578 1.719 0.984zM51.563 20.813q0 0.688-0.594 1.016l-4.031 2.016q-2.516 1.281-4.609 2.313-0.344-0.344-0.344-0.422 0-0.719 3.625-2.578l5.172-2.656h0.609q0.172 0 0.172 0.313zM32.734 2.75q0 0.469-0.391 1t-0.859 0.531q-0.938 0-0.938-1.328 0-0.453 0.195-1.383t0.195-1.352q-0.094-0.109-0.266-0.109-0.5 0-5.422 2.719-4.719 2.578-6.859 3.938-0.203-0.203-0.203-0.547 0-0.953 1.422-1.75 11.578-6.266 12.281-6.266 0.547 0 0.547 0.609 0 0.266-0.477 1.508t-0.477 1.539q0 0.281 0.234 0.766 0.234 0 0.523-0.148l0.289-0.148q0.031 0.031 0.063 0.047 0.141 0.125 0.141 0.375zM49.203 14.172q0 2.063-2.063 3.453-1.219 0.781-4.219 1.797-2.844 0.953-4.5 2.969-0.734 1.016-2.297 2.969-1.344 1.625-2.844 1.625-2.313 0-2.859-1.578-0.078-0.219-0.219-1.406-0.109-0.891-0.469-1.156l-8.734 2.891v-0.516q1.281-0.813 3.734-2.063 2.234-0.859 5.547-2.984 1.422-0.906 4.375-3.359 3.734-3.109 3.734-4.016 0-1.031-1.453-1.031-0.281 0-0.891 0.133t-0.906 0.133q-2.25 0-2.25-2.297 0-1.672 2.156-3.906 0.078-0.219 0.344-0.688 0.734-0.766 1.547-1.625 1.344-1.406 1.344-1.797 0-0.219-0.555-0.875t-0.555-1.125q0-0.609 0.625-1.414t1.219-0.805q0.438 0 0.703 0.203 0.234 0.375 0.172 1.328-0.016 1.078 0.078 1.438 0.047 0.172 0.422 0.695t0.375 0.695q0 0.625-0.578 0.625-0.109 0-0.359-0.141t-0.375-0.141q-0.188 0-1.406 1.359-1.469 1.656-2.141 2.188 0 0.109 0.031 0.219 1.922 1.656 2.609 2.766 0.953 1.5 0.953 3.563 0 1.313-0.266 1.953-0.328 0.828-1.656 2.328-1.719 1.922-3.641 3.422-0.953 0.594-2.578 2.125-0.297 0.359-0.297 1.25 0 2.203 1.594 2.203 1.156 0 3.156-2.578t2.438-3.047q1.281-1.375 3.094-2.328l3.672-1.344q2.781-1.031 2.781-2.031 0-0.984-1.5-0.984-0.219 0-0.727 0.219t-0.727 0.219q-0.984 0-1.672-0.594-0.766-0.609-0.766-1.547t0.688-2.344q0.859-1.766 2.094-1.766t2.563 2.188q1.453 2.313 1.453 4.531zM21.359 0.563q0 0.438-0.641 1.25t-1.078 0.813q-0.375 0-0.703-0.406t-0.328-0.766q0-0.375 0.391-1.484t0.609-1.359q0.516 0 0.516 0.281 0 0.188-0.531 1.844 0.219 0.219 0.313 0.219 0.172 0 0.555-0.422t0.586-0.531q0.313 0.344 0.313 0.563zM30.672 12.297q0 1.734-0.859 2.953-0.625 0.859-2.297 2.172-1.547 1.234-3.125 2-0.891 0.563-2.359 1.156-2.141 0.875-4.109 0.875-1.578 0-3.102-1.188t-1.852-2.75q-0.172-0.906-0.172-1.672 0-0.563 0.344-1.711t0.344-1.68q0-0.156-0.242-0.695t-0.273-0.758q-0.172-1.453-0.172-1.719 0-1.609 1.703-5.797 0.266-0.344 0.813-1.156 0.516 0 0.516 0.422 0 0.266-0.891 2.398t-0.891 2.383q0 0.219 0.156 1.516 0.078 0.5 0.609 1.031 0.547-0.453 1.531-1.25 0.313 0.375 0.313 0.563 0 0.844-1.156 2.609-0.484 0.406-1.297 1.266-0.297 0.438-0.297 1.25 0 1.922 1.352 3.25t3.273 1.328q2.391 0 5.25-1.406 2.266-1.125 5.234-3.859 0.391-0.375 0.391-1.031 0-0.25-1.102-2.758t-1.102-2.789q0-0.984 0.438-1.844 0-0.172 0.297-0.172 0.547 0 2.438 2.266v0.469q-0.078 0.078-0.5 0.219-0.313 0.156-0.313 0.328 0 0.063 0.555 1.469t0.555 2.313zM23.031 11.641q0.063 0.516-0.266 1.156-0.344 0.766-0.844 0.766-0.438 0-1.641-0.875 0-0.438 0.25-1.125 0.313-0.906 0.766-0.906 0.359 0 1.734 0.984zM18.484 23.375q0 0.563-0.641 1.617t-1.156 1.133v-0.594q-0.031-0.125 0.328-0.547t0.359-0.578v-0.656q-0.203-0.094-0.422-0.094-0.25 0-0.531 0.141v-0.734q0-0.25 0.414-0.656t0.664-0.406q0.984 0 0.984 1.375zM62.5 18.063q0-0.297-0.625-1.422-0.344-0.672-3.039-2.508t-3.352-1.836h-0.594q0 0.219-0.078 0.664t-0.078 0.664q0 1.922 0.453 3.719 0.781 3 2.531 3 4.781-1.047 4.781-2.281zM38.938-0.813h-0.516q0 0.188 0.313 0.531 0.203-0.188 0.203-0.531zM45.734 11.047v-0.516q-0.844-0.422-0.891-0.453-0.391 0-0.766 0.641 0.469 0.469 0.969 0.469 0.141 0 0.375-0.070t0.313-0.070zM36.063 9.5q-0.375-0.938-0.984-0.938-0.688 0-0.688 0.563 0 0.172 0.070 0.273l0.070 0.102q0.375 0.141 0.766 0.141 0.375 0 0.766-0.141z"></path>
</svg>
