<!-- Generated by IcoMoon.io -->
<svg version="1.1" xmlns="http://www.w3.org/2000/svg" width="39" height="32" viewBox="0 0 39 32">
<title>surah11</title>
<path d="M32.203 3.141q0 0.969-0.813 0.969-0.172 0-0.586-0.211t-0.586-0.211q-0.156 0-0.328 0.266-1.453 2.766-6.891 6.109-0.188-0.203-0.188-0.422 0-0.172 2.234-2.281 2.688-2.594 3.328-3.25 0.391-0.453 0.391-1.031-1.531-1.047-1.531-2.156 0-0.734 0.938-1.891t1.625-1.156q1.125 0 1.406 1.578 0.141 0.859-0.047 2.219 0.125 0.125 0.688 0.656 0.359 0.375 0.359 0.813zM22.813 0.578q0 0.422-0.469 0.891-0.422-0.125-1.531-0.688-0.422 0.563-0.766 2.063-0.297 1.328-0.906 1.828-0.297-0.266-0.688-1.43t-1.016-1.57q-0.297-0.109-0.906-0.328-0.797-0.297-0.797-0.703 0-0.297 0.422-0.844t0.688-0.547q0.719 0 1.484 0.891 0.188 0.25 0.953 1.203 0.203-0.25 0.75-1.516 0.344-0.844 1.031-0.844 0.531 0 1.141 0.539t0.609 1.055zM33.891 22.859q0 0.516-0.742 1.547t-1.211 1.031q-0.688 0-1.125-0.828-0.375-0.688-0.375-1.453 0-1.125 0.492-2.641t1.211-2.281h0.469q0.172 0.031 0.172 0.344t-0.484 1.695-0.484 1.695q0 0.672 0.5 1.266 0.406-0.375 1.219-0.844 0.359 0.328 0.359 0.469zM39 14.219q0 1.328-0.594 2.313-0.688 1.156-1.969 1.156-0.734 0-2.25-0.352t-2.25-0.352q-0.391 0-1.797 0.359-1.719 0.453-2.359 0.938-0.344 0.906-1.156 2.563-1.234 1.703-4.313 3.391-3.156 1.75-5.172 1.75-3.609 0-3.609-3.938 0-0.219-0.063-0.625t-0.063-0.609q-0.25-0.234-0.375-0.234-3.547 1.813-4.406 1.813-2.016 0-2.016-3.266 0-1.063 0.563-2.781l0.547-1.703q0 0.031-0.492-0.844t-0.492-1.797q0-0.688 0.563-2.016 0.609-1.469 1.156-1.578-0.094 0.547-0.359 1.625-0.234 0.969-0.234 1.141 0 0.469 0.766 1.109 0.453-0.453 1.141-0.688 0 0.016 0.086 0.164t0.086 0.32q0-1.422-1.039 1.813t-1.039 4.078q0 1.938 1.156 1.938 0.922 0 1.922-0.438 1.328-0.594 4.359-2.641 3.219-2.156 3.219-2.75 0-0.766-3-2.125-0.813-0.344-5.109-4.016-0.203-1.094-0.203-1.125 0-0.25 0.297-1.156h0.594q0.656 0 2.844 1.547-0.281 0.594-0.266 0.844 0.797 0.703 2.688 1.68t2.438 1.492q0.953 0.906 0.953 2.516 0 1.688-0.469 2.266-0.656 0.734-2.141 1.766-1.625 1.109-2.219 1.703-0.141 0.125-0.141 1.172 0 2.984 2.953 2.984 1.625 0 4.922-1.75 3.469-1.844 3.344-3-0.047-0.047-0.234-0.172-1.016 0-1.953-0.047-1.5-0.047-2.453-0.984-0.344-0.328-0.344-1.313 0-0.828 0.75-2.188 0.922-1.625 2.031-1.625 0.703 0 2.016 1.656 0.438 0.563 1.375 1.813 0.219 0.031 0.438 0.031 1.016 0 1.625-0.688 0.234-1.438 0.406-2.141 0.313-1.234 0.813-2.031 0.391-0.359 0.859-1.203 0.125-0.781 0.359-2.234 0.25-0.328 0.594-0.328t1.148 0.508 0.992 0.82q-0.266 0.281-0.219 0.672 0.391 0.391 3.25 2.188 1.547 0.984 1.547 2.609zM11.609 23.016q0 0.641-0.938 1.125l-1.281 0.656q0.047 0.078 0.344 0.078 0.125 0 0.742-0.258t0.789-0.273q0.188 0.172 0.188 0.391 0 0.625-0.578 0.922l-2.688 1.281h-0.719l-0.141-0.172v-0.516q1.172-0.719 1.672-1.188 0-0.063-0.25-0.063-0.125 0-0.469 0.203t-0.516 0.203h-0.594q0-0.016-0.070-0.117t-0.070-0.289q0-0.438 0.438-0.734 2.484-1.594 3.25-1.594h0.719q0.172 0.016 0.172 0.344zM29.703 1.047v-0.641l-0.594-0.578-0.344 0.313q0.172 0.563 0.938 0.906zM37.625 14.984q-0.141-0.266-1.039-0.992t-1.133-0.727h-0.438q-0.297 1.25-0.297 1.625 0.906 0.438 1.922 0.438 0.672 0 0.984-0.344zM33.609 13.391q0-0.156-0.438-0.922-0.516-0.859-0.891-1.031-1.297 1.031-1.297 2.344 1.156 0.703 1.453 0.703 0.359 0 0.766-0.367t0.406-0.727zM24.313 16.281q0.016-0.391-0.859-1.094l-0.625 0.141v0.375q0.594 0.578 1.031 0.578h0.453z"></path>
</svg>
