<!-- Generated by IcoMoon.io -->
<svg version="1.1" xmlns="http://www.w3.org/2000/svg" width="54" height="32" viewBox="0 0 54 32">
<title>surah110</title>
<path d="M53.922 3.141q-0.344 0.344-0.563 0.344 0.109 0-0.719-0.438l1.125 14.406q0.063 0.609 0.063 1.156 0 3.219-1.313 4.672-0.094-3.375-0.375-6.453-0.344-3.422-1.328-15.094-0.016-0.219-0.188-0.742t-0.172-0.773q0-1.234 1.031-2.422 0.094 0.078 0.297 0.234 1.547 3.344 2.141 5.109zM42.406 5.484q0 0.688-0.594 1.414t-1.266 0.727q-0.141 0-0.273-0.070t-0.289-0.070q-0.078 0-0.602 0.352t-0.773 0.352q-1.156 0-1.156-1.813 0-0.875 0.438-1.781 0.391 0.156 0.453 0.891 0.063 0.813 0.438 1.031 0.219 0 0.547-0.375 0.063-0.875 0.063-1.969 0.156 0 0.453-0.297 0.391 0.281 0.516 0.938 0.094 0.766 0.344 1.047h0.359q0.109-0.469-0.172-1.266 0-0.594 0.469-1.25 0.406 0.016 0.75 0.891 0.297 0.75 0.297 1.25zM43.5-0.813q0 0.781-0.703 1.047-4.703 1.875-10.516 4.391-0.641 0.266-1.844 1.031-1.578 1.016-1.578 1.422 0 0.109 0.484 0.797t0.484 0.938q0 0.75-0.641 0.75-0.406 0-0.992-0.727t-0.586-1.133q0-0.688 0.617-1.648t1.227-1.289q1.297-0.688 4.703-2.328 7.922-3.672 8.609-3.672h0.594q0 0.047 0.070 0.148t0.070 0.273zM43.109 10.719q0 0.375-0.477 1t-0.82 0.625q-0.156 0-2.297-1.297v-0.422q0-0.297 0.578-0.883t0.875-0.586q0.391 0 1.266 0.609t0.875 0.953zM49.766 21.688q0 1.094-1.266 2.281-1.125 1.031-2.313 1.375-0.094-0.516 0.813-1.328l1.188-0.984q0.125-0.344 0.313-0.516-0.188-0.219-0.344-0.219-0.125 0-0.43 0.133t-0.43 0.133q-0.172-0.016-0.172-0.313 0-0.391 0.789-1.008t1.133-0.617q0.719 0 0.719 1.063zM27.609-0.344q0 0.703-1.281 2.141-1.188 1.328-1.547 1.375-1.094 0.172-0.703 0.172-0.875 0-1.469-0.219 1.016-0.766 2.359-1.703v-0.344q-0.422-0.25-1.031-0.25-1.484 0-3.031 1.25h-0.484q1.219-3.469 4.766-3.469 2.422 0 2.422 1.047zM48.234 14.609q0 6.016-4.359 6.016-1.078 0-1.469-0.297-0.5-0.391-1.344-2.047-0.953 0.641-3 1.625-5.516 1.703-9.344 1.703-1.141 0-2.438-0.328-0.125-0.016-0.445-0.188t-0.523-0.172q-0.188 0-0.656 0.391h-0.5q0-0.625 0.125-0.891-0.609-0.609-1.531-0.609-2.141 0-4.5 1.844-0.391 0.313-3.594 3.391-1.891 1.813-3.047 1.813-0.5 0-1.563-0.313-2.109-0.641-2.109-3.484 0-1.234 1.18-3.625t1.18-2.453q0-0.469-0.266-1.453t-0.266-1.484q0-1.5 0.953-3.945t1.969-3.586q0.516 0 0.516 0.344 0 0.094-0.734 1.656-0.797 1.672-1.016 2.5-0.188 0.688-0.188 1.734 0 2.063 0.906 2.063 0.172 0 0.781-0.594 0.688-0.688 0.891-0.766 0.203 0.172 0.203 0.469 0 0.938-1.328 2.813-0.5 0.297-1.438 1.109-0.688 0.859-1.422 2.406-0.813 1.781-0.813 2.813 0 0.734 0.391 1.328 0.438 0.656 1.141 0.656 1.266 0 3.391-1.969 3.469-3.25 4.016-3.641 2.609-1.984 5.063-1.984 0.375 0 1.164 0.281t1.18 0.281q0.609 0 1.875-1.625 1.813-2.344 2.5-3 1.672-1.609 3.297-1.609 1.281 0 2.688 0.813 1.703 0.984 1.703 2.438 0 1.141-0.734 2.516v0.484q3.391-0.656 4.922-2.5h0.766q0.516 2.875 1.813 2.875 0.625 0 1.531-0.438 1.078-0.578 1.078-1.141l-1.922-16.609q0-0.797 0.734-2 0.422 0 0.594 0.328 1.609 3.219 1.844 3.859v0.484q-0.172 0.156-0.641 0.156h-0.344zM17.781 1.203q0 0.25-0.313 0.875h-0.453q-0.141 0-0.531-0.406-0.422 0.516-0.688 2.109-0.281 1.672-0.719 2.313-0.266-0.141-0.516-0.734-0.344-0.781-0.422-0.953-1.203-1.797-2.109-2.25l-0.203-0.563q0-1.031 0.891-1.031 0.578 0 1.219 0.859 0.297 0.422 0.875 1.234 0.063-0.047 0.656-1.563 0.563-1.375 1.063-1.375 0.438 0 0.844 0.508t0.406 0.977zM40.484 22.172q0 0.891-1.266 1.625-1 0.594-1.719 0.594-0.141 0-0.578-0.227t-0.578-0.227q-0.094 0-1.25 0.813-1.656 1.156-2.906 1.375-0.766 0.172-1.75 0.172h-0.609q0.703-0.656 2.031-1.203 1.828-0.75 2.266-1 0.734-0.547 2.359-1.453 0.453 0.047 1.266-0.094 0.094-0.031 0.813-0.75 0.609-0.609 1.078-0.609 0.844 0 0.844 0.984zM22.609 8.953q0 1.016-1.156 1.188-1.453 0.234-1.719 0.578 0.953 4.438 0.953 3.891 0 1.5-0.594 2.953h-0.297q0.031-0.859-0.141-2.5-0.094-0.5-0.625-2.125-0.406-1.297-0.406-1.5 0-0.938 1.031-2.516-0.047-0.344-0.047-0.641 0-1.344 1.281-1.344 0.641 0 1.219 0.859 0.5 0.734 0.5 1.156zM23.719 23.359q0 0.578-2.484 2.203-1.781 1.125-2.688 1.547h-0.609q0.188-0.953 0.469-1.156 0.953-0.688 4.813-2.969 0.5 0 0.5 0.375zM35.781 16.063q0-0.531-1.438-1.281-1.297-0.656-1.844-0.656-1.109 0-3.031 1.875-1.438 1.391-2.281 2.625 0.563 0.5 0.891 0.5h0.828q0.922 0 3.531-0.813 3.344-1.063 3.344-2.25z"></path>
</svg>
