<!-- Generated by IcoMoon.io -->
<svg version="1.1" xmlns="http://www.w3.org/2000/svg" width="52" height="32" viewBox="0 0 52 32">
<title>surah111</title>
<path d="M52.125 4.719q-0.391 0.469-0.641 0.469-0.422 0-0.953-0.844l-0.219 0.25 1.109 14.719q0.094 1.016-0.328 3.156-0.375 1.891-0.813 2.5-0.344 0-0.484-0.172v-4.719l-1.563-18.563q-0.047-0.781 1.156-2.266 0.25 0 0.469 0.297 0.813 1.672 2.266 5.172zM39.828-0.75q0 1.141-0.891 1.484-9.547 3.641-17.453 8.469h-0.5q0-0.047-0.070-0.133t-0.070-0.289q0-1.359 3.469-3.219 1.313-0.641 3.922-1.922 4.125-2.125 7.453-3.5 3.469-1.453 3.563-1.453 0.578 0 0.578 0.563zM38.844 11.219q0 0.438-0.469 0.891-0.453 0-0.844-0.406-0.391 0.297-0.563 1.625-0.203 1.438-0.516 1.953h-0.625q-0.266-0.641-0.906-1.672-0.266-0.281-1.203-0.688-0.547-0.25-0.547-0.891 0-1.031 0.734-1.031 0.594 0 2.078 1.547 0.344-0.859 0.656-1.594 0.453-1.063 1.016-1.063 0.438 0 0.813 0.43t0.375 0.898zM25.125 2.078q0 0.328-0.617 0.969t-0.914 0.641q-0.469 0-0.813-0.688-0.297-0.594-0.297-1.141 0-1.719 1.453-2.906 0.5 0 0.5 0.297 0 0.172-0.422 1.023t-0.422 1.055q0 0.297 0.375 0.688 0.141 0 0.602-0.258t0.555-0.289v0.609zM40.359 4.922q0 0.406-3.719 2.266-5.797 2.875-6.938 3.516-3.734 2.063-3.734 3 0 0.156 0.344 0.648t0.344 0.602q0 0.25-0.297 0.586t-0.547 0.336q-0.563 0-1.234-1.484 0-1.625 2.266-3.438 1.75-1.406 3.719-2.172 2.188-1.25 4.016-2.141 2.172-1.078 5.594-2.141 0.188 0.188 0.188 0.422zM49.078 20.078q0 3.109-2.297 3.109-1.469 0-2.484-2.375l-1.984 1.016q-0.797 0.391-1.828 0.391-0.953 0-1.625-0.313-0.313-0.344-0.938-0.797-0.313 0.297-0.906 0.797-0.813 0.469-1.359 0.469-0.656 0-1.102-0.422t-0.57-0.422q-0.172 0-1.242 0.617t-1.242 0.617q-1.625 0-2.453-1.375-2.563 1.516-4.188 1.516-2.859 0-4.688-2.234-0.313-0.734-1.078-2.188-1.031 1.641-3.859 3.422-2.938 1.844-4.781 1.844-0.219 0-1.102-0.445t-0.945-0.57q-0.438-1.234-0.438-1.766 0-1.234 0.477-2.539t0.477-1.82q0-0.438-0.281-1.375t-0.281-1.375q0-1.172 1.203-3.875 1.156-2.578 2.047-3.547h0.469q0.172 0.203 0.172 0.422 0 0.156-1.078 2.047-1.266 2.234-1.266 3.641 0 1.766 0.813 1.766 0.234 0 1.266-1.219 0.266 0.188 0.266 0.609 0 1.891-1.156 2.531-0.391 0.156-1.031 0.688-0.859 1.453-0.859 2.813 0 0.563 0.344 1.078 0.391 0.594 0.906 0.594h0.641q1.141 0 3.836-1.633t3.102-2.648q0.172-0.438 0.172-1.063 0-1.844-1.672-5.797-0.953-2.266-0.953-2.375 0-0.406 0.594-1.578h0.469q1.391 1.531 2.406 4.906 0.313 1.078 1.281 5.25 0.313 1.422 1.375 2.609 1.156 1.266 2.531 1.391 0.203 0.031 0.719 0.203t0.734 0.172q1.141 0 2.766-1.141 0.609-0.438 1.844-1.344h0.641q-0.297 1.172-0.266 1.719 0.531 0.5 1.094 0.5 0.844 0 1.563-0.594 0.234-0.219 1.688-1.781 0.469 0.156 0.547 0.547 0 0.563 0.031 0.813 0.047 0.594 0.828 0.594 0.563 0 1.188-0.859l0.984-1.359h0.484q0.297 2.063 1.969 2.063 0.797 0 1.609-0.313 1-0.391 1-1.063l-1.766-17.719q0-0.266 0.445-1.008t0.68-0.945q0.328 0 0.594 0.453 1.719 3.938 1.719 4.125 0 0.813-0.688 0.813-0.141 0-0.273-0.070t-0.164-0.070q-0.094 0.219-0.094 0.859 0 0.078 0.297 4.219 0.063 0.781 0.469 4 0.047 0.719 0.164 2.125t0.695 2.5q3.344 0.031 3.344 2.172zM38.844 24.516q-0.203 0.406-0.75 0.969-0.938 0.469-1.813 0.469-0.203 0-0.656-0.211t-0.672-0.211q0.781 0-1.078 0.75t-2.172 0.75h-1.281q0-0.391 0.141-0.453 4.656-2.297 4.828-2.297 0.141 0 0.477 0.148t0.477 0.148q0.156 0 0.523-0.281t0.523-0.281q0.109 0 0.234 0.063t0.25 0.063q0.172 0 0.43-0.242t0.336-0.273zM20.688 22.844q0 0.641-0.578 1-4.516 2.656-4.813 2.656-0.359 0-0.688-0.297v-0.5q1.906-1.125 5.563-3.328 0.516 0 0.516 0.469zM46.984 20.719q0.078-0.141 0-0.438-0.125-0.109-0.781-0.281 0.109 0.297 0.781 0.719z"></path>
</svg>
