<!-- Generated by IcoMoon.io -->
<svg version="1.1" xmlns="http://www.w3.org/2000/svg" width="85" height="32" viewBox="0 0 85 32">
<title>surah112</title>
<path d="M84.75 17.891q0 0.141-0.102 0.43t-0.117 0.398q-0.125 1.828-0.219 2.516-0.281 1.609-0.891 2.266l-0.25-0.203q0.031-1.047-0.016-3.234l-0.078-2.297-1.531-17.109q0-0.375 0.383-1.195t0.68-1.023l1.281 2.484q0.828 1.625 0.828 2.328-0.094 0.141-0.313 0.453-0.516-0.219-0.859-0.563-0.344 0.125-0.344 1.109zM72.266 2.953q0 0.406-0.602 1.133t-0.992 0.727q-1.031 0-1.031-1.813 0-2.078 1.203-3.172 0 0.391-0.109 1.148t-0.109 1.133q0 0.906 0.344 1.188 0.172-0.047 1.109-0.688 0.188 0.016 0.188 0.344zM78.625 4.25h-0.641l-0.547-0.547q-0.313 0.109-0.313 0.922l0.984 10.5q0 6.734-4.484 9.281-0.844 0.484-5.313 1.844l-0.328-0.297q0-0.266 0.297-0.469 1.328-0.563 2.359-1.172 4.406-2.734 4.406-4.703 0-1.797-1.156-3.469-1.453-2.141-5.234-6.078-0.922-0.891-3.25-3.344l-3.594-4.703q-0.328-0.453-0.328-1.156 0-0.203 0.078-0.633t0.078-0.648h0.484q1.953 1.203 3.625 2.5v0.5q-0.344-0.031-1.094 0.25 0.063 0.094 2.125 2.609 0.313 0.438 1.203 1.469 4.453 4.453 5.469 5.766 2.328 2.984 2.453 5.359 0.031 0.297 0.203 0.625 0.688-0.547 0.594-1.609l-1.375-16.188q-0.063-0.594 0.859-2.141 0.359 0 0.438 0.172 0.719 1.547 2 4.875v0.484zM81.547 24.047q-1 0.422-2.953 1.516h-0.484q0-0.297-0.289-0.961t-0.289-0.898q0-0.25 0.641-1.141 0.75-1 1.266-1h0.813q0.344 0.344 0.344 0.641 0 0.438-0.469 0.875-0.391 0-0.984-0.266l-0.219 0.219q0.313 0.625 0.75 0.625-0.234 0 1.688-0.281l0.188 0.156v0.516zM57.594 2.109q0 0.766-0.875 1.602t-1.609 0.836q-0.984 0-0.984-1.328 0-0.422 0.422-1.547 0.484-1.438 1.031-1.438 0.688 0 1.352 0.609t0.664 1.266zM59.547 8.75q0 0.328-0.508 0.969t-0.758 0.641q-0.484 0-1.141-0.531t-0.656-1q0-0.313 0.328-0.938 0.359-0.734 0.719-0.734 0.438 0 1.227 0.594t0.789 1zM47.75-0.625q0 0.297-5.172 3.344h-0.438q-0.172-0.172-0.172-0.391 0-0.563 1.305-1.305t3.992-2.289h0.484v0.641zM69.344 15.063q0 0.859-0.688 2.031-0.75 0.125-1.563 0.234-0.656 0.094-1.375 0.531-1.078 0.75-4.016 2.563-0.531 0.328-3.609 1.375-0.922 0.172-2.344 0.5-0.297 0.078-0.563 0.641-0.172-0.344-1.156-0.859-1.328-0.672-3.031-4.109-0.203-0.031-0.297 0.094-0.094 0.391-0.359 1.375-1.234 4.094-5.859 5.703-1.531 0.516-4.563 1.547-0.313-0.344-0.313-0.516 0-0.266 0.469-0.531 0.859-0.375 2.578-1.156 1.453-0.641 2.359-1.406 0.734-0.594 2.188-1.813 1.266-1.141 1.266-2.391 0-1.234-1.313-3.719-0.984-1.922-4.281-4.984t-4.281-4.984q-0.813-1.547-2.734-3.453 0-0.516 0.086-1.5t0.086-0.813q3.297 1.484 4.266 3.125-0.078 0.078-0.523 0.227t-0.445 0.305q0 0.625 1.266 1.891 6.719 6.719 7.828 9.031 0.469 0.953 0.984 3.125h0.094q0.344-1.203 0.344-2.406l-1.375-13.219q0-0.859 0.563-2.641 0.375 0 0.5 0.172 1.094 3.641 1.906 11.516 0.063 1.063 0.375 3.75 0.219 1.25 0.547 2.234 0.359 1.109 1.125 1.734-0.125-2.469 0.938-4.047 1.203-1.797 3.594-1.797-0.469 0 11.328 2.641zM64.656 23.016q0 1-1.328 2.641-0.766 0.969-1.844 0.984 0.25-0.438 1.266-1.641 0.797-0.953 0.797-1.156 0-0.469-0.406-0.469-0.156 0-0.477 0.055t-0.492 0.055v-0.453q0-0.391 0.555-0.859t0.977-0.469q0.953 0 0.953 1.313zM32.391 3.219l-0.656 1.063q-0.406 0.531-0.984 0.531-0.969 0-0.969-1.453 0-0.484 0.469-1.844 0.547-1.469 0.891-1.516-0.516 2.672-0.516 2.406 0 0.141 0.047 0.438t0.047 0.453q0.031 0 0.164 0.070t0.273 0.070q0.078-0.078 0.891-0.438 0.125 0.047 0.344 0.219zM25.203 8.266q-0.078 0.047-0.438 0.828 0.094 0-1.141-0.406-0.359 0.469-0.609 1.594-0.328 1.359-0.625 2-0.313-0.047-0.813-0.938-0.578-1.016-1.047-1.375-0.516-0.125-1.359-0.625-0.203-0.172-0.203-0.813 0-1.109 0.766-1.109 0.578 0 2.375 2.094 0.484-0.297 0.984-1.469 0.406-1.016 0.875-1.016 0.25 0 0.742 0.484t0.492 0.75zM40.984 20.172q0 1.109-5.719 4.063-0.703 0.375-2.453 1.531-1.609 1.047-1.75 1.047h-0.563q-0.172-0.188-0.172-0.422 0-0.563 0.344-0.75 0.25-0.172 9.672-5.875h0.484q0 0.047 0.078 0.141t0.078 0.266zM40.859 12.078q0 1.234-0.883 2.719t-1.945 2.016q-0.422 0.219-1.531 0.703-1.969 0.594-4.031 0.594-0.547 0-2.172-0.141-0.078 1.25-0.859 3.422-1.703 2.156-4.938 3.727t-5.328 1.57q-2.875 0-4.719-1.547-2-1.656-2-4.5 0-0.516 0.492-1.82t0.492-1.82q0-0.188-0.242-0.547t-0.273-0.484q-0.469-1.656-0.469-2.359 0-1.844 1.063-4.578 1.109-2.938 2.406-3.938v0.781q0 0.078-0.719 1.453-1.641 3.219-1.641 4.531 0 2.016 1.188 2.781 0.406-0.203 1.438-1.375 0.297 0.188 0.297 0.531 0 0.984-0.641 2.047-0.578 0.516-1.547 1.672-0.438 0.719-0.438 2.734 0 0.422 0.703 2.047 0.422 0.297 0.766 0.563 1.625 1.328 4.141 1.328 1.109 0 1.297-0.688v-1.234q0-1-0.547-2.641t-0.547-2.078q0-0.797 1.563-4.359 0.453-0.219 0.719-0.219 0.469 0 1.305 0.734t0.836 1.203q0 0.125-0.188 0.672-0.203 0.219-1.406 0.492t-1.609 0.742q0.031 0.813 0.422 2.422t0.391 2.469-0.234 1.703q0.219 0.25 0.484 0.25 0.938 0 3.75-1.531 3.094-1.703 3.094-2.906 0-1.016-0.75-2.773t-0.75-1.852q0-0.297 0.211-0.977t0.383-0.773q0.219 0.094 0.836 0.734t0.789 0.641 0.367-0.148l0.195-0.148q2.609-3.547 4.703-4.75 0.828-0.484 2.266-0.484 1.109 0 2.461 1.156t1.352 2.234zM56.344 2.359q-0.438-0.453-0.906-0.453-0.281 0.453-0.281 0.75 0 0.188 0.125 0.344h0.594q0.469-0.219 0.469-0.641zM63.547 16.641q-0.781-0.406-2.672-0.938l-2.641-0.75q-0.594-0.172-1.547-0.172-0.344 0-1.242 0.703t-0.898 1.031q0 1.109 1.109 2.906 0.219 0.344 1.031 0.344 1.063 0 3.688-1.156 2.734-1.219 3.172-1.969zM39.188 13.109q0-0.469-1.313-1.297-1.25-0.766-1.797-0.766-1.984 0-4.281 2.922l-0.781 1.016q0 0.313 0.172 0.344 1.156 0.297 1.844 0.297 1.328 0 3.422-0.594 2.734-0.781 2.734-1.922z"></path>
</svg>
