<!-- Generated by IcoMoon.io -->
<svg version="1.1" xmlns="http://www.w3.org/2000/svg" width="67" height="32" viewBox="0 0 67 32">
<title>surah113</title>
<path d="M66.75 18.016q-0.047 0.766-0.188 2.281-0.156 1.359-0.719 2.422-0.5-0.688-0.5-2.984 0-0.563-0.094-1.109-0.047-0.266-0.781-6.766-0.203-1.891-0.891-7.188l-0.594-4.531q0-0.719 0.594-2.188h0.516q0.328 0.781 1.25 2.563 0.844 1.594 0.813 1.766v1.016q0 0.172-0.313 0.172 0.125 0-0.813-0.422-0.094 0.141-0.094 0.828zM52.203 6.094q0 0.328-0.555 1t-0.773 0.672q-0.25 0-1.844-1.125-0.047-0.516 0.344-1.219t0.891-0.703q0.422 0 1.18 0.531t0.758 0.844zM54.125-0.938q0 0.906-3.906 2.234-1.828 0.609-6.953 3.078-6.719 3.203-6.719 4.359 0 0.141 0.289 0.438t0.258 0.453v1.031l-0.188 0.070t-0.359 0.070q-0.656 0-1.109-1.453 0-2.438 4.141-4.578 1.703-0.766 5.047-2.313 4.156-1.891 9.328-3.844 0.172 0.234 0.172 0.453zM62.719 21.406q0 1.844-2.703 3.375-0.203-0.031-0.203-0.313 0-0.188 1.938-2.125-0.016-0.094-0.984-0.734 0-0.453 0.383-0.859t0.805-0.406q0.766 0 0.766 1.063zM41.125 0.688q-0.172 0.047-0.391 0.047-0.344 0-0.891-0.172-0.344 1.156-1.219 3.438-0.406 0-0.641-0.297-0.547-1.125-1.266-1.859-0.766-0.25-0.953-0.344-0.438-0.297-0.438-0.859 0-1.047 0.828-1.047 0.563 0 1.203 0.719 0.344 0.391 1.094 1.234 0.234-0.094 0.469-0.859 0.344-1.141 0.438-1.328 0.25-0.453 0.813-0.453 0.25 0 0.602 0.313t0.352 0.578v0.891zM43.609 13.563q-0.188 0.578-0.641 1.734-0.391 0.891-1.156 0.891-1.375 0-1.375-2.609 0-2.563 1.484-4.422-0.5 4.078-0.5 3.516 0 0.313 0.25 0.906t0.484 0.688q0.547-0.094 0.781-0.461t0.281-0.367q0.125 0 0.391 0.125zM51.25 21.953q0 0.766-0.859 2.016t-1.578 1.375q-0.094-0.031-0.344-0.219 0.172-0.25 1-1.25 0.672-0.797 0.672-1.031 0-0.406-0.438-0.406-0.125 0-0.352 0.055t-0.32 0.055q-0.078-0.469 0.438-1.047t1.016-0.578q0.766 0 0.766 1.031zM29.094-0.891q0 0.484-0.375 0.719-4.109 2.531-5.109 2.531h-0.594v-0.594q0-0.547 3.203-1.922 0.781-0.469 2.234-1.234h0.469q0.172 0.203 0.172 0.5zM60.375 16.922q-0.172 0.281-0.188 0.75 0 3.391-4.578 3.391-1.313 0-1.781-0.219-0.984-0.469-2.281-2.297-0.813 0-1.313 0.328-1.547 1.078-4.031 1.719-0.813 0.125-2.906 0.516-2.484 0.5-3.125 0.5h-1.672q-1.281 0-2.844-0.805t-2.234-1.852q-0.531-0.891-0.938-2.672 0-0.063-0.438-0.906-0.609 1.156-2.289 2.023t-1.898 1.258q-0.141 0.953-0.906 2.922-1.109 1.719-5.781 3.984-0.891 0.438-2.609 0.891-1.531 0.406-1.875 0.406-0.266 0-0.82-0.070t-0.836-0.070q-0.094 0-2.109-0.641-3.078-1.016-3.078-4.813 0-1.063 0.555-2.945t0.555-2.664q0-0.625-0.344-1.844t-0.344-1.828q0-1.141 0.813-3.375 0.766-2.016 1.453-3.031 0.188-0.297 0.609-0.297v0.922q0 0.109-0.547 1.203-0.953 1.891-0.953 3.766 0 2.047 1.063 2.797 0.438-0.438 1.25-0.953 0.172 0.203 0.172 0.563 0 0.469-0.453 1.5t-0.828 1.234q-0.438 0.094-1.172 0.688-0.406 0.688-0.672 1.656-0.047 0.094-0.047 1 0 1.531 0.438 2.391 0.797 1.531 2.563 2.172 0.813 0.297 2.953 0.297 0.078 0 2.125-0.641 1.375-0.422 3.047-1.031 4.375-2.203 4.375-3.453 0-0.734-0.828-0.688-0.156 0-0.508 0.070t-0.523 0.070q-3.25 0-3.25-2.656 0-0.953 0.875-2.359 0.984-1.5 1.875-1.5 0.641 0 1.969 1.797t2.125 1.797q0.188 0 1.508-0.789t1.414-0.961q0.344-0.563 0.344-1.422l-1.109-12.063q0-1.016 0.578-2.313 0.875 0.047 1.156 2.797 0.641 6.359 1.594 13.719 0.078 0.469 0.672 1.516 0.688 1.266 1.5 1.703 1.297 0.719 2.328 0.781 0.203 0 0.57 0.18t0.586 0.18q0.641 0 1.281-0.125 0.031-0.031 0.273 0.117t0.398 0.148q0.125 0 0.563-0.172t0.594-0.203l3.594-0.688q2.219-0.531 4.281-1.594 0.344-0.172 0.422-0.594-0.172-0.391-0.172-1.359 0-1.906 0.531-3.438 0.672-1.922 1.875-1.922 0.766 0 1.453 1.359 0.547 0.984 0.641 1.625 0.047 0.313 0.047 1.25 0 2-1.641 3.859 0.141 0.5 0.953 0.859 0.719 0.328 1.328 0.328 3.281 0 3.281-1.578 0-0.141-0.031-0.266l-2.359-16.844q0.219-1.25 0.734-1.938 0.344 0.297 1.391 2.352t1.047 2.398v0.609q-0.141 0.078-0.313 0.078-0.328 0-0.719-0.172-0.078 0.078-0.078 0.594zM19.266 1.203q-0.188 0.188-0.516 0.188-0.266 0-0.813-0.563-0.563 0.172-0.734 1.703-0.203 1.813-0.609 2.453-0.578-0.188-0.922-0.781-0.188-0.391-0.609-1.188-0.5-0.859-1.719-0.984-0.453-0.406-0.453-0.828 0-1.188 0.766-1.188 0.672 0 1.609 1.078 1 1.188 1.281 1.281 0.063-0.188 0.453-2.141 0.234-1.047 0.875-1.047 0.406 0 0.898 0.32t0.492 0.68v1.016zM25.469 8.172q0 0.313-0.297 0.922-0.359 0.75-0.734 0.75-0.141 0-0.953-0.422t-0.969-0.422q-0.141 0-0.719 0.555t-0.75 0.555q-0.344 0-1.133-0.602t-0.789-0.93q0-0.219 0.516-0.93t0.734-0.711q0.156 0 0.906 0.344t0.938 0.344q0.156 0 0.672-0.477t0.656-0.477q0.469 0 1.195 0.523t0.727 0.977zM31.438 23.922q-2.172 1.766-5.328 3.047-0.125 0-0.484-0.219 0.047-0.359 0.344-0.844 1.75-0.906 5.297-2.781zM18.563 19.391q0 0.516-0.508 1.094t-0.992 0.578q-1.109 0-1.109-1.547 0-0.797 1-3.281 0.203-0.266 0.547-0.266-0.734 2.984-0.734 2.578 0 0.969 0.688 0.969 0.172 0 0.469-0.219 0.422-0.297 0.469-0.328 0.172 0.203 0.172 0.422zM54 14.266q-0.609-2.203-1.297-2.203-1.063 0-1.063 1.375 0.297 1.938 0.984 1.938 0.25 0 0.813-0.453t0.563-0.656zM24.766 16.188q0.063-0.391-0.266-0.813t-0.75-0.422-0.766 0.797q0.5 0.438 0.641 0.438h1.141z"></path>
</svg>
