<!-- Generated by IcoMoon.io -->
<svg version="1.1" xmlns="http://www.w3.org/2000/svg" width="67" height="32" viewBox="0 0 67 32">
<title>surah114</title>
<path d="M66.953 18.438q-0.031 0.828-0.125 2.531-0.078 1.453-0.766 2.516l-0.266-0.188q-0.109-1.813-0.625-6.391-0.359-2.516-1.031-8.297-0.141-1.422-0.438-5.141-0.031-0.391-0.25-1.406-0.25-0.938-0.25-1.281 0-0.422 0.359-1.047t0.734-0.75l2.359 5.172v0.734q0 0.172-0.328 0.172-0.188 0-0.578-0.391-0.5-0.5-0.641-0.594zM55.453 1.547q0 0.344-0.734 0.594-2.094 0.609-3.047 1.031-2.391 1.406-4.563 2.406-1.578 0.734-5.609 2.813v-0.859q0-0.75 2.875-2.047 1.313-0.563 3.922-1.703 0.344-0.25 0.984-0.609 2.031-0.844 5.984-2.391l0.188 0.172v0.594zM53.922 9.156q0 1.859-1.438 1.859-0.109 0-0.328-0.070t-0.375-0.070q-0.141 0-0.672 0.281t-0.703 0.281q-1.172 0-1.172-1.938 0-0.859 0.516-1.391l0.094 1.188q0.172 0.734 0.719 0.734 0.391 0 0.875-0.484-0.406-0.844-0.406-1.578 0-0.141 0.344-0.813 0.359 0.734 1.156 2.359h0.359q0.25-0.141 0.25-0.516 0-0.266-0.156-0.797t-0.156-0.703q0-0.641 0.516-0.906 0.047 0.125 0.344 1.156 0.234 0.813 0.234 1.406zM45.188 2.797q0 0.625-1.281 1.156-0.906 0-0.906-1.594 0-0.688 1.063-2.141-0.219 0.953-0.219 1.75 0 0.234 0.484 0.75 0.297-0.219 0.859-0.563v0.641zM54.047 13.656q0.078 0.516-0.328 1.156t-0.891 0.641q-0.531 0-1.922-0.984 0.094-1.922 1.156-1.922 0.563 0 1.984 1.109zM60.719 18.625q0.078 0.594 0.078 1.109 0 4.156-4.234 4.156-1.594 0-2.391-1.328-0.656-1.078-0.734-1.156-1.547 1.328-4.328 2.438-2.891 1.156-4.859 1.156-3.828 0-5.219-2.797-0.688-1.391-1.078-5.453l-1.109-11.469q-0.047-0.594-0.344-2.188-0.266-1.5-0.266-1.766 0-1.047 0.734-1.656 0.297 0 0.563 0.469 0.891 3.922 1.266 9.703 0.063 1.547 0.359 5.531 0.156 1.906 0.25 2.391 0.25 1.5 0.984 3.125 0.375 0.797 1.188 1.188 1.547 0.703 2.953 0.703 2.328 0 5.609-1.516 2.781-1.313 3.953-2.484h0.531q0.266 2.906 2.203 2.906 0.641 0 1.578-0.375 1.156-0.469 1.156-1.031 0-0.156-0.078-0.297l-2.5-18.891q0.016-0.016 0.188-1.078 0.125-0.688 0.578-1.063 0.344 0.5 0.984 1.578 1.281 3.203 1.281 3.469v0.891q0 0.172-0.328 0.172-0.125 0-0.688-0.563-0.094 0.172-0.094 0.984zM46.563 16.906q0 0.422-0.641 1.203t-0.984 0.781q-0.641 0-1.047-1.031-0.344-0.828-0.344-1.578 0-3.344 2.063-5.109-0.953 2.797-0.953 3.938 0 1.25 0.75 1.875 0.375-0.344 1.156-0.969v0.891zM33.172 1.688q0 0.125-0.086 0.32t-0.086 0.273q-0.406 0-1.219 0.078-0.422 0.609-0.594 2.359-0.156 1.547-0.594 1.875-0.094-0.156-1.484-2.25-0.188-0.281-1.438-0.953-0.188-0.766-0.188-0.594 0-0.906 0.766-0.906 0.453 0 1.063 0.766 1.031 1.328 1.156 1.453 0.203-0.172 0.297-0.641 0.516-2.828 1.234-2.828 0.266 0 0.719 0.391t0.453 0.656zM26.234 8.406l-0.438 1.219q-0.375 0.703-1.016 0.703-0.891 0-0.891-1.172 0-0.672 0.297-1.828 0.156-0.547 1.047-1.422-0.531 2.578-0.531 2.359 0 0.297 0.375 0.656 0.375-0.172 1.156-0.516zM36.328 21.781q-0.078 0.141-0.297 0.422-5.531 3.266-8.891 5-0.219-0.188-0.219-0.484 0-0.672 2.891-2.203 1.125-0.578 3.391-1.75 0.906-0.625 2.813-1.781 0.188 0.156 0.313 0.156v0.641zM35.25 13.5q0 3.625-2.344 3.625-0.734 0-1.125-0.266l-1.047-0.844q-0.641 0.594-1.203 1.031-0.469 0.406-2.609 0.797-0.141 1.234-0.734 3.516-0.594 1.281-3.563 3.125-3.328 2.031-5.219 2.031-0.25 0-0.703 0.063t-0.703 0.063q-2.438 0-4.125-1.68t-1.688-4.117q0-0.219 0.219-1.453 0.078-0.344 0.5-1.625 0.391-1.203 0.391-1.406 0-0.531-0.344-1.602t-0.344-1.602q0-1.031 1.055-3.789t1.742-3.32q0.516 0 0.516 0.344 0 0.156-0.656 1.359-0.766 1.469-0.969 1.984-0.438 1.156-0.438 2.203 0 2.406 0.969 2.406 0.188 0 1.219-1.25 0.297 0.188 0.297 0.406 0 0.922-1.031 2.594-0.344 0.219-0.938 0.641-1.078 1.281-1.078 3 0 1.672 0.578 2.508t2.125 1.555q1.453 0.641 2.359 0.641h0.969q1.172 0 4.5-1.625 3.859-1.891 3.859-3.547 0-0.266-0.82-2.25t-0.82-2.172q0-0.672 0.438-1.609 0.469 0.5 1.406 1.453 0.797 0.766 1.594 0.766 1.875 0 2.742-1.555t1.102-1.773q0.109 2.781 1.703 2.781 0.656 0 1.063-0.391 0.016-0.172-0.117-0.813t-0.133-0.906q0-0.766 0.469-1.359 0.125 0 0.375 0.078 0.563 0.891 0.563 1.984zM20.422 11.594q0 0.281-0.359 0.75-0.797 0.297-2.422 0.844-0.016 0.734 0.203 1.359 1.203 3.313 1.203 4.844 0 0.906-0.469 2.172l-0.219-0.672-0.094 0.469q0-2.688-0.375-3.734-0.344-0.922-0.688-1.828-0.375-1.078-0.375-1.875 0-1.328 1.281-2.609v-0.172q-0.953 0.422-0.859 0.422v-0.594q0-0.359 0.344-0.844t0.688-0.484q0.469 0 1.305 0.742t0.836 1.211z"></path>
</svg>
