<!-- Generated by IcoMoon.io -->
<svg version="1.1" xmlns="http://www.w3.org/2000/svg" width="64" height="32" viewBox="0 0 64 32">
<title>surah12</title>
<path d="M58.828 5.188q0 0.375-0.438 0.813l-1.141-0.547q-0.266 0.234-1.672 1.656-1.703 1.719-3.156 2.141-0.141 0.031-0.953 0.734h-0.781q0.641-0.688 2.781-2.281 1.906-1.438 2.75-2.594-0.219-0.391-0.734-0.813-0.375-0.266-0.375-0.906 0-0.5 0.594-1.484 0.688-1.156 1.359-1.156 0.391 0 0.75 0.453 0.156 0.609 0.156 1.469 0 0.547-0.047 1.188 0.906 1.016 0.906 1.328zM51.5 4.516q-0.641 1.625-1.391 1.625-1.109 0-1.109-1.563 0-0.641 1.484-3.281 0.203 0.047 0.203 0.344 0 0.266-0.359 1.133t-0.359 1.086q0 0.141 0.391 0.906h0.375l0.266-0.25h0.5zM62.984 23.719q0 0.688-1.156 1.406-0.141 0-0.781-0.422t-0.813-0.422-0.664 0.555-0.664 0.555q-0.344 0-1.703-0.984 0-0.531 0.266-1.109 0.328-0.688 0.813-0.688 0.125 0 0.844 0.422t0.891 0.422q0.141 0 0.625-0.617t0.625-0.617q0.484 0 1.156 0.719 0.563 0.609 0.563 0.781zM46.938 10.234q0 0.422-0.453 1.008t-0.875 0.586q-0.469 0-0.781-0.734-0.25-0.547-0.25-0.859 0-0.297 0.477-1.625t0.477-1.625q0-0.422-0.594-0.844-0.953 1.531-3.563 4.563-0.891 0.813-4.141 2.656-0.063-0.125-0.266-0.344 0.156-0.297 0.469-0.688 1.109-0.938 3.297-2.859 1.891-1.703 3.031-3.547v-0.359q-1.953-0.844-1.953-1.906 0-0.563 0.75-1.969 0.859-1.625 1.672-1.625 0.984 0 1.172 1.875l0.156 2.016q1.078 1.313 1.078 1.578 0 0.328-0.555 1.898t-0.555 1.898q0 0.469 0.516 0.984-0.188 0 0.703-0.406 0.188 0 0.188 0.328zM39.031 2.141q0 0.188-0.281 0.828-0.422 0-1-0.297-0.391 0.422-0.586 2.414t-0.961 2.852q-0.266-0.484-0.938-1.688-0.469-0.844-1.156-1.016-0.313-0.094-1.047-0.25-0.375-0.172-0.375-0.75 0-1.109 0.891-1.109 0.875 0 2.781 2.328 0.047-0.063 0.141-0.219 0.391-4.328 1.438-4.328 0.281 0 0.688 0.469t0.406 0.766zM29.063 8.281q0 0.359-0.406 0.922t-0.703 0.563q-0.391 0-1.227-0.492t-0.836-0.836q0-0.469 0.398-0.961t0.852-0.492q0.375 0 1.148 0.492t0.773 0.805zM60.5 15.016q0 0.922-0.609 2.188-0.219 0.469-1.5 1.234-0.594 0.266-1.75 0.859-0.25 1.156-1.063 3-1.469 1.75-3.906 3.172-2.719 1.563-4.734 1.563-1.25 0-1.914-0.367t-1.352-1.445q-0.531-0.781-0.531-1.797 0-0.656 0.25-1.453 0.328-1.156 0.172-1.734-0.016-0.109-0.828-0.938-0.391 0.563-1.406 1.625-0.813 0.578-1.656 0.578-1.734 0-2.656-1.766-0.609 0.25-1.328 0.984t-1.281 1.016q-0.984 0.484-2.672 0.484-1.438 0-2.32-0.766t-1.164-0.766q-0.734 0.328-3.094 1.484-0.297 0.141-2.875 0.859-3.031 0.844-3.938 0.844h-2.047q-6.453 0-6.453-5.328 0-0.313 0.477-1.688t0.477-1.625q0-0.328-0.344-1.406t-0.344-1.375q0-1.094 1.109-4.016 1.156-3.125 1.906-3.25l0.172 0.5q-1.953 3.234-1.953 5.656 0 1.875 1.109 1.875 0.594 0 0.906-0.578l0.625-1.109q0.297 0.234 0.297 0.453 0 0.891-1.188 2.578-0.641 0.344-1.703 1.406-0.438 0.672-0.438 1.75 0 4.078 5.938 4.078 2.609 0 6-0.906 1.672-0.438 2.484-0.766 1.594-0.594 1.703-1.172-0.391-2.141-0.297-2.766 0.094-0.813 0.641-1.875 0.813-1.672 1.875-1.672 0.984 0 1.625 1.328 0.516 1.016 0.516 1.688 0 1-0.633 2.297t-0.633 1.266q0 0.781 1.953 0.781 1.672 0 3.078-0.859 0.875-0.813 2.703-2.313 0.25 2.219 1.422 2.438 0.203 0.031 0.547 0.031 1.188 0 1.828-0.75 0.172-0.234 1.25-2.266 0.141-0.141 0.516-0.141 0.438 2.188 1.75 2.188 1.297 0 1.297-0.688 0-0.219-0.266-0.836t-0.266-0.836q0-0.672 0.469-1.375 1.031 1.172 1.031 2.016 0 0.141-0.273 1.414t-0.352 1.398q-0.297 0.516-1.125 0.813-0.938 0.313-1.141 0.563-0.281 0.344-0.281 1.422 0 2.609 3.313 2.609 1.797 0 4.391-1.594 2.375-1.453 3.641-3.031-0.297-0.609-0.813-0.609-0.344 0-1.047 0.133t-1.047 0.133q-2.219 0-2.219-2.141 0-0.906 0.797-2.219 0.875-1.453 1.766-1.453 0.844 0 1.969 1.453 0.266 0.344 1.109 1.594 0.469 0 1.625-0.438 1.469-0.563 1.469-1.281 0-0.219-1.25-2.578t-1.25-2.563q0-0.328 0.297-1.547 0.172-0.172 0.391-0.172 0.344 0 1.938 1.984-0.016 0.078-0.289 0.297t-0.273 0.422q0 0.125 0.609 1.078 1.063 1.672 1.063 2.719zM31.438 1.281q0 0.313-2.688 1.594-3.984 1.891-4.266 2.094-2.547 1.172-3.938 1.844-2.281 1.109-2.953 2.188 0.641 0.984 0.688 1.109 0 0.766-0.688 0.766-0.484 0-0.906-0.594-0.344-0.484-0.344-0.656 0-1.828 2.828-3.406 0.734-0.391 3.984-1.938 2.172-1.016 7.781-3.641h0.5v0.641zM18.141 3.594q0 0.359-0.406 0.906t-0.781 0.547q-1.031 0-1.031-1.391 0-1.516 1.359-3.172-0.172 0.859-0.281 1.375t-0.188 0.688q-0.047 0.172-0.047 0 0 0.969 0.688 0.969 0.219 0 0.484-0.266 0.203 0.016 0.203 0.344zM37.266 23.109q0 0.859-0.914 1.914t-1.773 1.32q0-0.391 0.672-1.156 0.938-1.078 1.031-1.25-0.094-0.141-0.523-0.375t-0.43-0.375q0-0.25 0.375-0.68t0.656-0.43q0.906 0 0.906 1.031zM22.844 14.859q-0.047 0-0.219 0.078t-0.328 0.078q-0.141 0-0.484-0.273t-0.5-0.273q-0.594 0-0.734 1.578-0.047 0.594-0.156 1.813-0.016 0.5-0.516 1.578-0.406-0.141-0.859-0.953-0.516-0.984-0.891-1.266-0.531-0.188-1.078-0.391-0.594-0.297-0.594-0.859 0-1.109 0.766-1.109 0.219 0 2.359 1.828 0.234 0 0.297-0.125 0.172-0.813 0.516-2.422 0.344-1.5 0.891-1.5 0.516 0 1.531 1.047v1.172zM27.844 23.328q0 0.734-0.766 1.719-0.891 1.156-2.078 1.281 0.203-0.391 1.859-2.391-0.156-0.219-0.797-0.219l-0.016-0.016q-0.156-0.125-0.156-0.375 0-0.344 0.32-0.664t0.648-0.32q0.984 0 0.984 0.984zM57.031 3.359v-0.609q-0.422-0.438-0.484-0.469l-0.469 0.469q0.172 0.25 0.469 0.609h0.484zM44.422 3.344q-0.141-0.453-0.438-1.188h-0.469q-0.484 0.469-0.438 0.766 0.609 0.594 1.031 0.594 0.313 0 0.313-0.172zM54.125 17.453q-0.656-1.047-1.297-1.047-0.516 0-0.922 0.75 0.422 0.484 1.328 0.484 0.578 0 0.891-0.188zM30.328 16.75q0-0.281-0.375-1-0.469-0.891-0.953-0.891-0.469 0-0.813 0.484t-0.344 1q0 0.484 0.234 1.031 0.297 0.688 0.719 0.688 0.266 0 0.898-0.531t0.633-0.781z"></path>
</svg>
