<!-- Generated by IcoMoon.io -->
<svg version="1.1" xmlns="http://www.w3.org/2000/svg" width="63" height="32" viewBox="0 0 63 32">
<title>surah13</title>
<path d="M62.813 18.969q0 3.156-0.984 4.969-0.078 0-0.328 0.156-0.203-0.203-0.203-0.797v-3.297l-1.813-18.484q0-1.453 1.063-2.359 0.172 0.094 0.406 0.344 0.063 0.172 1.016 2.234 0.844 1.859 0.844 2.375 0 0.234-0.453 0.734 0.125 0-0.688-0.422-0.25 0.469-0.25 0.844zM52 7.891q0 0.766-0.422 1.453-0.516 0.766-1.234 0.766-0.109 0-0.359-0.070t-0.391-0.070q0.406 0-0.438 0.414t-1.141 0.414q-0.719 0-0.938-0.484-0.609-1.438-0.609-3.109 0-0.219 0.313-0.813h0.5q0.281 0.422 0.281 0.938 0.031 0.469 0 0.953 0.109 0.469 0.531 0.844 0.984-0.141 0.984-0.953 0-0.25-0.078-0.719t-0.078-0.688q0-0.5 0.219-0.813 0.5 0.094 0.719 1.109 0.25 1.078 0.594 1.25h0.594q-0.281-0.266-0.281-1.375 0.031-1.109 0.328-1.531 0.313 0 0.594 0.469 0.313 2.141 0.313 2.016zM50.5-0.406q0 0.797-0.594 1.063-3.375 1.156-6.797 2.438-5.875 2.188-11.078 4.703-1.172 0.563-3.078 1.719-2.406 1.453-2.406 1.828 0 0.141 0.344 0.711t0.344 0.758q0 1.188-0.828 1.188-0.578 0-1.094-1.031-0.422-0.813-0.422-1.109 0-0.719 0.75-1.75 0.609-0.813 0.938-1.063 3.25-2.313 10.109-5.234 1.328-0.563 6.547-2.484 5.891-2.141 6.531-2.141h0.578q0 0.016 0.078 0.125t0.078 0.281zM56.313 22.422q0 1.125-1.094 2.313-1 1.078-2.188 1.438-0.172-0.172-0.297-0.172 0.109-0.391 1.125-1.367t1.063-1.398q-0.172-0.125-0.391-0.125t-0.516 0.141q-0.344-0.313-0.344-0.469 0-0.406 0.602-0.938t1.008-0.531q0.313 0 0.672 0.391t0.359 0.719zM31.797 0.859q-0.078 1.047-1.313 2.172t-2.266 1.125q-0.359 0-0.563-0.203 0.219-0.516 1.672-1.641-0.547-0.234-1.25-0.234-0.766 0-1.578 0.547h-0.641q0.656-2.625 3.031-2.625 2.063 0 2.906 0.859zM57.141 3.953q0 0.156-0.086 0.352t-0.086 0.242q-0.656 0-0.984-0.125-0.047 1.328 0.469 4.484 0.547 3.297 0.547 4.875 0 1-0.047 1.406-0.281 2.969-2.047 4.578-0.328 0.266-2.531 0.906-0.719 0.25-2.609 0.828-1.328 0.406-3.031 2.297-2.141 2.375-2.484 2.719-0.719 0.625-1.578 0.625-0.469 0-1.672-0.516-0.969-0.406-1.531-1.047-0.141-0.188-0.516-1.305t-0.375-1.414l0.453-1.922v-0.438q-0.25 0.188-0.766 0.516-5.516 1.844-8.125 1.844-0.203 0-0.641-0.109t-0.688-0.109q-1.422-0.156-3.172-0.516-1.156-0.25-2.344-1.703-1.078-1.281-1.422-2.578-0.109 0-0.297 0.266-0.453 1.922-3.82 4.367t-5.414 2.445q-2.953 0-2.953-3.531 0-2.469 0.984-4.875l0.391-0.938q0-0.281-0.047-0.391-0.656-1.234-0.656-2.375 0-1.328 0.688-3.25 0.813-2.203 1.797-2.359 0 0.047 0.086 0.188t0.086 0.313q0 0.063-0.609 1.492t-0.75 1.977q-0.047 0.141-0.047 0.734 0 0.969 0.656 1.656 0.406-0.328 1.266-0.969 0 0.047 0.070 0.188t0.070 0.313q0 0.438-0.438 1.281l-0.25 0.297q-0.516 0.688-0.938 1.344-1.25 2.094-1.25 3.922 0 2.484 2.141 2.484 1.625 0 4.797-2.125 3.422-2.281 3.422-3.953 0-1.188-1.578-6.281-0.172-0.297-0.594-1.109-0.875-2-0.875-2.859 0-1.031 0.469-1.922 0.531 0 0.734 0.453 0.672 1.125 1.234 2.359 0.531 1.109 1.672 4.281 0.609 2.875 1.328 5.25 1.125 3.688 6.672 3.688 1.797 0 4.359-0.438 3.078-0.547 4.031-1.281-0.422-0.453-1.078-1.359-0.719-1.641-0.719-2.656 0-1.359 0.938-2.734 1.109-1.594 2.734-1.844 0.359-0.047 2.219-0.047 0.438 0 2.203 0.906l0.203 0.391q-0.25 0.375-0.984 0.328-1.016-0.109-1.141-0.047-1.813 0.391-2.141 0.516-1.25 0.406-2.375 1.328-0.031 0.141-0.031 0.297 0 1.203 1.375 2.406t2.594 1.203q0.484 0 6.781-2.781 0.359 0.344 0.359 0.422 0 1.156-0.875 1.766-0.688 0.5-5.828 2.766-0.313 0.094-0.984 0.344-1.25 0.469-1.422 1.688t-0.172 1.688q0 0.734 0.469 1.469 0.516 0.813 1.203 0.813 1.078 0 2.609-1.672 0.609-0.734 1.859-2.188 1.781-2 4.438-2.734 0.891-0.219 2.656-0.719 1.578-0.469 2.094-1.219 0.031-0.297 0.031-1.234l-1.391-14.203q0-1.438 0.75-2.188 0.344 0 0.438 0.172 0.328 0.359 1.078 2.031 0.938 1.969 0.938 2.563zM32.781 14.766q0 0.313-0.547 0.945t-0.844 0.633q-1.094 0-1.094-2 0-1.25 1.266-3.25h0.5q-0.672 2.094-0.672 2.531 0 0.578 0.344 0.922 0.172-0.156 0.531-0.406h0.516v0.625zM23.219 23.297q-0.125 0.766-5.859 3.813h-0.516v-0.781q0.672-0.688 2.656-1.688l3.406-1.656z"></path>
</svg>
