<!-- Generated by IcoMoon.io -->
<svg version="1.1" xmlns="http://www.w3.org/2000/svg" width="80" height="32" viewBox="0 0 80 32">
<title>surah14</title>
<path d="M77.703 5.313q-0.172 0.172-0.391 0.172-0.156 0-0.391-0.195t-0.359-0.227q-0.188 0.813-0.063 2.828l0.656 9.781q0 2.063-0.734 3.438h-0.5l-0.984-12.641v-5.109q0-0.219-0.133-0.672t-0.133-0.672q0-0.422 0.5-1.203 0.406-0.625 0.656-0.875 0.469 0.344 0.797 1.359 0.141 0.547 0.484 1.594 0.594 1.578 0.594 1.953v0.469zM71.078 1.328q0 0.703-3.516 2.359-3.984 1.891-4.703 2.609h-0.5v-0.594q0-0.828 2-1.875 0.734-0.313 2.172-1 1.641-0.844 4.203-2.047 0.344 0.313 0.344 0.547zM70.25 7.5q0 0.375-0.586 0.977t-0.945 0.602q-1.109 0-1.109-1.656 0-0.703 0.484-1.797 0.578-1.219 1.156-1.219 0.109 0 0.156 0.016-0.078 0.25-0.469 1.281-0.344 0.906-0.344 1.078 0 0.469 0.594 0.766 0.422-0.391 0.875-0.391 0.188 0 0.188 0.344zM79.375 24.922q-0.297 0.547-1.422 0.813-1.359 0.313-1.797 0.641h-0.625q-0.016-0.344-0.078-1.016-0.656-0.719-0.656-1.188 0-0.5 1.031-1.359t1.547-0.859q0.375 0 0.781 0.328t0.406 0.703q0 0.266-0.281 0.586t-0.563 0.32q-0.234 0-0.781-0.563h-0.375q-0.047 0.125-0.219 0.375 0.344 0.703 0.984 0.813h1.109q0.672 0.047 0.938 0.406zM61.234 18.438q0 0.688-0.344 1.891-0.391 1.375-0.844 1.625l-0.234-0.172q0.063-2.656-0.469-8.203l-1.281-11.953q0-0.625 0.609-1.609 0.078-0.016 0.438-0.188 0.641 1.328 2 4.047v0.594l-0.344 0.328-0.781-0.453zM54.469 1.172q0 0.547-0.5 0.984-0.297-0.141-0.828-0.531-0.516 0.063-0.844 1.422l-0.641 2.703q-0.016 0-0.156 0.078t-0.281 0.078q-0.219 0-1.094-2-0.188-0.422-0.734-0.859-1.578 0.078-1.578-1.234 0-1.172 0.844-1.172 0.781 0 1.547 1.047 0.328 0.469 1.016 1.438 0.266-0.203 0.813-1.875 0.484-1.453 1.172-1.453 0.406 0 0.836 0.492t0.43 0.883zM71.625 24.578q0 0.375-0.516 0.953t-0.813 0.578q-0.25 0-1.047-0.773t-0.797-0.977q0-0.359 0.461-0.891t0.836-0.531q0.422 0 1.148 0.625t0.727 1.016zM71.922 14.844q0 2.484-1.781 3.172-1.406 0.516-1.547 0.594-0.328 1.672-0.609 2.484-0.672 1.859-5.125 4.422-0.422 0.25-2.086 0.688t-2.148 0.438q-2.188 0-3.422-1.406-0.5-0.531-0.563-1.266-0.172-1.375-0.172-1.672 0-1.781 1.969-5.172h0.484q0.156 0 0.156 0.344 0-0.25-0.453 1.25-0.297 0.469-0.609 1.359l-0.172 1.609q0 2.625 3.172 2.625 1.188 0 2.563-0.547 0.734-0.281 2.219-0.875 0.438-0.172 1.766-1.266 1.625-1.297 1.625-1.938 0-0.844-0.313-1.5-0.25-0.5-0.891-1.5-0.594-0.922-0.594-1.109 0-0.203 0.148-0.719t0.148-0.766l0.031-0.016q0.125-0.156 0.359-0.156 0.25 0 1.023 1.109t1.883 1.109q0.344 0 1.008-0.344t0.664-0.609q0-0.125-0.813-1.453-0.016-0.156-0.016-0.578 0-0.391 0.609-1.563 1.484 0.906 1.484 3.25zM44.078 4.234q0 0.406-0.383 0.961t-0.805 0.555q-0.469 0-0.82-0.477t-0.352-0.977q0-1.406 1.547-3.781h0.516q-0.953 2.281-0.953 2.875 0 0.313 0.359 0.719 0.125 0 0.688-0.281 0.203 0.203 0.203 0.406zM39.234 11.297q0 0.359-0.758 1.43t-1.039 1.070q-1.391 0-1.391-2.141 0-0.953 0.516-2.328 0.594-1.578 1.359-2.172 0.203 0.203 0.203 0.547 0 0.266-0.422 1.414t-0.422 1.43q0 0.5 0.516 1.188 0.375-0.375 1.25-0.844l0.094 0.117t0.094 0.289zM51.984 20.984q0 0.703-2.547 1.75-1.109 0.453-3.313 1.328-1.281 0.594-4.641 2.047-0.188-0.203-0.188-0.578 0-0.688 1.125-1.25 0.469-0.172 1.438-0.563 1.344-0.594 2.875-1.281 4.063-1.859 4.5-1.859h0.547q0.203 0.172 0.203 0.406zM32.313 6.125q0 0.828-3.109 2.266-3.984 1.813-4.125 1.938h-0.641q-0.156-0.016-0.156-0.344 0-0.828 0.594-1.125 1.844-0.891 6.641-3.234h0.641q0 0.031 0.078 0.18t0.078 0.32zM24.563 1.469q0 0.813-0.5 0.813-0.297 0-1.125-0.813-0.25 0-0.422 0.219-0.203 0.844-0.594 2.516-0.391 1.547-0.906 1.844-0.469-1.172-1.359-2.797-0.141-0.297-1.25-0.891-0.922-0.469-0.922-0.969 0-0.344 0.359-0.758t0.688-0.414q0.828 0 1.453 0.906l1.172 1.719q0.25-0.609 0.719-1.813 0.609-1.5 1.234-1.5 0.531 0 1.031 0.859 0.422 0.703 0.422 1.078zM55.969 15.109q0 0.828-0.5 1.797-0.594 1.172-1.5 1.172-0.766 0-2.313-0.344t-2.344-0.344q-0.109 0-1.25 0.422-0.734 0.266-1.813 0.641-4.781 1.281-7.172 1.281-4.281 0-6.594-1.281-0.844-0.469-2.094-1.625l-0.719-1.25q-0.594-1.109-0.953-1.109-0.594 0-1.133 0.664t-0.539 1.273q0 0.719 0.172 1.016 0.313 0.594 1.75 1.75 0.406 0.25 1.25 0.813 0.719 0.484 0.719 1.125 0 0.422-0.281 0.938-0.297 0.625-0.641 0.625-2.844-1.688-4.078-1.688-1.953 0-6.148 2.633t-5.273 2.633q-1.156 0-1.922-1.281-0.641-1.031-0.641-1.984 0-0.594 0.375-1.531 0.219-0.563 1.031-1.938 0.656-1.188 0.656-1.359t-0.188-0.609q-0.281-0.5-0.313-0.617t-0.031-1.211q0-1.984 0.953-4.453 0.938-2.391 2.266-3.969 0.516 0 0.516 0.406 0-0.125-0.656 1.203-1.828 3.609-1.828 5.703 0 1.531 0.953 1.531 0.594 0 1.047-0.844 0.172-0.359 0.531-1.078h0.5q0 0.031 0.070 0.18t0.070 0.289q0 0.672-0.953 2.063-0.844 1.219-1.156 1.406-0.641 0.453-1.609 1.406-1.125 2.063-1.125 3.297 0 1.578 1.453 1.578 0.906 0 2.438-1.016 0.172-0.125 2.234-1.672 0.969-0.734 2.063-1.406 0.453-0.266 1.703-0.828 0.969-0.266 2.813-1.109-0.172-0.328-0.172-0.844 0-1.563 1.281-3.469 1.391-2.063 2.906-1.969 0.563 0.547 0.813 1.156 1.891 4.234 9.547 4.234 1.891 0 6.469-1.281 0.219-0.141 0.328-0.313-0.109-0.516-0.109-0.984 0-1.156 0.688-2.531 1.016-2.078 1.109-2.391-0.047-0.5 0.047-1.578 0.25-1.016 0.641-1.016 0.344 0 2.172 1.266 0.094 0.141 0.094 0.359 0 0.25-0.125 0.641 0.875 1.281 3.109 2.484 1.406 0.797 1.406 2.938zM37.438 24.313q0 0.344-0.531 0.859t-0.859 0.516q-0.234 0-0.781-0.406t-0.672-0.406-0.555 0.406-0.617 0.406q-0.422 0-1.797-0.984-0.047-0.297 0.344-1.047 0.438-0.875 0.953-0.875 0.172 0 0.773 0.422t0.758 0.422q0.172 0 0.625-0.422t0.625-0.422q0.391 0 1.063 0.578t0.672 0.953zM22.875 13.875q0 0.438-0.5 0.93t-0.938 0.492q-1.172 0-1.172-1.422 0-0.813 0.695-2.18t1.336-1.789l0.188 0.641q-1.109 1.656-1.109 2.5 0 0.75 0.547 0.75 0.172 0 0.43-0.148t0.383-0.148q0.141 0.031 0.141 0.375zM54.703 15.547q0-0.125-0.172-0.641-1.641-1.406-1.969-1.406h-0.438q-0.297 0.969-0.391 2.078l0.188-0.172 1.578 0.25q0.859 0.141 1.203-0.109zM50.844 14.313q-0.094-1.906-1.297-2.719-1.328 0.953-1.328 1.984 0 1.328 1.328 1.328 0.313 0 1.297-0.594z"></path>
</svg>
