<!-- Generated by IcoMoon.io -->
<svg version="1.1" xmlns="http://www.w3.org/2000/svg" width="58" height="32" viewBox="0 0 58 32">
<title>surah15</title>
<path d="M40.203-2.203q0 0.5-0.469 0.984-0.266-0.234-0.828-0.828-0.125 0.047-0.344 0.25-0.25 1.281-1.156 3.609h-0.5q-0.297-1.156-1.156-2.516-0.172-0.234-1.328-0.828-0.438-0.219-0.438-0.719 0-0.266 0.383-0.719t0.648-0.453q0.422 0 1.328 1.203l1.031 1.406q0.203-0.5 0.641-1.531 0.563-1.359 1.016-1.359 0.406 0 0.828 0.719 0.344 0.594 0.344 0.781zM30.234-3.063q0 0.469-1.172 1.578-1.063 1.016-1.5 1.188-0.328 0.141-1.609 0.438v-0.641q0.766-0.516 2.063-1.719-0.75-0.391-2.078-0.125-0.594 0.125-1.188 1.078-0.141 0-0.422 0.172v-0.516q0.219-0.188 1.313-1.766 0.578-0.891 1.469-0.891 0.297 0 1.68 0.32t1.445 0.414v0.469zM49.875 18.828q-0.188 0.266-0.703 0.688-2.172 0.984-6.406 2.922-0.484-0.469-0.484-0.531 0-0.641 0.609-0.922l6.375-2.828q0.172 0 0.367 0.078t0.242 0.078v0.516zM57.781 12.984q0 0.25-0.68 0.914t-0.898 0.664q-0.188 0-0.617-0.133t-0.633-0.133q-0.375 0-0.734 0.375-0.031 1.047-0.375 3.047-0.422 1.25-1.109 2.109-0.188-0.172-0.313-0.172-0.047-0.563 0.063-1.578 0.125-1.156 0.125-1.563 0-1.281-0.594-1.828-3.594 0.797-5.75 2.063-0.219 0-0.547 0.078-4.484 2.219-9.453 2.906l-3.469 0.5q-0.297 0-0.945-0.203t-0.977-0.203q-0.141 0-0.391 0.063t-0.391 0.063q-0.391 0-2.594-1.422-0.656-0.422-0.953-1.25-0.375-1.047-0.375-1.828 0-0.172 0.055-0.539t0.055-0.57q0-0.516-0.422-1.031-2.484 0.516-5.469 2.797-0.516 0.406-3.688 3.953-2.141 2.375-3.844 2.375-1.531 0-2.602-1.188t-1.070-2.719q0-0.797 0.375-1.844 0.266-0.719 1.109-2.484 0.734-1.531 0.734-1.734 0-0.344-0.375-1.125-0.172-0.391-0.172-1.484 0-1.203 1.047-4.109 1.109-3.047 1.922-3.609h0.484q-0.672 1.219-1.203 2.438-0.984 2.156-0.984 3.906 0 2.219 1.109 2.219 0.219 0 0.734-0.797l0.609-0.875q0.297 0.188 0.297 0.563 0 1.156-0.906 2.578-1.156 0.844-1.672 1.438t-1.188 1.922q-0.938 1.859-0.938 2.703 0 1.031 0.625 1.891 0.656 0.938 1.641 0.938 0.25 0 1.094-0.563 1.516-1.063 3.609-3.547 0.891-1.078 2.469-2.578 0.266-0.25 4.25-2.672-0.391-0.688-2.094-1.672-1.344-0.781-1.344-1.984 0-0.5 0.594-1.75 0.281-0.609 0.984-0.813 0.188-0.047 4.516-0.469l6.156 0.813q1.672 0.219 3.375 0.719 0.047 0.297 0.047 0.531 0 0.984-0.813 1.531-1.469 0.984-4.031 2.094l-4.219 1.875q-0.094 3.359 2.375 4.5 1.406 0.656 4.578 0.656 2.484 0 6.297-1.031 3.938-1.078 5.891-2.359-0.156-0.172-0.375-0.297-2.297-0.172-6.813-0.609 0-0.031-0.078-0.164t-0.078-0.289q0-0.469 0.516-1.141t0.938-0.703q2.359-0.063 3.859-0.313 0.328-0.047 0.5-0.844l-1.797-13.016q0.188-0.844 0.734-1.922h0.469q0.781 1.359 1.969 3.938l-0.172 0.906q-0.141-0.094-0.813-0.406 0 1.563 0.492 4.68t0.492 4.695q0 1.422-0.297 2.828 3 0.516 4.578 0.516 0.281 0 0.797-0.047t0.75-0.047q0.203-1.156 0-2.688-0.109-0.891-0.344-2.688-0.359-3.938-0.484-7.875-0.031-0.266-0.227-0.93t-0.195-0.961q0-0.203 0.859-1.922h0.5l1.969 4.625v0.469q-0.031 0.141-0.344 0.141-0.391 0-0.594-0.406-0.203 0-0.469 0.234-0.031 0.281 0.219 2.328 0.328 2.656 1.188 9.516 0.781 0.391 1.641 0.391 2.094 0 2.219 0.031v0.609zM35.484 14.391q0 1.016-1.234 1.016-0.953 0-0.953-1.313 0-2.094 1.156-2.828h0.484q-0.688 1.406-0.688 1.781 0 0.438 0.391 0.828 0.125 0 0.422-0.133t0.422-0.133v0.781zM20.141-2.891q0 0.844-0.484 0.844-0.203 0-0.438-0.219-0.328-0.297-0.375-0.328-0.547 0.344-0.688 2.141-0.172 2.016-0.688 2.688h-0.469q-0.203-0.516-0.609-1.539t-1.219-1.586q-0.469-0.25-1.406-0.906 0.328-1.516 0.969-1.516 0.563 0 1.453 1.141 0.703 0.891 1 1.5 0.25-0.125 0.766-1.922 0.469-1.672 1.141-1.672 0.359 0 0.703 0.508t0.344 0.867zM24.156 20.172q0 0.344-0.367 0.898t-0.664 0.555q-0.547 0-1.25-0.828-0.625-0.719-0.625-0.891 0.641-1.453 1.156-1.453 0.453 0 1.102 0.641t0.648 1.078zM15.969 22.891q0 0.813-0.203 0.953-1.375 0.984-4.531 2.313-0.484 0.141-1.531 0.859h-0.469q-0.313-0.328-0.313-0.547 0-0.781 1.766-1.594 0.641-0.234 1.875-0.781 1.156-0.547 3.078-1.359 0.203 0.156 0.328 0.156zM31.625 7.969l-6.781-0.734q-1.469 0-2.75 0.359l-0.156 0.281q4.234 2.953 4.141 2.953 0.422 0 2.781-1.234 2.266-1.203 2.766-1.625z"></path>
</svg>
