<!-- Generated by IcoMoon.io -->
<svg version="1.1" xmlns="http://www.w3.org/2000/svg" width="58" height="32" viewBox="0 0 58 32">
<title>surah16</title>
<path d="M57.297 16.922q0.094 1.438-0.344 2.859-0.172 0.594-0.219 0.688-0.25 0.406-0.797 0.625l-1.422-16.813v-3.719q0-0.25-0.133-0.719t-0.133-0.688q0-0.844 0.859-2.266 0.359 0 0.469 0.156 1.719 4.281 1.719 4.719 0 0.5-0.563 0.5-0.125 0-0.32-0.078t-0.242-0.078zM45.266-1.266q0 0.688-0.469 1.453-0.547 0.844-1.203 0.844-0.125 0-0.313-0.078t-0.313-0.078q-0.141 0-0.648 0.273t-0.648 0.273q-1.266 0-1.266-1.875 0-0.516 0.297-1.422 0.109 0 0.266-0.063t0.25-0.063q0 0.734 0.641 1.766 0.641-0.266 0.641-0.922 0-0.109-0.070-0.547t-0.023-0.547q0.125-0.25 0.391-0.734 0.547 0.078 0.719 0.844 0 0.094 0.172 1.094 0.188 0.063 0.266-0.063-0.172-0.297-0.016-0.969 0.141-0.641 0.391-0.906h0.484q0.453 0.844 0.453 1.719zM44.984 4.75q0 0.859-1.391 1.375-0.297 0-1.258-0.555t-0.961-0.82q0-0.344 0.477-1t0.773-0.656q0.547 0 1.453 0.602t0.906 1.055zM39.594-2.438q0 0.859-1.859 1.625-0.75 0.234-2.203 0.781-3.688 1.375-5.531 2.688-0.078 0.344-0.391 1.109-0.172 0.141-0.422 0.141-0.672 0-0.672-0.953 0-0.969 0.594-1.453 1.109-0.859 3.594-1.953 5.641-2.406 6.125-2.406h0.578q0.188 0.188 0.188 0.422zM37.484 7.109q0.047 0.125 0.047 0.297 0 0.766-1.328 1.82t-2.125 1.055h-0.531l-0.203-0.172v-0.375q0.563-0.359 1.828-1.203-0.156-0.469-1.266-0.469-0.906 0-1.844 0.797-0.219 0.047-0.344 0.047-0.172-0.031-0.172-0.344 0-0.516 0.984-1.375 0.844-0.75 1.156-0.844 0.156-0.078 0.922-0.078 1.297 0 2.875 0.844zM49.266 20.594q0 0.344-0.688 1.438t-1 1.266l-2.094 1.266h-0.469q-0.172-0.203-0.172-0.422 0-0.141 1.414-1.242t1.492-1.586q-0.109-0.125-0.813-0.094 0-0.031-0.086-0.203t-0.086-0.344q0-0.391 0.531-0.82t0.938-0.43q0.344 0 0.688 0.406t0.344 0.766zM52.75 16.609q0 0.391-0.469 0.93t-0.859 0.617q-1.781-0.078-5.672 0.5-1.578 0.688-5.813 2.266-3.469 1.156-6.859 1.156-0.172 0-0.516-0.109t-0.516-0.109q-2.125 0-3.672-1.688-1.281-1.391-1.625-3.25-0.203-0.016-0.297 0.125-1.547 2.563-4.359 3.828-1.156 0.625-3.313 1.563-1.734 0.453-3.703 0.453-0.953 0-2.281-0.297-2.313-0.547-3.234-2.813-0.438-1.078-0.438-2.219 0-1.125 0.617-2.883t0.617-1.914q0-0.25-0.336-1.219t-0.336-1.266q0-1.719 1.109-4.234t2.391-3.641q0.484 0 0.484 0.547 0 0.125-0.531 1.078-0.813 1.406-1.5 3.047-0.453 1.063-0.453 2.172 0 1.531 0.922 1.75 0.484-0.203 1.203-1.797h0.484q0.328 0.313 0.328 0.469 0 1.109-1.188 2.953-0.859 0.641-1.719 1.406-0.203 0.141-0.461 1.188t-0.258 1.438q0 1.891 1.781 3 1.391 0.859 3.016 0.859 3.766 0 6.875-1.938 1.453-0.938 3.547-2.703 0.359-0.516 0.297-1.438l-0.813-11.422q-0.047-0.578-0.328-2.156-0.25-1.406-0.25-2.188 0-1.781 0.75-2.5h0.484q0.625 1.922 1.156 8.203 0.766 8.984 1.109 11.516 0.047 0.328 0.594 1.234 1.547 2.578 5.531 2.578 4.688 0 7.984-2.031 0.016-0.172-0.516-0.25-1.875-0.328-4.047-0.984l-2.625-0.047q-0.172-0.031-0.172-0.344 0-0.281 0.5-0.922t0.781-0.75q1.422-0.516 4.156-1.906 1.875-1.219 3.047-3.25 0.406-0.734 1.141-0.734 0.422 0 0.688 0.906 0.375 1.328 0.563 1.656 0.516 0.906 1.578 0.906 1.797 0 1.797-1.453l-1.25-11.688q0-0.25 0.734-2.063h0.484q1.703 3.359 1.703 3.484v1.016q-0.125 0.141-0.344 0.141-0.172 0-0.422-0.094-0.219 0.219-0.219 0.391l0.844 8.391q0 0.469-0.57 1.805t-0.883 1.555q-1.438 0.875-2.297 0.875-1.422 0-2.063-0.813-0.391-0.516-0.906-2.234-0.938 1.016-3.109 3.281 0 0.125 0.25 0.297l4.531 0.75q2.875 0.5 4.766 0.5 0.172 0 0.547-0.063t0.563-0.063q1.266 0 1.266 0.641zM33.078 14.25q0 0.438-0.484 1.078t-0.891 0.641q-1.109 0-1.109-1.875 0-1.844 1.406-3.516h0.656q-0.953 2.609-0.953 2.828 0 0.422 0.344 0.766 0.391-0.422 0.828-0.422l0.047 0.047q0.156 0.156 0.156 0.453zM21.875-1.75q0 0.484-0.484 0.953-0.406-0.125-1.266-0.531-0.516 0.516-0.828 1.859-0.406 1.531-0.797 2.141-0.438-0.016-0.781-0.703-0.375-0.984-0.469-1.156-0.328-0.578-0.891-0.875-0.219 0.031-0.688-0.063-0.266-0.125-0.641-0.594t-0.375-0.766q0-0.375 0.313-0.805t0.656-0.43q0.781 0 1.469 0.844 0.422 0.484 1.234 1.5 0.125-0.094 0.813-1.594 0.516-1.156 1.109-1.156 0.469 0 1.047 0.461t0.578 0.914zM20.469 5.734q0 0.641-0.594 1.047-0.406 0.078-1.219 0.281-1.094 0.266-1.094 0.875 0 0.938 0.555 2.875t0.555 2.875q0 2.969-1.281 5.875h-0.484q-0.219-0.609 0.016-1.328 0.516-1.547 0.516-3.25 0-1.25-0.547-3.445t-0.547-3.398q0-1.063 0.813-2.219-0.031-0.063-0.227-0.25t-0.195-0.359q0-0.516 0.617-1.156t1.133-0.641q0.406 0 1.195 0.906t0.789 1.313zM27.422 20.891q0 0.688-1.109 1.25-0.516 0.25-1.578 0.797-1.844 1-2.953 1.469-0.328-0.313-0.344-0.406 0-0.766 2.672-2.219 2.141-1.156 2.953-1.375 0.359 0.344 0.359 0.484z"></path>
</svg>
