<!-- Generated by IcoMoon.io -->
<svg version="1.1" xmlns="http://www.w3.org/2000/svg" width="58" height="32" viewBox="0 0 58 32">
<title>surah17</title>
<path d="M58.141 3.563q0 0.391-0.078 0.641l-0.078 0.25q-0.344 0-1.156-0.813-0.063 0.234-0.063 1.406l1.219 13.969q0-0.141-0.172 2.688-0.016 0.328-0.813 2.266h-0.484q0.016-2.922-0.563-9.828-0.625-7.156-0.625-9.047-0.016-0.797-0.266-2.484l-0.25-1.797q0-0.719 0.891-1.875h0.469q0.641 1.547 1.969 4.625zM46.219 3.438q0 0.469-0.469 1.094t-0.906 0.625q-1.109 0-1.109-1.859 0-1.188 1.281-3.641 0.344 0 0.516 0.172l-0.828 2.5q0 0.688 0.516 1.188 0.172-0.156 0.516-0.547h0.484v0.469zM52.063 3.875q-0.125 0.063-0.344 0.188-0.297-0.25-0.813-0.578l1 12.344q0.031 0.281 0.031 0.609 0 2.578-1.781 5.484-2.188 3.563-5.906 3.906-0.828 0.328-2.5 0.938l-0.75-0.172v-0.484q3.016-1.531 4.234-2.234 2.297-1.359 3.766-2.859-0.016-1.109-0.734-3.688-1.063-2.313-5.125-6.781-4.156-4.516-5.391-6.953-0.234-0.453-1.156-1.703-0.469-0.641-0.469-1.5 0-0.891 0.5-1.313 1.938 1.313 3.797 2.953v0.469q-0.234 0.125-0.531 0.125-0.281 0-0.609-0.094-0.031-0.031-0.047-0.031-0.047 0.031-0.047 0.25 0 0.719 3.469 4.656 1.156 1.203 3.438 3.641 2.563 2.813 3.25 4.547 0.328 0.766 0.422 1.922l0.172 1.922q0.219-0.094 0.5-0.766 0.234-0.594 0.234-0.906l-1.813-17.031q0-1.375 0.984-1.375 0.469 0 1.375 1.813 0.844 1.672 0.844 1.969v0.734zM55.109 24.188q-0.141 0.344-0.594 0.875-0.938 0.344-2.828 1.266-1.234-1.766-1.297-1.922 0-0.516 0.898-1.508t1.383-0.992q0.266 0 0.578 0.32t0.313 0.586q0 0.766-0.813 0.766-0.125 0-0.375-0.063t-0.359-0.063l-0.234 0.203q0.594 0.609 0.969 0.609 0.219 0 1.891-0.422 0.156 0.094 0.469 0.344zM32.656-0.297q0 0.516-3.594 2.109-1.578 0.688-4.75 2.094h-0.609q0-0.031-0.086-0.164t-0.086-0.305q0-0.766 0.469-0.984 1.203-0.594 4.156-1.875 3.5-1.5 3.891-1.5 0.609 0 0.609 0.625zM37.234 8.516q0.047 0.188 0.047 0.391 0 1.109-1.563 2.141-1.313 0.859-2.422 1.031h-0.469q-0.172 0-0.172-0.344 0-0.25 1.039-0.891t1.055-1q-0.641-0.25-1.328-0.25-0.125 0-1.797 0.844-0.094-0.063-0.344-0.203 1.422-2.438 2.984-2.438 1.047 0 2.531 0.344 0.078 0.031 0.438 0.375zM27 10.438q0 1.984-1.25 3.594l-0.203-0.172q0.031-0.234 0.203-1.141 0.141-0.688 0.141-1.109 0-1.594-0.898-2.766t-0.898-1.266q0-0.891 0.688-0.891 0.844 0 1.578 1.5 0.641 1.313 0.641 2.25zM15.5 1.156q0 0.688-0.766 0.688-0.172 0-0.578-0.172l-0.625-0.25q-0.219 1.188-1.25 3.734-0.328-0.172-0.977-1.219t-1.156-1.219-1.023-0.313q-0.391-0.219-0.391-0.766 0-1.031 0.813-1.031 0.781 0 2.578 1.938 0.297-0.281 0.578-0.953 0.094-0.375 0.344-1.109 0.313-0.859 0.859-0.859 0.438 0 1.016 0.539t0.578 0.992zM21.313 16.438q0 3.547-1.156 4.797l-0.266-0.188q0.016-1.563-0.203-5.563-0.375-3.453-1.328-12.734-0.031-0.25-0.203-0.805t-0.172-0.789q0.125-0.234 0.859-2.078 0.547 0 0.75 0.453 0.688 1.453 1.719 4.063l-0.313 0.344q-0.172-0.125-0.813-0.422-0.109 0.141-0.109 0.891zM39.609 22.266q0 1.031-0.891 1.563-0.344 0.047-1.109 0.219-1.625 0.516-1.25 0.516-0.234 0-0.711-0.227t-0.695-0.227q-0.422 0-1.281 0.594-1.109 0.703-1.453 0.906-0.719 0.391-2.219 0.969-0.563 0.016-1.672 0.313l-1.484-0.203 3.797-1.766q0.969-0.531 3.719-2.109 0.375-0.203 0.891-0.203 0.172 0 0.609 0.203t0.609 0.203 0.672-0.406 0.672-0.406q0.094 0 0.305 0.133t0.383 0.133 0.492-0.32 0.383-0.367q0.234 0.188 0.234 0.484zM42.625 16.172q0 1.125-0.656 2.281-0.844 1.375-2.094 1.375-0.594 0-1.414-0.5t-1.023-1.016q-0.078 0.094-0.328 0.391-1.047 1.969-3.125 1.969-1.5 0-2.484-0.977t-1.516-0.977q-0.813 0-2.047 0.672-2.563 1.297-4.391 3.625-3 3.75-4.578 3.75-0.609 0-2.094-0.719-1.375-0.641-1.375-2.891 0-1.125 0.977-3.148t1.852-2.664q0.297 0 0.641 0.344-1.344 2.391-1.547 2.828-0.656 1.484-0.656 2.859 0 1.719 1.297 1.719 1.313 0 2.875-1.734 0.75-0.922 2.219-2.672 3.688-4.172 7.094-4.172 1.109 0 2.164 0.969t1.727 0.969q1.328 0 2.359-1.203 0.734-1.063 1.484-2.094h0.484q0.172 0.719 0.328 1.281 0.281 1.031 1.344 1.031 0.297 0 0.664-0.219t0.352-0.516q-0.281-0.734-0.281-1.359 0-1.063 0.719-1.766 0.344 0.25 0.688 1.148t0.344 1.414zM13.172 9.25q0 0.438-0.469 1.008t-0.938 0.57q-0.969 0-0.969-1.438 0-0.828 1.281-2.969 0.516 0 0.516 0.344 0 0.172-0.344 0.859t-0.344 0.859q0 0.328 0.344 0.688 0.219-0.047 0.719-0.266 0.203 0.016 0.203 0.344zM16.609 15.969q0 0.844-0.438 1.234-1.266 0.391-2.781 1-0.375 0.156-2.813 1.922-0.094-0.094-0.297-0.344 0.047-0.141 0.375-1.516-1.375-1.109-1.375-1.953 0-1.016 1.133-2.414t2.117-1.398q0.406 0 0.852 0.391t0.445 0.797q0 0.344-0.383 0.953t-0.727 0.609q-0.359 0-0.766-0.391h-0.516q-0.219 0.219-0.219 0.344 0 0.469 0.719 0.797 0.594 0.234 1.156 0.234 0.219 0 1.094-0.344t1.125-0.344h1.125q0.031 0.047 0.047 0.078 0.125 0.078 0.125 0.344zM14.672 21.906q0 0.766-2.219 1.891-0.891 0.422-2.688 1.266h-0.609v-1.016l4.891-2.547h0.453q0.172 0.188 0.172 0.406z"></path>
</svg>
