<!-- Generated by IcoMoon.io -->
<svg version="1.1" xmlns="http://www.w3.org/2000/svg" width="80" height="32" viewBox="0 0 80 32">
<title>surah18</title>
<path d="M80.094 20.719q0 0.516-0.547 2.016-0.563 1.609-0.859 1.609 0-1.672-0.25-4.406l-1.844-19.547q0-0.453 0.984-2.469 0.422 0 0.625 0.328l1.047 2.281q0.672 1.406 0.672 2.344-0.047 0-0.148 0.086t-0.273 0.086q-0.141 0-0.359-0.25-0.328-0.297-0.375-0.313-0.094 0.188-0.094 1.031 0 2.266 0.438 5.813l0.719 5.688q0.313 3.656 0.266 5.703zM67.594 12.672q0 0.422-0.719 1.109-0.313 0.344-0.859 0.344-1.063 0-1.063-1.328 0-0.813 0.703-2.227t1.344-1.836q-0.094 0.391-0.641 1.703-0.422 1.047-0.422 1.25 0 0.547 0.5 1.031 0.359-0.203 1.156-0.516v0.469zM59.547 6.859q0 0.391-0.523 0.906t-0.914 0.516q-0.438 0-0.781-0.578-0.25-0.469-0.25-0.719 0-0.641 0.617-1.844t1.133-1.672l0.188 0.609q-0.828 1.406-0.828 2 0 0.313 0.344 0.688 0.781-0.391 1.016-0.391v0.484zM51.781-0.75q-0.188 0.234-0.469 0.547-0.438 0.219-6.766 3.375-0.313-0.328-0.344-0.422 0-0.781 3.172-2.266 0.344-0.141 3.938-1.719h0.469v0.484zM42.391-0.578q0.016 0.125 0.016 0.25 0 0.859-1.281 2.047-1.453 1.375-2.563 1.328l-0.172-0.172v-0.516q0.641-0.469 1.953-1.359-0.375-0.469-0.984-0.469-0.719 0-1.453 0.422-0.859 0.5-1.094 0.547-0.094-0.219-0.047-0.375 1.281-2.234 2.938-2.234 0.422 0 1.938 0.172 0.25 0.141 0.75 0.359zM61.516 22q0 0.953-1.094 2.266-0.953 1.141-1.547 1.297v-0.469q0.5-0.531 0.953-1.078 0.578-0.719 0.578-1.25 0-0.391-0.5-0.766-0.344 0.391-0.891 0.391v-0.438q0-0.328 0.594-0.906t0.922-0.578q0.984 0 0.984 1.531zM44.203 6.844q0 0.344-0.172 0.75h-0.609l-0.672-0.688q-0.547 0.625-0.813 2.188-0.297 1.797-0.688 2.516h-0.469q-0.047-0.078-0.516-1.531-0.266-0.875-1.031-1.328-0.547-0.172-1.5-0.75-0.047-0.172-0.047-0.516 0-1.109 0.828-1.109 0.625 0 1.531 1 0.828 0.906 1.031 1.609 0.344-0.516 0.438-0.922 0.594-2.672 1.359-2.672 0.469 0 0.898 0.492t0.43 0.961zM73.422 17.453q0 2.25-1.586 3.609t-3.883 1.359q-2.359 0-4.703-2.313-4.125-4.094-4.844-4.609-0.078 0.219-0.141 1.969-0.063 1.375-0.922 2-0.563 0.438-2.141 0.781-1.859 0.422-6.594 1.313 0.984 1.859 0.984 2.578 0 1-0.641 1.773t-1.641 0.773q-1.75 0-2.906-1.547-0.5-0.797-1.563-2.406-0.172 0.031-0.734-0.063v-0.578q-0.219-0.219-0.344-0.219-0.469 0-1.438 0.133t-1.438 0.133q-0.125 0-0.359 0.063t-0.359 0.063q-2.266 0-6.156-2.75-0.063 0-2.453 1-2.484 1.063-3.844 1.438-2.656 0.734-5.953 0.734-7.266 0-7.266-5.125 0-1.297 1.188-4.516 0.094-0.25-0.078-0.813-0.219-0.813-0.25-0.938-0.047-0.375-0.047-0.766 0-3.547 2.953-7.75 0.172-0.234 0.891-0.578 0.188 0.203 0.188 0.406 0 0.313-0.813 1.375-0.656 0.828-1.234 2.383t-0.578 2.555q0 2.156 1.063 2.156 0.391 0 1.328-1.531h0.516v0.781q0 0.391-0.609 1.438t-0.953 1.328q-0.438 0.172-1.25 0.641-1.203 1.047-1.203 2.375 0 2.375 2.172 3.5 1.125 0.594 1.633 0.594t1.461 0.133 1.453 0.133q1.797 0 5.406-0.898t5.078-1.758q0.078-0.047 0.328-0.469-0.281-1.625-0.281-2.438 0-2.063 1.203-3.609 0.375-0.5 1.266-0.5 0.953 0 1.688 1.578 0.594 1.25 0.594 1.938 0 2.203-1.641 3.75 0.813 1.875 4.703 1.875h1.453q-0.234 0 1.766-0.328 0.813-0.125 1.016-0.609 1.984-5 3.953-7.234 0.328 0 0.594 0.438l0.438 1.75q0.328 1.234 0.328 2.094 0 0.875-1.375 3.375 0.234 0.094 1.297 0.094 0.969 0 4.234-0.719l3.922-0.828q0.781-0.125 0.781-0.969 0-1.422-3.734-4.594-1.438-1.156-4.297-3.453-0.563-0.484-0.563-1.766 0-1.047 0.625-2.375 0.656-1.453 1.5-1.844 1.375-0.813 3.891-2.094 1.844-0.609 6.219-2.156 2.938-1.094 4.797-1.094 2.078 0 2.078 1.391 0 2.078-3.188 5.797-0.578 1.047-1.984 3.203-0.219-0.172-0.375-0.172v-0.563q0-1.016 1.156-2.688 2.766-4.031 3-4.328 0-0.688-0.75-0.688-2.203 0-8.922 2.563-7.078 2.703-7.078 4.156 0 0.25 2.547 1.844 3.156 2 4.219 2.859 0.813 0.781 2.359 2.109 0.516 0.375 4.922 4.531 2.563 2.422 4.578 2.422 1.266 0 2.391-0.406 1.547-0.516 1.547-1.469l-2.063-17.844q0-0.328 0.719-2.141h0.484q1.25 2.5 1.969 4.469v0.469q-0.094 0.031-0.344 0.172-0.094-0.125-0.688-0.703-0.219 0.219-0.219 0.906zM31.594 1.688l-0.406 0.969q-0.281 0.656-0.813 0.656-0.984 0-0.984-1.375 0-0.688 0.469-2.047 0.141-0.469 1.031-1.281-0.078 0.344-0.391 1.313-0.281 0.859-0.281 1.031 0 0.609 0.375 0.984 0.656-0.266 1-0.25zM32.297 7.109q0 0.297-0.445 0.945t-0.742 0.648q-0.344 0-1.703-0.984-0.016-0.594 0.297-1.203 0.391-0.719 0.938-0.719 0.391 0 1.023 0.469t0.633 0.844zM24.953 0.391q0 0.141-0.070 0.375t-0.070 0.313h-0.672q-0.016-0.688-0.781-0.688-0.688 0-0.813 2.578-0.031 0.688-0.516 1.703-0.406 0-1.406-2.359-0.156-0.328-1.313-0.844-0.734-0.547-0.734-0.938 0-1.109 0.844-1.109 0.703 0 1.375 0.938 0.953 1.313 1.109 1.438 0.188-0.578 0.641-1.688 0.563-1.375 1.109-1.375 0.391 0 0.844 0.617t0.453 1.039zM25.219 9.25q0 0.734-0.734 0.953-2.578-0.063-2.578 0.797 0-1.141 0.555 1.594t0.555 3.297q0 1.875-0.969 3.625-0.219-0.344-0.063-1.141 0.219-1.094 0.219-1.297 0-0.891-0.633-2.797t-0.633-2.813q0-1.391 1.953-2.766l-0.125-0.063q-0.172-0.109-0.813 0.219-0.172-0.203-0.172-0.422 0-0.344 0.469-0.938t0.766-0.594q0.531 0 1.367 0.914t0.836 1.43zM32.641 22.266q-0.109 0-0.133 0.344t-0.102 0.453q-0.531 0.531-1.125 0.828-2.563 1.281-3.094 1.281h-0.578q-0.172-0.031-0.172-0.344 0-0.516 0.594-0.828 3.422-1.859 3.797-1.859zM47.109 16.406q0-0.531-0.609-1.469-0.984 0.813-1.797 2.531l-0.344 0.734v0.469q0.438-0.141 1.469-0.859 1.281-0.859 1.281-1.406zM48.063 24.313v-0.469q-1.891-1.281-2.703-1.281h-0.438q0.078 0.594 0.977 1.258t1.477 0.664q0.547 0 0.688-0.172zM34.359 15.484q0.031-0.641-0.391-1.438-0.469-0.906-1.063-0.906-0.891 0-0.891 1.172 0 0.547 0.219 1.266 0.281 0.938 0.719 0.891 0.5-0.375 1.406-0.984z"></path>
</svg>
