<!-- Generated by IcoMoon.io -->
<svg version="1.1" xmlns="http://www.w3.org/2000/svg" width="64" height="32" viewBox="0 0 64 32">
<title>surah19</title>
<path d="M64.578 0.438q0 0.594-0.406 0.766-0.766 0.344-1.094 0.641-0.078 0.313-0.531 1.438t-0.453 1.297 0.375 0.906q0.172-0.031 0.555-0.32t0.617-0.289q0.109 0 0.234 0.047-0.203 0.406-0.68 1.25t-1.102 0.844q-0.422 0-0.813-0.75-0.297-0.578-0.297-0.781 0-0.906 1.234-3.109l0.031-0.016q-0.031-0.047-0.234-0.047-0.781 0-9.25 4.031-1.203 0.594-1.203 1.234 0 0.141 0.617 1.031t0.617 1.031q0 0.375-0.297 0.688-0.547-0.047-1.367-0.859t-0.82-1.359q0-2.063 3.219-3.484 1.281-0.594 4.578-2.078 2.406-1.078 6.281-2.609 0.188 0.203 0.188 0.5zM52.672-0.453q0 0.734-0.328 0.922-0.656 0.391-3.734 1.328-0.25 0.063-0.938 0.938t-0.688 1.141v0.813q0.25 0.25 0.344 0.25-0.125 0 0.719-0.422 0.094 0.031 0.313 0.203-0.141 0.344-0.516 1.031-0.438 0.844-0.906 0.844-1.063 0-1.063-1.234 0-0.344 0.563-2.266-0.063-0.094-0.297-0.094-1 0-7.578 3.125-6.109 2.906-7.953 4.063h-0.641v-1.016q0-0.703 3.359-2.313 7.031-3.391 10.797-4.875 2.25-0.859 7.922-3h0.453q0.172 0.203 0.172 0.563zM59.047 21.953q0 1.172-1.234 2.438-1.078 1.078-2.313 1.594-0.094-0.047-0.344-0.219 0.203-0.375 1.469-1.547 1.109-1.031 1.188-1.609-0.141-0.047-0.313-0.047-0.406 0-1.047 0.219-0.188-0.016-0.188-0.344 0-0.531 0.648-1.063t1.227-0.531q0.906 0 0.906 1.109zM43.125 10.031q0 0.719-0.578 0.719-0.359 0-0.906-0.563h-0.375q-0.234 0.813-0.391 2.563-0.125 1.516-0.563 2.406h-0.5q-0.094-0.125-0.609-1.281-0.438-0.984-1.188-1.422-0.359 0.016-1.094-0.078-0.594-0.219-0.594-0.938 0-1.109 0.906-1.109 0.984 0 2.484 1.656 0.266-0.281 0.859-2.078 0.5-1.5 1.094-1.5 0.391 0 0.922 0.641t0.531 0.984zM36.172 0.313q0 0.469-2.5 1.531-16.297 6.906-16.297 8.063 0 0.156 0.281 0.719t0.281 0.734q0 0.297-0.344 0.625-1.328-0.625-1.328-1.578 0-1.359 1.516-2.438 0.922-0.516 2.813-1.547 1.75-0.813 5.953-2.891 3.375-1.719 9.313-3.984 0.172 0.156 0.313 0.156v0.609zM64.016 14.078q0 1.203-1.063 1.859-1.078 0.469-2.141 0.938-0.016 0.031-0.219 0.414t-0.375 0.383-0.492-0.141-0.492-0.141q-0.141 0.078-1.906 0.641-2.844 0.938-3.141 1.063-2.031 0.813-3.344 2.063-0.984 1.156-3 3.422-1.766 1.938-3.391 1.938-1.563 0-2.516-1.219-0.891-1.125-0.891-2.703 0-0.844 0.844-2.813v-0.344l-5.719 0.859q0.594 0-3.25-0.219-1.109-0.297-2.625-0.609h-0.766q-0.375 1.297-0.438 1.469-0.328 0.844-0.844 1.281-1.656-0.516-1.969-2.266-0.031-0.531-0.172-1.578-0.203-0.141-0.859-0.141-1.375 0-4.313 1.703-1.156 0.656-4.031 4.109-2.297 2.75-4.109 2.75-1.359 0-2.344-0.891t-0.984-2.203q0-1.266 0.688-3.18t0.688-2.023q0-0.141-0.344-0.781-0.391-0.734-0.438-0.938-0.031-0.125-0.031-1.25 0-2 1.203-4.922 1.359-3.234 2.891-4.016 0.188 0.188 0.188 0.422 0 0.281-0.344 0.813-2.563 3.688-2.563 5.969 0 2.344 0.984 2.344 0.422 0 1.094-0.859l0.828-1.078q0.297 0.188 0.297 0.641 0 0.578-0.609 1.813-0.891 0.844-1.781 1.828-0.438 0.484-1.078 2.156-0.688 1.781-0.688 2.688 0 0.641 0.555 1.289t1.164 0.648q1.406 0 4.734-3.953 2.234-2.688 3.813-3.719 1.203-0.781 2.813-1.234 0.813-0.219 2.453-0.656 0.266-0.078 0.688-0.938h0.641q2.172 3.172 8.125 3.172 3.797 0 7.156-1.125 5.5-1.859 5.5-3.078 0-0.078-0.75-1.344t-0.75-1.719q0-0.359 0.297-1.297h0.609q1.844 2.359 1.844 3.859 0 1.531-0.781 2.484-0.641 0.766-2.172 1.563-0.813 0.406-2.453 1.25-1.781 1.203-1.781 4.141 0 2.328 1.5 2.328 1.578 0 3.156-1.891 1.922-2.313 2.406-2.813 1.547-1.688 2.781-2.438 0.891-0.516 2.984-1.305t3.047-1.352q0.031-0.125 0.031-0.25 0-0.109-0.031-0.234-0.219-0.469-0.219-1.328 0-3.484 2.344-3.484 1.25 0 3.25 2.516 0.609 0.797 0.609 1.656zM25.969 10.484q0 0.516-0.523 1.078t-1.008 0.563q-0.969 0-0.969-1.109 0-0.859 0.531-2.078t1.219-1.641l0.172 0.5q-0.953 1.297-0.953 1.891v0.797l0.148 0.063t0.273 0.063q0.109 0 0.461-0.289t0.445-0.258q0.047 0.047 0.078 0.047 0.125 0.094 0.125 0.375zM37.281 24.578q0 0.313-0.531 0.859t-0.766 0.547q-0.172 0-1.656-1.109l-1.406 1.375q-0.359 0-1.984-1.281-0.047-0.391 0.406-1.148t0.844-0.758q0.156 0 0.891 0.492t0.906 0.492q0.156 0 0.742-0.555t0.789-0.555q0.813 0 1.766 1.641zM24.281 22.781q0 1.141-0.906 2.391-0.813 1.109-1.891 1.75h-0.516q0.609-0.984 2.203-2.859v-0.359q-0.219-0.203-0.266-0.219l-0.688 0.109v-0.703q0-0.344 0.594-0.672 0.484-0.266 0.656-0.266 0.813 0 0.813 0.828zM61.656 14q-0.078-0.219-0.844-0.984t-0.938-0.766q-0.313 0-0.648 0.313t-0.336 0.594q0 0.297 0.492 0.953t0.773 0.656q0.172 0 0.586-0.148t0.617-0.18q0.297-0.234 0.297-0.438z"></path>
</svg>
