<!-- Generated by IcoMoon.io -->
<svg version="1.1" xmlns="http://www.w3.org/2000/svg" width="48" height="32" viewBox="0 0 48 32">
<title>surah2</title>
<path d="M47.625 19.766q0 0.391-0.563 2.844-0.094 0.516-0.625 1.047-0.828-0.031-0.875-0.719-0.453-7.234-1.313-14.25l-0.656-5.266q0-0.469 0.344-1.133t0.766-0.664q0.688 0 1.844 2.141 1.078 1.938 1.078 2.406 0 0.516-0.391 0.766-0.156 0.078-0.891 0.313l-0.172 0.766q0-0.531 1.234 8.266-0.094 0.703-0.047 2.266 0 0.156 0.133 0.57t0.133 0.648zM35.953 7.125q0 0.578-0.492 1.031t-1.023 0.453q-0.797 0-1.313-1.031-0.391-0.813-0.391-1.406 0-0.719 0.375-1.656 0.406-1.078 0.984-1.266 0.703 0.047 0.703 0.906 0 0.188-0.070 0.594t-0.070 0.609q0 0.141 0.047 0.203 0.219 0.484 1.016 0.828 0.234 0.453 0.234 0.734zM38.859 10.375q0 1.109-6.859 3.719-0.328 0-0.75-0.344v-0.938q0.813-0.734 1.516-1.078 4.375-2.172 5.281-2.172 0.813 0 0.813 0.813zM32.063 2.266q0 0.953-2.656 1.844-1.938 0.656-3.547 1.469-1.156 0.563-3.484 1.703-2.078 1.031-3.078 1.922 0 0.141 0.125 0.695t0.125 0.852q0 0.906-0.672 0.906-0.563 0-1.055-0.625t-0.492-1.234q0-0.672 0.781-1.734 0.719-0.953 1.375-1.344 3.766-2.172 6.016-3.078 0.172-0.078 3.125-1.453 1.547-0.719 2.313-0.719 1.125 0 1.125 0.797zM30.125 9.5q0 0.438-0.453 0.891t-0.922 0.453q-0.203 0-0.969-0.391t-0.953-0.391q-0.203 0-0.68 0.156t-0.727 0.156q-0.609 0-1.266-0.625t-0.656-1.234q0-0.422 0.539-0.828t0.992-0.406q0.188 0 0.844 0.328t0.859 0.328q0.172 0 0.672-0.242t0.703-0.242q0.641 0 1.328 0.703t0.688 1.344zM42.609 18.063q0 5.266-3.891 5.266-2.078 0-3.672-1.938-0.594 0.563-1.891 1.391-2.047 0.891-3.813 0.891-1.484 0-2.719-0.734-0.641-0.375-1.672-1.328-0.766-0.719-1.156-0.719-0.219 0-1.375 0.422-1.281 0.469-1.578 0.516-2.641 0.547-4.844 1.875-0.344 0.219-3.031 2.234-1.25 0.953-2.609 0.953-1.109 0-2.094-0.859t-0.984-1.984q0 0.141 1.578-4.391 0.172-1.453 0.766-4.031 0.047-0.219 0.438-1.063 0.297-0.656 0.297-0.859t-0.891-1.297q-1.078-1.328-1.328-1.75-0.047-0.203-0.047-0.688 0-1.531 1.063-1.531 0.438 0 1.375 0.641 0.859 0.594 1.234 1 0 0.234 0.172 0.625h0.594q0.781-0.938 2.25-2.422h0.594q0 0.031 0.086 0.242t0.086 0.383q0 0.219-0.813 1.711t-0.813 1.68q0 0.281 0.031 0.375 0.656 0.438 1.289 1.695t0.633 2.070q0 1.828-1.609 2.75 0.328-0.094 1.063-0.234h0.984q0.203 0.219 0.203 0.656 0 1.063-3.281 2.531-3.031 1.391-4.203 1.313-0.078 1.188 1.25 1.188 1.266 0 2.078-0.813 1.391-1.453 2.422-2.047 3.547-2.094 7.781-3.172 0.297-0.078 0.719-0.547-0.078-0.297-0.078-0.609 0-1.266 0.813-3.156 1.141-2.641 2.547-2.641 1.219 0 2.109 1.672 0.672 1.266 0.672 2.078 0 1.5-2.094 3.844-0.203 0.75-0.203 0.516 0 0.563 1.063 0.875 0.781 0.25 1.516 0.25 1.531 0 2.938-0.766 0.828-0.422 1.969-1.406 0.906-0.734 1.188-0.734 0.703 0 0.875 0.672l0.344 1.297q0.25 0.047 1.047 0.375 0.688 0.25 0.875 0.25 1.656 0 1.656-1.234 0-0.156-0.031-0.297l-1.922-15.531q-0.047-0.172-0.047-0.375 0-0.484 0.25-0.953 0.297-0.563 0.766-0.563 0.703 0 1.859 2.156 1.047 1.922 1.047 2.391t-0.453 0.734l-0.656 0.344-0.172 0.766q0 0.156 0.383 2.359t0.492 3.313zM36.766 25.016q0 0.453-0.469 0.992t-0.906 0.539q-0.563 0-1.289-0.57t-0.727-1.133q0-0.531 0.477-0.938t1.055-0.406q0.469 0 1.164 0.539t0.695 0.977zM14.906 4.234q0 0.438-0.555 0.945t-0.992 0.508q-0.172 0-0.875-0.32t-0.891-0.32q-0.203 0-0.656 0.227t-0.656 0.227q-0.484 0-1.094-0.547t-0.609-1.078q0-1.266 1.391-1.266 0.219 0 0.758 0.234t0.758 0.234q0.234 0 0.797-0.234t0.766-0.234q0.563 0 1.211 0.539t0.648 1.086zM20.406 16.859q0 0.391-0.422 0.836t-0.797 0.445q-0.609 0-1.063-0.531t-0.453-1.172q0-0.813 1-2.813h0.578q0.141 0.547 0.141 1.063 0 0.5-0.125 0.938 1.141 0.891 1.141 1.234zM27.219 16.141q-0.344-1.406-1.125-1.406-0.984 0-0.984 1.234 0 1.203 0.906 1.203 0.359 0 0.781-0.328t0.422-0.703zM13.609 16.219q0-0.391-0.492-0.766t-0.883-0.375q-0.328 0-0.773 0.555t-0.445 0.898q0 0.281 0.375 0.641h1.141q0.313 0 0.695-0.328t0.383-0.625zM14.25 19.313q-1.375 0.594-1.891 0.75-1.234 0.391-1.688 0.609-1.203 0.641-1.391 1.672 0.656-0.813 2.406-1.672 2.141-1.063 2.563-1.359z"></path>
</svg>
