<!-- Generated by IcoMoon.io -->
<svg version="1.1" xmlns="http://www.w3.org/2000/svg" width="47" height="32" viewBox="0 0 47 32">
<title>surah20</title>
<path d="M44.75 0.344q0 0.703-0.5 0.703-0.063-0.125-0.953-0.703-0.563 0.563-0.766 1.594-0.297 1.625-0.438 2h-0.5q-0.438-1.156-0.641-1.531-0.469-1.016-1.031-1.484-0.391-0.047-1.109-0.344-0.313-0.234-0.313-0.781 0-1.109 0.984-1.109 0.359 0 1.406 1.25 0.313 0.406 1.078 1.391 0.141-0.328 0.547-1.484t0.859-1.156q0.984 0 1.375 1.656zM46.391 5.563q-0.391 0.406-0.578 0.563-2.734 1.125-7.531 3.078-0.172-0.203-0.172-0.391 0-0.703 2.891-1.922l5.047-2.125q0.203 0.172 0.344 0.172v0.625zM29.359 2.016q0 0.531-0.453 1.227t-0.969 0.695q-1.188 0-1.188-1.781 0-1.281 1.328-3.313l0.172 0.484q-0.688 1.141-0.688 2.063 0 0.516 0.516 1.047h0.375q0.203-0.453 0.719-0.984 0.188 0.219 0.188 0.563zM23.141 1.641q-0.047 0.328-0.203 0.891-0.484 1.281-1.375 1.281-1.031 0-1.031-1.578 0-0.844 0.438-2t1.016-1.688l0.188 0.641q-0.344 0.641-0.688 1.641v1.203q0.094 0 0.344 0.25 0.391-0.422 1.109-0.781zM43.5 23.188q0 0.578-0.891 1.664t-1.453 1.148l-0.297-0.094q0.484-0.672 1.547-1.844 0.047-0.469-0.438-0.469-0.125 0-0.359 0.063t-0.313 0.063v-0.641q0.844-0.859 1.313-0.859 0.219 0 0.555 0.383t0.336 0.586zM46.969 15.922q0 0.469-0.492 1.648t-0.836 1.43q-2.734 1.797-7.219 2.953-4.203 1.109-7.797 1.109-3.328 0-6.031-0.453-1.578-0.266-3.5-1.219-2.578-1.313-3.391-3.078-0.297-0.641-0.719-0.641-1.063 0-2.125 2.063-0.906 1.953-1.813 3.859-1.141 2.094-2.297 2.094-0.953 0-1.922-1.719-1.219-2.219-1.203-5.484l0.047-3.531q-0.016-0.359-0.227-1.211t-0.211-1.227q0-1.031 0.672-2.875 0.688-1.938 1.375-2.516v0.5q-0.031 0.141-0.172 0.594-0.766 1.297-0.766 2.922 0 2.359 0.953 2.359 0.422 0 0.672-0.563 0.297-0.734 0.438-0.813 0.281 0.172 0.281 0.547 0 0.609-0.625 1.891-0.313 0.297-0.891 0.969-0.438 0.906-0.438 3.563 0 1.484 0.594 2.906 0.172 0.391 0.781 0.953 0.641 0.641 0.984 0.641 0.672 0 1.656-1.938 0.828-1.625 1.156-2.828 0.219-0.813 1.484-2.172t2.016-1.359q0.313 0 1.516 1.438 1.391 1.625 1.969 1.984 3.375 2.125 10 2.125 1.797 0 2.141-0.047 0.766-0.078 1.234-1.719 0.141-0.25 0.313-0.813 0.047-0.406 0.047-2.344l-1.797-15.906q0-0.469 0.75-2.281 0.688 0.391 1.516 2.234 0.688 1.578 0.922 2.688l-0.328 0.313-0.953-0.563q-0.125 0.266-0.078 0.781 0.297 1.922 0.859 5.797 0.5 3.484 0.5 5.797 0 1.109-0.109 1.969-0.047 0.5 0.078 0.766l3.375-2.906q1.766-1.516 3.375-1.516 0.172 0 0.469 0.109t0.391 0.109q0.359 0 0.953 0.125 2.422 1.281 2.422 2.484zM29.234 15.234q0 2.484-1.078 3.25 0.25-2.766-0.219-3.766-0.156-0.406-1.109-2.078-0.766-1.297-0.766-1.5 0-0.188 0.453-1.078h0.406q0.578 0 1.313 1.281 0.594 1 0.656 1.375 0.344 1.406 0.344 2.516zM17.328 0.016q-0.047 0.078-0.328 0.734-0.406-0.344-1.266-0.813-0.125 0-0.297 0.234-0.203 1.391-0.766 4.172-0.391-0.141-0.922-1.328-0.578-1.25-1.641-1.938-0.734-0.078-1.797-0.766-0.172-0.719-0.172-0.375 0-0.438 0.305-0.914t0.727-0.477q0.984 0 3.047 3.047 0.328-0.125 0.422-0.766 0.5-2.563 1.234-2.563 0.469 0 0.961 0.633t0.492 1.117zM22.734 12.125q0 0.281-0.492 0.891t-0.758 0.609q-0.484 0-0.859-0.5t-0.375-1q0-1.969 1.266-3.047 0.094 0.172 0.094 0.422 0 0.297-0.195 0.859t-0.195 0.781q0 0.469 0.484 0.984 0.766-0.391 0.859-0.422 0 0.031 0.086 0.133t0.086 0.289zM16.484 10.266q0 1.078-0.563 1.563-0.078-0.656-0.438-1.969-0.125-0.313-0.625-1.047-0.438-0.672-0.438-0.844 0-0.594 0.5-0.844 1.563 0.813 1.563 3.141zM19.813 23.188q0 0.656-0.594 1.766-0.125 0.219-1.297 0.984 0.063-0.297 0.5-1.117t0.438-0.945q0-0.547-0.422-0.547-0.156 0-0.313 0.063t-0.203 0.063l-0.031-0.031q-0.141-0.125-0.141-0.359 0-0.391 0.43-0.75t0.82-0.359q0.813 0 0.813 1.234zM45.297 16.703q-1.453-1.031-1.906-1.172-0.25-0.078-1.281-0.078-1.938 0-3.25 1.188-0.234 0.219-3.656 3.609l1.156 0.172q1.469-0.359 4.406-1.156 2.453-0.688 3.938-1.672 0.594-0.375 0.594-0.891z"></path>
</svg>
