<!-- Generated by IcoMoon.io -->
<svg version="1.1" xmlns="http://www.w3.org/2000/svg" width="83" height="32" viewBox="0 0 83 32">
<title>surah21</title>
<path d="M82.922 5.781q-0.156 0.078-0.328 0.078-0.297 0-0.688-0.172-0.172 0.344-0.094 1.172l0.984 11.688q0.141 1.781-0.766 4.688-0.281 0.422-0.766 0.422v-3.797l-1.531-16.688q0-0.672 1.016-2.344 0.344 0 0.438 0.172 1.063 2.438 1.734 4.313v0.469zM61.594-5.047q0 0.641-2.188 2.016-1.625 1-2.438 1.375-0.219-0.172-0.344-0.172v-0.766q1.5-1.422 4.781-2.953 0.188 0.219 0.188 0.5zM62.703-0.063q0 0.453-1.406 0.984-1.203 0.469-1.5 0.469-0.188 0-0.352-0.094t-0.664-0.625-0.5-0.75q0-0.516 0.922-1.539t1.438-1.023q0.266 0 0.766 0.594 0.047 0.172 0.047 0.359 0 0.453-0.422 0.938 0.219 0.203 0.375 0.203 1.203 0 1.297 0.031v0.453zM76.984 5.609q-0.172 0.188-0.172 0.344h-0.453q-0.172 0-0.281-0.078t-0.125-0.078q-0.078 0.172-0.078 0.984l0.813 8.453q0 8.047-7.531 9.453-0.609 0.266-1.797 0.625l-1.313-0.141q0-0.344 0.453-0.609 1.453-0.547 4.016-2 3.141-1.797 3.141-2.563 0-2.109-2.266-5.094-2.578-2.484-5.172-5.234-1.688-1.797-4.578-6.109-0.313-0.484-0.313-1.203 0-0.688 0.438-1.375h0.453q0.359 0 1.813 1.242t1.719 1.711q-0.047 0.094-0.438 0.313t-0.391 0.391q0 0.625 3.469 4.234l3 3.156q2.781 3.125 3.109 5.391 0.188 1.297 0.219 1.406 0.438-0.172 0.438-2.141l-1.375-13.516q0-0.328 0.391-1.172t0.641-1.047q0.625 0.375 1.328 2.047 0.641 1.469 0.844 2.609zM78.906 22.141q0 0.844-0.516 1.484-0.672 0.641-1.328 1.266h-0.5v-0.484q0.5-0.563 1.078-1.625-0.109-0.109-0.516-0.094-0.141-0.172-0.141-0.391 0-0.328 0.43-0.789t0.727-0.461q0.766 0 0.766 1.094zM62.578 9.281q0 0.359-0.477 0.938t-0.773 0.578q-0.547 0-1.203-0.469-0.75-0.484-0.75-0.984 0-0.438 0.484-1.016t0.906-0.578q0.484 0 1.148 0.516t0.664 1.016zM51.781 8.781q0 0.688-0.469 1.352t-1.141 0.664q-1.328 0-1.328-1.797 0-0.891 0.547-2.070t1.203-1.664q0.203 0.188 0.203 0.422 0 0.266-0.344 1.203t-0.344 1.219q0 0.469 0.359 1.047 0.344-0.297 1.109-0.844 0.203 0.203 0.203 0.469zM39.438 1.766q0 0.297-0.547 0.789t-0.906 0.492q-1.328 0-1.328-1.875 0-1.688 1.578-2.688 0.047 0.375-0.133 1.039t-0.18 0.961q0 0.844 0.484 0.906 1.141-0.531 1.031-0.531v0.906zM54.391-0.703q0 1.109-1.281 1.625-3.844 1.453-11.531 4.391-7.234 2.75-12.156 5.906h-0.594q-0.172-0.203-0.172-0.5 0-0.781 0.328-1.125 0.641-0.734 4.141-2.609 0.391-0.219 4-1.75 0.516-0.188 1.828-0.688 14.344-5.781 14.688-5.781h0.594q0.156 0.172 0.156 0.531zM60.359 24.781q0 0.313-0.586 0.977t-0.805 0.664q-0.406 0-1.164-0.68t-0.758-1.039q0-0.391 0.531-1.055t0.891-0.664q0.344 0 1.117 0.742t0.773 1.055zM64.234 17.25q0 4.359-3.813 4.359-1.953 0-2.938-2.219-2.656 2.906-4.797 2.906h-0.719q-0.703 0-1.547-1.281-0.313-0.469-0.313-1.406-0.078-0.094-0.359-0.094-0.141 0-1.328 0.641-1.344 0.734-1.969 0.984-7.672 2.953-14.078 2.953-2.234 0-4.281-0.734-2.531-0.922-3.547-2.609-0.875-1.5-1.344-6.547-0.25-2.813-0.969-10.094-0.047-0.375-0.438-2.203-0.344-1.5-0.344-1.688 0-1.141 0.891-2 0.75 0.25 1.266 3.234 0.422 2.328 0.844 8.625 0.375 5.406 1.063 7.828 0.125 0.172 0.438 0.672 1.359 2.016 4.313 2.703 1.328 0.328 2.688 0.328 0.172 0 1.609-0.078l1.625-0.078q0.078-0.047 0.406-0.219 5.234-0.484 10.234-2.563 0.219-0.094 2.016-1.125 1.234-0.719 2.047-0.797 0.172 0.125 0.43 1.281t1.102 1.609q0.313 0.141 0.578 0.141h0.422q0.625 0 1.797-0.734 1.016-0.609 1.234-0.891 0.141-0.188 0.141-0.906 0-0.844-0.477-2.578t-0.477-2.563q0-0.516 0.297-1.969 0.172-0.172 0.391-0.172 0.813 0 1.25 2.359 0.719 3.813 0.938 4.406 0.813 2.391 2.516 2.391 1.234 0 1.828-0.766-0.125-0.547-0.719-1.656-0.547-0.938-0.547-1.625 0-1.297 0.469-1.5 0.891 0.297 1.547 1.531 0.625 1.125 0.625 2.141zM32.531 3.469q0 1.891-0.922 2.906-0.047-0.797-0.234-2.844-0.125-1.125-0.844-2.188-0.094-0.141-0.891-0.984-0.703-0.703-0.703-0.906 0-0.266 0.281-0.625t0.531-0.359q1.328 0 2.734 3.813 0.047 0.344 0.047 1.188zM45.406 12.031q0 0.844-0.688 0.844 0.063 0-1.188-0.844-0.516 0.781-0.766 2.906-0.219 1.797-1.063 2.359-0.516-1.031-2.016-3.047-0.594-0.281-1.703-1.016-0.219-0.422-0.219-0.641 0-1.234 0.984-1.234 1.141 0 2.984 2.766 0.219-0.734 0.719-2.172 0.641-1.844 1.375-1.844 0.484 0 1.031 0.703t0.547 1.219zM49.953 24.922q0 0.313-0.5 0.984t-0.797 0.672q0.141 0-1.797-0.969-0.109 0.047-0.891 0.813-0.563 0.563-0.766 0.563-0.344 0-1.117-0.672t-0.773-0.922q0-0.469 0.5-1.094t0.969-0.625q0.156 0 0.797 0.344t0.781 0.344q0.125 0 0.727-0.625t0.805-0.625q0.438 0 1.25 0.75t0.813 1.063zM34.297 16.984q0 0.609-0.469 1.016t-1.078 0.406-1.016-0.844q-0.313-0.688-0.313-1.375 0-1.297 1.547-4.125h0.5q0.172 0.016 0.172 0.344 0 0.266-0.484 1.508t-0.484 1.508q0 1.141 0.594 1.328 0.469-0.484 1.031-0.688v0.922zM19.375 1.328q0 0.406-0.453 0.875-0.453-0.141-1.281-0.953-0.453 0.438-0.664 2.078t-0.664 2.203h-0.531q-0.656-1.203-1.031-2.109-0.188-0.469-1.453-0.984-1.125-0.5-1.125-0.969 0-0.391 0.367-0.859t0.742-0.469q1.375 0 2.703 2.359 0.172-0.563 0.563-1.641 0.594-1.563 1.156-1.563 0.453 0 1.063 0.789t0.609 1.242zM20.609 16.141q0 0.375-0.484 0.953-0.422 0.469-0.672 0.594-0.344 0.078-1.234 0.344-0.531 0.203-4.328 2.469-0.094-0.25-0.016-0.719l0.109-0.656q0-0.469-0.734-1.047-0.891-0.688-1.031-0.797-0.172-0.75-0.172-0.531 0-1.156 1.695-2.789t2.852-1.633q0.5 0 1.016 0.383t0.516 0.867q0 0.375-0.422 1.109-0.438 0.813-0.75 0.813-0.125 0-0.633-0.344t-0.68-0.344q-0.344 0-0.984 0.609 0.859 0.922 1.875 0.922 0.344 0 1.805-0.492t1.789-0.492q0.172 0 0.32 0.086t0.164 0.086v0.609zM22.703 20.844q-0.188 0.422-0.734 0.719-6.703 3.484-7.313 3.484-0.547 0-0.547-0.531 0-0.797 2.688-1.844 0.5-0.297 1.766-1.016 3.156-1.578 3.406-1.578h0.734v0.766z"></path>
</svg>
