<!-- Generated by IcoMoon.io -->
<svg version="1.1" xmlns="http://www.w3.org/2000/svg" width="56" height="32" viewBox="0 0 56 32">
<title>surah22</title>
<path d="M53.406 10.719q-0.047 0.453-0.453 0.992t-0.828 0.539q-0.719 0-0.719-1.156 0-1.672 1.531-2.859-0.297 0.797-0.609 1.875v0.766q0.063 0.016 0.188 0.016 0.297 0 0.891-0.172zM34.547 0.828q0 0.156-0.070 0.375t-0.070 0.266h-0.469q-0.453-0.484-0.688-0.484-0.516 0-0.672 1.219-0.047 0.578-0.141 1.703-0.031 0.297-0.375 1.328h-0.469q-0.641-1.422-0.719-1.578-0.516-1-0.984-1.344-0.391-0.125-0.813-0.234-0.75-0.281-0.75-0.781 0-0.313 0.328-0.711t0.656-0.398q0.453 0 2.453 2.188 1.031-2.953 1.828-2.953 0.438 0 0.734 0.672 0.219 0.484 0.219 0.734zM38.313 6.078q-0.141 0.344-0.563 0.813l-8.078 3.813q-0.172-0.203-0.172-0.469 0-0.719 4.313-2.688 1.516-0.688 4.203-1.766zM45.063 21.797q0 1.609-2.641 3.266h-0.469q0.25-0.422 1.953-2.125v-0.344q-0.047-0.078-0.172-0.078-0.156 0-0.453 0.125-0.094-0.172-0.313-0.469 0.719-1.109 1.453-1.109 0.641 0 0.641 0.734zM53.109 16.469q-0.172 0.406-0.547 1.219-0.344 0.672-0.953 0.672-0.125 0-0.406-0.063t-0.438-0.063q-0.516 0-0.609 0.313-0.156 1.406-0.469 3.016-0.156 0.656-0.781 1.469-0.359-0.297-0.359-1.297 0-0.5 0.031-1.281 0.047-0.938 0.047-1.313 0-0.906-0.516-0.906-0.656 0.219-2.969 0.859-0.594 0.156-2.078 0.594-1.375 0.547-4.156 1.547-3.922 1.406-5.344 1.406h-0.813q-3.891 0-5.172-2.859-0.344 0.156-0.656 0.625-1.313 1.969-3.641 3.297-2.422 1.391-4.688 1.391-0.172 0-0.516-0.102t-0.469-0.102q-2.906-0.328-4.469-2.578-1.406-2.031-1.406-5.063 0-0.563 0.258-1.969t0.258-1.969q0-0.156-0.344-0.688-0.453-0.719-0.688-1.359 0.266-0.141 0.688 0 0.531 0.203 0.703 0.203 0.75 0 1.313-1.922 0-0.641-1.578-1.703-0.813-0.563-1.75-1.172-0.297-0.453-0.297-1.406 0-1.828 2.031-2.781 1.547-0.75 3.609-0.75 3.672 0 6.75 0.453 0.359 0.016 1.078 0.125 0.563 0.063 1.063 0.516-0.094 0.516-0.469 1.469-0.156 0.297-5.391 3.078-3.844 2.016-4.531 4.016 0.25 0.344 1.422 0.344l7.734-0.906q0.391 0 1.109 0.141 0.828 0.156 1.109 0.172 1.172 0.125 2.125 1.477t0.844 2.57q-0.016 0.391-0.211 1.242t-0.195 1.305 0.125 0.797q0.656 2.156 3.906 2.156 4.234 0 9.797-2.531-0.172-0.125-0.469-0.266-2.391-0.438-6.75-1.109-0.281-0.297-0.281-0.375 0-0.406 0.664-1.172t1.070-0.766h3.359q1.109 0 1.109-0.781 0-0.188-0.125-0.375l-1.797-12.609q0.234-0.766 0.781-2.188 0.391-0.047 1.031 1.328l1.141 2.469v0.984q-0.078-0.078-0.938-0.516-0.094 0.172-0.094 0.922 0 1.438 0.586 4.289t0.586 4.336q0 0.984-0.656 3.094 0.219 0.172 0.359 0.328 6.141 0.516 5.422 0.516 1.109 0 1.109-0.688l-1.703-14.594q0-1.328 0.859-2.078 0.891 1.313 2.141 4.063l-0.172 0.844q-0.359-0.172-1.078-0.922-0.047 0.078-0.047 0.547 0 0.625 1.172 10.531 0.047 0.203 0.203 0.516 0 0.406 0.047 1.094 0.031 0.469 0.344 0.688 0.219 0 0.664 0.070t0.664 0.070q1.656 0 1.703 0.063zM26.641 7.063q0 0.828-0.5 1.523t-1.313 0.695q-0.156 0-0.141-0.063t-0.109-0.063q-0.141 0-0.453 0.195t-0.484 0.195q-1.156 0-1.156-1.188 0-0.906 1.063-1.406 0.047 0.125-0.055 0.422t-0.102 0.391l0.344 0.344q0.453-0.047 0.633-0.742t0.414-0.82q0.141 0.469 0.531 1.297 0.375-0.016 0.648-0.719t0.508-0.828q0.172 0.344 0.172 0.766zM13.922 24.656q0 0.531-0.563 0.781-3.672 1.719-4.438 1.719h-0.688v-0.609q0.813-0.719 2.609-1.359l2.906-1q0.172 0.203 0.172 0.469zM20.422 4.375q-2.859-0.547-4.109-0.547-1.969 0-3.766 0.422-0.594 0.156-1.094 0.688 1.875 1.328 2.844 2.359 0.188 0.359 0.875 0.938 0.969-1 2.766-2.156 2.016-1.313 2.484-1.703zM27.688 16.016q0-3.094-4.734-3.094-0.172 0-3.25 0.391l-3.25 0.375q-0.422 0-1.266-0.125t-1.266-0.125-0.766 1.297q-0.266 1.063-0.266 1.609 0 2.875 1.742 4.719t4.602 1.844q4.781 0 7.859-4.844 0.594-0.891 0.594-2.047zM21.844 17.375q0 0.266-0.383 0.82t-0.602 0.555q-0.438 0-1.227-0.578t-0.789-1q0-0.344 0.391-0.883t0.719-0.539q0.313 0 1.102 0.672t0.789 0.953zM55.766 1.906q-0.047 0.453-0.453 0.992t-0.828 0.539q-0.719 0-0.719-1.156 0-1.672 1.531-2.859-0.297 0.797-0.609 1.875v0.766q0.063 0.047 0.188 0.047 0.297 0 0.891-0.203z"></path>
</svg>
