<!-- Generated by IcoMoon.io -->
<svg version="1.1" xmlns="http://www.w3.org/2000/svg" width="80" height="32" viewBox="0 0 80 32">
<title>surah23</title>
<path d="M79.547 18.578q0 2.875-1.156 3.938l-0.25-0.172q0.031 0.078 0.031-3.5l-2.484-20q0-0.625 0.859-2.078h0.484l2.094 4.625v1.047q-0.094 0.016-0.313 0.281-0.375-0.578-0.813-0.578-0.109 0.219-0.109 0.938zM64.484 1.969q0 0.359-0.484 1.039t-0.844 0.68q-1.031 0-1.031-1.875 0-1.422 0.516-2.109 0.172-0.375 0.344-0.719 0.344-0.563 0.703-0.547l-0.609 2.484q0 0.328 0.516 1.109-0.219 0 0.688-0.406 0.203 0 0.203 0.344zM60.047-1.781q0 1.234-1.688 2.438-1.531 1.109-2.547 1.109-0.266 0-0.766-0.484 0.297-0.453 1.367-1.008t1.414-0.945q-0.609-0.344-1.547-0.344-0.563 0-0.859 0.266-0.484 0.453-1.156 0.688-0.203-0.016-0.203-0.344 0-0.484 1.023-1.445t1.539-1.039q0.156-0.063 0.5-0.063 0.641 0 1.625 0.281 1.297 0.359 1.297 0.891zM63.375 9.5q0 0.406-1.031 0.859-0.375 0.141-1.109 0.422-0.547 0.313-1.781 0.922-0.016-0.047-0.141-0.703-0.938-1.063-0.938-1.156 0-0.453 0.859-1.5 0.984-1.188 1.703-1.188 1.031 0 1.031 0.891 0 1.031-0.734 1.031-0.328 0-0.734-0.422-0.109 0-0.453 0.375 0.219 0.469 0.672 0.469 0.297 0 1.055-0.289t1.039-0.289q0.563 0 0.563 0.578zM50.359 0.859q-0.109 0.125-0.641 1.375-0.375 0.344-0.813 0.344-0.469 0-0.898-0.563t-0.43-1.031 0.406-1.703q0.469-1.406 0.922-1.531h0.469v0.469q0 0.125-0.234 0.492t-0.273 0.492-0.039 0.672q0 0.813 0.344 1.047 0.313-0.234 0.844-0.563 0.344 0.344 0.344 0.5zM71.25 22.297q0 1.297-3.438 3.391v-0.594q0-0.516 2.063-2.141v-0.359q-0.219-0.219-0.375-0.219-0.125 0-0.406 0.133t-0.469 0.133v-0.438q0-0.469 0.734-0.875 0.563-0.344 0.781-0.344 1.109 0 1.109 1.313zM54.641 5.141q0 0.906-0.688 0.906-0.203 0-0.469-0.25-0.344-0.297-0.422-0.313-0.391 0.656-0.719 2.047-0.344 1.469-0.641 2.094h-0.484q-0.328-0.672-0.672-1.344-0.422-0.734-0.984-1.094-0.359-0.078-1.109-0.344-0.313-0.172-0.313-0.719 0-1.188 1.031-1.188 0.859 0 2.359 1.781 0.469-0.625 0.563-1.313 0.297-1.719 1.156-1.719 0.422 0 0.906 0.5t0.484 0.953zM42.875 1.688q0 0.25-0.328 0.891h-0.688q-0.172 0-0.445-0.211t-0.414-0.211q-0.25 0-0.219 0.125-2.141 4.203-7.234 7.094h-0.469q-0.172-0.031-0.172-0.375t3.656-3.719q1.141-1.047 1.625-1.594 1.063-1.156 1.234-1.844-0.094-0.125-1.328-0.984-0.484-0.344-0.484-0.766 0-0.969 0.922-2.344 0.984-1.469 1.875-1.469 0.203 0 0.375 0.094 0.516 0.672 0.813 1.703 0.125 0.469-0.078 1.5 0.047 0.078 0.141 0.422 0.234 0.266 0.891 0.75 0.328 0.234 0.328 0.938zM44.938 9q0 0.344-0.453 0.914t-0.781 0.57q-0.609 0-2.063-1.141 0-0.563 0.266-1.234 0.375-0.828 0.891-0.828 0.484 0 1.313 0.641t0.828 1.078zM76.797 17.859q0 0.766-0.422 1.844-0.516 1.406-1.328 1.406h-0.469q-1.969 0-3.969-3.172-0.375 0-1.109 0.25-0.938 0.313-1.203 0.422-0.734 0.094-1.719 0.688-0.328 0.875-1.203 2.781-0.344 0.219-0.938 0.609-1.141 0.938-3.75 2.547-3.469 1.563-5.438 1.563-1.75 0-3.156-1.219-1.469-1.266-1.469-2.984 0-0.625 0.313-1.969 0.156-0.594 0.766-2.016 0.594-1.281 0.594-1.406 0-0.641-0.484-0.641 1.156 0-1.125 1.109t-3.188 1.109q-1.078 0-1.969-0.664t-1.063-1.727q-0.047-0.109-0.141-0.25-2.313 1.031-3.844 2-0.094 0.234-0.453 1.422-0.531 1.938-1.766 2.75-5.828 3.938-9.531 3.938-2.156 0-3.5-1.398t-1.344-3.586q0-0.688 0.141-1.438-0.094-0.094-0.391-0.094-0.141 0-1.117 0.344t-1.445 0.438q-1.328 0.328-2.578 0.328-0.266 0-0.859-0.133t-0.859-0.133q-0.813 0-1.922-0.641-1.016-0.625-1.547-1.328-1.188-1.516-1.188-3.5 0-0.859 0.609-2.422 0.469-1.172 0.875-2.156-0.063-0.219-0.328-1.359-0.094-0.438-0.094-0.984 0-1.578 0.688-3.438 0.719-2.031 1.766-2.984 0.516 0 0.516 0.547 0 0.516-0.836 2.336t-0.836 2.367q0 0.188 0.148 0.617t0.148 0.648q0.125 0.125 0.375 0.406h0.344q0.391-0.719 0.859-1.141 0.203 0.172 0.203 0.719 0 1.031-0.594 1.875-0.641 0.266-1.609 1-0.828 1.094-0.828 3.125 0 2.172 2.188 3.297 1.547 0.797 3.344 0.797 2.734 0 5.438-1.203 1.875-0.844 4.859-2.844 0.484-0.344 0.484-0.813 0-0.266-1.109-2.859t-1.109-2.875q0-0.688 0.594-1.859 0.625 0.141 2.313 1.844 0 0.125-0.344 0.477t-0.344 0.508q0 0.172 0.469 1.109 0.594 1.172 0.734 1.641 0.063 0.156 0.063 0.844 0 1.938-0.891 3.328-0.547 0.828-3.031 2.328-2.047 1.234-2.047 2.469 0 1.719 1.609 2.656 1.156 0.656 2.563 0.656 2.063 0 5.281-1.547 3.328-1.594 4.406-3.25 0.047-0.469-0.484-0.469-0.297 0-0.875 0.063t-0.844 0.063q-3.188 0-3.188-2.344 0-1.031 0.859-2.406 0.938-1.469 1.906-1.469 0.859 0 1.938 1.344 0.547 0.719 1.609 2.125 2.828-0.469 4.922-2.766h0.484q0.344 0.297 0.25 0.766-0.156 0.563-0.047 0.797 0.297 0.578 1.328 1.438 0.359 0.297 1.078 0.297 0.969 0 2.039-0.641t1.383-1.516q0.297-0.75 1.453-1.906 1.328-1.328 2.172-1.328 0.953 0 1.688 1.828 0.594 1.469 0.594 2.406 0 2.547-1.719 2.547-0.297 0-0.898-0.141t-0.898-0.141q-0.641 0-1.188 1.656-0.406 1.281-0.406 1.813 0 3.328 3.469 3.328 1.813 0 5.234-1.578 3.641-1.641 4.172-3.078 0-0.188-0.469-0.188h-1.344q-3.172 0-3.172-2.344 0-0.938 0.672-2.281 0.828-1.75 1.891-1.75 0.766 0 2.219 1.797t1.719 1.797q0.641 0 1.875-0.453 1.063-0.391 1.297-0.578-0.141-1.922-0.172-2.094-0.188-1.266-0.609-1.969-0.688 0.109-1.891 0.813h-0.5q0-0.125 0.047-0.328 0.766-0.516 1.531-1.063 0.781-0.656 0.781-1.516l-1.25-10.734q0-0.641 0.594-1.844 0.656 0 0.906 0.344 0.391 0.563 1.063 1.969 0.766 1.516 0.766 1.969 0 0.688-0.5 0.688-0.172 0-0.328-0.148t-0.188-0.148q-0.094 0.219-0.094 0.984l0.656 5.859 0.25 0.25q1.156-0.766 1.156-1.188 0-0.172-0.406-0.773t-0.406-0.758q0-0.734 0.594-1.594 0.672-0.953 1.328-0.953 0.781 0 0.781 1.344 0 0.469-0.047 1.875 0 0.094 0.188 0.352t0.188 0.43q0 0.969-0.766 0.969-0.125 0-0.211-0.063t-0.211-0.063q-0.75 0-2.281 2.688 0 1.797 0.891 3.859 0.094 0.219 0.578 0.219 0.203 0 0.594-0.063t0.594-0.063q1.359 0 2.359 0.797 1.094 0.859 1.094 2.156zM32.359 1.969q0 0.484-0.625 1.172t-1.125 0.688q-0.984 0-0.984-1.469 0-0.938 0.391-2.297-0.016 0-0.117-0.063t-0.242-0.063q-0.328 0-4.219 1.781-3.391 1.531-4.594 2.141-2.078 1.031-2.078 1.766 0 0.109 0.289 0.477t0.289 0.57q0 0.75-0.703 0.75-1.25 0-1.25-1.453 0-1.047 0.891-1.984 0.391-0.422 1.078-0.734 0.25-0.25 0.719-0.594 10.625-5.047 11.391-5.047h0.75v0.766q-1.656 2.156-1.656 2.875 0 0.781 0.547 0.781 0.188 0 0.508-0.266t0.398-0.297q0.344 0.344 0.344 0.5zM45.922 21.75q0 0.844-1.234 2.125-1.078 1.125-2.016 1.531-0.297 0-0.484-0.188 0.828-0.938 2.5-2.797v-0.344q-0.094-0.047-0.266-0.047-0.344 0-0.969 0.188-0.172 0-0.172-0.313 0-0.469 0.594-0.961t1.063-0.492q0.984 0 0.984 1.297zM20.719-0.25q0 0.531-0.469 1.203t-0.984 0.672q-0.5 0-0.859-0.672-0.297-0.547-0.297-1.078 0-0.453 0.43-1.375t0.773-1.016v1.031l0.031 1.063 0.234 0.25q0.281 0 0.469-0.422h0.5q0.172 0 0.172 0.344zM22.813 11.938q0 0.313-0.508 0.938t-0.82 0.625q-0.281 0-1.859-1.094 0-0.594 0.25-1.234 0.344-0.844 0.922-0.844 0.438 0 1.227 0.578t0.789 1.031zM20.859 22.438q0 0.719-0.906 1.773t-1.625 1.32h-0.516v-0.516q0.563-0.578 1.672-1.734-0.203-0.125-0.719-0.25-0.391-0.094-0.391-0.25 0-0.391 0.594-0.805t0.984-0.414q0.906 0 0.906 0.875zM75.266 18.281q-0.047-0.25-0.711-0.641t-0.945-0.391q-0.219 0-0.563 0.344 1.188 1.188 1.797 1.188 0.422 0 0.422-0.5zM63.625 16.953q-0.109-0.313-0.539-0.844t-0.695-0.531q-0.469 0-0.844 0.781 0.422 0.594 2.078 0.594zM40.234-0.797q0-0.094-0.203-0.438-0.063-0.031-0.453 0.094 0 0.672 0.484 0.672 0.125-0.125 0.172-0.328zM55.625 15.125q-0.672-1.766-1.188-1.766t-1.188 1.031q0.469 0.906 1.656 0.906 0.547 0 0.719-0.172zM37.484 16.094q-0.797-1.188-1.391-1.188-0.516 0-0.828 0.75 0.047 0.109 0.734 0.43t0.859 0.32q0.281 0 0.625-0.313z"></path>
</svg>
