<!-- Generated by IcoMoon.io -->
<svg version="1.1" xmlns="http://www.w3.org/2000/svg" width="76" height="32" viewBox="0 0 76 32">
<title>surah24</title>
<path d="M76.031 3.609q0 0.625-0.516 0.625-0.125 0-0.656-0.281-0.234 0.219-0.234 0.391l1.109 13.672q0.078 0.953-0.359 3.094-0.453 2.016-1.094 2.641-0.094-0.094-0.313-0.344 0-0.594 0.125-1.969l0.125-1.438-0.969-12.516v-4.984q0-0.188-0.211-0.805t-0.211-0.867q0-0.516 1.016-1.875h0.484zM61.641 1.391q0 0.25-0.5 0.75-0.375-0.125-0.984-0.547h-0.375q-0.406 1.375-1.375 4.156-0.422 0-0.859-0.906-0.297-0.672-0.594-1.313-0.359-0.703-0.984-0.906-0.297-0.094-0.828-0.25-0.594-0.266-0.594-0.781 0-0.266 0.305-0.82t0.523-0.555q0.75 0 1.688 1.125 0.359 0.422 1.172 1.5 0.125-0.141 0.797-1.766 0.563-1.422 1.203-1.422 0.734 0 1.406 1.734zM59.547 14.891q0 0.531-0.727 1.578t-1.227 1.047q-0.594 0-0.953-0.984-0.281-0.766-0.281-1.5 0-1.063 0.531-2.602t1.203-2.242q0.219 0.188 0.219 0.422 0 0.266-0.422 1.461t-0.422 1.508q0 0.594 0.297 1.328 0.109 0.156 0.344 0.391h0.344q0.234-0.516 0.891-0.828 0.203 0.203 0.203 0.422zM69.656 23.109q0 0.891-1.234 2.016-1 0.922-2.016 1.375h-0.484q0.438-0.922 2.359-2.438v-0.516q-0.375-0.141-0.984-0.391 0.094-0.313 0.563-0.836t0.734-0.523q0.453 0 0.797 0.594 0.266 0.453 0.266 0.719zM46.125 2.844q0 1.109-0.641 1.734l-1.5 0.391q-0.609 0.172-0.992 0.281t-0.523 0.156-0.031 0.047q-1.313 0-1.313-1.984 0-0.578 0.594-1.453 0.391 0.094 0.391 0.609-0.016 0.844 0 0.891 0.109 0.391 0.625 0.563 0.734-0.313 0.734-0.828 0-0.172-0.086-0.492t-0.086-0.492q0-0.453 0.375-0.797 0.563 0.047 0.563 0.969 0 0.734 0.563 0.953 0.422-0.141 0.422-0.672 0-0.141-0.039-0.461t-0.039-0.461q0-0.625 0.516-0.891 0.469 1.813 0.469 1.938zM44.719 9.078q0 0.313-0.367 0.977t-0.664 0.664q-0.094 0-1.844-1.25 0-2.188 1.156-2.188 0.422 0 1.070 0.688t0.648 1.109zM40.141 3.641q-0.297 0.313-0.469 0.313 0.156 0-0.688-0.422-0.688 0.75-2.016 2.031-0.938 0.563-2.813 1.813h-0.516q1.563-1.469 4.281-4.328-0.063-0.156-0.797-0.781-0.578-0.531-0.578-1.016 0-0.609 0.547-1.422 0.641-1.016 1.469-1.016 0.891 0 0.922 1.328 0 0.594 0.016 1.766 0.031 0.109 0.336 0.461t0.305 0.508v0.766zM32.391 2.141q0 0.438-0.445 1.055t-0.852 0.617q-0.359 0-0.703-0.547t-0.344-0.906q0-0.219 0.5-1.406 0.516-1.297 0.906-1.547 0.078 0.25-0.094 0.766-0.203 0.609-0.203 0.781v0.953q0.109 0.109 0.281 0.109 0.188 0 0.406-0.172 0.328-0.25 0.375-0.25 0.172 0.203 0.172 0.547zM69.234 3.906l-0.344 0.328q-0.484-0.203-0.828-0.547-0.219 0.141-0.219 1.234l0.984 10.734q0 3.172-1.578 4.172-1.906 1.219-6.156 2.172-3.969 0.906-6.547 0.906h-1.422q-4.063 0-7.656-2.109-0.844-0.5-1.438-1.609-0.047-0.063-0.906-1.969-1.109 0.469-2.813 1.781-0.094 0.875-0.766 2.5-1.297 1.656-3.57 3.133t-4.32 1.961q-0.766 0.203-1.953 0.203-4.078 0-4.078-4.031 0.094-0.422 0.703-3.078-0.094-0.094-0.281-0.094-0.172 0-1.453 0.656-1.5 0.797-2.203 1.078-3.125 1.406-4.844 1.703-1.75 0.078-5.141 0.453-0.672 0-1.578-0.188 0-0.344 0.438-0.609 2.656-0.719 5.844-1.469 1.5-0.375 6.516-2.719 6.422-3 6.422-4.578 0-0.188-1.172-2.953l-1.188-2.797q0-0.297 0.164-0.961t0.164-1.008q0.016 0 0.188-0.086t0.328-0.086q0.344 0 1.273 1.094t0.93 1.391q0 0.094-0.688 0.781 0.203 0.422 0.938 2.266 0.297 0.719 0.297 1.578 0 1.469-0.734 2.797-1.031 0.922-2.813 2.938-0.875 1.25-0.875 2.859 0 2.703 3.313 2.703 1.922 0 4.969-1.531 3.313-1.625 3.781-3.219-0.328-0.375-0.766-0.375-0.281 0-0.805 0.078t-0.805 0.078q-2.906 0-2.906-1.906 0-2.109 1.563-3.438 0.875-0.766 1.422-0.766 1.063 0 2.227 1.664t1.242 1.664q0.5 0 2.063-0.984 1.75-1.109 2.094-1.234 0.328 1.125 0.766 2.656 0.984 1.5 3.844 2.531 2.484 0.922 4.5 0.922h2.438q1.953 0 6.109-0.813 5.656-1.109 5.531-2.594l-1.375-16.344q-0.078-0.766 0.891-2.016 0.422 0.219 1.469 2.688 0.813 1.813 0.813 1.938v0.469zM45 22.813q0.141 1.156-0.938 2.406-0.984 1.156-2.188 1.578-0.172-0.031-0.172-0.375t2.063-2.078v-0.375q-0.219-0.219-0.344-0.219-0.281 0-0.547 0.266-0.219-0.188-0.219-0.469 0-0.422 0.422-0.875t0.828-0.453q0.469 0 1.094 0.594zM25.344 11.266q-0.172 0.047-0.359 0.047-0.391 0-0.938-0.172-0.313 0.422-0.414 1.961t-0.57 2.195q-0.547-0.906-1.969-2.609-0.172-0.063-0.844-0.281-0.438-0.125-0.438-0.844 0-1.109 0.844-1.109 0.563 0 1.047 0.625 0.688 0.828 1.063 1.031 0.172-0.5 0.547-1.531 0.438-1.234 0.859-1.234 0.266 0 0.719 0.383t0.453 0.633v0.906zM24.25 23.328q0 0.641-0.719 1.063-4.438 2.531-5.047 2.531h-0.594v-0.469q0-1.094 6.156-3.547 0.203 0.203 0.203 0.422zM38.5 1.172v-0.516q-0.156-0.141-0.672-0.141 0.203 0.656 0.672 0.656zM37.516 17.219q-0.031-0.469-0.461-0.844t-0.898-0.375q-0.375 0-0.688 0.313v0.469q0.438 0.438 0.609 0.438h1.438z"></path>
</svg>
