<!-- Generated by IcoMoon.io -->
<svg version="1.1" xmlns="http://www.w3.org/2000/svg" width="84" height="32" viewBox="0 0 84 32">
<title>surah25</title>
<path d="M83.266 20.844q0 0.563-0.5 1.547-0.484 1.063-0.938 1.281l-0.234-7.672-1.656-14.875q0-0.656 1.016-2.359 0.578 0.438 2.109 4.063v0.875q-0.094 0.078-0.297 0.078-0.297 0-0.813-0.172-0.078 0.156-0.078 0.844l1.391 12.641v3.75zM68.594 6.031q0 0.281-0.383 0.867t-0.648 0.586q-0.375 0-1.141-0.594t-0.766-0.938q0-0.469 0.406-0.984t0.859-0.516q0.609 0 1.172 0.703 0.5 0.594 0.5 0.875zM67.75 2.156q0 0.156-0.070 0.352t-0.070 0.242q-0.391-0.031-1.141 0.203-0.828 0.906-3.313 3.188-0.578 0.531-1.797 1.438-0.531 0.219-1.563 0.859-0.297 0-0.516-0.172 0.5-0.969 2.766-2.656 2.438-1.828 3.219-3.063-0.094-0.281-0.734-0.734-0.516-0.359-0.516-0.906 0-0.563 0.813-1.633t1.328-1.070q0.766 0 0.781 1.297v1.531q0.047 0.094 0.469 0.594 0.344 0.391 0.344 0.531zM60.125 2.313q0 0.953-0.828 1.742t-1.781 0.789q-1.109 0-1.109-1.578 0-0.563 0.375-1.547 0.516-1.313 1.125-1.313 0.766 0 1.492 0.57t0.727 1.336zM79.375 22.094q0 2.125-3.641 4.203h-0.641q0.141-0.25 2.906-3v-0.484q-0.125-0.125-0.641-0.125h-0.75v-0.594q0-0.359 0.672-0.703 0.594-0.328 0.984-0.328 1.109 0 1.109 1.031zM62.609 12.938q0 0.5-0.484 1.188t-0.938 0.688q-1.063 0-1.063-1.578 0-0.906 0.391-1.719l0.906-1.531h0.5q-0.047 0.281-0.375 1.266-0.313 0.859-0.313 1.078 0 0.313 0.359 0.688 0.297-0.125 0.844-0.422 0.172 0.047 0.172 0.344zM53.891 5.75q0 0.375-0.438 0.977t-0.813 0.602q-0.125 0-0.836-0.555t-0.867-0.555q-0.172 0-0.672 0.492t-0.656 0.492q-0.344 0-1.070-0.641t-0.727-0.938q0-0.359 0.43-0.914t0.758-0.555q0.359 0 1.641 0.953 1.438-1.047 1.453-1.109 0.297 0 1.047 0.742t0.75 1.008zM76.891 15.156q-0.281 3.219-1.141 4.531-1.078 1.641-3.641 1.641-1.234 0-2.266-0.703-0.688-0.5-1.359-1.359-0.563-0.719-0.609-0.719-0.375 0-2.266 0.531-2.188 0.609-3.297 1.172-1.406 0.734-3.25 2.594-0.953 1-2.953 2.984-0.938 0.891-1.719 0.891-0.844 0-1.961-0.578t-1.539-1.25q-0.484-0.844-0.438-2.031 0.047-0.688 0.141-2.094-0.813 0.156-2.531 0.797-1.375 0.484-1.625 0.531t-1.656 0.125l-1.547 0.078q-0.469 0-1.375-0.133t-1.391-0.133-1.891-0.375q-3-0.813-3.688-4.969-0.125-2.313-0.422-6.922-0.266-3.203-0.828-6.078-0.047-0.219-0.375-1.25-0.266-0.844-0.266-1.047 0-0.656 0.875-1.797h0.469q1.75 4.063 1.922 14.313 0.078 3.438 1.797 4.813 1.547 1.234 5.047 1.234h1.703q2.063 0 5.984-1.406 3.734-1.297 4.922-2.281v-0.547q-0.516-0.484-1.406-0.484-0.297 0-0.898 0.070t-0.898 0.070q-2.359 0-2.359-1.875 0-1.031 0.734-2.453 0.906-1.766 2.125-1.766 1.469 0 2.797 2.375 1.141 2.078 1.141 3.5v1.156q-0.125 0.594-0.922 1.656-0.234 0.359-1.961 1.148t-2.195 1.469-0.469 1.977q0 2.359 1.609 2.359 1.688 0 4-2.609 2.656-2.969 4.109-3.641 0.516-0.234 1.828-0.828 0.375-0.219 0.984-0.469 3.172-0.672 3.328-1.375-0.281-0.719-0.281-1.969 0-1.516 0.453-2.766 0.609-1.719 1.813-1.719 1.016 0 1.906 1.594 0.75 1.328 0.75 2.094 0 1.844-0.641 2.938-0.094 0.188-0.688 0.859-0.484 0.516-0.484 0.703 0 1.234 2.359 1.234 1.016 0 1.891-0.344 1.156-0.469 1.156-1.328t-0.484-3.766q-0.328-2-0.641-5.484-0.375-3.891-0.594-5.469-0.016-0.219-0.25-0.813t-0.234-0.781q0-0.281 0.703-2.078h0.641q0.766 1.406 2.094 4.219v0.438q-0.141 0.094-0.344 0.094-0.297 0-0.719-0.188-0.313 0-0.313 0.469zM67.484 22.484q0 1.359-2.828 4.203h-0.5q0-0.016-0.070-0.117t-0.070-0.273q0.313-0.313 2.203-2.578v-0.359q-0.219-0.234-0.344-0.234-0.141 0-0.5 0.141t-0.484 0.141q-0.016-0.031-0.047-0.047-0.141-0.125-0.141-0.375 0-0.469 0.688-1t1.188-0.531q0.906 0 0.906 1.031zM53.469-0.297q-0.813 0.766-1.266 0.953-2.297 0.891-6.875 2.734-6.234 2.609-6.234 3.813 0 0.125 0.273 0.516t0.273 0.594q0 0.156-0.070 0.359t-0.070 0.313q-0.031 0-0.164 0.086t-0.305 0.086q-0.453 0-0.891-0.672-0.422-0.594-0.422-1.078 0-0.641 0.719-1.609 0.469-0.656 1.109-1.031 0.875-0.594 3.313-1.797 6.953-2.922 10.156-4.063 0.172 0 0.305 0.078t0.148 0.078v0.641zM41.172 1.734q0 0.469-0.57 1.102t-1.039 0.633q-0.734 0-0.875-1.734 0-0.688 0.578-1.938 0.641-0.313 0.625-0.313 0.016 0.313 0.016 1.938 0.125 0.078 0.375 0.078 0.266 0 0.688-0.109 0.203 0.031 0.203 0.344zM45.188 14.688q0 0.547-0.453 1.422-0.531 1.063-1.234 1.063-0.688 0-1.156-1.156-0.344-0.891-0.344-1.406 0-0.875 0.469-2.328 0.547-1.656 1.156-2.016 0.078 0.563-0.141 1.516-0.25 1.094-0.25 1.531 0 0.656 0.672 1.797 0.188-0.078 0.531-0.438t0.547-0.406q0.203 0.203 0.203 0.422zM29.813 2.5q0 0.516-0.539 1.156t-1.055 0.641q-1.188 0-1.188-1.453 0-1.625 1.016-3.078 0.125-0.063 0.734-0.313 0.203 0.031 0.203 0.344 0 0.172-0.422 1t-0.422 1q0 0.141 0.063 0.375t0.063 0.359q0.031 0 0.125 0.047t0.25 0.047q0.266 0 0.516-0.547h0.484q0.172 0.188 0.172 0.422zM47.672 23.875q0 0.828-0.68 1.773t-1.445 1.336l-0.641-0.172q0.453-0.609 1.531-1.969-0.344-0.531-0.766-0.484h-0.203v-0.781q0.813-0.859 1.313-0.859 0.891 0 0.891 1.156zM23.438 1.391q0 0.625-0.75 0.844-0.297 0-0.875-0.563-0.234 0-0.406 0.219-0.172 2.219-1.188 4.063-0.344-0.219-0.922-1.563t-1.078-1.719q-0.359-0.016-1.102-0.25t-0.742-1.031q0-0.359 0.313-0.867t0.656-0.508q0.828 0 1.594 1.031l1.266 1.734q0.281-0.844 0.688-1.875 0.484-1.328 1.109-1.328 0.406 0 0.953 0.891 0.484 0.734 0.484 0.922zM35.484 22.344q-0.328 1.156-0.859 1.422-0.625 0.281-3.625 1.891-2.188 1.188-2.391 1.188h-1q0-0.031-0.078-0.125t-0.078-0.266q0-0.688 3.359-2.359 1.391-0.688 4.203-2.063 0.172 0.063 0.469 0.313zM31.344 17.734q0 0.297-0.266 0.625 0.313 2.063-4.797 4.719-4.609 2.406-6.797 2.406h-1.234q-1.297 0-3.203-0.875-2.531-1.188-2.531-4.656 0-1.516 0.984-4.125 0.344-0.875 0.391-0.938 0-0.172-0.391-0.938-0.297-1.156-0.297-2.313 0-1.328 0.938-3.844 1.063-2.828 2.188-3.5l0.203 0.641q-0.422 0.891-1.234 2.719-0.563 1.344-0.563 2.719 0 2.375 0.875 2.375 0.453 0 1-0.875l0.516-0.922h0.484q0.172 0.016 0.172 0.344 0 0.406-0.656 1.75-0.578 1.203-0.813 1.469-0.375 0.25-1.336 0.914t-0.961 3.055q0 4.5 5.547 4.5-0.203 0 1.031-0.219 0.531 0 1.641-0.219 2.688-0.984 4.344-1.797 3.188-1.563 3.391-2.594l-1.953-5.406q0.063-0.594 0.453-1.797h0.609q1.844 2.281 1.844 2.438 0 0.109-0.281 0.484t-0.281 0.547q0 0.266 0.492 1.633t0.492 1.68zM23.438 16.266q0 0.375-0.414 0.922t-0.758 0.547q-0.328 0-1.102-0.492t-0.773-0.758q0.688-1.797 1.188-1.797 0.391 0 1.125 0.617t0.734 0.961zM70.656 14.344q0-0.547-0.625-1.344t-1.125-0.797q-0.766 0-0.766 0.953 0 0.891 0.891 2.609 0.422-0.063 1.023-0.555t0.602-0.867zM58.719 3.047v-0.516q-0.141-0.078-0.891-0.453-0.313 0.359-0.313 0.547 0 0.344 0.469 0.719 0.594-0.297 0.734-0.297zM53.75 12.516q-0.25-0.219-0.516-0.438-0.406-0.313-0.594-0.313 0.094 0-0.813 0.469 0 0.094 0.070 0.305t0.070 0.305q0.297 0.172 0.891 0.172 0.516-0.094 0.891-0.5z"></path>
</svg>
