<!-- Generated by IcoMoon.io -->
<svg version="1.1" xmlns="http://www.w3.org/2000/svg" width="66" height="32" viewBox="0 0 66 32">
<title>surah26</title>
<path d="M66.234 20.063q0 0.391-0.313 1.469t-0.531 1.25h-0.266q-0.125-3.953-0.734-8.734l-1.75-12.844q0-0.813 0.766-2.047 1.516 2.125 2.109 3.375v0.609q-0.438 0-1.016-0.266-0.188 0.219-0.188 0.609zM52.391 3.016q0 1.797-1.516 1.797-0.156 0-0.438-0.063t-0.406-0.063q-0.141 0-0.711 0.336t-0.742 0.336q-1.031 0-1.031-1.578 0-0.594 0.484-1.594 0 0.125 0.031 0.383t0.031 0.383q0 0.234 0.258 0.633t0.492 0.398q0.578 0 0.875-0.641 0.109-0.297-0.063-1.063-0.094-0.391 0.297-0.781 0.203 0.172 0.359 0.875t0.625 1.063h0.625q0.047-1.531 0.188-2.219 0.641 0.516 0.641 1.797zM49.609 8.75q0 0.297-0.438 0.742t-0.734 0.445q-0.594 0-1.734-1.578 0.25-0.359 0.625-1.078 0.172-0.375 0.484-0.375 0.453 0 1.125 0.727t0.672 1.117zM45.875 4.234q-0.375 0-1.141 0.094-0.641 0.719-1.906 1.969-0.922 0.516-2.672 1.672h-0.516q4.438-4.031 4.438-4.484 0-0.016-0.484-0.648t-0.484-1.117q0-0.438 0.453-1.281 0.563-1.016 1.203-1.016 0.813 0 0.781 1.453-0.016 0.344-0.094 1.625 0.156 0.594 0.422 1.734zM52.125 11.344q0 0.391-0.391 0.883t-0.797 0.492q-0.141 0-0.852-0.492t-0.883-0.492q-0.125 0-0.68 0.625t-0.711 0.625q-0.406 0-1.039-0.609t-0.633-0.953q0-0.422 0.336-0.883t0.695-0.461q0.172 0 0.891 0.406t0.859 0.406q0.172 0 0.742-0.547t0.711-0.547q0.344 0 1.047 0.609t0.703 0.938zM61.953 21.969q0 0.875-1.281 2.031-1.188 1.047-2.125 1.266 0.813-0.781 2.438-2.406-0.078-0.375-0.469-0.438-0.609-0.156-0.641-0.172-0.016-0.391 0.367-0.742t0.789-0.352q0.922 0 0.922 0.813zM43.063 12.156q0 0.422-0.266 1.031-0.375 0.766-0.859 0.766-0.344 0-0.617-0.539t-0.273-0.898q0-0.688 1.594-3.125-0.047 0.281-0.336 1.18t-0.289 1.117q0 0.516 0.359 0.906 0.266 0 0.688-0.438zM37.969-0.469l-13.219 7.375q-0.188-0.219-0.188-0.438 0-0.766 3.344-2.656 3.547-1.969 9.453-4.797h0.609v0.516zM37.016 9.125q0 0.391-0.508 1.078t-0.883 0.688q-0.953 0-0.953-1.375 0-0.516 0.406-1.352t0.797-1.102q-0.359 1.156-0.359 1.578-0.031 0.188 0.469 0.75 0.281-0.297 0.859-0.703 0.172 0.219 0.172 0.438zM41.313 2.547q0 0.281-2.188 1.391-2.969 1.453-8.938 4.375-1.422 0.938-4.922 3v-0.469q0-1.984 15.172-8.656h0.703q0.172 0.016 0.172 0.359zM27.453 1.734q0 0.281-0.375 0.648t-0.656 0.367q-0.766 0-0.766-1.031 0-0.469 0.297-1.219t0.672-0.906q-0.266 0.5-0.266 1.016 0 0.766 0.406 0.766l0.688-0.156v0.516zM59.578 16.313q0 4.703-3.25 4.703-1.391 0-2.5-1.531l-1.109 1.328q-0.625 0.625-1.438 0.625-0.75 0-2.016-1.234-2.094 1.656-3.469 1.656-0.734 0-1.031-0.234t-1.203-1.422q-0.125 0.047-2.219 1.188-1.328 0.734-2.313 0.734h-0.969q-1.594 0-3.219-1.281l-1.188-1.188q-0.875-0.859-1.344-0.859-0.203 0-1.828 0.672-0.656 0.219-2.359 0.906-2.781 1.234-3.844 2.484-3.266 3.828-5 3.828-1.328 0-2.188-1.055t-0.859-2.398q0-1.672 1.195-3.727t2.648-2.93q0.188 0.031 0.188 0.344 0-1.625-1.594 1.813t-1.594 4.5q0 1.938 1.891 1.938 1.188 0 2.813-1.688 0.828-0.938 2.547-2.813 0.5-0.547 1.234-0.984l4.828-2.359v-0.375q-1.188-0.906-1.828-0.906-0.484 0-1.031 0.266-0.219-0.203-0.219-0.547 0-1.094 0.641-1.469 1.359-0.797 2.188-0.969 2.656-0.609 2.938-0.609 0.828 0 2.875 0.469 2.578 0.609 2.578 1.297 0 1.406-1.516 2.203-0.625 0.297-1.828 0.938-0.25 0.109-0.25 0.359 0 0.5 1.156 1.188 0.984 0.594 1.563 0.703 0.188 0.031 1.172 0.031 2.438 0 5.438-2.344h0.469q-0.188 2.203 1.859 2.203 1.25 0 2.156-0.969 1.328-1.375 1.609-1.5 0.344 2.063 1.328 2.063 0.906 0 1.563-1.094 0.797-1.313 1.313-1.531 0.094 0.438 0.344 1.281 0.391 0.938 1.766 0.938 1.875 0 1.875-1.266 0-0.188-0.078-0.391l-2.063-16.141q0.266-1.234 0.734-1.875 1.438 0.828 2.297 3.844-0.328 0.313-0.469 0.313-0.125 0-0.672-0.297-0.094 0.203-0.094 0.984zM50.5 22.984q-0.25 0.906-0.781 1.188-1.141 0.578-1.75 0.578-0.156 0-0.422-0.055t-0.422-0.055q-0.172 0-1.641 0.719-1.656 0.844-2.297 1.031l-1.172-0.188q1.344-0.438 2.656-1.203l1.172-0.891q1.063-0.734 1.625-0.734 0.125 0 0.344 0.078t0.344 0.078q0.875 0 2.344-0.547zM23.172 15.766q0 0.938-0.359 2.391-0.391 1.719-0.922 2.016 0.172-3.438-0.141-6.266-0.266-2.484-1.063-8.031l-0.688-5.063q0-0.984 0.734-2.094 0.984 1.547 1.266 2.031 0.703 1.313 0.875 2.25-0.141 0.078-0.344 0.078-0.297 0-0.656-0.203-0.219 0.219-0.219 0.344zM17.219 1.172l-0.078 0.078q-0.063 0.125-0.344 0.125-0.141 0-0.484-0.227t-0.469-0.227q-0.547 0-0.859 1.75l-0.391 2.391q-0.172 0.172-0.422 0.172-0.297 0-1.141-1.422-0.344-0.563-1.594-0.969-0.594-0.359-0.594-0.859 0-0.359 0.32-0.766t0.664-0.406q0.906 0 2.172 2.078 0.609-0.313 0.984-1.984 0.297-1.484 1.047-1.484 0.281 0 0.734 0.313t0.453 0.578v0.859zM17.469 8.016q-0.25 1.656-0.938 1.656-0.422 0-0.719-0.594-0.234-0.5-0.234-0.938 0-1.719 1.172-3.172 0.203 0.016 0.203 0.344 0 0.219-0.359 1.031t-0.359 1.031q0 0.906 0.641 0.906 0.328 0 0.594-0.266zM36.625 24.406q-0.375 0.719-0.891 0.984-2.906 1.578-3.719 1.578h-0.859q-1.75 0-1.75-1.031 0-0.156 0.344-0.789t0.344-0.805q0-0.109-0.281-0.563t-0.281-0.625q0-0.563 0.531-1.141t1.094-0.578q0.125 0 0.734 0.313v0.469q-0.297 0.297-1.109 0.563 0 0.297 0.5 0.297 0.188 0 0.742-0.18t0.82-0.18q-0.219 0.297-1.422 1.391-0.906 0.844-0.906 1.063 0 0.594 1.109 0.563 1.859-0.078 4.625-1.547 0.125 0.047 0.375 0.219zM18.75 14.938q0 0.313-0.297 0.844t-0.594 0.625q-0.781 0.25-2.359 0.813-2.188 0.859-3.328 2-0.094-0.031-0.344-0.203 0.422-0.828 0.422-1.172 0-0.469-0.594-1.016-0.297-0.266-0.891-0.828-0.188-0.719-0.188-0.516 0-0.75 1.539-2.445t2.273-1.695q1.188 0 1.188 1.234 0 0.75-0.75 1.516-0.125-0.016-0.656-0.313-0.453-0.219-0.625-0.219-0.781 0-1.031 0.734 0.813 1.188 1.875 1.188 0.344 0 1.805-0.5t1.82-0.5h0.563q0.172 0.203 0.172 0.453zM15.281 21.359q0 0.438-1.859 1.656-1.594 1.031-2.625 1.453h-0.469v-0.5q0.813-0.859 4.781-2.953 0.172 0.031 0.172 0.344zM44.891 1.766v-0.641q-0.156-0.094-0.469-0.313l-0.344 0.391q0 0.25 0.313 0.563h0.5zM34.938 15.484q-0.875-0.547-1.719-0.547-0.813 0-1.188 0.172 0.453 1.063 1.344 1.063 0.188 0 1.563-0.688z"></path>
</svg>
