<!-- Generated by IcoMoon.io -->
<svg version="1.1" xmlns="http://www.w3.org/2000/svg" width="72" height="32" viewBox="0 0 72 32">
<title>surah27</title>
<path d="M71.578 18.625q0.094 1.156-0.344 3.422-0.422 2.094-1 2.234v-3.641q0-0.141-0.156-2.141l-0.141-2.141-1.109-14.625q-0.109-1.25 0.906-2.063 0.266 0.641 1.125 2.484 0.719 1.531 0.719 1.719v0.891q-0.297-0.078-0.734-0.266-0.375 0.375-0.375 0.641zM58.172 7.359q0 0.563-0.406 1.391-0.469 1.016-1.125 1.016-0.156 0-0.422-0.133t-0.422-0.133q-0.141 0-0.672 0.406t-0.703 0.406q-1.109 0-1.109-2 0-1.578 0.641-1.719 0.281 0.344 0.281 0.688 0 0.125-0.063 0.367t-0.063 0.367q0 0.344 0.406 0.641 0.75-0.188 0.75-0.859 0-0.125-0.039-0.367t-0.039-0.367q0-0.672 0.563-1.031 0.422 0.531 0.422 1.453 0.031 0.484 0.672 0.609 0.219-0.203 0.219-0.563 0-0.203-0.102-0.594t-0.102-0.625q0-0.438 0.25-0.703 1.063 0.609 1.063 1.75zM57.891 13.703q0 0.266-0.453 0.875t-0.719 0.609q-0.406 0-1.141-0.656t-0.734-1.031q0-0.359 0.383-0.867t0.727-0.508q0.297 0 1.117 0.633t0.82 0.945zM59.547 0.578q0 0.797-3.078 2.047-0.984 0.375-3.469 1.375-0.844 0.344-7.188 3.5-0.516 0.172-1.406 0.516-3.969 2-11.969 6.188 0-0.031-0.070-0.18t-0.070-0.32q0-1.578 6.391-4.578 4.016-1.922 8.852-4.211t7.055-3.070q0.547-0.172 2.359-1.016 1.656-0.734 1.859-0.734h0.734v0.484zM42.516 1.641q0 0.938-1.328 1.969-1.156 0.906-2.172 1.156l-1.328-0.172q0.438-0.344 2.359-1.547-0.516-0.766-1.469-0.766-0.594 0-1.156 0.391-0.703 0.5-0.984 0.578v-0.453q0-0.469 1.547-1.938 0.344-0.375 1.078-0.375 0.563 0 1.875 0.391 1.406 0.422 1.578 0.766zM49.031 15.453q0 0.547-0.734 1.383t-1.203 0.836q-1.266 0-1.266-2.484 0-1.688 0.625-2.766l1.219-2.063q0.25-0.297 0.641-0.297 0.156 0.016 0.156 0.313 0 0.172-0.547 1.406-0.641 1.453-0.781 1.953-0.047 0.125-0.047 0.688 0 0.828 0.344 1.156 0.422-0.125 1.25-0.688 0.344 0.344 0.344 0.563zM56.781 23.891q0 0.547-0.945 1.711t-1.492 1.164h-0.875q0.688-0.719 1.938-2.234-0.047-0.047-0.594-0.125-0.391-0.063-0.391-0.234 0-0.406 0.508-0.82t0.867-0.414q0.984 0 0.984 0.953zM33.406 4.844q0 0.516-0.57 1.266t-1.055 0.75q-1.031 0-1.031-1.719 0-0.797 0.469-2.094 0.531-1.531 1.047-1.578v0.641q-0.047 0.125-0.359 0.547-0.031 0.266-0.18 0.867t-0.148 0.93q0 0.828 0.5 0.875 0.344-0.266 1.109-0.813 0.219 0.031 0.219 0.328zM42.922 14.344q0 0.813-0.859 1.648t-1.688 0.836q-0.469 0-0.797-0.719-0.25-0.531-0.25-0.813 0-0.438 0.422-1.469 0.547-1.313 1.109-1.313 0.641 0 1.352 0.609t0.711 1.219zM65.078 18.359q0 1.672-0.313 2.531-0.422 1.188-1.672 1.891-1.156 0.703-2.219 0.703-1.484 0-2.359-0.719-0.578-0.453-1.016-1.328-0.344-0.719-0.594-0.719-0.125 0-1.125 0.547-1.188 0.656-1.547 0.781-4.875 1.703-8.875 1.703h-2.281q-0.438 0-1.352-0.273t-1.352-0.273q-0.594 0-0.805 1.242t-0.93 1.242q-0.313 0-1.016-0.789t-0.875-1.195q-0.094-0.25-0.094-0.797 0-0.609 0.141-1.594 0.031-0.094 0.031-0.172 0-0.156-0.172-0.156t-0.688 0.516q-0.625 0.625-0.938 0.813-1.703 1.016-2.813 1.016h-1.109q-1.375 0-2.563-1.719-0.859-1.281-1.219-2.734-0.234 0-0.422 0.297-1.281 2.234-4.914 4.234t-6.258 2q-2.078 0-3.453-1.578-1.328-1.516-1.328-3.625 0-2.406 1.203-3.766 0.031-0.203 0.094-0.547 0.375-0.313 0.375-0.781-0.078-0.203-0.516-1.234-0.313-0.766-0.313-1.938 0-2.734 1.969-5.344 0.516 0 0.516 0.391 0 0.141-0.375 0.766-0.438 0.688-0.563 1-0.453 1.156-0.453 2.391 0 1.875 0.891 2.094 0.641-0.188 1.266-1.109 0.344 0.328 0.344 0.391 0 0.531-1.234 2.094l-1.359 1.75q-0.734 1.703-0.734 2.891 0 1.719 1.281 2.844 1.203 1.109 2.922 1.109 0.922 0 3.75-0.859 0.828-0.266 3.594-2.141 3.266-2.234 3.266-3.328v-3.172l-0.953-11.266q-0.156-1.609 0.766-2.5 0.344 0.344 0.406 0.766 0.359 2.25 0.922 8.172 0.172 3.469 0.688 9.109 0.516 3.125 3.641 3.125 1.281 0 3.422-1.586t1.844-1.586q0.297 0 0.594 0.563 0.094 0.25 0.313 0.688 2.141 2.344 5.672 2.344h1.922q2.484 0 8.094-1.406 1.063-0.266 3.031-1.578 0.484-0.344 0.906-0.344 0.078 0.109 0.25 0.344-0.031 0.172-0.031 0.375 0 2.344 2.859 2.344 1.281 0 2.453-0.813 0.031-0.156 0.031-0.766l-1.656-18.094q0-0.469 0.594-1.656 0.344 0 0.453 0.172 1.844 3.828 1.844 4.047v0.766q-0.453 0-1.016-0.281-0.094 0.203-0.094 1.047zM23.281 1.969q-0.141 0.141-0.141 0.578-0.297 0.031-0.688-0.047-0.469-0.063-0.641-0.063-0.453 0-0.594 0.563-0.078 0.344-0.219 1.031-0.328 1.328-0.813 2.141-0.203-0.078-0.641-1.078-0.469-1.141-0.688-1.391-0.344-0.406-1.328-0.734-0.75-0.25-0.75-0.953 0-0.969 0.813-0.969t1.453 0.813q0.047 0.078 1.141 1.531 0.125-0.125 0.781-1.5 0.516-1.109 0.984-1.109 0.156 0 1.328 1.188zM22.453 8.813q0 0.281-0.5 0.906l-1.625 0.359q-1.328 0.453-1.328 1.219 1.234 4.078 1.234 5.875 0 0.641-0.383 1.852t-0.758 1.664q0.109-1 0.18-1.602t0.094-0.828 0.023-0.055q0-1.719-0.75-3.969t-0.75-2.594q0 0.234 0.766-1.828 0.047-0.141 0.266-1.375 0.172-1.016 0.547-1.234 0.516-0.344 0.766-0.344 0.469 0 1.344 0.742t0.875 1.211zM27.422 23.375q-0.219 1.016-2.406 2.094-0.281 0.141-3.75 1.734l-0.344-0.344q0.266-0.734 1.719-1.469 0.625-0.297 2.344-1.125 0.734-0.5 2.109-1.203zM41.531 14.672l-0.891-0.469q-0.266 0.188-0.266 0.484 0 0.219 0.109 0.469l0.18 0.070t0.352 0.070q0.516 0 0.516-0.625z"></path>
</svg>
