<!-- Generated by IcoMoon.io -->
<svg version="1.1" xmlns="http://www.w3.org/2000/svg" width="77" height="32" viewBox="0 0 77 32">
<title>surah28</title>
<path d="M76.516 5.797q-0.172 0.172-0.391 0.172t-0.906-0.688q-0.281 0.219-0.203 1.391l0.688 9.891v3.219q0 0.094 0.031 0.125 0.016-0.047 0.078-0.078 0.047 0.031 0.047 0.125 0 3.594-1.375 4.141l-1.141-21.656q-0.047-1.281 0.906-2.266 0.375 0.484 1.313 2.438 0.953 2.031 0.953 2.453v0.734zM62.125 8.813q0 0.344-0.445 0.836t-0.789 0.492q-0.203 0-0.891-0.422t-0.828-0.422q-0.156 0-0.695 0.484t-0.711 0.484q-0.25 0-0.984-0.633t-0.734-0.883q0-0.359 0.539-0.875t0.836-0.516q0.172 0 0.813 0.414t0.781 0.414q0.156 0 0.695-0.414t0.711-0.414q0.375 0 1.039 0.555t0.664 0.898zM64.188 1.5q0 0.297-1.969 1.047-2.391 0.922-8.719 3.594-5.344 2.438-5.344 3.5 0 0.125 0.273 0.508t0.273 0.523q0 0.375-0.313 0.688h-0.594q-0.625-0.344-0.625-1.297 0-1.547 1.781-2.734 1-0.516 2.969-1.531 1.531-0.781 11.656-5.094h0.609v0.797zM53.953 1.219q-0.172 0.406-0.719 0.688-4.016 1.703-12.063 5.984h-0.484v-0.469q0-1.047 6.656-3.984 0.625-0.25 3.484-1.641 2.156-1.094 2.406-1.094h0.719v0.516zM39.844 3.813q-0.891 1.75-1.531 1.75-0.469 0-0.766-0.719-0.188-0.516-0.188-0.891 0-0.594 0.445-1.625t0.883-1.328h0.313q-0.688 1.781-0.688 2.344 0 0.438 0.25 0.688h0.5q0.063-0.156 0.266-0.422 0.344 0 0.516 0.203zM58.938 24.234q0 0.656-1.078 1.703-0.422 0.344-1.234 1.047 0.078-0.188 0.75-1.172 0.609-0.859 0.609-1.031 0-0.125-0.063-0.219t-0.063-0.203q-0.547 0.047-0.828-0.172 0.188-1.063 1.172-1.063 0.734 0 0.734 1.109zM44.547 12.969q0 0.344-0.531 0.836t-0.844 0.492q-0.422 0-0.719-0.641-0.266-0.516-0.266-0.984 0-1.625 1.328-3.109l0.219 0.5q-0.219 0.266-0.516 0.828-0.203 0.719-0.203 1.047 0 0.953 0.719 0.953 0.078-0.047 0.813-0.391v0.469zM69.484 4.516q-0.172 0.203-0.172 0.328-0.156 0-0.984-0.391l1 14.672q0.109 1.641-1.297 3.656-0.328 0.453-1.672 0.844-1.219 0.344-1.953 0.344h-0.422q-0.563 0-1.703-0.516t-1.516-0.938q-0.266-0.422-0.844-1.125-0.172-0.172-0.609-0.172 1.781 0-0.438 0.531-2.047 0.5-5.469 0.984-3.672 0.547-5.313 0.547-0.547 0-1.633-0.133t-1.617-0.133q-0.172 0-0.641 0.438-0.563 0.516-0.719 0.641 0.031-0.172 0.031-0.344 0-0.688-0.891-1.609-1.156-1.203-1.328-1.5-2.406 2.375-5.313 2.375-1.5 0-2.609-0.969-1.188-0.984-1.188-2.438 0.172-0.938 0.266-2.734-0.047-0.063-0.172-0.188-1.5-0.328-2.906-0.328h-0.359q-0.422 1.609-0.813 3.203-0.375 1.188-1.234 1.898t-3.344 1.898q-3.984 1.859-6.281 1.859-2.172 0-3.813-1.203-1.922-1.375-1.922-3.781 0-1.109 0.555-2.758t0.555-2.070q0-0.469-0.281-1.383t-0.281-1.352q0-1.547 1.172-4.484 1.266-3.203 2.422-3.719v0.625q0-0.125-1.063 1.813-0.422 0.75-1.063 3.031-0.219 0.766-0.219 1.422 0 2.219 1.031 2.219 0.203-0.141 1.438-1.078-0.297 0.953-0.578 1.719-0.172 0.469-0.938 1.016-0.828 0.594-1.078 0.953-0.563 0.844-0.563 2.391 0 4.438 4.969 4.438 1.234 0 1.609-0.063 0.531-0.188 1.641-0.391 1.078-0.125 3.719-1.547 3-1.625 3-2.813 0-0.344-0.75-2.461t-0.75-2.508q0-0.641 0.438-1.594 0.641 0.703 1.969 2.094 0.125-0.109 3.656-4.016 1.844-2.063 3.828-2.063 0.813 0 2.25 1.031 1.547 1.156 1.547 2.031 0 1.953-0.953 3.063-0.875 0.984-2.844 1.703-0.938 0.219-2.438 0.984-0.266 0.344-0.266 1.547 0 1.328 0.914 2.125t2.258 0.797q3.078 0 5.344-3.047 0.344 0.547 1.047 1.648t1.484 1.102q0.156 0 1.625-1.719 1.797-2.109 3.063-3.203 1.969-1.719 3.297-1.719 1.234 0 2.438 0.813 1.375 0.906 1.375 2.016 0 1.891-1.828 4.047 0.078 0.063 0.375 0.063 0.328 0 1.969-0.656 1.797-0.688 2.188-1.109 0.047-0.5-0.016-1.266-0.078-0.531-0.125-1.203-0.031-0.953 0.656-2.266 0.766-1.422 1.688-1.422 1.031 0 1.641 1.203 0.5 0.984 0.5 2.141 0 0.984-0.328 1.625-0.172 0.328-0.953 1.188-0.641 0.734-0.641 0.938 0 0.766 1.5 1.328 1.25 0.469 2.156 0.469 3.141 0 3.141-1.672l-1.109-11.547v-3.594q0-0.453-0.289-1.359t-0.289-1.359q0-0.688 0.891-2.203 1.594 2.156 2.172 4.344zM34.031 2.656q0 0.688-0.641 0.688-0.219 0-0.813-0.266-0.391 0.609-0.734 1.688-0.469 1.531-0.609 1.875h-0.5q-0.375-0.906-0.891-1.797-0.219-0.391-1.078-0.734-0.688-0.281-0.688-0.688 0-0.344 0.32-0.766t0.633-0.422q0.234 0 1.047 0.766l1.25 1.172 0.516-1.594q0.484-1.297 1.016-1.297 0.281 0 0.727 0.523t0.445 0.852zM23.375 2.438q0 0.406-0.188 0.594t-0.422 0.188q-0.297 0-0.984-0.719-0.5 0.281-0.641 1.828-0.203 1.969-0.453 2.453-0.438-0.047-0.875-0.828-0.344-0.672-0.703-1.328-0.406-0.625-1.172-0.969-0.641-0.297-0.641-0.813 0-1.031 0.813-1.031 0.594 0 1.234 0.844l1.047 1.375q0.125-0.469 0.375-1.484 0.375-0.484 0.953-1.547h0.641q1.016 0.906 1.016 1.438zM22.531 10.672q0 0.297-0.281 0.797-0.938 0.094-2.766 0.688 0.25 0.781 0.797 2.875 0.344 1.484 0.344 3.047 0 0.641-1.094 3.828 0.125-0.594 0.125-2.859 0-1.328-0.219-2.906-0.047-0.391-0.5-1.719-0.406-1.266-0.406-1.453 0-0.563 0.586-1.586t1.055-1.070l-0.188-0.172q-0.25 0.234-0.625 0.234v-0.734q0-0.25 0.492-0.641t0.773-0.391q0.641 0 1.328 1.016 0.578 0.828 0.578 1.047zM31.938 23.156q0 0.563-0.438 0.766-1.672 0.719-6 2.531-0.188-0.031-0.188-0.344 0-0.547 2.469-1.625l3.391-1.469zM62.125 17.453q0-0.641-0.047-0.766-0.109-0.344-0.531-0.922-0.453-0.656-0.734-0.656-1.031 0-1.031 1.172 0 0.531 0.297 1.234 0.313 0.859 0.766 0.922 0.422-0.359 1.281-0.984zM54.938 18.016q0-0.625-1.563-1.266-1.328-0.531-1.813-0.531-1.281 0-2.984 1.625-1.422 1.328-2.484 3.031l2.953 0.188q5.891-1.969 5.891-3.047zM38.469 11.688q-2.094-1.828-3.531-1.828-0.703 0-1.422 0.328-0.438 0.188-1.891 1.672-1.609 1.625-1.609 2.063 0 0.328 0.172 0.344 0.344 0 1.047 0.078t1.047 0.078q0.797 0 3.109-0.797 2.063-0.703 2.359-0.906 0.719-0.484 0.719-1.031z"></path>
</svg>
