<!-- Generated by IcoMoon.io -->
<svg version="1.1" xmlns="http://www.w3.org/2000/svg" width="82" height="32" viewBox="0 0 82 32">
<title>surah3</title>
<path d="M80.625-2.891q-0.313 0.75-1.219 1.141-1.188 0.469-1.266 0.563l2.078 4.969q0 0.734-0.547 0.734-0.141 0-0.344-0.070t-0.219-0.070l0.953 14.844q0.203 2.703-1.125 4.406h-0.641v-5.594l-1.547-16.906q0-0.219 0.703-2.313-0.563-0.25-1.109-0.25-0.469 0-0.734 0.563h-0.484q-0.156-0.172-0.156-0.484 0-0.469 0.453-1.023t0.922-0.555q0.25 0 0.727 0.133t0.711 0.133q1.281 0 2.063-0.563h0.609q0.031 0.109 0.172 0.344zM67.484 0.859q0 0.906-0.719 0.906-0.453 0-1.031-0.563-0.469 0.531-0.641 1.5-0.125 0.766-0.313 1.641-0.203 0.594-0.688 0.594-0.203 0-0.797-0.938l-0.828-1.297q-0.5-0.203-1.273-0.594t-0.773-1.109q0-1.172 1.109-1.172 0.953 0 2.438 1.938 0.313-0.375 0.891-1.766 0.359-0.875 1.094-0.875 0.375 0 0.953 0.672t0.578 1.063zM56.797 3.422q0 0.578-0.5 1.188t-1.063 0.609q-0.469 0-0.891-0.641t-0.422-1.156q0-1.281 1.547-3.844h0.516q-0.688 2.734-0.688 2.953 0 0.391 0.375 0.766 0.094 0 0.484-0.422h0.5q0.141 0.172 0.141 0.547zM68.297 18.453q0 0.375-0.563 0.977t-0.969 0.602q-1.375 0-1.375-1.797 0-1.547 1.703-3.594 0.078 0 0.258 0.070t0.227 0.070q-0.391 0.891-0.813 2.125v1.063q0.109 0 0.375 0.266 0.203-0.219 0.672-0.547h0.484v0.766zM75.781 23.281q0 0.781-3.078 2.328-0.594 0.297-2.109 1.063-0.5-0.344-0.5-0.547 0-0.781 2.359-2.031 0.875-0.438 2.547-1.281h0.609q0.172 0.172 0.172 0.469zM49.609 0.531q0.031 0.078 0.031 0.203 0 0.906-1.375 2.203t-2.313 1.297h-0.75q0.109-0.813 1.781-2.203-0.156-0.141-0.688-0.141-0.766 0-2.391 1.109-0.516 0.047-0.516-0.547 0-0.719 1.109-1.672 0.953-0.813 1.453-0.906 0.875-0.156 1.109-0.203 0.875 0 1.844 0.344 0.313 0.125 0.703 0.516zM74.141 17.078q0 2.484-0.922 3.766-1.172 1.672-4.477 3.266t-5.414 1.594q-2.469 0-4.094-1.391-1.719-1.469-1.719-3.906 0-0.766 0.844-3.75-0.125-0.172-0.625-0.016-4.188 1.172-5.828 1.172-0.422 0-0.563-0.141-0.125 0.172-0.297 0.359-0.047 0.625-0.375 1.656-0.438 1.453-0.984 1.453-0.484 0-1.398-0.828t-0.992-1.313q-0.063-0.734-0.406-2.016-0.234-0.031-0.469-0.031-2.516 0-5.328 2.656-1.672 1.703-5.063 5.078-0.281 0.266-1.227 0.57t-1.383 0.305q-1.547 0-2.469-1.422-0.703-1.125-0.703-2.578 0-1.328 0.813-3.109 0.906-1.969 2.141-2.969h0.641q0 0.016 0.070 0.117t0.070 0.289q0 0.172-0.609 1.156-0.844 1.391-1.016 1.703-0.734 1.375-0.734 2.75 0 2.266 1.406 2.266 1.516 0 4.719-3.828 1.672-1.969 2.516-2.734 1-0.891 3.313-1.969 1.188-0.219 3.031-0.766 0.203-0.047 0.563-0.492t0.578-0.445q0.094 0 0.906 0.594 0.859 0.656 1.063 0.766 1.297 0.563 2.875 0.563 2.297 0 2.703-0.594-1.25-1.844-1.25-3.203 0-0.734 0.617-1.891t1.227-1.578q1.313-0.891 2.734-0.891 0.938 0 2.125 0.453 1.438 0.516 1.734 1.281v0.469q-0.516 0.063-1.344-0.156-0.938-0.25-1.328-0.25-0.719 0-2.203 0.531-1.766 0.641-1.766 1.344 0 0.938 1.023 1.984t1.961 1.125l7.063-2.219q0.344 0.344 0.344 0.641 0 1.078-2.688 2.141-0.469 0.172-2.906 1.016-1.469 0.75-1.469 3.828 0 3.719 4.844 3.719 1.875 0 5.016-1.5 3.422-1.641 3.422-3.047l-1.797-17.609q0-0.297 0.469-1.289t0.719-1.195q0.422 0.328 1.281 2.211t0.859 2.445q0 0.766-0.563 0.766-0.156 0-0.273-0.078t-0.18-0.078q-0.109 0.75-0.063 2.031 0.141 2.375 0.688 6.859zM49.891 8q0 0.141-0.078 0.375l-0.086 0.258t-0.148 0.102-0.313 0.078q-0.109 0-0.953-0.406-0.391 0.406-0.68 1.719t-0.648 1.734h-0.672q-0.172-0.422-0.563-1.25-0.297-0.641-0.953-1.219-0.344-0.047-1.094-0.344-0.438-0.234-0.438-0.781 0-1.109 0.953-1.109 0.672 0 1.359 0.563 0.078 0.078 1.063 1.094 0.141-0.109 0.859-1.406 0.609-1.094 1.156-1.094 0.516 0 0.906 0.719 0.328 0.563 0.328 0.969zM55.844 22.047q0 0.859-3.203 2.516-1.406 0.703-4.719 2.375h-0.625q-0.172-0.172-0.172-0.547 0-0.75 0.594-1.047 3.344-1.625 7.484-3.766h0.469q0.172 0.156 0.172 0.469zM37.844 3.984q0 0.359-0.313 0.688h-0.422q-0.172 0-0.563-0.422-0.203 0.203-0.203 0.422l0.969 9.891q0 2.438-0.766 4.484-0.094 0.078-0.594 0.297l-1.813-18.063q0-0.328 0.344-1.141 0.406-1.016 0.875-1.016 0.594 0 2.297 4.063 0.188 0.469 0.188 0.797zM31.344 5.922q0 0.594-0.5 1.188t-1.094 0.594q-1.156 0-1.156-1.578 0-0.469 0.438-1.609 0.547-1.328 1.109-1.641 0.516 0 0.516 0.391 0 0.172-0.344 0.742t-0.344 0.711v0.969l0.219 0.234q0.359-0.234 0.969-0.563 0.188 0.203 0.188 0.563zM31.625 0.313q0 0.422-3.078 1.922-1.484 0.688-4.438 2.109-0.875 0.422-4.875 2.688h-0.734l-0.172-0.172v-0.938q1.234-0.828 4.484-2.734 7.109-3.641 8.125-3.641 0.359 0 0.688 0.328v0.438zM44.078 22.172q0 1.922-2.813 3.813h-0.609q-0.172-0.031-0.172-0.344 0-0.203 0.813-1.031l1.25-1.328v-0.375q-0.219-0.141-0.781-0.094-0.172-0.203-0.172-0.5 0-1.328 1.328-1.328 1.156 0 1.156 1.188zM29.266 15.672q0 1.422-0.469 2-2.422 2.781-7.875 4.672-0.891 0.328-2.594 0.328-2.234 0-4.031-1.313-2.047-1.453-2.047-3.813 0-1.078 0.477-2.563t0.477-1.875q0 0.328-0.516-1.422-0.047-0.156-0.047-1.203 0-0.969 0.813-3.297 0.859-2.563 1.5-2.672 0.469 0.469 0.469 0.766 0 0.172-0.484 1.438-0.578 1.391-0.719 1.922-0.031 0.109-0.031 0.734 0 1.203 0.75 1.641 0.484-0.531 1.547-1.375 0.313 0.344 0.313 0.563 0 0.453-0.688 1.656-0.563 1.031-0.766 1.203-0.406 0.25-1.156 0.984-0.563 0.938-0.563 2.125 0-0.547 0.5 1.563 0.266 1.094 1.922 1.906 1.391 0.688 2.438 0.688h0.813q1.219 0 3.609-1.031 1.203-0.5 2.766-1.391 2.203-1.25 2.203-1.813 0-0.25-1.164-2.813t-1.164-2.797q0-0.797 0.859-1.922 0.391-0.031 1.352 1.102t0.961 1.586q-0.078 0.141-0.563 0.703 1.109 2.656 1.109 3.719zM22.766 15.063q0 0.359-0.406 0.867t-0.781 0.508q-0.469 0-1.156-0.43t-0.688-0.883q0-0.313 0.516-0.953t0.859-0.641q0.219 0 0.859 0.453t0.719 0.656 0.078 0.422zM27.469 21.859q0.016 0.141 0.016 0.313 0 2.391-3.391 4.641-0.5 0.047-0.5-0.422 0-0.172 0.984-1.328 1.188-1.359 1.5-1.906-0.141-0.078-0.297-0.078-0.219 0-0.453 0.125-0.359-0.313-0.359-0.469 0-0.438 0.586-0.945t1.023-0.508q0.266 0 0.891 0.578z"></path>
</svg>
