<!-- Generated by IcoMoon.io -->
<svg version="1.1" xmlns="http://www.w3.org/2000/svg" width="59" height="32" viewBox="0 0 59 32">
<title>surah30</title>
<path d="M59.047 18.5q0 3.203-1.172 5.047-0.109-0.766-0.109-3.547 0-0.906-0.563-6.906-0.094-1.234-0.438-3.766l-0.344-2.469v-3.438q0-0.234-0.203-0.859t-0.203-0.875q0-0.469 0.344-1.289t0.719-0.914l1.969 4.75v0.484q-0.469 0-1.172-0.563-0.203 0.219-0.203 0.344zM46.594 4.234q0 0.75-0.391 0.75-0.203 0-0.719-0.297-0.594-0.344-0.734-0.391-0.719 1.234-2.094 2.25-0.375 0.266-2.609 1.625h-0.5q0.031-0.109 0.172-0.469 4.125-3.203 4.125-3.75 0-0.141-0.063-0.25-0.906-0.813-0.906-1.203 0-0.484 0.516-1.344 0.594-1.016 1.188-1.016 0.734 0 0.781 1.25 0.031 0.5 0.031 1.406 0.016 0.047 0.719 0.734 0.484 0.469 0.484 0.703zM47.828 9.688q0 0.719-0.328 1.328-0.391 0.766-1.031 0.766-0.141 0-0.367-0.070t-0.352-0.070q-0.141 0-0.68 0.414t-0.695 0.414q-0.609 0-0.906-0.859-0.094-0.359-0.328-1.125l0.172-1.484q0.297 0.156 0.656 1.016t0.625 1.063q0.719-0.281 0.719-0.75 0-0.188-0.188-0.68t-0.188-0.742q0-0.297 0.156-0.563h0.516q0.078 0.125 0.297 1.219 0.125 0.641 0.609 0.844 0.516-0.141 0.516-0.5 0-0.172-0.219-0.602t-0.219-0.57q0-0.469 0.5-0.984 0.734 1.109 0.734 1.938zM37.469 2.188q-0.203 0.172-0.5 0.172t-0.719-0.422q-0.234 0-0.406 0.25-0.547 1.938-0.641 3.5-0.547-0.75-2.563-2.438-0.344 0-1.094-0.234-0.313-0.141-0.313-0.734 0-0.344 0.281-0.75t0.609-0.406q0.406 0 2.625 2.219 0.328-0.984 1.203-2.906h0.578q0.266 0 0.602 0.367t0.336 0.648v0.734zM53.359 22.953l-0.313 0.297q-0.5-0.188-0.984-0.656-0.344 0.219-0.641 1.406-0.391 1.641-0.563 2.031-0.375-0.156-0.984-1.016-0.703-0.953-1.016-1.172-1.313-0.438-1.313-0.781 0-0.297 0.289-0.742t0.555-0.445q0.938 0 2.172 1.828 0.297-0.219 0.703-1.563 0.344-1.094 0.938-1.094 0.297 0 0.727 0.367t0.43 0.664v0.875zM52.406 3.391l-0.172 0.766q-0.594-0.25-0.766-0.547h-0.328q-0.094 0.453-0.094 1.016 0 0.813 0.203 1.797l0.734 7.375v1.5q-0.172 1.438-1.031 2.57t-2.188 1.477q-4.172 1.109-5.219 1.547-2.641 1.109-4.531 3.469-0.469 0.734-1.719 2.031-0.922 0.625-1.859 0.625-0.75 0-1.625-0.422-1.047-0.484-1.297-1.297-0.031-0.516-0.125-1.844-0.031-0.547-0.422-0.859-0.734 0.313-2.578 1.281-1.5 0.828-4.391 1.438-3.313 0.734-4.641 1.266l-1.016-0.156q0-0.297 0.297-0.469 1.75-0.484 4.922-1.953l5.313-2.422q1.016-0.438 5.031-2.969 4.766-3.031 4.766-3.766 0-1.109-1.453-1.109-0.297 0-0.898 0.133t-0.898 0.133q-0.234 0-1-0.266-0.891-0.344-0.969-0.625-0.313-1.203-0.313-1.594 0-0.938 0.883-2.203t1.742-1.266q1.484 0 2.781 2.609 1.109 2.141 1.109 3.203 0 0.859-0.469 2.141-0.516 1.391-1.156 1.813-1.922 1.281-5.578 4.047-0.281 0.266-0.281 1.266 0 2.344 1.734 2.344 1.109 0 2.578-1.469 0.047-0.063 2.094-2.516 0.984-1.156 2.641-2.172 1.078-0.656 3.172-1.25 1.109-0.25 3.297-0.805t2.188-1.883q-0.094-1.063-0.469-4.297-0.516-4.813-0.734-7.25-0.031-0.359-0.234-1.273t-0.203-1.227q0-0.688 0.734-2 0.094 0 0.344 0.078 1.203 2.094 2.094 3.984zM26.797 4.234q0 0.438-0.414 0.945t-0.836 0.508q-0.391 0-0.781-0.875-0.328-0.703-0.328-0.938 0-0.391 0.516-1.547t0.797-1.469q0.219 0.188 0.219 0.391 0 0.25-0.344 1.086t-0.344 1.055q0 0.484 0.484 0.906 0.297-0.219 0.844-0.531 0.188 0.188 0.188 0.469zM20.156 11.781q0 0.344-0.531 1.148t-0.844 0.805q-0.984 0-0.984-1.672 0-1.656 1.344-3.063l-0.641 2.359q0 0.469 0.469 0.969 0.328-0.344 1.016-0.969 0 0.031 0.086 0.133t0.086 0.289zM31.094 12.406q0 1.297-0.469 1.844-0.344 0.391-1.266 0.828-1.25 0.594-1.469 0.766-0.078 0.031-0.453 0.766-0.484-0.266-0.984-0.266-0.875 0-2.875 1.031-1.656 0.859-2.484 1.5-1.828 1.406-3.125 3.266-1.969 2.75-2.563 3.391-1.297 1.328-2.875 1.328-1.391 0-2.359-1.031t-0.969-2.422q0-1.703 0.773-3.672t0.773-2.063q0-0.203-0.492-1.273t-0.492-1.211q0-2.766 1.703-6.969 0.172-0.453 1.016-1.016 0.188 0.203 0.188 0.422 0 0.172-0.422 1.016-0.297 0.563-0.656 1.297-0.563 1.375-0.563 2.953 0 2.609 1.094 2.609 0.234 0 0.75-0.516 0.766-0.734 0.906-0.844v0.625q0 0.594-1.297 2.516-0.5 0.406-1.281 1.391-1.016 1.969-1.016 4.266 0 0.656 0.344 1.469 0.438 1.063 1.188 1.063 1.766 0 3.938-2.781 0.359-0.438 2.75-3.688 1.828-1.844 3.719-2.891 1.188-0.578 3.516-1.797-0.359-1.766-0.359-2.531 0-2.484 1.859-2.484 0.672 0 2.25 1.109 1.703 1.203 1.703 2zM27.344 19.125q0 0.484-0.344 0.906l-5.781 3.375h-0.641v-0.797q2.859-1.859 6.422-3.641 0.219 0.156 0.344 0.156zM44.656 2.5v-0.656q-0.297-0.297-0.531-0.297-0.406 0.422-0.438 0.516 0.438 0.438 0.969 0.438zM37.734 11.594q-0.672-1.328-1.313-1.328-0.266 0-0.875 0.578v0.469q0.656 0.469 1.281 0.469 0.578 0 0.906-0.188zM29 12.797q-1.453-1.141-2-1.141h-0.594q0 0.109-0.070 0.258t-0.070 0.258q0-0.172 0.734 1.484 0.141 0.078 0.5 0.078 1.266 0 1.5-0.938z"></path>
</svg>
