<!-- Generated by IcoMoon.io -->
<svg version="1.1" xmlns="http://www.w3.org/2000/svg" width="77" height="32" viewBox="0 0 77 32">
<title>surah31</title>
<path d="M71.797 2.625q0 0.516-0.172 0.844-0.172 0-0.5-0.141t-0.5-0.141q-0.281 0-0.453 0.25-0.172 0.906-2.438 2.094h-0.609q0.813-0.938 2.469-2.828-0.063-0.094-0.625-0.734-0.484-0.578-0.484-0.766 0-0.719 0.641-1.539t1.297-0.82q0.203 0 0.391 0.063 0.344 0.172 0.422 2.094 0.031 0.422 0.375 1.016 0.188 0.313 0.188 0.609zM65.422 3q0 0.656-0.664 1.531t-1.32 0.875q-0.453 0-0.82-0.516t-0.367-1.016q0-0.563 0.422-1.695t0.766-1.617q0.141 0.734 1.109 1.281 0.875 0.516 0.875 1.156zM68.625 8.813q0 0.344-0.414 0.898t-0.758 0.555q-0.156 0-0.93-0.422t-0.945-0.422q-0.156 0-0.695 0.477t-0.68 0.477q-0.328 0-0.953-0.414t-0.844-0.742q0.859-1.719 1.375-1.719 0.141 0 0.758 0.484t0.758 0.484q0.156 0 0.734-0.555t0.719-0.555q0.25 0 1.063 0.609t0.813 0.844zM55.609 10.484q0 0.406-0.594 0.813-0.5 0.344-0.672 0.344-0.813 0-1.094-1.797 0-1.031 1.031-3.453h0.484q-0.813 2.516-0.813 2.609 0 0.25 0.297 0.617t0.547 0.367q-0.281 0 0.813-0.422v0.922zM60.031 0.359q0 0.734-0.734 1.141-0.266 0.141-4.281 1.641-11.328 4.266-18.141 8.344-0.5 0.078-0.5-0.531 0-1.234 1.875-2.219 0.375-0.203 2.438-1.141 1.875-0.875 8.328-3.734 2.969-1.281 6.375-2.484 4.078-1.484 3.906-1.484h0.438q0.297 0.297 0.297 0.469zM76.375 17.391q0 2.594-1.172 4.047-0.688 0.859-2.469 1.328-1.453 0.359-1.766 0.359-1.063 0-2.93-1.164t-1.633-1.164q-0.188 0-0.703 0.266-0.625 0.328-0.719 0.375-6.938 2.531-12.625 2.531-2.609 0-4.156-0.313-0.844-0.203-3.016-0.641-0.047 0.016-0.484 1.25-0.375 1.078-0.906 1.078-1.875 0-2.078-3.781-0.016-0.125-0.141-0.375-0.813 0.859-2.352 1.539t-2.727 0.68q-2.609 0-3.594-3.328-0.391-1.359-0.609-4.484-0.25-3.656-0.375-7.031l-0.016-1.109q-0.047-1.063-0.297-2.656-0.031-0.328-0.344-1.328-0.297-0.922-0.297-1.234 0-1.109 0.734-2.063 0.5 0 1.016 1.984 0.734 5.906 0.734 8.297v3.625q0 2.328 0.516 4.109 0.891 3 2.953 3 0.672 0 1.961-0.422t1.664-0.828q0.656-0.891 2.141-2.766 2.844 3.984 5.266 4.063 0.188 0.078 0.563 0.203 0.469 0 1.43 0.156t1.445 0.156h2.078q2.156 0 6.047-0.859 3.625-0.781 5.422-1.531 0.359-0.172 0.734-0.609-0.094-0.375-0.094-1.25 0-5.031 2.359-5.031 1.031 0 1.766 1.438 0.594 1.156 0.594 2.094 0 1.297-0.484 2.266-0.109 0.188-1.453 1.203 0.734 1.453 2.906 1.453 2.828 0 3.828-1.484 0.031-0.188 0.031-0.813l-1.938-16.891q0-1.5 0.875-2.547 0.281 0 0.453 0.313l1.578 4.016v0.766q-0.156 0.063-0.328 0.063-0.297 0-0.688-0.172-0.219 0.234-0.219 0.625zM66.984 23.828q0 0.563-0.828 1.656t-1.375 1.094q-0.094 0-0.172-0.031 0.109-0.219 0.719-1.016 0.547-0.688 0.547-0.875 0-0.547-0.641-0.547-0.125 0-0.281 0.125l-0.344-0.344q0.547-1.172 1.328-1.172 1.047 0 1.047 1.109zM58.922 14.219q0 0.734-0.609 0.734 0.172 0-1.078-0.406-0.547 0.734-0.719 2.328-0.203 1.75-0.547 2.375-0.359-0.234-0.734-1.016-0.547-1.078-0.766-1.359-0.344-0.391-1.297-0.859-0.734-0.344-0.734-1.063 0-1.094 0.688-1.094 0.344 0 1.375 0.953 0.953 0.891 1.078 1.125 0.203 0 0.25-0.094 0.344-1.063 1.203-3.094h0.719q0.656 0 1.172 1.469zM43.719 1.125q0 0.688-0.563 0.688-0.172 0-0.766-0.297-0.563 0.688-0.797 2.016-0.234 1.609-0.563 2.156-0.219-0.078-0.836-1.273t-1.148-1.445q-0.531-0.047-1.391-0.359-0.313-0.234-0.313-0.875 0-1.031 0.984-1.031 0.609 0 1.328 0.844 1.063 1.234 1.203 1.375 0.125-0.203 0.328-0.516 0.609-2.391 1.5-2.391 0.359 0 0.695 0.367t0.336 0.742zM47.156 13.797q0 0.281-0.438 0.719t-0.719 0.438q-1.172 0-1.172-1.453 0-0.625 0.438-1.813 0.5-1.328 0.969-1.406 0-0.297-0.297 2.938l0.219 0.234q0.125 0 0.492-0.258t0.508-0.305v0.906zM27.094 3.563q0 0.266-0.492 0.711t-0.758 0.445q-0.469 0-0.813-0.594-0.297-0.438-0.297-0.656 0-0.5 0.461-1.422t0.82-1.219q-0.313 2.219-0.313 1.75 0.063 0.094 0.516 0.609 0.781-0.391 0.875-0.391v0.766zM29.594 5.625q0 0.641-4.047 2.734-4.922 2.563-5.688 3.125h-0.656v-0.594q0-0.563 4.203-2.719 1.922-1.266 5.844-3.031 0.344 0.313 0.344 0.484zM21.563 1.969q0 0.188-0.078 0.391l-0.094 0.219v0.047q-0.125 0.156-0.391 0.156-0.219 0-0.625-0.422-0.734 0.297-0.813 1.344v1.734q-0.047 0.594-0.266 0.938h-0.469q-0.25-0.469-0.742-1.367t-1.055-1.195q-0.516-0.109-1.375-0.375-0.469-0.266-0.469-0.859 0-1.328 0.844-1.328 0.344 0.297 2.797 2.094 0.172-0.469 0.516-1.375 0.516-1.266 1.031-1.266 0.453 0 0.844 0.594 0.344 0.469 0.344 0.672zM32.219 23.969q0 0.813-0.664 1.742t-1.43 1.273q-0.094-0.234 1.109-2.016v-0.359q-0.188-0.219-0.344-0.219-0.172 0-0.734 0.25v-0.594q0-0.297 0.539-0.664t0.695-0.367q0.828 0 0.828 0.953zM29.469 19.313q0 1.203-0.219 1.563-1.281 2.203-5.281 4.141-3.781 1.844-6.375 1.844-2.547 0-4.156-1.094-1.844-1.281-1.844-3.734 0-1.953 0.734-3.703 0.344-0.859 0.375-0.813 0-0.172-0.25-0.438t-0.266-0.344q-0.328-0.766-0.328-2.047 0-1.641 1.016-4.203 0.953-2.422 2.063-3.813 0.516 0 0.516 0.266 0 0.094-0.984 2.156-1.047 2.25-1.328 3.188-0.172 0.563-0.172 1.031 0 0.563 0.281 1.234 0.313 0.828 0.781 0.828 0.484 0 0.906-0.813 0.563-1.109 0.719-1.25 0.375 0.344 0.375 0.547 0 0.703-0.344 1.344-0.75 1.438-1.906 2.516-0.766 0.688-1.063 2.047-0.016 0.141-0.016 0.781 0 1.828 1.313 3.031t3.109 1.203h1.094q0.703 0 1.875-0.297 1.906-0.547 4.125-1.531 0.969-0.406 2.422-1.391 1.844-1.266 1.844-1.828 0-0.25-1.172-2.805t-1.172-2.805q0-0.172 0.258-0.828t0.305-0.828h0.5q1.594 1.609 1.969 2.297-0.125 0.188-0.859 0.188l-0.055 0.055t-0.055 0.242q0.063 0.172 0.344 0.719 0.922 1.656 0.922 3.344zM22.375 18.5q0 0.391-0.297 0.813-0.344 0.5-0.734 0.5-0.734 0-2-0.984-0.047-0.109 0.406-0.953t0.781-0.844q0.359 0 1.102 0.555t0.742 0.914zM70.375 0.984q0-0.375-0.141-0.578-0.156 0.156-0.234 0.375 0.156 0.141 0.375 0.203zM64.313 3.875v-0.516q-0.563-0.141-0.828-0.141t-0.266 0.125q0 0.25 0.313 0.531h0.781zM69.188 16.641q0-0.406-0.602-1.117t-0.992-0.711q-0.422 0-1.031 0.594-0.125 0.813 0.719 2.578h0.609q1.297-1 1.297-1.344z"></path>
</svg>
