<!-- Generated by IcoMoon.io -->
<svg version="1.1" xmlns="http://www.w3.org/2000/svg" width="89" height="32" viewBox="0 0 89 32">
<title>surah33</title>
<path d="M88.172 18.188q0 2.313-1.156 4.422h-0.531v-5.453l-1.375-14.891q0.125-0.359 0.844-2.203h0.516q1.672 4.219 1.672 4.344v0.609q-0.422 0.078-0.766-0.125-0.313 0.094-0.313 0.969zM66.828-5.813q0 0.359-2.078 1.641-1.891 1.188-2.719 1.453-0.188-0.188-0.188-0.406 0-0.594 0.844-1.188 2.953-2 3.25-2h0.594q0.297 0.328 0.297 0.5zM68.078-1.281q-0.203 0.703-0.953 0.984-0.516 0.125-1.047 0.234-0.563 0.344-1.688 0.938-0.031-0.344-0.109-1-0.641-0.688-0.641-1.063 0-0.594 0.813-1.477t1.406-0.883q0.813 0 0.813 0.906 0 0.734-1.234 0.953 0.469 0.234 0.672 0.172l0.391-0.094h1.266zM82.188 4.891q-0.172 0.047-0.344 0.047-0.344 0-0.672-0.188-0.094 0.172-0.094 0.906l0.828 8.469q0 7.531-6.422 9.234-2.828 0.75-2.531 0.781h-1.547q0-0.125 0.047-0.344 1.578-0.781 4.672-2.516 0-0.266-0.359-0.266 0.016 0 0.188-0.164t0.344-0.164 0.234 0.141 0.188 0.141q0.344 0 1.242-0.898t0.898-1.195q0-1.828-2.281-4.781-1.656-2.141-3.484-3.719-1.641-1.422-3.422-3.906-0.922-1.328-2.797-3.984-0.328-0.453-0.328-1.391 0-0.281 0.25-0.664t0.516-0.383q0.594 0 2.813 1.75 0.391 0.281 0.859 1.25-0.172 0.297-0.719 0.297 0 0.016-0.063 0.117t-0.063 0.242q0 0.328 0.969 1.531 0.828 1.078 1.25 1.484 7.188 6.641 7.516 10.734 0.016 0.094 0.172 0.313 0.484-0.344 0.484-2.219l-1.516-13.141q0-0.469 0.344-1.281 0.391-0.938 0.75-0.938 0.797 0 2.078 3.938v0.766zM84.281 21.016q0 0.766-0.789 1.703t-1.523 1.156q-0.078-0.344 0.922-1.781v-0.344q-0.063-0.047-0.453-0.125-0.25-0.047-0.25-0.266 0-0.375 0.469-0.805t0.859-0.43q0.25 0 0.508 0.313t0.258 0.578zM58.5-0.703q0 0.766-1.375 1.953-0.219 0.203-1.828 0.781-0.484 0.234-1.328 0.5v-0.516q0.813-0.516 2.469-1.75-0.641-0.5-1.578-0.5-0.422 0-0.656 0.063-0.547 0.344-0.594 0.344h-0.75v-0.5q1.609-1.844 2.688-1.844 0.375 0.125 2.953 0.859v0.609zM61.953 6.938q0 0.313-0.633 0.797t-0.773 0.484q-1.188 0-1.188-1.453 0-0.734 0.5-1.953 0.563-1.328 1.125-1.547-0.656 1.672-0.656 2.266 0 0.891 0.609 1.313 0.375-0.281 1.016-0.703v0.797zM48.828-2.094q-0.203 0.406-0.734 1-3.203 1.563-9.031 4.188-0.203-0.016-0.203-0.344 0-1.078 4.625-3 2.016-0.844 5.031-2.172zM66.891 22.25q-1.422 2.438-4 2.438-1.609 0-1.609-1.188 0-0.656 0.672-1.531 0.859-1.125 1-1.469-0.266-0.094-0.578-0.094-0.344 0-0.766 0.141-0.078-0.203 0.352-0.93t0.805-0.727h1.688q0 0.063 0.078 0.258t0.078 0.367q0 0.25-0.344 0.859-0.219 0.375-1.078 1.281-0.797 0.781-0.797 0.953 0 0.688 1.25 0.688 0.719 0 1.266-0.313 0.781-0.438 1.984-0.734zM52.422 6.297q0 0.188-0.297 0.813h-0.484q-0.25-0.266-0.797-0.547-0.297 0.219-0.609 1.875-0.344 1.766-0.906 2.406-0.375-0.141-0.75-0.953-0.297-0.594-0.609-1.281-0.266-0.203-1.75-1.234 0.078-1.375 0.969-1.375 0.609 0 2.141 2.516 0.359-0.516 0.813-2.297 0.313-1.328 0.984-1.328 0.438 0 0.867 0.469t0.43 0.938zM42.453 7.25q0.125 0.469-0.305 1.102t-0.883 0.82q-0.266-0.313-1.031-0.688-0.531-0.266-0.531-0.734 0-0.344 0.43-0.898t0.742-0.555q0.203 0 1.578 0.953zM71.406 14.125q0 0.594-0.602 1.148t-1.195 0.555q-3.406 0-3.672 0.063-2.219 0.453-8.141 2.375-4.469 1.438-7.25 1.438h-1.891q0.156 0-4.016-0.984-0.188 0.813-0.859 2.5-0.547 0.906-4.141 3.297-0.531 0.359-1.375 0.672-2.828 1.156-4.594 1.156-0.844 0-3.078-1.031 0-0.125-0.313-0.711t-0.375-0.805q-0.172-0.781-0.172-1.719 0-2.219 0.984-4.063 0.016-0.031 0.016-0.047-0.047-0.063-0.25-0.063 1.703 0-0.609 0.719-2.047 0.641-5.438 1.328-3.5 0.734-4.672 0.734-2.172 0-3.969-1.031-2.266-1.297-2.266-3.547 0-1.125 0.617-2.664t0.617-1.68q0-0.203-0.273-0.891t-0.273-0.906q0-1.656 1.063-4.188 1.172-2.734 2.516-3.641l0.172 0.641q-0.672 0.828-1.516 2.453-0.984 1.969-0.984 3.047 0 0.578 0.297 1.234 0.344 0.766 0.813 0.766 0.5 0 0.844-0.609 0.516-0.891 0.656-1.031 0.297 0.188 0.297 0.406 0 1.156-1.25 2.734-0.688 0.281-1.922 1.266-0.563 0.75-0.563 1.547 0 1.922 1.969 3 1.594 0.891 3.688 0.891 2.219 0 5.688-0.891 3.969-0.984 5-2.109 0.031-0.297-0.672-1.633t-0.703-1.398q0-0.25 0.859-1.453 0.641 0.297 1.234 1.625 0.516 1.234 0.516 2.047 0 2.078-1.391 3.047-0.281 0.188 0.078 0.188l0.328-0.109q0.047 0.141-0.172 1.422-0.234 1.359-0.234 1.672 0 3.125 3.531 3.125 1.891 0 5.219-1.547 3.719-1.703 3.719-3.25 0-0.219-0.234-1.078t-0.344-0.922q-0.344-0.188-0.859-0.656 0.328 0 0.328-0.453 0-0.172-0.344-0.734t-0.344-0.703q0-0.281 0.734-1.734 0.297 0 0.594 0.453 0.016 0.828 1.469 2.156 1.375 1.266 2.266 1.5 2.188 0.594 3.641 0.594 2.266 0 6.188-0.953 3.547-0.891 5.047-1.625 0.016-0.203-0.109-0.281-3.781-1.719-4.063-1.719-0.109 0-0.43 0.258t-0.445 0.258q-0.344 0.031-1.453 0.281-0.938 0.188-1.484 0.188-0.516 0-0.813-0.469-0.047-0.188-0.047-0.359 0-0.281 0.156-0.5 0-0.047-0.148-0.219t-0.148-0.219q0.234-0.109 1.516-0.813 1.672-0.891 3.109-0.891-1.953 0 0.828 0.813 2.391 0.719 6.406 1.539t5.078 0.82q0.266 0 0.828-0.063t0.859-0.063q0.328 0.328 0.328 0.5zM37.063 16.391q0 0.609-0.203 2.703-0.109 0.375-0.391 1.156h-0.484l-2.516-20.531q0-0.219 0.719-1.984h0.484q1.031 1.797 1.281 2.281 0.734 1.547 0.813 2.484-0.172 0.172-0.391 0.172-0.203 0-0.766-0.531-0.188 0.188-0.188 0.75zM50.781 21.859q0 1.078-1.102 2.266t-2.211 1.516v-0.5q1.094-0.859 2.203-2.063v-0.641q-0.234-0.234-0.344-0.234t-0.406 0.109q-0.188 0.078-0.359-0.016 0.609-1.484 1.5-1.484 0.719 0 0.719 1.047zM29.031-0.344q0 0.813-0.484 0.813 0.313 0-1.375-0.547-0.547 0.563-0.766 1.938-0.25 1.531-0.594 2.078-0.391 0-0.609-0.297-0.109-0.375-0.375-0.984-0.953-1.5-1.125-1.5-0.125 0-0.188 0.070t-0.234 0.070q-0.391 0-0.852-0.32t-0.461-0.711q0-1.328 1.047-1.328 0.781 0 2.625 2.094 0.328-0.25 0.719-1.625 0.313-1.156 1.078-1.156 0.469 0 1.031 0.469t0.563 0.938zM26.953 7.25q0 1.094-1.328 1.328-1.531 0.297-1.703 0.672 0.953 3.391 0.953 4.578 0 2.219-0.781 3.25 0.078-2.594-0.25-4.063-0.094-0.516-0.492-1.75t-0.398-1.375q0-1.031 0.984-2.594-0.047-0.516 0.203-1.156 0.344-0.828 0.953-0.828 0.547 0 1.203 0.703t0.656 1.234zM24.344 23.297q0 0.25-0.438 0.922t-0.625 0.75q-0.688-0.328-1.672-1.297l-0.031 0.031-0.016-0.047v-0.203q0-0.438 0.344-0.984t0.75-0.547q0.375 0 1.031 0.547t0.656 0.828zM19.875 21.797q0 0.156-0.172 0.672-1.375 1.188-5.609 2.484v-0.641q0.844-0.594 3.078-1.766 0.688-0.172 2.094-0.75h0.609z"></path>
</svg>
