<!-- Generated by IcoMoon.io -->
<svg version="1.1" xmlns="http://www.w3.org/2000/svg" width="53" height="32" viewBox="0 0 53 32">
<title>surah34</title>
<path d="M51.781 6.141q0 0.547-0.648 1.406t-1.195 0.859q-0.656 0-1.109-1-0.359-0.813-0.359-1.547 0-1.047 0.516-2.375 0.531-1.469 1.25-1.984l0.172 0.766q-0.688 1.047-0.688 2.547t0.766 1.5q0.438 0 0.781-0.656h0.516v0.484zM42.781-2.781q-0.453 1.906-1.438 1.906-0.906 0-0.906-1.516 0-1.141 1.188-2.359 0.094 0.172 0.094 0.391t-0.133 0.664-0.133 0.633q0 0.391 0.516 0.391 0.125 0 0.391-0.055t0.422-0.055zM52.469-3.313q0 1.172-1.938 1.953-0.781 0.25-2.359 0.813l-11.547 4.422q-7.406 2.984-12.734 5.922-0.188-0.172-0.313-0.172v-0.875q0-0.953 4.672-3.047 2.563-1.078 7.656-3.266 6.234-2.734 16.391-6.203 0.172 0.172 0.172 0.453zM44.188 6.594q-0.078 0.078-0.453 0.813h-0.516q0.031-0.25-0.516-0.516-0.078-0.031-0.219 0.016-0.563 1.031-0.797 2.641-0.172 1.297-0.906 2.047-0.422-1.016-1.844-2.734-0.438-0.125-1.359-0.766-0.188-0.734-0.188-0.469 0-0.297 0.414-0.727t0.695-0.43q0.484 0 2.406 2.219 0.813-3.469 2.172-3.469 0.734 0 1.109 1.375zM36.578-3.5q0 0.688-6.281 3.641-0.859 0.438-3.141 1.672t-6.828 3.641q-1.125 0.594-2.297 1.531-0.094 0.5-0.453 1.406h-0.641q-0.297-0.5-0.297-0.969 0-0.984 0.469-1.344 2.109-1.703 11.734-6.578 4.406-2.219 7.516-3.547 0.219 0.172 0.219 0.547zM23.703-3.766q0 0.141-0.086 0.359t-0.086 0.328h-0.594q-0.297 0-0.984-0.688-0.438 0.391-0.844 2.078-0.406 1.828-0.922 2.469-0.281 0-0.594-0.469 0-0.25-0.453-1.328-0.516-1.25-0.984-1.25-0.172 0-0.148 0.070t-0.117 0.070q-0.594 0-0.844-1.375 0-0.172 0.078-0.539t0.078-0.57h0.859q0.375 0 1.156 1.078 0.328 0.422 0.938 1.266 0.172-0.234 0.766-2.047 0.391-1.141 1.109-1.141 0.656 0 1.164 0.508t0.508 1.18zM52.203 15.25q0 1.109-0.859 2.297-0.984 1.375-2.313 1.375-0.516 0-1.234-0.469t-0.938-0.938q-0.953 1.063-1.328 1.313-0.703 0.516-1.766 0.516-1.656 0-2.172-1.438-0.047-0.391-0.422-1.203-2.969 1.625-7.031 2.266-0.156 0.031-0.648 0.203t-0.664 0.172-2.266 0.125l-2.234 0.141q-5.938 0-8.297-3.172-1.422 1.672-1.844 1.969-0.891 0.672-2.469 0.672-1.859 0-2.922-1.859-0.219-0.406-0.5-2.875-0.234-2.188-0.234-3.125v-4.109q0-0.328-0.117-0.93t-0.117-0.898q0-1.516-0.094-2.906-0.016-0.234-0.188-0.852t-0.172-0.867q0-0.141 0.5-0.773t0.703-0.758q0.469 0.672 0.516 2.094 0.094 1.797 0.219 2.266l0.141 7.063q0.063 2.5 0.328 3.828 0.563 2.484 2.484 2.484 1.078 0 2.188-0.859 0.719-0.969 1.281-1.703 0.344-0.469 0.969-0.766h0.484q0.813 3.859 7.906 3.859 2.953 0 6.297-0.578 0.844-0.25 3.031-0.844 0.656-0.172 2.078-0.961t1.531-0.789h0.75q-0.047 1.484 0.094 1.953 0.328 0.953 1.531 0.953 1.078 0 1.859-1.156 0.234-0.297 1.406-2.141h0.5q-0.156 0.516-0.156 1.031 0 1.703 1.563 1.703 1.25 0 1.203-0.594-0.219-0.734-0.219-1.359 0-0.984 0.578-1.641 0.344 0 0.453 0.188 0.609 1.281 0.609 2.094zM33.109 12.281q0 0.563-0.625 1.5-0.656 1-1.172 1-0.641 0-1.141-1-0.391-0.813-0.391-1.438 0-1.094 0.719-2.672 0.609-1.391 1.047-1.828 0 0.594-0.258 1.75t-0.258 1.578q0 0.297 0.258 0.922t0.492 0.75q0.359-0.422 1.125-0.984 0.203 0.203 0.203 0.422zM41 19.953q0 0.734-0.938 1.625-0.813 0.797-1.625 1.094-0.281 0-0.484-0.203 0.172-0.328 1.531-1.703-0.031-0.172-0.688-0.484v-0.453q0-0.75 1.172-0.75 1.031 0 1.031 0.875zM10.141 2.375q-1.156 1.578-1.156 3.125 0 0.359 0.266 0.641 0.266 0.078 0.859 0.078v0.594q0 0.344-0.406 0.688t-0.75 0.344q-1.031 0-1.031-1.719 0-1.031 1.016-3.078 0.359-0.766 1-1.156zM22.031 21.063q0 0.391-0.492 0.922t-0.898 0.531q-0.516 0-1.047-0.719-0.469-0.609-0.469-0.813 0-0.313 0.469-0.906t0.781-0.594q0.422 0 1.039 0.594t0.617 0.984zM13.313 20.922q0 0.438-0.594 0.734-1.328 0.641-2.688 1.281h-0.703q-0.031-0.422-0.078-1.281-0.516-0.469-0.516-0.781 0-0.672 0.773-1.445t1.445-0.773q0.469 0 1.109 0.703v0.672q-0.031 0-0.273 0.148t-0.414 0.148q-0.203 0-0.75-0.297l-0.234 0.219q0 0.625 0.625 0.625-0.484 0 1.984-0.281zM15.531 24.641q-0.281 0.625-2.016 1.516-1.531 0.781-1.953 0.781h-0.734q0-0.016-0.078-0.164t-0.078-0.32q0-0.625 1.234-1.234 0.156 0.047-0.953 0.047-0.453 0-0.688-0.469 0.359-0.75 1-0.969 2.609-0.891 2.422-0.891h0.688q0.313 0.313 0.313 0.484 0 0.344-1.234 0.938-0.516 0.219-1.547 0.703 0.219 0.125 0.469 0.125 0.344 0 1.234-0.289t1.406-0.289q0.234 0 0.516 0.031z"></path>
</svg>
