<!-- Generated by IcoMoon.io -->
<svg version="1.1" xmlns="http://www.w3.org/2000/svg" width="44" height="32" viewBox="0 0 44 32">
<title>surah35</title>
<path d="M43.469-1.703q0 0.266-0.703 1.883t-0.703 1.883q0 0.391 0.484 0.813l0.25-0.25h0.516v0.469q0 0.297-0.555 0.875t-0.852 0.578q-0.344 0-0.688-0.734-0.266-0.563-0.266-0.859 0 0.438 0.844-2.891-0.234-0.219-0.359-0.219-0.266 0-2.25 0.594-1.781 0.516-3.25 1.109-0.5 0.172-1.5 0.539t-1.453 0.883q0.094 0.297 0.219 0.938v0.734q-0.328 0.297-0.547 0.297-0.641 0-0.953-1.5 0-1.797 3.547-2.953 0.859-0.266 2.578-0.813 1.375-0.484 5-1.766h0.438q0.203 0.172 0.203 0.391zM38.609 6.953q0 0.344-0.414 0.898t-0.758 0.555q-0.281 0-1.078-0.586t-0.797-0.867q0-0.313 0.469-0.883t0.781-0.57q0.453 0 1.125 0.523t0.672 0.93zM41.391 18.313q0 1.516-0.781 2.531-0.297 0.391-2.875 1.594-2.25 1.063-4.313 1.453-5.313 0.984-6.875 0.984h-1.156q-3.047 0-5.313-1.547-1.578-1.109-2.016-4.016-0.047-0.125-0.328-0.391-0.406-0.031-0.875 0.469-0.813 0.563-2.172 2.016-2.75 4.297-5.219 4.297-1.5 0-2.344-1.125-0.781-1-0.781-2.531 0-1.25 0.969-3.578t0.969-2q0-0.109-0.359-0.594-0.469-1.328-0.469-2.188 0-1.734 1.117-4.18t2.43-3.586q0.188 0.203 0.188 0.422l-0.188 0.516q-2.438 3.625-2.438 5.563 0 1.953 1.172 1.953 0.422 0 0.875-0.609t0.453-1.047h0.547v0.766q0 0.781-1.234 2.234-0.781 0.813-2.094 2.594-0.219 0.406-0.359 0.859-0.594 1.813-0.594 3.141 0 1.906 1.875 1.906 1.234 0 2.969-2.047 0.25-0.266 2.422-2.922 0.828-0.797 2.953-2.781 0.297-0.297 0.297-0.797 0-0.344-0.109-0.992t-0.109-0.93q-0.297-4.797-0.813-8.297-0.203-1.453-0.719-3.297l-0.469-1.688q0-0.625 0.734-1.578h0.5q1.5 4 2.266 16.219 0.125 0.141 0.344 0.375 0.766-0.109 1.766-1.313 0.469-0.563 1.375-1.672 0.672-0.734 1.359-1.531 0.672-0.938 0.672-2.063 0-0.297-0.188-0.938-0.172-0.781-0.188-1.016-0.219-1.672-0.813-6.219 0-0.078-0.172-0.359t-0.172-0.453q0-0.422 0.367-1.219t0.695-1.078q0.75 1.328 2.078 4.063v0.469q-0.625 0-0.875-0.359h-0.109q-0.219 0.188-0.219 0.656 0 0.172 0.281 2.484 0.344 2.766 0.406 3.766l-0.016 0.047q0.016 0.078 0.219 0.078-0.984 0 1.109-0.898t2.75-0.898q0.969 0 2.594 0.859 1.797 0.969 1.797 1.844 0 3.891-7.688 5.641-0.219 0.047-1.172 0.453-0.875 0.344-1.063 0.344-0.125 0-0.109-0.078t-0.156-0.078q-0.156 0-0.469 0.172-0.406 0.203-0.469 0.219-2.141 0.422-3.578 1.5 0.047 4.766 6.875 4.766 3.125 0 7.281-0.922 4.875-1.078 6.641-2.625-0.266-0.891-1.391-0.891-0.344 0-1.070 0.148t-1.070 0.148q-0.813 0-1.555-0.617t-0.742-1.398q0-1.063 0.813-2.438 0.938-1.656 2.016-1.656 1.734 0 3.031 2.531 1.078 2.047 1.078 3.359zM32.234 16.688q0 0.703-1.719 1.422-0.641 0.25-1.891 0.719-2.141 1.25-3.625 1.766h-0.484q-0.172-0.016-0.172-0.344 0-0.656 2.875-2.016l4.5-2.188h0.516v0.641zM17.844 23.5q0 0.516-1.281 1.156-1.031 0.484-2.125 1.047l-0.344-0.313q0.688-1.203 3.547-2.281 0.203 0.172 0.203 0.391zM18.25 24.969q0 0.938-3.266 1.969-0.172 0-0.172-0.313 0-0.641 1.359-1.391l1.594-0.75h0.484v0.484zM38.313 15.844q-0.141-0.297-0.68-0.75t-0.82-0.453q-0.234 0-0.531 0.328t-0.297 0.578q0 0.625 1.25 0.625 0.734 0 1.078-0.328zM32.531 10.828q-0.297-0.453-1.492-1.016t-1.773-0.563q-1.609 0-3.328 1.578-0.609 0.531-2.828 3.094h0.594q1.391 0 6.984-1.813 1.719-0.547 1.844-1.281z"></path>
</svg>
