<!-- Generated by IcoMoon.io -->
<svg version="1.1" xmlns="http://www.w3.org/2000/svg" width="38" height="32" viewBox="0 0 38 32">
<title>surah36</title>
<path d="M30.594 7.281q0 1.5-3.25 2.219-1.844 0.391-3.391 0.391-1.609 0-1.789-0.039t-0.898-0.352q-0.609-0.297-0.781-0.297-0.203 0-0.547 0.328t-0.719 0.266q0.156-0.5 0.547-1.219 0.516-0.906 0.906-0.906 0 0.031 0.469 0.203 0.688 0.594 1.063 0.609 1.594 0.172 2.563 0.172 1.172 0 2.906-0.563t2.703-1.25q0.219 0.219 0.219 0.438zM37.359 24.578q0 0.438-0.391 1.078-0.438 0.719-0.828 0.719-0.234 0-0.813-0.469-0.703-0.547-0.938-0.641-0.156 0.094-0.719 0.641-0.469 0.469-0.672 0.469-0.313 0-1.086-0.578t-0.773-0.875q0-0.266 0.438-0.93t0.672-0.664q0.188 0 0.922 0.438 0.891 0.547 1.188 0.672 0.641-1.109 1.203-1.109 0.281 0.172 1.797 1.25zM17.156 3.469q-0.047 0.094-0.297 0.766h-0.438q-0.203 0-0.594-0.266t-0.516-0.313q-0.344 0.422-0.672 1.875-0.344 1.594-0.703 2.141-0.406-0.047-1.266-2.094-0.266-0.516-0.906-0.813-0.266-0.094-0.813-0.313-0.438-0.281-0.438-0.859 0-1.047 0.813-1.047 0.656 0 1.563 1.063 0.25 0.266 1.063 1.313 0.375-1.156 0.891-2.438 0.188-0.469 0.859-0.469 0.484 0 0.969 0.477t0.484 0.977zM37.781 15.109q0 3.516-3.328 3.516-0.406 0-1.219-0.391-0.969-0.469-1.219-0.984-0.609 0.656-1.25 1.328-0.516 0.438-1.281 0.438-0.688 0-1.078-0.359-0.094-0.109-0.813-1.141-1.656 1.453-4.531 1.438-0.313 0.313-0.516 1.203-0.266 1.172-0.328 1.453-0.344 1-1.844 2.141-1.172 0.891-2.578 1.422-0.563 0.313-2.641 1-2.188 0.469-3.469 0.469-2.453 0-4.031-1.406t-1.578-3.844q0-0.547 0.469-2.109t0.438-1.828q-0.063-1.438 0.109-4.047 0.781-3.859 3.094-6.125l0.172 0.766q-1.469 2.531-1.766 3.219-0.594 1.359-0.594 2.938 0 0.344 0.391 0.859t0.719 0.516q0.469 0 0.828-0.625 0.25-0.516 0.469-1.031h0.5v0.641q0 0.5-0.766 1.703-0.641 1.031-0.813 1.203-0.5 0.422-1.359 0.516-0.641 0.297-0.641 2.141 0 4.313 5.094 4.313 2.203 0 5.375-1.156 3.781-1.375 3.781-3.078 0-0.328-0.695-2.156t-0.695-2.125q0.063-0.297 0.469-1.844 0.344 0.219 1.219 1.516 0.469 0.688 1.188 0.922 0.938 0.297 1.422 0.297 0.984 0 2.813-0.984 0.484-0.641 1.453-1.484 0.031 0.125 0.031 0.375 0 0.406-0.109 1.203 0.859 1.031 1.281 1.031 0.859 0 1.797-1.25 0.219-0.297 1.063-1.5 0.094 0.531 0.422 1.391 0.531 0.813 1.156 0.813h1.031q0.469 0 1.25-0.641-1.938-5.453-1.938-6 0-0.266 0.148-0.813t0.148-0.844q0.016 0 0.117-0.086t0.273-0.086q0.344 0 1.078 1.109 0.625 0.891 0.844 1.453v0.5q-0.672-0.047-0.672 0.141 0 0.344 0.555 1.969t0.555 2zM15.313 11.859q0.016 0.078 0.016 0.219 0 0.469-0.453 1.086t-0.891 0.617q-0.766 0-0.844-1.453-0.016-0.547 0.391-1.656 0.547-1.375 1.359-1.859 0.203 0.016 0.203 0.313 0-0.172-0.234 0.328-0.75 1.203-0.75 1.891 0 0.766 0.484 0.766 0.172 0 0.719-0.25zM27.125 21.969q0.031 0.156 0.031 0.344 0 0.922-0.813 2.266-0.875 1.422-1.703 1.625v-0.438q0-0.063 0.734-1t0.797-1.344q-0.25-0.234-0.531-0.234-0.109 0-0.406 0.055t-0.469 0.055v-0.438q0-0.313 0.539-0.82t0.867-0.508q0.484 0 0.953 0.438z"></path>
</svg>
