<!-- Generated by IcoMoon.io -->
<svg version="1.1" xmlns="http://www.w3.org/2000/svg" width="87" height="32" viewBox="0 0 87 32">
<title>surah37</title>
<path d="M86.313 19.469q0.078 0.813-0.344 3.141-0.359 2-0.703 2.516l-1.313-16.266q0 1.297-0.188-1.563-0.203-2.656-0.25-4.25-0.031-0.172-0.203-0.594t-0.172-0.594q0-0.734 1.016-2.328 0.25 0 0.438 0.297 1.719 4.328 1.719 4.594 0 0.422-0.188 0.641-0.25-0.219-1.078-0.719zM74.703 1.25q0 0.906-0.891 1.281l-9.969 3.984q-5.734 2.469-8.609 4.625-0.203-0.188-0.203-0.469 0-1.422 3.641-3.297 6.406-3.313 15.828-6.625 0.203 0.203 0.203 0.5zM72.219 11.078q0 1.859-1.484 1.859-0.094 0-0.328-0.063t-0.359-0.063q-0.141 0-0.688 0.406t-0.688 0.406q-0.563 0-1.008-0.5t-0.445-1.063q0-0.891 0.781-2.438 0 2.625 0.813 2.625 0.672 0 0.719-1.125-0.047-0.813-0.047-1.609 0.078-0.141 0.359-0.469 0.109 0.125 0.328 1.359 0.172 0.984 0.859 1.156 0.328-0.203 0.328-0.672 0-0.188-0.063-0.617t-0.063-0.633q0-0.688 0.359-1.125 0.625 1.844 0.625 2.563zM82.313 23.672q0 0.719-0.938 1.969-1.031 1.344-1.969 1.219 0.219-0.219 1.25-1.297 0.813-0.859 0.813-1.078 0-0.125-0.063-0.305t-0.063-0.211q-0.094-0.078-0.266-0.078t-0.57 0.188-0.539 0.188q0.031-0.438 0.578-1.031t1-0.594q0.766 0 0.766 1.031zM59.469 4.297q0 1.844-0.594 2.125 0-0.938-0.297-2.656-0.219-0.594-1.016-1.625-0.734-0.969-0.734-1.109 0-0.469 0.469-0.969 2.172 0.969 2.172 4.234zM79.828 17.906q0 3.781-2.078 5.219-1.375 0.938-5.688 1.672-3.516 0.594-6.094 0.594-0.406 0-1.219-0.133t-1.203-0.133q-0.344 0-0.781 0.906-0.516 1.078-0.625 1.156-0.016-0.125-0.016-0.469 0-0.547 0.047-1.656-0.266-0.328-1.234-0.922-0.781-0.469-1.109-1.125-0.141-0.125-0.406-0.375-0.453 0.859-1.578 1.766-1.234 0.984-2.125 0.984-3.141 0-3.953-3.219-0.234-1.75-0.578-5.266-0.016-0.906-0.141-3.203-0.219-3.563-0.609-7.609-0.078-0.656-0.453-2.5-0.359-1.703-0.359-1.859 0-0.453 0.922-1.672 0.594 1.219 0.68 1.719t0.305 1.813q1.016 7.078 1.016 9.969v3.469q0 6.156 3.25 6.156 1.469 0 2.734-1.406 0.563-0.688 1.719-2.047 0.297 0.984 1.016 1.844 0.859 1.063 1.719 1.063 0.141 0 0.367-0.086t0.289-0.086q2.344-3.25 3.953-4.609 2.063-1.719 4.25-1.719 0.422 0 2.125 1.031 1.422 0.859 1.422 2.344 0 0.344-0.25 1.25-0.266 1.031-0.313 1.359 0.094 0.094 0.422 0.094 0.797 0 1.984-0.563 1.328-0.672 1.328-1.375-0.188-1.906-0.734-7.266-0.078-0.563-0.641-8.719-0.031-0.359-0.289-1.195t-0.258-1.164q0-0.469 0.719-2.266 0.266 0 0.469 0.297 1.281 2.641 2 4.578v0.469q-0.031 0.172-0.375 0.172-0.156 0-0.391-0.219-0.344-0.328-0.406-0.344-0.094 0.297-0.094 1.109zM61.391 14.953q0 0.344-0.547 0.766t-0.688 0.422q-1.109 0-1.109-1.406 0-0.609 0.617-1.953t1.102-1.609q-0.734 2.906-0.734 2.688 0 0.516 0.375 0.875-0.156 0 0.984-0.391v0.609zM47.125-0.078q-2.75 1.25-7.109 3.047h-0.469q0.031-0.813 0.938-1.281 2.141-0.859 6.469-2.453l0.172 0.172v0.516zM46.438 5.266q0 1.281-0.859 1.688-0.391 0-1.125 0.109-0.078 0-0.438 0.242t-0.531 0.242q-1.328 0-1.328-1.375 0-0.781 0.563-1.672 0 0.516 0.625 1.531 0.656-0.109 0.703-0.75 0.063-0.813 0.406-1.047 0.141 0.188 0.234 0.828 0.078 0.422 0.578 0.547 0.125-0.297 0.258-0.898t0.258-0.898q0.297 0 0.469 0.313 0.188 1.563 0.188 1.141zM44.234 10.672q0 0.328-0.438 0.883t-0.75 0.555q-0.375 0-1.047-0.484t-0.672-0.828q0-0.266 0.5-0.93t0.75-0.664q0.375 0 1.016 0.578t0.641 0.891zM47.406 20.422q0 0.156-0.109 0.398t-0.109 0.367q-0.109 0.844-0.672 2.266-0.641 0.766-2.438 1.375-1.625 0.563-2.813 0.563-2.547 0-3.469-2.203-0.484-1.234-0.734-4.75-0.047-1.094-0.219-3.766-0.125-2.219-0.688-7.734-0.344-2.484-0.641-3.984-0.266-1.281-0.266-0.875 0-0.266 0.352-1.078t0.555-0.938q0.984 2.125 1.938 13.219 0.156 1.391 0.422 5 0.141 2.938 0.719 3.766 0.734 1.141 3 1.141 0.984 0 2.438-0.594 1.297-0.516 1.641-0.891-0.109-1.016-1.594-1.016-0.25 0-0.75 0.078t-0.781 0.078q-2.406 0-2.406-2.359 0-0.891 0.953-2.266 0.984-1.484 1.797-1.484 1.313 0 2.719 2.656 1.156 2.203 1.156 3.031zM31.5 3.609q0 0.453-0.719 1.141-0.188 0.016-0.391 0.016-0.516 0-0.875-0.516t-0.359-1.063q0-0.359 0.531-1.484t0.797-1.359q-0.359 1.922-0.359 2.063 0 0.984 0.531 0.984 0.188 0 0.445-0.125t0.398-0.125v0.469zM33.453 8.656q0 0.156-0.094 0.352t-0.094 0.32q-0.016 0-0.117 0.086t-0.273 0.086q-0.188 0-0.469-0.25-0.344-0.297-0.406-0.328-0.359 0.375-0.797 1.75l-0.719 2.125q-0.359-0.031-0.75-0.844-0.578-1.125-0.766-1.406-0.547-0.344-1.625-1.078v-0.938q0.391-0.438 0.766-0.438 0.609 0 1.281 0.813 0.313 0.422 0.953 1.25 0.125-0.047 0.852-1.398t1.148-1.352q0.297 0 0.703 0.469t0.406 0.781zM25.125 0.984q0 0.313-0.172 0.75h-0.438q0.141-0.016-0.688-0.438-0.547 0.547-0.75 2.234-0.188 1.828-0.766 2.609h-0.469q-0.484-1.563-1.172-2.781-0.094-0.141-1.063-0.641-0.859-0.438-0.859-0.859 0-0.953 0.984-0.953 0.688 0 1.453 1.078 0.313 0.516 1.016 1.547 0.047-0.047 0.234-0.391 0.156-0.609 0.5-1.859 0.469-1.625 1.078-1.625 0.328 0 0.719 0.492t0.391 0.836zM26.109 14.047q0 0.375-0.477 0.875t-0.852 0.5q-0.141 0-0.711-0.344t-0.742-0.344q-0.125 0-0.727 0.555t-0.805 0.555q-0.266 0-1.031-0.539t-0.766-0.789 0.531-0.914 0.734-0.664q0.172 0 0.844 0.422t0.797 0.422q0.172 0 0.742-0.555t0.711-0.555q0.391 0 1.070 0.508t0.68 0.867zM33.984 18.625q0 2.297-1.281 3.281-0.438 0.344-2.906 1.172-4.594 1.609-8.047 1.813-0.219 0-0.734 0.117t-0.781 0.117q-2.984 0-5.031-1.188-2.656-1.547-2.656-4.688 0-0.25 0.617-1.75t0.617-1.734q0-0.266-0.281-1.164t-0.281-1.195q0-1.578 1.266-4.594 1.391-3.313 2.688-4.188l0.344 0.359-1.984 3.25q-1.063 1.75-1.063 3.406 0 0.563 0.25 1.328 0.344 1.078 0.859 1.078 0.594 0 1.641-1.938 0.297 0.188 0.297 0.563 0 0.313-0.656 1.5-0.594 1.063-0.922 1.484-0.609 0.281-1.594 1.156-0.422 0.578-0.422 1.859 0 2.172 2.438 3.328 1.891 0.906 4.328 0.906 2.5 0 6.406-0.875 4.5-0.984 5.781-2.25-0.125-0.297-0.953-1.719-0.688-1.234-0.688-1.375 0-0.641 0.594-1.5h0.453q0.422 0.516 1.188 1.594 0.516 0.766 0.516 1.844zM35.516 23.75q0 0.563-0.453 0.781-4.766 2.234-5.016 2.234-0.141 0-0.391-0.148t-0.375-0.148q1.063-0.906 6.031-3.141 0.203 0.203 0.203 0.422zM24.141 19.188q0.047 0.375-0.336 1.016t-0.742 0.641q-0.375 0-0.82-0.484t-0.445-0.844q0-1.844 1.484-3.516l0.188 0.484q-0.688 1.375-0.688 1.797 0 1.031 0.625 1.031 0.125 0 0.359-0.063t0.375-0.063zM74.141 20.625q-0.5-0.797-1.531-1.5-1.109-0.766-1.953-0.766-1.219 0-3.063 1.547-1.563 1.281-2.734 2.953 0.344 0.328 0.484 0.328h1.109q2.063 0 4.406-0.703 2.563-0.781 3.281-1.859zM44.375 18.438q-0.375-1.188-1.328-1.188-0.438 0-0.891 0.891 0.422 0.484 1.328 0.484 0.563 0 0.891-0.188z"></path>
</svg>
