<!-- Generated by IcoMoon.io -->
<svg version="1.1" xmlns="http://www.w3.org/2000/svg" width="41" height="32" viewBox="0 0 41 32">
<title>surah38</title>
<path d="M39.969 0.234q0 0.453-0.906 1.281-0.813 0.766-1.328 0.984-1.047 0.109-2.781 0.5-0.922 0.313-0.922 1.672 0 0.906 0.344 1.188 0.281-0.203 0.844-0.547 0.203 0 0.203 0.344 0 0.391-0.508 1.133t-0.883 0.742q-1.109 0-1.109-1.875 0-0.781 0.547-2.484-1.25-0.797-2.359-0.797 0.094 0-1.781 1.109v-0.594q0-0.281 0.844-1.297t1.078-1.016q0.281 0 1.438 0.484t1.391 0.484q0.328 0 0.953-0.133t0.922-0.133q1.266 0 1.781-0.188 0.641-0.219 1.719-1.172 0.516 0 0.516 0.313zM27.094 2.875q0 0.266-0.375 1.063-0.406 0.906-0.75 1.078 0.016 0.25 0.016-1.25 0-1.234-1.375-3.078-0.688-0.938-0.688-1.063 0-0.297 0.32-0.773t0.57-0.477q0.391 0 1.125 1.031 0.609 0.859 0.688 1.109 0.469 1.719 0.469 2.359zM22.656 9.281q0 0.313-0.453 0.789t-0.797 0.477q-0.359 0-0.797-0.648t-0.438-1.070q0-1.969 1.609-4.078 0.188 0.188 0.188 0.484 0 0.266-0.344 1.266t-0.344 1.297q0 0.563 0.375 0.984-0.094 0 1-0.297v0.797zM17.688 1.25q-0.344 0.297-0.484 0.297 0.125 0-0.984-0.547-0.125 0-0.297 0.25-0.094 0.609-0.5 2.875-0.016 0.156-0.703 1.188-0.625-1.016-2.125-3.172-0.484-0.156-0.984-0.297-0.563-0.281-0.563-0.891 0-0.266 0.32-0.586t0.586-0.32q0.625 0 1.484 0.938l1.406 1.547q0.109-0.641 0.359-1.922 0.297-1.406 1.188-1.406 0.25 0 0.773 0.383t0.523 0.633v1.031zM36.344 19.563q0.125 0.219 0.125 0.516 0 0.859-1.055 1.836t-1.945 0.977q-0.203 0-0.617-0.148t-0.633-0.148q-0.375 0-1.609 1.078l-1.594 1.375q-1.063 0.359-3.109 1.156l-0.734-0.219q1.656-0.969 4.313-2.703 0.688-0.719 2.063-1.875 0.5 0 1.531-0.359 0.266-0.125 1.031-1.188 0.641-0.859 1.234-0.859 0.422 0 1 0.563zM37.219 12.984q0 1.266-1.047 2.672-0.859 1.172-3.688 2.188-2.516 0.875-4.063 0.875-1.281 0-3.172-0.406-0.094 1-0.563 2.578-2.375 3.813-8.672 5.094-1.813 0.359-3.25 0.359-6.422 0-6.422-5.594 0-1.188 0.688-3.117t0.688-2.086q0-0.313-0.414-1.57t-0.414-1.555q0-0.125 0.109-0.344t0.109-0.344q0-0.438 1.203-4.313 0.297-0.469 0.891-1.516 0.313-0.766 1.203-1.703 0.219 0.141 0.344 0.141v0.625q0.031 0.125-0.719 1.422-0.906 1.609-1.172 2.188-0.594 1.266-0.594 2.547 0 2.484 1.109 2.484 0.469 0 0.859-0.766l0.391-0.891q0.094-0.078 0.328-0.297 0.484 0.219 0.484 0.688 0 1.625-1.578 3.031-1.297 1.156-1.688 1.781-0.594 0.906-0.594 2.328 0 2.344 2.047 3.625 1.641 1.031 3.766 1.031 0.563 0 1.547-0.141 1.109-0.156 1.578-0.172 7.25-2.344 7.25-4.266 0-0.906-0.758-2.586t-0.758-1.992q0-0.906 0.641-1.656 0.266 0.234 1.25 1.234 0.844 0.844 1.031 0.844 0.266 0 1.547-1.625 1.688-2.125 2.594-2.984 1.641-1.625 2.828-1.625 1.453 0 3.156 1.094 1.922 1.203 1.922 2.719zM19.875 18.109q0 0.391-0.609 1.234-0.313 0.484-0.953 0.484-1.047 0-1.047-1.75 0-1.672 1.047-3.297 0.359-0.188 0.469-0.188v0.906q0 0.203-0.273 0.813t-0.273 0.813q0 0.156 0.375 0.906h0.359l0.422-0.391h0.484v0.469zM17.125 8.266q0 0.859-1.281 1.375-0.469 0.172-2.047 0.719 0.078 0.391 0.766 3.391 0.641 2.688 0.641 3.75 0 1.766-1.406 5.484-0.094 0.031-0.344 0.172-0.313-0.313-0.172-0.781 0.25-0.594 0.672-1.828 0.266-0.859 0.266-2.469 0-1.094-0.688-3.438t-0.688-3.453q0-2.188 1.922-3.188l-0.328-0.344q-0.125 0.109-0.703 0.406-0.203-0.172-0.328-0.172v-0.563q0-0.469 0.594-0.859 0.484-0.344 0.766-0.344 0.641 0 1.5 0.766t0.859 1.375zM35.531 13.688q-0.094-0.453-1.727-1.313t-2.211-0.859q-1.297 0-4.766 4.063v0.484q0.938 0.328 1.375 0.328 2.703 0 5.688-1.359 1.328-0.594 1.641-1.344z"></path>
</svg>
