<!-- Generated by IcoMoon.io -->
<svg version="1.1" xmlns="http://www.w3.org/2000/svg" width="61" height="32" viewBox="0 0 61 32">
<title>surah39</title>
<path d="M61.031 17.734q0 3.25-1.172 5.047l-0.25-0.188q0.016-0.547 0.016-1.094 0-2.359-0.406-5.875l-0.641-5.766-0.641-7.359q-0.031-0.359-0.281-1.328-0.219-0.859-0.219-1.297 0-0.859 0.859-2.266 0.328 0 0.594 0.438 1.922 3.891 2 4.016v0.734l-0.328 0.344q-0.469-0.219-0.828-0.594-0.078 0.172-0.078 1.063zM48.844 1.453q-0.391-0.063-0.984 0.063-1.328 1.016-3.906 2.688h-0.5q0.406-0.469 1.906-1.844 1.281-1.188 1.281-1.375 0-0.125-0.273-0.594t-0.273-0.641q0-0.391 0.531-1t0.891-0.609q0.938 0 0.969 2.266 0.094 0.203 0.359 0.547v0.5zM49.813 4.297q0 1.141-0.5 1.563-1.219 1-2.609 1-0.531 0-0.875-0.609-0.297-0.469-0.297-0.844 0.078-0.188 0.438-1.719h0.516q0.078 0.484 0.469 1.375v-0.094q0-0.281 0.047-0.805t0.047-0.805l-0.109-0.219h0.781q0.266 0.469 0.766 1.375 0.078-0.484 0.266-1.516h0.469q0.594 0.875 0.594 1.297zM49.813 13.688q0 2.156-0.969 2.156-0.281 0-1.172-0.703t-0.891-0.938q0-0.375 0.43-1.031t0.883-0.656q0.172 0 1.719 1.172zM40.953 5.281q0 0.625-0.625 0.625-0.125 0-0.367-0.086t-0.414-0.086q-0.266 0.703-0.328 2.406-0.047 1.547-0.516 2.313-0.438-0.047-0.922-0.938-0.531-1-1.219-1.344-0.484-0.078-1.5-0.641-0.188-0.172-0.188-0.672 0-1.234 1.109-1.234 0.516 0 2.063 1.656 0.016-0.047 0.609-2.063 0.375-1.266 1.063-1.266 0.438 0 0.836 0.445t0.398 0.883zM44.563-1.516q0 0.469-0.766 1.094-0.656 0.516-1.219 0.688-1.188 0.391-2.906 1.109-1.5 0.688-5.391 2.406-4.234 1.875-10.828 5.141-0.344-0.313-0.344-0.453 0-1.453 3.516-3.031 1.203-0.563 4.422-2.078 3.141-1.391 9.953-4.328 1.031-0.438 3.094-1.031 0.453 0.438 0.469 0.484zM54.531 22.438q0 2.078-2.969 3.375l-0.641-0.172q0.828-0.688 2.359-2.781-0.094-0.047-0.391-0.047-0.375 0-0.984 0.094v-0.594q0-0.406 0.5-0.805t0.953-0.398q1.172 0 1.172 1.328zM29.203 1.594q0 0.422-0.453 0.984t-0.875 0.563-0.813-0.641q-0.359-0.563-0.359-1.031 0-0.438 0.414-1.336t0.758-1.023q0.156 0.125 0.156 0.516t-0.156 1.078q0.078 0.125 0.078 0.516 0.219 0.25 0.266 0.25 0.156 0 0.414-0.133t0.383-0.133q0.016 0 0.047 0.016 0.141 0.125 0.141 0.375zM32.094 11.859q0 0.594-0.492 1.18t-1.086 0.586-1.016-0.828q-0.297-0.672-0.297-1.016 0-0.609 0.5-1.984 0.516-1.516 0.938-1.688 0.484 0 0.484 0.359 0 0.266-0.344 1.203t-0.344 1.203q0 0.594 0.391 0.984 0.125 0 0.531-0.258t0.563-0.305q0.172 0.188 0.172 0.563zM54.234 14.422q0 2.281-1.031 4.031-0.563 0.969-3.719 1.891-1.203 0.234-3.594 1.109-1.328 0.797-3.609 3.297-1.703 1.891-3.063 1.891-1.438 0-2.547-1.086t-1.109-2.539q0-1.703 1.938-5.156-0.172-0.188-2.141 0.328-1.703 0.438-3.203 0.438h-2.203q-1.859 0-5.25-0.953-0.219 0.188-0.313 0.359-0.078 1.141-0.375 1.953-1.453 3.953-8.984 6.641-1.313 0.438-4.734 0.438-0.234 0-0.781-0.086t-0.813-0.086q0.047-0.125 0.203-0.313l7.031-2.906q6.891-2.828 6.891-4.781 0-0.875-0.836-2.523t-0.836-2.367q0-0.844 0.594-1.719 0.375 0 0.641 0.297 0.203 0.359 0.594 0.953 0.938 1.078 2.016 1.594 2.141 1.016 5.313 1.016 2.359 0 3.797-0.172 0.563-0.078 2.75-0.563 2.859-0.641 4.281-1.375 0.344-1.156 1.047-3.422 1.078-3.328 2.313-3.328 0.703 0 1.281 1.703 0.438 1.281 0.438 1.844 0 2.922-3.5 4.938-0.078 0.063-0.305 0.492t-0.43 0.43q-0.125 0-0.359-0.141t-0.375-0.141q-0.156 0-0.469 0.25-1.328 0.203-2.656 2.828-1.156 2.313-1.156 3.578 0 1.781 1.422 1.781 1.188 0 3.219-2.109 2.609-2.734 2.719-2.797 1.719-1.219 3.188-1.531 1.688-0.375 3.594-0.953 0.5-0.156 1.578-0.875 0.172-0.172 0.172-0.859l-2.063-15.828q0-1.047 0.734-2.156 0.594 0.219 1.703 2.609 1 2.141 1 2.438t-0.313 0.609q-0.125-0.047-0.844-0.391-0.063 0.141-0.063 0.813zM22.563 0.703q0 0.766-0.5 0.766-0.313 0-0.703-0.422h-0.375q-0.344 0.578-0.492 1.891t-0.461 1.828q-0.406-0.016-1.016-1-0.719-1.109-1.039-1.258t-1.023-0.43q-0.922-0.359-0.922-0.953 0-1.297 0.844-1.297 0.219 0 2.688 1.906 0.141-0.188 0.563-1.688 0.313-1.063 1.031-1.063 0.672 0 1.406 1.719zM18.125 8.813q0 0.563-0.406 1.266-0.453 0.797-0.984 0.797-1.266 0-1.266-1.719 0-1.859 1.031-2.984 0.203 0.172 0.203 0.641 0 0.25-0.070 0.727t-0.070 0.727q0 0.563 0.234 0.813 0.406-0.266 1.156-0.688 0 0.047 0.086 0.148t0.086 0.273zM33.641 23.125q0 0.891-1.703 3.375h-0.516v-0.453q0-0.188 0.438-0.984 0.547-0.953 0.672-1.219-0.125-0.078-0.344-0.078-0.266 0-0.734 0.125-0.172-0.016-0.172-0.344 0-0.359 0.563-0.844t0.953-0.484q0.844 0 0.844 0.906zM30.172 22.375q0 0.469-0.453 0.813-1.25 0.984-3.391 2.25-2.047 1.203-2.344 1.203h-0.688l-0.188-0.172v-0.766q0.109-0.063 6.266-3.734h0.641q0 0.031 0.078 0.133t0.078 0.273zM44.844 11.422q0-0.594-0.766-1.391-1.313 1.656-1.313 2.313v0.75q0.516-0.172 1.219-0.641 0.859-0.594 0.859-1.031z"></path>
</svg>
