<!-- Generated by IcoMoon.io -->
<svg version="1.1" xmlns="http://www.w3.org/2000/svg" width="63" height="32" viewBox="0 0 63 32">
<title>surah4</title>
<path d="M62.563 18.969q0.047 0.422 0.047 0.844 0 2.625-1.313 4.063-0.063-0.078-0.234-0.328 0.094-0.422 0.094-1.234 0-1-0.484-6.391-0.25-2.391-0.844-8.719-0.031-0.313-0.094-1.516-0.156-3.063-0.281-4.563 0-0.078-0.109-0.313t-0.109-0.406q0-0.438 0.344-1.18t0.672-0.961q0.266 0 0.438 0.328 0.734 1.625 1.875 4.891-0.328 0.328-0.469 0.328-0.266 0-0.813-0.547zM50.641 2.828q0 0.766-0.469 1.578-0.531 0.922-1.25 0.922-0.094 0-0.266-0.070t-0.297-0.070q-0.094 0-0.648 0.281t-0.805 0.281q-1.109 0-1.109-1.453 0-1.375 0.641-1.859 0.344 0.391 0.43 0.891t0.289 0.75h0.609q-0.078-0.609 0-2.063 0.125 0 0.336-0.078t0.305-0.078q0.078 0.375 0.25 1.188 0.063 0.219 0.516 0.484 0.219-0.359 0.344-1.031 0.094-0.781 0.188-1.031h0.5q0.438 0.672 0.438 1.359zM49.125 8.578q0 0.297-0.461 0.977t-0.727 0.758q-0.547-0.422-1.719-1.266-0.047-0.484 0.367-1.203t0.883-0.719q0.375 0 1.016 0.57t0.641 0.883zM43.859 12.125q0 0.547-0.547 1.164t-1.109 0.617q-0.516 0-0.906-0.594-0.328-0.516-0.328-1.063 0-0.688 0.516-2.094 0.594-1.578 1.109-1.641l0.156 0.641q-0.547 1.375-0.547 1.984 0-0.297 0.141 0.891 0.109 0.031 0.344 0.219 0.547-0.563 1.016-0.547 0.031 0.063 0.078 0.063 0.078 0.063 0.078 0.359zM46.781-0.125q0 0.641-1.578 1.25l-8.594 3.391q-5.828 2.375-10.203 4.734-0.453 0.344-1.391 1.031-0.516 0.203-1.563 0.734-0.359-0.344-0.359-0.563 0-1.719 10.422-6.25 11.719-5.094 12.703-5.094 0.219 0 0.563 0.313v0.453zM56.75 17.219q0 5.844-4.078 5.844-1.516 0-2.781-2.219-0.875 1.203-1.406 1.578-0.719 0.484-1.969 0.484-0.891 0-1.219-0.141-0.484-0.281-1.375-1.375-1.297 1.938-2.75 1.938-0.984 0-2.078-1.672-1.594 1.938-3.313 1.938-1.141 0-1.672-0.703-0.172-0.25-0.75-1.672h-0.141q-0.344 0-1.203 0.531-1.016 0.641-1.203 0.719-4 1.281-5.5 1.281-1.625 0-2.438-0.328-2.234-0.828-3.016-3.094-0.422-1.25-0.594-3.984-0.125-3.016-0.641-11.078-0.047-0.641-0.516-2.656-0.406-1.781-0.406-1.922 0-0.328 0.406-0.891t0.703-0.563q0.813 0 1.328 4.922 0.063 1.328 0.234 4.844 0.188 2.25 0.578 8.031 0.297 4.5 5.203 4.5 2.141 0 5.141-1.281 0.563-0.219 1.781-0.984 1.031-0.641 1.172-0.641h0.594q-0.047 0.547 0.078 1.547 0.406 1.219 1.625 1.219 0.953 0 1.797-0.766 0.141-0.172 1.547-1.703h0.781q0 0.156-0.070 0.5t-0.070 0.516q0 1.172 1.25 1.172 0.891 0 1.578-0.984 1.078-1.516 1.375-1.797 0.391 0.109 0.453 0.625 0.094 0.703 0.219 0.922 0.531 0.813 1.719 0.813 1.703 0 1.922-0.875 0.078-0.297 0.078-0.922 0-0.516-0.273-1.867t-0.273-1.867q0-0.719 0.734-1.766 0.109 0 0.344 0.047 0.938 1 1.219 4.016 0.313 3.391 2.547 3.391 1.953 0 1.953-1.484l-2.094-18.672q0-1.328 0.891-1.844 0.391 0 0.563 0.281 1.75 2.891 1.75 3.766v0.75q-0.203 0.172-0.453 0.172-0.125 0-0.367-0.195t-0.367-0.227q-0.078 0.172-0.078 0.688zM38.063 11.641q0 0.859-0.391 2.094-0.422 1.375-0.938 1.563l-0.266-0.188q0.219-0.938 0.297-2.766-0.156-1-0.422-1.516-0.203-0.391-1.031-1.5-0.719-0.969-0.719-1.156 0-0.328 0.313-0.82t0.594-0.492q1.016 0 1.859 2.016 0.703 1.656 0.703 2.766zM53.422 24.172q0 0.625-2.266 1.406l-4.328 1.484q-0.172-0.094-0.469-0.313 0.219-0.969 1.266-1.313 0.563-0.141 1.688-0.469 1.563-0.563 3.234-1.219h0.688q0.188 0.188 0.188 0.422zM30.438 1.594q0 0.141-0.070 0.406t-0.070 0.375q0 0.031-0.031 0.063-0.125 0.109-0.375 0.109-0.188 0-1.297-1.094-0.328 1.297-1.359 4-0.469 0.031-0.906-1.031-0.516-1.281-1.109-1.672-0.172-0.031-0.672-0.078-1.156-0.219-1.156-1.281 0-0.313 0.297-0.82t0.594-0.508q1.156 0 2.781 2.484 0.156-0.063 0.641-1.563 0.469-1.328 1.234-1.328 0.391 0 0.945 0.758t0.555 1.18zM32.375 13.234q0 0.594-0.609 0.969-0.516-0.234-0.844-0.578-0.563 0.203-0.688 1.188-0.047 0.391-0.125 1.531-0.141 0.516-0.391 1.688-0.016 0-0.188 0.086t-0.328 0.086q-0.219 0-0.813-1.156l-0.953-1.844q-1.703-0.344-1.703-1.297 0-1.234 0.984-1.234 0.719 0 1.484 1.078 0.281 0.469 0.922 1.406 0.063-0.078 0.625-1.969 0.391-1.359 1.172-1.359 0.375 0 0.914 0.531t0.539 0.875zM15.766 1.391q0 0.203-0.281 0.547t-0.484 0.344q-0.172 0-0.344-0.133t-0.188-0.133q-0.375 0.266-0.641 1.75-0.297 1.563-0.594 1.969-0.328 0-0.453 0.141-0.313-0.766-1.047-2.234-0.281-0.422-1.406-1.031-0.938-0.5-0.938-1.016 0-1.25 1.109-1.25 0.656 0 1.359 0.875l0.922 1.484q0.109-0.125 0.703-1.578 0.406-1.063 1.094-1.063 0.344 0 0.766 0.492t0.422 0.836zM32.922 24.094q0 0.609-0.766 1.633t-1.375 1.195l-0.609-0.172q0.438-0.672 1.25-1.828-0.297-0.047-0.844-0.234v-0.594q0-0.266 0.547-0.648t0.844-0.383 0.625 0.352 0.328 0.68zM14.094 10.406q0 0.297-0.57 0.789t-0.852 0.492q-1.188 0-1.188-1.844 0-0.594 0.555-1.641t1.023-1.344q0.219 0.203 0.219 0.391 0 0.203-0.344 0.953t-0.344 0.953q0 0.391 0.359 0.75 0.172-0.063 0.797-0.438 0.188 0.172 0.344 0.172v0.766zM17.422 17.156q-0.297 1.047-0.844 1.422-3.047 0.719-4.578 1.75-0.594 0.516-1.719 1.328-0.172 0-0.172-0.344t0.953-1.656q-0.188-0.219-1.125-0.984-0.547-0.438-0.547-0.953 0-0.938 1.438-2.516t2.375-1.578q0.344 0 0.836 0.406t0.492 0.703-0.539 0.984-0.789 0.688q-0.141 0-0.609-0.344t-0.641-0.344q-0.453 0-0.734 0.625 0.813 1.031 1.984 1.031 0.563 0 1.891-0.25 1.484-0.266 2.031-0.297zM18.672 21.047q0 0.141-0.219 0.563-2.125 1.156-6.328 3.516h-0.469q-0.172-0.172-0.172-0.484 0-0.703 2.813-2.203 1.203-0.641 3.594-1.891h0.609q0.172 0.203 0.172 0.5z"></path>
</svg>
