<!-- Generated by IcoMoon.io -->
<svg version="1.1" xmlns="http://www.w3.org/2000/svg" width="53" height="32" viewBox="0 0 53 32">
<title>surah40</title>
<path d="M52.938 4.375q0 0.344-0.5 1.094t-0.781 0.75q-1.25 0-1.297-2.359-0.078-2.953 1.844-5.656 0.219 0.188 0.219 0.563 0 0.125-0.367 0.883t-0.445 0.992q-0.297 1.422-0.297 1.984 0 0.797 0.672 1.672 0.25 0 0.953-0.688v0.766zM47.578 1.094q0 0.406-0.359 0.898t-0.75 0.492q-0.516 0-0.859-0.844-0.25-0.609-0.25-0.953 0-2.016 1.359-3.328-0.516 1.328-0.516 2.359 0 0.844 0.516 1.406 0.25 0 0.656-0.438 0.203 0.219 0.203 0.406zM50.484-5.672q0 0.891-3.797 2-2.063 0.594-3.297 1.078l-12.609 5.078h-0.516v-0.625q0-0.469 0.984-0.984 0.625-0.313 2.781-1.172 1.188-0.688 3.938-1.703 2.078-0.734 4.125-1.484 6.906-2.625 7.547-2.625 0.844 0 0.844 0.438zM43.016 2.828q0 0.344-0.453 0.836t-0.797 0.492q-0.422 0-1.797-0.984 0-0.391 0.297-1.016 0.375-0.781 0.813-0.781 0.391 0 1.164 0.586t0.773 0.867zM30.844-2.984l-0.5 1.031q-0.484 0.844-0.953 0.844-0.344 0-0.688-0.547t-0.344-0.906q0-0.516 0.414-1.672t0.758-1.438q0 0.219-0.141 0.641-0.172 0.516-0.195 0.703t-0.023 1.313q0.391 0.375 0.609 0.375 0.422 0 0.688-0.547 0.094 0.031 0.375 0.203zM37.344 5.109q0 0.453-0.297 1.313-0.297 0.938-0.578 1.172 0.203-1.641-0.141-2.656-0.094-0.266-0.766-1.234-0.563-0.828-0.563-1.078 0-0.359 0.297-0.688 0.781 0.078 1.453 1.25 0.594 1.063 0.594 1.922zM50.75 18.828q0 0.906-0.906 1.891-0.797 0.813-1.781 1.25h-0.484q1.5-1.219 2.359-2.266-0.172-0.531-1.109-0.484v-0.438q0-0.297 0.398-0.547t0.695-0.25q0.828 0 0.828 0.844zM21.797-2.547q0 0.344-0.453 0.828t-0.75 0.484q-0.438 0-0.773-0.469t-0.336-0.938q0-1.422 1.063-2.344 0 0.25-0.125 0.758t-0.125 0.773q0 0.813 0.578 0.813 0.188 0 0.484-0.219l0.438-0.328v0.641zM25.688 0.609q0 0.266-0.453 0.797t-0.719 0.531q-0.281 0-0.93-0.43t-0.648-0.68q0-0.484 1.031-1.531 0.469 0.281 0.938 0.5 0.781 0.516 0.781 0.813zM36.625 14.172q-0.719 2.172-1.5 2.172-0.641 0-1.063-0.922-0.313-0.703-0.313-1.453 0-1.156 0.578-2.719 0.203-0.578 0.375-0.844 0.313-0.5 0.813-0.719v0.641q0 0.281-0.336 1.18t-0.336 1.133q0 1.75 0.75 1.75 0.141 0 0.531-0.422 0.328 0 0.5 0.203zM53.094 14.047q0 0.984-1.906 1.844l-2.25 0.891q-4.047 1.625-10.547 3.203-0.266 0.125-0.828 0.344-8.156 1.406-8.688 1.406h-1.406q-6.625 0-9.609-3.328-0.922 0.859-2.875 2.563-1.594 1.328-2.906 1.328-0.484 0-1.516-0.594-0.891-0.547-1.016-0.688-1.016-1.453-1.016-2.609 0-0.781 0.641-2.313 0.25-0.563 1.188-2.172 0.813-1.375 0.813-1.547t-0.203-0.469q-0.266-0.391-0.313-0.469-0.469-1.063-0.469-2.109 0-1.109 0.609-2.859 0.641-1.875 1.375-2.484l0.406 0.078q-1.406 2.109-1.406 4.219 0 2.094 1.188 2.094 0.141 0 0.703-0.32t0.719-0.367v0.641q0 0.688-1.156 1.953-3.109 3.469-3.109 6.125 0 0.938 0.617 1.727t1.523 0.789q1.531 0 5.156-3.875 0.313-0.344 0.313-1.078 0-0.172-0.148-0.555t-0.148-0.555v-3.422q0-2.781-0.875-10.391-0.031-0.391-0.359-1.563-0.266-1.094-0.266-1.438 0-0.438 0.594-1.641 1.125 0.563 1.422 3.656 0.594 6.063 0.688 8.297 0.031 1.203 0.125 3.625 0.078 2.094 0.719 3.25 1.547-0.922 3.281-1.75 0.563-0.266 3.469-1.109 1.328-0.25 3.859-1.063 0.375-0.172 0.375-0.734 0-1.453-1.953-1.453-0.25 0-0.773 0.078t-0.805 0.078q-2.141 0-2.141-1.953 0-0.906 0.813-2.188 0.891-1.406 1.734-1.406 0.563 0 1.438 0.672 2.438 1.844 2.688 4.5 0.25 0.313 0.25 0.563 0 4.141-5.609 4.828-0.719 0.344-1.484 0.609-0.984 0.328-2.313 0.797-1.453 0.609-1.938 1.391 0.391 0.938 3.047 1.859 2.484 0.859 4.203 0.859h1.266q2.5 0 6.625-0.734 1.859-0.359 4.813-1.266 0.844-0.25 1.781-0.594-0.328-0.531-0.969-1.563-0.703-1.266-0.703-2.031 0.063-0.141 0.359-1.281 0.422-1.5 1.688-2.555t2.797-1.055q2.391 0 3.859 1.813l-2.406-0.172q-0.766 0-2.578 0.547-2.344 0.672-2.344 1.453 0 1.406 1.594 2.609 1.438 1.063 2.641 1.063 1.547 0 4.313-1.234l2.75-1.234h0.594v0.469zM21.688 8.234q0 0.234-0.523 0.773t-0.711 0.539q-1.109 0-1.109-1.797 0-1.609 1.328-3.031-0.641 1.625-0.641 2.391 0 0.734 0.766 1.063 0.313-0.234 0.891-0.547v0.609zM31.672 14.938q0 0.656-0.469 0.813-0.938 0.266-3.313 1.031-0.203 0.078-1.031 0.508t-0.969 0.43h-0.719v-0.516q0.719-0.719 2.656-1.484l3.328-1.328q0.516 0 0.516 0.547zM14.5 23.063q0 0.516-1.141 1.078-2.484 1.203-4.891 2.016l-0.203-0.172v-0.797q2.063-0.906 6.063-2.5 0.172 0.031 0.172 0.375zM14.609 24.875q-1.172 1.281-3.766 1.797-0.109 0.016-0.578 0.266-0.375 0.219-0.578 0.219h-0.406l-0.328-0.344q0.672-0.391 4.922-2.125zM27.641 6.859q-0.766-0.781-1.234-0.781-0.375 0-0.688 0.313v0.5q0.609 0.297 1.016 0.297 0.313 0 0.906-0.328z"></path>
</svg>
