<!-- Generated by IcoMoon.io -->
<svg version="1.1" xmlns="http://www.w3.org/2000/svg" width="76" height="32" viewBox="0 0 76 32">
<title>surah41</title>
<path d="M72.359 4.406q0 0.359-0.469 0.828-0.094-0.047-0.734-0.422-0.516-0.266-0.75-0.266-0.172 0-1.586 1.609t-2.586 2.203q-0.547 0.281-1.953 0.984-0.188 0.031-0.344 0.031-0.172 0-0.313-0.047 0.469-0.719 1.75-1.656 1-0.688 2.016-1.406 1.922-1.391 1.922-1.984 0 0.125-0.172-0.328-0.797-0.438-0.797-1.297 0-0.547 0.594-1.531 0.688-1.156 1.406-1.156 0.813 0 0.813 3.078 1.203 0.953 1.203 1.359zM70.828 10.281q0 0.391-0.5 0.922t-0.875 0.531q-0.313 0-1.125-0.578t-0.813-0.875q0-0.172 0.547-0.883t0.75-0.711q0.375 0 1.195 0.625t0.82 0.969zM60.734 2.109q0 0.766-0.703 0.766-0.125 0-0.547-0.195t-0.594-0.227q-0.344 1.313-1.25 4.016-0.547 0-0.734-0.594-0.594-1.703-1.563-2.406-0.438-0.156-1.391-0.766 0.578-1.484 0.875-1.484 0.578 0 1.484 1.063 0.422 0.516 1.297 1.547 0.031-0.047 0.172-0.219 0.156-0.766 0.344-1.547 0.422-1.281 1.219-1.281 0.313 0 0.852 0.516t0.539 0.813zM60.734 11.438q0 0.641-0.5 1.43t-1.094 0.789q-0.094 0-0.297-0.063t-0.313-0.063q-0.172 0-0.781 0.422t-0.781 0.422q-0.469 0-0.922-0.531t-0.453-1.031q0-0.938 0.469-2.031 0.25 0 0.469 0.297 0 0.516-0.031 0.984 0.109 0.75 0.766 0.75 0.391 0 0.516-0.484 0.047-0.969 0.109-1.25 0.141-0.703 0.484-1.141 0.203 0.688 0.797 2.094h0.359q0.094-0.156 0.156-1.313 0.016-0.703 0.406-1.047 0.156 0.125 0.422 0.594 0.031 0.172 0.125 0.578t0.094 0.594zM48.406 4.063q0 0.453-0.43 1.023t-0.898 0.57q-0.422 0-0.734-0.547-0.297-0.469-0.297-0.906 0-0.938 0.734-2.391 0.219-0.438 0.766-0.719-0.547 1.578-0.547 2.078 0 0.563 0.406 0.953 0.281 0 0.781-0.563 0.219 0.203 0.219 0.5zM51.875 14.078q0 0.641-0.438 1.5-0.547 1-1.156 1-1.453 0-1.453-2.141 0-1.125 0.375-2.5 0.438-1.672 1.047-2.125-0.016 0.344-0.188 1.484-0.125 0.938-0.125 1.469 0 1.875 0.688 1.875 0.375 0 1.031-0.984 0.219 0.219 0.219 0.422zM38.141 0.953q-0.313 1.063-0.828 1.328-5.672 2.953-6.156 2.953l-0.688-0.141q0.141 0 0.125-0.25-0.063-0.344 0.016-0.422 0.328-0.422 1.922-1.156l5.297-2.484q0.188 0.172 0.313 0.172zM75.531 19.766q0 2.484-1.281 3.141-5.453 2.797-14.984 2.797-0.156 0-2.125-0.141l-2.156-0.125q-0.516 0-0.516 1.203-0.078 0-0.313 0.078t-0.328 0.078q-0.031-0.672 0.125-1.438-0.719-0.438-2.031-1.516-0.266-0.438-0.922-1.172-2.25 3.031-4.813 3.031-1.516 0-2.578-1.047-0.609-0.641-1.625-2.406-1.25 2.5-4.141 3.141-0.766 0.172-1.281 0.172-2.313 0-2.609-3.125-0.047-0.047-0.172-0.188-2.703 1.5-7.188 2.719-4.719 1.313-7.953 1.313-2.844 0-4.797-1.109-2.531-1.406-2.531-4.234 0-0.313 0.297-1.445t0.313-1.602q0.063-0.594-0.141-1.617t-0.203-1.43q0-1.266 1.219-4.266 1.266-3.203 2.188-3.547 0.188 0.203 0.188 0.5 0 0.125-0.734 1.547-0.828 1.578-1.031 2.188-0.594 1.797-0.594 2.766 0 1.844 0.984 1.844 0.469 0 1.086-0.805t0.836-0.82v0.484q0 0.891-1.281 2.781-0.297 0.25-0.734 0.813-0.328 0.719-0.328 2.047 0 1.938 1.969 3.031 1.484 0.781 3.078 0.781h0.969q0.219 0 0.648-0.109t0.602-0.109q7.578-0.469 13.688-4.063h0.484l0.469 2.063q0.531 1.391 1.703 1.391 0.766 0 2.219-0.516 1.594-0.578 1.813-1.094 0.328-0.688 0.328-1.578l-1.656-17.375q0-1.547 0.766-2.688 0.563 1.438 1.328 7.547 0.172 0.906 0.5 3.313 0.141 1.906 0.438 5.688 0.328 3.516 1.156 5.375 0.422 0.922 1.844 1.297 0.125 0.031 0.891 0.031 1.797 0 2.859-0.969l2.016-2.328q0.297-0.031 0.688 0.625 0.266 0.531 0.672 1.172 0.938 1.094 1.922 1.094 0.453 0 2.484-2.109l2.672-2.766q1.625-1.375 3.5-1.375 1.203 0 2.656 0.844 1.703 0.953 1.703 2.219 0 1.625-0.844 3.125 0.078 0.063 0.516 0.063 0.969 0 3.703-0.703 3.266-0.844 3.266-1.656 0-0.891-1.859-0.984-0.719 0-2.094-0.016-1.313-0.422-1.313-2.094 0-1.141 0.859-2.422 0.938-1.422 2-1.422 0.313 0 1.594 1.281 0.75 0.734 1.336 2.234t0.586 2.594zM27.219 1.094q0.016 0.125 0.016 0.281 0 0.828-1.25 1.844t-2.172 1.063l-0.594-0.219q0.625-0.5 1.781-1.563-0.203-0.438-1.453-0.438-0.781 0-1.063 0.125-0.391 0.188-1.516 1.234-0.031-0.469 0.781-1.75 0.891-1.438 1.672-1.438 0.344 0 2.359 0.203 0.5 0.031 1.438 0.656zM36.375 10.063q0 0.344-0.5 0.828-0.344-0.219-0.984-0.563-0.125 0-0.297 0.25-0.094 2.109-0.578 4.031-0.031 0.156-0.359 0.156-0.172 0-0.922-1.188l-0.844-1.328q-0.313-0.172-1.188-0.719-0.297-0.188-0.297-0.563 0-0.344 0.266-0.758t0.578-0.414q0.5 0 1.188 0.922 0.828 1.141 1.047 1.313 0.156-0.609 0.461-1.781t0.945-1.688q1.484 0.953 1.484 1.5zM24.156 10.578q0 0.422-0.477 1t-0.898 0.578q-1.109 0-1.109-1.75 0 0.219 1.063-2.953-0.219 1.109-0.219 2.219 0 0.438 0.516 0.953 0.219-0.094 1.125-0.688v0.641zM17.25 3.359q0 0.672-0.727 1.484t-1.414 0.813q-0.344 0-0.695-0.445t-0.352-0.805q0-0.375 1.141-3.031h0.484q0.297 0.297 0.891 0.906 0.672 0.688 0.672 1.078zM27.359 16.359q0 0.422-0.43 0.938t-0.82 0.516q-0.156 0-0.852-0.477t-0.867-0.477q-0.125 0-0.586 0.555t-0.945 0.555q-0.391 0-1.055-0.531t-0.664-0.922q0-0.406 0.453-0.93t0.797-0.523q0.469 0 1.719 0.953 0.125-0.094 0.906-0.938 0.297-0.313 0.703-0.313 0.438 0 1.039 0.578t0.602 1.016zM70.125 2.438v-0.641l-0.641-0.156-0.172 0.5 0.313 0.297h0.5zM72.625 17.047q-0.609-0.609-1.172-0.875-0.625 0.297-0.625 0.75 0 0.328 0.172 0.328t0.469 0.070 0.469 0.070q0.391 0 0.688-0.344zM66.406 20.813q-0.203-0.391-1.453-1.109-1.438-0.781-2.359-0.781-1.313 0-3.281 1.578-1.828 1.469-2.469 2.797 0.359 0.328 1.047 0.328 2.016 0 4.547-0.719 3.031-0.859 3.969-2.094zM16.016 3.766q-0.469-0.469-0.797-0.469l-0.188 0.344q0 0.266 0.344 0.609 0.313-0.141 0.641-0.484z"></path>
</svg>
