<!-- Generated by IcoMoon.io -->
<svg version="1.1" xmlns="http://www.w3.org/2000/svg" width="74" height="32" viewBox="0 0 74 32">
<title>surah42</title>
<path d="M73.375 18.531q0-0.422-0.172 2.906-0.016 0.391-0.656 1.984-0.344 0-0.547-0.172v-3.188l-1.953-18.719q0-0.313 0.352-1.188t0.586-0.953q0.203 0.203 1.234 2.133t1.031 2.086v0.734q-0.188 0.172-0.406 0.172-0.188 0-0.406-0.195t-0.344-0.227zM60.656 1.984q0 0.797-0.453 1.453-0.484 0.766-1.219 0.766-0.125 0-0.313-0.070t-0.313-0.070q-0.172 0-0.727 0.266t-0.727 0.266q-1.375 0-1.375-2.75 0-0.344 0.609-0.969 0.281 0.281 0.461 1.117t0.508 1.102q0.422-0.391 0.438-1.031v-1.156q0.047-0.594 0.391-1.016 0.281 0.328 0.516 1.5 0.234 0.969 0.875 1.281 0.063-0.094 0.219-1.547 0.047-0.547 0.484-0.953 0.625 0.734 0.625 1.813zM60.5 10.703q0 0.609-1.172 1.375-0.125 0-0.992-0.555t-1.008-0.555-0.719 0.633-0.734 0.633q-0.375 0-1.273-0.703t-0.898-0.953q0-0.719 1.016-1.484 0.266-0.063 0.813-0.281-0.719-1.047-0.719-1.156 0-0.375 0.383-1.016t0.727-0.641q0.469 0 1.211 0.648t0.742 1.070q0 0.375-0.547 1.063t-0.891 0.688q-0.438 0-0.359-0.078 0.359 0.344 0.875 0.625 0.297-0.156 0.75-0.766 0.359-0.5 0.813-0.5 0.531 0 1.258 0.695t0.727 1.258zM69.781 21.438q0 0.766-0.859 1.969-0.984 1.344-1.891 1.25 0.313-0.594 1.516-2.141v-0.344h-0.953q-0.141 0-0.141-0.313 0-0.328 0.461-0.891t0.977-0.563q0.891 0 0.891 1.031zM52.328 3.938q0 1.109-0.766 1.109-0.094 0-0.313-0.078t-0.344-0.078q-0.172 0-1.313 1.422-1.25 1.625-1.625 1.969-0.531 0.547-1.984 1.609-1.672 1.203-2.016 1.203h-0.625q0.469-0.766 3.109-3.156 2.391-2.141 2.844-3.359-0.359-0.234-1.125-0.719-0.672-0.438-0.672-1.25 0-0.75 0.75-2 0.828-1.406 1.594-1.406 0.984 0 1.484 2.297-0.063 0.313-0.063 0.953 1.063 1.156 1.063 1.484zM42.219 6.078q0 0.359-0.555 0.828t-0.883 0.469q-0.531 0-0.875-0.703-0.297-0.578-0.297-1.016 0-0.563 0.383-1.547t0.789-1.281q0.25 0.219 0.25 0.531 0 0.297-0.234 0.844t-0.234 0.766q0 0.359 0.516 0.891 0.156 0 0.586-0.25t0.555-0.281v0.75zM64.516 21.703q0 0.844-0.891 1.375-0.641 0.406-1.25 0.422-0.172 0-0.68 0.25t-0.695 0.25q-0.203 0-0.703-0.211t-0.672-0.211q-0.422 0-3.031 1.891-0.813 0.359-2.516 1.125h-0.516v-0.297q0.844-0.531 2.813-1.906 0.609-0.5 1.813-1.453 0.906-0.734 1.891-0.734 0.203 0 0.633 0.133t0.633 0.133q0.484 0 1.156-0.969 0.125 0 0.422 0.211t0.438 0.211q0.203 0 0.555-0.344t0.43-0.359q0.172 0.219 0.172 0.484zM41.969 0.234q0 0.594-0.313 0.75-3.609 1.469-7.344 3.25-0.719 0.359-2.703 1.328v-0.766q2.484-2.172 10.016-5.031 0.344 0.328 0.344 0.469zM66.734 14.141q0.172 1.313-0.516 3.078-0.844 2.219-2.469 2.219h-0.953q-0.844 0-2.078-1.25-0.734 0.781-1.469 1.469-0.375 0.328-1.156 0.328-1.359 0-2.094-1.656-0.375 0.375-1.188 1.031-1.422 0.891-2.531 0.891-1.922 0-2.953-2.516h-0.344q-0.391 0-1.398 0.531t-1.336 0.859q-0.078 0.656-0.469 1.938-0.781 1.5-3.031 3.109-4.063 2.859-7.156 2.859-1.891 0-2.961-1.188t-1.070-3.078q0-0.594 0.094-1.203 0.047-0.125-0.172-0.344-4.234 2.375-6.719 3.172-1.781 0-6.25 1.25-0.547 0-1.313-0.156-0.078-0.594 0.453-0.734 1.891-0.578 6.609-2.313 6.75-2.734 10.938-6.391 0.938-0.844 0.938-1.109 0-0.219-1.242-2.805t-1.242-2.805q0-0.453 0.313-1.656 0.031 0 0.203-0.070t0.313-0.070q0.344 0 2.344 1.844v0.609q-0.109 0-0.352 0.078t-0.367 0.078q-0.094 0.094-0.094 0.297 0 0.094 0.531 1.219 0.578 1.219 0.641 1.547t0.063 0.891q0 1.391-0.594 2.656-0.406 0.813-1.672 1.828-1.453 1.156-1.734 1.531-0.438 0.578-0.438 1.813 0 2.766 3.328 2.766 1.859 0 4.875-1.625 3.094-1.703 3.828-3.281-0.188-0.344-0.469-0.344-0.234 0-0.742 0.063t-0.773 0.063q-3.25 0-3.25-2.141 0-1.016 0.688-2.359 0.859-1.734 2.063-1.734 0.969 0 2.258 1.664t1.555 1.664q0.594 0 3.719-1.641h0.641q0 0.531 0.047 0.563 0.031-0.031 0.031-0.078v0.391q0 1.875 2.063 1.875 1.094 0 1.625-0.313 0.922-0.5 2.219-1.969 0.547-0.203 0.641-0.203 0.203 0.219 0.203 0.641 0 0.25-0.078 0.547 0.172 1.156 1.297 1.156 0.672 0 1.438-1.219 0.938-1.453 1.281-1.688 0.141 0.469 0.484 1.281 0.625 1.078 1.781 1.078 1.859 0 1.859-1.234 0-0.172-0.063-0.344l-1.797-14.156q0.234-1.109 0.563-1.984h0.516l2.094 4.203v0.438q-0.297 0.328-0.391 0.328-0.234 0-0.516-0.266-0.328 0.063-0.328 0.531zM50.391 23.031q0 0.797-0.594 1.891-0.094 0.172-1.375 1.406h-0.5v-0.5l1.359-1.828q0-0.203-0.219-0.422-0.375-0.031-0.969 0.297-0.188-0.047-0.188-0.375 0-0.422 0.586-0.938t1.008-0.516q0.891 0 0.891 0.984zM20.234 4.547q0 0.938-0.563 3.219-0.125 0-0.344 0.156 0-1.25-0.25-3.641-0.344-1.563-1.422-2.641-0.203-0.172-0.203-0.688 0-0.781 0.563-0.781 0.438 0 1.156 1.031 0.594 0.859 0.719 1.25 0.344 0.969 0.344 2.094zM30.891 13.063q0 1.5-0.766 2.859-0.531 0.984-5.234 3.688-1.156 0.672-4.172 1.844-1.688 0.469-3.688 0.469-2.063 0-3.664-1.195t-2.039-3.164q-0.375-1.641-0.375-1.516 0-0.203 0.109-0.648t0.109-0.617q0.078-0.734 0.758-2.484t0.68-1.938q0-0.172-0.234-0.594-0.234-0.516-0.297-0.641-0.172-0.547-0.172-1.406 0-1.078 0.641-2.844 0.766-2.125 1.703-2.609v0.625q0.031 0.109-0.344 0.641-0.391 0.625-0.438 0.766-0.453 1.234-0.453 2.188 0 0.625 0.281 1.313 0.344 0.844 0.828 0.844 0.297 0 1.016-1.094h0.484l0.086 0.141t0.086 0.313q0 0.688-1.297 2.266-0.375 0.219-1.031 0.828-1.141 1.672-1.141 3.422 0 2.172 1.406 3.609t3.563 1.438q5.688 0 11.672-4.953 0.094-0.438-0.516-0.438-0.313 0-0.953 0.133t-0.969 0.133q-0.172 0-0.492 0.063t-0.492 0.063q-1.672 0-2.859-0.641-1.5-0.781-1.5-2.313 0-1.328 0.859-3.5 0.156-0.359 2.031-2.781 1.719-2.234 3.266-2.234 0.453 0 1.031 0.516t0.578 0.938q0 0.938-0.453 1.703 0 0.172-0.313 0.172-0.109 0-0.563-0.422t-0.75-0.422q-1.125 0-2.781 2.047-1.516 1.875-1.516 2.656 0 1.797 3.594 1.797 0.406 0 1.422-0.195t1.422-0.195q0.625 0 1.25 0.391t0.625 0.984zM18.984 15.234q0 0.188-1.016 1.109-0.172 0.047-0.438 0.047-1.188 0-1.188-1.672 0-1.922 1.484-3.188 0.063 0.297-0.125 1.109-0.25 0.969-0.25 1.328 0 0.516 0.375 0.891 0.219 0 0.656-0.391h0.5v0.766zM49.844 2.078v-0.516q-0.078-0.141-0.172-0.266h-0.469q-0.313 0.328-0.313 0.5 0 0.188 0.266 0.281l0.344 0.188q0.156-0.156 0.344-0.188zM43.344 16.859q-0.906-0.891-1.297-0.891-0.641 0-0.641 0.672 0.688 0.438 1.172 0.438 0.578 0 0.766-0.219z"></path>
</svg>
