<!-- Generated by IcoMoon.io -->
<svg version="1.1" xmlns="http://www.w3.org/2000/svg" width="61" height="32" viewBox="0 0 61 32">
<title>surah43</title>
<path d="M60.844 3.641q0 0.141-0.469 0.609l-0.844-0.422q-0.219 0.234-0.219 0.344l1.375 14.281q0 3.766-1.109 5.297-0.094 0.016-0.344 0.172-0.078-0.219-0.078-2.344 0-1.172 0.031-3l-1.828-17.422q0-0.344 0.406-1.281t0.641-1.016q0.359 0 0.438 0.172 2 4.047 2 4.609zM49.219 1.219q0 0.672-0.422 1.328-0.469 0.75-1.109 0.75-0.141 0-0.375-0.148t-0.391-0.148q-0.188 0-0.18 0.086t-0.055 0.102q-0.547 0.516-1.281 0.516-1.188 0-1.188-1.938 0-0.984 0.5-1.656 0.172 0.172 0.313 1.219 0.094 0.859 0.719 0.859 0.266 0 0.516-0.375 0.031-0.141 0.031-0.297 0-0.188-0.117-0.594t-0.117-0.609q0-0.484 0.453-1.031 0.359 0.766 1.156 2.359h0.594q-0.156-0.938-0.156-1.547 0-0.719 0.203-0.969 0.234 0.172 0.57 0.977t0.336 1.117zM50.063 6.125q0 0.359-0.57 0.977t-0.914 0.617q-0.484 0-1.672-1.281-0.047-0.016-0.047-0.313 0-0.375 0.5-0.914t0.875-0.539q0.469 0 1.148 0.508t0.68 0.945zM40.781 0.234q0 1.391-2.719 2.219l-0.734-0.172q0-0.266 0.5-0.641 0.813-0.594 0.859-0.641-0.156-0.344-0.813-0.344-0.203 0.094-1.531 0.594l-0.266-0.172q0.688-1.797 2.484-1.797 2.219 0 2.219 0.953zM39.938 5.656q0 0.313-0.516 0.977t-0.734 0.664-1.781-1.125q-0.016-0.484 0.344-1.156 0.422-0.766 0.891-0.766 0.344 0 1.070 0.539t0.727 0.867zM54.188 22.125q0 1.844-2.5 3.016 0.188-0.875 1.266-1.984-0.109-0.516-0.688-0.516v-0.438q0-0.234 0.492-0.641t0.742-0.406q0.688 0 0.688 0.969zM34.672 4.625l-0.344 0.313q-0.125-0.016-0.594-0.313-0.391-0.219-0.594-0.219-0.172 0-1.547 1.375-1.672 1.641-2.359 2.188h-0.641q1.172-1.375 3.328-4.141-1.266-1.375-1.266-1.641 0-0.594 0.641-1.547 0.719-1.094 1.453-1.094 0.688 0 0.781 1.375 0.031 0.531 0.063 1.563 0.063 0.125 0.609 0.703 0.469 0.516 0.469 0.688v0.75zM27.313 2.266q0 0.438-0.484 0.805t-0.672 0.367q-0.422 0-0.734-0.547-0.297-0.453-0.297-0.922 0-0.547 0.414-1.555t0.789-1.398q0 0.313-0.109 1t-0.109 0.984q0 0.5 0.469 0.891 0.141-0.156 0.734-0.375v0.75zM55.156 3.813l-0.328 0.297q-0.484-0.172-0.828-0.547-0.172 0.172-0.234 0.422l1.266 9.969q0 4.031-2.125 5.219-0.234 0.125-3.828 1.406-2.594 0.922-4.094 2.578-2.922 3.234-4.547 3.234-0.578 0-1.461-0.523t-1.086-1.023q-0.313-0.844-0.313-1.766 0-1.297 1.406-4.469-0.078-0.109-0.297-0.109-0.25 0-2.375 1.188-1.328 0.719-2.828 2.438-1.172 1.359-2.328 2.719-1.563 1.547-3.063 1.547-1.344 0-2.359-0.984-0.891-0.844-0.641-2.672 0.078-0.359 0.172-1.125v-0.5q-0.078-0.047-0.188-0.047-0.359 0-1.391 0.438-1.125 0.5-1.516 0.578-3.969 0.859-5.844 0.859-2.672 0-4.594-1.031-2.516-1.359-2.516-4.141 0-0.219 0.75-1.922t0.75-1.813q0-0.172-0.172-0.461t-0.203-0.352q-0.172-0.547-0.172-1.625 0-1.922 1.156-4.484 1.063-2.313 2.469-3.938h0.516v0.641q-0.125 0.172-1.031 1.672-1.156 1.875-1.547 3.297-0.172 0.672-0.172 1.422 0 1.953 0.984 1.953 0.141 0 1.25-1.531h0.516q0.156 0.031 0.156 0.344 0 1.094-0.891 2.266-0.391 0.5-1.922 1.453-0.938 0.594-0.938 2.234 0 1.922 2.266 2.984 1.766 0.813 3.984 0.813 1.234 0 1.234-2.75 0-1.234-0.766-3.141t-0.766-2.25q0-2.125 1.531-2.781-0.047-0.109-0.313-0.109-0.281 0-0.766 0.109v-0.453q0-0.344 0.516-0.844t0.828-0.5q0.547 0 1.188 0.672t0.641 1.188q0 0.813-0.859 1.188-0.547 0.203-1.656 0.641 0.516 1.359 1.188 4.141 0.016 0.188 0.016 0.578 0 1.156-0.234 3.938 0.094 0.109 0.484 0.109 0.219 0 0.797-0.156 0.656-0.172 0.859-0.188 3.203-0.406 7.875-3.156 0.391-0.219 0.391-0.688-0.688-0.516-1.625-0.516-0.172 0-0.563 0.070t-0.594 0.070q-1.016 0-1.75-0.609t-0.734-1.594q0-1.219 0.828-2.422 0.922-1.328 2.078-1.328 1.453 0 2.734 2.578 1 2.078 1 3.109 0 0.734-0.492 1.805t-1.086 1.445q-0.828 0.422-2.281 1.547-0.719 0.813-0.719 2.313 0 2.141 1.453 2.141 1.156 0 1.906-0.828 1.25-1.438 3.047-3.422 1.938-2.047 3.172-2.734 0.906-0.516 2.344-1.531-0.969-0.781-2.438-2.281-0.469-0.641-0.469-1.703 0-1.484 1.719-2.266 1.313-0.594 2.703-0.594 3.922 0 10.219 1.953 0.156 0.391-0.055 1.070t-0.555 0.961q-0.516 0.469-3.578 1.875-1.344 0.594-4.813 2.219-0.406 0.219-0.672 1.063-0.391 1.219-0.469 1.344-0.906 1.688-0.906 2.672 0 2.203 1.531 2.203 1.469 0 4.328-3.719 2.141-2.781 7.063-3.516 0.438-0.047 1.234-0.516 1.047-0.609 1.047-1.234l-1.5-13.094q0-0.25-0.281-1t-0.281-1.016q0-0.422 0.336-1.094t0.695-0.672q0.391 0 1.453 2.078 0.969 1.984 0.969 2.25v0.469zM25.953 6.047q0 0.344-0.477 1.008t-0.758 0.664q-0.438 0-1.188-0.563t-0.75-0.953q0-0.375 0.43-1.016t0.805-0.641q0.344 0 1.141 0.641t0.797 0.859zM21.109 0.656q0 0.688-0.688 0.688-0.156 0-0.438-0.070t-0.422-0.070q-0.328 0.469-0.5 2.156-0.141 1.609-0.609 2.141-0.375-0.047-0.813-1.094-0.25-0.594-0.734-1.703-0.234-0.516-1.406-0.969-0.625-0.234-0.625-0.953 0-0.953 0.766-0.953 0.688 0 1.578 1.031 0.766 0.859 1.063 1.594 0.234-0.953 1.047-2.828 0.531-0.203 0.531-0.219 0.344 0 0.797 0.469t0.453 0.781zM22.75 23.594q0 0.344-6.125 2.797h-0.469q-0.094-0.828 0.859-1.219 0.234-0.078 1.359-0.469 3.547-1.625 3.641-1.625h0.734v0.516zM32.578 2.031q0-0.469-0.344-0.813 0 0.031-0.102 0.164t-0.102 0.305q0 0.344 0.547 0.344zM45.328 13.047q-4.016-1.188-7.031-1.188-1.109 0-1.688 0.172 0 0.094 0.172 0.609 1.016 1.047 2.641 2.953 1.594-0.266 5.906-2.547zM27.313 13.391q0-0.328-0.344-0.648t-0.672-0.32q-0.609 0-0.609 0.641 0.141 0.094 0.438 0.328h1.188z"></path>
</svg>
