<!-- Generated by IcoMoon.io -->
<svg version="1.1" xmlns="http://www.w3.org/2000/svg" width="86" height="32" viewBox="0 0 86 32">
<title>surah44</title>
<path d="M85.563 17.156q0 4.531-1.031 5.484-0.5-0.266-0.5-1.25 0.031-1.484 0.047-1.563 0.078-0.469 0.109-1.281-0.734-5.656-1.5-12.984-0.078-0.766-0.344-3.016-0.234-1.969-0.234-2.141 0-0.516 0.891-2.016 0.516 0.5 1.438 2.344 0.859 1.703 0.859 1.969 0 0.172-0.086 0.344t-0.086 0.203q-0.172 0-0.492-0.078t-0.477-0.078zM70.047 3.391q0 0.609-0.406 1.375-0.469 0.844-1.031 0.844-0.125 0-0.211-0.063t-0.211-0.063-0.781 0.328-0.875 0.328q-1.031 0-1.031-1.641 0-0.547 0.391-1.656 0.125 0.594 0.547 1.625 0.313 0.172 0.297 0.172 0.531 0 0.609-0.953 0.078-1.313 0.125-1.375 0.328 0 0.672 0.641 0.406 0.813 0.469 0.859 0.313-0.281 0.297-1.016t0.406-1.063q0.734 1.016 0.734 1.656zM66.453 1.563q-0.531 0.063-1.391 0.344-0.938 1.172-3.063 3.109-0.641 0.297-1.813 0.859h-0.641q0-0.375 0.141-0.469 4.141-2.953 4.141-3.813 0-0.094-0.344-0.609t-0.344-0.766q0-0.563 0.359-1.375 0.531-1.109 1.281-1.109t0.875 1.125q0.047 0.469 0.141 1.375 0.297 0.25 0.656 0.719v0.609zM81.828 21.688q0 0.625-0.695 1.734t-1.305 1.422h-0.609q0.531-0.797 1.5-2.406-0.109-0.094-0.516-0.094h-0.453v-0.594q0-0.297 0.492-0.664t0.82-0.367q0.234 0 0.5 0.344t0.266 0.625zM64.094 9.844q0 0.344-0.492 1.031t-0.805 0.688q-1.063 0-1.063-1.453 0-0.656 0.563-2.094 0.625-1.547 1.109-1.547-0.641 2.266-0.688 2.453 0 0.422 0.25 0.875 0.313 0 0.953-0.297 0.172 0.016 0.172 0.344zM56.766 8.047q0 0.344-0.484 0.898t-0.828 0.555q-0.188 0-2.141-1.141 0-1.922 1.188-1.922 0.422 0 1.344 0.609t0.922 1zM79.188 16.266q0 2.141-0.844 3.672-1.078 2.016-3.313 2.016-1.266 0-2.078-1.359-0.484-1.203-1.031-2.391-0.078 0.078-0.172 0.234-0.297 1.719-3.734 3.859-3.25 2.016-4.875 2.016-2.781 0-2.781-3.203 0-0.531 0.984-3.547v-0.359q-0.094-0.109-0.281-0.109-0.344 0-3.469 1.344-3.766 1.594-6.734 2.453-4.609 1.328-8.547 1.328-2.016 0-4.156-1.031-2.734-1.313-3.031-3.719-0.375-2.438-1.031-8.734-0.047-1.281-0.266-3.297 0.047-0.219 0.047-0.719-0.797-4.078-0.797-3.547 0-0.563 0.594-1.766h0.516q1.063 3.047 1.328 6.844l0.563 7.188q-0.047 0.344-0.047 0.938 0.047 0.219 0.203 0.563 0.125 4.938 7.5 4.938 0.469 0 1.43-0.070t1.43-0.070q-0.125 0 1.625-0.344 5.563-1.125 10.344-3.625-2.344-1.156-3.516-1.156-0.234 0-0.906 0.289t-0.891 0.289q-0.422 0-1.289 0.133t-1.305 0.133q-0.344 0-0.813-0.469 0.297-2.391 4.734-3l8.641 2.094h4.422q0.047 0 0.078 0.016 0.125 0.125 0.125 0.375 0 0.609-0.766 1.75-0.25 0.188-0.906 0.188-0.125 0-0.375-0.070t-0.375-0.070q-1.672 0-2.484 0.313-0.438 0.172-0.984 1.656-0.484 1.328-0.484 1.969 0 0.719 0.586 1.234t1.305 0.516q1.844 0 4.797-1.891 3.281-2.156 3.281-4.219 0-0.359-1.156-3.984l-1.188-3.688q0-0.203 0.25-0.688 0.141-0.359 0.344-0.75 0.641 0.297 0.859 0.719 1.422 2.688 2.578 9.156 0.547 2.984 2.391 2.984 0.891 0 1.656-0.422 0.875-0.516 0.781-1.359l-2.219-17.172q0.125-0.719 0.75-1.953 2.156 2.594 2.156 3.797v0.734q-0.141 0.078-0.313 0.078-0.25 0-0.563-0.172-0.234 0.219-0.234 0.484 0 0.688 0.719 4.828 0.938 5.391 0.938 7.828zM58.703-0.969q-0.141 0.375-0.516 0.891-0.891 0.547-3.125 1.297-3.563 1.219-5.125 1.953-0.406 0.188-0.703 1.156-0.344 1.109-0.344 1.422 0 0.563 0.359 0.984 0.156-0.125 1.109-0.828v0.766q0 0.313-0.492 1.016t-0.789 0.703q-0.438 0-0.867-0.641t-0.43-1.078q0-0.328 0.258-1.227t0.273-1.273q-0.094-0.063-0.344-0.063-0.531 0-6.313 2.656-0.938 0.438-1.75 1.297 0.188 0.297 0.391 0.922v0.734q-0.172 0.188-0.563 0.188-0.969 0-0.969-1.172 0-0.375 0.359-1.133t0.656-0.961q1.172-0.766 3.469-2.094 4.531-2.063 6.766-2.875l7.953-2.953h0.422zM44.313 0.406l-0.297 0.766h-0.453q0.109 0-0.703-0.391-0.5 0.266-0.75 1.406-0.266 1.25-0.641 1.766-0.531-0.766-1.844-2.188-0.484-0.172-1.391-0.609 0.094-0.5 0.172-0.984 0.172-0.5 0.703-0.5 0.625 0 2.25 1.781 0.266-0.063 0.688-1.234 0.391-1.109 0.938-1.109 0.359 0 0.844 0.492t0.484 0.805zM58.141 21.734q0 0.984-0.75 1.859t-1.719 1.25v-0.453q0-0.172 0.531-0.844 0.656-0.813 0.828-1.109 0.078-0.234-0.266-0.234h-1.094q0.125-1.484 1.516-1.484 0.953 0 0.953 1.016zM45 13.563q0 0.438-0.469 1.297-0.563 0.984-1.109 0.984-1.188 0-1.188-1.984 0-0.938 0.594-2.594 0.641-1.813 1.281-2.188 0.203 0.016 0.203 0.344 0 0.297-0.555 1.695t-0.555 1.695q0 0.469 0.516 0.969 0.188-0.078 0.547-0.336t0.563-0.336l0.086 0.148t0.086 0.305zM29.188 2.531q0 0.297-0.555 1.133t-0.789 0.836q-1.109 0-1.109-1.797 0-0.688 0.344-1.719 0.391-1.188 0.828-1.453 0.078 0.125 0.078 0.344 0 0.359-0.219 1.086t-0.219 0.93q0 0.813 0.563 0.813 0.172 0 0.563-0.313t0.516-0.359v0.5zM46.516 23.75q0 0.766-0.984 1.883t-1.734 1.289l-0.328-0.344q0.438-0.406 1.313-1.172 0.703-0.656 0.641-1.141-0.125-0.047-0.297-0.047-0.375 0-0.922 0.219-0.188-0.031-0.188-0.344 0-0.391 0.539-1t0.93-0.609q1.031 0 1.031 1.266zM23.266 1.391q-0.047 0.109-0.453 0.891-0.469 0-1-0.547-0.516 0.328-0.688 1.734-0.172 1.625-0.516 2.141-0.406-0.031-0.844-1.281-0.5-0.969-1.031-1.313-0.5-0.234-1.531-0.75-0.172-0.766-0.172-0.594 0-0.297 0.25-0.742t0.516-0.445q0.859 0 2.391 1.953 0.188 0 0.266-0.109 0.813-2.266 1.547-2.266 0.297 0 0.781 0.531t0.484 0.797zM23.672 10.188q0 0.531-0.461 1.102t-0.977 0.57q-1.047 0-1.047-1.625 0-0.516 0.75-2.516 0.172-0.484 0.734-0.703l0.172 0.641q-0.688 1.344-0.688 1.688 0 0.625 0.359 0.969 0.344-0.203 0.969-0.547 0.188 0.203 0.188 0.422zM35.031 21.875q0 0.688-0.922 1.141-0.563 0.234-1.469 0.641-1.75 1.125-4.031 2h-0.625q0.031-0.469 0.328-1.078 1.859-1.156 6.516-3.188 0.203 0.188 0.203 0.484zM31.016 16.484q0 1.953-1.031 3.328-1.234 1.625-5.172 3.477t-6.063 1.852q-2.438 0-4.125-1.297-1.875-1.406-1.875-3.766 0-1 1.203-4.875 0.094-0.344-0.094-1.078-0.219-0.859-0.25-1.109-0.125-1.719 0.125-2.781 1.031-4.266 2.953-6.422 0.203 0.141 0.344 0.141v0.5q-0.016-0.125-1 2.359l-0.969 2.391q-0.094 0.359-0.094 1.672 0 2.094 0.766 2.094 0.219 0 1.422-1.406 0.297 0.203 0.297 0.563 0 0.75-0.906 2.297-0.172 0.344-1.625 1.063-0.938 0.484-0.938 3.063 0 4.234 5 4.234 1.984 0 5.703-1.547 0.984-0.422 2.781-1.531 2.438-1.516 2.438-2.313 0-0.109-0.781-1.844-0.875-1.891-1.109-2.781-0.031-0.125-0.031-0.781 0-0.25 0.078-0.758t0.078-0.742q0.063-0.172 0.391-0.172 0.219 0 1.938 2.141-0.391 0.781-0.422 0.781 0 0.156 0.375 1.063 0.438 1.125 0.547 1.469 0.047 0.172 0.047 0.719zM23.672 16.75q0 0.406-0.375 1.008t-0.719 0.602q-0.297 0-1.258-0.688t-0.961-0.922q0-0.266 0.531-0.914t0.766-0.648q0.453 0 1.234 0.586t0.781 0.977zM64.563-0.234v-0.359h-0.25v0.359h0.25z"></path>
</svg>
