<!-- Generated by IcoMoon.io -->
<svg version="1.1" xmlns="http://www.w3.org/2000/svg" width="81" height="32" viewBox="0 0 81 32">
<title>surah46</title>
<path d="M80.141 7.828q-0.25 0.109-0.5 0.109-0.188 0-0.391-0.094-0.266 0.25-0.203 1.25l0.672 10.641q0.094 1.281-0.469 3.469-0.516 1.969-1.156 2.359l-0.719-16.828q-0.016-0.563-0.141-2.141l-0.125-1.578q0-0.391 0.445-1.305t0.758-0.992q0.344 0.469 1.453 3.234 0.313 0.828 0.375 0.984v0.891zM59.094-3.484q-0.422 0.938-4.188 2.891h-0.469q-0.203-0.203-0.203-0.422 0-0.5 0.469-0.766 3.125-1.875 3.422-1.875 0.172 0 0.484 0.086t0.484 0.086zM60.313 1.422q-0.984 0.891-1.641 0.891-0.219 0-0.688 0.133t-0.688 0.133q-0.203 0-0.406-0.047-0.984-1.234-0.984-1.547 0-0.453 0.875-1.297t1.344-0.844q0.984 0 0.984 0.828 0 0.906-0.828 1.031 2.234 0 2.031-0.016v0.734zM74.172 7.547q-0.344 0.172-0.984 0.156 0 1.578 0.234 4.891l0.219 3.203q0 8.344-5.891 9.984-3.047 0.891-4.203 0.891-0.516 0-0.719-0.203 0-0.313 0.203-0.438 2.563-1.156 5.234-2.625 1.609-0.891 2.141-1.672 0.063-0.078 0.063-0.813 0-1.313-0.328-1.922-0.141-0.297-1.672-2.469-2.563-2.672-5.172-5.656-0.688-0.797-2.563-3.578-1.922-2.875-1.922-3.391 0-1.594 0.688-1.594 0.453 0 1.891 1.156t1.703 1.641v0.641q-0.094 0-0.289 0.078t-0.289 0.078q-0.078 0.094-0.078 0.266 0 0.391 3.891 4.844 4.141 4.703 4.75 6.578 0.297 0.859 0.594 2.703 0.438-0.344 0.438-2.219l-0.688-7.797v-4.578q0-0.125-0.133-0.336t-0.133-0.352q0-0.266 0.344-1.156 0.391-1.016 0.703-1.016 0.516 0 1.313 1.844 0.656 1.656 0.656 1.984v0.875zM75.734 23.828q0 0.641-0.852 1.633t-1.492 1.055q-0.172-0.016-0.172-0.344 0-0.219 1.109-1.391 0-0.313-0.688-0.641 0.734-1.359 1.297-1.359 0.797 0 0.797 1.047zM52.594 0.641q0 0.188-0.148 0.422t-0.148 0.266h-0.594q-0.141 0.016-0.352-0.203t-0.336-0.219q-0.328 0.313-0.672 1.984-0.344 1.75-0.828 2.328-0.5-0.109-0.969-0.984-0.656-1.313-0.703-1.359-0.297-0.391-1.266-0.797-0.75-0.344-0.75-0.953 0-1.031 0.813-1.031 0.859 0 1.688 1.063 0.5 0.641 1.156 1.563 0.328-0.141 0.422-0.906 0.344-2.688 1.375-2.688 0.422 0 0.867 0.547t0.445 0.969zM57.016 8.609q0 0.953-1.688 1.969-1.453 0.844-2.266 0.844h-0.75q0.172-0.578 0.969-0.984 1-0.578 1.25-0.875-0.422-0.469-1.594-0.469-0.469 0-1.844 0.531v-0.453q0-0.313 0.938-1.063 0.859-0.703 1.172-0.781 0.219-0.047 0.766-0.047 0.766 0 1.75 0.313 1.297 0.406 1.297 1.016zM43.453 0.359q-3.688 1.578-11 4.969-0.188-0.141-0.344-0.141v-0.766q2.125-1.469 5.359-2.797 1.828-0.75 5.469-2.219 0.172 0 0.516 0.297v0.656zM45.375 6.813q0 0.422-0.5 0.938t-0.922 0.516q-0.172 0-0.914-0.422t-0.914-0.422q-0.25 0-0.688 0.617t-0.891 0.617q-0.391 0-1.164-0.555t-0.773-0.867q0-0.281 0.344-0.859 0.391-0.75 0.844-0.75 0.172 0 1.008 0.484t0.977 0.484q0.172 0 0.852-0.633t0.82-0.633q0.469 0 1.195 0.523t0.727 0.961zM30.859 2.156q0 0.422-0.422 0.844t-0.844 0.422q-0.953 0-0.953-1.453 0-0.469 0.414-1.383t0.789-1.039q0.172 0.328 0 0.844-0.25 0.688-0.25 0.891 0 0.609 0.5 0.609 0.141 0 0.344-0.063t0.25-0.063q0 0.031 0.016 0.031 0.156 0.109 0.156 0.359zM65.469 16.859q-0.031 1.813-1.922 1.813-0.25 0-0.703-0.023t-0.703-0.023q-0.734 0-1.156 0.203-0.641 0.172-2.219 0.688-2.016 0.859-6.094 2.531-3.313 1.313-5.969 1.313h-1.422q-0.594-0.109-2.188-0.75-0.328-0.125-1.203-0.945t-1-0.82q-0.109 0-1.563 0.609-1.609 0.688-2.297 0.891-3.844 1.156-7.359 1.156-1.938 0-5.594-1.672 0.328 0-1.719 0.516-2.859 0.719-4.656 0.719-2.188 0-3.781-1.234-1.75-1.328-1.75-3.469 0-0.688 0.422-2.117t0.422-2.117q0-0.438-0.289-1.367t-0.289-1.367q0-3.344 2.266-6.578h0.469q0.172 0.156 0.172 0.469-1.375 3.109-1.375 4.781 0 2.063 1.109 2.063 0.266 0 0.766-0.781l0.516-0.844h0.641l0.086 0.141t0.086 0.313q0 0.875-1.484 2.797-0.531 0.297-1.469 0.922-0.516 0.453-0.516 2.031 0 2.547 2.578 3.531 1.313 0.484 1.547 0.484h1.109q0.813 0 2.266-0.313 1.891-0.406 1.891-1.016 0 0.953-0.305-1t-0.352-3.016q-0.094-2.234-0.5-8.016-0.063-0.797-0.578-3.547l-0.469-2.469q0-0.516 0.578-1.406h0.5q0.688 1.344 1.359 5.891 0.188 1.297 0.406 6.922 0.281 6.438 1.859 6.438 0.578 0 3.313-1.344 2.906-1.453 2.906-2.094 0-0.844-1.109-0.844-0.234 0-0.719 0.063t-0.703 0.063q-2.984 0-2.984-2.266 0-1.234 0.891-2.453t2.094-1.219q1.578 0 2.781 2.25 1.016 1.891 1.016 3.344 0 2.391-1.219 3.5-0.594 0.594-3.906 2.328 0.344 0.625 2.484 0.625 2.453 0 6.688-1.188 0.453-0.125 1.328-0.383t1.359-0.742q0-0.109-0.266-1.609-0.156-1-0.078-1.688 0.156-1.016 0.734-2.203 0.875-1.734 2-1.734 1.297 0 2.063 1.813 0.578 1.313 0.578 2.344 0 0.734-0.531 2.094-0.578 1.469-1.156 1.719 0.984 1.422 3.703 1.422h1.547q0.641 0 3.906-1.156 3.109-1.078 4.016-1.563 0-0.125-0.25-0.281-0.516-0.125-2.453-0.688-1.594-0.438-1.797-0.438-0.547 0-1.664 0.266t-1.68 0.266h-1.266q-0.172-0.219-0.172-0.484 0-0.844 0.719-1.531 0.375-0.313 1.922-0.828 1.406-0.469 1.672-0.469 0.172 0 1.531 0.406 1.719 0.578 2.141 0.672 5.359 1.25 7.609 1.25 0.234 0 0.742-0.063t0.758-0.063q0.734 0 1.328 0.578zM29.063 5.563q0 0.391-0.531 0.992t-0.922 0.602q-0.203 0-1.578-1.016 0.438-1.906 1.375-1.906 0.375 0 1.016 0.5t0.641 0.828zM41.25 23.5q0 0.469-0.695 1.367t-1.164 1.117l-0.781-0.203q0.422-0.516 1.234-1.391-0.078-0.156-0.523-0.391t-0.445-0.375q0-0.328 0.492-0.719t0.836-0.391q1.047 0 1.047 0.984zM24.063 23.375q-0.203 0.453-0.719 1.031-0.813 0.422-5.734 2.531-0.172-0.188-0.172-0.422 0-0.469 2.688-1.781 1.063-0.516 3.172-1.531zM43.609 16.703q0-0.469-0.469-1.344-0.594-1.156-1.359-1.156-1.109 0-1.109 1.328 0 0.313 0.422 1.281 0.469 1.156 0.906 1.156 0.281 0 0.945-0.492t0.664-0.773zM29.875 12.203q-0.594-0.609-1.031-0.609-0.375 0-0.75 0.609 0.375 0.266 0.938 0.297 0.625 0 0.844-0.297z"></path>
</svg>
