<!-- Generated by IcoMoon.io -->
<svg version="1.1" xmlns="http://www.w3.org/2000/svg" width="69" height="32" viewBox="0 0 69 32">
<title>surah47</title>
<path d="M66.453 2.625q-0.281 0.047-0.625-0.023t-0.469-0.070q-0.188 0-1.578 0.984-1.672 1.156-2.234 1.469h-0.609q0.359-0.359 1.984-1.859 1.188-1.094 1.188-1.313 0-0.094-0.813-0.984-0.031-0.188-0.031-0.516 0-0.641 0.633-1.5t1.242-0.859q0.469 0 0.805 0.602t0.305 1.117q0 0.203-0.086 0.617t-0.086 0.633q0 0.063 0.188 0.305t0.188 0.367v1.031zM55.391 6.047q0 0.156-0.086 0.391t-0.086 0.344q-0.016 0-0.156 0.086t-0.313 0.086q-0.141 0-0.477-0.203t-0.461-0.203q-0.344 0.516-0.688 2.406-0.297 1.719-0.828 2.297-0.375-0.063-0.766-0.813-0.469-0.891-0.813-1.094-0.516-0.141-1.531-0.766-0.172-0.188-0.172-0.734 0-1.031 0.922-1.031 0.344 0 1.141 0.594t0.938 0.938q0.125 0 0.281-0.25 0.125-0.672 0.422-1.922 0.359-1.578 1.078-1.578 0.469 0 1.031 0.508t0.563 0.945zM44.438 1.219q0 0.328-0.531 0.82t-0.844 0.492q-1.109 0-1.109-1.453 0-0.469 0.375-1.453 0.469-1.156 0.906-1.25 0.047 0.109 0.047 0.266 0 0.219-0.148 0.672t-0.148 0.703q0 0.469 0.453 0.844 0.813-0.391 1-0.391v0.75zM59.828-1.438q0 0.844-0.672 1.141-2.281 1.078-6.672 2.703-4.594 1.719-6.688 2.656-5.781 2.531-13.609 6.719-0.203-0.188-0.203-0.531 0-1.188 1.656-2.172 0.75-0.391 2.266-1.188 3.953-2.203 8.922-4.25 2.719-1.109 8.109-3.281 1.672-0.609 6.094-2.266h0.469q0.328 0.328 0.328 0.469zM62.703 22.172q0 0.891-1.328 2.18t-2.234 1.383v-0.5q0.875-0.766 2.328-2.297-0.188-0.203-0.266-0.219-0.375 0-0.938 0.297-0.172-0.203-0.172-0.422 0-0.453 0.578-0.992t1-0.539q1.031 0 1.031 1.109zM38.484-1.359q0 0.641-0.734 0.938-1.969 0.766-7.047 2.969-1.844 0.969-6.672 3.422-0.484 0.063-0.484-0.609t0.594-0.984q1.641-0.906 7.031-3.453 5.688-2.672 6.297-2.672h0.875l0.070 0.109t0.070 0.281zM45.969 16.516q0 0.734-0.641 1.625-0.672 0.984-1.375 0.984-1.578 0-1.578-2.344 0-0.984 1.813-4.844h0.531v0.516q0 0.141-0.328 0.813-0.391 0.734-0.469 0.953-0.313 0.891-0.313 1.797 0 0.297 0.281 0.664t0.547 0.367q0.172 0 0.547-0.438 0.469-0.547 0.641-0.672 0.344 0.344 0.344 0.578zM34.047 6.172q0 1.453-0.703 1.969-0.688 0.094-1.797 0.375-1.109 0.484-1.234 0.516-1.234 0-1.234-1.609 0-0.578 0.453-1.688h0.453q0.156 0.125 0.156 0.359 0 0.109-0.047 0.313t-0.047 0.313q0 0.359 0.359 0.641 0.75-0.25 0.75-0.813 0-0.203-0.078-0.586t-0.078-0.57q0-0.172 0.031-0.375 0.125 0 0.383-0.063t0.398-0.063q0.125 0.609 0.688 1.922 0.453-0.094 0.453-0.469 0-0.172-0.141-0.508t-0.141-0.398q0-0.375 0.641-0.969 0.156 0.078 0.422 0.297 0.016 0.203 0.164 0.695t0.148 0.711zM68.125 17.125q0 0.563-1.203 1.828-0.078 0.047-0.594 0.047-0.219 0-0.664-0.078t-0.664-0.078q-0.203 0.031-1.922 0.406-2.078 0.406-3.328 0.875-6.109 2.359-8.688 2.953-3.156 0.75-7.922 0.75-1.563 0-5.547-0.594-0.781-0.297-3.172-0.797-0.141 0.5-0.516 1.484-0.516 1.297-1.156 1.297-1.578 0-1.969-2.438-0.078-1.344-0.125-2.672-0.469 0.609-1.594 1.75-1.281 1-2.391 1-3.547 0-4.141-4.078-0.016-0.063-0.141-0.203-0.969 1.75-4.109 3.891-3.234 2.188-5.125 2.188-1.375 0-2.188-1.063-0.719-0.953-0.719-2.375 0-1.656 0.766-3.891l0.766-2.219q0-0.156-0.344-0.914t-0.344-0.93q0-1.656 1-4.984 1.141-3.766 2.25-4.109 0.484 0 0.484 0.422 0-1.25-0.906 1.266-0.641 1.797-1.281 4.078-0.031 0.125-0.031 1.109 0 1.453 0.516 2 0.844 0.172 1.156-1.234h0.672v0.641q0 1.031-1.109 2.219-0.438 0.438-1.359 1.375-1.125 2.188-1.125 3.563 0 2.563 2.094 2.563 1.75 0 4.922-2 3.375-2.109 3.375-3.656 0-0.156-0.516-2.141-0.125-0.578-0.516-2.078-0.281-0.609-0.844-1.844-0.766-1.641-0.766-2.391 0-0.828 0.469-1.516h0.469l1.453 2.656q1.328 2.391 1.672 4.281 0.172 1.203 0.547 3.609 0.531 3.281 2.953 3.281 1.203 0 2.281-0.938 0.516-0.438 1.531-1.719 0.719-0.938 1.078-0.938 0.125 0.141 1.203 1.25 1.359 1.359 2.766 2 0.391 0.172 1.375 0.594 4.531 0.984 6.234 0.984h1.156q2.953 0 6.938-0.797 4.328-0.828 6.641-2.031 0.031-0.078-0.125-0.156-1.078-0.391-3.094-0.641-0.891-0.078-1.797-0.172-1.531-0.172-1.703-0.391-0.063-0.125-0.063-0.297 0-1.75 3.984-3.688 2.922-1.438 4.063-1.609-0.578-1.859-0.578-2.328 0-0.797 0.789-1.742t1.586-0.945q0.859 0 2.578 1.281 1.844 1.359 1.844 2.391 0 0.234-0.344 1.25-0.172 0.563-0.688 0.859-0.766 0.203-2.063 0.641-0.172 0.047-0.688 0.406t-0.641 0.359q-0.156 0-0.336-0.070t-0.305-0.070q-0.469 0-2.188 0.531-2.078 0.641-2.719 1.266 0.625 0.313 1.453 0.406 7.188 0.719 10.656 0.719 0.625 0 0.625 0.344zM39.328 14.938q-1.109 1.703-1.578 1.703-1.188 0-1.188-1.531 0-2.141 1.406-3.297h0.516q-0.125 0.391-0.516 1.453-0.297 0.734-0.297 0.953 0 0.625 0.344 0.625 0.172 0 0.531-0.203t0.453-0.203q0.078 0.156 0.328 0.5zM20.766 1.219l-0.328 0.328q-0.359-0.297-1.109-0.844-0.563 0.578-0.781 1.625-0.328 1.438-0.594 1.969h-0.469q-0.438-1.156-0.641-1.547-0.531-1.063-1.172-1.453-0.281-0.016-0.844-0.25t-0.563-1q0-1.109 0.828-1.109 0.75 0 1.484 0.906l1.078 1.438q0.391-0.078 0.773-1.289t0.945-1.211q0.375 0 0.883 0.531t0.508 0.906v1zM28.938 13.734q0 0.578-0.531 1.188t-1.125 0.609q-1.109 0-1.109-1.453 0-1.578 1.328-2.688 0.047 0.141 0.047 2.234-0.016 0.031-0.047 0.031 0.047 0.078 0.281 0.078-0.156 0 0.953-0.547 0.203 0.203 0.203 0.547zM22.281 23.234q0 0.688-3.516 2.25h-0.594q-0.172-0.016-0.172-0.344 0-0.703 0.75-1.094 2.594-1.453 2.797-1.453h0.734v0.641zM23.125 24.469q-0.344 0.891-1.75 1.484-0.828 0.344-2.516 1.031l-0.086-0.148t-0.086-0.289q0-0.422 0.594-0.984 0.156-0.047 0.844-0.375 0.609-0.313 2.234-1.078h0.469zM62.578 10.609q-1.453-1.156-2.313-1.313-0.313 0.328-0.313 0.563 0 0.344 0.5 0.867t0.875 0.523q0.719 0 1.25-0.641z"></path>
</svg>
