<!-- Generated by IcoMoon.io -->
<svg version="1.1" xmlns="http://www.w3.org/2000/svg" width="71" height="32" viewBox="0 0 71 32">
<title>surah48</title>
<path d="M70.484 17.328q0 3.563-1.25 5.578-0.266-0.344-0.266-1.047v-4q0-0.188-0.469-4.281-0.328-2.875-0.734-9.547-0.031-0.375-0.25-1.195t-0.219-1.164q0-0.422 1.031-2.141 2.141 3.188 2.141 4.203v0.734q0.078 0.172-0.25 0.172l-0.859-0.141zM59.266 0.281q0 0.797-1.375 1.344-0.563 0.188-1.672 0.578-0.453 0.172-1.969 0.813-1.75 0.797-6.281 2.734-0.172-0.188-0.172-0.563 0-0.734 0.594-1.031 2.188-1.109 6.094-2.781 3.656-1.578 3.922-1.578h0.688q0.172 0.203 0.172 0.484zM56.516 6.859q0 0.797-1.406 1.531-0.281 0-1.625-0.984-0.031-0.078-0.031-0.156 0-0.484 0.492-1.141t0.961-0.656q0.297 0 0.953 0.57t0.656 0.836zM45.844 3.25q0 1.391-1.375 1.391-0.984 0-0.984-1.328 0-0.594 0.422-1.625 0.516-1.25 1.078-1.172-0.516 2.188-0.516 1.922 0 0.313 0.375 0.688 0.094-0.047 0.813-0.422 0.188 0.188 0.188 0.547zM65.078 24.797q0 0.297-0.469 0.727t-0.766 0.43q-0.984 0-0.984-1.375 0-1.281 1.313-3.438h0.484q-0.047 0.344-0.422 1.297-0.297 0.844-0.297 1.266 0 0.188 0.031 0.359 0.297 0.297 1.109 0.25v0.484zM40.047 0.984q0 0.656-1.016 1.617t-1.703 1.039q-1.344 0.172-1.563 0.172-0.5 0-0.719-0.203 0.719-0.438 2.219-1.406-0.078-0.469-1.578-0.469-0.109 0-1.375 0.813h-0.5v-0.438q0.25-0.297 1.281-1.672 0.391-0.516 1.891-0.516 3.063 0 3.063 1.063zM48.906 13.656q0 0.641-0.703 1.492t-1.313 0.852q-0.672 0-1.109-0.813-0.344-0.672-0.344-1.406 0-1.313 0.727-2.922t1.711-2.344q0.313 0.344 0.313 0.563 0 0.172-0.547 1.188-0.656 1.219-0.813 1.547-0.016 0.063-0.016 0.656 0 0.938 0.766 1.453 0.359-0.266 1.125-0.703 0.203 0.219 0.203 0.438zM54.984 24.578q0 0.547-0.703 1.383t-1.25 0.836q-0.656 0-1.094-0.672-0.422-0.563-0.422-1.281 0-1.016 0.531-2.078 0.344-0.641 1.047-1.922 0.516 0 0.516 0.422 0 0.234-0.359 1.063t-0.359 1.078q0 1.438 0.719 1.438 0.172 0 0.563-0.313t0.484-0.359q0.328 0.313 0.328 0.406zM41.297 9.625q0 0.234-0.555 0.875t-0.773 0.641q-0.156 0-0.906-0.477t-0.891-0.477q-0.172 0-0.617 0.555t-0.836 0.555-1.305-0.633-0.914-0.898q0-0.297 0.539-0.914t0.836-0.617q0.172 0 0.813 0.344t0.766 0.344q0.172 0 0.813-0.625t0.813-0.625q0.422 0 1.32 0.773t0.898 1.18zM30.609 0.906q0 0.141-0.070 0.375t-0.070 0.281q-0.094 0.063-0.297 0.063-0.328 0-0.844-0.156-0.266 0.594-0.625 1.859t-0.625 1.859q-0.469-0.938-1.5-2.516-0.094-0.125-1.078-0.563-0.703-0.313-0.703-0.859 0-1.031 0.984-1.031 0.891 0 2.031 1.672 0.188 0 0.266-0.125 0.203-0.375 0.547-1.109 0.406-0.859 0.813-0.859 0.359 0 0.766 0.383t0.406 0.727zM63.969 4.031q0 0.141-0.078 0.281t-0.078 0.188q-0.141 0-0.445-0.078t-0.414-0.078q-0.219 0.25-0.219 0.531l1.109 11.531q0 5.125-4.5 5.125-1.406 0-2.711-1.031l-1.305-1.031q-0.141 0-1.109 0.438-1.125 0.516-1.5 0.609-4.313 1.281-8.328 1.281-5.391 0-7.078-3.594-2.609 3.203-5.328 3.203-2.063 0-3.125-1.703-0.109 0-0.281 0.281-1.234 3.203-4.656 5.063-2.938 1.594-6.109 1.594-3.219 0-4.875-2.453-1.422-2.141-1.422-5.516l0.531-3.984q-0.094-0.516-0.742-1.055t-0.758-0.789q0.109-0.031 1.391-0.031 1.688 0 2.203-2.406-1.203-0.891-2.406-1.75-1.453-1.25-1.453-2.359 0-1.719 2-2.563 1.422-0.609 3.469-0.609 0.875 0 8.734 0.875 0.219 0.125 0.594 0.406-0.156 0.953-0.219 1.125-0.234 0.719-0.766 1.016-2.219 0.875-3.891 1.734-3.422 1.797-5.484 4.047 0.313 0.344 0.734 0.344l8.313-0.969q0.922 0 2.391 0.469 0.625 0.203 1.547 0.969 1.063 0.906 1.188 1.672 0.078 0.984 0.516 2.906 0.156 0.391 1.281 0.891 1.063 0.438 1.594 0.438 0.766 0 2.125-0.594 0.766-0.313 1.766-1.328 0.109-0.094 1.672-2.313 0.5-0.203 0.641-0.203 0.125 0.844 0.469 2.266 0.453 1.203 2.781 1.969 1.844 0.625 3.281 0.625 2.266 0 5.531-0.75 3.5-0.781 4.109-1.563-0.063-0.281-0.063-0.813 0-1.75 0.609-3.359 0.781-1.984 2.125-1.984 1.031 0 1.641 1.688 0.438 1.234 0.438 2.156 0 1.094-0.609 2.078-0.141 0.234-0.586 0.602t-0.445 0.555q0 0.938 2.219 0.969 2.484 0 2.484-1.719l-1.672-15.781q0-0.734 0.734-1.75h0.484q1.953 2.984 1.953 4.234zM31.328 10.109q0 0.438-0.516 1.016t-0.969 0.578q-1.031 0-1.031-1.438 0-2.203 1.625-2.984l0.172 0.484q-0.828 1.109-0.828 1.797 0 0.469 0.484 0.469 0.156-0.047 0.844-0.406 0.219 0.188 0.219 0.484zM17.438 1.391q0 0.422-0.602 0.805t-1.023 0.383q-0.703 0-0.703-0.984 0.016-1.594 1.172-2.641 0.25 0.203 0.125 0.813l-0.188 1.188q0.172 0.094 0.438 0.094 0.328 0 0.781-0.125v0.469zM40.313 23.25q0-0.172-0.328 0.766h-0.563q-0.172 0-0.438-0.266-0.516 0.266-0.813 1.172-0.422 1.281-0.547 1.422-0.313 0-0.688-0.703-0.469-0.859-1.172-1.297-1.266-0.25-1.266-0.938 0-0.344 0.32-0.766t0.648-0.422q0.359 0 2.016 1.672 0.313-0.094 0.813-1.047 0.484-0.891 0.984-0.891 0.313 0 0.672 0.492t0.359 0.805zM31.188 23.328q0 1.453-2.547 3.313h-0.484q0-0.484 1.766-2.281v-0.359q-0.125-0.031-0.719-0.125-0.391-0.047-0.391-0.25 0-0.422 0.531-0.914t0.922-0.492q0.344 0 0.633 0.383t0.289 0.727zM57.891 15.422q0.047-1.563-1.031-1.922-1.047 0.453-1.047 1.266 0 0.734 0.766 1.5 0.469-0.25 1.313-0.844zM19.734 6.078q-2.875-0.469-5.094-0.469-1.891 0-2.828 0.313 0.172 0.547 2.234 2.078 0.141 0.109 0.734 0.734 0.453 0.484 0.594 0.484 0.672 0 4.359-3.141zM28 17.938q0-1.922-2.063-3.031-1.656-0.859-3.625-0.859l-6.563 0.719q-0.281 0-0.805-0.078t-0.805-0.078q-1.25 0-1.25 3.109 0 6.563 6.109 6.563 1.813 0 4.297-1.219 2.906-1.438 4.047-3.5 0.656-1.234 0.656-1.625zM24.797 16.266q0 0.688-0.484 0.938-6.203 3.078-7.219 3.078h-0.578q0-0.031-0.078-0.141t-0.078-0.281q0-0.609 0.594-0.891 6.797-3.094 7.109-3.094h0.563q0.172 0.172 0.172 0.391z"></path>
</svg>
