<!-- Generated by IcoMoon.io -->
<svg version="1.1" xmlns="http://www.w3.org/2000/svg" width="77" height="32" viewBox="0 0 77 32">
<title>surah49</title>
<path d="M59.891 4.328q-0.047 0-0.219 0.070t-0.328 0.070q-0.125 0-0.563-0.344t-0.609-0.344q0.094 0-1.625 1.281-1.828 1.375-3.375 1.781l-0.344-0.375q0.703-0.719 2.266-1.797 1.766-1.25 1.766-1.656 0-0.172-0.492-0.844t-0.492-0.797q0-0.594 0.594-1.5 0.688-1.094 1.5-1.094 0.828 0 1.031 1.188 0.172 0.859-0.047 2.219 0.891 0.984 0.938 1.109v1.031zM51.438 2.875q0-0.172-0.281 0.766-0.25 0-0.633-0.141t-0.523-0.141q-0.109 0-0.813 0.766-0.797 0.922-1.219 1.266-0.984 0.828-3.781 2.109l-0.922-0.172q1.828-1.25 5.391-4.453-0.344-0.594-0.922-1.016-0.297-0.219-0.297-0.984 0-0.609 0.922-1.5t1.516-0.891q0.094 0 0.172 0.063 0.484 0.531 0.609 2.953 0.031 0.141 0.406 0.648t0.375 0.727zM68.75 23.297q0 0.672-1.109 1.859t-1.766 1.172l-0.297-0.328q0.047-0.219 0.93-0.992t0.867-1.18q-0.047-0.109-0.25-0.109-0.25 0-0.719 0.125v-0.609q0-0.25 0.555-0.641t0.836-0.391q0.953 0 0.953 1.094zM76.203 17.563q0 0.172-1.109 1.688-0.734 0-1.391 0.063-0.328 0.469-0.633 1.961t-0.758 2.148q-0.063 0-0.234 0.063t-0.25 0.063q0-2.672-0.156-4.156-0.188-0.094-0.703-0.094-1.375 0-3.469 0.938-0.969 0.484-2.953 1.375-4.047 1.594-5.375 2.016-2.906 0.938-5.781 0.938-6.797 0-6.797-5.141 0-0.375 0.047-0.766 0-0.078-0.125-0.344-0.344 0.047-1.625 0.938-0.469 0.188-1.5 0.906-0.813 0.781-2.406 2.875-1.484 1.969-2.266 2.625-1.125 0.969-2.703 0.969-3.531 0-3.531-3.813 0-1.578 0.984-3.516 0.969-1.875 2.25-2.906 0.641 0 0.641 0.484-0.156 0.203-1.203 1.828-1.563 2.359-1.563 4.453 0 0.594 0.547 1.266t1.109 0.672q2.094 0 5.578-4.969 0.969-1.375 2.891-2.844 1.063-0.578 3.172-1.953-0.047-0.422-0.859-0.906-0.625-0.391-1.359-0.859-0.984-0.875-0.984-2.219 0-2.859 7-2.859 0.234 0 7.063 0.891 0.875 0.125 1.719 0.531v0.75q0 0.297-0.492 1.133t-0.789 0.961q-3.328 1.391-6.641 2.969-1.094 0.516-1.922 1.906-0.172 0-1.016-0.422-0.172 0.125-0.469 0.391-0.297 0.469-0.297 0.984 0 0.938 0.844 1.844 1.234 1.313 2.984 1.609 1 0.172 2.141 0.172 5.625 0 11.078-3.25-0.172-0.125-0.516-0.328-2.047-0.266-6.797-1.156-0.172-0.016-0.172-0.313 0-0.469 0.383-1.070t0.789-0.758q1.656-0.266 4.828-0.891 0.375-0.063 0.219-0.75l-1.375-12.766q0-0.875 0.734-2.109 0.406 0 0.594 0.297 2 4.109 2 4.578v0.469q-0.344 0.313-0.5 0.313-0.094 0-0.656-0.297-0.109 0.172-0.109 0.922l0.969 8.094q0 0.391-0.219 1.375-0.281 1.094-0.328 1.438 0.891 0.406 2.266 0.516 0.797 0.016 2.391 0.125 0.297 0.016 0.852-0.055t0.789-0.070q0.406 0 0.5-0.078l-1.672-15.563q0-0.609 0.891-2.063h0.453q1.984 3.891 1.984 4.188v1.031q-0.156 0.078-0.359 0.078-0.313 0-0.813-0.203-0.094 0.219-0.094 1.188 0 0.516 0.219 2.203 0.344 2.563 1.188 9.219 0.375 0.266 2.063 0.266 0.766 0 0.813 0.047v0.734zM43.688 2.875q0 0.422-0.445 0.938t-0.852 0.516q-0.516 0-0.852-0.531t-0.336-1.047q0-0.672 0.516-1.875 0.594-1.328 1.109-1.375l0.172 0.766q-0.688 1.375-0.688 1.844 0 0.219 0.344 0.563 0.266-0.266 0.859-0.266 0.031 0 0.047 0.031 0.125 0.141 0.125 0.438zM39.141 15.969q0 2.047-1.266 4.547-0.188-3.234-0.563-7.375-0.141-1.828-0.906-7.484l-0.594-4.734q0-1.375 0.891-2.141 0.641 0.641 0.828 1.016 1.313 2.391 1.313 2.922v0.75q-0.344 0.063-1.109 0.406v0.672q0.375 2.047 0.781 5.531 0.156 0.578 0.422 2.078 0.203 1.297 0.203 3.813zM31.5 4.422q0 0.328-0.555 0.82t-0.898 0.492q-1.172 0-1.172-1.828 0-0.906 0.422-1.844 0.438-0.859 0.859-1.719h0.641q-0.938 2.578-0.938 3.016 0 0.109 0.484 0.703 0.375-0.203 1.156-0.547v0.906zM47.156 25.359q0 0.406-0.539 0.969t-0.914 0.563q-0.359 0-1.188-0.594t-0.828-0.938q0-0.359 0.445-0.938t0.82-0.578q0.484 0 1.344 0.539t0.859 0.977zM23.203 1.375q0 0.734-0.609 0.734-0.141 0-0.688-0.266-0.375 0.469-0.664 1.977t-0.711 2.039h-0.469q-0.172-0.594-0.516-1.734-0.297-0.906-1.156-1.547-0.297-0.047-0.813-0.219-0.719-0.344-0.719-0.984 0-0.344 0.273-0.766t0.586-0.422q0.766 0 2.656 2.359 0.156-0.109 0.594-1.391 0.375-1.109 1.063-1.109 1.172 0 1.172 1.328zM33.031 15.063q0 2.234-0.906 2.828-4.609 2.906-12.047 3.672-0.219 0-0.672 0.109t-0.703 0.109q-0.563 0-2.5-0.375-4.906-0.938-4.906-4.328 0-1.063 0.625-2.633t0.625-1.68q0-0.266-0.344-1.266t-0.344-1.266q0-1.547 1.281-4.75 0.328-0.859 1.797-2.781h0.641q-0.297 0.813-1.531 3.328-0.688 1.422-0.688 2.453 0 2.125 0.891 2.344 0.594-0.344 1.109-1.359h0.609q0.172 0.031 0.172 0.328 0 0.734-1.297 2.797-0.672 0.375-1.719 1.266-0.422 0.609-0.422 1.906 0 1.516 1.406 2.438 1.203 0.813 2.797 0.875 0.328 0 1.039 0.172t0.961 0.172h1.031q0.219 0 0.641-0.117t0.609-0.117q2.469-0.063 7.609-1.719 0.891-0.297 2.734-1.578-0.141-0.391-0.734-1.516-0.516-0.984-0.516-1.188 0-0.391 0.219-0.906 0.266-0.625 0.594-0.625 0.906 0 1.5 1.578 0.438 1.141 0.438 1.828zM25.578 12.375q-0.031 0.609-0.344 1.281-0.375 0.781-0.922 0.781-0.094 0-0.758-0.414t-0.836-0.414q-0.094 0-0.516 0.555t-0.859 0.555q-0.375 0-1.188-0.578t-0.813-0.875q0-0.25 0.508-0.992t0.727-0.742q0.688 0 1.875 0.969 0.188-0.156 0.813-0.734 0.359-0.375 0.641-0.375 0.266 0 1.672 0.984zM28.313 23.156q-1.359 0.953-4.047 2.031-1.578 0.625-4.703 1.844h-0.469q-0.188-0.188-0.188-0.484 0-0.766 0.594-0.984 3.594-1.422 8.188-3.359l0.625 0.141v0.813zM54.766 11.594q-3.438-0.766-6.109-0.766-2.484 0-3.172 0.641 3.516 2.703 3.75 2.828 4.719-1.922 5.531-2.703z"></path>
</svg>
