<!-- Generated by IcoMoon.io -->
<svg version="1.1" xmlns="http://www.w3.org/2000/svg" width="66" height="32" viewBox="0 0 66 32">
<title>surah5</title>
<path d="M65.813 19.766q-0.031 0.406-0.203 2.547-0.078 1.109-1.109 2.563-0.219-0.172-0.344-0.172 0.094-0.813 0.094-1.984 0-2.125-0.469-7.016-0.516-5.328-0.563-7.359-0.016-0.75-0.313-3.703l-0.281-2.906q0-0.281 0.75-1.766 0.359 0.125 1.32 1.672t0.961 1.969v0.625q-0.141 0.016-0.297 0.016-0.344 0-0.703-0.141-0.156 0.359-0.109 1.172zM50.422 4.063q0 0.266-0.445 0.633t-0.711 0.367q-0.391 0-0.789-0.477t-0.398-0.898q0-0.297 0.547-1.195t0.813-0.992q0.078 0.266-0.031 0.828-0.063 0.641-0.063 0.984 0.125 0.078 0.391 0.078t0.688-0.094v0.766zM54.188 14.766q-0.172 0.359-0.547 1.078-0.406 0.859-0.906 0.859-0.609 0-1.031-0.859-0.297-0.641-0.297-1.125 0-0.719 0.727-2.086t1.32-1.586q0.172 0 0.172 0.344 0-0.125-0.516 0.984-0.453 0.938-0.453 1.844 0 0.297 0.375 0.688 0.313-0.172 0.641-0.344 0.25-0.094 0.516 0.203zM55.141 5.313q0 0.313-3.781 2.063l-6.203 2.906q-0.906 0.469-2.859 1.703-0.016 0.469-0.219 1.5-0.125 0.172-0.422 0.172t-0.602-0.273-0.305-0.57q0-1.891 4.594-4.156 0.578-0.297 1.953-0.984 2.094-0.906 7.5-3.266 0.203 0.141 0.344 0.141v0.766zM44.344 5.906q0 1.078-0.438 2.188h-0.5q-0.078-1.109-0.641-3.328-0.141-0.422-1.063-1.547-0.813-1.016-0.813-1.188 0-0.266 0.25-0.609t0.516-0.344q0.344 0 1.109 0.609 1.578 1.313 1.578 4.219zM63.594 22.047q0 0.938-0.734 2-0.844 1.094-1.75 1.094-1.281 0-1.922-0.953l-1.203-1.938q-1.922 1.047-6.406 2.281-4.797 1.297-7.438 1.297-0.438 0-2.016-0.516t-1.891-0.75q-0.672-0.547-1.656-1.797-0.531-1.109-0.656-3.078-0.109-1.313-0.281-4.703-0.063-1.75-0.063-6.453l-0.984-6.203q-0.125-0.781 0.875-1.813 0.625 0.141 0.859 1.719 0.75 4.453 0.75 7.047v6.125q0-0.219 0.313 4.125 0.047 0.719 0.422 1.359 1.422 2.609 5.297 2.609 0.531 0 1.594-0.133t1.609-0.133q1 0 8.406-2.547 0.5-0.172 1.063-0.734-0.313-1.469-0.391-2.328l-0.594-9.156v-3.422q0-0.594-0.195-1.742t-0.195-0.992q0-0.5 1-2.219 0.297 0.25 1.297 2.203t1 2.281v0.609q-0.172 0.172-0.469 0.172-0.266 0-0.688-0.422-0.203-0.188-0.203 0.125v3.578q0-0.125 0.109 0.813 0.109 1.156 0.234 2.75 0.047 1.203 0.172 3.625 0.125 2.109 0.672 3.766 4.063-0.25 4.063 2.453zM57.641 24.469q0 0.578-0.664 1.586t-1.211 1.008h-0.453q-0.172 0-0.172-0.313 0-0.172 0.406-0.625 0.484-0.516 0.578-0.641-0.188-0.188-0.703-0.656 0.219-1.063 1.25-1.063 0.969 0 0.969 0.703zM48.891 18.875q0 0.563-0.609 1.352t-1.156 0.789q-0.672 0-1.109-0.719-0.422-0.609-0.422-1.297 0-3.75 1.844-5.469 0.5 0 0.5 0.469 0 0.203-0.391 1.031-0.516 1.063-0.672 1.484-0.047 0.125-0.047 0.734 0 0.891 0.516 1.703 0.547-0.156 1.063-0.969h0.484v0.891zM32.156 1.281q0 0.703-1.641 1.641-0.625 0.328-1.859 0.953-1.5 0.844-5.406 3.016-0.203-0.172-0.344-0.172v-0.766q0.781-0.891 3.719-2.438 3.641-1.969 4.766-2.734h0.594q0.172 0.203 0.172 0.5zM35.75 11.422q-0.266 0.438-1.969 1.031-0.688 0.344-1.375 0.813h-0.563q0-0.125-0.125-0.75-1.203-0.906-1.203-1.203 0-0.641 0.898-1.711t1.523-1.070q1.047 0 1.047 0.922 0 0.875-0.766 0.875-0.281 0-0.844-0.266l-0.344 0.344q0.5 0.641 1.234 0.641-0.031 0 2.188-0.375 0.094 0.078 0.297 0.406v0.344zM19.438 3.563q0 0.25-0.484 0.875t-0.703 0.625q-0.125 0-0.836-0.406t-0.883-0.406q-0.156 0-0.586 0.484t-0.602 0.484q-0.516 0-1.258-0.578t-0.742-1.078q0-0.469 0.336-1t0.758-0.531q0.172 0 0.883 0.531t0.992 0.578l0.531-0.813q0.219-0.297 0.641-0.297t1.188 0.57 0.766 0.961zM37 23.453q0 0.641-1 1.109-4.828 2.234-5.297 2.234h-0.594q-0.172-0.031-0.172-0.328 0-0.688 0.594-0.984 5.141-2.547 5.891-2.547h0.578v0.516zM24.828 17.25q0 0.438-0.383 0.992t-0.805 0.555q-0.438 0-0.766-0.891-0.266-0.656-0.266-1 0-0.469 0.594-2.359 0.234-0.719 0.875-1.156l0.203 0.484q-0.563 1.375-0.563 2.266 0 0.844 0.484 0.844 0.156 0 0.289-0.063t0.164-0.063l0.016 0.016q0.156 0.156 0.156 0.375zM34.641 19.391q0 1.375-0.734 2.406-0.844 1.141-2.141 1.141-1.953 0-3.281-2.641-1.547 2.141-3.953 3.75-2.719 1.781-5.031 1.781-1.516 0-2.094-1.25-0.266-0.578-0.563-2.75-0.359 0.375-3.391 1.422-1.109 0.578-3.078 1.484l-0.766-0.172q0.125-0.766 1.328-1.281 0.594-0.203 1.75-0.641 2.859-1.203 3.766-1.625 0.125 0 0.391 0.266 0.219-0.266 0.516-1.203 0.109-0.313-0.438-0.313-0.094 0-0.281 0.070t-0.313 0.070q-1.625 0-1.625-2.219 0-1 0.555-2.406t0.555-1.75q0-0.172-0.859-1.234-1.109-1.344-1.438-1.844-0.172-0.297-0.172-0.813 0-0.266 0.297-1.234h0.453q0.188-0.016 1.164 0.672t1.117 0.938l-0.422 0.422q0.813 1.203 1.281 1.156 0.938-1.453 2.938-4.438 0.359 0.344 0.359 0.688 0 0.563-0.453 1.5-0.172 0.328-0.984 1.656-0.625 1.031-0.625 1.234 0 0.141 0.078 0.141t0.078 0.078q0.484 0.391 1.344 1.25 0.563 0.672 0.563 1.484 0 1.813-1.25 3.313t-1.25 2.828q0 2.297 1.75 2.297 1.516 0 4.469-1.656 3.359-1.891 3.359-3.609 0-1.625-1.188-5.125l-1.188-3.438q0-0.5 0.594-1.656 0.375 0 0.469 0.172 1.25 2.047 2.141 5.469 1.188 4.625 1.547 5.609 0.172 0.438 0.789 0.883t1.117 0.445q0.422 0 0.969-0.297t0.547-0.656q0-0.172-0.625-1.32t-0.625-1.32q0-0.203 0.086-0.617t0.086-0.617q0.031 0 0.203-0.070t0.344-0.070q0.688 0 1.281 1.672 0.484 1.375 0.484 1.969zM61.922 22.766q0-0.078-0.078-0.234t-0.078-0.266q-0.813-0.391-0.906-0.406h-0.594q0.719 1.078 1.328 1.078 0.297 0 0.328-0.172zM19.281 15.938q-0.141-0.281-0.828-0.906-0.766-0.656-1.156-0.656-0.375 0-0.969 1.125-0.516 1.031-0.516 1.281 0 0.766 0.641 0.766 0.516 0 1.539-0.578t1.289-1.031z"></path>
</svg>
