<!-- Generated by IcoMoon.io -->
<svg version="1.1" xmlns="http://www.w3.org/2000/svg" width="38" height="32" viewBox="0 0 38 32">
<title>surah50</title>
<path d="M32.797 3.703q-0.219 0.672-1 1.453h-1.031q-0.328-0.563-0.328-1.094 0-0.672 1.188-2.641-0.078-0.203-0.078 1.453v0.547l0.219 0.219q0.281-0.25 0.719-0.25zM36.672 8.484q0 0.422-0.719 0.891-0.594 0.359-0.781 0.359-0.172 0-0.609-0.281t-0.578-0.281-0.719 0.422-0.75 0.422q-0.359 0-1.516-1.156 0.625-1.328 1.391-1.328 0.188 0 0.586 0.133t0.586 0.133q0.172 0 0.805-0.344t0.805-0.344q0.266 0 0.883 0.563t0.617 0.813zM30.141 18.266q0 0.344-0.477 0.82t-0.805 0.477q-0.391 0-0.75-0.859-0.297-0.719-0.297-1.016 0-0.656 0.625-1.828t1.172-1.547v0.625q0 0.172-0.406 0.898t-0.406 0.898q0 1.172 0.609 1.172 0.141 0 0.375-0.055t0.359-0.055v0.469zM28.219 10.5q0 0.844-2.234 1.625-1.844 0.641-2.609 0.641-1.359 0-3.125-0.297-0.219-0.047-0.945-0.352t-0.898-0.305-1.156 0.953h-0.5q0.047-0.422 0.703-1.516t0.953-1.094q0.344 0 2.016 0.617t2 0.617h1.297q1.484 0 4.188-1.375 0.313 0.344 0.313 0.484zM13.141 5.531q0 0.422-0.656 1.063t-1.078 0.641q-0.75 0-0.75-1.313 0-1.172 1.328-2.531 0-0.438-0.375 1.969 0.219 0.219 0.375 0.219 0.125 0 0.813-0.688 0.219 0.156 0.344 0.156v0.484zM25.594 16.906q-0.031 0.016-0.047 0.078-0.109 0.094-0.344 0.094-0.156 0-1.188-0.688-0.594 0.391-0.594 0.898t-0.047 1.523-0.438 1.563q-0.406-0.078-0.859-0.891-0.234-0.391-0.672-1.172-0.609-0.422-1.125-0.75-1.063-0.656-1.063-1.172 0-0.969 0.906-0.969 0.734 0 2.234 1.781 0.359-0.125 0.891-1.359 0.469-1.125 1.031-1.125 0.297 0 1.313 1v1.188zM38.047 17.078q0 1.969-0.328 2.578-0.703 1.313-3.016 2.656-2.125 1.234-3.469 1.453-0.625 0.25-2.219 0.75-2.641 0.719-6.594 0.719-4.344 0-7.563-1.047-0.547-0.078-1.914-0.391t-3.656-1.914-3.070-2.914v-0.516h0.469q0.172 0.094 1.422 0.906 1.609 1.047 2.484 1.438 2.219 0.984 4.016 1.344 4.75 1.047 7.563 1.047h2.094q1.453 0 5.266-0.891 1.578-0.344 3.719-1.234 0.641-0.25 1.875-1.063 1.547-1.031 1.547-1.547 0-0.266-0.375-0.516-0.719-0.047-2.141-0.172-1.641-0.219-1.641-1.719 0-0.844 0.625-1.969 0.797-1.438 1.797-1.438 1.313 0 2.297 1.797 0.813 1.5 0.813 2.641zM15.203 17.5q0 0.297-0.422 1.047-0.484 0.875-0.953 0.875-0.969 0-0.969-1.516 0-1.547 1.328-3.047 0 0.328-0.242 1.039t-0.242 0.914q0 0.953 0.688 0.953 0.172 0 0.43-0.133t0.383-0.133zM35.703 15.188l-0.313-0.328h-0.469l-0.328 0.328v0.641h0.797q0.313-0.328 0.313-0.641z"></path>
</svg>
