<!-- Generated by IcoMoon.io -->
<svg version="1.1" xmlns="http://www.w3.org/2000/svg" width="86" height="32" viewBox="0 0 86 32">
<title>surah51</title>
<path d="M85.578 19.484q0 3.422-1.234 4.016l-1.422-17.109q-0.031-0.781-0.172-3.859-0.031-0.25-0.203-0.766t-0.172-0.766q0-0.891 0.734-1.875 0.344 0 0.453 0.172l1.125 2.563q0.594 1.359 0.734 2.469-0.141 0.172-0.141 0.313-0.391 0-0.938-0.531-0.313-0.109-0.313 0.406zM72.406 0.172q0 0.953-0.719 1.672-0.047 0.047-1.125 0.234-0.125 0.031-0.547 0.336t-0.594 0.305q-0.531 0-0.813-0.859-0.125-0.406-0.359-1.25 0-0.469 0.188-1.188 0.328 0.203 0.547 0.672 0.313 0.641 0.594 0.984 0.422-0.25 0.422-0.609 0-0.125-0.063-0.375t-0.063-0.375q0-0.313 0.234-0.594 0.297 0.5 0.984 1.531 0.422-0.078 0.375-0.734-0.078-0.969 0-1.203 0.094 0.016 0.375 0.047 0.563 0.688 0.563 1.406zM71.172 5.359q0 0.375-0.391 0.875t-0.719 0.5q-0.469 0-1.141-0.563t-0.672-0.953q0-0.453 0.352-0.984t0.758-0.531q0.438 0 1.125 0.617t0.688 1.039zM79.328 18.453q0 1.891-0.719 3.344-0.984 1.969-3 1.969-1.922 0-3.156-2.891-1.375 1.641-2.906 2.703-0.953 0.688-2.156 1.391-2.5 1.156-3.969 1.156-1.016 0-1.898-0.695t-0.883-1.664q0-1.281 0.891-3.438 0.953-2.391 1.922-2.766-1.703 4.172-1.703 4.609 0 1.75 2.063 1.75 1.484 0 4.391-1.547 3.047-1.625 3.469-2.859 0.047-0.156 0.047-0.797 0-0.141-1.031-5.656-0.047-0.344-0.5-1.594-0.422-1.156-0.422-1.406 0-0.469 0.297-1.625 0.172-0.094 0.469-0.297 0.672 1.063 2.094 5.719 0.203 1.516 0.688 4.578 0.594 3.125 2.609 3.125 0.797 0 1.484-0.523t0.688-1.273l-1.953-18.422q0-0.594 0.578-2.063h0.516l1.813 4.328v0.625q-0.484 0.063-1-0.125-0.219 0.703-0.219 1.453zM81.953 23.5q0 2.547-3.594 3.422 0.906-0.844 2.641-2.688-0.078-0.063-0.523-0.18t-0.445-0.289q0-0.359 0.398-0.727t0.758-0.367q0.766 0 0.766 0.828zM66.594 18.531q-0.078 0.422-0.344 1.984-0.219 1.281-0.719 1.875-0.063-1.875-0.516-6.422-0.766-5.484-1.719-14.281 0-0.125-0.156-0.414t-0.156-0.492q0-0.641 0.578-1.5h0.516q0.594 1.063 1.688 3.25l-0.203 1.031q-0.078-0.125-0.672-0.422-0.094 0.203-0.094 0.969zM58.688 0.609q-0.453 0.25-1.203 0.953-1 1.859-1 2.5 0 0.781 0.359 1.031 0.344-0.172 0.641-0.172 0.203 0 0.391 0.063-0.875 1.484-1.391 1.484-0.969 0-0.969-1.656 0-0.172 0.844-2.672 0.016-0.031 0.016-0.063-0.016-0.047-0.234-0.047-0.766 0-4 1.578-1.891 1.016-6.766 3.5-0.781 0.375-2.391 1.172-1.859 1-1.859 1.703 0 0.156 0.406 0.758t0.406 0.773v1.031q-0.063 0-0.266 0.070t-0.328 0.070q-0.969 0-1.484-1.938 0-2.703 4.219-4.609 1.328-0.703 4.844-2.484 2.938-1.422 9.422-4.25 0.203 0.172 0.344 0.172v1.031zM46.813 0.656q0 0.172-0.328 0.844-1.125-0.297-1.234-0.297-0.297 1.031-0.984 3.172-0.266 0-0.703-0.688-0.594-0.906-0.813-1.109-0.516-0.219-1.625-0.844-0.031-0.063-0.031-0.172 0-0.234 0.203-0.703 0.234-0.625 0.578-0.625 0.531 0 2.094 1.672 0.25-0.063 0.672-1.211t0.906-1.148q0.297 0 0.781 0.406t0.484 0.703zM48.875 12.938q-0.125 0.328-0.375 0.969-0.344 0.875-0.813 0.875-1.031 0-1.031-1.859 0-0.641 0.297-1.672 0.344-1.266 0.781-1.453 0 0.406-0.195 1.219t-0.195 1.188q0 1.031 0.563 1.031 0.172 0 0.492-0.133t0.477-0.164zM54.953 14.859q0 1.531-0.891 2.766-0.344 0.484-2.031 1.219-5.375 2.297-9.109 2.297-2.219 0-4-1.156-2.328-1.531-2.438-5.953-0.063-3.5-0.531-8.984-0.047-0.625-0.375-2.25-0.266-1.516-0.266-1.75 0-0.141 0.438-1.469h0.5q0.703 1.797 1.297 11.516 0.031 0.906 0.156 2.703 0.125 1.484 0.813 2.813 0.391 0.766 1.469 1.438t1.922 0.656q0.344 0.219 0.547 0.219h1.156q1.797 0 5.344-0.984 3.828-1.109 4.766-2.109 0.047-0.703-0.664-1.523t-0.711-1.258q0-0.375 0.297-1.313h0.594q0.313 0 0.977 1.008t0.703 1.43 0.039 0.688zM61.203 15.891q0 0.078-0.391 1.875-0.266 1.281-3.25 3.547-1.578 1.203-2.82 1.891t-2.477 1.375q-1.5 0.766-2.625 0.953-0.969 0.109-2.906 0.344-0.219 0.031-1.266 0.344-0.906 0.297-1.094 0.297h-0.625q0.109-0.188 0.328-0.484 3.266-1.281 6.219-2.547 2.344-1.047 6.203-3.328 0.75-0.453 2.266-1.953 1.328-1.297 1.328-1.563 0-0.156-0.656-1.344-0.75-1.344-0.969-1.969-0.734-1.938-0.734-2.313 0-1.375 0.609-1.375 0.328 0 1.969 1.969 0.078 0.25-0.344 0.734zM31.969 2.828q0 0.266-0.578 0.906t-0.859 0.641q-0.906 0-0.906-1.656 0-0.688 0.344-1.594 0.375-1.063 0.859-1.297l0.172 0.484q-0.656 1.406-0.656 1.719 0 0.844 0.531 0.844 0.156 0 0.57-0.273t0.523-0.273v0.5zM26.297 1.125q0 0.641-0.609 0.641-0.203 0-0.594-0.313-0.469-0.359-0.609-0.406-0.281 1.328-0.969 4.016h-0.484q-0.5-1.297-0.547-1.453-0.422-0.859-0.984-1.109-0.438-0.063-1.203-0.359-0.375-0.281-0.375-0.797 0-0.266 0.273-0.688t0.492-0.422q0.641 0 1.594 1.109 0.406 0.422 1.047 1.266 0.125-0.578 0.406-1.625 0.375-1.313 1.109-1.313 0.328 0 0.891 0.578t0.563 0.875zM42.234 23.703q0 0.266-0.422 0.852t-0.688 0.586q-0.172 0-0.914-0.477t-0.883-0.477q-0.156 0-0.734 0.555t-0.719 0.555q-0.344 0-1.039-0.563t-0.695-0.891q0-0.359 0.445-0.906t0.789-0.547q0.219 0 0.875 0.484t0.797 0.484q0.172 0 0.727-0.633t0.727-0.633q0.328 0 1.031 0.656t0.703 0.953zM29.234 10.891q0 0.328-0.445 0.93t-0.742 0.602q-0.172 0-1.047-0.477t-1.047-0.477q-0.25 0-0.711 0.555t-0.805 0.555q-0.453 0-1.227-0.594t-0.773-1.016 0.383-0.938 0.805-0.516q0.141 0 0.953 0.484t0.953 0.484q0.156 0 0.781-0.617t0.75-0.617q0.344 0 1.258 0.688t0.914 0.953zM34.469 16.703q0 1.188-2.609 4.953-0.766 1.078-1.938 3.094-0.297-0.219-0.297-0.516 0-0.563 0.734-1.813 0.281-0.469 1.609-2.438 0.984-1.5 0.984-1.672 0-0.766-0.625-0.766-0.344 0-3.297 1.469-4.5 2.266-8.469 2.266-2.859 0-4.75-0.953-2.656-1.313-2.656-4.156 0-0.156 0.086-0.414t0.086-0.383q0.031-0.422 0.406-1.453t0.375-1.234q0-0.516-0.266-1.531t-0.266-1.516q0-1.641 1.469-4.453 1.406-2.688 2.219-3 0.328 0.313 0.328 0.422 0 0.063-0.922 1.594-1.844 3.094-1.844 4.063 0 0.719 0.219 1.531 0.297 1.094 0.813 1.094 0.547 0 1.078-0.719t0.766-0.781v0.891q0 0.891-1.156 2.266-1.172 0.609-1.5 0.891-0.656 0.594-0.656 1.547 0 2.188 2.281 3.281 1.75 0.813 4.234 0.813 2.891 0 7.32-1.875t4.867-1.875q0.5 0 0.938 0.445t0.438 0.93zM28.25 22.094q0 0.641-1.313 1.141l-1.344 0.438q-2.375 1.156-3.891 1.719-2.688 0.984-3.109 0.984h-0.984q-0.172 0-0.172-0.328 0-0.359 0.328-0.563 2.797-0.922 4.984-1.734 0.969-0.344 4.703-2.047h0.625q0.172 0.172 0.172 0.391z"></path>
</svg>
