<!-- Generated by IcoMoon.io -->
<svg version="1.1" xmlns="http://www.w3.org/2000/svg" width="64" height="32" viewBox="0 0 64 32">
<title>surah52</title>
<path d="M63.469 3.516q-0.172 0.172-0.469 0.172 0.063 0-0.656-0.422-0.094 0.297-0.094 1.453l1.094 12.063q0 3.844-1.422 4.906 0.047-0.844 0.047-1.688 0-2.281-0.391-6.438-0.594-6.484-0.766-8.969-0.047-0.531-0.297-1.922-0.219-1.219-0.219-1.891 0-0.313 0.367-1.266t0.57-1.078q1.875 3.359 2.234 5.078zM50.625 3q0 0.219-0.484 0.688-1.141-0.813-1.313-0.813-0.141 0-1.016 0.813-1.047 1.031-1.641 1.469-0.906 0.453-2.703 1.359l-0.328-0.094q0.547-0.547 2.813-2.438 1.75-1.484 1.719-1.672v-0.156q-1.063-1.281-1.063-1.875 0-0.609 0.703-1.445t1.297-0.836q0.891 0 0.891 1.594 0 0.25-0.109 1.656 1.156 1.578 1.234 1.75zM51.438 7.297q0 0.594-0.492 1.188t-1.086 0.594q-0.094 0-0.281-0.063t-0.359-0.063q-0.141 0-0.672 0.281t-0.703 0.281q-1.234 0-1.234-1.75 0-1.078 0.563-1.563 0.203 0.641 0.641 1.766-0.141 0 0.172 0 0.234 0 0.641-0.484-0.016-0.422-0.016-0.766 0-0.844 0.25-1.094 0.406 0.078 0.555 0.852t0.445 0.945q0.563-0.125 0.563-0.609 0-0.172-0.070-0.508t-0.070-0.508q0-0.359 0.266-0.578 0.172 0.094 0.453 0.313 0.438 1.375 0.438 1.766zM35.266 1.031q-0.594 1.844-1.406 1.844-1.109 0-1.109-1.547 0-1.094 0.328-1.875 0.094-0.125 0.703-0.734l0.375 0.344q-0.563 0.828-0.563 1.453 0 0.391 0.484 0.828 0.469-0.219 0.719-0.516 0.094 0 0.469 0.203zM54.641 23.422q0 0.594-0.68 1.234t-1.273 0.641q-1.109 0-1.109-1.672 0-0.984 0.641-2.563 0.672-1.719 1.391-2.141 0.313 0.328 0.344 0.422 0 0.219-0.633 1.625t-0.633 1.625q0 0.391 0.641 1.031 0.344-0.266 1.109-0.688 0.203 0.188 0.203 0.484zM35.781 9.734q0 0.297-0.477 0.727t-0.805 0.43q-1.172 0-1.172-1.594 0-0.719 0.461-1.773t0.977-1.477q0.203 0.031 0.203 0.344 0 0.25-0.344 1.070t-0.344 1.070q0 0.844 0.484 0.844 0.172 0 0.547-0.195t0.469-0.195v0.75zM26.109-0.25q0 0.516-0.5 0.766-0.469-0.328-1.203-0.578-0.344 1.453-1.109 4.438h-0.484q-0.375-2.531-1.656-2.984-0.469-0.063-1.344-0.484-0.203-0.172-0.203-0.813 0-0.984 0.688-0.984 1.359 0 2.734 2.656 0.297-0.078 0.617-1.773t1.086-1.695q0.391 0 0.883 0.531t0.492 0.922zM56.156 3.125q-0.188 0-0.531-0.141t-0.469-0.141q-0.094 0.328-0.094 1.266l0.953 9.547q0 0.766-0.469 2.438-0.547 1.922-2.859 2.406-5.016 1.063-8.219 1.156-0.297 0-6.922 0.719-0.391 0.031-0.609 0.438-0.047 0.297-0.219 0.844-1.016 2.016-4.406 3.656-3.078 1.484-5.391 1.484h-1.203q-0.891 0-2.172-0.859-0.641-0.453-0.984-1.234-0.594-1.344-0.594-2.531 0-0.672 0.547-2.344l-0.219-0.219q-0.328 0.078-0.922 0.328-1.766 1.125-4.969 1.688l-5.172 0.891-1.594-0.141q0-0.297 0.313-0.5 3.313-0.891 10.938-3.938 1.422-0.594 4.375-2.391 3.75-2.281 3.75-3.266 0-0.219-1.109-2.734t-1.109-2.813q0-0.609 0.609-1.797 0.344 0.078 1.258 0.992t0.914 1.227q0 0.125-0.281 0.32t-0.281 0.367l0.555 1.156t0.555 2.25q0 2.156-1.031 3.516-0.672 0.859-2.391 1.984-1.969 1.266-2.781 2.141-0.578 0.641-0.578 2.328 0 3.25 3.875 3.25 2.188 0 4.703-1.094 2.438-1.063 4.031-2.609 0-0.125-0.25-0.266-0.828-0.125-2.5-0.391-2.094-0.422-2.094-1.875 0-0.938 1.047-2.469 1.172-1.688 2.203-1.688 0.859 0 1.859 1.813 0.75 1.359 0.875 1.953 0.406 0.234 0.734 0.234 1.422 0 2.391-1.469 0.297-0.5 0.297-2.047l-1.656-14.672q0-0.313 0.422-1.258t0.641-1.023q2.109 4.234 2.109 4.547 0 0.719-0.484 0.719-0.125 0-0.547-0.438-0.203 0.219-0.203 0.984l0.969 7.406q-0.094 2.188-0.094 3.297 0 0.859 0.047 1.078 0.516-0.313 3.313-2.656 1.656-1.375 3.156-1.375 0.906 0 2.313 0.859 1.656 1.016 1.656 2.188 0-0.094-0.719 2.531 0.094 0.078 0.563 0.078 0.719 0 1.672-0.484 1.094-0.594 1.094-1.219l-1.5-14.766q0-0.297 0.32-1.117t0.539-0.945q0.438 0 0.703 0.594 1.328 2.703 1.328 3.469v0.766zM44.125 22.438q0 0.844-0.906 1.969-0.813 1.031-1.656 1.422-0.313 0-0.484-0.172 0.063-0.422 1.063-1.297t1-1.328q-0.266-0.391-1.078-0.391 0-1.5 1.031-1.5t1.031 1.297zM21.969 12.203q0 0.781-0.516 1.5-0.563 0.781-1.297 0.781-0.688 0-1.156-1.266-0.344-0.969-0.344-1.484 0-0.656 0.859-3.156 0.188-0.563 1.109-1.688 0.516 0 0.516 0.406 0 0.25-0.633 1.805t-0.633 1.789q0 1.516 0.688 1.516 0.25 0 1.188-0.969 0.219 0.172 0.219 0.766zM20.719 22.906q-1.188 0.891-2.938 1.609-0.984 0.375-2.922 1.172h-0.469q-0.172-0.172-0.172-0.391 0-0.688 2.516-1.703 1.047-0.438 3.781-1.5l0.203 0.203v0.609zM48.656 0.484v-0.484l-0.344-0.297-0.164 0.063t-0.164 0.25q0 0.172 0.078 0.313t0.078 0.156h0.516zM50.484 15.25q-1.344-1.75-3.188-1.75-0.859 0-2.578 1.234-0.047 0.047-2.359 1.906-0.344 0.406-0.891 1h0.609q1.953 0 4.703-0.688 3.109-0.781 3.703-1.703zM34.672 17.938v-0.484q-0.688-0.75-1-0.75-0.625 0-0.625 0.641 0.297 0.391 1.625 0.594z"></path>
</svg>
