<!-- Generated by IcoMoon.io -->
<svg version="1.1" xmlns="http://www.w3.org/2000/svg" width="66" height="32" viewBox="0 0 66 32">
<title>surah53</title>
<path d="M65.688 5.797q-0.234 0.156-0.469 0.156-0.188 0-0.391-0.094-0.313 0.391-0.219 1.641l0.844 12.188q0.016 0.469 0.016 0.906 0 3.172-1.453 4.469 0.047-1.859-0.094-5.328l-0.156-3.453-0.531-7.297v-3.188q0-0.438-0.227-1.32t-0.227-1.336q0-0.219 0.438-1.078t0.625-1.063q1.844 3.688 1.844 4.219v0.578zM52.547 6.688q0 0.328-0.516 0.852t-0.781 0.523q-0.297 0-1.023-0.586t-0.727-0.867q0-0.266 0.5-0.867t0.75-0.602q0.547 0 1.203 0.734 0.594 0.609 0.594 0.813zM53.531 0.781q0 0.766-1.594 1.25-1.016 0.25-3.023 0.781t-4.289 1.297q-5.25 1.719-7.703 3.484 0.688 0.813 0.688 1.016 0 0.375-0.328 0.688h-0.406q-0.281 0-0.609-0.492t-0.328-0.742q0-1.578 2.969-2.969 0.328-0.156 3.297-1.219 3.313-1.172 5-1.672 0.859-0.234 3.156-1.047 1.969-0.688 2.172-0.688h0.828q0.172 0.016 0.172 0.313zM38.297 2.313q-1.031 1.719-1.578 1.719-0.656 0-0.641-1.156 0.047-1.594 1.078-2.406 0 0.219-0.117 0.688t-0.117 0.688q0 0.297 0.359 0.688 0.156-0.047 0.688-0.328zM60.453 23.5q0 0.609-0.773 1.781t-1.367 1.313h-0.469q1.5-2.031 1.5-2.188 0-0.563-0.5-0.563-0.688 0-0.75-0.047 0.641-1.328 1.453-1.328 0.906 0 0.906 1.031zM44.938 10.891q0 0.422-0.414 0.883t-0.836 0.461q-1.234 0-1.234-1.828 0-0.469 0.68-1.609t1.102-1.422q-0.938 2.828-0.938 2.641 0 0.219 0.359 0.953h0.375q0.141 0 0.719-0.563 0.188 0.219 0.188 0.484zM53.109 25.703q0 0.281-0.563 0.867t-0.828 0.586q-0.25 0-1.164-0.75t-0.914-0.969q0-0.375 0.555-0.984t0.93-0.609q0.313 0 1.148 0.773t0.836 1.086zM60.578 18.922q-0.203 0.328-0.625 0.984-0.594 0.891-0.875 0.891-0.328 0-0.945-0.141t-0.93-0.141q-0.328 0-2.906 0.531-2.172 0.438-7.109 1.766-3.578 0.953-5.906 1.078-0.297 0.031-0.977 0.125t-1.055 0.094q-2.672 0-5.188-0.734-0.375-0.094-1.547-0.656-1.094-0.516-1.266-0.516-0.313 0-0.875 0.953-0.625 1.063-0.719 1.203-0.094 0.047-0.344 0.047-0.734 0-1.5-1.297-0.172-0.266-0.266-1.141 0.047-0.578 0.047-1.766-0.234-0.219-1.328-0.219-2.891 0-5.547 1.625-0.438 0.297-3.938 3.078-2.063 1.641-3.547 1.641-1.328 0-2.25-0.945t-0.922-2.305q0-1.625 2-5.016 0.406-0.391 1-1.234-0.016 0.047-0.344-1.625-0.422-2.328 2.297-6.672 1.563-2.5 2.453-2.672 0.094 0.016 0.344 0.188-3.891 5.078-3.891 7 0 0.438 0.43 1.117t0.836 0.68 0.906-0.547q0.688-0.766 1.016-0.969v0.922q0 0.344-0.758 1.398t-1.070 1.227q-0.438 0.125-1.234 0.5-0.828 0.641-2 2.82t-1.172 3.18q0 1.313 1.875 1.313 1.297 0 3.594-1.875 3.547-2.859 4.5-3.469 3.031-1.875 6.031-1.875 0.219 0 0.664 0.078t0.664 0.078q0.172 0 0.445-0.273t0.586-0.57q0.203 0.172 0.547 0.594 0.141 0.359 0.516 0.953 1.594 1.625 2.828 2.172 0.844 0.344 2.703 0.828 2.203 0.578 3.156 0.578h1.188q2.234 0 8.953-1.672 0.094-0.063 0.25-0.25-2.516-0.625-6.719-1.313-0.375-0.047-0.906-0.563 0.484-0.891 0.578-1.031 0.375-0.547 0.859-0.797 1.625-0.531 3.234-1.078 1.938-0.766 2.828-1.75 0.688-0.859 2.516-3.016h0.766q0.094 0.234 0.734 2.375 0.469 1.484 1.922 1.484 2.156 0 2.063-1.188l-0.813-10.703q-0.031-0.328 0.891-1.828 0.813 0.641 1.984 4.531-0.125 0.078-0.313 0.078-0.328 0-0.797-0.203-0.094 0.5-0.094 1.188 0 0.859 0.195 2.57t0.195 2.57q0 5.203-3.781 5.203-1.734 0-2.547-1.281-0.188-0.328-0.359-1.547-0.031-0.203-0.328-0.641-0.359 0.063-0.781 0.656-0.734 1.109-2.047 2.359-0.391 0.281-1.234 0.813 0 0.109 0.25 0.297 4.688 0.891 7.313 1.109 0.906 0.031 2.734 0.078 1.719 0.078 2.859 0.563zM31.141 8.75q0 0.625-0.406 1.141t-1.031 0.516q-0.656 0-0.656-1.313 0-1.906 1.625-2.828-0.344 0.625-0.672 1.578v1.078q0.047 0.031 0.172 0.031 0.297 0 0.969-0.203zM39.25 13.453q0 0.688-0.609 0.688-0.141 0-0.984-0.406-0.125 0-0.297 0.234-0.125 0.672-0.422 2.031-0.266 1.25-0.813 1.891-0.406-0.859-1.391-2.359-0.531-0.203-1.391-0.578-0.469-0.281-0.469-0.953 0-0.953 0.984-0.953 0.625 0 1.391 0.922 0.297 0.375 0.875 1.141 0.375-0.906 1.266-2.734 0.219-0.297 0.484-0.297 0.344 0 0.859 0.516t0.516 0.859zM22.219 3.594q0 0.266-0.469 0.633t-0.766 0.367q-0.516 0-0.859-0.563-0.234-0.422-0.234-0.672 0-0.578 0.438-1.508t0.891-1.273l0.188 0.5q-0.563 0.828-0.563 1.375 0 0.766 0.641 0.766-0.125 0 0.734-0.391v0.766zM26.531 9.797q0 0.313-0.609 0.875-0.359-0.266-1.094-0.813-0.391 0.672-0.672 2.258t-0.734 2.32q-0.359-0.141-0.813-1.719-0.281-1.031-1.844-1.922-0.469-0.266-0.469-0.859 0-1.031 0.922-1.031 0.531 0 0.984 0.641 0.828 1.172 1.219 1.578 0.109-0.203 0.297-0.516 0-0.5 0.344-1.406 0.422-1.141 0.938-1.141 0.422 0 0.977 0.664t0.555 1.070zM25.813 24.094q-0.781 0.469-5.141 2.375h-0.641q0.031-0.891 1.406-1.547 0.813-0.313 2.359-1.031 1.031-0.438 1.422-0.438h0.594v0.641z"></path>
</svg>
