<!-- Generated by IcoMoon.io -->
<svg version="1.1" xmlns="http://www.w3.org/2000/svg" width="73" height="32" viewBox="0 0 73 32">
<title>surah54</title>
<path d="M72.344 0.016l-0.5 0.469q-0.297-0.203-0.781-0.438-0.203 0.938-0.125 2.281l0.844 11.844q0.047 0.516 0.047 1.016 0 3.141-1.328 4.672-0.219-0.172-0.375-0.172 0.219-2.766 0-5.781l-1.25-17.234q-0.031-0.516 0.875-2.016h0.469q0.984 1.891 2.125 5.359zM58.625 2.625q0 0.344-0.523 0.828t-0.852 0.484q-0.188 0-0.906-0.344t-0.906-0.344q-0.125 0-0.742 0.547t-0.773 0.547q-0.281 0-0.977-0.453t-0.695-0.719q0-0.516 0.75-1.031 0.578-0.422 0.859-0.422 0.172 0 0.703 0.273t0.672 0.273q0.203 0 0.867-0.555t0.805-0.555q0.391 0 1.055 0.539t0.664 0.93zM67.609 18.203q0.063 0.172 0.063 0.406 0 1.891-1.75 3.172h-0.641q0.188-0.734 1.109-1.609v-0.781q-0.109-0.078-0.281-0.078-0.344 0-0.953 0.25v-0.594q0-0.391 0.719-0.891 0.625-0.438 0.859-0.438 0.297 0 0.875 0.563zM57.797-5.125q0 0.266-0.313 0.844t-0.547 0.703q-2.734 1.359-12.219 5.094-8.266 3.25-13 6.016h-0.453l-0.328-0.328q0.125-0.594 0.609-1.453 2.125-1.719 10.781-5.359 1.281-0.594 4.578-1.953l10.563-4.063q0.328 0.344 0.328 0.5zM51.688 7.234q-0.219 0.188-0.984 0.344-0.391 0.266-0.609 1.547-0.25 1.375-0.641 1.844h-0.5q-0.219-0.766-1.031-2.219-0.078-0.094-0.891-0.563-0.172-0.734-0.172-0.594 0-0.297 0.273-0.734t0.539-0.438q0.297 0.188 1.484 1.375 0.266-0.172 0.734-1.188 0.438-0.875 0.844-0.875 0.344 0 0.953 0.578v0.922zM56.141 19.094q0 0.672-0.734 1.922-0.813 1.328-1.406 1.328h-0.484q0.688-0.906 1.391-2.172v-0.484q-0.234-0.094-0.516-0.094-0.344 0-0.703 0.109-0.172-0.016-0.172-0.344 0-0.484 0.555-0.969t1.039-0.484q0.344 0 0.688 0.406t0.344 0.781zM45.063 11q0 0.594-0.711 1.609t-1.227 1.016q-0.719 0-1.203-0.938-0.453-0.781-0.453-1.563 0-0.969 0.594-2.891 0.641-2.063 1.109-2.203 0.516 0 0.516 0.453 0 0.281-0.492 1.539t-0.492 1.523q0 0.609 0.328 1.344 0.094 0.125 0.344 0.375 0.094 0.156 0.219 0.156 0.531-0.25 0.813-0.813h0.469q0.188 0.141 0.188 0.391zM44.359-4.391q0 0.734-0.719 1.078-2.047 0.922-7.344 3.422-1.5 0.797-5.391 2.813-0.953 0.438-2.875 1.375-2.359 1.234-2.359 2 0 0.125 0.281 0.68t0.281 0.742q0 0.453-0.313 0.766h-0.641q-0.031 0.172-0.516-0.719-0.203-0.313-0.203-1.203 0-1.156 0.469-1.766 0.766-0.984 2.063-1.656 1.906-0.938 6.781-3.438 2.5-1.313 6.125-2.906 1.078-0.5 3.859-1.719 0.5 0 0.5 0.531zM65.844-0.703q0 0.625-0.688 0.625-0.156 0-0.328-0.031l0.875 11.594q0.172 2.547-1.188 4.734-0.203 0.344-1.359 0.906-1.625 0.781-2.922 0.781-2 0-3.109-1.031-0.125-0.094-0.734-0.938-0.469-0.656-0.672-0.656 0.328 0-3.359 1.234-2.047 0.656-5.984 1.203-3.469 0.484-5.547 0.484-1.219 0-4.406-0.578-3.469-0.625-4.125-0.672-0.156 0.5-0.453 1.484-0.391 1.266-1.109 1.266-1.156 0-1.969-2.234 0.063 0.125 0.063-1.281 0-0.469-0.344-0.781-0.25 0-1.75 0.266-2.906 0.547-4.531 1.719l-3.5 3.188q-2.609 2.328-4.031 2.328-1.406 0-2.328-1.016t-0.922-2.453q0-1.531 1.391-3.977t1.391-2.398q0-0.25-0.281-1.094t-0.281-1.125q0-1.625 1.203-4.594 1.172-2.859 2.281-4.234h0.641v0.609q0-1.594-1.305 1.922t-1.305 4.578q0 1.547 0.922 2 0.609-0.25 1.328-1.922 0.109 0 0.359 0.047 0.297 0.203 0.297 0.641 0 1-1.172 2.859-1.344 1.031-1.75 1.422-0.578 0.594-1.328 1.828-1.141 1.859-1.141 2.953 0 0.688 0.508 1.352t1.148 0.664q0.875 0 1.422-0.453 0.781-0.641 3.281-3.125 1.906-1.891 3.359-2.719 1.047-0.625 2.984-1.063 2.484-0.563 2.859-0.719 0.25-0.078 0.938-1.469 0.406 0 0.609 0.281 2.609 4 11.922 4h3.344q0.172 0 0.563-0.078l0.609-0.141q4.141-0.5 7.609-1.625 0.891-0.281 1.016-0.75 0.016-0.781 0.063-2.734 0.063-0.688 0.719-2.016 0.844-1.672 1.828-1.672 1.172 0 1.844 1.188 0.563 0.953 0.563 2.203 0 1.828-0.594 2.688-0.016 0.031-0.703 0.719-0.469 0.484-0.469 0.688 0 0.609 1 1.031 0.844 0.344 1.531 0.344 0.266 0 1.18-0.242t1.195-0.352 1-0.609q0.172-0.219 0.172-1.281l-1.531-16.047q0-0.719 0.469-1.406 0.172-0.266 0.516-0.813 0.375 0 0.469 0.172 1.75 3.938 1.75 4.328zM37.172 10.797q0 0.547-1.016 1.406-0.141 0.031-0.375 0.031-1.094 0-1.094-1.516 0-1.125 1.391-3.172 0.516 0 0.516 0.328 0 0.219-0.328 0.992t-0.328 1.023q0 0.313 0.344 0.688 0.781-0.391 0.891-0.391v0.609zM21.813-2.906q0 0.734-0.578 0.734-0.094 0-0.25-0.063t-0.281-0.063q-0.469 0-0.75 2.141-0.094 0.766-0.688 1.875-0.266-0.078-0.711-1.344t-1.148-1.656q-1.406-0.594-1.406-1.016 0-1.25 0.813-1.25 1.172 0 2.047 1.672 0.703-0.5 0.984-1.547 0.188-0.813 0.781-0.813 0.422 0 0.805 0.438t0.383 0.891zM40.484 19.906q0 1.031-1.469 2.219l-0.328-0.094q0.25-0.547 0.578-0.891v-0.5q-0.156-0.141-0.297-0.141-0.109 0-0.203 0.047l-0.766-0.203q0.969-1.594 1.453-1.594 1.031 0 1.031 1.156zM22.906 9.672q0 0.484-0.484 1.156-0.516 0.734-0.953 0.734-1.047 0-1.047-1.828 0-0.859 0.422-1.891 0.5-1.25 1.188-1.422 0.188 0.188 0.188 0.422 0 0.172-0.344 0.797t-0.344 0.766v1.109l0.219 0.25q0.156-0.078 0.531-0.422h0.453q0.172 0 0.172 0.328zM26.5 19.859q0 1.297-1.688 2.609h-0.5v-0.438q-0.016-0.125 0.398-0.57t0.414-0.648q0-0.141-0.477-0.414t-0.477-0.414q0-0.344 0.477-0.859t0.82-0.516q0.406 0 0.719 0.43t0.313 0.82zM18.75 23.672q0 0.797-3.344 2.203-3.031 1.313-3.516 1.313h-0.719q-0.172-0.031-0.172-0.344 0-0.469 2.922-1.781 4.047-1.781 4.188-1.875h0.5q0 0.016 0.070 0.164t0.070 0.32zM58.625 10.844q0-0.344-0.539-0.992t-0.914-0.648q-0.344 0-0.688 0.438t-0.344 0.813q0 0.594 0.563 1.781h0.5q1.422-0.875 1.422-1.391z"></path>
</svg>
