<!-- Generated by IcoMoon.io -->
<svg version="1.1" xmlns="http://www.w3.org/2000/svg" width="68" height="32" viewBox="0 0 68 32">
<title>surah55</title>
<path d="M67.766 0.75q0 0.547-0.5 0.547-0.141 0-0.313-0.070t-0.203-0.070q-0.313 0.531-0.234 1.594l0.688 10.859q0.047 0.531 0.047 1.063 0 3.313-1.328 5.734h-0.5q0.5-2.219 0.391-3.875l-1.094-18.438q-0.031-0.406 0.703-2.328h0.5q0.313 0.438 1.063 2.328 0.781 2.016 0.781 2.656zM56.953-3.484q-0.172 0.453-0.578 0.984-3.828 1.344-11.375 4.219h-0.5v-0.594q0-0.516 1.797-1.203 0.797-0.297 2.391-0.859 7.313-2.891 7.531-2.891h0.422zM55.969 2.75q0 0.266-0.172 1.406-0.266 0.313-0.828 0.719-2.547 0.313-2.25 0.313-1.172 0-1.172-1.406 0-1.234 0.906-2.063 0.125 0.094 0.297 0.313-0.141 0.641-0.141 1.094 0 0.219 0.047 0.406 0.063 0 0.227 0.063t0.242 0.063q0.141-0.766 0.531-2.328h0.5q-0.031 0.531 0.594 1.641 0.188-0.172 0.188-1 0.031-0.547 0.422-0.813 0.609 0.188 0.609 1.594zM45.188-3.328q0 0.484-0.859 1.414t-1.406 1.102q-0.313 0.094-2.094 0.469l-0.609-0.234q0.844-0.531 2.609-1.797-0.891-0.484-1.641-0.484 0.094 0-2.344 0.953v-0.438q0-0.469 1.023-1.328t1.484-0.922 1.477-0.063q0.516 0 1.359 0.391 1 0.438 1 0.938zM60.969 19.781q0 1.094-1.469 2.563-1.359 1.375-2.516 1.766v-0.484q0.938-0.953 2.563-2.484 0.172-0.469 0.188-0.516 0-0.281-0.234-0.516-0.203 0-0.586 0.063t-0.57 0.063q1.078-1.625 1.672-1.625 0.781 0 0.953 1.172zM35.516 1.031q0 0.141-1.156 3.141h-0.516q0.391-3.219 0.219-3.906-0.188-0.859-1.031-1.953-0.719-0.953-0.719-1.438 0-1.109 0.625-1.109 0.422 0 1.203 1 1.375 1.703 1.375 4.266zM61.234 0.984q-0.281 0.313-0.531 0.313-0.172 0-0.297-0.070t-0.156-0.070q-0.172 0.578-0.172 1.375 0 0.813 0.266 2.414t0.266 2.352 0.109 2.203l0.125 1.688q0 6.063-5.047 6.781l-2.563 0.359q-1.594 0.281-2.547 0.75-1.578 0.734-4.906 3.297-2.453 1.906-4.063 1.906-2.75 0-2.75-3.047 0-0.813 0.016-0.906 0.172-0.516 0.75-1.719 0.484-1.094 0.484-1.234 0-0.172-0.414-0.703t-0.523-0.734q-0.219-0.688-0.703-2.031h-0.359q-0.688 0.266-2.078 0.781-0.625 0-2.078 0.219-0.516 0.156-0.688 1.578-0.25 0.891-0.469 1.313-1.125 2.141-6.078 3.656-2.875 0.891-5.047 0.891-0.391 0-2.281-0.172-1.578-0.172-2.898-1.664t-1.32-3.086q0-1.234 0.688-3.25l1.094-3q-0.047-0.25-0.234-1.203-0.094-0.625-0.094-1.266 0-1.813 0.813-3.906 1.141-2.891 3.344-5.297 0.344 0.344 0.344 0.547 0 0.266-0.109 0.391-0.813 0.953-1.828 3.094-1.109 2.375-1.109 3.578 0 1.938 0.984 1.938 0.172 0 0.656-0.516t0.781-0.813q0.188-0.047 0.313-0.047 0.031 0 0.047 0.031 0.156 0.141 0.156 0.438 0 0.547-0.703 1.75-0.578 1.031-0.781 1.203-0.391 0.391-1.469 0.766-1.359 1.891-1.359 4.328 0 0.906 0.969 2.070t1.891 1.398q1.734 0.469 2.328 0.469 2.25 0 5.344-0.953 3.469-1.063 4.656-2.469 0.203-0.234 0.203-1.156 0-0.859-0.492-2.266t-0.492-1.813q0-0.391 0.578-1.578h0.625q0.875 2.484 3.141 2.484 1.484 0 3.156-0.984 0.563-0.766 1.938-1.875 0.969-0.422 2.734-0.609 2.344-0.266 2.938-0.391 0.078-0.25-0.547-0.516-1.547-0.75-2.609-0.75h-4.313q-0.281-0.313-0.313-0.406 0-1.313 2.234-2.094 1.578-0.547 2.688-0.547 0.719 0 3.219 1.188l2.734 1.281q2.25 0.703 6.703 2.25 0 0.75-0.547 1.414t-1.25 0.664q-0.594 0-1.797-0.281t-1.797-0.281q-2.891 0-5.609 0.453-1.016 0.188-1.563 0.594 0.422 2.313 0.328 2.781-0.469 2.203-2.469 3.406-0.563 0.344-0.984 1.422-0.359 0.969-0.359 1.719 0 1.531 1.453 1.531 1.391 0 3.734-1.875l3.281-2.656q1.984-1.109 3.875-1.5 1.109-0.172 3.281-0.563 2.359-0.453 3.453-1.406 0.141-0.172 0.141-1.281 0 0.156-0.266-4.031-0.344-5.375-0.547-10.016-0.031-0.203-0.227-0.68t-0.195-0.711q0-0.438 0.359-1.188t0.703-0.953q2.109 4.266 2.109 4.75v0.75zM29-2.781q-0.047 0.094-0.328 0.75h-0.563q-0.141 0-0.344-0.203t-0.375-0.203q-0.516 0-0.703 1.047-0.031 0.688-0.109 1.391-0.172 0.484-0.516 1.563h-0.641q-0.266-0.922-1.031-2.5-0.094-0.125-1.078-0.672-0.813-0.422-0.813-1.031 0-1.188 0.891-1.188 0.609 0 1.172 0.703l1.188 1.375q0.125-0.078 0.688-1.375 0.469-1.109 1.109-1.109 0.438 0 0.945 0.5t0.508 0.953zM36.484 19.359q0 0.984-1.234 2.219-1.141 1.156-2.172 1.453-0.094-0.047-0.344-0.188 0.891-0.922 2.484-2.766-0.141-0.078-0.547-0.164t-0.406-0.273q0-0.281 0.586-0.797t0.867-0.516q0.25 0 0.508 0.383t0.258 0.648zM25.938 13.906q0 0.297-0.586 0.969t-0.867 0.672q-0.344 0-1.719-0.984-0.047-0.531 0.359-1.227t0.953-0.695q0.297 0 1.031 0.406 0.828 0.438 0.828 0.859zM18.063 23.234q-0.297 0.469-1 1.156-2.594 1.219-6.438 2.5-0.313-0.313-0.313-0.469 0-0.656 0.469-0.859l6.797-2.953q0.172 0.25 0.484 0.625zM42.281 14.563v-0.484q-0.313-0.453-1.156-1.281h-0.641v0.734q0 0.344 0.492 0.836t0.82 0.492q0.141 0 0.484-0.297z"></path>
</svg>
