<!-- Generated by IcoMoon.io -->
<svg version="1.1" xmlns="http://www.w3.org/2000/svg" width="80" height="32" viewBox="0 0 80 32">
<title>surah56</title>
<path d="M80 19.531q0 1.094-0.641 3.313-0.078 0.063-0.594 0.281l-2.516-23.297q0-0.422 0.719-2.266 0.359 0 0.469 0.141 1.984 4.906 1.984 4.734 0 0.172-0.070 0.313t-0.070 0.172h-0.859q-0.109 0.172-0.109 0.906 0 0.172 0.234 1.578 0.234 1.781 0.281 2.297 0.156 1.172 0.672 5.234 0.5 3.922 0.5 6.594zM65.859 1.766q0 0.266-0.352 1.055t-0.586 0.945q0-0.641-0.047-1.875-0.047-1.109-0.703-2.047l-0.938-1.328q0-0.719 0.688-0.719 0.891 0 1.469 1.609 0.469 1.25 0.469 2.359zM69.188 3.688q0 0.594-1.656 1.375-0.609 0.25-1.844 0.813-0.859 0.422-3.078 1.484h-0.469q-0.141-0.172-0.141-0.422 0-0.641 3.5-2.094 0.406-0.172 3.359-1.625 0.328 0.313 0.328 0.469zM74.188 20.797q0 0.891-0.938 2.242t-1.781 1.617q-0.281 0-0.484-0.188 0.141-0.234 1.156-1.438 0.781-0.953 0.781-1.203 0-0.266-0.828-0.813 0.25-0.438 0.484-0.859 0.281-0.344 0.766-0.344 0.844 0 0.844 0.984zM60.891 16.641q0 1.078-0.594 4.281-0.094 0-0.313 0.063t-0.344 0.063q0-3.5-0.891-9.656-1.063-7.266-1.25-9.625 0-0.219-0.188-0.727t-0.188-0.758q0-0.313 0.336-1.102t0.555-0.961q0.297 0 0.438 0.328 1.625 3.25 1.875 3.891v0.578q-0.125 0.156-0.391 0.156-0.25 0-0.625-0.094-0.094 0.172-0.094 0.953zM52.688 5.156q0 0.5-0.406 1.008t-0.891 0.508q-0.219 0-0.82-0.273t-0.758-0.273q-0.141 0-0.781 0.625t-0.813 0.625q-0.5 0-1.258-0.5t-0.758-0.969q0-0.422 0.453-0.938t0.875-0.516q0.172 0 0.898 0.352t0.898 0.352q0.109 0 0.719-0.625t0.797-0.625q0.453 0 1.148 0.422t0.695 0.828zM46.203-0.813q0 0.953-0.875 1.344-2.828 1.266-10.094 4.656-1.859 1.016-6.688 3.547-0.203-0.031-0.203-0.328 0-0.813 0.469-1.297 0.625-0.688 2.609-1.578 0.859-0.391 4.016-2.141 2.063-1.125 5-2.406l5-2.203h0.594q0.172 0.172 0.172 0.406zM40.656 7.078q-0.078 0.25-0.203 0.672-0.234 0.344-0.813 0.813 0.109 0.047-0.219 0.047-0.344 0-0.727-0.422t-0.383-0.766q0-0.188 0.234-0.563-0.031-0.25-0.031-0.469 0-1.719 1.703-3.031-0.938 2.203-0.938 2.906 0 0.813 0.563 0.813h0.813zM73.469 12.625q-0.094 1.375-0.766 3.563-0.516 0.844-1.781 1.297t-1.438 0.781q-0.25 0.922-1.063 2.625-1.078 1.547-3.984 3.328-1.016 0.609-2.875 1.188-1.953 0.641-3.031 0.641-2.766 0-3.75-2.078-0.656-1.406-0.656-4.438-0.422 0.156-2.594 1.188-1 0.469-2.438 0.469h-1.5q-1.328 0-3.172-0.984-0.078-0.047-1.203-1.063-0.984-0.828-1.234-0.828-0.125 0-2.391 1.156-2.484 1.281-3.422 1.578-3.141 0.984-4.672 0.984h-0.906q-0.281 0-1.906-0.344-2.953-0.641-4.172-2.328-1.094-2.031-1.656-2.031-0.266 0-0.883 0.563t-0.82 0.938q-0.922 2.219-2.281 5.234-0.219 0.516-0.984 1.031t-1.313 0.516q-1.547 0-2.703-2.125-0.891-1.688-0.984-3.188-0.125-1.922 0.328-4.969-0.375-0.375-0.891-1.234-0.594-1.594-0.594-2.313 0-1.625 1.109-5.094 1.156-3.688 2.109-4.578 0.234 0.156 0.375 0.156v0.453q-0.141 0.422-0.859 2.344-0.906 2.438-1.188 3.641-0.016 0.156-0.016 1.281 0 1.203 0.047 1.438 0.219 0.859 1.125 1.344 0.5-0.141 0.813-0.953 0.375-0.938 0.641-1.141 0.281 0.203 0.281 0.547 0 0.938-0.766 2.875-0.422 0.469-1.156 1.406-0.453 0.719-0.453 2.047 0 1.281 0.625 3.25 0.813 2.609 2.094 2.609 1.25 0 2.234-2.297 0.438-1.406 1.75-4.297 0.297-0.5 1.375-1.383t1.547-0.883q0.219 0 1.5 1.594 1.391 1.75 1.734 2 1.797 1.281 4.75 1.281 1.281 0 3.219-0.328 0.5-0.078 2.688-1.031 2.391-1.063 2.391-1.422 0-0.453-1.047-0.984-0.625-0.359-2.828-0.813 0.281-1.156 0.594-1.781 0.172-0.313 0.844-0.547 0.359-0.109 1.109-0.344 1.375-0.516 4.234-0.516 3.063 0 5.109 1.109 0.078 1.781-1.109 2.594-0.688 0.406-2.063 1.25 0.031 0.953 1.672 1.594 1.281 0.5 2.422 0.5-0.5 0 1.641-0.172 0.641-0.047 2.406-0.797 2.094-0.875 2.094-1.563 0-0.797-1.297-0.797-0.297 0-0.914 0.078t-0.914 0.078q-2.406 0-2.406-2.641 0-0.688 1-2.266 1.094-1.75 1.859-1.75 1.344 0 2.797 2.484 0.984 1.734 1.203 2.688 0.063 0.25 0.063 1.203 0 0.766-0.352 2.352t-0.352 2.352q0 3.453 3.328 3.453 4.969 0 9.281-4.516 0-0.109-0.25-0.281-1.469-0.172-3-0.344-2.016-0.469-2.016-2.25 0-0.938 0.906-2.438 1.016-1.641 2-1.641 0.859 0 2.25 1.797t1.344 1.797q0.719 0 1.578-0.406 1.156-0.516 1.156-1.297 0-0.203-0.078-0.422l-1.828-13.391q0.125-0.719 0.75-1.922 0.406 0 0.578 0.297 1.875 3.813 1.875 3.922 0 0.641-0.563 0.641-0.219 0-0.344-0.156-0.203 0.203-0.203 0.813zM31.797 2.234q0 0.125-0.508 0.789t-0.648 0.711q0 0.031-0.297 0.031-0.891 0-0.891-1.266 0-1.078 1.328-2.875 0 0.313-0.18 1.031t-0.18 0.969q0 0.266 0.344 0.609 0.297-0.125 0.875-0.391l0.078 0.109t0.078 0.281zM51.875 22.375q0 0.906-2.25 1.641-0.578 0.203-1.391 0.555t-1.375 0.555q-1.203 0.641-1.672 0.641-0.25 0-0.5-0.109 0.281-0.781 0.594-0.922 2.125-1.063 5.953-2.688h0.469q0.172 0.031 0.172 0.328zM25.438 1.203q-0.047 0.094-0.281 0.766h-0.453q-0.172 0-0.734-0.578-0.672 0.25-0.766 1.859-0.125 1.813-0.719 2.438-0.391-0.156-0.953-1.242t-1.031-1.352q-0.453-0.141-1.547-0.734-0.063-0.094-0.063-0.25 0-0.266 0.203-0.656 0.328-0.594 0.734-0.594 0.422 0 1.203 0.828 1.016 1.031 1.281 1.266 0.234-0.234 0.297-0.672 0.469-2.656 1.438-2.656 0.438 0 0.914 0.578t0.477 1zM32.484 14.516q0 0.5-0.555 1.102t-1.023 0.602q-0.484 0-0.875-0.719-0.297-0.563-0.297-0.891 0-1.109 1.469-3.516l0.203 0.781q-0.578 1.391-0.578 2 0 0.672 0.578 0.672 0.219 0 0.531-0.234 0.422-0.266 0.547-0.281v0.484zM40.953 22.172q0 0.906-1.156 2.406t-2.016 1.719v-0.484q0.422-0.422 1.234-1.281 0.703-0.781 0.828-1.422-0.375-0.375-0.484-0.375-0.156 0-0.453 0.125t-0.438 0.125q-0.047-0.438 0.578-1.117t1.063-0.68q0.844 0 0.844 0.984zM25.594 9.984q0 0.469-0.406 1t-0.844 0.531q-0.172 0-1.016-0.484t-1.016-0.484q-0.109 0-0.742 0.617t-0.773 0.617q-0.469 0-1.844-0.984 0.047-1.922 1.156-1.922 0.234 0 0.938 0.344t0.859 0.344q0.094 0 0.648-0.609t0.82-0.609q0.5 0 1.359 0.586t0.859 1.055zM27.359 23.234q0 0.438-2.484 1.859-0.813 0.469-3.391 1.922l-0.328-0.344q0.469-0.906 2.422-2.016 2.578-1.469 3.141-1.922h0.641v0.5zM66.406 15.938v-0.516q-0.719-0.734-0.891-0.734-0.766 0-0.766 0.813 0.469 0.438 0.797 0.438h0.859zM52.984 12.719v-0.469q-0.578-0.594-1.031-0.594-0.438 0-0.906 0.891 0.469 0.5 1.063 0.5 0.313 0 0.875-0.328zM43.438 14.313q-0.734-0.188-1.234-0.188-0.516 0-0.703 0.219 0.75 0.766 1.031 0.766 0.641 0 0.906-0.797z"></path>
</svg>
