<!-- Generated by IcoMoon.io -->
<svg version="1.1" xmlns="http://www.w3.org/2000/svg" width="76" height="32" viewBox="0 0 76 32">
<title>surah57</title>
<path d="M56.047 2.844q-0.219 0.422-0.609 1.219-0.375 0.688-0.938 0.688-1.109 0-1.109-1.75 0-2.344 1.578-3.375-0.594 2.391-0.594 2.531 0 0.547 0.375 0.922-0.172 0 0.922-0.406 0.125 0 0.375 0.172zM60.484 5.625q0 0.719-0.516 1.047-1.797 0.734-3.281 1.422-1.75 0.813-8.859 4.313-1.203 0.734-3.516 2.016-0.172-0.203-0.172-0.469 0-0.563 0.563-1.258t1.125-0.992q5.266-2.75 8.984-4.422 4.438-2 4.625-2h0.875q0.172 0.031 0.172 0.344zM48.688 1.125q0 0.172-0.086 0.43l-0.086 0.258q-0.125 0.156-0.375 0.156-0.125 0-1.172-0.688-0.203 0.172-0.453 0.625-0.063 0.797-0.219 2.391-0.188 1.484-1.125 2.375-0.297-0.625-1.094-2.25-0.344-0.656-0.875-1.031-0.859-0.391-0.984-0.469-0.625-0.375-0.688-0.734v0.016q-0.031 0-0.031-0.234 0-0.328 0.258-0.719t0.555-0.391q0.781 0 1.719 1.078l1.266 1.547q0.219-0.703 0.656-2.141 0.563-1.719 1.313-1.719 0.406 0 0.914 0.539t0.508 0.961zM67.25 23.703q0 0.906-1.195 2.109t-2.086 1.203h-0.859q0.125-0.422 1.266-1.141 1.25-0.781 1.641-1.406-0.219-0.234-0.563-0.234-0.156 0-0.375 0.078t-0.297 0.078q-0.016 0-0.016-0.031-0.156-0.141-0.156-0.438 0-0.438 0.602-0.883t1.070-0.445q0.969 0 0.969 1.109zM52.844 17.422q0 0.484-0.586 1.164t-1.086 0.68q-1.109 0-1.109-1.938 0-0.891 0.469-2.047 0.516-1.281 1.188-1.672-0.047 0.344-0.375 1.547-0.297 1.031-0.297 1.484 0 0.391 0.5 0.828 0.391-0.172 0.656-0.688h0.641v0.641zM76.109 18.406q0 0.125-0.859 1.375-0.031 0-0.297 0.086t-0.438 0.086q-0.156 0-0.453-0.070t-0.438-0.070q-0.672 0-0.813 0.125-0.094 0.266-0.438 2.156-0.281 1.453-0.969 2.141-0.297-0.172-0.297-3.484-0.172-0.797-0.656-0.797-0.969 0-5.469 1.484-2.063 0.703-7.484 2.359-2.297 0.672-6.641 1.203-0.156 0.016-0.563 0.117t-0.625 0.102h-1.031q-3.125 0-5.516-1.219-3-1.563-3.641-4.578-5.047 5.641-9.828 5.641-3.516 0-3.516-2.969 0-1.578 0.859-3.609 0.078-0.156 0.688-1.188 0.516-0.781 0.516-1.016 0-0.188-0.344-0.906-1.547 2.297-4.203 4.047-2.938 1.938-5.422 1.938-1.516 0-2.313-1.422-0.594-1.063-0.594-2.344 0-1.109 0.766-3.25 0.719-2.047 1.406-3.047 0.031-0.109 0.031-0.203 0-0.078-0.031-0.172-0.391-0.609-0.391-1.531 0-2.031 1.875-5.188 0.219-0.125 0.516-0.125v0.469q0 0.141-0.516 1.031-0.891 1.609-0.891 2.641 0 0.813 0.516 1.234 0.516-0.281 1.641-1.109 0.203 0.188 0.203 0.406 0 0.5-0.891 1.75-0.438 0.344-1.172 1.109-1.672 2.734-1.672 4.672 0 2.422 2.203 2.422 1.016 0 2.266-0.438 0.844-0.281 3.188-1.859 3.016-2.016 3.016-3.172 0 0.422-0.391-1.625-0.438-2.281-1.203-4.844-0.125-0.453-0.719-2-0.469-1.203-0.469-1.422 0-0.203 0.25-0.672 0.328-0.641 0.328-0.688h0.625q1.531 2.781 2.328 6.156 0.391 1.844 1.203 5.516 0.688 2.828 2.672 2.828 1.578 0 1.578-1.156 0-0.484-0.688-1.563t-0.688-1.344q0-0.938 0.609-1.719 0.891 0.313 1.625 1.766 0.672 1.313 0.672 2.375 0 1.641-0.891 2.891-0.984 1.406-2.563 1.406-1.328 0-2.719-1.547-1.438 1.016-1.438 3 0 0.797 0.68 1.469t1.461 0.672h0.922q0.313 0 2.234-0.781 1.469-0.594 2.219-1.031 1.844-1.156 3.516-3.016 0.047-0.141 0.047-0.859 0-1.625-1.047-5.102t-1.047-4.445q0-0.25 0.734-2.063 0.281 0 0.469 0.297 1.406 2.844 2.344 7.203 0.344 1.703 1.016 5.078 0.875 3.047 3.016 3.672 0.469 0.266 1.391 0.609 1.906 0.438 3.719 0.438 3.594 0 6.906-0.859 5.422-1.422 7.984-2.688-0.469-0.469-4.391-1.047l-3.219-0.844v-0.563q0-1.359 1.703-1.672 0.781-0.078 2.359-0.172 1.156-0.078 2.313-0.203 0.25-0.266 0.25-1.234l-1.234-12.453q0-0.688 0.719-1.641 0.406 0 0.578 0.297 2.031 3.688 2.031 4.172 0 0.172-0.094 0.313t-0.094 0.156q-0.172 0-0.5-0.063t-0.484-0.063q-0.219 0.234-0.219 0.719l0.969 8.5q0 0.313-0.289 1.273t-0.289 1.273q0 0.156 0.063 0.25t0.063 0.203l6.141 0.828q0.125-0.297 0.125-1.125l-1.391-15.359q0-0.641 0.891-1.828 1.578 1.141 2.438 5.094-0.344 0.328-0.5 0.328-0.109 0-0.688-0.266-0.219 0.188-0.219 0.453l0.984 8.719q0 0.297 0.453 3.594 0.094 0.172 0.344 0.469 1.859 0 3.219 0.344v0.766zM24.609-0.297q-0.391 0.875-0.906 0.875-0.094 0-0.266-0.055t-0.281-0.055q-0.266 0-0.469 0.219-0.172 0.766-0.484 2.328-0.078 0.375-0.672 1.578-0.359-0.016-0.641-0.813-0.219-0.641-0.484-1.297-0.328-0.578-0.766-0.891-0.297-0.047-0.813-0.219-0.594-0.281-0.594-0.859 0-1.031 0.844-1.031 0.563 0 1.25 0.609 0.547 0.516 1.063 1.031 0.188 0 0.266-0.078 0.563-1.625 0.641-1.688 0.297-0.578 1.063-0.578 0.938 0 1.25 0.922zM39.563 24.063q-0.234 0.297-2.055 1.43t-2.070 1.102h-0.734v-0.734q0-0.375 1.844-1.344 0.625-0.328 2.375-1.219h0.641v0.766zM24.469 23.703q0 0.313-0.469 0.914t-0.766 0.602q-0.172 0-0.914-0.414t-0.914-0.414q-0.094 0-0.68 0.477t-0.82 0.477q-0.578 0-1.195-0.563t-0.617-1.125q0-0.359 0.445-0.922t0.727-0.563q0.328 0 1.797 1.109 0.125-0.078 0.766-0.734 0.469-0.516 0.688-0.516 0.5 0 1.227 0.602t0.727 1.070zM17.969 22.813q0 0.484-0.594 0.844-3.797 2.25-4.359 2.25h-0.563q-0.172-0.031-0.172-0.344 0-0.641 0.594-0.953 1.984-1.078 4.891-2.297 0.203 0.203 0.203 0.5z"></path>
</svg>
