<!-- Generated by IcoMoon.io -->
<svg version="1.1" xmlns="http://www.w3.org/2000/svg" width="84" height="32" viewBox="0 0 84 32">
<title>surah58</title>
<path d="M83.578 17.938q0 3.078-1.297 4.969l-0.281-0.172q0.188-2.828-0.141-5.688l-1.875-16.563q0-1.5 0.984-1.5 0.234 0 0.328 0.078 0.297 0.438 0.984 1.859 0.766 1.563 0.766 1.828v0.859q0 0.172-0.344 0.172-0.516-0.047-0.547-0.078-0.219 0.203-0.219 0.75zM70.172 6.938q0 0.766-0.641 0.766-0.156 0-0.477-0.211t-0.492-0.211q-0.141 0-0.953 0.938-0.969 1.063-1.406 1.375-0.781 0.516-2.531 1.281v-0.516q3.719-3.375 3.719-3.688 0 0.109-0.797-1.234-0.016-0.172-0.016-0.516 0-0.469 0.422-1.219 0.516-0.859 1.078-0.859 0.859 0 1 2.656 0.109 0.125 0.602 0.672t0.492 0.766zM67.234 0.75q0 0.922-0.859 1.359-1.891 0.969-6.516 2.781-8.938 3.516-8.938 4.875 0 0.125 0.625 0.898t0.625 0.977q0 0.344-0.258 0.758t-0.57 0.414q-0.578 0-1.266-0.859t-0.688-1.422q0-0.469 0.406-1.406t0.75-1.203q1.031-0.672 2.828-2 0.297-0.297 0.297-1.203 0-0.688-0.469-1.625-0.188-0.438-0.953-1.375-0.641-0.844-0.641-1.016 0-0.469 0.172-0.594 0.266-0.172 0.469-0.172 0.344 0 1.5 1.406 0.641 0.797 0.641 2.813v1.078q0.047 0.094 0.172 0.094l12.359-5.094q0.313 0.328 0.313 0.516zM75.141 22.984q0 0.422-0.422 0.953t-0.828 0.531q-0.375 0-1.016-0.555t-0.641-0.93q0-0.297 0.508-0.938t0.805-0.641q0.172 0 1.516 1.141 0.078 0.172 0.078 0.438zM79.422 16.859q-0.344 2.188-1.719 2.188-0.219 0-0.688-0.063t-0.688-0.063q-1.781 0-3.313 0.438-2.016 0.875-7.188 2.844-6.078 2.109-9.438 2.109-3.875 0-6.406-1.016-1.844-0.734-2.484-1.813-1.203-2.094-1.453-5.719-0.078-1.844-0.297-5.484-0.047-0.609-0.688-5.688-0.047-0.422-0.453-1.625-0.344-1.078-0.344-1.422 0-0.125 0.891-1.875 0.734 0.344 0.891 1.328 0.078 0.5 0.188 1.484 0.531 2.328 0.844 6.984 0.375 5.484 0.688 7.828 0.25 1.75 1.891 3.109 0.5 0.406 0.813 0.563 2.219 0.984 3.844 0.984h1.781q2.781 0 6.688-1.016 4.016-1.063 6.281-2.406 0-0.125-0.25-0.266-1.063-0.359-3.125-0.469-2.172-0.172-3.125-0.453v-0.703q0-0.328 0.891-1.188 0.734-0.734 1.203-1.031 0.25-0.172 2.516-1.406 1.391-0.766 2.359-1.109 0.563-0.203 1.672-0.594 1.578-0.641 1.578-1.328l-1.109-9.281q0-0.609 0.609-1.859 0.453 0.219 1.445 1.766t0.992 2.016v0.734q-0.188 0.125-0.531 0.125-0.281 0-0.625-0.063-0.078 0.063-0.078 0.344 0 0.75 0.469 3.266 0.547 3.031 1.047 3.031 0.172 0 0.484-0.078t0.5-0.078q1.25 0 2.234 0.719 1.078 0.797 1.078 2 0 0.734-0.641 1.891-0.766 1.359-1.578 1.359-2.109 0-3.859-3.078-0.375-0.031-0.609 0.078-3.156 1.203-5.375 2.406 0 0.078 0.25 0.266 6.125 0.859 6.625 0.859 4.188 0 5.313 0.453zM58.938 17.203q0 0.422-0.711 1.133t-1.148 0.711q-0.672 0-1.109-1.016-0.344-0.828-0.344-1.625 0-1 0.563-2.75 0.609-1.953 1.297-2.359 0.234 0.172 0.344 0.172-1.094 2.922-1.094 3.563 0 0.5 0.219 1.063 0.266 0.734 0.688 0.734 0.266 0 0.813-0.547h0.484v0.922zM41.484 1.734q0 0.375-0.313 0.703-1.656-0.422-1.188-0.422-0.641 0-0.813 2.281-0.063 1.281-0.781 1.875-0.328-0.203-0.781-1.281t-1.188-1.578q-0.375-0.047-0.969-0.219-0.578-0.297-0.578-1.016 0-1.172 0.875-1.172 0.281 0 2.484 2.219 0.422-0.406 0.719-1.844 0.25-1.063 1.031-1.063 0.453 0 0.977 0.539t0.523 0.977zM42.719 9.328q0 0.406-0.5 0.977t-0.922 0.57q-0.891 0-0.891-2 0-1.453 0.891-3.047 0.172-0.094 0.344-0.094 0.141 0 0.266 0.063-0.688 2.047-0.688 2.438 0 0.844 0.547 0.844 0.172 0 0.516-0.195t0.438-0.195v0.641zM26.969 0.359q0 0.625-1.063 1.203-0.047 0.063-1.469 0.766-0.891 0.453-3.203 1.75h-0.438q-0.203-0.172-0.203-0.469 0-0.688 2.484-2.047 0.391-0.219 3.109-1.625h0.453q0.328 0.328 0.328 0.422zM43.313 17.797q0 0.344-0.297 1.25t-0.484 1.078q-1.516 1.328-4.391 3.453-4.656 2.641-6.047 2.641-0.813 0-1.219-0.281-1.078-0.875-1.078-2.813 0-0.75 0.156-1.641-0.156-0.344-0.625-0.344-0.313 0-1.078 0.195t-1.078 0.195q-2.516 0-4.313-2.453-0.625-0.875-0.813-0.875-0.563 0-1.438 0.813-0.359 0.375-1.078 1.922-0.344 0.766-1.063 2.266-1.156 2.203-2.234 2.203-1.281 0-2.281-2.391-0.766-1.859-0.797-2.781 0.078-0.844 0.078-2.25 0-0.781-0.031-1.766-0.219-0.328-0.609-1.094-0.297-1-0.297-2.578 0-3.547 2.391-7.484 0.516 0 0.516 0.5 0 0.359-0.469 1.547-1.328 3.25-1.328 4.594 0 2.5 1.188 2.5 0.453 0 0.875-0.594l0.688-0.938q0.422 0.266 0.422 0.781 0 0.719-0.609 1.703-0.422 0.641-1.375 1.453-0.641 0.516-0.641 1.328 0 1.406 0.531 3.047 0.719 2.219 1.875 2.219 1.297 0 2.109-2.734 1.438-4.75 3.938-4.75 0.547 0 1.109 0.922 0.797 1.219 1.266 1.641 1.047 0.906 2.734 0.906 0.359 0 1.984-0.438 0.5-0.141 0.891-0.641 0.047-0.172 0.047-0.781l-2.484-15.469q0.219-1.047 0.594-1.766 0.438 0.188 2.438 3.641v0.469q-0.156 0.078-0.469 0.313-0.422-0.141-0.688-0.141-0.109 0.125-0.047 0.438 0.141 0.516 0.453 1.859 0.297 1.563 0.891 4.719 0.688 3.547 0.688 5.172 0 2.063-0.484 3.641l-0.5 1.547q0 2.141 1.484 2.141 1.516 0 5.234-2.359 3.594-2.281 4.359-3.516-0.594-0.797-3.125-1.969-1.234-0.563-2.578-1.922-1.5-1.531-1.828-1.781-0.344-0.438-0.344-1.047 0-0.297 0.297-1.234h0.719q0.438 0 2.734 1.125v0.5q-0.125 0.094-0.719 0.391 0.563 1.016 3.641 2.438 2.609 1.203 2.609 3.281zM18.25 3.125q0 0.406-0.492 1.039t-0.883 0.633q-0.844 0-0.844-1.375 0-0.469 0.336-1.367t0.648-1.008q0.078 0.25-0.047 1.016-0.094 0.594 0.25 1.063l0.844-0.422q0.188 0.188 0.188 0.422zM24.906 10.406q0 0.266-0.461 0.922t-0.727 0.656q-0.141 0-0.883-0.406t-0.945-0.406q-0.109 0-0.789 0.555t-0.852 0.555q-0.203 0-1.578-1.016 0-0.391 0.266-0.984 0.344-0.781 0.891-0.781 0.172 0 0.859 0.344t0.891 0.344q0.141 0 0.719-0.617t0.703-0.617q0.375 0 1.141 0.617t0.766 0.836zM25.734 23.203q0 0.641-0.734 1.063-4.672 2.672-5.313 2.672-0.125 0-0.336-0.086t-0.258-0.086v-0.438q0-0.297 2.5-1.688 2.172-1.219 3.656-1.859 0.016 0 0.297 0.125 0.188 0.109 0.188 0.297zM77.359 13.219q-0.203-0.422-0.594-0.797l-0.781 0.156q0.313 0.641 0.781 0.641h0.594zM68.125 4.891l-0.172-0.391-0.203 0.078 0.172 0.313h0.203z"></path>
</svg>
