<!-- Generated by IcoMoon.io -->
<svg version="1.1" xmlns="http://www.w3.org/2000/svg" width="54" height="32" viewBox="0 0 54 32">
<title>surah59</title>
<path d="M36.984 3.563q0 0.266-0.445 0.641t-0.711 0.375q-1.031 0-1.031-1.391 0-0.578 0.508-1.531t0.992-1.219q-0.547 1.594-0.547 2.063 0 0.125 0.063 0.297t0.063 0.297q0.031 0 0.141 0.047t0.234 0.047q-0.094 0 0.734-0.391v0.766zM40.609 4.453q-0.203 1-0.594 1.203-1.703 0.859-6.844 2.781 0-0.031-0.086-0.125t-0.086-0.266q0-0.672 2.656-1.781 3.922-1.641 4.188-1.813h0.766zM31.594 0.734q0.094 1.031-1.469 2.188-1.484 1.109-2.594 1.109-0.172-0.047-0.766-0.344 0.844-0.672 2.375-1.422 0-0.25-0.281-0.422-0.609-0.297-1.406-0.297-0.188 0-0.875 0.359-0.938 0.5-1.188 0.594v-0.469q0-0.578 1.281-1.453 1.203-0.828 1.672-0.828 0.328 0 1.641 0.391t1.609 0.594zM47.406 22.719q0 1.766-2.953 3.016h-0.531q0.766-0.813 2.375-2.109-0.109-0.172-0.609-0.43t-0.5-0.414q0-0.344 0.516-0.688t0.859-0.344q0.844 0 0.844 0.969zM30.938 9.375q0 0.469-0.461 1.023t-0.945 0.555q-0.344 0-0.922-0.555t-0.578-0.898q0-0.453 0.43-0.883t0.867-0.43q0.297 0 0.953 0.445t0.656 0.742zM54.188 18.313q-0.266 0.875-1.156 1.594-0.141 0.125-0.688 0.219-0.141 0.219-0.594 1.5-0.344 1.047-0.906 1.5v-2.25q0-1.219-1.375-1.219-1.703 0-3.5 0.625-1 0.484-3.047 1.281-3.578 1.031-5.266 1.031-1.703 0-2.125-0.203-0.188-0.094-0.852-0.648t-0.789-0.555q-0.031 0-0.805 0.555t-1.414 0.555-1.383-0.555-0.758-0.555q-1.922 1.25-2.875 1.25-0.766 0-2.094-0.898t-1.953-0.898q-0.953 0-3.641 1.484-1.25 0.688-3.891 3.047-1.891 1.688-3.203 1.688-1.516 0-2.516-1.008t-1-2.523q0-0.859 1.828-4.578 0.219-0.219 0.641-0.719 0.141-0.219-0.031-0.609-0.328-0.844-0.328-1.844 0-3.172 3.594-7.922h0.641v0.453q0 0.156-0.609 1.172-0.766 1.219-1.016 1.641-0.094 0.375-0.344 1.109-0.266 0.219-0.609 0.813-0.172 1.125-0.172 1.5 0 1.594 0.844 1.594 0.391 0 0.875-0.609l0.766-0.938q0.297 0.203 0.297 0.453 0 0.734-0.766 1.891-0.859 0.656-2.406 2.094-1.969 2.219-1.969 4.297 0 2.063 1.859 2.063 0.875 0 2.938-1.734 3.047-2.609 4.016-3.281 2.578-1.734 4.703-1.734 0.938 0 2.242 0.898t2.039 0.898q0.859 0 1.922-0.844 1.422-1.109 1.688-1.234 0.078 0.375 0.203 1.109 0.172 0.813 1.031 0.813 0.813 0 1.422-0.766 0.891-1.078 1.266-1.297-0.172 1.125 1.031 1.859 0.984 0.625 1.969 0.625 1.156 0 2.828-0.391 1.828-0.422 2.641-0.969-0.047-0.047-0.375-0.25-3-0.984-6.125-1.609l-0.078-0.102t-0.078-0.273q0-0.859 1.141-1.375 0.906-0.422 1.844-0.422 0.141 0 0.477 0.063t0.477 0.063q0.359 0 1.008-0.078t0.914-0.094q0.281-0.375 0.234-0.719l-1.109-12.797q-0.031-0.547 0.906-1.797 1.844 2.563 1.844 3.5v0.875q-0.125 0-0.359-0.047t-0.359-0.047q-0.234 0.219-0.234 0.953l0.828 8.031q0 1.531-0.688 3.156v0.359q0.594 0.375 1.328 0.469 4.625 0.594 5.047 0.594 0.719 0 0.625-1.031l-1.344-15.234q-0.047-0.625 0.891-1.844 0.391 0 0.594 0.281 1.578 3.656 1.578 3.484v0.734q-0.109 0.078-0.297 0.078-0.328 0-0.844-0.188-0.094 0.188-0.094 0.766 0-0.016 0.219 2.766 0.094 1.625 0.328 4.891 0.188 3.031 0.734 5.078 0.609 0.266 1.766 0.938zM33.297 12.172q0 0.516-0.406 0.961t-0.922 0.445q-0.172 0-0.813-0.414t-0.797-0.414q-0.063 0-0.68 0.555t-1.039 0.555q-0.188 0-0.859-0.469-0.766-0.547-0.984-0.641-0.047-0.109-0.047-0.234 0-0.531 0.516-1.125t1.031-0.594q0.172 0 0.875 0.422t0.844 0.422q0.156 0 0.781-0.484t0.828-0.484q0.391 0 1.031 0.57t0.641 0.93zM20.969 2.281q0 0.156-0.078 0.375t-0.078 0.234h-0.938l-0.516-0.531q-0.469 0.516-0.945 2.094t-0.992 2.063q-0.297-0.594-0.938-1.797-0.813-1.531-1.281-1.531-0.141 0-0.133 0.063t-0.133 0.063q-0.375 0-0.781-0.391t-0.406-0.766q0-1.031 1.031-1.031 0.969 0 1.891 1.328 0.359 0.516 1.047 1.578l0.438-1.203q0.125-0.422 0.375-1.203 0.406-1.047 0.953-1.047 0.344 0 0.914 0.68t0.57 1.023zM34.656 23.625q0 0.641-1.047 1.734-0.906 0.969-1.219 1.063h-0.5q0.156-0.547 1.531-1.859v-0.5q-0.281-0.141-0.813-0.125v-0.453q0-0.25 0.438-0.57t0.719-0.32q0.891 0 0.891 1.031zM22.484 9.563q0 0.516-0.594 0.875-0.406 0.234-0.656 0.234 0.203 0-0.547-0.016h-0.594l-0.047 0.109t-0.047 0.25q0 0.234 0.406 1.273t0.406 1.633q0 1.797-0.953 3.125l-0.219-0.219q0.219-1.297 0.219-1.922 0-0.828-0.484-1.938t-0.484-1.453q0-0.547 0.563-2.141 0.703-1.891 1.281-1.891 0.469 0 1.109 0.797t0.641 1.281zM24.266 24.063q-0.25 0.281-0.859 0.688-1.875 0.813-2.594 1.078-1.641 0.641-2.75 0.75 0.391-0.922 0.703-1.047 1.359-0.563 4.875-1.984h0.625v0.516z"></path>
</svg>
