<!-- Generated by IcoMoon.io -->
<svg version="1.1" xmlns="http://www.w3.org/2000/svg" width="75" height="32" viewBox="0 0 75 32">
<title>surah6</title>
<path d="M74.703 5.734q-0.078 0.016-0.328 0.172-0.219-0.156-0.563-0.422-0.422 0.094-0.344 1.031l0.719 9.281q0.172 2.391 0 3.891-0.375 2.688-1.547 3.641-0.078-0.563 0-1.969 0.094-1.719 0.094-2.234 0-1.094-0.133-3.195t-0.133-3.164q0-0.422-0.188-1.203t-0.188-1.188v-5.781q0-0.266-0.133-0.797t-0.133-0.797q0-0.297 0.469-1.156t0.703-1.063q0.672 1.484 1.703 4.484v0.469zM52.422-4.219q-1.156 0.547-3.422 1.531-0.172-0.031-0.172-0.344 0-0.344 1.281-1.242t1.703-0.898q0.172 0 0.305 0.070t0.164 0.070q0 0.125 0.070 0.398t0.070 0.414zM54.766-0.625q-0.297 0.25-2.094 0.891-0.422 0.391-1.453 1.063 0.078-0.453 0.078-1.266-0.813-0.563-0.813-1.109 0-0.359 0.938-1.281t1.281-0.922q0.828 0 0.828 0.828 0 0.156-0.070 0.391t-0.070 0.297q-0.766 0-1.016-0.125l-0.219 0.234q0.25 0.469 1.109 0.469 0.141-0.031 1.344-0.125l0.156 0.172v0.484zM68.766 5.453q-0.125 0.047-0.297 0.047-0.313 0-0.859-0.172-0.016 0.5-0.016 1.094 0 1.375 0.305 4.156t0.305 4.188q0 3.172-1.625 5.609-1.938 2.828-5.469 3.422-0.359 0.047-1.594 0.438-1.078 0.344-1.484 0.344-0.172-0.047-0.75-0.344l4.063-1.891q2.719-1.297 3.656-2.438 0.172-0.203 0.172-1.078 0-1.797-2.109-4.516-2.594-2.719-5.859-6.344-0.391-0.438-2-3-1.672-2.703-1.672-3.234 0-0.438 0.328-1.375h0.438q0.609 0 3.25 2.656v0.641q-0.688-0.047-0.969 0.25 1.047 1.75 3.313 4.156 2.828 3.031 3.531 3.969 1.828 2.359 2.391 4.719v0.5q-0.016 0.344-0.016 0.547 0 0.828 0.266 0.828 0.953 0 0.766-2.484l-0.969-13.297q-0.016-0.297 0.328-1.109t0.563-0.953q0.328 0.219 1.172 1.945t0.844 2.117v0.609zM70.297 21.563q0 0.781-0.852 1.75t-1.633 0.969q0.219-0.313 1.375-1.844l-0.375-0.344q-0.172 0.125-0.281 0.125-0.172 0-0.172-0.344t0.414-0.688 0.758-0.344q0.766 0 0.766 0.719zM48.703 4.172q0 0.984-0.93 1.914t-1.914 0.93q-0.922 0-0.922-1.406 0-0.375 0.672-1.625 0.734-1.406 1.234-1.406 0.406 0 1.133 0.594t0.727 1zM58.953 17.047q0 0.406-0.469 0.93t-0.859 0.523q-0.281 0-0.891-0.563-0.047-0.375-0.047-0.719 0-1.844 1.203-2.875 0.438 0.266 0.172 0.781-0.375 0.75-0.375 0.938 0 0.578 0.344 0.922 0.109-0.125 0.719-0.422 0.203 0.188 0.203 0.484zM50.625 9.156q0 0.344-0.414 0.898t-0.758 0.555q-0.5 0-1.039-0.461t-0.539-0.93q0-0.359 0.445-0.805t0.789-0.445q0.391 0 0.953 0.422t0.563 0.766zM45.625-1.703q-0.109 0.688-0.219 0.938-0.188 0.484-0.609 0.688-4.359 1.375-9.438 3.25-2.031 0.766-10.422 4.797-0.172-0.203-0.172-0.547 0-0.906 1.078-1.453 1.406-0.703 1.625-1.031 0.188-0.25 0.188-1.547 0-0.844-0.063-1.156-0.031-0.203-0.813-1.5-0.797-1.234-0.797-1.625 0-0.5 0.344-0.813 0.594 0.188 1.313 0.984 0.984 2.281 0.984 2.797 0 0.297-0.148 0.891t-0.148 0.906v0.406q0.094 0.094 0.297 0.094 0.172 0 2.219-0.891 2.719-1.172 3.359-1.422 1.75-0.672 10.813-3.766h0.609zM42.188 6.938q0 0.438-0.469 0.891-0.297-0.156-1.141-0.672-0.438 0.344-0.813 2.063-0.406 1.922-0.656 2.375-0.375-0.172-0.977-1.43t-1.164-1.602q-0.422 0-1.25-0.078-0.453-0.391-0.453-0.938 0-0.359 0.336-0.797t0.695-0.438q0.641 0 1.578 1.047 0.766 0.828 0.969 1.328 0.047 0 0.188-0.047 0.281-0.328 0.281-0.703 0-0.578 0.016-0.734 0.078-0.438 0.523-1.078t0.805-0.641q0.375 0 0.953 0.555t0.578 0.898zM54.25 19.656q0 2.219-1.516 3.5t-3.75 1.281q-1.063 0-3.313-1.727t-2.313-1.727q0.234 0-2.031 1.063-6.969 3.219-12.438 3.219-2.531 0-4.375-0.703-0.922-0.375-1.953-1.672-0.234-0.297-0.984-2.219-0.125-0.094-0.297-0.094 1.781 0-1.773 2.211t-4.664 2.211q-1.234 0-2.125-1.031-0.859-0.953-0.859-2.219 0-1.281 1.078-3.219 0.859-1.547 0.859-1.781 0 0.797-0.344-0.742t-0.344-2.273q0-1.656 1.023-4.078t2.211-3.609h0.516v0.641q-0.031-0.125-0.672 0.984-0.984 1.625-1.594 3.453-0.375 1-0.375 1.344 0 0.578 0.281 1.313 0.313 0.906 0.75 0.984 0.5-0.625 1.625-1.953 0.25 0.5 0.25 0.547 0 0.547-1.156 2.734-0.547 0.375-1.453 1.25-1.672 2.391-1.672 4.063 0 2.219 1.719 2.219 0.641 0 1.359-0.453t2.984-2.578q2.375-2.219 2.375-2.578v-4.438q0-2.219-0.875-9.813-0.078-0.672-0.438-2.148t-0.359-1.602q0-0.266 0.75-1.719 0.391 0 0.578 0.297 0.938 3.547 1.266 9.172l0.516 8.719q0.016 0.328 0.297 0.641 1.813-0.906 2.609-1.203 0.859-0.172 2.109-0.969-0.172-0.484-0.172-1.391 0-3.078 1.953-3.078 0.859 0 2.195 1.289t1.336 2.148q0 1.5-0.734 2.016-0.656 0.203-1.922 0.672-0.297 0.141-0.703 1.188-0.078-0.063-0.477-0.367t-0.586-0.305q-0.641 0-2.953 0.859-2.594 0.969-2.594 1.625 0 0.938 1.453 2.094 1.234 0.969 2.375 1.203 0.688 0.156 2.672 0.156 6.875 0 11.641-3.125-0.109-0.625-1.219-1.016-0.891-0.313-1.672-0.313-0.203 0-0.406 0.016-0.172-0.188-0.172-0.547 0-1.5 2.313-2.234 1.656-0.547 3.578-0.547 2.156 0 4.453 0.813 1.016 0.375 1.016 0.797 0 1.172-1.359 1.813-1.891 0.922-1.969 0.969 0.516 0.938 1.672 1.672t2.219 0.734q0.813 0 1.984-0.391 1.609-0.516 1.609-1.328 0-0.25-1.172-2.844t-1.172-2.844q0.031-0.094 0.203-0.906 0.125-0.594-0.203-0.797h0.906q0.797 0.875 2.266 2.672-0.172 0.188-0.734 0.219-0.094 0.063-0.094 0.406 0 0.125 0.422 1.047 0.438 1 0.5 1.195t0.063 1.133zM43.563 23.625q0 0.859-0.789 1.891t-1.617 1.422l-0.641-0.188q0.594-0.578 1.813-1.859v-0.484q-0.188-0.125-1.109-0.125v-0.438q0-0.313 0.531-0.688t0.859-0.375q0.297 0 0.625 0.273t0.328 0.57zM34.438 18.313q0 0.531-3.5 2.031-0.938 0.422-3.375 1.453-0.203-0.016-0.203-0.313 0-0.766 2.813-2.063 0.969-0.453 3.625-1.609h0.641v0.5zM47.453 4.875q-0.734-0.766-1.203-0.766-0.328 0.609-0.328 0.766 0 0.281 0.344 0.609 0.844-0.297 1.188-0.609zM45.234 17.594q-0.313-0.313-0.641-0.313h-1.984q0.094 0.172 0.656 0.695t0.719 0.523q0.656 0 1.25-0.906zM30.844 14q-1.156-1.156-1.625-1.156h-0.578l-0.172 0.609q0.641 0.984 0.703 1.070t0.484 0.086q0.563 0 1.188-0.609z"></path>
</svg>
