<!-- Generated by IcoMoon.io -->
<svg version="1.1" xmlns="http://www.w3.org/2000/svg" width="82" height="32" viewBox="0 0 82 32">
<title>surah60</title>
<path d="M81.578 18.922q0 1.875-0.875 3.719-0.063 0-0.234 0.063t-0.25 0.063v-0.984q0 0.141-0.688-7.219l-1.109-11.641q-0.031-0.219-0.266-1.797-0.172-1.234-0.172-1.453 0-0.609 0.906-1.797 2.109 3.547 2.109 4.328v0.625q-0.141 0.047-0.297 0.047-0.344 0-0.703-0.172-0.078 0.141-0.078 0.719zM69.391 4.453q0 0.125-0.328 0.766h-0.563q-0.141 0-0.203-0.148t-0.234-0.148q-0.156 0-0.625 0.609-0.563 0.734-0.766 0.906-0.781 0.688-3.016 1.922h-0.641q1.25-1.203 3.891-3.906-0.063-0.109-0.641-0.766-0.469-0.547-0.469-0.766 0-0.547 0.469-1.547 0.578-1.281 1.391-1.281 0.875 0 0.922 1.453v1.594q0.813 1.094 0.813 1.313zM67.016 10.484q0.078 0.188 0.078 0.406 0 0.938-1.516 1.906-1.359 0.828-2.219 0.828h-1.031q0.391-0.391 2.359-1.75-0.047-0.047-0.375-0.234-0.906-0.203-1.234-0.203-0.516 0-1.813 0.969-0.172-0.031-0.172-0.328 0-0.375 0.938-1.297 0.859-0.875 1.297-1.094 0.125-0.047 0.719-0.047-0.203 0 2.219 0.328 0.313 0.047 0.75 0.516zM72.563 22.172q0 0.688-0.773 1.609t-1.445 0.922q-0.078 0-0.125-0.016 0.766-0.984 1.109-1.672-0.078-0.063-0.516-0.156-0.313-0.047-0.313-0.297 0-0.313 0.492-0.734t0.805-0.422q0.766 0 0.766 0.766zM64.656-0.641q0 0.609-0.563 0.828-1.672 0.641-3.734 1.609-0.422 0.234-0.953 1.539t-0.531 1.883q0 0.734 0.5 1.25 0.141 0 0.563-0.258t0.563-0.289l0.070 0.109t0.070 0.281q0 0.453-0.563 1.125t-1 0.672q-1.047 0-1.047-2.141 0-0.828 0.703-2.891v-0.406q0.094-0.094-0.234-0.094 0.203 0-6.047 2.406-1.109 0.547-3.328 1.563-0.438 0.141-1.297 0.422t-1.266 0.828q-0.703 0.984-0.703 2.875 0 0.5 0.234 0.922h0.344q0.469-0.5 0.875-0.703 0.188 0.188 0.188 0.469 0 0.516-0.516 1.273t-1 0.758q-1.109 0-1.109-1.875 0-1.625 0.984-3.453-0.078-0.094-0.203-0.094l-4.719 2.063h-0.594q0.141-0.563 0.594-1.469 0.172-0.203 2.188-1.156 2.531-1.203 7.75-3.328l7.484-3.047q0.813-0.328 3.219-1.438 2.203-1.031 2.344-1.031h0.734v0.797zM48.344 1.047q0 0.844-0.766 0.844-0.156 0-0.414-0.148t-0.367-0.148q-0.547 0.891-0.813 3.031-0.031 0.172-0.328 0.172-0.094 0-1.844-2.016l-0.766-0.078q-0.547-0.078-0.656-0.438 0-1.781 1.047-1.781 0.156 0 1.953 1.828 0.344-0.047 0.844-1.211t0.922-1.164q0.266 0 0.727 0.422t0.461 0.688zM57.891 12.344q0 0.375-0.367 0.906t-0.742 0.531q-0.125 0-0.836-0.406t-0.883-0.406q-0.156 0-0.656 0.477t-0.672 0.477q-0.344 0-2.078-0.984 0-0.531 0.406-1.148t0.906-0.617q0.172 0 0.859 0.344t0.891 0.344q0.141 0 0.688-0.555t0.688-0.555q0.391 0 1.094 0.602t0.703 0.992zM79.203 19.813q0 0.781-0.531 1.406-0.797 0.828-0.922 1.094-0.266 0.203-0.75 0.203-1.922 0-3.547-2.906l-4.109 1.656q-0.109 0-0.281-0.063t-0.297-0.063q-1.391 0-2.359 0.172-0.297 0.078-0.836 1.539t-1.102 1.461q-1.234 0-1.734-2.063-0.297-1.266-0.234-2.313 0-0.078-0.109-0.172-2.625 2.328-4.281 2.328-2.359 0-3.469-2.063-1.031 1.016-2.813 1.844-1.891 0.906-3.219 0.906t-2.234-0.641q-1.031-0.75-0.922-2.063 0.125-1.109 0.125-0.828 0-0.328-0.641-0.328-0.219 0-4.453 1.859t-5.641 1.859q-2.281 0-3.609-1.953-0.625 0.625-2.047 1.656-1.328 0.734-2.734 0.734-1.172 0-2.359-0.859-0.734-0.531-1.656-1.594-0.75-0.859-0.875-0.859-0.672 0-2.563 2.031-0.375 0.813-1.188 2.469-0.984 1.844-2.219 1.844-0.734 0-1.297-0.594-1.797-1.938-1.797-5.703 0-1.484 0.469-1.875l0.25 0.203q0.125 1.047 0.469 3.172 0.531 2.734 1.984 2.734 1.016 0 1.953-1.844 0.344-0.719 1-2.141 1.844-2.672 3.281-2.672 0.531 0 1.203 0.844 0.984 1.25 1.422 1.594 1.094 0.859 2.563 0.859 2.172 0 4.531-3h0.5q0.406 2.734 3.484 2.734 1.031 0 3.031-0.891 1.016-0.453 3.078-1.422 0-0.203-0.125-0.266-0.469-0.156-1.922-0.672-1.344-0.469-1.5-0.469-0.172 0-0.5 0.172t-0.453 0.203q-2.172 0.469-3.203 0.469-0.609 0-0.609-0.563 0-0.672 0.563-1.438 0.266-0.359 1.922-0.859 1.547-0.469 2.141-0.469 0.828 0 2.875 0.813 2.234 0.891 2.531 0.938 1.672 0.313 3.328 0.313-0.078 0 0.156 0h2.938v0.641q0 0.719-0.875 1.109-0.719 0.234-2.313 0.813 0.141 1.734 2.094 1.734 1.625 0 3.516-0.984t2.75-2.344h0.469q0.859 2.625 3.156 2.625 0.859 0 1.625-0.438 0.641-0.359 1.844-1.547 1.078-1.063 1.234-1.063 0.125 0 0.82 0.766t0.867 0.891q0.922 0.563 3.078 0.563 1.141 0 2.813-0.516 2.188-0.672 2.188-1.625l-1.938-16.734q0-1.156 0.766-1.906 0.641 0.422 1.094 1.438 1.188 2.375 1.188 2.781v0.906q-0.172 0-0.5-0.063t-0.516-0.063q-0.094 0.172-0.094 1.063 0.031 0.422 0.219 2.188 0.594 5.734 1.188 9.406 0.078 0.313 0.469 0.594 1.766-0.078 2.922 0.703 1.281 0.859 1.281 2.594zM55.406 23.547q0 0.641-1.922 2.266 0.078-0.234 0.813-1.703-0.172-0.188-0.813-0.516-0.078-0.344 0.328-0.781t0.75-0.438q0.844 0 0.844 1.172zM37.266 7.406q0 0.516-0.492 1.164t-0.961 0.648q-1.031 0-1.031-2.016t1.453-3.516q0.188 0.016 0.188 0.344 0 0.203-0.406 1.172t-0.406 1.188q0 0.469 0.375 1.031h0.375q0.172 0 0.367-0.203t0.211-0.203q0.328 0.313 0.328 0.391zM39.063 0.094q0 0.688-1.969 1.641-0.734 0.344-2.219 1.047l-5.609 2.656q-3.328 1.594-4.75 2.953-0.25 0.219-0.25 0.438 0 0.172 0.188 0.516t0.188 0.5q0 0.313-0.453 0.609-1.172-0.219-1.172-1.375 0-1.719 3.375-3.344l0.734-0.5q1.109-0.688 2.141-1.203 2.563-1.203 9.156-4.359h0.469q0.172 0.172 0.172 0.422zM24.391 1.891l-0.156 0.641q0 0.016-0.016 0.016-0.125 0.156-0.375 0.156-0.063-0.047-0.781-0.391-0.5 0.063-0.672 1.719-0.188 0.734-0.516 2.281-0.359-0.094-0.977-1.203t-1.164-1.375q-0.563-0.094-1.703-0.469-0.063-0.125-0.063-0.266 0-0.5 0.383-1.016t0.852-0.516q0.281 0 2.234 1.953 0.391-0.172 0.734-1.609 0.297-1.328 0.969-1.328 0.281 0 0.766 0.555t0.484 0.852zM31.313 13.391q0.063 0.141 0.063 0.313 0 0.5-0.383 0.992t-0.836 0.492q-1.109-0.375-1.609-0.875-0.047-0.391 0.406-1.148t0.828-0.758q0.484 0 1.531 0.984zM22.031 12.156q-0.047 1.766-1.234 1.766-0.172 0-0.766-0.266t-0.766-0.266q-0.125 0-0.773 0.477t-0.82 0.477q-0.297 0-1.844-1.109 0.531-1.797 1.297-1.797 0.156 0 0.852 0.422t0.867 0.422q0.156 0 0.734-0.555t0.719-0.555q0.344 0 1.734 0.984zM24.656 24.563q-1.234 1.078-4.766 2.641-0.203-0.141-0.328-0.141v-0.438q0-0.516 2.047-1.563 0.813-0.375 2.406-1.172h0.641v0.672zM67.563 1.891q-0.344 0-0.547 0.188 0.25 0.469 0.531 0.625 0.016-0.156 0.016-0.813z"></path>
</svg>
