<!-- Generated by IcoMoon.io -->
<svg version="1.1" xmlns="http://www.w3.org/2000/svg" width="68" height="32" viewBox="0 0 68 32">
<title>surah61</title>
<path d="M67.234 4.234q-0.344 0.313-0.516 0.313-0.125 0-0.391-0.219-0.344-0.328-0.391-0.344-0.25 0.469-0.25 1.063l1.25 13.672q0 3.891-1.172 4.516-0.109-0.109-0.297-0.328 0.078-2.578-0.516-8.984-0.641-6.797-0.641-9.859 0-0.578-0.273-1.711t-0.273-1.539q0-0.547 1.016-2.203 0.344 0 0.438 0.156 1.891 4.672 2.016 4.875v0.594zM53.953 10.016q0 0.703-0.523 1.359t-1.227 0.656q-0.156 0-0.203-0.078t-0.188-0.078q-0.188 0-0.852 0.352t-0.836 0.352q-1.328 0-1.328-2.375 0-1.031 0.172-1.469 0.078-0.031 0.328-0.172 0.344 0.094 0.422 1.281 0.063 1.078 0.688 1.078 0.516 0 0.516-0.719 0-0.234-0.148-0.953t-0.133-0.906q0.063-0.109 0.453-0.469 0.391 0.266 0.609 1.125 0.281 0.938 0.547 1.234h0.469q0.125 0.094 0.125-0.219 0-0.172-0.289-0.805t-0.289-0.773q0-0.375 0.328-0.953h0.469q0.891 1.031 0.891 2.531zM54.609 0.188q0 0.453-1.469 1.031-0.516 0.203-1.609 0.594-2.906 1.141-7.484 3.109-2.266 0.984-9.156 4.469-0.188-0.219-0.188-0.563 0-0.953 0.75-1.453 2.297-1.516 10.047-4.844 7.609-3.25 8.563-3.25 0.156 0 0.344 0.070t0.203 0.070v0.766zM62.656 22.688q0 0.844-0.734 1.922t-1.531 1.219q0.5-0.813 1.016-1.984v-0.641q-0.047-0.047-0.172-0.047-0.297 0-0.906 0.203 0-0.031-0.086-0.133t-0.086-0.273q0-0.359 0.586-0.938t0.961-0.578q0.953 0 0.953 1.25zM39.547 2.953q0 0.297-0.508 0.875t-0.82 0.578q-1.188 0-1.188-1.656 0-2.063 1.203-2.906 0.109 0.5-0.047 0.969-0.188 0.563-0.188 0.75v1.063q0.016 0 0.156 0.063t0.281 0.063q0.172 0 0.43-0.195t0.336-0.227q0.344 0.344 0.344 0.625zM45.359 10.5q0 0.813-0.641 0.813 0.25 0-0.906-0.266-0.281 1.297-0.984 4.016h-0.469q-0.453-0.859-1.484-2.375-0.297-0.188-0.961-0.641t-0.664-1.078q0-0.313 0.297-0.672t0.609-0.359q0.547 0 2.219 2.094 0.219-0.125 0.563-1.578 0.344-1.359 1.047-1.359 0.406 0 0.891 0.484t0.484 0.922zM31.109 2.953q0 1.859-1.313 2.016-0.375-0.047-1.109 0.047-1.625 0.484-1.328 0.484-0.953 0-0.953-0.906v-2.391q0.172 0 0.469-0.297 0.172 0.625 0.578 1.953h0.75q-0.031-0.297-0.031-2.313l0.344-0.328q0.297 0.125 0.508 1t0.758 1.219q0.109-0.125 0.109-0.438 0-0.203-0.055-0.586t-0.055-0.57q0-0.516 0.234-0.766 0.109 0 0.453 0.219 0.641 0.969 0.641 1.656zM60.594 17.625q0.031 0.281 0.031 0.563 0 3.391-5.219 4.328-4.063 0.719-9.094 0.719-0.344 0-1.031-0.063t-1.031-0.063q-0.813 0-1.078 0.609-0.406 0.922-0.75 1.172v-1.516q0-0.359-0.219-0.516-1.203-0.766-1.375-0.906-0.766-0.563-1.109-1.203-0.719 0.75-1.453 1.328-1.672 1.297-3.516 1.297-1.109 0-3.039-1.18t-1.664-1.18q-0.078 0-1.305 0.508t-1.57 0.57l-3.797 0.891q-1.875 0.391-4.531 0.391-6.469 0-8.141-3.5-0.375-0.781-0.375-1.266 0-1.531 0.438-2.672 0.078-0.172 0.625-1.125 0.469-0.813 0.469-0.984 0-0.297-0.289-1.18t-0.289-1.18q0-0.203 0.117-0.594t0.117-0.594q0.219-3.672 3.141-6.969 0.516 0 0.516 0.391 0-1.172-1.094 1.461t-1.219 3.492q-0.188 1.234-0.188 1.625 0 2.016 0.984 2.016 0.172 0 0.75-0.711t0.875-0.93q0 0.047 0.086 0.32t0.086 0.414q0 0.484-0.531 1.477t-0.977 1.359-1.305 0.492q-0.438 0.297-0.641 0.859-0.297 0.938-0.297 1.719 0 0.938 1.266 2.125 1.156 1.094 2.141 1.266 2.406 0.469 4 0.469 1.906 0 5.219-0.609 3.828-0.719 4.781-1.547-0.094-1.109-0.047-2.078 0.016-1.031 0.766-2.5 0.859-1.703 1.813-1.703 0.922 0 1.625 1.547 0.594 1.266 0.594 1.969 0 0.688-0.469 1.828-0.078 0.172-0.625 0.734t-0.547 0.766q0 1.031 3.016 1.453 0.156 0 0.398-0.109t0.367-0.109q1.25-0.031 2.516-1.484 0.594-0.656 1.766-2.016 0.297-0.016 0.938 1.828 0.203 0.406 1.039 0.953t1.273 0.547q0.25 0 1.75-1.703 1.891-2.141 3.047-3.125 2-1.703 3.406-1.703 1.063 0 2.609 0.922 1.813 1.031 1.813 2.203 0 0.406-1.297 3.375l0.078 0.172q1.391-0.438 2.797-0.891 1.313-0.516 1.313-1.609-0.031-0.328-0.5-3.656-0.516-3.719-0.688-5.703-0.344-3.641-0.516-7.344 0-0.094-0.188-0.461t-0.188-0.57q0-0.219 0.891-1.922 0.344 0 0.438 0.156 2.141 3.953 2.141 4.188v0.875q-0.016 0.172-0.344 0.172-0.141 0-0.531-0.266t-0.516-0.313q0 0.172-0.063 0.492t-0.063 0.492zM31.234 8.578q0.016 0.547-0.375 1.164t-0.938 0.617q-0.469 0-1.875-1.016 0.453-1.75 1.313-1.75 0.484 0 1.875 0.984zM23.344 1.156q0 0.75-0.781 0.75-0.094 0-0.672-0.266-0.563 0.625-0.656 2.406t-0.563 2.297q-0.297-0.031-0.797-0.984l-0.734-1.406q-0.313-0.484-1.281-0.906-0.766-0.344-0.766-0.938 0-1.031 0.984-1.031 0.547 0 1.328 0.938 0.25 0.266 0.969 1.156 0.188-0.047 0.617-1.555t1.102-1.508q0.375 0 0.813 0.352t0.438 0.695zM22.938 9.594q0 0.938-1.328 1.063-1.563 0.172-1.859 0.594l0.813 5.141q0 1.578-0.906 3.375 0-1.906-0.25-4.484-0.016-0.297-0.438-1.75-0.328-1.156-0.328-1.297 0-0.797 0.5-1.781 0.609-1.172 1.422-1.281l-0.219-0.219q-1.078 0-1.031 0.047 0.813-1.672 1.406-1.672t1.406 0.859 0.813 1.406zM30.813 23.75q-1.234 1.047-8.109 3.438h-1.031q0.125-0.516 0.5-1.188 7.203-3.016 7.781-3.016h0.859v0.766zM54.484 18.266q0-0.641-1.547-1.266-1.313-0.531-1.922-0.531-1.109 0-2.531 1.203-0.125 0.125-2.391 2.406-0.141 0.641-0.172 0.609 0.469 0.203 1.313 0.203 2.719 0 4.719-1.078 0.469-0.172 1.359-0.547 1.172-0.547 1.172-1zM32.484 16.859q0-0.203-0.469-0.852t-0.719-0.648q-0.906 0-0.906 1.219 0.078 0.234 0.438 1.391h0.5q1.156-0.688 1.156-1.109z"></path>
</svg>
