<!-- Generated by IcoMoon.io -->
<svg version="1.1" xmlns="http://www.w3.org/2000/svg" width="66" height="32" viewBox="0 0 66 32">
<title>surah62</title>
<path d="M59.719 9.969q0 0.266-0.602 0.781t-0.883 0.516q-0.391 0-0.656-0.734-0.234-0.516-0.234-0.797 0-0.688 0.484-1.734t1.031-1.313v0.641q0.016 0.172-0.266 0.617t-0.281 0.586v0.969q0.094 0.063 0.219 0.063 0.25 0 0.672-0.219h0.516v0.625zM50.016 1.938q0 0.219-0.469 0.688t-0.688 0.469q-0.328 0-0.617-0.391t-0.289-0.719q0-0.594 0.344-1.5 0.422-1.078 0.859-1.25 0 0.266-0.125 0.82t-0.125 0.82q0 0.328 0.25 0.578 0.125 0 0.422-0.078t0.438-0.078v0.641zM51.672 9.297l-1.266 0.047q-0.828 1.281-2.563 2.664t-3.172 1.898l-0.172-0.203v-0.344q1.328-1.078 2.688-2.188 1.703-1.484 2.266-2.469-1.234-0.828-1.234-1.672 0-0.594 0.648-1.5t1.227-0.906q0.563 0 0.766 1.375 0.016 0.031 0.141 1.422 0.641 0.859 0.672 0.844v1.031zM45.578 8.563q0 0.641-0.609 0.641-0.094 0-0.289-0.078t-0.32-0.078q-0.281 0-1.5 1.266l-1.313 1.328q-0.516 0.344-1.891 0.984v-0.5q1.297-1.234 3.594-3.688-1.109-0.781-1.109-1.75 0-0.656 0.688-1.57t1.297-0.914q0.453 0 0.578 0.469 0.047 0.719 0.234 2.625 0 0.234 0.32 0.672t0.32 0.594zM58.75 24.703q0 0.344-0.492 0.859t-0.836 0.516q-0.219 0-1.594-1.031 0.766-1.594 1.453-1.594 0.391 0 0.93 0.43t0.539 0.82zM45.578-0.922q0 0.813-0.703 1.188-1.031 0.344-3.469 1.203-16.031 6.078-16.031 7.172 0 0.094 0.625 0.883t0.625 1.055q0 1.109-0.828 1.109-0.766 0-1.359-1.156-0.438-0.844-0.438-1.203 0-0.516 0.492-1.563t0.914-1.297q0.875-0.5 3.188-1.484 15.125-6.313 16.422-6.313 0.563 0 0.563 0.406zM38.25 9.391q0 0.672-0.563 1.5-0.625 0.922-1.234 0.922-1.141 0-1.406-2.563 0-0.688 0.578-2.328t1-2.031q0.344 0 0.516 0.203-0.828 1.938-0.828 3 0 1.5 0.828 1.5 0.172 0 0.492-0.32t0.414-0.367q0.203 0.188 0.203 0.484zM66.063 17.844q0 0.438-1.625 1.547-0.125 0.766-0.359 2.297-0.234 1.203-0.922 1.891-0.172-0.594-0.063-2.078 0.094-1.391-0.063-1.766-0.313-0.719-1.594-0.719-1.969 0-6.18 1.664t-5.805 1.664q-0.156 0-0.133-0.070t-0.148-0.070q-0.781 0-1.227 1.516t-0.836 1.516q-0.469 0-1.258-0.742t-0.922-1.258-0.211-2.469q-0.047-0.078-0.172-0.219l-2.188 1.719q-1.188 0.766-2.656 0.766-1.234 0-2.406-0.719-0.719-0.438-1.625-1.328-0.719-0.703-0.891-0.703 1.984 0-2.445 1.242t-5.773 1.242q-4.313 0-6.547-4.734-0.672-0.047-1.656 0.969-0.891 0.906-1.109 1.625-1.453 4.469-3.094 4.469-1.359 0-2.25-2.453-0.594-1.625-0.609-2.578 0-0.625 0.102-1.781t0.102-1.703q0 0.844-0.742-0.828t-0.742-2.344q0-1.578 0.938-4.063 0.828-2.266 1.875-3.766h0.438q-0.156 0.859-1.109 2.938-0.891 1.859-0.891 3.094 0 2.141 1.234 2.141 0.25 0 0.734-0.656l0.719-1.016q0.203 0.047 0.203 0.375 0 0.219-0.234 0.563 0 0.563-0.656 1.656-0.734 1.25-0.859 1.609-0.328 0.75-0.328 1.781t0.516 2.578q0.719 2.125 1.781 2.125t1.719-1.531l0.594-1.922q0.547-1.234 1.453-2.281 1.109-1.328 2.109-1.328 0.516 0 0.766 0.297 0.344 0.734 1.188 2.063 2.047 2.344 4.891 2.344 1.391 0 3.078-0.406 2.078-0.469 2.656-1.203-1.563-1.172-2.406-1.172-0.422 0-0.953 0.188-0.375 0.125-0.766-0.016 0.469-1.922 2.672-2.891 1.703-0.734 3.828-0.734 1.688 0 2.188 0.203 0.141 0.047 1.703 0.484 1 0.266 1.641 0.844 0.031 0.188 0.031 0.359 0 0.922-1.016 1.656-0.813 0.313-1.25 0.484-1.094 0.469-1.094 0.969 0 0.734 1.109 1.234 0.891 0.406 1.75 0.406 1.406 0 2.703-0.781 0.719-0.438 1.828-1.484 0.844-0.781 1.125-0.781-1.047 0 1.008 1.18t2.883 1.18q1.016 0 2.594-0.531 0.906-0.328 2.734-0.938 0-0.078-0.109-0.156-1.734-0.531-6.5-1.422-0.188-0.203-0.188-0.422 0-0.984 1.281-1.594 1-0.469 2.109-0.469 0.156 0 0.25 0.070t0.25 0.070q2.219 0 2.219-0.984l-1.688-13.484q0-0.516 0.891-1.75 0.375 0.25 1.273 1.766t0.898 1.906v0.594l-0.344 0.313q-0.203-0.078-0.672-0.266-0.047 0.094-0.219 0.359l1.234 9.109q-0.109 1.266-0.688 3.453 0.484 0.469 1.172 0.609 3.109 0.594 5.25 0.594 0.891 0 1.172-0.375-0.344-2.922-1.047-10.359-0.047-1.297-0.172-4.703-0.031-0.141-0.227-0.547t-0.195-0.563q0-0.125 0.383-0.797t0.523-0.828q0.172 0.172 0.984 1.656 0.859 1.578 0.859 2.016v0.844q0 0.125-0.703 0.234-0.25 0.422-0.25 0.797 0 2.141 0.609 6.109 0.891 5.703 0.938 6.141 0.156 0.172 0.344 0.328 0.594 0.047 1.281 0.344v0.594zM27.859 2.203q0 0.469-0.453 0.961t-0.922 0.492q-0.813 0-0.813-1.469 0-1.484 1.031-2.531 0 0.281-0.109 0.859t-0.109 0.859q0 0.359 0.375 0.766 0.109 0 0.484-0.203t0.516-0.203v0.469zM30.766 11.469q0 0.359-0.617 1.109t-0.961 0.75q-0.438 0-0.781-0.875-0.25-0.688-0.25-1.031 0-0.813 1.281-3.063 0.516 0 0.516 0.391 0 0.25-0.359 1.055t-0.359 1.039q0 0.688 0.344 0.688 0.172 0 0.547-0.203t0.5-0.203q0.141 0.016 0.141 0.344zM21.094 1.297q0 0.219-0.469 0.672-0.219-0.109-1.125-0.672-0.453 0.344-0.594 1.828-0.172 1.672-0.625 2.453-0.359 0-0.828-1.281-0.844-1.625-2.813-2.219-0.344-0.438-0.344-0.922 0-0.297 0.273-0.633t0.57-0.336q0.578 0 1.469 0.938 1.438 1.5 1.484 1.547 0.172-0.531 0.484-1.578 0.469-1.328 1.109-1.328 0.625 0 1.063 0.719 0.344 0.563 0.344 0.813zM35.047 23.453q0 0.813-0.531 1.609-0.594 0.891-1.359 0.984-0.047-0.219 0.266-0.828 0.453-0.828 0.547-1.125-0.375-0.375-0.5-0.375-0.531 0-0.531 0.281-0.219-0.031-0.219-0.344 0-0.5 0.5-0.906t1.016-0.406q0.813 0 0.813 1.109zM22.344 10.234q0 0.313-0.516 0.945t-0.813 0.633q-0.141 0-0.922-0.422t-0.953-0.422q-0.109 0-0.594 0.422t-0.625 0.422q-0.406 0-2.094-1.016 0.297-0.641 0.594-1.234 0.234-0.359 0.781-0.359 0.219 0 0.797 0.266t0.797 0.266q0.156 0 0.719-0.492t0.734-0.492q0.297 0 1.195 0.617t0.898 0.867zM23.156 23.531q-0.875 0.953-2.625 1.906l-2.953 1.594h-0.469q-0.172-0.016-0.172-0.344 0-0.438 0.344-0.688 4.328-2.969 5-2.969h0.875v0.5zM43.906 6.547q0-0.375-0.188-0.547-0.125 0.125-0.203 0.375 0.125 0.109 0.391 0.172zM36.875 16.859q-1.781-0.453-1.828-0.469-0.125 0-0.367 0.086t-0.289 0.086q0.703 1.063 1.297 1.063 0.391 0 1.188-0.766z"></path>
</svg>
