<!-- Generated by IcoMoon.io -->
<svg version="1.1" xmlns="http://www.w3.org/2000/svg" width="82" height="32" viewBox="0 0 82 32">
<title>surah63</title>
<path d="M81.375 19.141q0 0.984-0.328 2.359-0.391 1.609-0.891 1.703l-1.844-18.047v-3.172q0-0.219-0.195-0.883t-0.195-0.914q0-0.359 0.734-1.891 1.656 1.75 2.297 4.406-0.125 0.078-0.344 0.078-0.297 0-0.813-0.172-0.078 0.172-0.078 1.031zM67.234 6q0 0.469-0.492 1.094t-0.93 0.625q-1.063 0-1.063-1.719 0-1.891 1.375-2.984v0.641q0 0.172-0.266 0.75t-0.266 0.75q0 0.5 0.641 1.156 0.234-0.063 0.828-0.656 0.172 0 0.172 0.344zM68.5-0.797q0 0.906-2.266 1.781-0.891 0.484-3.297 1.719-0.719 0.297-2.125 0.906-1.719 0.813-1.719 1.328 0 0.156 0.414 0.656t0.414 0.672q0 0.281-0.281 0.586t-0.547 0.305q-0.344 0-0.938-0.563-0.328-0.344-0.328-0.859 0-2.313 4.609-4.281 1.656-0.719 5.891-2.594 0.172 0.031 0.172 0.344zM78.188 19.422q0 3.125-2.359 3.125-1.031 0-2.016-1.188-0.469-0.594-1.406-1.75-0.641 0.391-1.875 1.078-1.844 1.016-3.641 1.016-1.813 0-3.203-1.938-0.609 0.75-2.016 1.891-0.906 0.469-2.234 0.469-1.031 0-1.109-0.031-0.422-0.125-1.406-0.859-0.516-0.359-0.828-1.375-0.516-1.531-0.891-6.531-0.203-3.125-0.594-7.75-0.078-0.813-0.516-2.797l-0.422-2.047q0-0.547 0.922-2.016 0.172 0.172 0.406 0.469 0.641 2.797 1.094 8.813 0.063 2.141 0.141 4.281 0.203 3.313 0.891 5.141 0.906 2.484 2.797 2.484 1.672 0 2.672-1.109 0.063-0.078 1.797-2.063h0.625q-0.047 0.297-0.047 0.547 0 2.203 2.344 2.203 0.813 0 2.609-0.688 2.188-0.859 2.188-1.797 0-0.297-0.172-0.984-0.188-0.781-0.219-1.031-0.516-4.328-0.844-8.031-0.047-1.328-0.219-4.688 0-0.359-0.18-1.070t-0.18-1.086q0-0.344 0.703-1.797 0.391 0 0.469 0.172 1.438 2.609 2.016 4.188-0.172 0.203-0.172 0.328l-0.984-0.125q-0.219 0.469-0.219 0.688 0 2.359 1.266 12.531 0.094 0.641 0.578 0.641 0.172 0 0.492-0.078t0.477-0.078q3.266 0 3.266 2.844zM65.313 12.078q0 0.375-0.438 0.914t-0.813 0.539q-0.297 0-1.891-1.281-0.031-0.172-0.031-0.516 0-0.438 0.344-0.984t0.766-0.547q0.563 0 1.359 0.875 0.703 0.75 0.703 1zM72.391 23.016q0 0.813-1.172 1.938-1.047 1.031-1.906 1.297-0.063-0.297 0.938-1.313t1.031-1.453q-0.5-0.203-1.234-0.125v-0.641q0.984-0.891 1.281-0.891 0.391 0 0.727 0.391t0.336 0.797zM46.188 2.703q0 0.438-0.578 0.922t-0.797 0.484q-1.109 0-1.109-1.703 0-0.641 0.445-1.609t0.914-1.375l0.172 0.469q-0.266 0.375-0.563 1.109v1.328q0.047 0 0.219 0.063t0.266 0.063q0.156 0 0.531-0.273t0.5-0.273v0.797zM49.125 6.125q0 0.344-0.43 0.969t-0.758 0.625q-0.344 0-1.18-0.563t-0.836-0.891q0-0.313 0.469-0.953t0.781-0.641q0.281 0 1.117 0.602t0.836 0.852zM63.516 23.422q0 1.813-1.719 2.406 0.047-0.172 0.734-1.563-0.125-0.391-0.469-0.391-0.688 0-0.609 0.016v-0.484q0.984-1.016 1.359-1.016 0.703 0 0.703 1.031zM41.906 6.766q0 0.359-0.367 0.93t-0.742 0.57q-0.141 0-0.828-0.344t-0.891-0.344q-0.141 0-0.781 0.477t-0.813 0.477q-0.406 0-1.094-0.492t-0.688-0.883q0-0.344 0.453-0.922t0.781-0.578q0.219 0 0.875 0.406t0.781 0.406q0.141 0 0.719-0.625t0.75-0.625q0.375 0 1.109 0.602t0.734 0.945zM37.781 3q0 0.172-0.078 0.391t-0.078 0.266q-0.203 0.109-0.656 0-0.547-0.094-0.672-0.094t-1.156 1.063q-1.281 1.297-1.828 1.797-0.688 0.641-1.672 1.125-2.016 1.016-2.734 0.969 0.547-0.641 1.703-1.563 4.391-3.484 4.391-4.078 0-0.203-0.328-0.516-0.516-0.5-0.578-0.594t-0.063-0.766q0-0.563 0.547-1.406 0.641-1.031 1.328-1.031 0.938 0 0.953 1.484l-0.047 1.625q0.078 0.125 0.523 0.625t0.445 0.703zM54.359 21.797q-0.609 0.516-4.594 2.438-3.109 1.5-4.906 2.016-0.172 0-0.172-0.344 0-0.766 1.703-1.516l7.266-3.234h0.703v0.641zM30.828-0.234q0 0.406-2.75 1.734-1.5 0.703-4.188 1.969-0.344 0.234-0.953 0.609-0.797 0.344-2.375 1.078-1.766 0.875-1.766 1.453 0 0.125 0.477 0.789t0.477 0.867q0 0.719-0.469 0.719-1.031 0-1.594-2.094 0-1.578 2.109-2.719 9.453-5.016 10.297-5.016h0.734v0.609zM20.172 1.719q0 0.25-0.391 0.57t-0.641 0.32q-0.766 0-0.766-0.984 0-0.422 0.445-1.344t0.789-1.125q0 0.25-0.125 0.719t-0.125 0.703q0 0.672 0.813 0.641v0.5zM52.031 16.094q0 1.359-0.203 1.703-0.813 1.563-3.25 2.672-2.109 0.969-3.969 0.969-3.016 0-4.688-2.172-0.578-0.766-0.766-0.766-0.219 0-1.156 0.344-1.094 0.406-1.5 0.813-0.25 0.219-0.625 1.313-0.391 1.156-0.688 1.516-1.234 1.688-5.219 3.391-2.438 1.094-3.969 1.094-4.344 0-4.25-5.281l-2.141 0.516q-1.328 0.344-2.469 0.344-1.766 0-3.305-1.422t-1.539-3.156q0-0.75 0.477-2.258t0.477-2.227q0-0.422-0.266-1.258t-0.266-1.258q0-1.813 1.281-4.891 1.172-2.813 2.109-3.891 0.203 0.016 0.203 0.344 0 0.141-0.328 0.719-0.391 0.75-0.484 0.953-1.672 4.203-1.672 5.125 0 0.469 0.266 1.156 0.313 0.828 0.688 0.828 0.5 0 1.609-1.672 0.188 0.047 0.188 0.375 0 0.469-0.594 1.766-0.563 1.188-0.734 1.328-0.484 0.297-1.25 1.094-0.75 1.156-0.75 2.313 0 0.813 0.453 1.469 1.516 2.344 4.484 2.344 3.063 0 6.891-2.859 2.313-1.719 2.313-2.063 0 0.125-1.063-2.313-0.266-0.641-0.563-1.406-0.031-0.563-0.109-1.25 0-0.109-0.242-0.492t-0.242-0.57q0-0.625 0.594-1.5h0.469q1.047 0.813 1.719 1.984-0.047 0.078-0.383 0.375t-0.336 0.469q0 0.297 0.633 1.898t0.633 1.914q0 2.141-1.484 3.594-0.516 0.516-2.734 1.891-1.469 0.938-1.469 1.828 0 1.328 1.172 2.172 1.063 0.75 2.422 0.75 2.063 0 5.047-1.547 2.781-1.453 3.422-2.563-0.109-0.313-0.984-0.313-0.156 0-0.477 0.063t-0.492 0.063q-2.906 0-2.906-2.297 0-0.875 0.766-2.234 0.891-1.547 1.922-1.547 0.734 0 1.719 1.328 0.5 0.641 1.359 1.844 1.672 0 2.625-1.063-0.344-2.391-0.188-3.438 0.078-0.641 0.656-1.703 0.766-1.406 1.656-1.406 0.938 0 1.719 1.844 0.625 1.453 0.625 2.094 0 0.469-0.328 1.406-0.094 0.297-0.773 1.172t-0.68 1.016q0 0.813 1.906 1.359 1.375 0.391 2.234 0.391 1.969 0 4.203-1.281 1.484-0.844 1.484-1.125 0-0.922-1.531-0.922-0.25 0-0.766 0.063t-0.766 0.063q-2.484 0-2.484-2.219 0-1.109 0.922-2.375 1-1.344 2.063-1.344t2.406 2.219q1.188 1.922 1.227 2.523t0.039 1.273zM40.266 22.672q0 0.531-0.719 1.813-0.766 1.344-1.203 1.391l-0.297-0.063q0.984-1.844 0.984-1.969 0-0.469-0.438-0.469-0.125 0-0.383 0.055t-0.43 0.055v-0.453q0-0.359 0.539-0.844t0.898-0.484q0.281 0 0.664 0.344t0.383 0.625zM21.578 14.375q0 0.406-0.32 0.891t-0.742 0.484q-0.359 0-0.969-0.445t-0.609-0.789q0-0.422 0.32-0.984t0.727-0.563q0.438 0 1.016 0.477t0.578 0.93zM18.641 23.844q0 0.391-0.844 1.313t-1.266 1.094q0.313-0.672 1.016-1.563-0.375-0.453-0.969-0.375v-0.438q0-0.219 0.539-0.641t0.789-0.422 0.492 0.383 0.242 0.648zM76.813 19.828q-0.594-0.875-1.203-0.875h-0.734q0.063 0.266 0.617 0.742t0.836 0.477q0.141 0 0.484-0.344zM35.953 1.047v-0.484l-0.328-0.328q-0.359 0.344-0.359 0.516 0.313 0.297 0.688 0.297zM48.828 13.5q0-0.234-0.281-0.656t-0.531-0.422q-0.219 0-0.531 0.297t-0.313 0.547q0 0.219 0.172 0.391 0.203 0.047 0.422 0.047 0.438 0 1.063-0.203zM41.641 14.297q0-0.203-0.516-0.984-0.563-0.891-0.938-0.891-0.891 0-0.891 1.109 0 0.609 0.563 2.063h0.5q1.281-0.922 1.281-1.297zM33.469 17.797q-0.516-0.797-1.078-0.797-0.328 0-0.719 0.625l0.344 0.344z"></path>
</svg>
