<!-- Generated by IcoMoon.io -->
<svg version="1.1" xmlns="http://www.w3.org/2000/svg" width="79" height="32" viewBox="0 0 79 32">
<title>surah64</title>
<path d="M78.469 20.406q-0.344 1.797-0.344 1.813-0.313 1.359-0.734 1.547l-2.656-22.719q0-0.703 0.875-1.922 2.297 3.766 2.297 4.641v0.609q-0.125 0-0.297 0.141-0.203 0-0.734-0.531-0.344 0.172-0.344 0.891zM66.531 4.063q0 0.453-3.906 2.156-4.656 1.969-5.938 2.859h-0.5v-0.594q0-0.719 4.016-2.563 1.953-0.859 5.859-2.625h0.469v0.766zM66.531 13.688q0 1.766-1.156 1.766-0.344 0-0.961-0.445t-0.617-0.789q0-0.172 0.406-0.797t0.406-0.797q0-0.125-0.688-0.781t-0.688-0.828q0-0.344 0.453-0.922t0.781-0.578q0.391 0 0.969 0.516t0.578 0.859q0 0.156-0.359 0.781t-0.359 0.828q0 0.172 0.469 0.547 0.688 0.531 0.766 0.641zM63.078-0.172q0 1.047-3.219 2.109-1 0.297-3.594 1.25-15.328 6.266-15.328 7.703 0 0.156 0.281 0.781t0.281 0.828q0 0.25-0.297 0.891h-0.766q-0.734-0.75-0.734-1.797 0-2.141 2.484-3.672 1.234-0.594 3.641-1.781 3.688-1.844 7.75-3.484 2.938-1.203 9.328-3.25 0.172 0.188 0.172 0.422zM53.828 9.984q0 0.281-0.5 0.883t-0.75 0.602q-0.328 0-0.93-0.484t-0.602-0.781q0-0.234 0.453-0.875t0.734-0.641q0.359 0 0.977 0.5t0.617 0.797zM72.359 17.813q-0.219 4.578-4 4.578-2.047 0-2.781-1.641-0.234-0.547-0.328-0.578-0.172 0-0.734 0.594-0.719 0.766-0.891 0.891-2.016 1.281-3.641 1.281-1.531 0-3.641-1.281-0.094-0.094-1.234-0.969-0.813-0.656-1.078-0.656-0.203 0.125-1.609 0.766-5.781 2.703-9.891 2.703-0.938 0-2.922-0.656-0.813-0.281-1.828-0.938-1.703-2.125-1.922-5.391-0.094-1.906-0.266-5.688-0.125-2-0.516-6.078-0.047-0.547-0.5-1.922-0.422-1.313-0.422-1.781 0-0.188 0.719-1.625h0.5q0.219 0.344 0.531 1.141 0.172 0.563 0.281 1.516 0.875 7.563 0.875 8.875v3.484q0 0.234 0.109 0.688t0.109 0.703q0.063 5.453 5.813 5.453 4.047 0 9.063-2.609v-0.344q-0.219-0.313-1.008-0.82t-1.133-0.508q-0.266 0-1.109 0.281-0.313-0.063-0.766-0.203 0.203-0.891 0.328-1.141 0.234-0.531 0.813-0.828 0.859-0.438 2.68-0.875t2.836-0.438q1.391 0 2.875 0.422 1.406 0.5 2.781 0.969 0.141 0.734-0.859 2.031-0.125 0-0.422 0.078-0.172 0.156-1.406 0.641-0.938 0.375-1.172 0.906 0.344 0.641 1.516 1.281 1.109 0.594 1.875 0.594 2.859 0 5.813-3.172 0.172 0.172 1.063 1.969 0.313 0.656 2.031 0.656 2.219 0 2.219-1.672l-2.344-17.375q-0.047-0.313 0.297-0.992t0.641-0.852q0.078 0.141 1.313 2.516 0.859 1.641 0.938 2.547 0 0.172-0.344 0.172-0.125 0-0.398-0.203t-0.398-0.203q-0.047 0.313-0.25 0.938zM46.078 1.547q0 0.266-0.5 0.766-0.313-0.234-0.953-0.547-0.438 0.609-0.82 2.148t-0.836 2.008q-0.391-0.297-0.719-1.305t-0.844-1.273q-0.625-0.172-1.969-0.938 0.047-0.344 0.156-0.984t0.797-0.641q0.609 0 1.547 1.078 0.047 0.047 1.156 1.406 0.281-0.125 0.688-1.641 0.375-1.391 1.047-1.391 1.25 0 1.25 1.313zM45.516 16.219q0 0.438-0.484 1.016t-0.906 0.578q-1.094 0-1.094-1.594 0-0.688 0.609-1.969t1.156-1.672q-0.813 3.188-0.813 2.875 0 0.719 0.547 0.719 0.172 0 0.438-0.141t0.375-0.141q0.172 0 0.172 0.328zM54.219 22.734q0 0.969-1.117 2.109t-2.133 1.406q-0.094-0.031-0.344-0.203 1.156-1 2.516-2.75-0.344-0.047-0.844-0.266 0-0.438 0.336-0.883t0.758-0.445q0.828 0 0.828 1.031zM31.828 4.25q0 0.844-0.516 0.844-0.125 0-0.492-0.289t-0.555-0.289q-0.094 0-0.922 0.969-1.156 1.359-2.008 1.906t-3.039 1.953h-0.516q1.797-1.75 5.391-5.313-0.078-0.156-0.891-0.859-0.625-0.547-0.625-0.938 0-0.469 0.672-1.5 0.766-1.188 1.484-1.188 0.688 0 0.828 0.469 0 0.969 0.219 2.609 0.078 0.25 0.523 0.867t0.445 0.758zM23.922 1.547q0 0.344-0.172 0.766h-0.641l-0.656-0.688q-0.234 0-0.297 0.094-0.156 1.109-0.516 3.438l-0.375 0.984q-0.094 0.031-0.328 0.172-0.469-0.875-0.813-1.563-0.563-1.141-1.156-1.406-0.516-0.031-1.547-0.672l0.094-0.906q0.203-0.844 0.797-0.844 0.484 0 1.297 0.875 0.25 0.266 1.313 1.469l0.594-1.844q0.438-1.328 1.078-1.328 0.484 0 0.906 0.477t0.422 0.977zM33.453 22.391q0.047 0.469-0.336 1.063t-0.82 0.594q-0.344 0-1.734-0.984 0.031-0.453 0.297-1.016 0.344-0.766 0.813-0.766 0.219 0 1.781 1.109zM33.063 13.156q0 0.25-0.359 1.188-0.391 1.031-0.656 1.203-0.438 0.297-1.797 0.797-0.422 0.172-0.5 0.578-0.109 1.109-0.344 1.859-0.344 1.219-0.984 1.797-1.813 1.594-4.797 2.906-3.172 1.391-5.391 1.391-2.563 0-4.203-1.25-1.875-1.375-1.875-3.859 0-1.234 0.719-3.703 0.234-0.813 0.234-0.688 0-0.141-0.266-0.766-0.344-0.734-0.383-0.859t-0.039-1.125q0-1.5 0.75-3.75 0.875-2.734 2.109-3.516 0.328 0.344 0.328 0.5 0 0.063-0.875 1.719-0.922 1.766-1.172 2.578-0.031 0.109-0.031 0.859 0 2.375 1.109 2.375 0.344 0 0.813-0.75l0.563-0.906q0.297 0.172 0.297 0.469 0 0.891-1.172 2.813-0.516 0.313-1.313 1.094-0.563 0.938-0.563 2.203 0 2.5 2.578 3.859 0.891 0.438 0.938 0.5h1.797q3.453 0 7.859-2.516 2.188-1.234 2.188-2.188 0-0.719-0.617-2.188t-0.617-1.641q0-0.688 0.453-1.563 0.281 0 0.656 0.563 0.438 0.656 0.609 0.734t0.766 0.078q1.797 0 1.797-0.719 0-0.016-0.656-0.984-0.172-0.391-0.172-0.859 0.359-1.203 0.609-1.484 1.609 1.391 1.609 3.25zM22.516 16.578q-0.047 1.797-1.109 1.797-0.406 0-1.305-0.563t-0.898-0.891q0-0.313 0.414-0.953t0.68-0.641q0.359 0.172 2.219 1.25zM27.906 24.281q-3.953 2.531-4.766 2.531h-0.719q-0.172-0.016-0.172-0.359 0-0.547 2.141-1.563 0.781-0.375 3.031-1.391h0.484v0.781zM56.172 16.344q-1.031-0.125-2.609-0.297 0.313 1.234 1.234 1.234 0.656 0 1.375-0.938zM29.703 1.219h-0.484l-0.172 0.5q0.313 0.297 0.641 0.297 0.016-0.125 0.016-0.797z"></path>
</svg>
