<!-- Generated by IcoMoon.io -->
<svg version="1.1" xmlns="http://www.w3.org/2000/svg" width="81" height="32" viewBox="0 0 81 32">
<title>surah65</title>
<path d="M80.438 18.891q0 1.266-0.609 3.313-0.047 0.188-0.453 0.578-0.094-0.172-0.297-0.469 0.125-0.828 0.125-1.797 0-1.297-0.297-3.688-0.313-2.734-0.359-3.781-0.078-1.266-0.422-4.125l-0.313-2.703v-3.563q0-0.203-0.211-0.789t-0.211-0.82q0-0.406 0.766-1.938 0.875 1.453 2.281 4.5v0.453q-0.016 0.172-0.344 0.172 0.141 0-0.813-0.406-0.219 0.453-0.219 0.75zM65.844 1.469q0.094 0.203 0.094 0.391 0 0.406-0.32 0.773t-0.68 0.367q-0.844 0-0.844-1.188 0-1.234 0.844-1.984h0.266q-0.391 0.906-0.391 1.031 0 0.516 0.359 0.906 0.172 0 0.672-0.297zM69.906 2.844q0 0.688-7.531 4.172h-0.469v-0.672q2.313-1.547 7.828-3.906 0.172 0.188 0.172 0.406zM69.234 10.547q0 0.25-0.414 0.953t-0.617 0.734q-0.484 0-1.406 0.094-0.125 0.016-0.828 0.313-0.547 0.234-0.859 0.172-0.875-0.781-0.875-2.547 0.078-0.109 0.5-0.891 0.25 0.297 0.375 1.328 0.063 0.734 0.734 0.734 0.266 0 0.563-0.359 0.031-0.422-0.016-1.109-0.063-0.875-0.063-1.109l0.328-0.328q0.313 0.203 0.477 1.078t0.773 1.266q0.344-0.328 0.172-1.227t0.109-1.258q0.188 0.188 0.609 0.953 0.438 0.844 0.438 1.203zM54.266 1.891q0 0.141-0.086 0.375t-0.086 0.313h-0.484q-0.219-0.375-0.906-0.688-0.547 0.391-0.547 2.281-0.141 0.875-0.391 1.828-0.109 0.031-0.328 0.172-0.859-1.5-1.344-2.109-0.344-0.406-1.609-1.109-0.438-0.281-0.438-0.797 0-0.297 0.273-0.703t0.539-0.406q0.734 0 2.313 2.344 0.297-0.172 0.766-1.672 0.422-1.359 1.031-1.359 0.438 0 0.867 0.531t0.43 1zM74.219 17.172q0 2.641-0.766 3.797-0.969 1.469-3.844 2.141-3.328 0.781-10.703 1.25-1.016 0.047-3.25 0.297l-2.141 0.219q-6.969 0-8.469-2.797-0.328-1.109-1.219-3.578-0.578 2.609-2.922 5.203-0.688 0.766-1.766 1.25-3.719 1.688-4.906 1.688h-0.719q0-0.438 0.297-0.609 2.828-1.25 4.438-2.438 2.734-2.031 3.844-4.063-0.109-0.094-0.672-0.094 0.047-2.906-3.859-6.672-5.906-5.656-7.406-8.703-0.625-0.766-1.609-2.375-0.016-0.047-0.016-0.781t0.172-1.078h0.609q2.438 1.859 3.641 2.922v0.5q-0.25 0.141-1.375 0.141 0.906 1.844 5.766 6.547 4.344 4.203 4.578 6.281 0.047 0.859 0.266 3.125 0.766-1.188 0.891-2.063 0.016-0.719-0.031-1.344l-1.109-13.781q-0.016-0.484 0.625-2.063 0.516 0.219 0.641 1.156 0.047 0.469 0.172 1.375 0.281 0.984 0.453 2.703l1.109 10.813q0.406 3.469 1.922 4.875 1.797 1.656 6.375 1.656 3.375 0 4.391-0.5 1.672-0.781 2.188-3.813l-2.219-17.266q0.156-0.703 0.719-1.844 0.125 0 0.469 0.234 0.703 1.297 1.984 3.984l-0.172 0.906q-0.344-0.297-1.109-0.719 0.031 0.078-0.016 0.313t-0.047 0.313q0 0.516 0.203 1.547t0.266 1.531q0.938 8.516 0.938 9.672 0 0.953-0.078 1.891l2.531-2.219q1.625-1.406 2.906-1.406 1.297 0 2.313 0.703 1.125 0.75 1.125 2.016 0 2.359-1.797 3.469 0.078 0.078 0.422 0.078 0.641 0 2.281-0.578t2.172-0.984q0.406-0.297 0.406-1.031l-2.094-17.719q0-0.094 0.656-1.844l0.281-0.156q2.031 3.328 2.234 4.656l-0.328 0.328q-0.234-0.109-0.828-0.703-0.203 0.234-0.203 1.047zM54.391 16.531q-0.141 0.469-0.516 1.375-0.531 1.141-1.328 1.141-0.516 0-1-0.844-0.469-0.75-0.469-1.297 0-1.141 0.563-2.734t1.281-2.438q0.516 0 0.516 0.25-0.078 0.219-0.672 1.344-0.438 0.891-0.438 2.047 0 1.438 0.766 1.75 0.984-0.688 1-0.734 0.156 0 0.297 0.141zM41.109 0.016q0 0.469-2.563 2.047-2.25 1.359-3.453 1.891-0.188-0.188-0.188-0.484 0-0.797 5.578-3.797h0.469q0.156 0.031 0.156 0.344zM36.828 18.063q-0.766 1.672-1.656 1.672-1.109 0-1.109-1.453 0-1.813 1.5-3.219-0.078 0.391-0.313 1.297-0.203 0.766-0.203 0.969 0 1.031 0.672 1.031 0.141 0 0.516-0.25 0.297-0.172 0.594-0.047zM22.563 1.453q-0.047 0-0.219 0.086t-0.313 0.086q-0.047-0.078-0.766-0.453-0.422 0.281-0.844 1.531-0.438 1.375-0.828 1.797-0.391-0.813-1.563-2.297l-1-0.297q-0.688-0.219-0.688-0.859 0-0.344 0.281-0.727t0.625-0.383q0.547 0 1.484 1.094 0.188 0.25 1.031 1.281 0.125 0 0.266-0.25 0.469-2.391 1.359-2.391 0.516 0 1.172 1.016v0.766zM27.297 6.859q0 0.391-0.383 0.961t-0.727 0.57q-0.641 0-2.016-1.109-0.125 0.078-0.68 0.664t-0.695 0.586q-0.328 0-1.18-0.586t-0.852-0.867q0-0.234 0.492-0.852t0.695-0.617q0.141 0 0.93 0.414t1.008 0.414q0.156 0 0.656-0.555t0.656-0.555q0.297 0 1.195 0.656t0.898 0.875zM29.906 17.453q0 1.844-0.625 2.797-0.266 0.438-2.719 2.438-1.391 1.141-3.922 1.992t-4.359 0.852h-0.688q-2.406 0-3.836-1.461t-1.43-3.836q0-0.938 0.555-2.367t0.555-1.93q0-0.281-0.047-0.391-0.5-0.953-0.5-2.109 0-3.797 2.938-8.078h0.516v0.5q-0.125 0.266-0.969 1.891-1.047 2.094-1.375 3.094-0.141 0.547-0.141 1.219 0 0.453 0.234 1.078 0.344 0.781 0.875 0.781 0.172 0 0.656-0.594 0.594-0.734 0.844-0.922v0.641q0 1.094-1.281 2.797-0.469 0.219-1.188 0.844-0.719 1-0.719 2.281 0 2.219 1.625 3.422 1.438 1.094 3.719 1.094 4.734 0 9.359-3.953 1.078-0.922 1.078-1.25 0-0.906-1.047-1.531-0.078-0.063-0.594-0.063-0.25 0-0.742 0.070t-0.711 0.070q-2.438 0-2.438-1.922 0-0.938 0.781-2.391 0.891-1.641 1.797-1.641 1.266 0 2.594 2.484 0.906 1.719 1.156 2.828 0.047 0.281 0.047 1.266zM33.078 22.891q-0.203 0.234-0.719 0.688-4.672 2.625-7.375 3.516l-0.203-0.203v-0.5q2.594-1.375 7.688-4.141h0.609v0.641zM20.766 18.719q0 0.422-0.477 0.852t-0.898 0.43q-0.953 0-0.953-1.375 0-0.359 0.586-1.656t0.883-1.516q-0.172 1.031-0.297 1.672t-0.172 0.852-0.047 0.039q0 0.609 0.344 0.609 0.172 0 0.531-0.195t0.5-0.195v0.484zM68.25 18.828q-1.156-1.313-2.906-1.313-0.859 0-2.781 1.672-1.469 1.281-2.609 2.609h1.016q1.203 0 3.969-1.031 2.922-1.109 3.313-1.938zM27 14.297q-0.438-0.938-1.25-0.938-0.375 0-0.672 0.344 0 0.078 0.078 0.313t0.078 0.297q0.141 0 0.469 0.148t0.484 0.148q0.141 0 0.813-0.313z"></path>
</svg>
