<!-- Generated by IcoMoon.io -->
<svg version="1.1" xmlns="http://www.w3.org/2000/svg" width="94" height="32" viewBox="0 0 94 32">
<title>surah66</title>
<path d="M93.516 15.5q0 3.375-1.031 4.844l-0.266-0.172q0.078-2.453-0.5-8.234l-0.688-7.438q-0.141-2.953-0.141-5.266 0-2.438 0.766-2.984 1.859 4.094 1.859 4.656 0 0.172-0.086 0.305l-0.086 0.133q-0.141 0-0.422-0.047t-0.406-0.047q-0.25 0.219-0.25 0.828 0 0.547 0.156 1.531 0.188 1.141 0.219 1.578 0.125 1.156 0.484 4.359 0.391 3.328 0.391 5.953zM79.672 2.75q0 0.5-0.422 1.203-0.453 0.797-0.891 0.859-2.094 0.297-2.234 0.297-1.156 0-1.156-1.719 0-0.719 0.531-1.594 0.047 0.656 0.797 1.813 0.359 0 0.484-0.766 0.219-1.281 0.297-1.453h0.5q0.109 0.625 0.531 1.797 0.516-0.141 0.516-0.531 0-0.156-0.070-0.461t-0.070-0.477q0-0.438 0.422-0.734 0.766 0.359 0.766 1.766zM81.344 7.484q0 0.234-0.523 0.875t-0.742 0.641q-0.266 0-1.75-1.109-1.5 1.063-1.641 1.109-0.266 0-1.070-0.602t-0.805-0.852q0-0.313 0.539-0.953t0.836-0.641q0.203 0 0.891 0.438 0.813 0.547 1.109 0.672 0.719-1.109 1.25-1.109 0.297 0 1.102 0.641t0.805 0.891zM90.047 19.813q0 2.219-3.297 3.563-0.094-0.219 2.188-2.563v-0.391q-0.344-0.125-0.953-0.391v-0.438q0-0.281 0.406-0.664t0.703-0.383q0.953 0 0.953 1.266zM79.938-3.531q0 0.625-0.719 0.859-9.625 3.203-26.906 9.734-0.188-0.203-0.188-0.547 0-0.906 0.766-1.328l4.391-1.766q2.469-0.984 8.719-3.031 0.422-0.219 1.266-0.625 0.875-0.219 3.172-0.906 9.422-3.156 9-3.156 0.172 0 0.32 0.086t0.18 0.086v0.594zM69.406 6.172q0 0.5-0.57 1.039t-1.055 0.539q-0.984 0-0.984-1.313 0-0.75 0.438-1.844 0.469-1.172 1.016-1.547 0.188 0.203 0.188 0.422t-0.328 0.992-0.328 1.023q0 0.391 0.344 0.734 0.344-0.297 0.953-0.688 0.203 0.172 0.328 0.172v0.469zM59.156-0.469q0 0.406-0.516 0.93t-0.906 0.523q-0.906 0-0.906-1.328 0-0.359 0.414-1.461t0.633-1.383q0 0.297-0.18 0.891t-0.18 0.766q0 0.953 0.641 0.953 0.141 0 0.508-0.18t0.492-0.18v0.469zM81.188 19.938q0 2.531-3.938 3.719l-0.484-0.172q2.094-1.453 3.188-2.422v-0.344q-0.406-0.25-0.828-0.25v-0.641q0.719-0.734 1.156-0.734 0.906 0 0.906 0.844zM53.766-1.531q0 0.141-0.070 0.375t-0.070 0.313h-0.594q-0.141 0-0.219-0.133t-0.219-0.133h-0.5q-0.172 1.281-1.125 4-0.344-0.141-0.719-0.953-0.469-1.031-0.516-1.125-0.266-0.406-1.281-0.938-0.766-0.391-0.766-0.984 0-0.969 0.766-0.969 0.469 0 1.281 0.922 0.938 1.078 1.063 1.156 0.266-0.172 0.734-1.563 0.391-1.219 0.859-1.219 0.422 0 0.898 0.414t0.477 0.836zM70.797 20.922q-0.391 1.031-1.758 1.82t-2.523 0.789q-0.313 0-0.945-0.25t-0.727-0.469q-0.016-0.125-0.016-0.266 0-0.813 1.547-2.516-0.219-0.156-0.813-0.125v-0.594q0-0.391 0.719-0.766 0.578-0.281 0.781-0.281 0.313 0 0.711 0.266t0.398 0.563q0 1.031-1.953 2.563 0.5 0.484 0.844 0.484 1.453 0 3.219-1.219h0.516zM56.25 11.422q0 0.828-0.711 1.617t-1.555 0.789q-1.172 0-1.172-1.422 0-1.234 1.297-3.125 0.688 0.406 1.375 0.859 0.766 0.578 0.766 1.281zM46.859 5.328q0 0.641-1.391 1.188-1.109 0-1.109-1.406 0-0.609 0.594-1.688 0.5-0.875 0.859-1.219 0.203 0.234 0.203 0.422 0 0.172-0.32 0.961t-0.367 1.039l0.359 0.359q0.234 0 0.672-0.391h0.5v0.734zM87.266 13.359q0 1.188-0.438 2.906-0.25 0.891-0.813 1.25-1.547 1.031-2.688 1.031-2.438 0-3.469-1.797-2.219 2.344-5.125 2.344-3.094 0-3.125-2.453 0-1.391-0.469-1.828-0.484 0.141-7.109 2.313-4.359 1.422-7.266 1.422-1.594 0-2.656-0.172-1.203-0.344-2.781-0.656h-0.469q-0.313 3.031-4 5.188-3.188 1.875-6.094 1.875-1.688 0-2.453-0.469-1.969-1.156-1.969-3.547 0-0.141 0.828-3.938-0.656-0.484-3.359-0.484-0.172 0.141-0.641 1.391-0.406 1.094-0.844 1.094-0.859 0-1.625-1.625-0.297-0.625-0.828-1.844-1.359-0.172-3.25 0.781-0.719 0.266-1.953 0.938-0.813 0.609-3.844 3.797-1.859 1.969-3.594 1.969-2.063 0-3-1.563-0.047-0.063-0.047-1.547 0-1.359 0.047-1.547 0.156-0.719 0.969-2.297 0.781-1.453 0.781-1.547 0-0.203-0.25-0.656t-0.266-0.594q-0.172-0.578-0.172-1.406 0-1.719 1.203-4.563 1.281-3.063 2.609-3.656l0.344 0.313q-0.656 1.094-1.922 3.25-1 1.797-1 3.281 0 1.859 0.828 1.859 0.469 0 1.438-1.641h0.516v0.484q0 0.594-0.766 1.953-0.5 0.531-1.438 1.672-2.078 3.156-2.078 5.016 0 1.797 1.563 1.797 1.188 0 1.906-0.703 1.344-1.406 4.125-4.188 2.719-2.641 4.641-3.031 0.391-0.219 1.25-0.469 1.625-0.094 2.344-1.297 0.484 0.438 1.469 1.25 0.781 0.672 1.484 0.781 2.484 0.469 3.906 0.469 1.188 0 3.422-0.656 2.688-0.813 2.688-1.703-1.109-2.266-1.109-2.828 0-0.375 0.297-1.313 0.813 0.172 1.469 1.531 0.578 1.188 0.578 2.047 0 2.344-1.906 3.5-0.859 0.516-4.25 1.547-0.281 0.078-0.867 1.242t-0.586 1.539q0 1.406 0.992 2.398t2.383 0.992q1.844 0 5.094-1.25 3.688-1.438 3.688-2.906 0-0.297-0.594-2-0.344-0.469-0.891-1.344-0.016-0.109-0.016-0.672 0-0.219 0.438-1.469h0.297q0.422 0.438 1.234 1.344 0.938 1.016 1.578 1.188 3.25 0.891 4.203 0.891h1.453q1.953 0 5.375-0.891 3.188-0.844 4.125-1.422 0-0.281-0.266-0.422-2.094-0.891-2.391-0.891-0.516 0-1.891 0.281t-1.906 0.281q-0.734 0-1.031-0.172 0-0.016-0.070-0.18t-0.070-0.336q0-0.609 0.734-1.344 1.25-1.281 3.547-1.281-0.125 0 1.328 0.188 0.344 0.219 1.125 0.625 4.656 1.547 6.063 1.547h3.906l0.031 0.016q0.156 0.156 0.156 0.453 0 0.344-0.492 1.055t-0.82 0.789q-0.641-0.125-2.047 0.266v0.203q0 0.734 0.742 1.25t1.508 0.516q1.031 0 3.516-0.984 0.688-0.297 1.234-1.469 0.188-0.391 0.984-1.141 0.266 0.172 0.461 1.219t0.789 1.367 1.656 0.32q2.281 0 2.281-1.719l-1.797-16.266q0-0.844 0.766-2.094 2.281 3.094 2.281 4.578 0 0.563-0.484 0.563-0.156 0-0.313-0.078t-0.203-0.078q-0.094 0.188-0.094 0.922zM39.641 7.703q0 0.297-0.617 0.938t-0.883 0.641q-0.516 0-0.875-0.508t-0.359-1.023q0-0.891 0.547-2.141 0.641-1.453 1.344-1.609 0.078 0.25-0.367 1.227t-0.445 1.070v1.188l0.141 0.070t0.281 0.070q0.125 0 0.734-0.547h0.5v0.625zM56.25 21.047q0 1.078-5.453 3.188-0.344-0.344-0.344-0.516 0-0.469 2.406-1.625l3.219-1.469q0.172 0.188 0.172 0.422zM33.438 0.609q0 0.547-0.594 1.016-0.688 0.016-1.406 0.047-1.047 0.141-1.047 0.813 0.984 3.859 0.984 4.922 0 1.031-0.469 2.141-0.078 0-0.25 0.063t-0.25 0.063q0.047-1.563-0.359-3.766-0.078-0.516-0.422-1.602t-0.344-1.258q0-0.859 0.578-1.758t1.359-1.242l-0.219-0.172q-0.203 0.047-0.547 0.266-0.188-0.203-0.188-0.563 0-0.391 0.383-0.828t0.773-0.438q0.516 0 1.266 0.891t0.75 1.406zM45.172 18.188q0 0.344-0.625 1.047t-0.938 0.703q-0.766 0-0.766-1.453 0-1.391 1.453-2.984 0.219 0.172 0.344 0.172-0.281 0.688-0.844 2.094 0.078 0.125 0.25 0.375 0.094 0 0.375-0.281h0.609q0.141 0.031 0.141 0.328zM26.641-1.531q0 0.688-0.484 0.688-0.234-0.094-1.109-0.688-0.422 0.172-0.547 1.063-0.047 0.359-0.125 1.375-0.094 0.469-0.813 2.266h-0.469q-0.125-0.125-0.688-1.453-0.484-1.156-1.281-1.672-0.469-0.172-1.5-0.641-0.172-0.281-0.172-0.859 0-1.047 0.844-1.047 1.031 0 3.094 3.188 0.344-1.453 1.094-3.547 0.141-0.469 0.703-0.469 0.422 0 0.984 0.859 0.469 0.766 0.469 0.938zM25.953 9.203q0 0.422-0.531 1.086t-0.922 0.664q-0.484 0-0.859-0.688-0.328-0.594-0.328-1.141 0-0.766 0.633-1.961t1.242-1.633q0.203 0.203 0.203 0.422 0 0.172-0.484 1.133t-0.484 1.133v0.813l0.102 0.047t0.242 0.047q0.125-0.047 0.844-0.391 0.344 0.313 0.344 0.469zM32.484 21.797q0 0.281-0.531 0.805t-0.813 0.523q-0.172 0-0.836-0.414t-0.836-0.414q-0.141 0-0.742 0.477t-0.758 0.477q-0.391 0-0.992-0.539t-0.602-0.914q0-0.391 0.391-0.922t0.766-0.531q0.188 0 0.914 0.422t0.898 0.422 0.609-0.422 0.781-0.422q0.469 0 1.109 0.492t0.641 0.961zM19.844 24.344q-0.516 0.359-2.234 1.469-1.594 1.031-2.125 1.031-0.219 0-0.875-0.328 1.922-1.547 4.625-3.266l0.609 0.156v0.938zM55.031 11.688q-0.922-0.469-0.766-0.469h-0.453q0 0.391-0.016 0.938 0.016 0 0.188 0.086t0.344 0.086q0.359 0 0.703-0.641z"></path>
</svg>
