<!-- Generated by IcoMoon.io -->
<svg version="1.1" xmlns="http://www.w3.org/2000/svg" width="54" height="32" viewBox="0 0 54 32">
<title>surah67</title>
<path d="M53.969 18.203q0 2.906-1.047 4.906l-2.266-22.156q0-0.469 0.734-1.922h0.469q1.719 3.203 2.109 4.953-0.313 0.297-0.563 0.297-0.141 0-0.344-0.172-0.266-0.203-0.375-0.234-0.094 0.188-0.094 0.844zM39.875 0.75q0 0.922-0.641 0.922-0.156 0-0.289-0.078t-0.258-0.078q-0.344 0-0.469 0.375-0.141 1-0.906 2.688-0.281-0.063-0.797-0.875-0.313-0.484-0.938-1.219-0.438-0.156-1.203-0.453-0.313-0.219-0.313-0.703 0-1.328 0.953-1.328 0.5 0 2.141 1.797 0.047-0.078 0.547-1.328 0.344-0.891 0.906-0.891 0.328 0 0.797 0.43t0.469 0.742zM41.672 10.375q0 0.844-0.641 0.844-0.109 0-0.281-0.070t-0.266-0.070q-0.125 0-1.188 1.125-1.172 1.281-1.688 1.594-0.891 0.547-2.953 1.438-0.078-0.047-0.328-0.219 1.656-1.391 4.828-4.438-0.156-0.375-0.813-0.984-0.563-0.5-0.563-0.938 0-0.594 0.82-1.648t1.383-1.055q0.641 0 0.797 0.906-0.078 0.672 0.078 2.063l0.578 0.672q0.234 0.219 0.234 0.781zM44.547 23.25q0 2.281-3.109 3.328-0.219-0.188-0.344-0.188 0.719-0.734 1.953-2.219-0.344-0.031-0.969-0.406 0.047-0.469 0.594-0.969t0.984-0.5q0.891 0 0.891 0.953zM51.188 19.703q0 1.281-0.438 2.266-0.563 1.281-1.703 1.281-1.875 0-3.766-3.047-0.688 0.266-3.984 1.453-2.484 0.906-4.141 0.906-2.875 0-4.188-1.375-0.453 0.125-0.641 0.781-0.266 1.016-0.406 1.266-0.922 1.422-2.734 1.422-1.375 0-2.438-1.281-0.469-0.563-0.719-2.109-0.266-1.703-0.516-2.141-1.297 1.813-5.125 3.313-3.531 1.391-6.094 1.391h-0.391q-1.906 0-3.719-1.313-2.172-1.531-2.172-3.844 0-1.078 0.555-2.43t0.555-1.43q0-0.297-0.344-1.414t-0.344-1.414q0-1.828 1.172-4.406 0.938-2.078 2.047-3.547h0.641v0.766q-0.172 0.266-0.984 1.797-1.031 1.875-1.328 2.781-0.172 0.563-0.172 1.156 0 2.063 0.906 2.063 0.172-0.172 1.406-1.078 0 0.047 0.086 0.297t0.086 0.359q0 1.234-0.766 1.922-1.297 1.234-1.5 1.5-0.484 0.719-0.484 1.969 0 1.969 1.984 3.031 1.609 0.859 3.766 0.859 2.078 0 5.25-1.25 3.344-1.328 4.313-2.734 0.266-0.391 0.188-1.469l-0.953-13.641q-0.156-2.125 0.859-3.031 0.172 0 0.469 0.438 0.656 4.641 0.953 9.156 0.125 1.734 0.422 6.094 0.047 1.266 0.391 4.547 0.391 2.734 2.438 2.734 1.922 0 1.922-2.016l-1.797-19.031q0-1.375 0.594-2.484 0.094 0 0.469 0.188 0.188 0.75 0.531 2.219 0.156 1.266 0.5 4.578 0.047 0.453 0.547 5.906 0.313 3.578 1 6.406 0.25 1.109 1.609 1.75 1.109 0.531 2.313 0.531 0.953 0 3.828-0.734 3.547-0.938 3.547-1.891l-1.766-16.047q0-0.344 0.305-1.148t0.586-0.805q0.734 0 2.281 3.938v0.75q-0.172 0.094-0.375 0.094-0.266 0-0.656-0.219-0.219 0.469-0.219 0.828 0 0.344 0.469 4.516 0.594 5.047 0.938 7.188 0.094 0.484 0.469 0.484 0.266 0 0.82-0.133t0.852-0.133q2.797 0 2.797 2.672zM20.328 1.469q0 0.422-0.453 0.891-0.656-0.219-1.281-0.844-0.359 0.281-0.531 1.906-0.391 1.547-0.813 2.375h-0.469q-0.453-1.031-1.609-2.922-0.172-0.172-1.078-0.594-0.688-0.313-0.688-0.891 0-0.313 0.367-0.711t0.695-0.398q0.563 0 1.453 1.109l1.156 1.5q0.313-1.328 0.813-2.703 0.188-0.609 0.859-0.609 0.469 0 1.023 0.703t0.555 1.188zM21.031 13.578q0 0.891-0.984 2.078-1 1.25-1.859 1.25-0.594 0-1.43-0.578t-1.117-1.125q0.234 0 0.797 0.078 0.484 0.078 0.781 0.078 1.531 0 1.875-0.594-0.438-0.172-1.203-0.547-0.75-0.484-0.75-1.406 0-0.859 0.766-2.266 0.891-1.688 1.875-1.688 0.844 0 0.844 0.828 0 0.297-0.398 0.984t-0.648 0.688q-0.141 0-0.375-0.141t-0.438-0.141q-0.234 0.516-0.234 0.734 0.344 0.359 1.594 0.594 0.906 0.172 0.906 1.172zM24.906 23.328q0 0.906-6.453 3.781h-0.594v-0.766q0.891-0.859 2.953-1.859 1.109-0.547 3.297-1.625h0.641q0 0.031 0.078 0.164t0.078 0.305zM39.625 8.406v-0.484h-0.25v0.484h0.25zM50.078 20.422q-0.875-0.891-1.453-0.891h-1q0.094 0.641 2.016 1.359z"></path>
</svg>
