<!-- Generated by IcoMoon.io -->
<svg version="1.1" xmlns="http://www.w3.org/2000/svg" width="75" height="32" viewBox="0 0 75 32">
<title>surah68</title>
<path d="M74.156 16.859q0 2.234-0.859 4.078-0.328 0-0.516-0.188v-4.172l-1.953-17.25q0-0.344 0.289-1.266t0.461-1.078q0.266 0 0.453 0.328 0.109 0.297 1.047 2.063 0.813 1.547 0.813 2.094v0.594q-0.172 0.203-0.406 0.203-0.172 0-0.406-0.266t-0.328-0.313q-0.094 0.156-0.094 0.922zM61.703 4.938q0 0.25-0.469 0.852t-0.688 0.602q-0.125 0-0.867-0.477t-0.961-0.477q-0.125 0-0.68 0.477t-0.695 0.477q0.141 0-1.875-0.984v-0.641q0.938-1.125 1.266-1.125 0.172 0 0.898 0.344t0.898 0.344q0.109 0 0.664-0.484t0.789-0.484q0.281 0 1.672 1.109 0.047 0.203 0.047 0.469zM62.406-2.313q0 0.797-1.375 1.391-0.703 0.219-1.453 0.453-2.063 0.813-4.703 1.922l-7.828 3.313q-4.422 1.922-6.25 3.641 0.109 0.156 0.844 1.047 0.547 0.656 0.547 0.953 0 0.984-0.891 0.984-0.719 0-1.203-1.016-0.406-0.75-0.406-1.344 0-2.594 4.75-4.609 1.172-0.547 4.172-1.938 8.594-3.844 13.141-5.344h0.469q0.188 0.172 0.188 0.547zM46.609-1.281q0 0.141-0.070 0.352t-0.070 0.258h-0.641q-0.328-0.391-0.641-0.547-0.547 0.516-0.641 1.219-0.125 1.297-0.203 1.516-0.125 0.453-0.688 1.563-0.313-0.203-0.867-1.398t-1.273-1.617q-0.422-0.094-1.203-0.359-0.469-0.469-0.469-0.688 0-0.297 0.344-0.742t0.609-0.445q0.813 0 1.531 0.891 0.391 0.516 1.188 1.594 0.406-0.266 0.656-1.328 0.375-1.422 0.422-1.547 0.25-0.328 0.641-0.328 0.563 0 1 0.719 0.375 0.594 0.375 0.891zM38.297-5.766q-0.109 0.688-2.391 1.422-4.563 1.453-4.328 1.453h-0.703q-0.094-0.172-0.313-0.469 0.813-0.828 3-1.422 2.859-0.781 3.547-1.141 0.469 0 1.188 0.156zM51.453 12.578q0 0.75-0.578 1.672-0.641 1-1.359 1-0.984 0-1.375-2.828 0-0.906 0.734-2.609 0.766-1.797 1.453-2.156-0.172 0.828-0.641 2.578-0.438 1.625-0.438 1.766 0 0.672 0.766 1.188 0.484-0.391 1.25-0.953 0.188 0 0.188 0.344zM58.531 20.719q0 0.766-0.203 1.156-0.469 0.891-1.234 1.5-0.25 0.219-1.063 0.156 0.594-0.797 1.531-1.703v-0.375q-0.188-0.141-0.781-0.172-0.469-0.016-0.469-0.188 0-0.344 0.586-0.875t0.93-0.531q0.703 0 0.703 1.031zM67.953 14.641q0 2.391-1.188 3.813-1.25 1.531-3.609 1.531-1.578 0-2.969-1.328t-1.547-1.328q-0.109 0-1.266 0.516-1.281 0.563-1.797 0.703-6.375 1.703-8 1.703h-1.656q-7.781 0-9.188-3.516-0.125-0.328-0.563-0.797-1.969 2.5-4.313 2.5-0.094 0-0.266-0.063t-0.266-0.063q-0.547 0-0.961 1.586t-1.039 1.586q-0.391 0-1.203-0.813t-0.859-1.188q0-0.609-0.078-1.797-0.094-0.172-0.313-0.516-0.328 0-1.039 0.188t-1.008 0.203q-1.547 0.125-5.195 3.484t-4.852 3.359q-3.469 0-3.469-3.531 0-1.625 0.891-3.359 0.469-0.594 1.281-1.938 0.094-0.156-0.117-0.758t-0.211-0.742q-0.172-2.25 0.422-4.047 0.078-0.219 1.297-2.484 1.625-3.047 2.516-3.078v0.641q-0.078 0.125-0.469 0.688-2.563 3.891-2.563 5.672 0 2.141 0.844 2.141 0.609 0 1.039-0.867t0.836-0.961q0.188 0.219 0.188 0.563 0 0.703-0.828 1.875-0.672 0.938-1.141 1.313-0.438 0.172-1.203 0.688-0.594 0.563-1.211 2.164t-0.617 2.492q0 1.859 1.688 1.859 0.781 0 1.547-0.563 2.781-2.563 6.641-5.594 0.766-0.609 3.203-1.391 0.609-0.078 1.938-0.375 0.031 0 0.203-0.336t0.375-0.336h0.469q0.188 0.328 0.688 0.813 0.594 0.422 1.766 0.969 0.766 0.172 1.656 0.172 2.5 0 2.922-1.359 0.172-0.594 0.172-2.797l-1.375-13.156q0-0.438 0.734-1.5h0.766q0.297 2.344 0.766 6.828 0.375 3.688 0.734 7.75 0.156 1.844 0.516 2.703 0.469 1.156 1.734 2.188 1.422 0.531 2.453 0.813 3.516 0.469 4.547 0.469 1.781 0 5.109-0.578 2.531-0.453 3.422-0.703 1.906-0.531 3.125-1.453-0.234-1.938-0.203-2.75 0.031-0.609 0.719-2.141 0.875-1.938 1.813-1.938 0.844 0 1.703 1.563 0.719 1.328 0.719 1.906 0 1.109-0.469 2.313-0.109 0.266-0.797 1.031t-0.688 0.938q0 1.406 3.063 1.406 2.781 0 2.781-1.406l-2.078-17.281q0-0.594 0.594-2.063 0.422 0.016 1.406 1.984 0.891 1.844 0.891 2.188v0.625q-0.203 0.047-0.375 0.047-0.344 0-0.641-0.172-0.094 0.172-0.094 0.781zM30.438 6.688q0 0.203-0.313 0.813h-0.641q-0.547-0.547-0.766-0.547-0.375 0.453-0.672 1.883t-0.875 2.133q-0.578-1.031-1.969-2.734-0.422-0.141-1.563-0.734-0.016-0.25-0.016-0.438 0-1.203 0.984-1.203 0.953 0 2.578 2.484 0.266-0.156 0.766-1.672 0.469-1.391 1.078-1.391 0.469 0 0.938 0.469t0.469 0.938zM36.641 20.641q0 0.75-1.227 2.102t-1.898 1.227q-0.094-0.031-0.313-0.203 0.828-0.828 2.203-2.375 0.078-0.297-0.406-0.297-0.156 0-0.375 0.063t-0.266 0.063l-0.063-0.063q-0.141-0.109-0.141-0.359 0-0.422 0.719-0.891 0.609-0.375 0.813-0.375 0.953 0 0.953 1.109zM17.688 25.703q-0.203 0.453-0.734 0.984-0.469 0.203-1.359 0.203-2.438 0-2.828-0.047-0.219 0-1.016-0.422 0.078-0.219 0.156-0.469l4.75-0.594h0.719zM61.578 13.047q0-0.281-0.375-1.094-0.438-0.984-0.938-0.984-0.406 0-0.867 0.484t-0.461 0.891q0 0.25 0.719 2.078h0.609q0.078-0.047 0.891-0.594 0.422-0.266 0.422-0.781z"></path>
</svg>
