<!-- Generated by IcoMoon.io -->
<svg version="1.1" xmlns="http://www.w3.org/2000/svg" width="64" height="32" viewBox="0 0 64 32">
<title>surah69</title>
<path d="M47 2.781q0 0.172-0.070 0.305t-0.070 0.227q-0.031 0-0.172 0.078t-0.297 0.078q-0.391 0-1.016-0.547h-0.344q-0.266 0.422-0.484 2.297-0.203 1.594-0.797 1.984-0.438-0.266-1.203-1.75-0.703-1.344-1.281-1.422-0.234 0.047-0.703-0.047-0.75-0.344-0.75-0.984 0-1.188 0.969-1.188 1.203 0 2.656 2.359 0.078 0.156 0.297 0.156 0.219-0.859 0.547-2 0.359-1.344 1-1.344 0.375 0 1.047 0.711t0.672 1.086zM49.078 8.703q-1.109 0.766-3 1.5l-3.141 1.219q-3.484 1.422-3.219 1.469h-0.594q0-0.047-0.070-0.18t-0.070-0.305q0-0.891 4.75-2.594 0.938-0.313 4.719-2.047l0.625 0.156v0.781zM55.453 22.859q0.141 2.5-2.422 4-0.094-0.016-0.344-0.188 0.578-0.766 1.656-2.266v-0.359q-0.219-0.219-0.328-0.219-0.141 0-0.352 0.070t-0.227 0.070q-0.031-0.031-0.063-0.047-0.141-0.125-0.141-0.375 0-0.344 0.453-0.797t0.797-0.453 0.969 0.563zM34.156 2.234q0 0.656-0.492 1.297t-1.133 0.641q-0.125 0-0.234-0.070t-0.234-0.070-0.578 0.273-0.656 0.273q-1.25 0-1.25-1.656 0-0.688 0.438-1.375 0.406 0.141 0.469 0.609 0.109 0.547 0.422 0.766 0.328-0.141 0.422-0.813 0.141-0.953 0.219-1.109h0.469q0.219 0.469 0.672 1.359 0.234-0.25 0.359-0.813 0.156-0.813 0.156-0.844h0.484q0.469 0.672 0.469 1.531zM36.766 5.703q0 0.438-0.297 1.141-0.344 0.781-0.734 0.781-0.156 0-0.93-0.422t-0.945-0.422q-0.141 0-0.648 0.492t-0.68 0.492q-0.516 0-1.703-0.859 0.078-1.922 1.109-1.922 0.156 0 0.758 0.289t0.742 0.289q0.156 0 0.734-0.492t0.719-0.492q0.297 0 1.875 1.125zM63.469 17.766q-0.656 1.922-1.563 1.922-2.609 0-2.438-0.047 0 2.625-0.875 4.328-0.141 0-0.453-0.469 0-1.078-0.156-3.422h-0.938q-1.703 0.766-3.172 1.359-9.703 3.781-17.875 3.781-4.25 0-6.516-1.031-0.766-0.344-1.531-1.078-0.266-0.641-1.109-1.578-0.688-0.094-3.172-0.375-1.078-0.109-2.469-1.258t-1.797-2.211q-0.094-0.047-0.313-0.219-1.016 0.266-1.547 1.75-0.297 0.938-1.234 3.453-1.031 2.672-2.172 2.672-1.25 0-2.281-1.688-0.813-1.344-1.094-2.781l-0.219-4.313q-0.219-0.344-0.609-1.078-0.297-0.766-0.297-1.781 0-2.484 1.406-5.234 0.516 0 0.516 0.484 0 0.125-0.297 0.984-0.375 1.016-0.5 1.5-0.016 0.172-0.016 1.031 0 1.406 0.609 1.953 0.5-0.5 1.438-1.234l0.086 0.148t0.086 0.32q0 0.953-0.625 1.828-0.813 1.172-0.859 1.305t-0.047 1.070q0 1.328 0.719 3.125 0.828 2.141 1.922 2.141 0.906 0 1.734-2.438 1.953-5.734 3.578-5.734 0.594 0 0.828 0.297 0.281 0.594 0.938 1.672 0.422 0.578 1.328 1.188 1.016 0.688 1.625 0.688 0.203 0.031 0.648 0.102t0.664 0.070q0.484 0 0.688-0.188-0.156-5.125-0.734-11.078-0.047-0.516-0.516-2.719-0.406-1.984-0.406-2.281 0-0.984 0.719-1.703 0.125 0 0.438 0.203 0.969 2.141 1.234 5.781 0.078 0.813 0.391 6.922 0.25 1.328 0.344 2.656 0.063 0.641 0.031 1.078 0.094 0.797 0.547 1.203 5.406-0.266 7.656-2.453-0.078-0.25-0.5-0.555t-0.688-0.305q-0.25 0-0.766 0.133t-0.766 0.133q-0.938 0-1.602-0.641t-0.664-1.578 0.672-2.234q0.844-1.625 2.016-1.625 1.453 0 2.609 2.656 0.906 2.094 0.906 3.203 0 2.703-2.547 3.813-1.625 0.641-4.906 1.891 0.781 1.844 7.688 1.844 2.875 0 8.266-1.203 5.813-1.297 7.438-2.578-2.141-0.641-4.313-0.844l-3.844-0.359q0.203-1.438 1.375-1.953 0.766-0.344 2.563-0.469t2.563-0.438q-0.422-3.406-1.297-12.141 0-0.094-0.188-0.438t-0.188-0.547q0-0.781 0.906-2.281 1.875 2.188 2.422 4.938l-0.344 0.328q-0.453-0.203-0.813-0.563-0.078 0.109-0.078 0.703 0 0.469 0.141 1.328 0.203 0.969 0.234 1.359 0.016 0.719 0.313 2.922 0.266 1.984 0.266 3.234 0 1.328-0.234 2.391 1.297 0.656 4.328 0.656 0.688 0 0.789-0.086t0.102-0.727l-1.516-14.328q0-0.438 0.719-1.859h0.5q0.781 1.547 1.813 4.625-0.141 0.188-0.141 0.344h-0.453q-0.188 0-0.289-0.148t-0.117-0.148q-0.109 0.078-0.109 0.641 0 1.156 0.75 6.766 0.172 1.531 0.75 5.047 0.422 0.172 2.344 0.203 1.031 0.016 1.547 0.266zM42.422 18.359q0 0.469-0.586 1.172t-1.055 0.703q-0.5 0-0.844-0.75-0.266-0.594-0.266-0.906 0-1.625 1.844-4.156 0.516 0 0.516 0.391 0 0.141-0.422 0.906-0.828 1.484-0.828 2.141 0 0.156 0.070 0.367t0.070 0.258q0.109 0.094 0.281 0.094t0.555-0.258 0.523-0.305q0.141 0.016 0.141 0.344zM20.859 4.375q0 0.547-0.43 1.211t-0.961 0.664-0.961-0.461-0.43-0.992q0-1.609 0.859-2.953h0.766q-0.563 0.813-0.563 1.797 0 0.344 0.078 0.703 0.172 0.125 0.469 0.375 0.266-0.344 0.953-0.844 0.219 0.203 0.219 0.5zM21.531 9.719q0 0.344-0.32 0.859t-0.648 0.516q-0.172 0-0.898-0.359t-0.898-0.359q-0.109 0-0.633 0.555t-0.664 0.555q-0.203 0-2.141-1.109-0.031-0.109-0.031-0.234 0-0.5 0.398-1.016t0.867-0.516q0.188 0 0.805 0.273t0.773 0.273q0.172 0 0.75-0.492t0.719-0.492q0.422 0 1.719 0.906 0.203 0.344 0.203 0.641zM23.75 22.938q0 0.422-0.453 0.719-4.578 2.922-5.313 2.922h-0.734v-0.594q0-0.453 5.859-3.547h0.484q0 0.031 0.078 0.18t0.078 0.32zM34.141 13.266q-0.359-1.063-0.969-1.063-0.172 0-0.406 0.148t-0.281 0.148v0.609q0.563 0.375 1.016 0.375 0.359 0 0.641-0.219z"></path>
</svg>
