<!-- Generated by IcoMoon.io -->
<svg version="1.1" xmlns="http://www.w3.org/2000/svg" width="72" height="32" viewBox="0 0 72 32">
<title>surah7</title>
<path d="M71.922 5.969q0 0.156-0.070 0.305t-0.070 0.164h-0.672l-0.219-0.266q-0.266 0.25-0.219 1.063l0.828 11.547q0.031 0.438 0.031 0.828 0 2.859-1.328 4.438l-0.281-0.203q0-2.703-0.047-5.266 0-0.5-0.016-1.375l-1.109-13.672q-0.047-0.563 0.984-2.328 0.125 0 0.438 0.188 1.75 4.219 1.75 4.578zM50.875-4.75q0 0.406-2.656 2.109-0.469 0.328-1.703 1.063h-0.594q-0.172-0.031-0.172-0.344 0-0.578 1.859-1.781 0.781-0.484 2.328-1.469h0.766q0.172 0.188 0.172 0.422zM51.984 0.172q0 0.234-0.438 0.563-0.797 0.219-2.375 0.891h-0.641q-0.109-0.297-0.625-0.969-0.5-0.594-0.5-0.719 0-0.438 0.969-1.32t1.469-0.883q0.891 0 0.891 0.828 0 0.766-1.391 0.922 0.297 0.313 1.094 0.219 1.078-0.172 1.328-0.156l0.219-0.125v0.75zM65.969 5.828q0 0.609-0.547 0.609-0.188 0-0.375-0.148t-0.219-0.148q0 1.531 0.359 4.539t0.359 4.508q0 3.938-1.797 6.438-1.938 2.719-5.734 3.297-0.781 0.125-2.063 0.609-0.422 0-1.188-0.141 0.172-0.5 0.719-0.734 1.625-0.766 4.422-2.219 0.859-0.438 2.422-1.844 0.047-0.047 0.047-0.859 0-0.984-0.797-2.531-0.688-1.406-1.172-1.922-3.203-3.25-6.016-6.406-0.516-0.563-3.734-5.359-0.078-0.047-0.078-0.938 0-1.406 0.641-1.406 0.328 0 1.914 1.305t1.758 1.68q-0.031 0.359-0.375 0.484-0.516 0.172-0.609 0.234 0.984 1.734 4.211 5.086t4.336 5.242q0.563 0.984 0.984 3.984 0.563-0.141 0.641-1-0.063 0.484-0.063-1.359l-1.25-13.359q0-0.547 0.891-2h0.484q1.828 3.078 1.828 4.359zM67.766 22.219q0 0.719-0.727 1.711t-1.398 1.336q-0.313 0-0.516-0.172 0.5-1 1.266-1.563v-0.5q-0.109-0.141-0.688-0.125v-0.469q0-0.219 0.453-0.625t0.703-0.406q0.281 0 0.594 0.273t0.313 0.539zM44.5-1.484q0 0.5-1.969 1.328-0.766 0.344-2.063 0.984-0.672 0.344-2.422 1.188-0.188-0.172-0.188-0.547 0-0.609 0.734-1.031 4.375-2.563 5.172-2.563h0.734v0.641zM45.609 3.344q0 0.891-0.773 1.797t-1.633 0.906q-1.047 0-1.047-1.172 0-1.313 1.281-3.406 0.766 0.375 1.5 0.688 0.672 0.391 0.672 1.188zM56.563 16.359q0 0.516-0.516 1.117t-1.031 0.602q-0.969 0-0.969-1.516 0-1.891 1.609-3.469 0.188 0.219 0.188 0.406t-0.344 0.875-0.344 0.859v0.953l0.25 0.25q0.266 0 0.5-0.422h0.484q0.172 0 0.172 0.344zM51.422 20.578q0 0.188-0.297 0.828h-0.766q-0.25-0.297-0.906-0.688-0.469 0.469-0.656 2.25t-0.75 2.297q-0.719-0.984-2.266-2.578-0.422-0.016-1.406-0.469-0.094-0.391 0.203-1.078t0.688-0.688q0.641 0 1.531 0.859l1.078 1.063q0.297-0.844 0.641-1.953 0.438-1.375 1.328-1.375 0.484 0 1.031 0.516t0.547 1.016zM35.938 16.016q-0.266 3.594-1.328 4.281-0.125-0.094-0.297-0.313 0.094-1.016 0.094-2.125 0-1.922-0.469-4.922l-0.766-4.891q-0.172-1.484-0.609-5.938-0.031-0.203-0.203-0.633t-0.172-0.617q0-0.688 0.875-2.141 0.094 0 0.344 0.047 1.172 1.703 2.234 4.016v0.469q-0.141 0.047-0.328 0.047-0.344 0-0.828-0.172l-0.219 0.234zM28.031-0.469q0 0.188-0.313 0.828l-1.109-0.141q-0.203 0.609-0.547 1.867t-0.547 1.867h-0.484q-0.438-0.953-1.484-2.625-0.109-0.203-0.875-0.328-0.672-0.125-0.813-0.563-0.047-0.156-0.047-0.422 0-1.172 0.875-1.172 0.891 0 2.547 2.203 0.063-0.047 0.234-0.359 0.047-0.5 0.375-1.313 0.422-1.078 0.953-1.078 0.406 0 0.82 0.414t0.414 0.82zM28.453 6.672q0 0.234-0.508 0.695t-0.742 0.461-1.797-1.109v-0.156q0-0.438 0.492-1.031t0.898-0.594 1.031 0.688 0.625 1.047zM52.938 13.797q0 0.938-0.734 1.328-1.078 0.625-5.953 2.438-0.891 0.344-5.25 2.219-2.234 0.984-4.594 4.359-1.969 2.797-4.016 2.797-1.188 0-2.484-0.891-0.328-0.188-0.594-0.813-0.641-1.484-0.422-3.203 0.125-0.328 0.25-0.984v-0.531q-0.219-0.219-0.266-0.219-6.75 2.766-10.391 2.766h-0.844q-1.688 0-3.344-0.641-3.297-1.281-3.297-4.688 0-0.313 0.938-3.484-0.031 0.063-0.344-2.047-0.297-2.172 0.141-3.5 1.313-3.953 3.078-5.438 0.203 0.172 0.328 0.172v0.766q0-0.984-0.961 1.094t-1.070 2.75q-0.172 1.109-0.172 2.063 0 1.875 0.844 1.875 0.297 0 0.688-0.766l0.438-0.891h0.5q0.172 0.172 0.172 0.5 0 0.516-0.469 1.547-0.266 0.563-1.156 1.359-0.547 0.469-1.125 1-0.422 0.547-0.422 1.672 0 2.203 1.922 3.375 1.578 0.969 3.828 0.969 0.328 0 0.641-0.031 0.109-0.047 0.328-0.25 0.313-0.813 0.313-1.891 0-0.813-0.555-2.523t-0.555-2.555q0 0.125 0.5-1.734 0.047-0.125-0.086-0.445t-0.133-0.445q0-0.422 0.43-0.961t0.82-0.539q0.516 0 1.367 0.711t0.852 1.211q0 1-1.188 1.172-1.297 0.172-1.453 0.422 0.422 1.453 0.797 3.453 0.047 0.297 0.047 0.906 0 0.484-0.188 1.422t-0.188 1.406q0 0.375 0.172 0.641 0.688-0.078 4.406-0.859 0.922-0.203 3.125-1.078 3.063-1.219 3.063-1.953t-1.063-0.688q-0.297 0-0.945 0.133t-0.977 0.133q-0.938 0-1.609-0.695t-0.672-1.633q0-1.094 0.828-2.375 0.906-1.375 1.953-1.375 1.516 0 2.75 2.516 0.969 2.047 0.969 3.094 0 1.234-0.797 2.813-1.281 2.516-1.281 4.578 0 0.766 0.422 1.453 0.469 0.75 1.188 0.75 1.375 0 2.828-1.688 1.156-1.422 2.281-2.875 1.375-1.672 2.734-2.438 0.859-0.5 2.594-1.484-2.219-1.859-2.219-4.422 0-2.141 1.516-3.422 1.453-1.234 3.594-1.234 0.844 0 2.516 0.734 1.797 0.797 2.063 1.438-0.313 0.344-0.531 0.344-0.172-0.047-0.938-0.375-0.422-0.203-2-0.203-1.328 0-2.781 0.359-2.031 0.484-2.031 1.391 0 1.188 1.508 2.625t2.695 1.438q1.031 0 3.984-1.234l2.953-1.219h0.594q0 0.016 0.070 0.188t0.070 0.344zM20.969 6.813q0 0.422-0.516 0.859t-0.938 0.438q-0.484 0-0.859-0.531-0.328-0.469-0.328-0.984 0-0.547 0.547-1.953 0.594-1.547 1.078-1.625l0.203 0.594q-0.844 1.406-0.844 2.219 0 0.609 0.625 0.609 0.172 0 0.539-0.195t0.492-0.195v0.766zM26.656 23.484q0 0.797-1.313 1.344-4.547 1.969-5.156 1.969h-0.844q-0.172-0.031-0.172-0.344 0-0.969 7.281-3.391 0.203 0.188 0.203 0.422zM44.375 3.875l-0.313-0.344h-0.625l-0.172 0.172v0.5q0.344 0.297 0.5 0.297 0.609-0.297 0.609-0.625zM29 13.828q-0.375-1.016-1.156-1.016-0.5 0.156-0.766 0.641 0.609 0.625 1.031 0.625-0.094 0 0.891-0.25z"></path>
</svg>
