<!-- Generated by IcoMoon.io -->
<svg version="1.1" xmlns="http://www.w3.org/2000/svg" width="75" height="32" viewBox="0 0 75 32">
<title>surah70</title>
<path d="M74.875 16.688q0 1.469-0.891 4.078-0.219 0.328-0.688 0.328 0-0.797-0.047-2.828-0.047-1.094-0.672-7.891-0.047-0.641-0.359-3.359-0.281-2.141-0.281-2.344v-3.844q0-0.516-0.266-1.586t-0.266-1.586q0-1.109 1.031-2.016 0.641 0.563 0.734 1.125 0.031 0.281 0.086 0.867t0.773 2.477l0.688 1.797v0.469q-0.344 0.297-0.484 0.297-0.156 0-0.422-0.266-0.344 0.313-0.344 1.328zM70.438 8.578q0 1.578-1.406 1.578-1.109 0-1.109-1.641 0-2.266 1.453-3.75 0.344 0.344 0.344 0.422 0 0.25-0.414 1.211t-0.414 1.195q0 0.5 0.484 0.922l0.406-0.422h0.453q0.203 0.172 0.203 0.484zM61.828-2.078q0 0.891-4.313 2.391-3.078 1.063-7.063 2.938l-6.547 3.047q-0.344-0.344-0.344-0.563 0-0.719 0.594-1.188 1.453-0.594 2.891-1.328 1.344-0.672 7.641-3.469 5.828-2.609 6.672-2.609 0.172 0 0.32 0.086l0.148 0.086v0.609zM62.531 2.625q0 0.422-0.781 0.984-0.438 0.203-1.281 0.844-1.109 1.328-1.109 2.453 0 0.422 0.344 0.766 0.344-0.266 0.984-0.688 0.172 0.203 0.172 0.563 0 0.594-0.43 1.188t-0.992 0.594q-1.063 0-1.063-1.5 0-1.156 0.719-2.594v-0.484q-2.469 0.953-7.391 2.922-7.031 2.984-7.031 4.625 0 0.125 0.281 0.508t0.281 0.602q0 0.453-0.469 0.906-0.297-0.063-0.75-0.766t-0.453-1.031q0-0.641 0.859-1.797 0.781-1.094 1.406-1.469 4-2.391 9.281-4.234 1.156-0.422 3.938-1.656 2.453-1.078 2.609-1.078h0.703q0.172 0.031 0.172 0.344zM65.719 21.578q0 0.844-0.805 1.664t-1.664 1.023v-0.5q0.688-0.688 1.078-1.219v-0.375q-0.094-0.125-0.531-0.125l-0.078-0.148t-0.078-0.32q0-1.031 1.188-1.031 0.891 0 0.891 1.031zM45.359-0.766q0 0.688-0.625 0.688-0.141 0-0.461-0.133t-0.461-0.133q-0.406 1.156-1.234 3.438h-0.5q-0.063-0.172-1.031-2.234-0.25-0.516-1.234-0.688-0.813-0.172-0.813-0.875 0-1.047 0.891-1.047 0.906 0 1.422 0.734 0.344 0.547 1.063 1.625 0.25-0.469 0.734-1.484 0.625-1.266 1.016-1.266 0.375 0 0.844 0.656 0.391 0.547 0.391 0.719zM71.547 17.641q0 0.797-0.672 2.016-0.734 1.453-1.625 1.453-1.031 0-2.063-1.078-0.719-0.938-1.422-1.844-0.344 0.047-2.484 1.25-1.953 1.109-3.844 1.109-1.422 0-3.68-1.586t-2.148-1.586q1.891 0-0.75 0.828-2.281 0.766-6.125 1.625t-4.953 0.859q-1.984 0-2.578-0.141-1.156-0.297-2.906-1.531l-6.203 3.063q-0.984 0.063-3.031 0.469-1.938 0.359-2.047 0.359-0.219 0-0.563-0.313 0-0.375 0.203-0.469 2.734-1.156 8.297-3.719 0.422-0.078 1.234-0.375 1.078-0.734 1.078-1.219l-1.797-17.516q0-0.781 0.719-2.016 0.188 0 0.453 0.469 0.969 5.719 1.109 8.328 0.125 2.266 0.578 8.172 0.063 0.859 0.688 1.859 0.813-0.344 2.109-1.203 1.828-1.219 1.828-1.891 0-0.25-1.047-2.602t-1.047-2.586q0-0.75 0.609-1.953 0.563 0.25 1.352 1.305t0.898 1.695q-0.109 0.125-0.328 0.406 0.047 0.359 0.422 1.367t0.375 1.258q0 3-3.484 5.688 0 0.25 0.25 0.438 0.266 0.078 0.547 0.281 1.422 0.313 2.875 0.313 1.828 0 4.953-0.906 3.313-0.969 4.125-1.828 0.109-0.359-0.742-0.852t-1.273-0.555q0.172 0.031-0.781 0.078-0.469 0-0.813-0.297 0.313-0.828 0.375-0.938 0.266-0.516 0.656-0.75 2.313-1.438 5.016-1.438 0.672 0 2.891 0.719 2.703 0.859 2.703 1.703 0 0.516-1.125 1.391-1.109 0.453-2.203 1.234 0.547 0.813 1.094 1.156 1.594 0.984 2.109 0.984 0.969 0 3.156-0.688 2.781-0.891 2.781-2.016l-0.969-10.359v-3.188q0-0.516-0.133-1.531t-0.133-1.516q0-1.234 0.766-2.016 1.984 3.938 1.984 4.625v0.734q-1.094 0.125-1.094 1.141 0 1.031 0.297 2.922 0.281 2.125 0.344 2.953 0.172 3.125 0.609 5.516 1.031 0.516 1.594 0.516 0.109 0 0.328-0.063t0.359-0.063q0.875 0 1.586 0.727t0.711 1.617zM53.953 20.063q0 0.906-0.984 2.109t-1.875 1.406q-0.203 0-0.203-0.328 0-0.266 1.953-2.203-0.172-0.203-1.109-0.813 0.688-1.063 1.25-1.063 0.969 0 0.969 0.891zM31.375 1.391q0 0.328-0.555 0.805t-0.898 0.477l-0.563-0.188q0-0.125-0.234-0.633t-0.234-0.68q0-0.766 0.594-2.188 0.219-0.547 0.922-0.859v0.484q0 0.297-0.953 1.922 0.078 0.031 0.422 0.375 0.266 0.266 0.469 0.266 0.141 0 0.523-0.211t0.508-0.211v0.641zM32.484 10.234q0 0.484-0.445 1.039t-0.93 0.555q-1.109 0-1.109-1.594 0-0.438 0.516-1.648t0.828-1.336l0.172 0.922q-0.016 0.063-0.313 0.609-0.219 0.438-0.219 0.609 0 0.406 0.359 0.766 0.125 0 0.484-0.125t0.5-0.125q0.156 0 0.156 0.328zM38.016 21.734q0 0.563-0.594 0.859-3.906 1.844-4.578 1.844-0.281 0-0.609-0.328v-0.516q0.844-0.531 2.563-1.203 1.813-0.703 2.578-1.156h0.469q0.172 0.203 0.172 0.5zM28.047 12.719q0 4.313-3.609 7.234-3.297 2.656-7.391 2.656 0.125 0-1.547-0.75-3.766-1.781-3.766-7.125 0-1.719 0.297-3.422 0.047-0.094 0.313-0.734 0.203-0.5 0.203-0.688 0-0.203-0.547-0.742t-0.688-0.742q0.125-0.047 1.453-0.047 0.172 0 1.023-1.164t0.852-1.398q0-0.219-1.406-1.25-1.484-1.063-1.609-1.359-0.313-0.781-0.313-1.172 0-1.094 0.891-2.016 0.594-0.625 2.484-0.797l0.906-0.25q1.609 0 9.672 0.578l0.086 0.148t0.086 0.32q0 0.391-0.422 1.125-0.344 0.609-0.438 0.688-0.172 0.094-4.844 2.516-2.813 1.453-2.984 2.344-0.094-0.031-0.219-0.031-0.594 0-1.625 1.547 0 0.094 0.219 0.297 0.219 0 0.625 0.086t0.609 0.086q0.844 0 2.539-0.281t2.586-0.281q2.141 0 3 0.219 2.016 0.516 3.094 2.297 0.469 0.781 0.469 2.109zM17.688 24.094q0 0.391-2.016 1.664t-2.516 1.273h-1.406q-0.172 0-0.172-0.344 0-0.516 2.266-1.594 1.5-0.734 3.203-1.766h0.469q0 0.078 0.086 0.336t0.086 0.43zM70.141 18.406q-0.094-0.25-0.633-0.641t-0.836-0.391h-0.453l-0.063 0.313q0.781 1.063 1.375 1.063 0.297 0 0.609-0.344zM55.203 13.969q-0.344-0.344-0.641-0.344h-0.984q-0.078 0.156-0.078 0.297 0 0.109 0.031 0.203 0.563 0.344 0.828 0.344 0.578 0 0.844-0.5zM29.359 1.281v-0.375h-0.25v0.375h0.25zM20.594 1.5q-4.203-0.328-5.609-0.328-0.375 0-1.234 0.328-0.938 0.344-1.063 0.578 2.859 2.156 3.547 2.156 0.391 0 2.219-1.219 1.594-1.047 2.141-1.516zM26.813 13.828q0-1.578-1.891-2.703-1.594-0.969-3.078-0.969-0.781 0-2.359 0.211t-2.359 0.211q-0.375 0-1.453-0.273t-1.453-0.273q-0.547 0-0.641 0.469-0.594 2.766-0.594 3.25 0 1.281 0.594 3.156 0.313 1 1.906 2.047t2.703 1.047h0.781q0.344 0 1.234-0.234 1.078-0.328 1.297-0.344 0.719-0.125 2.813-1.906 2.5-2.141 2.5-3.688zM21.281 14.391q0 0.391-0.406 0.984t-0.781 0.594q-0.484 0-1.102-0.508t-0.617-0.992q0-0.438 0.313-0.984t0.719-0.547q0.469 0 1.172 0.508t0.703 0.945z"></path>
</svg>
