<!-- Generated by IcoMoon.io -->
<svg version="1.1" xmlns="http://www.w3.org/2000/svg" width="41" height="32" viewBox="0 0 41 32">
<title>surah71</title>
<path d="M37.188 4.063q0 0.406-0.297 0.875-0.297 0.547-0.688 0.547-0.516 0-1.289-0.555t-0.773-1.023q0-0.297 0.414-0.945t0.695-0.648q0.391 0 1.164 0.688t0.773 1.063zM32.609 8.875q0 0.422-0.469 1.016t-0.859 0.594q-1.031 0-1.031-1.453 0-0.297 0.414-1.516t0.414-1.516q0-0.469-0.344-0.781-0.359 0.641-1.25 1.797-4.031 3.859-5.047 3.859 1.594-1.891 4.844-5.859-0.531-0.344-1.469-1.203-0.203-0.25-0.203-1.094 0-0.688 0.594-1.891 0.766-1.547 1.703-1.547 0.469 0 0.984 1.109 0.406 0.938 0.406 1.297 0 1.359 0.078 1.5 0.938 1.156 0.938 1.75 0 0.297-0.477 1.563t-0.477 1.563q0 0.516 0.359 0.891-0.188 0 0.688-0.391 0.203 0.016 0.203 0.313zM24.75 3.859q0.031 0.469-0.359 1.188-0.469 0.875-1.016 0.875-0.359 0-0.758-0.539t-0.398-0.93q0-1.156 1.016-3.203 0.266-0.547 0.906-0.859v0.766q0 0.188-0.234 0.523t-0.281 0.461q-0.172 0.469-0.172 1.125 0 0.516 0.25 0.984h0.359q0.172 0 0.406-0.195t0.281-0.195zM37.859 22.672q0 1.172-0.977 2.336t-2.133 1.664q-0.094-0.031-0.344-0.203 0.203-0.313 1.453-1.578 1.031-1.016 0.906-1.297-0.25-0.219-0.297-0.234-0.141 0-0.305 0.070t-0.211 0.070q0-0.016-0.016-0.047-0.156-0.125-0.156-0.375 0-0.438 0.445-0.906t0.883-0.469q0.75 0 0.75 0.969zM40.219 13.797q0 0.625-0.391 1.688-0.5 1.266-1.047 1.469-1.031 0.391-2.438 1.25-0.109 0.813-0.641 2.203-0.922 1.563-3.172 3.141-2.141 1.547-3.984 2.063-1.328 0.375-1.016 0.375-0.359 0-1.102 0.133t-1.102 0.133q-0.469 0-1.773-0.602t-1.477-0.961q-0.25-0.547-0.797-1.484-0.125 0-0.344 0.078-0.563 0.344-2.063 1.125-2.094 1-4.563 1-0.641 0-2.156-0.484-2.313-0.75-3.547-3.266-0.938-1.953-0.938-3.984 0-0.125 0.297-2.078 0.344-2.203 0.422-3.094-1.063-0.719-1.406-1.422 0.141-0.063 1.797-0.063 0.391 0 0.938-0.938 0.438-0.797 0.438-1.047 0-0.469-2.016-1.703-1.719-1.031-1.828-1.75-0.141-1.469-0.141-1.203 0-3.172 6.641-3.172 0.297 0.016 1.859 0.141 2.141 0.156 3.766 0.203 0.656 0.016 1.984 0.516-0.141 1.641-1 2.141-2.547 1.453-5.938 3.688-0.516 0.328-1.078 1.031-0.25 0.328-0.344 1.094l-0.188 0.266q-0.984 0.094-1.031 0.906 0.641 0.063 1.234 0.063 1.375 0 4.047-0.445t4-0.445q2.297 0 3.719 1.313t1.422 3.578q0 0.891-0.188 1.672-0.328 1.188-1.359 2.984-0.938 1.625-0.938 1.797 0 2.063 3.188 2.063 4.891 0 8.859-4.672 0.141-0.438-0.422-0.438-0.25 0-0.766 0.133t-0.766 0.133q-3.047 0-3.047-2.281 0-1.219 0.688-2.375 0.813-1.297 1.953-1.297 0.875 0 2.055 1.523t1.258 1.523q1.313 0 3.063-1.453l-2.094-5.109q0-0.172 0.141-1.016 0.094-0.5-0.125-0.688h0.859q0.234-0.031 1.141 1.016t0.906 1.297q0 0.141-0.281 0.352t-0.281 0.336q0 0.25 0.555 1.539t0.555 1.508zM29.797 2.453v-0.516q-0.188-0.438-0.609-0.438-0.313 0.297-0.313 0.516zM33.156 16.563q-0.547-1.109-1.047-1.109-0.609 0-0.609 0.656l0.438 0.453h1.219zM15.844 3.875q-5.094-0.453-4.5-0.453-1.484 0-2.516 0.344-0.047 0.016-1.281 0.609 1.484 1.156 3.797 3.328 2.063-1.875 4.5-3.828zM23.891 15.891q0-1.578-1.844-2.734-0.781-0.469-1.422-0.469-0.172 0-4.188 0.359l-4.188 0.344q-0.422 0-1.297-0.063t-1.313-0.063q-0.594 2.359-0.594 3.172 0 2.813 1.875 4.727t4.656 1.914q1.109 0 3.141-1.016t2.594-1.906q0.016-0.297 0.125-1.016 0.422-2.969 1.281-2.969 0.094 0 0.344 0.234 0.016 1.188-0.125 1.672 0.953-0.656 0.953-2.188zM19.313 14.859q0 0.719-1.641 1.547-0.672 0.297-2 0.891-0.484 0.219-2.094 1.063h-0.469q-0.172-0.172-0.172-0.469 0-0.688 0.594-0.984 1.531-0.766 5.141-2.422h0.469q0.172 0.031 0.172 0.375zM19.594 17.281q0 0.578-0.453 0.75-1.594 0.672-5.734 2.422-0.297-0.328-0.313-0.422 0-0.766 0.859-1.188 4.078-1.984 4.75-1.984h0.719q0.172 0.172 0.172 0.422z"></path>
</svg>
