<!-- Generated by IcoMoon.io -->
<svg version="1.1" xmlns="http://www.w3.org/2000/svg" width="44" height="32" viewBox="0 0 44 32">
<title>surah72</title>
<path d="M29.563-0.25q0 0.781-1.063 1.641-0.734 0.625-1.203 0.797h-0.609q-0.172-0.031-0.172-0.344 0.172-0.219 1.109-1.141-0.125-0.313-0.547-0.313-0.266 0-1.656 0.531v-0.641q0.344-0.531 1.156-1.219 0.516-0.203 1.609-0.203 0.297 0 0.836 0.313t0.539 0.578zM21.531 2.375q-0.563 1.219-0.641 1.328-0.281 0.406-0.875 0.406-0.469 0-0.867-0.508t-0.398-0.992q0-0.766 1.156-2.891h0.516q-0.563 2.188-0.563 1.969 0 0.516 0.375 0.922-0.156 0 0.953-0.422 0.109 0.016 0.344 0.188zM29.141 7.703q-0.016 0.172-0.344 0.172l-0.813-0.453q-0.391 0.328-0.656 1.781-0.297 1.578-0.719 2.109-0.328-0.063-0.953-1.109t-0.891-1.203q-0.375-0.125-0.984-0.344-0.453-0.219-0.453-0.859 0-1.188 0.891-1.188 0.375 0 1.25 0.969 0.469 0.516 0.969 1.109 0.094-0.125 0.609-1.828 0.391-1.203 0.938-1.203 0.328 0 0.742 0.406t0.414 0.75v0.891zM43.422 15.969q0 0.813-1.156 1.531-0.344 0.016-0.984 0.094-0.453 0.219-0.469 0.594-0.203 2.688-1.281 3.938l-0.203-0.203q0.203-0.984 0.203-1.328 0-1.25-0.313-2.688-0.078-0.109-0.469-0.516-0.844-0.063-1.219 0.078-3.469 1.281-9.391 2.953-0.672 0.172-3.406 0.172-0.25 0-1.109-0.266t-1.109-0.266q-0.438 0-0.813 0.813-0.109 0.313-0.359 0.953-0.766 1.063-1.359 1.469-1.031 0.766-3.516 1.625-2.734 0.938-4.359 0.938-1.203 0-2.859-0.734-1.938-0.891-2.219-2.094-0.313-1.375-0.313-1.938 0-0.969 0.555-2.344t0.555-1.75q0-0.313-0.344-1.398t-0.344-1.383q0-1.672 0.727-3.664t1.805-3.227h0.516v0.469q0 0.203-0.469 1.125-1.203 2.422-1.203 3.844 0 1.578 0.641 2.172 0.313 0 1.031-0.859 0.266 0.219 0.266 0.438 0 0.813-0.484 1.625l-1.234 1.672q-0.766 1.063-0.766 1.875 0 3.969 5.047 3.969 1.563 0 4.406-1.047 3.281-1.203 3.281-2.438 0-0.188-1.234-3.938 0-0.531 0.563-1.719h0.5q0.656 1.078 1.125 1.828 0.766 1.172 1.5 1.453 1.656 0.578 3.578 0.578 2.953 0 5.609-1.469 0.031-0.047-0.094-0.156-4.438-1.266-5.172-1.266-0.156 0-0.414 0.055t-0.383 0.055l-0.016-0.016q-0.156-0.125-0.156-0.391 0-0.297 0.508-0.992t0.773-0.742q2.031-0.172 4.734-0.484 0.484-0.047 0.484-0.734l-1.375-11.719q0-0.328 0.719-1.781h0.484q0.641 1.547 1.969 4.625l-0.531 0.469q-0.156 0-0.367-0.063t-0.258-0.063q-0.094 0.078-0.094 0.625 0 1.172 0.492 3.563t0.492 3.578q0-0.156-0.844 2.828 0.797 0.484 1.188 0.484 0.328 0 0.992 0.141t1.008 0.141q0.219 0 0.664 0.063t0.664 0.063q1.172 0 1.172-0.813l-1.516-13.719q0-0.172 0.859-1.938 0.469 0.141 0.766 0.766 0.172 0.453 0.344 0.922 1.203 2.609 1.203 2.516v0.734q-0.172 0.172-0.391 0.172-0.422 0-0.641-0.391-0.203 0.391-0.203 0.813 0 0.125 0.391 3.422 0.5 3.984 0.75 6.328 0.063 0.766 0.484 1.297 2.391 0.234 2.391 0.672zM40.078 23.188q-0.813 0.75-2.656 1.766l-2.938 1.594h-0.594q-0.172-0.203-0.172-0.422 0-0.688 6.016-3.578 0.219 0.141 0.344 0.141v0.5zM16.422 0.469q0 0.75-0.688 0.75-0.156 0-0.219-0.070t-0.203-0.070q-0.344 0-0.813 1.469-0.516 1.703-0.797 2-0.469-0.953-1.203-2.266-0.094-0.172-1.453-0.828-0.594-0.281-0.594-0.938 0-0.297 0.273-0.703t0.57-0.406q0.594 0 2.438 2.359 0.391-0.266 0.688-1.531 0.266-1.109 0.891-1.109 0.313 0 0.711 0.492t0.398 0.852zM35.375 23.156q0 0.391-0.422 0.922t-0.813 0.531q-0.297-0.172-1.797-1.25-0.047-0.5 0.359-1.148t0.891-0.648q0.406 0 1.094 0.602t0.688 0.992zM17.797 10.359q0 0.266-0.336 1.055t-0.555 0.836q-0.516-0.016-1.5 0.078-0.094 0.047-0.523 0.281t-0.602 0.234q-0.594 0-1.188-0.609v-2.813l0.344-0.328q0.438 0.25 0.438 0.766 0 0.156-0.031 0.414t-0.031 0.398q0 0.641 0.516 0.641 0.297 0 0.516-0.359-0.047-0.25-0.047-0.547 0-0.719 0.266-1.844 0.469 0.125 0.641 0.891 0.203 0.922 0.547 1.297h0.234l0.234-0.094q0-0.297-0.148-0.891t-0.148-0.859q0-0.25 0.281-0.508t0.5-0.258q0.594 1.484 0.594 2.219zM27.078 23.078q-5.688 3.172-5.891 3.172h-1.031v-0.641q1.281-1.047 6.719-3.344l0.203 0.156v0.656zM16 18.5q0 0.375-0.406 0.891t-0.75 0.516q-0.219 0-1.609-0.984-0.016-0.375 0.328-1.078 0.391-0.844 0.906-0.844t1.063 0.719q0.469 0.609 0.469 0.781z"></path>
</svg>
