<!-- Generated by IcoMoon.io -->
<svg version="1.1" xmlns="http://www.w3.org/2000/svg" width="66" height="32" viewBox="0 0 66 32">
<title>surah73</title>
<path d="M65.688 2.969q0 0.344-0.141 1.016 0.234 0-0.969-0.422-0.094 2.047 0.125 5.172l0.344 5.141q0 0.219 0.125 0.789t0.125 0.758q-0.047 1.141-0.156 3.75-0.016 1.078-0.984 3.906-0.094 0-0.344 0.156l-0.188-10.438-0.688-12.047q-0.031-0.359 0.289-1.133t0.586-1.008q0.25 0 0.453 0.297 0.516 1.328 1.422 4.063zM53.797 3.313q0 0.688-0.484 0.688-0.125 0-0.273-0.148t-0.352-0.148q-0.172 0-1.328 1.141-1.281 1.281-1.75 1.594-0.656 0.406-1.813 1.141h-0.641q0.219-0.672 2.219-2.297 1.922-1.547 1.922-2.031-0.156-0.234-1.047-1.234-0.063-0.156-0.063-0.563 0-0.469 0.609-1.453t1.063-0.984q0.516 0 0.766 0.609 0.094 0.781 0.359 2.219 0.031 0.125 0.422 0.688t0.391 0.781zM53.109 11.688q0 0.422-0.563 1.008t-0.969 0.586q-1.094 0-1.094-1.813 0-0.969 1.469-3.188l0.172 0.5q-0.688 1.719-0.688 2.094 0 0.891 0.641 0.891 0.203 0 0.484-0.273t0.359-0.305q0.188 0.203 0.188 0.5zM48.266-1.188q0 0.141-0.219 0.563-1.875 0.719-5.109 1.906-1.438 0.531-4.547 1.844-2.781 1.156-2.953 1.156h-0.594q0-0.031-0.070-0.18t-0.070-0.32q0-0.953 5.609-2.906l7.313-2.563h0.469q0.172 0.203 0.172 0.5zM46.469 5.734q0 0.578-0.547 1.219t-1.125 0.641q-0.156 0-0.422-0.133t-0.391-0.133q-0.203 0-0.672 0.211t-0.656 0.211q-1.188 0-1.188-2.359 0-0.344 0.313-0.938h0.5q0.141 0.594 0.656 1.766 0.719-0.25 0.703-0.953-0.031-0.922 0.234-1.266 0.375 0.063 0.578 0.875 0.219 0.875 0.609 1.047 0.203-0.219 0.25-1.328 0-0.656 0.391-0.891 0.766 1.016 0.766 2.031zM46.047 10.719q0 0.281-0.469 0.867t-0.719 0.586q-0.266 0-1.125-0.609t-0.859-0.844q0-0.266 0.5-1t0.734-0.734q0.484 0 1.211 0.641t0.727 1.094zM56.016 22.422q0 1.078-1.203 2.234-1.109 1.047-2.25 1.344v-0.516q0.594-0.422 1.375-1.070t0.969-1.352q-0.047-0.031-0.141-0.031-0.219 0-0.594 0.219-0.172 0-0.516-0.313v-0.766q1.156-0.734 1.328-0.734 1.031 0 1.031 0.984zM34.156-0.203q0 0.266-0.313 0.891-0.203 0-0.766-0.578-0.219 0-0.297 0.125-0.203 0.766-0.594 2.297-0.344 1.281-0.906 1.625-0.5-1.063-1.703-2.875-0.344-0.109-0.953-0.375-0.453-0.328-0.453-0.906 0-0.984 0.766-0.984 0.734 0 1.484 1.078l0.875 1.406q0.234-0.125 0.859-1.625 0.578-1.406 1.094-1.406 0.906 0 0.906 1.328zM37.031 8.438q0 1.188-1.281 1.625-0.344 0-0.984 0.078-1.438 0.359-1.125 0.359-1.156 0-1.156-1.297 0-0.719 0.688-1.875 0.25 0.375 0.25 1.406 0.016 0 0.164 0.063t0.273 0.063q0.391 0 0.5-0.672 0.141-1.063 0.234-1.25h0.5q0.172 0.563 0.563 1.344 0.172-0.172 0.219-0.922 0.031-0.422 0.578-0.719 0.578 1.203 0.578 1.797zM62.094 18.188q0 1.125-0.484 2.313-0.641 1.5-1.578 1.5-1.063 0-2.047-1.359-0.422-0.609-1.234-1.813-4.422 0.953-5.578 0.953-1.391 0-3.203-0.266-0.219 0.297-0.516 1.172-0.453 3.484-6.578 5.422-0.984 0.313-1.75 0.313-1.766 0-2.961-1.156t-1.195-2.922q0-0.141 0.219-1.188 0.281-1.203 0.344-1.719-2.625-1.25-2.703-1.328 1.078 0-1.008 1.328t-2.883 1.328q-1.797 0-2.734-1.063-0.766-0.828-1.25-2.781-0.031-0.016-0.156-0.188-0.828 2.156-4.25 4.109-3.25 1.844-5.594 1.844-2.328 0-3.82-1.492t-1.492-3.82q0-0.5 0.516-1.969 1.016-2.891 1.016-2.609 0-0.109-0.359-0.906t-0.359-1.094q0-1.125 0.844-3.344 0.906-2.406 1.672-2.469v0.5q-0.031-0.125-0.75 1.531-0.781 1.766-0.781 2.234 0 1.672 0.953 1.672 0.234 0 0.625-0.297 0.563-0.422 0.766-0.516v0.609q0 0.5-0.969 1.438-1.078 1.109-1.203 1.375-0.719 1.484-0.719 3.156t1.484 2.828q1.297 0.953 2.656 0.953 2.063 0 5.359-1.688 4.016-2.094 3.922-4.313l-0.688-14q-0.047-1.234 0.766-2.563 0.313 0.703 0.688 2.141 0.875 6.344 0.875 9.813v4.188q0 1.703 0.766 2.859 0.891 1.359 2.484 1.359 0.922 0 1.781-0.453 0.516-0.25 0.891-0.891 2.453-4.203 3.781-4.203 0.969 0 1.828 1.844 0.656 1.5 0.656 2.25 0 1.094-1.344 2.547-0.578 0.594-0.578 1.688 0 2.891 3.328 2.891 1.781 0 4.328-1.219 2.859-1.359 2.859-2.781 0-0.297-0.555-1.773t-0.555-1.758q0-0.406 0.297-1.563 0.094-0.031 0.344-0.172 0.203 0.172 0.547 0.578 1.375 2.313 4.484 2.313 1.031 0 2.797-0.344 2.469-0.438 2.469-1.109 0-0.75-0.203-2.281t-0.203-2.297v-6.469q0-0.734-0.219-2.25t-0.219-2.281q0-0.469 0.734-1.922h0.5q1.672 4.188 1.672 4.484v0.891q-0.172 0-0.508-0.141t-0.477-0.141q-0.094 0.109-0.172 1.281-0.078 1.578 0.078 3.656l0.531 7.156q0.328-0.047 0.672-0.047 3.344 0 3.344 2.438zM20.156-0.203q0 0.391-1.281 0.641-0.344 1.156-1.266 3.422-0.359-0.672-1.094-1.969-0.172-0.125-1.703-1.203-0.203-0.156-0.203-0.688 0-0.672 0.641-0.984 0.469 0.109 2.344 2.078 0.172-0.438 0.516-1.328 0.469-1.156 1.016-1.156 0.266 0 0.648 0.445t0.383 0.742zM19.75 6.906q0 0.797-2.547 1.313-0.469 0.094-0.5 0.563l1.234 6.234q-0.078 1.031-0.766 2.672 0-1.938-0.25-3.219l-1.047-5.219q0 0.141 0.641-2.141-0.063-0.344-0.063-1.109 0.031-0.344 0.414-0.766t0.727-0.422q0.469 0 1.313 0.828t0.844 1.266zM33.438 22q0 0.563-0.438 0.781-1.359 0.719-4.141 1.75-2.453 0.938-2.75 0.938-0.156 0-0.336-0.086t-0.211-0.086v-0.609q0.813-0.75 4.313-1.875 0.031 0 1.531-0.719 1.109-0.516 1.297-0.516h0.422q0.313 0.328 0.313 0.422zM24.859 22.25q-2.047 1.672-7.422 3.484-0.344-0.328-0.344-0.5 0-0.547 2.656-1.656 4.016-1.719 4.469-2h0.641v0.672zM52 0.859q-0.188-0.172-0.516-0.172-0.016 0.125-0.016 0.656 0.531 0 0.531-0.484zM60.844 19.359q0-0.391-0.563-0.953h-1.219q0 0.297 0.508 0.703t0.805 0.406q0.172 0 0.305-0.078t0.164-0.078zM36.078 16.578q-0.141-1.344-1.031-1.344-0.25 0-0.492 0.266t-0.242 0.516q1.125 0.563 1.031 0.563h0.734z"></path>
</svg>
