<!-- Generated by IcoMoon.io -->
<svg version="1.1" xmlns="http://www.w3.org/2000/svg" width="66" height="32" viewBox="0 0 66 32">
<title>surah74</title>
<path d="M66.063 4.594q-0.203 0.203-0.422 0.203-0.156 0-0.461-0.336t-0.398-0.352q-0.109 0.172-0.109 0.906l1.234 13.422q0 3.813-1.063 4.766l-1.969-22.219q0-0.625 0.891-2.141 1.328 2.359 2.297 5.75zM52.219 5.016q0 0.219-0.313 1.156h-0.563q-0.188 0-0.586-0.273t-0.555-0.273q-0.172 0-0.469 0.375-0.563 1.547-3.547 4.703-0.594 0.297-1.625 1.031-1.719 1.547-3.469 2.188h-0.516v-0.484q0.328-0.422 0.891-0.969 1.5-0.875 2.453-1.75 4.984-4.375 4.984-5.359 0-0.203-0.063-0.313-1.469-0.938-1.469-1.859 0-0.734 0.656-2.141 0.844-1.641 1.781-1.641 1.297 0 1.297 3.266v0.469q0 0.25 0.031 0.328 0.141 0.297 0.656 0.703 0.422 0.328 0.422 0.844zM43.344 4.75q0 0.438-0.375 0.867t-0.797 0.43q-0.531 0-0.875-0.641-0.297-0.531-0.297-1.109 0-0.531 1.578-3.563 0.188-0.125 0.359-0.125 0.156 0 0.281 0.078-1.109 2.578-1.109 2.922 0 0.172 0.359 0.906 0.516-0.234 0.875-0.234v0.469zM51.516 14.844q0 0.656-1.266 2.5-0.734 0.203-0.594 0.203-1.469 0-1.469-2.484 0-1.156 0.617-2.719t1.43-2.281l0.172 0.781q-1.109 1.922-1.109 3.156 0 1.453 0.828 1.453 0.172 0 0.578-0.438 0.438-0.547 0.609-0.672 0.203 0.203 0.203 0.5zM39.203 2.031q0 0.578-0.375 1.188-0.422 0.688-0.938 0.719-0.344-0.031-1.078 0.063-0.078 0.031-0.547 0.328-0.344 0.188-0.531 0.188-0.594 0-0.969-0.734-0.266-0.531-0.266-0.984 0-0.438 0.844-1.469 0.109 0.516 0.516 1.547 0.516-0.047 0.516-0.563 0-0.172-0.055-0.492t-0.055-0.492q0-0.547 0.547-0.672 0.094 0.094 0.813 1.656 0.391-0.078 0.391-0.469 0-0.172-0.047-0.492t-0.047-0.492q0-0.5 0.391-0.641 0.25 0.188 0.57 0.844t0.32 0.969zM57.047 23.016q0 1.859-3 3.484 0.016-0.672 1.891-2.563v-0.359q-0.078-0.094-0.219-0.094-0.156 0-0.422 0.141 0-0.031-0.086-0.125t-0.086-0.297q0-0.313 0.492-0.711t0.82-0.398q0.609 0 0.609 0.922zM29.359-3.656q0 0.625-0.031 0.766-0.188 0.797-0.688 1.016-1.703 0.719-2.234 0.719-1.047 0-1.047-1.453 0-0.766 0.547-1.453 0.125 0.484 0.516 1.391 0.563-0.047 0.625-0.656v-1.109q0.094-0.047 0.172-0.047 0.313 0 0.984 1.25 0.438-0.297 0.422-0.961t0.266-0.836q0.469 0.25 0.469 1.375zM32.672 3.188q0 0.297-0.438 0.875t-0.719 0.578q-0.313 0-1.016-0.625t-0.703-0.938q0-0.375 0.445-0.992t0.789-0.617q0.438 0 1.039 0.641t0.602 1.078zM30.469 0.516q0 1.047-1.391 1.75l0.578 1.078q0 0.469-0.703 1.109t-1.172 0.641q-0.172 0-0.984-0.453-0.203-0.297-0.203-0.813 0-1.422 0.922-1.922 0.641-0.359 0.813-0.359 0.063 0.016 0.063 0.078 0-0.125-0.266-0.438t-0.266-0.484q0-0.234 0.313-1 0.391-0.859 0.719-0.859 0.484 0 1.078 0.781 0.5 0.656 0.5 0.891zM62.875 18.781q0 1.156-0.563 2.359-0.688 1.531-1.797 1.531-1.328 0-3.125-2.938-6.859 3.594-12.375 3.594-6.281 0-7.703-4.656h-0.125q-0.25 0.453-0.813 1.328-0.938 1.094-1.625 1.625-1.656 1.391-3.203 2.094-2.766 1.281-3.844 1.281-0.688 0-1.422-0.531t-1.016-1.172q-0.172-0.391-0.172-1.047 0-0.469 0.047-1.203l0.078-0.75q0-0.563-0.219-1.25-3.172 2.359-7.438 4.25-1.422 0.203-3.734 0.641-0.172 0.031-1.922 0.703-1.156 0.406-2.047 0.328 0-0.391 0.172-0.453l7.063-3.188q3.891-1.766 7.047-3.953 0.656-0.469 1.688-1.547 1.313-1.391 1.313-2.031t-0.828-2.234-0.828-2.188q0-0.203 0.078-0.555t0.078-0.539q0.047-0.016 0.078-0.047 0.063-0.125 0.313-0.125 0.125 0 0.836 0.844t1.383 0.844q0.828 0 1.703-0.641-0.078-0.297-0.469-1.219-0.406-0.828-0.406-1t0.148-0.664 0.148-0.773q0.469-0.016 0.719-0.016 0.266 0 0.375 0.016 0.828 2.984 0.828 3.188 0 1.922-1.125 2.703-0.625 0.266-1.906 1.156 0 0.266-0.047 1.031-0.094 1.375-1.125 3.234-0.172 0.188-0.469 0.688-0.594 1.797-0.594 2.875 0 0.563 0.438 1.406 0.516 1 1.234 1 1.078 0 2.125-0.438 2.453-1.031 3.734-1.922 0.797-0.563 1.844-1.641 1.313-1.359 1.313-2.031-0.047-0.141-0.25-0.922-0.203-1.047-0.766-3.75-0.125-0.484-0.984-3-0.641-1.875-0.641-2 0-0.406 0.594-1.578 0.297 0 0.438 0.297 1.828 3.25 2.813 8.078 0.891 4.203 1.766 5.313 1.578 1.953 6.078 1.953 2.5 0 5.516-0.859 0.328-0.109 4.438-1.844 0.469-0.203 1.031-0.594 0.172-0.203 0.172-0.797l-1.641-16.063q0-0.406 0.703-1.859 0.344 0 0.469 0.172 2 3.719 2 4.313v0.859q-0.047 0.047-0.102 0.109t-0.32 0.063q-0.141 0-0.375-0.141-0.313-0.25-0.359-0.266-0.109 0.188-0.109 0.906 0 2.219 0.547 6.219l0.641 4.703q0.031 0.203 0.297 0.625 2.172 0.047 2.813 0.234 1.391 0.453 1.391 1.859zM34.359 14.484q0 0.641-2.156 2.047-0.953 0.594-2.875 1.828h-0.484v-0.594q0-0.422 2.359-1.922 1.297-0.813 2.953-1.891 0.203 0.188 0.203 0.531zM22.313 11.594q0 0.641-0.477 1.273t-1.117 0.633q-0.563 0-0.922-0.734-0.266-0.531-0.266-1.031 0-2.063 1.422-3.328-0.578 2.375-0.578 2.813 0 0.781 0.766 0.781 0.094 0 0.984-0.828 0.188 0.188 0.188 0.422zM23.156 23.406q-0.969 0.953-5.344 2.969-0.203-0.156-0.344-0.156 0.141-0.75 1.594-1.484l3.297-1.656h0.625q0.016 0.125 0.172 0.328zM49.734 3q0.094-0.156 0.094-0.344 0-0.672-0.703-1.031-0.375 0-0.375 0.531 0 0.5 0.984 0.844zM61.625 19.641q-1.156-0.563-1.063-0.563h-0.859q0.328 1.219 1.313 1.219 0.609 0 0.609-0.656z"></path>
</svg>
