<!-- Generated by IcoMoon.io -->
<svg version="1.1" xmlns="http://www.w3.org/2000/svg" width="80" height="32" viewBox="0 0 80 32">
<title>surah75</title>
<path d="M79.297 5.109q0 0.75-0.609 0.75-0.141 0-0.266-0.156-0.25 0.266-0.219 0.641l0.953 11.109q-0.078 0.063-0.078 1 0 0.906 0.078 2.703-0.375 1.859-0.375 1.906-0.266 1.047-0.75 1.734h-0.5q0.078-4.453-0.438-10.25-0.578-6.719-0.594-9.734 0-0.391-0.109-1.203t-0.109-1.234q0-1.547 1-2.328 0.25 0 0.453 0.313 0.094 0.328 1.031 2.609 0.531 1.375 0.531 2.141zM66.969 3.516q-0.094 0.344-0.484 0.984-0.5 0.813-0.813 0.813-1.031 0-1.031-1.375 0-0.688 0.438-1.625 0.469-1.031 1.031-1.281l0.203 0.469q-0.25 0.484-0.594 1.766 0.125 0.047 1.25 0.25zM68.641 8.906q0 0.391-0.5 0.883t-0.875 0.492q-0.172 0-0.688-0.273t-0.719-0.273q-0.125 0-0.734 0.484t-0.766 0.484q-0.359 0-1.086-0.594t-0.727-0.938q0-0.422 0.523-1.031t0.945-0.609q0.156 0 0.641 0.359 0.641 0.5 0.859 0.594 0.5-0.344 0.844-0.859 0.172-0.25 0.609-0.25 0.469 0 1.070 0.547t0.602 0.984zM62.422 0.469q0 1.125-5.5 3.313-3.266 1.188-6.563 2.359-5.719 2.219-5.891 2.219h-0.563l-0.172-0.172v-1.5q10.391-4.078 18.359-6.766 0.328 0.313 0.328 0.547zM73.625 17.281q0 2.141-0.75 3.906-0.359 0.891-1.078 1.375-1.281 0.859-2.688 0.859-2.109 0-4.156-2.906-1.875 0.672-3.563 1.094-2.344 0.594-5.344 0.594-4.953 0-7.438-2.906l-1.719 1.594q-0.938 0.891-2.734 0.891-2.828 0-3.703-2.953-0.406-1.375-0.578-5.422 0.016-1.875-0.234-6.641-0.141-1.844-0.313-3.25-0.172-1.188-0.172-0.984 0-0.969 0.594-2.766h0.609q0.5 0.453 0.547 1.047 0.594 5.016 0.594 9.391v3.625q0 5.313 2.844 5.313 1.391 0 2.438-0.938 0.5-0.438 1.406-1.719 0.672-0.938 1.063-0.938 0.438 0 0.656 0.469 0.078 0.344 0.273 1.086t0.992 1.18q2.453 1.422 4.625 1.422h2.391q0.531 0 4.844-0.859 0.766-0.172 1.422-0.766-0.219-1.422 0.422-3.344 0.766-2.234 2.016-2.234 0.984 0 1.563 1.109 0.469 0.875 0.469 1.938 0 2.094-1.797 4.094 0.75 1.172 2.063 1.172 2.922 0 2.922-1.734l-1.25-12.188v-3.578q0-0.125-0.133-0.43t-0.133-0.508q0-0.578 0.859-2.063 0.125 0.031 0.344 0.078 1.828 3.219 1.828 4.875-0.078 0.125-0.969 0.563v1.625zM57.438 14.859q0 0.641-0.695 1.563t-1.32 0.922q-1.453 0-1.453-2.828 0-1.078 0.5-2.688 0.547-1.75 1.203-2.359 0.516 0 0.516 0.547 0 0.563-0.414 1.734t-0.414 1.703q0 1.141 0.609 1.672 0.375-0.344 1.125-0.828 0.344 0.344 0.344 0.563zM67.688 24.266q0 0.609-2.813 1.516-2.438 0.813-2.953 0.813h-1q-0.156-0.141-0.156-0.469 0-0.781 1.609-1.172 0.734-0.156 2.156-0.438 0.172-0.047 2.359-0.797h0.469q0.328 0.328 0.328 0.547zM35.984 1.156q0 0.641-1.625 1.594-0.594 0.297-1.719 0.938-1.984 1.25-7.094 4.484-0.281 0.172-1.188-0.063-0.016-0.609 1.547-1.766 1.438-1.063 5.172-3.328 3.984-2.406 4.359-2.406 0.547 0 0.547 0.547zM53.406 24.75q0 0.438-0.406 1.078t-0.828 0.641q-0.172 0-0.93-0.414t-0.93-0.414q-0.125 0-0.742 0.555t-0.789 0.555q-0.422 0-1.219-0.594t-0.797-0.984q0-0.375 0.531-0.984t0.844-0.609q0.172 0 0.813 0.344t0.813 0.344q0.141 0 0.664-0.555t0.711-0.555q0.594 0 1.375 0.516 0.891 0.547 0.891 1.078zM29.453 14.438q0 0.469-0.523 1.133t-0.977 0.664q-1.25 0-1.25-1.516 0-0.625 0.563-1.906 0.641-1.422 1.188-1.422 0.047 0.031 0.047 0.047 0.141 0.094 0.141 0.375 0 0.219-0.344 0.859t-0.359 0.859v0.672l0.234 0.234q0.844-0.406 0.984-0.391 0.297 0.297 0.297 0.391zM19.484 1.344q0 0.172-0.070 0.367t-0.070 0.273q-0.156 0.125-0.391 0.125-0.125 0-1.156-0.688-0.406 0.469-0.641 1.766-0.297 1.609-0.594 2.25h-0.5q-0.344-0.797-1.156-2.25-0.594-0.75-1.469-1.031-0.594-0.188-0.594-0.813 0-1.172 0.906-1.172 0.516 0 1.313 0.75 0.516 0.594 1.047 1.188 0.297-0.25 0.875-1.578 0.438-1.031 1-1.031 0.547 0 1.063 0.813 0.438 0.719 0.438 1.031zM23.375 11.313q0 0.344-0.5 0.977t-0.797 0.633q-0.156 0-0.805-0.422t-0.805-0.422q-0.125 0-0.625 0.422t-0.703 0.422q-0.469 0-1.305-0.641t-0.836-1.094q0-0.406 0.492-1t0.883-0.594q0.172 0 0.891 0.492t0.859 0.492q0.156 0 0.719-0.422t0.734-0.422q0.453 0 1.125 0.578t0.672 1zM38.047 18.656q0 2.563-1.797 2.563-0.734 0-2.117-0.555t-1.211-0.555q-0.141 0-0.828 0.688-0.766 0.766-1.156 0.938-1.547 0.734-3.766 0.734-2.297 0-3.875-1.156-0.281-0.219-1.078-1.25-0.656-0.922-0.859-0.922-0.719 0-1.719 1.734l-1.781 3.188q-1.125 1.719-2.156 1.719-1.797 0-2.938-3.219-0.563-1.594-0.359-3.344 0.094-1.031 0-2.641-0.063-0.469-0.359-1.641-0.313-1.078-0.313-1.484 0-0.234 0.734-2.969 0.109-0.328 1.109-1.969h0.672q-1.109 3.25-1.109 4.406 0 0.578 0.484 1.516 0.422-0.344 1.391-1.109 0.188 0.203 0.188 0.641 0 0.672-0.609 1.531-0.297 0.375-0.891 1.141-0.297 0.438-0.297 1.688 0 1.016 0.547 2.734 0.766 2.359 1.875 2.359 0.453 0 1.547-1.813 1.641-2.828 2.063-3.406 1.313-1.813 2.344-1.813 0.531 0 1.172 0.906 0.922 1.313 1.438 1.75 1.125 0.938 2.781 0.938 2.359 0 3.438-0.594 0.547-0.297 2.375-2.703 1.563-2.125 2.719-2.125 0.984 0 1.75 1.875 0.594 1.453 0.594 2.219zM24.453 23.328q0 0.891-0.563 1.188-3.547 1.813-4.328 1.813h-0.594q-0.141-0.172-0.141-0.391 0-0.594 0.313-0.797 0.625-0.344 2.391-1.125 1.969-0.859 2.313-0.859 0.172 0 0.383 0.086t0.227 0.086zM67.531 16.469q0-0.406-0.328-0.875t-0.703-0.469q-0.266 0-0.516 0.383t-0.25 0.68q0 0.672 0.625 1.313 1.172-0.797 1.172-1.031zM35.953 18.453v-0.484q-0.391-0.891-0.813-0.891-0.141 0-0.391 0.219t-0.266 0.219v0.469l0.438 0.469h1.031z"></path>
</svg>
