<!-- Generated by IcoMoon.io -->
<svg version="1.1" xmlns="http://www.w3.org/2000/svg" width="66" height="32" viewBox="0 0 66 32">
<title>surah76</title>
<path d="M66.125 18.719q0 2.328-0.469 3.844-0.219 0.672-0.828 1.281l-0.25-0.172q0.078-2.453-0.438-9.594-0.078-1.313-0.453-4.438l-0.313-3.047v-3.844q0-0.266-0.211-1.070t-0.211-1.102q0-0.609 0.859-2.063 0.344 0 0.469 0.172 1.703 3.156 1.703 4.156v0.75q-0.156 0.094-0.328 0.094-0.297 0-0.656-0.203-0.219 1.563 0.063 3.797 1.063 8.25 1.063 11.438zM53.641 2.75q0 0.391-0.516 1.055t-0.906 0.664q-1.031 0-1.031-1.594 0-1.922 1.594-3.547 0.203 0.047 0.203 0.344 0 0.266-0.422 1.227t-0.422 1.211q0 0.438 0.375 0.813 0.344-0.25 1.125-0.656v0.484zM59.484 15.188q0 3.391-1.484 6-1.891 3.281-5.625 4.078-0.156 0.031-1.438 0.469-0.938 0.297-1.078 0.297h-1.313v-0.516q5.813-2.328 8.328-5.516 0.016-0.172-0.516-0.484 0.016-0.125 0.016-0.297 0-1.891-1.625-3.719-2.203-2.359-7.953-8.594-0.625-0.703-4.297-5.813-0.172-0.234-0.172-1.203 0-0.734 0.172-1.25h0.438q0.297 0 1.969 1.469 1.797 1.563 1.969 2.25h-1.25q0.953 1.797 5.953 6.859 4.672 4.734 5.375 6.781 0.109 0.391 0.438 2.875 0.141 0 0.391-0.391 0.328-0.641 0.328-1.438l-1.656-16.531q0-0.328 0.719-2.125 0.391 0 0.609 0.297 1.703 4.313 1.703 4.578v0.609q-0.328 0.297-0.547 0.297-0.188 0-0.469-0.266-0.047 0.547-0.047 1.156 0 1.703 0.531 5.063t0.531 5.063zM63.344 23.703q-1.203 0.563-3.641 1.781h-0.438q-0.063-0.344-0.109-1-0.125-0.172-0.781-0.813 0.047-0.484 1.133-1.609t1.57-1.125q0.766 0 0.766 0.813 0 0.281-0.32 0.563t-0.57 0.281q-0.172 0-0.344-0.078t-0.188-0.078l-0.25 0.281q0.047 0.578 1.063 0.578 0.313-0.047 1.938-0.281l0.172 0.172v0.516zM43.844 8.063q0 0.297-0.523 0.977t-0.805 0.68q-0.344 0-1.102-0.57t-0.758-0.883q0-0.375 0.438-0.977t0.813-0.602q0.344 0 1.141 0.539t0.797 0.836zM52.297 18.578q0 0.547-0.508 1.039t-1.023 0.492q-0.953 0-0.953-1.391 0-1.844 1.859-3.609l0.203 0.656q-0.953 1.922-0.953 2.391 0 0.203 0.344 0.563 0.313-0.219 0.828-0.563 0.203 0.203 0.203 0.422zM33.047 0.391q0 0.766-0.625 0.766-0.266 0-0.828-0.578-0.375 0.469-0.734 2-0.406 1.594-0.766 2.172-0.391-0.234-0.961-1.438t-1.18-1.578q-0.156-0.094-1.188-0.438-0.641-0.219-0.641-0.719 0-0.391 0.336-0.82t0.695-0.43q0.578 0 1.531 1.078 0.422 0.469 1.234 1.406 0.25-0.563 0.703-1.703 0.547-1.328 1.094-1.328 0.469 0 0.938 0.75 0.391 0.609 0.391 0.859zM38.734 5.656q0 0.906-3.109 1.891-0.734 0.219-3.516 1.328-2.141 0.844-2.344 0.844h-0.563q-0.172-0.172-0.172-0.422 0-0.781 2.828-1.813 5.469-2 6.234-2.328h0.469q0.172 0.172 0.172 0.5zM35.953 13.406q0 0.5-0.508 1.102t-0.992 0.602q-1.109 0-1.109-1.375 0-0.641 0.539-1.773t1.055-1.414q0.172 0.031 0.172 0.344 0 0.188-0.328 0.82t-0.359 0.836v0.813q0.094 0.094 0.344 0.094-0.266 0 1.016-0.406 0.172 0.016 0.172 0.359zM25.859 5.281q0 0.516-1.156 1.672-0.422-0.172-1.75-1.125-0.078-0.438 0.328-1.18t0.828-0.742q0.344 0 1.047 0.539t0.703 0.836zM47.297 19.188q0 1.656-0.813 2.813-0.906 1.297-2.516 1.297-0.734 0-1-0.141-0.109-0.047-1.266-0.844-1.172 1.219-1.922 1.625-0.172 0.031-0.516 0.031-1.594 0-2.156-1.109-0.469 0.438-1.547 1.141-0.703 0.266-1.484 0.266-0.953 0-1.422-0.5-0.344-0.344-0.938-1.719-3.109 2.219-7.234 2.219-1.75 0-3.5-0.898t-1.578-0.898q-0.656 0-2.063 0.414t-2.094 0.414q-0.328 0-2.078-0.313-0.828-0.141-1.742-0.992t-1.055-1.664q-0.297-1.844-0.297-2.094 0-0.953 0.555-2.438t0.555-1.656q0-0.281-0.422-1.414t-0.422-1.414q0-1.797 2.25-6.25 0.297-0.563 1.156-1.156 0.188 0.203 0.188 0.422 0 0.094-0.734 1.625-0.781 1.625-1.156 2.75-0.203 0.578-0.203 1.016 0 0.359 0.203 1.297 0.047 0.234 0.594 0.766 0.313-0.391 1.063-1.203h0.516v1.031q0 0.641-0.891 1.828-0.594 0.438-1.422 1.5-0.453 1.031-0.453 2.188 0 1.547 1.133 2.68t2.664 1.133q3.813-0.359 3.813-1.031 0-0.313-0.172-0.992t-0.203-0.945q-0.391-3.703-0.406-5.547-0.063-2.266-0.234-7.609-0.016-0.469-0.359-2.406-0.297-1.578-0.297-1.75 0-0.984 0.766-2.016 0.438 0.422 0.563 1.031 0.844 3.5 0.984 8.438 0.047 2.031 0.141 6.031 0.125 3.578 0.969 5.281 2.406-0.922 2.969-1.219 1.688-0.859 2.609-2.188l-1.906-5.047q0.141-1.234 0.734-2.219 2.016 2.031 2.016 2.438 0 0.125-0.273 0.359t-0.273 0.391q0 0.094 0.484 1.375t0.484 2.016q0 3.047-5 5.828 0.297 0.625 1.078 0.75h1.406q2.266 0 4.781-0.984 1.031-0.75 3.375-1.75-0.063 1.328 0.047 1.766 0.234 0.969 1.234 0.969 1.563 0 3.344-2.719 0.516-0.172 0.641-0.172-0.031 0.984-0.031 1.531 0.031 1.078 0.938 1.078 0.859 0 1.781-1.414t1.172-1.492q0.469 2.219 2 2.219 1.5 0 1.5-0.953 0-0.734-1.172-3.516t-1.172-3.5q0-0.797 0.438-1.703h0.469q0.109 0.203 1.188 1.328 0.938 0.969 0.938 1.406 0 0.313-0.688 0.672 0.172 0.75 0.859 2.75 0.516 1.594 0.516 1.766zM19.906 24.344q0 0.406-0.594 0.703-4.016 1.969-5.031 1.969h-0.609v-0.797q0.563-0.563 1.703-1.078 3.047-1.422 3.781-1.422h0.75v0.625z"></path>
</svg>
