<!-- Generated by IcoMoon.io -->
<svg version="1.1" xmlns="http://www.w3.org/2000/svg" width="85" height="32" viewBox="0 0 85 32">
<title>surah77</title>
<path d="M83.703 18.031q0 3.281-1.281 5.25-0.219 0-0.469-0.297 0.297-3 0.172-4.578l-0.797-10.531q-0.125-1.625-0.453-4.578l-0.344-3.109q0-0.766 0.859-1.938h0.5q0.219 0.734 0.984 2.625 0.688 1.672 0.688 1.844v1.047q-0.125 0.063-0.469-0.031-0.438-0.094-0.516-0.094-0.094 0.172-0.094 0.953zM71.125 6.813q0 0.516-0.469 0.984-0.094 0-0.422-0.133t-0.516-0.133q-1 1.031-1.688 1.625-1.922 1.641-3.25 1.938v-0.484q3.984-2.844 3.984-3.797 0-0.078-0.617-0.898t-0.617-1.023q0-0.547 0.469-1.453 0.625-1.172 1.453-1.172 1.016 0 1.031 1.438 0-0.016-0.016 1.781 0.047 0.141 0.352 0.633t0.305 0.695zM65.141 6.891q0 0.938-0.781 1.82t-1.703 0.883q-1.109 0-1.109-1.109 0-0.375 0.578-1.75 0.641-1.578 1.109-1.578 0.656 0 1.281 0.531t0.625 1.203zM68.766-1.141q0 0.891-1.031 1.281-12.156 4.797-20.063 9.031h-0.469q-0.172-0.172-0.172-0.422 0-1.219 7.5-4.766 0.453-0.203 8.875-3.891 0.578-0.25 4.719-1.703h0.469q0.172 0.172 0.172 0.469zM80.531 16.922q0 1.141-0.594 2.203-0.703 1.281-1.844 1.281-0.891 0-2.047-1.188-0.953-1.016-1.453-2-2.703 0.766-4.469 0.984-0.328 1.094-1.438 3.125-1.125 1.438-5.359 3.406-3.25 1.484-6.938 1.516-0.594 0-1.898 0.391t-1.852 0.391q-0.422 0-0.641-0.188 0-0.328 0.172-0.453 1.625-0.703 5-1.594 0.859-0.219 7.063-2.625 0.219-0.141 0.688-0.469 0.672-0.344 2-1.078 1.844-1.094 1.844-1.906 0-0.188-0.766-1.813t-0.766-1.828q0-0.656 0.594-1.859 0.047 0.016 0.5 0.188 1.5 2.266 2.578 2.266 3.25 0 3.25-1.297-0.031-0.297-0.25-1.828-0.188-1.359-0.344-3.563-0.188-2.094-0.703-7.766 0-0.094-0.172-0.5t-0.172-0.609q0-0.484 1.031-2.547 2.266 3.422 2.266 4.203v1.031q-0.172 0-0.492-0.063t-0.492-0.063l-0.125 0.078q0.125 4.484 0.641 7.875 0.094 0.719 0.297 2.125 0.172 1.281 0.516 1.281 0.125 0 0.297-0.063t0.266-0.063q3.813 0 3.813 3.016zM54.25-0.422q0 0.25-0.328 0.891h-0.594q-0.141 0-0.703-0.547-0.328 0.266-0.703 1.672-0.391 1.5-0.953 2.188-0.297-0.188-0.656-0.984-0.531-1.031-0.703-1.25-0.578-0.344-1.734-1.109 0-1.625 0.875-1.625 0.594 0 1.203 0.766l1.047 1.297q0.125 0 0.266-0.234 0.094-0.453 0.375-1.234 0.563-1.156 1.281-1.156 0.266 0 0.797 0.523t0.531 0.805zM74.844 21.922q0 0.156-0.109 0.414t-0.141 0.352q-0.266 1.953-2.281 3.359h-0.5q0.234-0.391 1.156-1.703 0.766-1.047 0.766-1.234 0-0.266-0.359-0.641 0.141 0-1.109 0.422-0.172-0.031-0.172-0.344 0-0.344 0.617-1.039t0.961-0.695q1.172 0 1.172 1.109zM56.438 10.656q0 0.438-0.602 1.141t-1.055 0.703q-1.109 0-1.109-1.531 0-2.281 1.781-3.563-0.047 0.344-0.375 1.375-0.297 0.938-0.297 1.297 0 0.406 0.25 0.641h0.375q0.109 0 0.516-0.438 0.516 0 0.516 0.375zM41.375-2.094q0 0.578-2.484 2.063-0.984 0.594-2.984 1.75h-0.469q-0.172-0.031-0.172-0.375 0-0.688 2.641-2.156 0.656-0.375 3.234-1.75 0.234 0.172 0.234 0.469zM63.375 15.625q0 0.031-0.391 1.531-0.078 0.359-0.375 1.25-0.125 0.344-0.898 0.75t-1.195 0.406q-0.141 0-1.016-0.477t-1.047-0.477q0.953 0-1 0.898t-2.672 0.898q-1.469 0-2.313-1.688-0.25 0.281-0.906 0.797-1.781 1.156-3.766 1.156-1.891 0-2.875-1.203-0.625-0.75-1.438-2.953-0.313 0.641-1.234 2.328-1.344 2.344-4.203 3.547l-4.797 1.484-0.734-0.219q0.063-0.156 0.281-0.422 1.906-0.797 3.484-1.75 0.984-0.594 2.875-2.094 2.484-1.938 2.484-2.531 0-0.156-0.188-0.352t-0.203-0.32q-0.047-0.703-0.344-1.922-1.141-2.391-5.422-6.719-4.5-4.547-5.438-6.156-0.547-0.641-1.375-1.938-0.031-0.563-0.203-1.703l0.203-0.766q3.094 1.656 4.656 3.109v0.484q-0.641 0.078-1.172-0.109l-0.219 0.219q0.938 1.203 6.016 6.547 3.313 3.484 3.906 5.609 0.078 0.859 0.297 2.703 0.172 0.047 0.25-0.094 0.594-1.922 0.594-2.953l-0.031-0.266q-0.047-0.75-0.094-4.906l-0.688-6.938q0-1.438 0.734-2.953 0.484 0 0.594 0.594 1.156 6.547 1.156 8.281v3.922q0 0.438 0.094 1.156 0.125 0.891 0.156 1.188 0.188 2.953 0.406 3.609 0.688 2.141 2.891 2.141 2.625 0 4.938-2.906h0.5q-0.031 0.297-0.031 0.547 0 2.063 1.922 2.063 1.109 0 1.875-0.953 0.313-0.391 1.297-2.297 0.375-0.172 0.453-0.188 0.172 0.781 0.313 1.578 0.344 0.906 1.453 0.906 1.25 0 1.25-0.734 0-0.281-0.141-0.859t-0.141-0.875q0-0.75 0.703-1.156 0.766 0.625 0.766 2.172zM28.734 4.547q0 0.5-0.547 1.109t-1.016 0.609q-0.922 0-0.922-1.297 0-0.641 0.508-1.773t0.977-1.477q0.188 0 0.188 0.344 0 0.219-0.344 0.992t-0.344 1.008q0 0.531 0.406 0.531 0.172 0 0.5-0.18t0.453-0.18q0.141 0 0.141 0.313zM51.859 22q0 0.375-0.398 0.898t-0.742 0.648q-1.844 0.594-2.5 0.594-0.203 0-0.656-0.211t-0.672-0.211q-0.125 0-1.234 0.688-1.203 0.766-1.734 0.938-0.406 0.063-2.625 0.438l-1.188-0.203q0.297-0.172 2.547-0.922 0.813-0.266 2.797-1.375 1.781-0.969 1.922-0.969t0.539 0.227 0.57 0.227q0.141-0.125 1.234-0.844 0.813 0.391 0.766 0.391 0.188 0 0.875-0.656 0.5 0 0.5 0.344zM24.313-0.719q0 0.172-0.078 0.367t-0.086 0.211-0.109 0.102-0.273 0.086q-0.188 0-0.906-0.688-0.422 0.391-0.766 1.766-0.391 1.5-0.719 1.953h-0.484q-0.344-0.844-1.156-2.516-0.297-0.453-1.328-0.844-0.453-0.172-0.453-0.641 0-0.313 0.32-0.711t0.648-0.398q0.547 0 1.328 1.047 0.094 0.109 1.109 1.453 0.25-0.156 0.656-1.563 0.344-1.203 1.063-1.203 0.5 0 0.906 0.719 0.328 0.563 0.328 0.859zM27.234 9.391q0 0.547-0.578 1.047-0.469 0.406-0.672 0.406-0.172 0-1.133-0.492t-1.148-0.492q-0.109 0-0.773 0.555t-0.914 0.555q-0.063 0-1.844-1.25 0.031-0.797 1.313-1.922 0.234 0.094 1.156 0.672 0.688 0.438 0.938 0.438 0.141 0 0.68-0.625t0.695-0.625q0.469 0 1.375 0.648t0.906 1.086zM33.891 14.094q0 1.266-1.906 4.063-1.422 2.125-2.828 3.672l-0.391-0.094q0.297-1.391 1.531-3.188l2.063-3.063q-0.219-0.359-0.641-0.359-0.516 0-2.875 1.016-0.641 0.375-1.797 0.891-5.516 1.844-7.906 1.844-1.547 0-3.375-0.813-2.141-0.969-3.031-2.531-0.313-0.625-0.313-2.078 0-0.734 0.031-0.875 0.094-0.469 0.531-1.578 0.391-1.031 0.391-1.188 0-0.422-0.641-1.766-0.047-0.109-0.047-1.094 0-1.516 0.891-3.695t1.969-3.211q0.203 0.016 0.203 0.344 0 0.141-0.641 1.344-0.75 1.438-0.859 1.859-0.172 0.531-0.172 1.797 0 0.469 0.266 1.203 0.297 0.859 0.609 0.938 0.391-0.25 1.266-1.391 0.188 0.156 0.344 0.156v1.031q0 0.297-0.875 1.43t-1.188 1.281-0.57 0.883-0.258 1.109q0 2.219 2.172 3.422 1.703 0.938 3.766 0.938 3 0 7.742-1.875t5.273-1.875q1.266 0 1.266 1.453zM27.094 20.328q0 0.656-0.438 0.859-2.641 1.109-9.453 4.047l-0.625-0.141v-0.656q1.188-0.906 4.859-2.391l5.453-2.219q0.203 0.203 0.203 0.5zM69.438 4.75q0-0.688-0.172-0.688-0.203 0-0.203 0.531 0.125 0 0.375 0.156zM78.984 17.594q-0.344-1.063-1.031-1.063h-0.859q0.859 1.234 1.422 1.234 0.172 0 0.32-0.086zM63.891 7.281l-0.242-0.164t-0.414-0.164q-0.25 0-0.547 0.328v0.641q0.125 0 0.313 0.141 0.672-0.359 0.891-0.781z"></path>
</svg>
