<!-- Generated by IcoMoon.io -->
<svg version="1.1" xmlns="http://www.w3.org/2000/svg" width="55" height="32" viewBox="0 0 55 32">
<title>surah78</title>
<path d="M54.359 17.281q0 0.797-0.359 2.078-0.406 1.453-0.875 1.875l-2.5-22.563q0-0.5 0.703-1.953h0.5q0.781 1.625 2.109 4.781v0.469q-0.359 0.188-1 0.141-0.25 0.734-0.25 1.25zM40.234 3.438q0 1.031-0.609 1.969-0.25 0.328-1.266 0.5-0.125 0.016-0.477 0.188t-0.555 0.172q-1.25 0-1.25-1.297 0-0.281 0.070-0.828t0.070-0.828l-0.125-0.188h0.797q0.063 0.359 0.391 1.203 0.547-0.047 0.641-0.672 0.125-0.906 0.266-1.125h0.5q0.125 0.359 0.359 0.984 0.125-0.422 0.688-1.25 0.5 0.578 0.5 1.172zM40.656 9.25q0 0.391-0.406 0.992t-0.781 0.602q-0.469 0-1.094-0.602t-0.625-1.039q0-0.469 0.367-1.070t0.789-0.602q0.563 0 1.156 0.578t0.594 1.141zM28.047-0.328q-0.266 0.563-0.547 1.109-0.406 0.672-0.906 0.672-0.641 0-0.766-1.484 0-0.594 0.375-1.625 0.438-1.25 0.984-1.328 0 0.313-0.258 1.039t-0.258 0.961q0 0.578 0.469 0.75 0.219-0.266 0.469-0.266 0.219 0 0.438 0.172zM50.063 20.75q0 0.703-0.867 1.805t-1.555 1.445l-0.766-0.172q0.625-0.703 1.672-2.094-0.141-0.031-0.563-0.133t-0.422-0.289q0-0.375 0.656-0.93t1-0.555q0.266 0 0.555 0.32t0.289 0.602zM40.797-2.594q0 0.969-0.734 1.359-1.719 0.641-3.039 1.195t-3.898 1.711q-1.406 0.438-2.484 0.906-1.484 0.641-6.5 3.172-0.984 0.813-3.203 2-0.719 0.219-2.391 1.203-1.531 0.906-2.219 1.063-0.188-0.203-0.188-0.5 0-0.859 0.344-1.156 0.703-0.609 3.422-2.313 0.359-0.078 1.109-0.344 3.703-2.016 6.516-3.375 2.016-1 7.656-3.391 4.578-1.922 4.844-1.922h0.594q0 0.031 0.086 0.125t0.086 0.266zM47.563 14.297q0 2.219-0.344 3.031-1.078 2.656-4.078 2.656-1.078 0-1.797-0.672-0.422-0.359-0.891-1.172-0.359-0.672-0.563-0.672-0.094 0-2.047 0.906-2.094 0.984-3.047 1.281-4.359 1.281-7.297 1.281-3.953 0-5.922-1.281-0.172-0.125-1.063-1.078-0.609-0.672-1.203-0.672-0.156 0-0.641 0.531-0.609 0.688-0.766 0.813-1.594 1.266-3.344 1.266-0.297 0-1.703-0.906-1.75-1.156-2.109-5.734l-1.109-13.688q-0.125-1.422 0.594-2.625 0.563 0 0.875 1 0.422 3.406 0.688 8.625 0.281 5.453 0.281 6.906t0.609 2.641q0.734 1.453 2.063 1.453 1.578 0 2.719-1.031 0.531-0.5 1.516-1.953 0.719-1.063 1.156-1.063 0.5 0 0.875 1.609 0.266 1.078 2.828 2.063 1.719 0.641 3.859 0.641 3.031 0 6.547-0.984 3.797-1.031 6.016-2.688 0.484-0.359 1.031-0.344 0.469 0.281 0.516 0.922 0.047 0.922 0.094 1.078 0.438 1.031 1.422 1.031 0.844 0 1.781-0.438 0.469-0.203 0.766-0.625 0.172-0.266 0.172-0.859l-2.078-16.688q0-0.25 0.719-2.406h0.5q0.906 1.766 1.969 4.797-0.047 0.047-0.969 0.563-0.141 0.266-0.141 0.797zM22.094-1.328q0 0.953-0.5 0.953-0.281 0-0.828-0.547h-0.344q-0.297 1.313-0.984 4h-0.5q-0.313-0.703-1.172-2.078-0.406-0.219-1.313-0.734-0.594-0.344-0.594-0.906 0-1.109 0.969-1.109 0.938 0 2.047 1.516 0.266-0.094 0.859-1.328 0.531-1.156 1.047-1.156 0.531 0 0.922 0.422t0.391 0.969zM30.531 12.375q0 0.641-0.648 1.625t-1.273 0.984q-1.203 0-1.25-2.531-0.078-2.688 1.578-4.516 0.344 0.328 0.344 0.422 0-0.094-0.516 1.203-0.297 0.766-0.297 1.781 0 1.297 0.688 1.297 0.172 0 0.602-0.32t0.586-0.367q0.188 0.203 0.188 0.422zM39.391 20.516q0 0.844-0.906 1.875-0.781 0.891-1.672 1.328-0.172-0.016-0.172-0.344 0-0.297 1.375-1.688 0-0.5-0.656-0.5-0.172 0.078-0.172-0.25 0-0.359 0.523-0.867t0.867-0.508q0.813 0 0.813 0.953zM21.969 22.813q0 0.375-0.477 0.984t-0.852 0.609q-0.391 0-0.922-0.523t-0.531-0.93q0-0.234 0.375-0.859 0.438-0.734 0.813-0.734 0.391 0 0.992 0.531t0.602 0.922zM14.344 23.594q0 0.406-0.328 0.641-1.969 0.422-2.953 0.422h-2.234q0.359-0.313 1.031-1.063 0.031-0.359 0.078-1.078 0.125-0.422 0.938-1t1.25-0.578q0.375 0 0.813 0.344t0.438 0.688q0 0.281-0.383 0.523t-0.648 0.242q-0.563 0-0.484-0.047 0.406 0.344 1.172 0.547 0.969 0.219 1.313 0.359zM14.875 25.953q0 0.594-0.578 0.766-1.484 0.438-3.078 0.438h-1.141l-1.672-0.016v-0.891q0.781-0.484 2.563-0.422 0.219-0.094 0.828-0.172h2.781z"></path>
</svg>
