<!-- Generated by IcoMoon.io -->
<svg version="1.1" xmlns="http://www.w3.org/2000/svg" width="81" height="32" viewBox="0 0 81 32">
<title>surah79</title>
<path d="M80.781 16.516q-0.016 0.469-0.016 3.078-0.031 0.063-0.391 1.625-0.297 1.156-0.891 1.469-0.047-3.469-0.891-10.313-0.953-7.609-1.188-11.344-0.016-0.172-0.188-0.594t-0.172-0.594q0-0.484 1.031-2.219 0.891 1.109 1.531 2.547 0.766 1.672 0.766 2.359v0.469q-0.156 0.078-0.359 0.078-0.313 0-0.828-0.188-0.078 0.078-0.078 0.625zM69.406-1.156q0 0.703-7.719 3.766 0-0.031-0.078-0.18t-0.078-0.289q0-0.688 3.281-2.203 1.422-0.641 4.25-1.891 0.234 0.156 0.344 0.156v0.641zM67.891 6.344q0 1.375-0.719 1.891-0.594 0.078-1.641 0.375-1.453 0.672-1.359 0.672-1.25 0-1.25-1.953 0-1.188 0.609-1.828 0.203 0.203 0.258 0.93t0.602 1.164q0.672-0.266 0.672-0.734 0-0.125-0.055-0.383t-0.055-0.383q0-0.469 0.344-0.828h0.516q0.109 0.859 0.125 1 0.172 0.641 0.547 0.797 0.219-0.25 0.266-1.234 0.063-0.859 0.547-1.141 0.594 0.75 0.594 1.656zM74.406 17.078q0 0.688-0.047 1.25-0.188 1.906-1.375 2.516-1.953 1.016-2.813 1.016-2.156 0-3.188-2.219-0.641 0.688-2.172 1.891-0.984 0.594-1.953 0.594-0.141 0-0.273 0.070t-0.289 0.070q-2.438 0-3.344-2.922-0.344-1.109-0.672-4.609l-0.734-8.594q-0.094-1.344-0.484-3.984l-0.375-2.578q0-0.469 0.609-1.672 0.641 0.391 1.219 3.391 0.297 1.5 0.703 6.641 0.109 1.656 0.297 4.984 0.203 2.797 0.938 5.516 0.422 1.469 2.531 1.469 1.484 0 2.688-1.297 0.859-1.219 1.719-2.422 0.344 0.25 0.5 0.891 0.219 0.828 0.594 1.5 0.172 0.297 1.172 0.891 0.125 0.047 0.516 0.047 0.844 0 1.75-0.375 1.094-0.422 1.234-1.078l-2.344-18.234q0.25-0.672 0.891-2.078 1.578 1.844 2.406 5.094l-0.148 0.086t-0.32 0.086q-0.266 0-0.656-0.391-0.094 0.156-0.094 1.031zM68.328 11.828q0 0.344-0.539 0.961t-0.789 0.617q-0.297 0-1.844-1.109-0.031-0.313 0.375-1.047 0.438-0.875 0.859-0.875 0.297 0 1.117 0.578t0.82 0.875zM53.484 1.031q0 0.313-0.5 1.016t-0.797 0.703q-1.031 0-1.031-1.672 0-0.844 1-2.609 0.516 0 0.516 0.266 0 0.156-0.281 0.656t-0.281 0.656q0 0.391 0.516 0.906 0.156 0 0.688-0.266 0.172 0.016 0.172 0.344zM76.75 22.203q0 0.438-1.078 2.109-0.375 0.563-1.875 1.391h-0.609q0.094-0.313 1.141-1.32t1.188-1.477q-0.047-0.047-0.25-0.172-0.094-0.047-0.219-0.047-0.188 0-0.438 0.125-0.203-0.031-0.203-0.328 0-0.313 0.492-0.82t0.82-0.508q0.266 0 0.648 0.398t0.383 0.648zM52.109 5.5q0 0.297-0.516 0.93t-0.781 0.633q-0.281 0-1.016-0.516t-0.734-0.75q0-0.344 0.516-1.070t0.813-0.727q0.438 0 1.078 0.555t0.641 0.945zM49.766-1.688q0 0.766-0.859 1.219-1.547 0.781-5.531 2.781-0.938 0.438-3.328 1.641-0.469 0.219-1.078 0.844-0.047 0.125-0.031 1.109 0.031 0.828-0.438 1-1.031-0.484-1.031-1.516 0-1.734 3.25-3.422 1.156-0.516 3.391-1.609 1.875-0.953 5.016-2.453h0.453q0.188 0.188 0.188 0.406zM49.063 14.438q0 1.578-2.516 3.453-3.297 2.453-6.063 2.453-2.531 0-3.781-2.203-0.969-1.672-1.188-4.453-0.047-1.234-0.188-3.656-0.172-1.766-0.422-5.266-0.031-0.734-0.281-2.359-0.219-1.531-0.219-2.359 0-1.094 0.922-2 0.578 1.375 0.813 3.688 0.141 1.281 0.359 3.844 0.109 2.047 0.297 6.109 0.172 3.328 1.672 5.047 0.25-0.391 0.125-0.938-0.172-0.859-0.172-0.984 0-0.438 0.5-2.047 0.109-0.641 0.813-1.688 1.719-1.406 3.313-1.406 2.344 0 3.406 1.891-0.297 0.078-0.969 0l-0.859-0.078q-1.078 0-2.656 0.469-2.047 0.641-2.047 1.609 0 1.125 1.016 2.531 1.078 1.469 2.188 1.469 1.234 0 2.75-1.203l3.016-2.391q0.172 0.203 0.172 0.469zM58.75 22.766q-0.266 0.391-0.828 0.984-0.391 0.266-1.031 0.563-3.797 1.688-4.016 1.688h-0.563l-0.172-0.172v-0.641q1.563-1.125 6.297-2.766zM55.156 15.922q0 2.797-1.172 3.984-0.328 0.422-1.063 1.078-6.766 4.063-10.703 4.234-1.156 0.391-3.594 1.063l-0.625-0.172q0-0.406 0.328-0.594 3.766-1.344 8.172-3.344 7.703-3.5 7.703-5.094 0-0.172-0.797-1.594-0.875-1.703-1.094-2.25-0.469-1.125-0.469-2.047 0-0.141 0.438-1.5h0.438q0.297 0 2.172 2.266-0.094 0.219-0.844 0.594 0 0.078 0.625 1.313 0.484 0.984 0.484 2.063zM30.375 1.297q-0.297 0.547-0.563 1.109-0.406 0.609-0.938 0.609-0.984 0-0.984-1.563 0-0.703 0.516-1.875 0.609-1.375 1.156-1.203-0.688 1.688-0.688 2.234t0.359 0.906q0.078-0.063 0.797-0.438 0.125 0.047 0.344 0.219zM31.781 9.047q-0.469 2-1.75 2-1.031 0-1.031-1.922 0-1.016 1.156-2.984 0.359-0.188 0.484-0.188-0.047 0.422-0.313 1.422-0.219 0.891-0.219 1.063 0 0.766 0.484 0.953 0.172-0.063 0.672-0.531 0.313 0 0.516 0.188zM22.625 0.188q0 0.625-0.547 0.625-0.203 0-0.906-0.703-0.297 0.328-0.641 1.875t-0.891 2.016q-0.344-0.922-1.328-2.656-0.125-0.172-1.078-0.563-0.688-0.297-0.688-1.016 0-1.172 0.75-1.172 0.453 0 1.406 1.156 0.516 0.609 1.094 1.328 0.172-0.156 0.609-1.625 0.391-1.25 0.906-1.25 0.297 0 0.805 0.836t0.508 1.148zM26.234 10.953q0 0.344-0.359 1.047-0.422 0.875-0.969 0.875-0.125 0-0.938-0.5t-0.984-0.5q-0.188 0-0.703 0.555t-0.688 0.555q-0.297 0-1.148-0.563t-0.852-0.813 0.492-0.961 0.695-0.711q0.172 0 0.992 0.422t0.992 0.422q0.422 0 0.75-0.555t0.656-0.555q0.422 0 2.063 1.281zM35.516 21.391q0 0.859-1.25 2.156-1.141 1.203-2.047 1.594 0.469-1.172 2.188-2.797-0.172-0.484-0.406-0.484-0.156 0-0.414 0.055t-0.398 0.055v-0.578q0-0.297 0.492-0.672t0.773-0.375q1.063 0 1.063 1.047zM32.891 16.469q0 0.953-0.547 1.969-0.344 0.609-1.063 1.859-0.438 0.859-2.75 3.5-0.109-0.031-0.375-0.203 1.531-2.797 2.875-4.891 0.328-0.516 0.328-0.938 0-0.609-0.984-0.609l-4.656 1.859q-4.656 1.875-7.375 1.875-2.563 0-4.234-1.078-2-1.266-2-3.703 0-1.078 1.016-3.484l0.359-0.859q0-0.234-0.32-0.836t-0.367-0.773q-0.141-0.563-0.141-1.328 0-1.25 1.547-4.672h0.516v0.609q0.031 0.156-0.203 0.422-0.266 0.344-0.313 0.438-0.438 1.063-0.438 2.094 0 1.922 1.172 2.359 0.328-0.281 0.672-0.953h0.516v0.641q0 0.5-0.891 1.828-0.375 0.266-1.031 0.953-0.719 1.141-0.719 2.391 0 1.969 2.125 2.969 1.594 0.766 3.422 0.766 1.766 0 4.703-0.953 2.156-0.719 4.578-1.828 2.141-0.953 1.938-0.953 0.203 0 0.18 0.125t0.023 0.141q0.188-0.391 0.641-0.391 0.703 0 1.25 0.477t0.547 1.18zM26.516 21.016q0 0.734-0.75 1.078-8.391 3.766-8.609 3.766h-0.734q0-0.094-0.078-0.383t-0.078-0.414q0.453-0.422 4.875-2.281 1.406-0.578 5.031-2.156 0.313 0.313 0.344 0.391z"></path>
</svg>
