<!-- Generated by IcoMoon.io -->
<svg version="1.1" xmlns="http://www.w3.org/2000/svg" width="85" height="32" viewBox="0 0 85 32">
<title>surah8</title>
<path d="M84.516 6.719h-0.672l-0.219-0.281q-0.313 0.547-0.219 1.609l0.547 7.453v3.219q0 0.109 0.070 0.289t0.070 0.336q0 0.813-0.344 2.344-0.438 1.844-1.031 2.484 0-0.719-0.141-3.938l-0.703-10.672v-3.703q0-0.359-0.133-1.031t-0.133-1q0 0.078 0.859-2.063h0.5q1.547 3.453 1.547 3.922v1.031zM63.609-4.828q0 0.469-2.25 1.766-0.625 0.375-2.25 1.328h-0.609q0.125-0.813 1.891-2.016 1.281-0.781 2.563-1.578h0.484q0.172 0.203 0.172 0.5zM64.578 0.313q-0.25 0.25-1.43 0.703t-1.555 0.453q-0.234 0-0.844-0.688t-0.609-0.906q0-0.344 0.953-1.32t1.344-0.977q0.891 0 0.891 0.844 0 0.984-0.672 0.984-0.813 0-0.719-0.078 0.344 0.344 0.922 0.344 1.594 0 1.719 0.031v0.609zM78.563 6.422q-0.156 0.063-0.328 0.063-0.297 0-0.688-0.172-0.094 0.281-0.094 1.234l0.688 7.703q0 0.297-0.594 3.75-0.484 2.828-3.734 4.844-0.281 0.203-2.516 0.859-2.359 0.688-2.922 0.688h-1.141q0.172-0.438 0.844-0.734 1-0.297 1.797-0.656 1.594-0.75 2.922-1.484 2.172-1.25 2.172-2.516 0-1.734-2.125-4.719-0.094-0.125-3.828-4.141-3.359-3.609-4.266-5.406-0.391-0.813-1.188-1.922-0.359-0.547-0.359-1.234 0-1.406 0.688-1.406 0.781 0 3.594 2.828v0.5q-0.125 0-0.594 0.094-0.375 0.078-0.375 0.281 0 0.734 2.219 3.125 1.234 1.281 3.641 3.875 2.484 2.797 3.078 4.734 0.125 0.391 0.453 2.875 0.875-0.313 0.703-2.438l-0.953-13.281q-0.047-0.719 0.734-2h0.469q1.703 2.734 1.703 3.625v1.031zM80.078 22.594q0 0.656-0.773 1.602t-1.43 1.039q0.094-0.313 1.109-1.563v-0.391q-0.203-0.25-0.672-0.25v-0.484q0.844-0.859 1.078-0.859 0.469 0 0.688 0.906zM59.453 5.703q0 0.891-1.172 0.891-1.047 0-1.047-0.984 0-1.438 1.313-2.766l0.344 0.328q-0.547 1.672-0.547 1.547 0 0.609 0.422 0.609 0.125 0 0.359-0.047t0.328-0.047v0.469zM64.422 10.266q0 0.234-0.602 0.914t-0.836 0.68q-0.375 0-1.016-0.438-0.719-0.5-0.719-0.813 0-0.547 0.57-1.039t1.102-0.492q0.422 0 0.961 0.391t0.539 0.797zM55.719 8.109q0 0.328-0.43 0.93t-0.758 0.602q-0.297 0-0.938-0.516t-0.641-0.781q0-0.281 0.375-0.891 0.438-0.734 0.859-0.734 0.391 0 0.961 0.5t0.57 0.891zM56.672 0.219q-1.844 1.063-5.172 2.453-0.406 0.125-1.25 0.422-0.984 0.375-1.297 0.844-0.844 1.25-0.844 2.234 0 0.469 0.375 0.844 0.313-0.281 0.953-0.703 0.203 0.031 0.203 0.359 0 0.438-0.492 1.148t-0.898 0.711q-0.516 0-0.828-0.688-0.266-0.563-0.266-1.125 0-0.594 0.531-2-0.094-0.078-0.344-0.078-0.781 0-4.188 1.828-3.641 1.938-3.641 2.906 0 0.125 0.273 0.602t0.273 0.633q0 0.141-0.078 0.352t-0.078 0.336q-0.016 0-0.188 0.070t-0.328 0.070q-0.438 0-0.734-0.734-0.25-0.547-0.25-0.859 0-1.922 2.828-3.641 1.266-0.625 3.719-1.859 2.031-1.047 10.953-4.938h0.594l0.172 0.141v0.672zM43.672 0.781q0 0.375-0.313 0.688h-0.422q0.125 0-0.719-0.422-0.484 0.594-0.578 1.734-0.125 1.563-0.203 1.859-0.016 0-0.156 0.078t-0.313 0.078q-0.141 0-0.766-0.969-0.688-1.078-1.078-1.344-0.469-0.172-1.406-0.625-0.094-1.641 0.766-1.641 0.609 0 1.375 0.859 0.938 1 1.094 1.078 0.141-0.484 0.469-1.5 0.438-1.25 1-1.25 0.375 0 0.813 0.5t0.438 0.875zM66.938 19.047q0 1.016-0.891 2.734-0.094 0.172-1.094 0.641-1.703 0.781-3.281 0.781-1.875 0-3.156-1.172l-1.281-1.188q0.109 0-0.922 0.547-1.359 0.703-4.234 1.5-5.125 1.422-8.75 1.422-7.203 0-8.344-4.484-0.391-1.516-1.047-8.609-0.156-1.766-0.703-6.625-0.047-0.469-0.516-1.813-0.406-1.266-0.406-1.656 0-0.547 0.609-1.719 0.984 0.266 1.547 3.484 0.422 2.344 0.75 6.625 0.438 5.813 0.609 7.234 0.25 0.547 0.594 1.531 0.266 1.422 1.547 2.406 0.656 0.531 2.359 1 1.609 0.406 2.594 0.406h1.797q0.531 0 1.742-0.234t1.82-0.203q0.141-0.047 0.422-0.203 2.141-0.297 4.406-1 2.563-0.844 3.25-1.625-0.375-1.75-0.375-2.891 0-2.797 2-4.078h0.422q1.078 0 1.813 1.891 0.609 1.547 0.609 2.813 0 0.516-0.453 1.344-0.109 0.156-0.719 0.922-0.469 0.609-0.469 0.781 0 1.375 3.172 1.375 0.672 0 1.852-0.438t1.617-0.891q0-0.563-0.836-1.977t-0.836-1.961q0-0.188 0.078-0.563t0.086-0.531 0.336-0.156q0.859 0 1.641 2.266 0.641 1.75 0.641 2.313zM48.25 16.484q0 0.688-0.563 1.578-0.609 0.984-1.25 0.984-0.734 0-1.188-1.156-0.313-0.891-0.313-1.797 0-1.922 1.75-4.094 0 0.547-0.258 1.664t-0.258 1.586q0 1.578 0.688 1.578 0.172 0 0.602-0.383t0.57-0.43q0.219 0.172 0.219 0.469zM56.672 23.078q0.047 0.25 0.047 0.469 0 1.766-1.891 3.094l-0.641-0.172q0.391-0.781 1.531-1.828 0-0.547-0.555-0.547t-0.555-0.328q0-0.344 0.453-0.719t0.797-0.375q0.375 0 0.813 0.406zM42.125 16.781q0 0.391-0.641 0.922t-0.781 0.531q-1.031 0-1.031-1.484 0-0.469 0.359-1.266 0.453-1.016 0.984-1.109 0 0.297-0.195 0.898t-0.195 0.82q0 0.375 0.5 0.594 0.781-0.375 1-0.375v0.469zM23.328 1.469q0 0.688-0.547 0.688-0.203 0-0.398-0.133l-0.195-0.133q-0.641 0.516-0.766 1.984-0.141 1.625-0.484 2.156h-0.5q-0.391-0.938-1.422-2.5-0.172-0.172-1.188-0.516-0.734-0.266-0.734-0.938 0-0.313 0.273-0.742t0.57-0.43q0.703 0 2.578 2.359 0.125 0 0.266-0.219 0.047-0.891 0.375-1.75 0.422-1.234 1.063-1.234 0.656 0 1.109 1.406zM29.703 17.172l-0.203 1.844q-0.172 1.156-0.563 1.656-1.578 2.016-4.93 3.727t-5.883 1.711q-1.109 0-2.516-0.547-1.563-0.609-2.063-1.422-1.031-1.656-1.031-3.375 0-0.984 0.555-2.617t0.555-1.93q0 0.219-0.375-0.938-0.297-1.016-0.297-1.781 0-1.547 0.766-3.781 0.813-2.438 1.844-3.281 0.281 0.203 0.281 0.5 0 0.125-0.547 1.258t-0.672 1.539q-0.438 1.516-0.438 2.594 0 1.75 0.906 1.75 0.375 0 1.188-1.391h0.516v0.5q0 0.609-1.156 2.516-0.375 0.234-1.016 0.828-0.859 1.109-0.859 3.281 0 1.969 1.781 3.078 1.406 0.875 3.078 0.875 2.188 0 5.578-1.625 3.766-1.766 4.234-3.594l-2.328-17.375q0.172-1.406 0.734-2.063 0.984 1.453 2.281 4.078l-0.172 0.766q-0.266-0.125-0.828-0.422-0.156 0.25-0.109 0.766zM22.906 9q0 0.797-1.094 0.938-1.438 0.203-1.547 0.297-0.391 0.563-0.422 0.641 0 0.203 0.281 0.641 0.344 0.547 0.359 0.656 1.047 2.672 1.047 5.625 0 1.766-0.891 3.891l-0.219-0.203q0-0.438 0.063-1.625 0.063-1.031 0-1.703-0.094-2.313-0.391-3.594-0.078-0.344-0.656-1.672-0.547-1.203-0.547-1.375 0-0.734 0.781-2.219-0.094-0.141-0.094-0.516 0-2.063 1.188-2.063 0.594 0 1.367 0.844t0.773 1.438zM33.703 23.063q0 0.594-0.781 1.078-1.703 1.047-4.797 2.922h-0.469q-0.172-0.172-0.172-0.422 0-0.688 1.984-1.844 0.172-0.109 2.203-1.203 0.656-0.469 1.844-1.078 0.188 0.203 0.188 0.547zM59.734 16.641q0-0.406-0.594-1.281-0.672-1.016-1.281-1.016-0.891 0-0.891 1.109 0.594 2.484 1.25 2.484 0.234 0 0.875-0.516t0.641-0.781z"></path>
</svg>
