<!-- Generated by IcoMoon.io -->
<svg version="1.1" xmlns="http://www.w3.org/2000/svg" width="55" height="32" viewBox="0 0 55 32">
<title>surah80</title>
<path d="M53.938 0.734q0 0.656-3.391 2.234-4.719 2.172-5.906 2.938h-0.766q0.125-0.406 0.297-0.922 0.781-0.641 6.766-3.656l2.141-1.094h0.719q0.141 0.172 0.141 0.5zM46.344 0.188q0 0.734-0.75 1.109-3.094 1.578-8.703 4.031-2.141 0.938-7.313 3.594 0 0.109 0.219 0.414t0.219 0.461q0 0.141-0.070 0.414t-0.070 0.398q-0.031 0-0.18 0.070t-0.32 0.070q-0.391 0-1.031-0.563-0.031-1.141 0.328-1.719 0.75-1.313 4.578-2.859 0.578-0.25 3.313-1.5l9.141-4.281h0.484q0.156 0.016 0.156 0.359zM50.922 21.359q0 2.047-4.094 4.219l-0.344-0.359q0.547-0.531 3.047-2.656v-0.766q-0.109-0.063-0.344-0.063-0.266 0-0.703 0.094-0.203 0-0.203-0.344t0.617-0.883 0.992-0.539q0.266 0 0.648 0.516t0.383 0.781zM38.016-0.078q-0.859 0.938-1.938 1.375-14.109 5.906-20.234 9.313h-0.5q0-0.031-0.070-0.133t-0.070-0.273q0-1.031 1.172-1.813 0.453-0.328 1.914-0.969t5.258-2.359q0.688-0.391 2.484-1.297 10.391-4.75 11.391-4.75h0.594v0.906zM42.75 23.078q0 0.281-0.461 0.844t-0.727 0.563q-0.313 0-1.094-0.664t-0.781-0.961q0-0.516 0.398-1.047t0.867-0.531q0.484 0 1.172 0.859 0.625 0.766 0.625 0.938zM54.234 13.875q0 1.359-3 3.125-1.938 1.141-3.031 1.5-1.328 0.453-3.313 0.453-1.094 0-1.5-0.172-0.891-0.375-2.375-1.781-0.063 0.031-0.688 0.938-0.781 1.141-2.359 1.141-0.656 0-1.547-0.547t-1.234-1.141q-0.203 0.156-1.5 1.438-0.672 0.656-1.594 0.656t-1.406-0.609q-0.375-0.594-0.766-1.188-0.422 0.297-1.328 0.797-1.266 0.469-2.125 0.469-0.125 0-0.367-0.078t-0.367-0.078q-0.484 0-0.656 0.375-0.078 0.516-0.234 1.375-0.516 1.25-1.547 2.219-1.328 1.172-4.141 2.297-0.313 0.172-1.516 0.594-2.016 0.469-3.75 0.469-4.234 0-5.438-3.359-0.047-0.094-0.047-1.672 0-0.969 1.078-4.344 0.031-0.141-0.141-0.734t-0.203-0.766q-0.219-3.688 1.609-7.234 1.031-1.984 1.625-2.094 0.188 0.172 0.188 0.469 0 0.5-0.484 1.281-1.578 2.609-1.578 4.953 0 1.891 0.766 1.891 0.219 0 1.297-1.25 0.281 0.188 0.281 0.609 0 0.766-0.406 1.656-0.406 0.953-1.031 1.281-0.359 0.109-0.891 0.438-0.859 1.297-0.859 2.922 0 1.859 1.656 2.891 1.375 0.859 3.344 0.859 1.891 0 5.297-1.313 3.844-1.469 3.844-2.922 0-0.609-1.266-4.359 0-0.891 0.922-1.797 0.531 1.063 1.172 2.094 0.422 0.641 1.453 0.906 0.156 0.047 0.891 0.047 2.094 0 3.781-2.203h0.469l0.063 1.453q0.172 1.297 1.156 1.297 0.922 0 1.813-1.203l1.5-1.969q0.125 0.172 0.297 0.469-0.094 1.031 0.766 1.688 0.781 0.625 1.844 0.625 1.609 0 1.609-2.016 0-0.594-0.289-1.805t-0.289-1.789q0-0.234 0.164-0.836t0.164-0.867q0.172-0.25 0.469-0.594 0.594 0.984 1.125 4.094 0.453 2.313 1.922 3.25 0.328 0 0.328-0.156 0-0.141-0.273-0.734t-0.273-0.766q0-1.703 1.156-3.516 1.406-2.172 3.344-2.172 2.438 0 4.219 1.703v0.484q-0.406 0.078-1.438-0.141-1.125-0.25-1.75-0.25-1.391 0-4.031 1.75-0.078 1.188 0.859 2.578 0.984 1.484 2.141 1.484 1.141 0 3.453-1.281 0.344-0.203 2.781-1.625 0.188 0.031 0.188 0.344zM19.484 1q0 0.766-0.688 0.766-0.344 0-0.891-0.547-0.719 0.766-0.734 2.297 0 1.359-0.938 1.984-0.563-0.984-1.969-2.875-0.203 0-0.547-0.078-0.094-0.016-1.125-0.656 0-1.656 0.953-1.656 0.969 0 2.688 2.484 0.375-0.344 0.813-1.938 0.391-1.375 0.859-1.375 0.266 0 0.922 0.664t0.656 0.93zM35.266 21.781q0 0.813-0.859 1.25-1.75 0.891-2.547 0.891-0.141 0-0.484-0.133t-0.547-0.133q-0.188 0-1.93 1.297t-2.727 1.297h-1.125q0.203-0.469 1.469-1.156l1.734-0.922q0.469-0.406 1.414-1.156t1.383-0.75q0.156 0 0.484 0.063t0.484 0.063q0.516 0 0.945-0.344t0.648-0.344q0.125 0 0.234 0.063t0.234 0.063q0.328 0 0.672-0.672h0.516v0.625zM18.516 17.469q0 0.469-0.539 1.172t-0.977 0.703q-0.563 0-0.938-0.641-0.297-0.547-0.297-1.156 0-0.719 0.781-2.344 0.813-1.719 1.406-1.797v0.5q-1.078 2.656-1.078 2.953 0 0.469 0.344 0.828 0.266-0.141 1.109-0.688 0.188 0.203 0.188 0.469z"></path>
</svg>
