<!-- Generated by IcoMoon.io -->
<svg version="1.1" xmlns="http://www.w3.org/2000/svg" width="84" height="32" viewBox="0 0 84 32">
<title>surah82</title>
<path d="M83.219 4.125q0 0.5-0.5 0.5-0.172 0-0.469-0.297-0.375-0.344-0.469-0.391-0.188 0.188-0.188 0.734l1.469 14.25q0 0.984-0.344 2.688-0.391 1.969-0.906 2.219-0.109-0.422-0.156-2.781-0.016-1.141-1-10.641-0.844-8.328-0.844-9.203 0-1.438 0.891-2.172 0.438 0.625 1.406 2.516 1.109 2.141 1.109 2.578zM70.094 2.922q0 0.297-0.492 0.789t-0.789 0.492q-0.391 0-0.773-0.508t-0.383-0.914q0-0.891 0.594-2.5 0.219-0.563 0.953-0.984-0.016 0.328-0.305 1.141t-0.289 1.109q0 0.781 0.5 1.297 0.375-0.188 0.984-0.531v0.609zM76.391 4.297q-0.016 0.172-0.344 0.172 0.203 0-0.906-0.563l1.125 11q0 2.219-1.172 4.859-1.234 2.781-2.953 3.953-1.859 1.297-3.453 1.516-0.266 0.078-0.938 0.281-0.734 0.25-2.609 0.906l-0.609-0.172 0.188-0.438q1.625-0.672 4.469-2.141 1.625-1.078 2.141-1.5 1.281-1.031 2.203-2.391-0.234-0.172-0.516-0.656-0.359-2.844-4.234-6.797-0.781-0.891-2.922-3.109-3.469-3.391-4.922-6.422-0.906-0.688-0.906-1.922 0-1.031 0.484-1.031 0.516 0 2.016 1.281 1.156 0.984 1.703 1.625v0.469l-0.516 0.125q-0.266 0.047-0.266 0.25 0 0.516 1.906 2.531 1.484 1.5 4.398 4.531t3.711 5.313q0.188 1.078 0.563 2.953 0.984-1.125 0.984-2.172l-1.891-15.625q0-0.891 0.703-2.094 0.375 0.172 1.469 2.203t1.094 2.469v0.594zM78.703 22.078q0 0.984-0.844 2.086t-1.813 1.414q-0.094-0.016-0.344-0.188 0.328-0.391 1.875-2.063l0.172-0.484-0.219-0.25q-0.125 0.078-0.469 0.305t-0.5 0.227q-0.172-0.016-0.172-0.313 0-0.469 0.531-1.086t0.969-0.617q0.813 0 0.813 0.969zM55.516 2.109q0 0.422-0.523 1.047t-0.945 0.625q-0.813 0-0.813-1.625 0-0.781 0.141-1.078 0.453-0.688 0.891-1.375-0.219 0.938-0.219 1.688 0 0.5 0.219 0.891h0.375q0.406-0.438 0.875-0.656v0.484zM62.359 9.859q0 0.375-0.359 0.938-0.422 0.641-0.75 0.641-0.391 0-0.945-0.625t-0.555-1.016q0-0.203 0.719-1.625h0.609q0.172 0.141 0.938 0.906 0.344 0.313 0.344 0.781zM69.547 19q0 0.297-0.563 0.859t-0.844 0.563q-1.031 0-1.031-1.703 0-1.891 1.578-3.344l0.344 0.344q-0.953 1.578-0.953 2.047 0 0.719 0.609 1.156l0.391-0.391h0.469v0.469zM54.859 7.359q-0.078 2.016-1.109 2.016-0.453 0-1.039-0.531t-0.586-0.953q0-0.406 0.328-0.953t0.703-0.547q0.344 0 1.703 0.969zM50.891 4.578q-4.156 2.203-7.156 3.438l-0.172-0.172v-0.609q1.391-0.969 3.688-1.969 0.297-0.125 1.625-0.844 1.125-0.641 1.297-0.609h0.719v0.766zM34.813 2.891q-0.063 0.281-0.438 1.453-0.313-0.219-0.344-0.906-0.031-0.859-0.078-1.063-0.141-0.391-0.703-1.375-0.469-0.828-0.469-1 0-0.375 0.469-0.844 0.578 0.219 1.094 1.703 0.469 1.281 0.469 2.031zM57.594 23.5q0 0.469-0.875 0.844-5.156 2.203-5.906 2.203h-0.828l-0.078-0.078q-0.094-0.078-0.094-0.344 0-0.719 1.125-1.031 0.844-0.219 3.625-1.25 2.234-0.813 2.438-0.813h0.594v0.469zM65.078 17.891q0 1.359-0.891 2.625-0.422 0.625-1.609 1.047-1.375 0.516-1.938 0.516h-1.016q-0.781 0-1.594-0.328-0.469-0.188-1.453-1-0.891-0.75-1.063-0.75-0.063 0-1.594 0.719-1.703 0.781-2.656 1.031-3.234 0.859-6.703 1.203-6.859 0.75-8.391 0.75-4.484 0-6.375-1.703-1.359-1.188-1.703-3.547-0.047-0.375-0.438-0.766-1.484 0.938-3.172 2.719-0.859 1-2.633 2.953t-3.258 1.953q-1.406 0-2.609-1.102t-1.203-2.508q0-0.375 0.5-1.922 0.266-0.984 0.625-1.922 0-0.016 0.844-1.203 0.5-0.688 0.5-0.859 0-0.5-0.352-1.516t-0.352-1.516q0-1.75 0.875-4.133t2.031-3.617q0.5 0 0.5 0.344 0 0.094-1.008 2.547t-1.008 3.391q0 2.438 0.938 2.438 0.484 0 1.125-1.609h0.484q0 0.031 0.078 0.242t0.078 0.352q0 0.609-0.469 1.711t-0.906 1.445q-0.625 0.234-1.609 1.109-1.641 2.922-1.641 4.797 0 2.063 1.547 2.063 0.953 0 2.828-1.547 0.172-0.156 2.891-3.344 1.125-1.328 2.547-2.484l1.734-1.344q0.172-0.172 0.172-1.031 0-2.844-0.859-10.234-0.063-0.328-0.297-1.547-0.234-1.031-0.234-1.438 0-0.563 0.594-1.688 0.641-0.063 1.016 2.063 0.594 3.422 0.906 8.203 0.094 1.219 0.344 4.578 0.563 0 1.711-0.211t1.633-0.211q3.234 0 3.234 2.266 0 1.281-0.625 1.281-0.109 0-0.633-0.492t-0.742-0.57q-0.594-0.172-1.281-0.172-1.5 0-3 0.906 0.25 4.563 7.281 4.563 1.688 0 2.031-0.172 1.031-0.5 1.641-2.078 0.5-1.281 0.5-2.391l-1.906-15.938q0-0.25 0.719-2.047h0.469q1.703 2.063 2.359 4.547-0.172 0.109-0.469 0.344-0.266-0.172-1.078-0.953l1.359 14.047 1.859-1.563q1.844-1.578 3.281-1.578 0.594 0 1.711 0.648t1.461 1.148q0.172 0.266 0.172 1.063 0 2.422-1.891 3.766 0.047 0.063 0.313 0.063 1.016 0 2.828-0.828 1.703-0.766 2.266-1.313-0.188-1.453-0.344-3.547-0.016-0.484 0.578-1.844 0.781-1.75 1.766-1.75 1.031 0 1.844 1.609 0.688 1.328 0.688 2.219 0 0.734-0.047 0.875-0.172 0.5-0.781 1.625-0.516 1.016-0.516 1.188 0 0.547 1.125 0.906 0.906 0.297 1.656 0.297 0.734 0 1.797-0.266 1.25-0.344 1.547-0.766 0.047-0.172 0.047-0.328 0-0.641-0.836-1.82t-0.836-1.57q0-0.641 0.563-1.5 0.891 0.094 1.703 1.813 0.719 1.563 0.719 2.594zM37.547 7.25q0-0.141-0.297 0.75-0.406 0-0.766-0.063l-0.344-0.063q-0.219 0.359-0.516 1.688-0.234 1.188-0.734 1.734-0.438-1.031-1.813-2.813-0.203-0.047-0.531-0.094-0.578-0.344-0.578-0.859 0-0.281 0.242-0.648t0.492-0.367q0.563 0 1.297 0.688 0.672 0.625 0.922 1.203 0.219-0.125 0.688-1.25 0.422-1.031 0.859-1.031 0.25 0 0.664 0.445t0.414 0.68zM24.719 9.734q0 0.328-0.453 0.805t-0.766 0.477q-0.938 0-0.938-1.422 0-2.563 1.516-3.734-0.703 2.844-0.703 2.781 0 0.141 0.359 0.875 0.156 0 0.5-0.117t0.484-0.117v0.453zM28.688 23.375q0 0.719-5.391 3.172-0.172-0.094-0.469-0.328-0.047-0.656 0.344-0.906 3.984-2.422 4.922-2.422h0.594v0.484zM57.734 15.656q0-0.453-0.578-1.188t-1-0.734q-0.875 0-0.875 0.953 0.453 2.313 1.078 2.313 0.422 0 0.898-0.469t0.477-0.875zM49.531 17.5q-0.188-0.516-1.164-0.977t-1.633-0.461q-2.266 0-5.516 4.578 0.266 0.125 0.484 0.156 3.828-0.984 4.344-1.156 2.703-0.922 3.484-2.141z"></path>
</svg>
