<!-- Generated by IcoMoon.io -->
<svg version="1.1" xmlns="http://www.w3.org/2000/svg" width="84" height="32" viewBox="0 0 84 32">
<title>surah83</title>
<path d="M83.453 17.891q0 3.641-1.031 4.5-0.547-0.391-0.516-1.469l0.078-1.781-0.391-3.766q-0.453-4.063-0.969-8.266-0.313-2.781-0.313-3.75 0-0.641-0.156-1.969l-0.141-1.422q0-0.563 0.563-2.063h0.5l2.234 4.75v0.734q-0.328 0.313-0.547 0.313-0.172 0-0.367-0.219t-0.227-0.219q-0.219 0.516-0.219 0.719zM70.281-1.281q-0.094 0.063-4.984 2.875-2.766 1.594-3.938 2.781 0 0.094 0.18 0.43t0.18 0.477v1.031q-0.047 0-0.18 0.078t-0.289 0.078q-0.359 0-0.766-0.508t-0.406-0.867q0-1.797 2.922-3.547 0.172-0.094 3.453-1.875 0.688-0.516 3.219-1.766l0.609 0.141v0.672zM70.578 5.922q0 0.688-0.688 0.688-0.141 0-0.203-0.070t-0.219-0.070q-0.141 0-0.656 0.563-0.609 0.688-0.891 0.906-0.531 0.469-2.797 1.703h-0.469v-0.484q0.141-0.156 2.219-1.656 1.25-0.906 1.641-1.641-0.953-1.047-0.953-1.609 0-0.344 0.531-1.203 0.641-1.016 1.156-1.016 0.844 0 0.938 1.391 0.031 0.266 0.031 1.594 0.016 0.125 0.188 0.422t0.172 0.484zM73.484 21.578q0.047 0.156 0.047 0.328 0 1.078-1.031 2.18t-2.141 1.352q-0.078-0.031-0.313-0.203 0.828-0.766 2.484-2.344-0.5-0.203-1.375-0.688 0.703-1.188 1.375-1.188 0.359 0 0.953 0.563zM51.609 0.813q0 1.938-1.578 1.938-0.156 0-0.422-0.070t-0.422-0.070q-0.141 0-0.742 0.344t-0.758 0.344q-1.328 0-1.328-3.063 0-0.484 0.469-0.953 0.563 0.391 0.563 0.891l0.031 0.984q0.094 0.344 0.422 0.641 0.813-0.25 0.813-1.109 0-0.203-0.039-0.594t-0.039-0.594q0-0.656 0.344-1.031 0.375 0.266 0.547 1.305t0.703 1.43q0.297-0.172 0.297-0.563 0-0.203-0.094-0.633t-0.094-0.648q0-0.516 0.406-0.891 0.422 0 0.703 1.016 0.219 0.75 0.219 1.328zM52.172 6.953q0 0.297-0.492 1.016t-0.742 0.719q-0.266 0-1.102-0.641t-0.836-0.859q0-0.25 0.477-0.969t0.695-0.859q2 1.375 2 1.594zM41.094 1.422q0 0.422-0.516 1.070t-0.938 0.648q-0.828 0-0.891-1.719-0.016-0.672 0.5-1.859t1.016-1.391v0.781q0 0.234-0.273 0.961t-0.273 0.961q0 0.406 0.359 0.766 0.328-0.25 0.844-0.563 0.172 0.016 0.172 0.344zM79.859 18.031q0 0.813-0.406 1.953-0.578 1.594-1.484 1.594h-0.672q-0.563 0-1.742-1.156t-1.32-1.766q-2.328 0.875-6.063 1.891-0.375 0.125-7.328 0.813-3.547 0.344-4.516 0.344-1.625 0-2.063-0.094-0.641-0.125-2.594-0.922-0.047 0-0.438-0.281-0.297-0.234-0.594-0.234-0.172 0-0.469 0.172t-0.406 0.203q-3.922 0.891-4.297 0.891-0.859 0-2.484-0.625l-1.625-0.641q-0.578 0-2.023 0.555t-2.055 0.555q-0.469 0-1.5-0.523t-1.281-0.93q-0.719-1.219-0.984-3.094-0.344-2.469-0.672-3.469-0.344 0.359-1.031 1.047-0.391 0.297-2.047 0.984-0.047 1.344-0.484 3.719-0.844 2.344-6.359 4.859-0.641 0.141-1.797 0.516-0.75 0.359-2.719 0.359-1.875 0-2.391-0.109-1.328-0.297-2.547-1.609-0.266-0.297-0.781-1.523t-0.516-1.602q0-1.875 1.25-5.344 0-0.25-0.281-1.156t-0.281-1.172q0-1.734 0.813-4.086t1.844-3.742q0.516 0 0.516 0.344 0 0.141-0.469 1.109-0.563 1.125-0.734 1.547-0.594 1.469-0.594 3.641 0 1.375 0.844 1.375 0.188 0 0.719-0.516 0.641-0.594 0.875-0.719 0.203 0.031 0.203 0.344 0 0.5-0.445 1.523t-0.805 1.383q-0.547 0.281-1.516 1.156-0.563 0.875-0.563 2.297 0 1.938 1.234 3.219t3.156 1.281h1.125q-0.563 0 2.438-0.484 0.891-0.281 2.219-0.641 0.609-0.172 2.406-1.359 2.359-1.531 2.359-2.563 0 0.172-0.219-0.953-0.063-0.375-0.641-1.719-0.516-1.281-0.516-1.406 0 0.125 0.453-1.656h0.484q0.813 0.844 1.141 0.969h0.641q1.391 0 2.031-1.156 0.469-1.063 0.938-2.172h0.516q0.641 0.641 0.938 2.688 0.031 0.875 0.219 2.484 0.578 2.266 0.969 2.953 0.813 1.422 2.563 1.422 1.422 0 2.141-0.766-0.422-0.781-0.422-1.797 0-0.953 1.156-3.094 1.281-2.359 2.313-2.359 0.766 0 1.484 1.641 0.578 1.438 0.578 2.219 0 1.078-1.109 3.688 0.125 0.078 0.375 0.297 0.984 0.297 1.922 0.297 0.391 0 1.359-0.25 1.047-0.297 1.156-0.516 0.016-0.094-0.203-1.453-0.203-1.281 1.188-3.484 1.453-2.328 2.656-2.328 0.875 0 1.469 1.688 0.469 1.297 0.469 1.984 0 1.266-1.25 3.75 0.766 0.766 1.938 0.766 1.391 0 2.25-1.484 0.656-1.125 0.656-2.109l-1.797-15.859q0-1.313 0.75-2.266 0.094 0 0.344 0.047 1.641 2.766 2.234 4.734-0.344 0.313-0.5 0.313-0.047-0.047-0.781-0.422l1.234 13.047q2.234-1.969 2.875-2.359 1.109-0.719 2.484-0.719 1.266 0 2.516 0.594 1.578 0.766 1.578 1.969 0 1.359-1.109 3.75 0.094 0.063 0.266 0.063t0.602-0.156 0.586-0.188q3.203-0.656 4.063-1.688 0.172-0.234 0.172-0.938-0.109-0.516-0.391-2.469-0.406-2.625-0.547-4.578l-0.719-8.734q0-0.422 0.719-1.844 0.344 0 0.469 0.141 2.141 3.984 2.109 4.156v0.891q-0.172 0.109-0.469 0.328-0.906-0.547-0.906-0.578 0 0.5 0.078 1.359 0.094 0.969 0.094 1.359 0.078 2.219 0.547 5.734 0.531 4.156 1 4.156 0.125 0 0.352-0.063t0.367-0.063q3.516 0 3.516 2.828zM42.625 6.734q0 0.297-0.508 0.922t-0.758 0.625q-0.359 0-1.148-0.688t-0.789-0.984q0-0.359 0.453-1t0.797-0.641q0.453 0 1.203 0.672t0.75 1.094zM54.656 23.484q-0.906 0.953-6.031 2.641-0.344-0.344-0.344-0.484 0-0.578 0.469-0.813 0.813-0.438 2.688-1.234 2.156-0.906 2.609-0.906 0.313 0 0.609 0.297v0.5zM23.25 0.656q0 0.375-0.328 0.688h-0.406q-0.172 0-0.383-0.211t-0.305-0.211q-0.5 0.406-0.594 1.531-0.109 1.313-0.516 1.922h-0.5q-0.719-1.703-1.672-2.703l-0.906-0.297q-0.766-0.25-0.766-0.766 0-1.063 0.984-1.063 0.766 0 1.406 0.844l1.031 1.406q0.266-0.156 0.688-1.563 0.344-1.25 0.938-1.25 0.344 0 0.836 0.664t0.492 1.008zM45.406 22.891q0 0.688-2.594 1.906-1.125 0.547-3.422 1.594h-0.641v-0.625q0.641-0.75 4.063-2.141 0.469-0.344 1.531-0.891 0.547-0.188 0.891-0.188 0.172 0.016 0.172 0.344zM28.641 4.516q0 0.641-1.484 1.344-0.531 0.188-1.594 0.656-0.172 0.078-3.203 1.578-0.344 0.047-0.938 0.219-0.938 0.547-2.828 1.484-0.188-0.156-0.313-0.156v-0.438q0-0.688 2.922-2.016 1.313-0.578 3.891-1.703 0.891-0.438 3.219-1.484 0.328 0.297 0.328 0.516zM35.016 25.172q0 0.359-0.492 1t-0.836 0.641q-0.125 0-0.922-0.555t-0.953-0.555q-0.125 0-0.703 0.555t-0.75 0.555q-0.25 0-0.984-0.578t-0.734-0.797q0-0.375 0.492-1.078t0.836-0.703q0.094 0 0.727 0.477t0.852 0.477q0.141 0 0.797-0.555t0.797-0.555q0.391 0 1.133 0.672t0.742 1zM23.094 16.922q0 0.297-0.492 1.016t-0.727 0.719q-0.453 0-1.125-0.641t-0.672-1.016q0-0.391 0.438-1.031t0.781-0.641q0.328 0 1.063 0.68t0.734 0.914zM78.344 18.922q0-0.094-0.078-0.258t-0.078-0.258q-0.609-0.391-1.625-0.391 0.125 0.266 0.641 0.664t0.797 0.398q0.313 0 0.344-0.156zM67.563 15.828q-1.391-1.344-3.063-1.344-1.547 0-3.469 1.625-1.578 1.313-2.625 2.969h1.297q0.203 0 0.469-0.109l0.25-0.125q1.453-0.172 5-1.328 0.703-0.234 2.141-1.688zM53.156 15.203q0-0.297-0.383-0.836t-0.648-0.539q-0.469 0-1.18 0.734t-0.711 1.188q0.438 1.406 0.984 1.406 0.313 0 1.047-0.594 0.891-0.688 0.891-1.359zM43.875 15.406q0-0.297-0.469-1.047t-0.734-0.828q-1.578 1.109-1.578 2.297 0 0.266 0.391 0.797t0.672 0.531q0.344 0 1.031-0.695t0.688-1.055z"></path>
</svg>
