<!-- Generated by IcoMoon.io -->
<svg version="1.1" xmlns="http://www.w3.org/2000/svg" width="82" height="32" viewBox="0 0 82 32">
<title>surah84</title>
<path d="M82.156 2.531q-0.313 0.313-0.547 0.313-0.219 0-0.344-0.141-0.219 0.219-0.219 0.484 0.125 3.203 0 3.359 0.156 1.766 0.594 6.047 0.375 3.719 0.375 4.922 0 3.531-1.391 5.547-0.109-0.109-0.313-0.344 0.313-1.578 0.313-3.453-0.109-1.766-0.469-5.828-0.313-3.594-0.688-8.984-0.016-0.938-0.125-3.328-0.016-0.25-0.188-0.727t-0.172-0.727q0 0.125 0.859-2.063 0.422 0 0.594 0.297 0.016 0.047 1.25 2.781 0.094 0.313 0.469 1.844zM69.281 1.5q-0.641 2.031-1.672 2.031-0.438 0-0.734-0.703-0.219-0.516-0.219-0.859 0-0.516 0.641-1.922 0.688-1.531 1.156-1.625v0.641q0 0.172-0.273 0.539t-0.273 0.508v1.391q0.219-0.031 0.594-0.031 0.344 0 0.781 0.031zM75.219 2.531q-0.156 0.172-0.625 0.172h-0.359q-0.25 0.219-0.25 0.484l1.109 10.953q0 6.828-5.188 9.828-0.531 0.297-2.734 1.125-2.297 0.859-2.656 0.859h-0.891q0.141-0.594 0.984-1.031 1.234-0.516 3.438-1.734 4.297-3.078 4.297-4.406 0-2.563-1.703-4.609-2.047-2.469-6.359-6.797-3.172-3.172-4.453-5.391-0.266-0.469-1.156-1.5-0.313-0.375-0.313-1.453 0-0.188 0.070-0.57t0.070-0.586h0.625q1.344 0.984 3.641 2.938v0.484q-0.328 0.047-0.969 0.375 1.094 1.813 4.188 4.875 3.766 3.641 4.797 4.938 2.297 2.906 2.375 5.5 0.563-0.172 0.563-1.609l-1.531-15.703q0-0.484 0.734-1.922h0.5q1.797 4.563 1.797 4.313v0.469zM78.141 21.109q0 1.016-1.055 2.125t-2.086 1.328q-0.156-0.219-0.125-0.375 0.781-0.641 2.156-2.156-0.063-0.203-0.953-0.797-0.047-0.313 0.383-0.773t0.773-0.461q0.906 0 0.906 1.109zM59.313 5.906q0.078 0.438-0.328 1.18t-0.828 0.742q-0.297 0-1.094-0.57t-0.797-0.82q0-0.391 0.453-1.031t0.797-0.641q0.219 0 1.797 1.141zM67.656 16.438q0.078 0.484-0.453 1.203t-1.047 0.719q-0.391 0-0.711-0.516t-0.32-0.938q0-0.672 0.539-1.617t1.102-1.367v0.641q0.031 0.172-0.25 0.617t-0.281 0.617q0 0.125 0.063 0.383t0.063 0.398q0.125 0.031 0.297 0.031 0.359 0 1-0.172zM47.281 3.953q0 0.516-0.508 1.086t-1.023 0.57q-0.953 0-0.953-1.797 0-0.734 0.523-2.008t1.102-1.57v0.766q0 0.172-0.336 0.914t-0.336 0.93q0 0.469 0.516 0.969 0.25 0 0.813-0.281 0.203 0.203 0.203 0.422zM54.609 11.094q0 0.266-0.453 0.844t-0.719 0.578q-0.156 0-0.828-0.406t-0.828-0.406q-0.172 0-0.813 0.555t-0.781 0.555q-0.281 0-1.117-0.664t-0.836-0.93q0-0.5 0.555-1.102t1.055-0.523q0.234 0.047 0.344-0.031-0.844-0.734-0.844-1.031 0-0.422 0.367-1.047t0.742-0.625q0.422 0 0.977 0.492t0.555 0.883q0 0.344-0.422 0.953t-0.719 0.719q-0.125-0.047-0.25 0.078 0.359 0.625 0.766 0.625 0.156 0 0.57-0.555t0.82-0.555q0.359 0 1.109 0.641t0.75 0.953zM45.906-1.578q0 0.781-2.813 1.938-0.594 0.25-3.328 1.281-2.234 1.078-6.688 3.422-0.203-0.188-0.203-0.484 0-1.188 5.172-3.453 1.063-0.469 7.5-3.25 0.359 0.328 0.359 0.547zM33.547 0.234q0 1.781-1.094 1.781-0.953 0-0.953-1.156 0-0.578 0.359-1.438t0.75-1.156q-0.031 1.234-0.031 1.219 0 0.828 0.547 0.828 0.203 0 0.422-0.078zM41.594 7.156q0.016 0.594-0.297 1.125-0.391 0.641-0.938 0.641-0.172 0-0.906-0.414t-0.906-0.414q-0.156 0-0.797 0.555t-0.781 0.555q-0.281 0-1.016-0.508t-0.734-0.727q0-0.375 0.43-1.016t0.742-0.641q0.156 0 0.859 0.336t0.891 0.336q0.219 0 0.664-0.477t0.789-0.477q0.547 0 2 1.125zM63.328 17.859q0 1.625-0.719 2.766-0.859 1.328-2.391 1.328-0.641 0-1.695-0.555t-1.086-0.555l-0.922 0.844q-0.969 0.797-1.75 0.797-0.672 0-1.359-0.609t-0.859-0.609q0.047 0-1.211 0.758t-2.18 0.758q-0.672 0-1.563-0.875-0.141-0.344-0.531-0.922-0.594 0.453-2.047 1.359-1.234 0.594-2.875 0.594-2.891 0-4.234-2.359-0.891 0.344-3.281 1.203-1.234 0.438-3.813 0.906-2.063 0.375-2.563 0.375-1.078 0-2.867-0.617t-2.008-0.617q-0.828 0-2.578 0.555t-2.594 0.555q-2.609 0-4.234-1.406-1.719-1.469-1.719-4.016 0-0.609 0.477-1.938t0.477-1.953q0-0.516-0.414-1.656t-0.414-1.656q0-1.219 1.031-3.797 1.063-2.734 1.922-3.25 0.516 0 0.516 0.469-0.031 0.141-0.203 0.594l-1.281 2.578q-0.578 1.203-0.578 2.438 0 2.078 0.953 2.078 0.5 0 0.859-0.547 0.469-0.734 0.922-0.969 0 0.063 0.086 0.266t0.086 0.359q0 1.031-1.047 2.391-0.531 0.438-1.563 1.516-0.719 0.938-0.719 1.781 0 1.031 0.703 2.258t1.609 1.648q1.359 0.594 2.531 0.594 0.859 0 2.125-0.313 0.984-0.25 1.344-0.547 0.281-0.203 0.281-0.969-0.109-0.906-0.344-3.141-0.328-3.328-0.422-4.922-0.094-1.844-0.688-7.344-0.047-0.516-0.375-2.188-0.266-1.453-0.266-1.625 0-1.25 0.609-1.531 0.25 0 0.453 0.297 0.313 0.594 0.781 3.469 0.266 1.688 0.594 4.344 0.391 5.859 0.938 10.781 0.094 0.875 1.031 1.75 1.031-0.063 3.688-1.656 2.859-1.719 2.859-2.781 0-0.594-0.672-1.031-0.516-0.344-0.859-0.344-0.297 0-0.875 0.133t-0.875 0.133q-2.141 0-2.141-2.141 0-0.828 0.641-2.188 0.813-1.781 1.922-1.781 0.984 0 2.344 2 1.047 1.578 1.281 2.359 0.344 1.109 0.344 2.219 0 1.969-1.031 3.219-0.531 0.625-3.531 3.063-0.016 0.125-0.016 0.25 0.047 0.063 0.359 0.313 0.234 0 0.664 0.086t0.617 0.086q0.297 0 2.656-0.516 2.609-0.547 3.766-0.906 0.922-0.297 1.563-1.031-0.109-1.047-0.047-3.031 0.266-0.766 0.703-2.219 0.109-0.375 0.625-0.844t0.859-0.469q1.031 0 1.688 1.281 0.531 1.094 0.531 2.266 0 1.781-0.844 2.977t-0.844 1.164q0 0.563 1.063 0.984 0.844 0.344 1.5 0.344 2.313 0 3.578-1.125 0.359-0.406 1.148-1.156t1.289-0.75q0.094 1.391 0.266 1.797 0.375 0.797 1.469 0.797 1.109 0 2.219-1.109 0.922-0.969 1.563-1.656 0.047 0.672 0.219 1.578 0.063 0.266 0.5 0.664t0.703 0.398q0.938 0 1.594-1.188 1.031-1.75 1.109-1.875 0.156 0.5 0.516 1.281 0.625 0.844 1.578 1.188 0.125 0.047 0.688 0.047 1.359 0 1.438-0.891l-2.609-6.656q0.172-0.641 0.578-2 2.219 1.547 2.25 2.563-0.219 0.469-0.219 0.984 0 0.734 0.625 2.203t0.625 2.047zM55.156 23.594q0 0.797-1.078 1.203-0.5 0.125-1.453 0.375-0.469 0.141-3.469 1.172h-0.625q0.156-1.078 1.609-1.563 0.734-0.219 2.156-0.641 0.516-0.219 2.688-0.938 0.172 0.172 0.172 0.391zM30.25 2.453q0 0.594-0.25 1.234-0.297 0.813-0.797 0.813-0.109 0-0.57-0.273t-0.68-0.273q-0.141 0-0.719 0.484t-0.734 0.484q-0.422 0-1.031-0.445t-0.609-0.867q0-0.438 0.344-1.016t0.75-0.578q0.156 0 0.719 0.344t0.734 0.344q0.109 0 0.625-0.555t0.688-0.555q0.641 0 1.531 0.859zM37.578 22.938q0 0.938-1 1.969t-1.953 1.031q-0.094 0-0.219-0.031 0.125-0.172 1.797-1.844-0.047-0.188-0.672-0.484-0.172 0.094-0.172-0.25 0-0.375 0.508-0.742t0.883-0.367q0.828 0 0.828 0.719zM24.406 23.969q0 0.375-2.453 1.422-3.188 1.359-3.672 1.672h-0.594q-0.172-0.031-0.172-0.344 0-0.547 0.344-0.688 1.672-0.734 6.078-2.672h0.469v0.609zM40.219 15.922q0-0.297-0.445-0.938t-0.82-0.641q-0.953 0-0.953 1.375 0 1.531 0.813 1.531 0.313 0 0.859-0.508t0.547-0.82zM28.453 10.234q-0.938-0.469-0.844-0.469-0.484 0-0.547 0.641 0.328 0.344 0.688 0.344 0.469 0 0.703-0.516z"></path>
</svg>
