<!-- Generated by IcoMoon.io -->
<svg version="1.1" xmlns="http://www.w3.org/2000/svg" width="61" height="32" viewBox="0 0 61 32">
<title>surah85</title>
<path d="M61.063 19.266q0 1.25-0.844 3.922-0.125 0.016-0.359 0.172l-2.391-22.234q0-0.172 0.328-0.898t0.359-0.945h0.516q2.234 3.859 2.234 4.953 0 0.563-0.609 0.563-0.172 0-0.336-0.078t-0.18-0.078q-0.25 0.5-0.25 0.922zM48.188 4.938q0 0.172-0.469 1.109-1.156-0.422-1.281-0.422-0.25 0-0.5 0.25-2.438 4.109-6.375 5.953-0.094-0.297 2.531-3.102t2.625-3.32q0-0.359-0.594-0.641-0.797-0.344-0.891-0.438-0.438-0.5-0.438-1.328 0-0.5 0.734-1.906 0.859-1.563 1.531-1.563 0.734 0 0.984 0.609 0.484 1.078 0.563 1.672-0.031 0.563 0.219 1.625 0.891 0.594 0.906 0.594 0.453 0.375 0.453 0.906zM48.453 11.094q0 0.391-0.602 1.133t-0.992 0.742q-1.016 0-1.031-1.797 0-0.891 0.453-2.078 0.531-1.266 1.172-1.672-0.063 0.422-0.375 1.578-0.297 1.016-0.297 1.203 0 0.969 0.563 0.969 0.344 0 0.922-0.563 0.188 0.188 0.188 0.484zM56.359 22.094q0 1.094-1.281 2.484-1.203 1.281-2.313 1.641v-0.438q0-0.125 1.094-1.211t1.234-1.414q-0.047-0.094-0.094-0.234t-0.25-0.141q-0.109 0-0.359 0.063t-0.375 0.063v-0.594q0-0.219 0.516-0.695t0.766-0.477q1.063 0 1.063 0.953zM29.297 3.141q-0.063 2.188-1.344 2.188-0.734 0-1.109-1.766 0-0.719 0.516-1.938t1.016-1.688v0.797q0 0.25-0.273 0.938t-0.273 0.906q0 0.344 0.516 1.125 0.422 0 0.953-0.563zM54.266 15.75q0 2.188-0.984 3.672-1.141 1.719-3.25 1.719-1.422 0-2.594-1.18t-1.969-1.18q-2.406 0-4.688 2.063-0.203 0.141-3.453 3.766-1.844 2.063-3.203 2.063-1.641 0-2.5-1.188-0.813-1.094-0.719-2.766 0.047-0.453-0.25-0.766-1.109 0.688-3.297 1.766-2.703 0.797-8.203 2.391l-0.344-0.344q1.5-1.125 3.375-1.938 1.063-0.422 3.75-1.609 1.641-0.781 5.656-3.297 5.359-3.391 5.359-4.656 0-0.875-1.516-0.875-0.25 0-0.828 0.133t-0.828 0.133q-2.219 0-2.219-2.484 0-1.031 0.672-2.297 0.813-1.453 1.891-1.453 1.5 0 2.828 2.719 1.109 2.266 1.109 3.438 0 0.172-0.109 0.508t-0.109 0.477q-0.047 0.859-0.656 2.391-0.75 0.859-2.438 2.094-1.781 1.328-2.469 2.063-0.297 0.328-0.297 1.875 0 2.156 1.5 2.156 0.891 0 1.406-0.563 1.25-1.375 3.797-4.109 1.297-1.344 3-2.531 2.219-1.531 3.594-1.531 1.875 0 2.969 1.258t1.922 1.258q0.875 0 1.742-0.492t1.117-1.258l-2.094-16.313q0.203-1.141 0.594-2.141 0.125 0 0.344 0.047 0.906 1.641 2.391 4.875l-0.469 0.469q-0.125 0-0.32-0.078t-0.352-0.078q-0.094 0.203-0.094 0.984zM46.359 23.234q0 0.516-0.266 1.078-0.328 0.688-0.766 0.688t-1.844-1.125q0-1.922 1.078-1.922 0.297 0.188 1.797 1.281zM27.672 14.266q0 0.469-0.734 2.656-0.25 0.797-1.406 2.344-1.328 1.828-3.563 2.766-0.094 0.016-0.813 0.438-0.438 0.266-1.938 0.469-1.047 0.125-1.234 0.125-3.234 0-5.125-2.141-1.797-2.047-1.797-5.328 0-1.172 0.094-1.625 0.344-1.625 1.063-4 0.078-0.234 0.766-1.438 0.563-0.984 0.563-1.172 0-0.766-1.125-1.359-1.5-0.766-1.578-0.844-0.609-0.688-0.609-1.594 0-2.406 2.25-3.047 0.969-0.281 3.797-0.281 1.234 0 4.016 0.234 2.344 0.219 4.063 0.484v0.766q0 0.953-2.813 2.484-1.344 0.719-4.078 2.234-2.391 1.406-3.078 2.984 0.484 0.484 2.359 0.484 0.172 0 0.516-0.109t0.516-0.109q4.141-0.594 4.859-0.594 2.719 0 3.875 1.219t1.156 3.953zM15.344 24.266q0 0.25-0.422 0.563-4.688 1.938-4.469 1.969h-0.891v-0.469q0-0.344 2.813-1.625 0.578-0.344 2.656-1.203 0.188 0.156 0.313 0.156v0.609zM45.25 2.703v-0.5l-0.438-0.438h-0.469q-0.125 0.25-0.125 0.469 0 0.25 0.125 0.469h0.906zM34.75 10.656q-0.375-0.75-0.891-0.75-0.219 0-0.492 0.313t-0.273 0.531 0.172 0.422h0.984q0.5 0 0.5-0.516zM19.234 2.891q-0.141-0.063-0.438-0.266-2.125-0.313-3.297-0.313 0.484 0-2.844 0.313-0.625 0.078-0.875 0.594 0.359 0.313 1.922 1.594 1.172 0.969 1.391 0.969 0.281 0 2.164-1.297t1.977-1.594zM26.453 14.266q0-2.953-4.516-2.953-0.734 0-2.211 0.195t-2.211 0.195q-0.328 0-1.836-0.547t-1.836-0.547q-1.406 0-1.406 3.953 0 1.156 0.203 2.078 0.344 1.797 2.094 3.016 1.672 1.188 3.547 1.188 2.156 0 4.938-1.844 3.234-2.172 3.234-4.734zM20.906 15.375q0 0.344-0.344 0.914t-0.641 0.57-1.18-0.617-0.883-0.867q0-0.344 0.453-0.961t0.781-0.617q0.438 0 1.125 0.578t0.688 1z"></path>
</svg>
