<!-- Generated by IcoMoon.io -->
<svg version="1.1" xmlns="http://www.w3.org/2000/svg" width="72" height="32" viewBox="0 0 72 32">
<title>surah86</title>
<path d="M71.625 5.156q-0.438 0.031-1.016-0.266-0.234 0.844-0.219 1.328l0.969 13.141q0.063 0.813-0.375 2.859-0.438 2.172-1.063 2.313 0.047 0.125 0.047-4.188l-0.297-4.344q-0.344-5.25-0.484-8.969-0.047-0.859-0.313-2.953l-0.281-2.063q0-0.156 0.336-0.992t0.383-1.086h0.484q1.828 4.516 1.828 4.313v0.906zM57.375 3.047q0 0.313-0.555 0.805t-0.82 0.492q-0.844 0-0.984-0.953 0-0.688 0.492-1.719t1.008-1.453q-0.516 2.094-0.516 1.984 0 0.516 0.344 0.922 1.156-0.547 1.031-0.547v0.469zM61.266 4.969q-0.156 0.359-0.625 0.859-0.734 0.375-8.047 3.344-0.078-0.016-0.469-0.172 0.125-0.422 0.469-1 1.141-0.641 4.109-1.781l4.219-1.594zM60.156 11.078q0 0.656-0.5 1.641-0.172 0.375-1.922 0.547-0.109 0.016-0.469 0.18t-0.578 0.164q-1.109 0-1.109-1.375 0-0.813 0.828-1.656 0.125 0.5 0.516 1.406 0.469-0.125 0.609-0.977t0.484-0.977q0.531 0.688 0.469 1.406 0.094 0 0.359 0.25 0.422-0.266 0.422-0.797 0-0.438 0.031-0.859 0.063-0.266 0.391-0.406 0.469 1.344 0.469 1.453zM45.484 5.188q0 0.219-0.039 0.648t-0.039 0.648q0 0.328-0.734 1.047-0.031-0.578-0.031-1.438v-0.172q0-1.578-0.344-2.313-0.094-0.25-0.656-1.125-0.516-0.797-0.516-0.984 0-0.297 0.469-0.75 1.891 0.969 1.891 4.438zM64.984 5.188h-0.547q-0.094-0.078-0.203-0.094 0.031-0.125-0.016-0.203-0.516 0.203-0.469 0.766l0.953 12.328q0.25 3-2.828 4.625-2.188 1.141-5.906 1.328-1.672 0.063-5.016 0.203-2.391 0.141-4.172 0.141-6.266 0-6.766-4.469 0-0.109-0.219-1.453-0.141-0.938-0.141-1.078v-4.266q0-0.219-0.328-6.641-0.047-0.813-0.422-2.781-0.359-1.828-0.359-2.641 0-0.688 0.734-1.719 0.172 0 0.438 0.469 0.5 2.672 0.813 5.828 0.25 2.484 0.453 8.031 0.109 2.75 0.516 5.922 0.359 1.359 2.109 2.125 1.359 0.594 2.766 0.594h0.563q0.438 0 1.477-1.047t1.148-1.516q0.297-1.141 0.203-2.344l-1.406-15.844q-0.016-0.281 0.398-1.117t0.664-0.977q2.141 3.531 2.141 4.5 0 0.125-0.070 0.367t-0.070 0.367q-0.156 0.078-0.328 0.078-0.266 0-0.594-0.172-0.313 0.141-0.313 0.766 0-0.969 0.703 8 0.109 0.188 0.203 0.703 0.047 0.625 0.047 1.219 0 1.422-0.266 2.781 0.219 0.219 0.344 0.219 0.344 0 2.172-1.578 1.5-1.328 2.875-1.328 1.328 0 2.484 0.891 1.25 0.953 1.25 2.234 0 0.953-0.563 2.609 0.219 0.219 0.375 0.219 0.688 0 1.813-0.391 1.359-0.469 1.656-1.078 0.125-0.203 0.047-1.016l-1.375-17.109q-0.031-0.344 0.719-1.844 0.359 0 0.453 0.141 1.859 3.406 1.859 4.188v1.063zM66.797 23.656q0 1.031-1.516 2.25-1.266 1.016-2.156 1.25h-0.484q1.031-0.859 3.047-2.688-0.016-0.5-0.438-0.469-0.734 0.016-0.781-0.031 0-0.391 0.516-0.875t0.906-0.484q0.906 0 0.906 1.047zM46.391 15.016q0.031 0.563-0.344 1.203-0.391 0.703-0.938 0.703-0.656 0-1.031-1.5 0-1.734 1.781-4v0.484q0.016 0.219-0.398 1.227t-0.414 1.258q0 0.844 0.609 1.188 0.266-0.172 0.734-0.563zM35.516 1.5q0 0.172-0.086 0.375t-0.086 0.266h-0.719q0.094-0.031-0.719-0.422-0.516 0.516-0.734 2.094-0.25 1.688-0.766 2.484-0.344-0.203-0.75-1.141-0.547-1.219-0.766-1.516-0.281-0.391-1.406-0.984-0.5-0.281-0.5-0.859 0-0.297 0.289-0.672t0.555-0.375q0.469 0 1.297 1.047 0.375 0.484 1.141 1.453 0.266-0.078 0.797-1.57t1.125-1.492q0.266 0 0.797 0.531t0.531 0.781zM25.813 3.391q0 0.313-0.445 0.844t-0.727 0.531q-0.125 0-0.852-0.492t-0.898-0.492q-0.156 0-0.719 0.492t-0.719 0.492q-0.391 0-2.016-1.297 0.766-1.609 1.453-1.609 0.172 0 0.773 0.406t0.758 0.406q0.141 0 0.734-0.477t0.719-0.477q0.344 0 1.141 0.68t0.797 0.992zM38.813 23.281q0 0.344-2.734 1.609-1.328 0.625-3.969 1.859h-0.453v-0.766q0.984-0.688 6.813-3.375 0.219 0.156 0.344 0.156v0.516zM35.906 16.344q0 4.031-6.25 7.484-0.938 0.516-2.359 1.094-3.203 0.641-9.578 2.109l-0.625-0.188q0.5-0.453 0.875-0.563 5.609-1.766 8.234-2.906 5.094-2.188 8.203-5.047 0.25-0.219 0.547-0.953l-2.375-5.469q0.063-0.734 0.641-2.016 0.672 0.344 1.953 1.969 0.016 0.125-0.102 0.555t-0.117 0.602q0 0.141 0.477 1.352t0.477 1.977zM27.875 14.391q0 1.672-0.344 2.391-0.906 1.922-5.484 4.672-0.781 0.469-2.609 1.063-2.063 0.672-3.266 0.672h-0.938q-0.984 0-2-0.625-2.656-1.625-2.656-4.531 0-1.641 0.5-2.922l0.484-1.281q0-0.078-0.422-1.133t-0.422-1.617q0-1.625 1.063-4.234 1.156-2.891 2.391-3.453v0.484q-0.125 0.281-0.891 1.75-0.984 1.828-1.281 2.813-0.047 0.125-0.047 0.953 0 2.141 0.984 2.141 0.469 0 0.859-0.656 0.156-0.297 0.453-0.844 0.219 0.203 0.219 0.625 0 1.172-0.891 2.5-0.422 0.328-1.031 0.984-0.719 1.156-0.719 2.516 0 2.016 1.313 3.172 1.234 1.141 3.25 1.141 1.125 0 2.406-0.328 0.984-0.234 2.609-0.953 0.906-0.391 2.859-1.719 2.656-1.797 2.656-2.688 0-1.234-1.875-1.234-0.188 0-0.609 0.063t-0.641 0.063q-0.984 0-1.625-0.766t-0.641-1.797q0-0.984 0.609-2.156 0.766-1.516 1.859-1.516t2.328 1.859q0.984 1.469 1.359 2.781 0.188 0.609 0.188 1.813zM19.016 15.594q-0.219 0.547-0.406 1.109-0.344 0.672-0.891 0.672-1.031 0-1.031-1.672 0-1.359 1.25-2.609-0.078 0.813-0.148 1.305t-0.109 0.664-0.039 0.016q0 0.891 0.563 0.891 0.109 0 0.398-0.188t0.414-0.188zM17.344 24.391q0 0.453-5.313 2.5-0.203-0.141-0.328-0.141v-0.5q1.109-0.688 2.391-1.188 0.156-0.047 1.484-0.703 0.984-0.484 1.172-0.484h0.594v0.516zM58.625 19.219q0-0.563-1.406-1.188-1.203-0.531-1.563-0.531-1.625 0-5.75 4.25 0.172 0 0.523 0.086t0.523 0.086q0.953 0 3.906-0.703 3.766-0.938 3.766-2zM24.953 11.688v-0.516q-0.844-0.859-1.156-0.859-0.125 0.063-0.766 0.563v0.516q0.719 0.438 1.188 0.438 0.172 0 0.43-0.070t0.305-0.070z"></path>
</svg>
