<!-- Generated by IcoMoon.io -->
<svg version="1.1" xmlns="http://www.w3.org/2000/svg" width="58" height="32" viewBox="0 0 58 32">
<title>surah87</title>
<path d="M57.328 6.594q-0.328 0.313-0.469 0.313-0.203 0-0.352-0.148t-0.164-0.148q-0.297 0.875-0.25 1.484l0.688 12.328q-0.172 0.688-0.516 2.016t-1.109 1.922l-0.891-20.281q-0.016-0.938 0.891-2.406h0.5q0.734 1.672 1.672 4.922zM36.578-5q0 0.703-2.313 2.063-1.953 1.156-2.781 1.406 0-0.031-0.086-0.18t-0.086-0.32q0-0.609 2.078-1.938 0.344-0.203 2.391-1.422h0.469q0.328 0.313 0.328 0.391zM37.531 0.063q0 0.641-0.594 0.844-2.031 0.734-2.531 0.734t-1.297-1.719q0-0.5 0.898-1.461t1.383-0.961q0.906 0 0.906 1.047 0 0.875-0.703 1 0.313-0.297 0.391-0.297-0.031 0.078-0.031 0.172-0.125 0.172-0.266 0.297 0.266-0.125 1.672-0.125l0.086 0.148t0.086 0.32zM51.391 5.953q0 0.141-0.086 0.375t-0.086 0.281l-0.859-0.125q-0.156 0.5-0.078 1.406l0.547 7.047q0.047 0.563 0.047 1.109 0 7.234-7.313 8.781-0.938 0.219-3.344 0.75-0.172-0.094-0.469-0.313 0.313-0.469 1.109-0.75 0.438-0.156 1.297-0.469 3.063-1.313 5.344-3.234 0.094-2.141-0.172-2.734-1.078-2.359-6-7.359-2-2.016-4.234-5.844-0.5-0.672-0.844-1.172-0.219-0.313-0.219-1.078 0-0.469 0.297-1.375h0.734q0.594 0.422 1.719 1.281 1.531 1.203 1.531 1.766 0 0.344-0.828 0.625 0.953 1.938 3.703 4.766 2.953 3.031 4 4.734 1.328 2.234 1.516 4.828 0.344-0.297 0.406-0.766 0.219-1.484 0.188-1.797l-0.953-12.906q-0.031-0.344 0.289-1.227t0.586-0.914q0.375 0 0.547 0.297 0.266 0.141 0.945 1.867t0.68 2.148zM52.766 22.547q0 0.781-0.625 1.594t-1.359 1.156h-0.5q0.297-0.594 1.234-1.875l-0.688-0.344v-0.438q0-0.266 0.477-0.664t0.758-0.398q0.703 0 0.703 0.969zM30.609 1.516q0 0.641-0.75 1.625-0.875 1.156-1.656 1.156-0.5 0-0.914-0.492t-0.414-0.977q0-0.672 0.438-1.797 0.578-1.453 1.281-1.453 0.719 0 1.367 0.617t0.648 1.32zM26.313-5.328q0 0.5-2.016 1.391-1.219 0.484-2.438 1-2.25 0.984-2.422 0.984h-0.828q-0.172-0.172-0.172-0.391 0-0.813 3.141-2.141 2.688-1.156 4.266-1.484h0.469v0.641zM41.672 17.094q0 0.281-0.508 0.797t-0.773 0.516q-0.672 0-1.063-1.25 0-0.641 0.57-1.969t1.023-1.75q0.203 0.016 0.203 0.313 0 0.25-0.344 1.086t-0.344 1.055q0 0.844 0.344 0.844 0.141 0 0.43-0.125t0.461-0.125v0.609zM40.297 21.531q0 0.375-0.984 1.203-0.328 0.391-1.688 1.438-2.531 1.297-4.031 1.297-0.422 0-1.109-0.281-0.891-0.359-0.891-0.828 0-0.688 0.297-1.234 1.016-1.641 1.094-1.688 0-0.109-0.289-0.516t-0.289-0.594q0-0.688 0.844-1.586t1.531-0.898q0.531 0 0.641 0.836t0.047 0.836q0.141 0 0.453-0.125t0.484-0.125v0.469q0.016 0.141-1.703 1.719t-1.719 1.734q0 0.75 1.156 0.75h0.828q0.688 0 2.609-1.25 2.219-1.469 2.719-1.625v0.469zM37.109 12.813q0 2.609-6.266 4.438-0.641 0.203-2.094 0.203-0.891 0-2.391-0.75-0.766-0.391-1.234-1.422-0.219-0.547-0.688-1.594-0.641 1.156-2 3.531 0.469 0.125 2.719 0.688 1.172 0.297 1.172 1.875 0 1.672-0.641 2.344-2.375 2.516-8.406 4.125-1.172 0.328-3.203 0.328 0.094 0-2.094-0.5-3.375-0.781-3.375-5.188 0-1.969 1.203-4.375 0-0.234 0.078-0.578 0.219-0.266 0.219-0.641 0-0.313-0.273-1.258t-0.273-1.242q0-1.656 1.141-4.531 1.234-3.156 2.438-3.688 0 0.016 0.086 0.203t0.086 0.328q0 0.156-0.766 1.281-0.781 1.203-1.016 1.719-0.578 1.406-0.578 2.891 0 0.25 0.188 1.797 0.047 0.531 0.719 0.766 0.469-0.125 0.688-0.75 0.344-1 0.375-1.047 0.516 0 0.516 0.484 0 2-1.453 3.344-0.422 0.172-1.141 0.719-0.359 0.25-0.641 1.625-0.219 1.109-0.219 1.797 0 2.172 1.359 3.422 1.281 1.203 3.5 1.203h1.031q1.047 0 4.703-1.297 4.078-1.453 4.078-2.438 0-0.594-1.766-0.813-0.328-0.031-2.313-0.203-0.172-0.016-1.578-0.656-0.047-1.047 0.438-1.625 0.203-0.25 1.703-1.313 1.203-0.859 1.531-1.594 0.75-1.672 0.609-3.703l-0.688-9.969q-0.125-1.469 0.734-2.828 0.516 0 0.594 0.625 0.547 6.203 1.188 11.188 0.359 2.844 1.609 3.953 0.156-0.078 0.156-0.25 0-0.109-0.047-0.203-0.078-0.344-0.078-0.719 0-1.734 1.305-3.25t3.023-1.516q0.922 0 2.094 0.531 1.375 0.625 1.734 1.516-0.547 0.047-1.453-0.156-1.047-0.25-1.453-0.25-0.672 0-1.953 0.5-1.641 0.609-1.641 1.375 0 1.156 0.906 2.359 0.953 1.313 2.063 1.313 0.891 0 5.734-2.609v0.484zM19.391 11.984q0 0.531-1.016 1.109-0.016 0.047-0.281 0.047-1.047 0-1.047-1.609 0-0.75 0.508-1.773t1.117-1.477l0.172 0.531q-0.344 0.484-0.688 1.328v1.109q0.219 0.219 0.344 0.219 0.156 0 0.461-0.188t0.43-0.188v0.891zM16.484 20.031q-0.734 1.969-1.5 1.969-0.344 0-0.727-0.422t-0.383-0.734q0-2.172 1.781-3.672-0.797 2.297-0.813 2.484 0 0.625 0.609 0.813 0.172-0.094 0.563-0.406 0.219-0.203 0.469-0.031zM29.234 2.016q-0.141-0.156-0.219-0.297-0.125-0.078-0.5-0.094-0.391-0.031-0.391 0.172 0 0.219 0.297 0.531h0.5zM34.5 19.641l-0.531-0.172v0.188l0.438 0.172z"></path>
</svg>
