<!-- Generated by IcoMoon.io -->
<svg version="1.1" xmlns="http://www.w3.org/2000/svg" width="81" height="32" viewBox="0 0 81 32">
<title>surah88</title>
<path d="M80.25 19.094q0 1.281-0.344 2.766-0.391 1.766-0.953 1.859 0.078-2.953-0.641-9.344-0.734-6.719-0.734-9.797 0-0.375-0.188-1.102t-0.188-1.070q0-0.328 0.766-2.219 0.172 0.094 0.422 0.328l1.859 4.156v0.891q-0.016 0.172-0.344 0.172l-0.813-0.406q-0.219 0.234-0.219 0.469zM69.063 1.25q-0.156 0.094-0.969 1.125-1.25 1.625-1.25 3.078 0 0.625 0.344 0.984l0.828-0.438q0.203 0.219 0.203 0.516 0 0.328-0.539 0.953t-0.836 0.625q-0.891 0-0.984-1.953-0.047-0.906 0.828-2.953-0.063-0.063-0.297-0.063-0.438 0-4.578 1.969-0.984 0.609-2.922 1.75h-0.609q0.094-1.109 0.828-1.453 2.703-1.313 9.719-4.641 0.234 0.203 0.234 0.5zM65.438 10.438q0 0.266-0.531 0.906t-0.766 0.641q-0.172 0-1.734-1.141 0-0.484 0.25-1.078 0.375-0.844 0.938-0.844 0.313 0 1.078 0.672t0.766 0.844zM74.031 17.984q0 5.469-4.359 5.469-1.422 0-3.086-1.305t-1.57-1.305q1.453 0-1.594 1.109t-4.141 1.109q-1.766 0-2.563-0.766-0.703-0.688-1.078-2.484-0.266-5.297-0.719-12.625-0.047-0.766-0.438-2.672-0.391-1.766-0.391-2.5 0-0.469 0.734-1.953 0.516 0.25 0.594 0.766 1.125 6.656 1.203 13 0.047 3.641 0.547 5.25 0.219 0.688 0.93 1.289t1.398 0.602h0.672q0.484 0 1.813-0.563 1.531-0.625 1.531-1.109 0-0.469-1.078-1.031-0.906-0.469-1.203-0.469-0.172 0-0.609 0.219t-0.703 0.313v-0.734q0-0.422 1.078-1.406 1.016-0.906 1.313-0.984 2.359-0.609 3.203-0.609 0.828 0 2.656 0.594 2.266 0.734 2.266 1.563 0 1.016-1.234 1.688-1.5 0.813-1.828 1.344 1.609 1.453 2.719 1.453 0.906 0 1.688-0.344 1-0.438 1-1.234l-1.813-17.578q0-0.359 0.766-1.891 2.141 3.875 2.141 4.359v0.891q-0.188 0.047-0.359 0.047-0.344 0-0.625-0.172zM76.813 23.109q0 1.578-2 3.234h-0.516q0.719-0.938 1.547-2.641-0.516-0.203-1.25-0.125 0-0.422 0.508-0.961t0.914-0.539q0.797 0 0.797 1.031zM50.891 2.844q-0.516 1.922-1.422 1.922-1.063 0-1.063-1.375 0-0.906 0.734-2.188 0.297-0.5 0.766-0.719l0.172 0.641q-0.297 0.375-0.563 1.063v0.953l0.25 0.25q0.109-0.078 0.625-0.547h0.5zM65.859 24.281q0 1.922-2.25 2.75l-0.234-0.313q0.531-0.609 1.375-1.938-0.266-0.344-0.563-0.344-0.203 0-0.328 0.125-0.219-0.203-0.219-0.391 0-0.422 0.383-0.844t0.805-0.422q1.031 0 1.031 1.375zM48.406 8.219q0 0.266-0.508 0.906t-0.727 0.641q-0.297 0-0.984-0.648t-0.688-0.945 0.516-0.875 0.813-0.578q0.266 0 0.922 0.625t0.656 0.875zM50.625 10.875q0 0.219-0.57 0.797t-0.82 0.578q-0.141 0-0.82-0.414t-0.852-0.414q-0.125 0-0.789 0.477t-0.852 0.477q-0.297 0-0.914-0.539t-0.617-0.758q0-0.281 0.484-0.945t0.703-0.664q0.141 0 0.859 0.422t0.859 0.422q0.172 0 0.711-0.492t0.664-0.492q0.453 0 1.203 0.602t0.75 0.945zM44.953 1.125q0 0.641-2.531 1.625-1.281 0.5-3.469 1.281-1.328 0.391-4.703 1.594-2.094 0.969-7.5 3.422-0.203-0.188-0.203-0.391 0-1.203 5.594-3.5 1.344-0.656 4.813-2.141 6.484-2.531 7.266-2.531h0.734v0.641zM30.703 3.25q0 0.531-0.734 1.125-0.641 0.516-0.859 0.516-0.422 0-0.688-0.563-0.203-0.422-0.203-0.672 0-1.625 1.328-3.313l0.172 0.641q-0.547 1.094-0.547 1.641 0 0.625 0.469 0.625 0.156-0.078 0.875-0.422 0.188 0.219 0.188 0.422zM54.219 22.141q0 0.625-1.563 1.281-0.531 0.203-1.641 0.641-0.734 0.297-2.219 0.953-0.891 0.391-3.094 1.359l-0.203-0.203v-0.609q0.641-0.5 4.281-2.156 3.453-1.609 3.578-1.609h0.703q0.156 0.031 0.156 0.344zM38.578 13.484q0 0.563-0.586 1.328t-1.133 0.766q-0.672 0-1.109-1.016-0.344-0.781-0.344-1.547 0-1.031 0.688-2.828 0.734-2 1.484-2.359 0.172 0.016 0.172 0.344 0 0.313-0.555 1.828t-0.555 1.828q0 1.531 0.828 1.531 0.156 0 0.484-0.211t0.453-0.211v0.031q0.031 0 0.031 0.016 0.141 0.156 0.141 0.5zM52.719 17.906q0 1.188-0.813 2.219-0.891 1.109-2.047 1.109-0.734 0-2.219-1.5-1.594 1.922-2.875 1.922-1.156 0-2.656-2.219-3.375 2.063-6.781 2.063-1.922 0-3.641-1-0.219-0.266-1.203-1.609-0.547 0.703-2.047 2.031-0.906 0.578-2.391 0.578-1.797 0-2.781-0.953-0.484-0.484-1.078-1.797-0.422-0.953-0.828-0.953-1.188 0-2.836 3.453t-2.852 3.453q-1.016 0-1.563-0.703-1.344-1.906-1.516-4.641-0.031-0.609 0.078-1.938t0.109-1.922q0-0.141-0.281-0.484t-0.313-0.453q-0.313-0.875-0.313-1.547 0-1.75 1.078-4.672 1.219-3.25 2.469-3.844 0.172 0.188 0.172 0.391 0 0.172-0.641 1.328-0.734 1.359-0.984 1.844-0.859 1.875-0.859 3.422 0 1.875 1.063 1.875 0.406 0 0.906-1.234h0.516v1.031q0 0.797-1.031 1.969-0.375 0.375-1.109 1.156-0.078 0.078-0.078 1.094 0 1.406 0.516 3.078 0.688 2.156 1.781 2.156 1.109 0 2.109-2.156 0.609-1.578 1.203-3.156 1.031-1.875 2.781-1.875 0.641 0 1.109 1.016 0.719 1.578 0.969 1.875 0.813 0.984 2.359 0.984t2.578-0.922q0.25-0.219 1.953-2.375h0.766l0.344 1.422q0.609 1.75 4.125 1.75 4.016 0 7.234-2.609h0.625q0 0.172-0.063 0.563t-0.063 0.594q0 1.578 1.453 1.578 1.719 0 2.609-2.438 0.375-0.375 0.938-1.016 0.094 0.25 0.125 1.281 0 0.297 0.047 0.563 0.078 0.391 0.539 0.797t0.883 0.406q1.234 0 1.109-0.734-0.219-0.531-0.219-1.125 0-0.859 0.438-1.875 0.469 0.203 0.797 1.234 0.297 0.891 0.297 1.516zM23.219 2.016q0 0.125-0.086 0.328t-0.086 0.328l-0.133 0.078t-0.305 0.078q-0.297 0-0.844-0.547-0.391 0.328-0.641 1.625-0.313 1.625-0.578 2.234-0.641-0.953-1.922-2.656-0.5-0.141-1.281-0.516-0.344-0.25-0.344-0.828 0-1.109 0.734-1.109 0.484 0 1.406 1 0.734 0.844 1 1.359 0.078 0.031 0.203-0.031 0.094-0.406 0.422-1.453 0.531-1.438 0.938-1.438 0.281 0 0.898 0.664t0.617 0.883zM29.719 13.219q0 0.469-0.391 1.094-0.469 0.703-0.906 0.703-1.188 0-1.188-1.859 0-1.047 1.313-3 0.219 0.219 0.219 0.563 0 0.25-0.273 0.938t-0.273 0.938q0 0.391 0.375 0.766 0.359 0 0.938-0.563 0.188 0.188 0.188 0.422zM24.063 9.891q0 0.391-0.398 0.883t-0.789 0.492q-0.141 0-0.82-0.477t-0.852-0.477q-0.125 0-0.773 0.609t-0.805 0.609q-0.344 0-1.008-0.625t-0.664-0.938q0-0.281 0.469-0.797t0.719-0.516q0.234 0 0.93 0.484t0.789 0.484q0.031 0 0.609-0.633t0.922-0.633q0.656 0 1.219 0.719 0.453 0.547 0.453 0.813zM34.156 24.969q0 0.344-0.422 0.938t-0.766 0.594q-0.141 0-0.773-0.484t-0.805-0.484q-0.141 0-0.719 0.484t-0.75 0.484q-0.375 0-0.977-0.617t-0.602-0.992q0-0.281 0.414-0.859t0.695-0.578q0.188 0 0.844 0.492t0.797 0.492q0.156 0 0.773-0.555t0.789-0.555q0.313 0 0.906 0.664t0.594 0.977zM24.875 23.297q-1.719 1.141-5.031 3.078l-1.047-0.203q0.531-0.906 2.328-1.859 2.719-1.469 2.953-1.703h0.625l0.172 0.203v0.484zM66.688 17.25q-0.109 0-0.422-0.148t-0.484-0.117h-1q0.578 0.922 1.078 0.922 0.516 0 0.828-0.656z"></path>
</svg>
