<!-- Generated by IcoMoon.io -->
<svg version="1.1" xmlns="http://www.w3.org/2000/svg" width="70" height="32" viewBox="0 0 70 32">
<title>surah89</title>
<path d="M69.531 1.984q-0.125 0.047-0.344 0.172-0.281-0.25-0.797-0.563l0.719 13.438q0.203 3.375-1.281 5.656h-0.375v-5.438l-0.828-12.172v-3.313q0-0.141-0.133-0.484t-0.133-0.516q0-0.688 0.875-1.875 0.281 0.266 1.289 2.094t1.008 2.109v0.891zM55.813 4.453q0 0.391-0.492 0.922t-0.883 0.531q-0.422 0-1.18-0.484t-0.758-0.844q0-0.344 0.492-0.961t0.836-0.617q0.391 0 1.188 0.539t0.797 0.914zM57.078-2.688q0 0.938-2.516 1.641l-2.953 0.75q-2.219 0.609-6.078 1.938-0.766 0.266-5.219 2.188-3.234 1.391-3.406 1.391h-0.563q-0.172-0.203-0.172-0.422 0-1.063 1.078-1.625 3.922-1.5 7.859-3 4.578-1.688 8-2.469 0.297-0.078 1.547-0.469 1.094-0.344 1.266-0.344h0.984q0.172 0.172 0.172 0.422zM48.75 5.156q0 0.453-0.68 1.227t-1.117 0.773q-0.828 0-0.953-2.016-0.047-0.547 0.586-1.578t1.102-1.25q-0.219 0.688-0.438 1.688v0.969l0.219 0.25q0.469-0.234 0.797-0.547h0.484v0.484zM37.141-0.75q0 0.859-0.813 1.813t-1.688 0.953q-0.406 0-0.891-0.367t-0.484-0.789q0-0.625 0.469-1.906 0.625-1.641 1.328-1.641 0.625 0 1.352 0.648t0.727 1.289zM55.281 20.375q0 0.984-1.172 2.156t-2.141 1.063q-0.047-0.109-0.047-0.234 0-0.422 0.953-1.148t1.016-1.117q-0.219-0.25-0.359-0.25-0.156 0-0.273 0.063t-0.18 0.063l-0.016-0.031q-0.156-0.141-0.156-0.438 0-0.391 0.484-0.852t0.844-0.461q1.047 0 1.047 1.188zM28.688 0.016q0 0.672-0.563 1.336t-1.234 0.664q-0.469 0-0.789-0.547t-0.32-1.031q0-0.766 1.406-3.391 0.547 0 0.547 0.266 0 0.25-0.359 1.070t-0.359 1.102q0 0.516 0.375 0.875 0.141 0 1.109-0.688 0.188 0.031 0.188 0.344zM63.719 1.844q-0.25 0.141-0.5 0.141-0.188 0-0.391-0.094-0.219 0.688-0.219 1.109l0.953 10.359q0 5.531-4.688 5.531-1.703 0-2.734-0.438-0.125-0.078-0.719-0.547-0.547-0.391-0.719-0.391-0.125 0.078-0.859 0.391-2.75 1.141-5.563 1.141-5.063 0-5.906-2.875-0.141-0.516-0.375-2.953-1.469 0.219-6.125 1.891-4.109 1.453-6.281 1.453-0.438 0-1.32-0.141t-1.336-0.141q-0.563 0-0.703 0.375-1.141 2.813-4.047 4.359-1.688 0.891-5.453 1.875-2.266 0.594-5.891 0.594-0.313 0-0.984-0.328 0.297-0.484 0.766-0.594 1.875-0.391 4.547-1.063 0.672-0.313 2.078-0.875 1.844-0.547 3.984-1.531 3.719-1.719 3.719-3.078 0-0.531-0.633-2.102t-0.633-2.055q0-0.734 0.75-1.531 0.313 0 0.578 0.453 0.922 3.563 5.125 3.563 1.328 0 3.922-0.766 2.703-0.813 3.641-1.547-0.203-0.422-1.375-0.891-0.969-0.391-1.266-0.391-0.188 0-1.766 0.141-2.094 0.203-3.172 0.25-0.172-0.172-0.172-0.609 0-1.328 1.859-2.125 1.375-0.578 2.609-0.578 0.281 0 4.117 1.328t6.414 1.328q0.297-0.047 1.094-0.125 0.906-0.078 1.422-0.031 0.172 0.172 0.172 0.469 0 1.5-2.313 1.828-1.156 0.141-1.469 0.25-0.5 0.141-0.5 0.922 0 1.75 2.391 2.484 1.297 0.406 2.875 0.406 1.281 0 3.234-0.625 0.578-0.094 1.297-0.703 0-1.094 0.078-2.078 0.016-0.469 1.063-2.281 1.172-2.078 2.016-2.078 0.859 0 1.641 1.703 0.641 1.438 0.641 2.125 0 0.234-0.188 1.125-0.078 0.266-0.5 1.078t-0.422 0.984q0 0.625 1.953 0.625 2.484 0 2.484-2.094 0 0.469-0.391-3.891t-0.688-10.438q0-0.219-0.148-0.711t-0.148-0.742q0-0.641 0.859-1.797 0.438 0 0.594 0.328 1.719 3.484 1.719 3.875v0.75zM26.469 5.406q0-0.047-0.141 0.563l-0.031 0.063q-0.125 0.141-0.391 0.141-0.344 0-0.891-0.563-0.313 0.141-0.781 1.328-0.469 1.281-0.859 1.594-0.375-0.063-0.813-0.875-0.5-0.938-0.891-1.172-0.297-0.063-0.906-0.281-0.797-0.297-0.797-0.922 0-0.359 0.25-0.844t0.594-0.484q0.469 0 2.531 2.094 0.25-0.438 0.719-1.328 0.609-1.031 0.953-1.031 0.406 0 0.93 0.664t0.523 1.055zM38.781 20.844q0 0.297-0.531 0.836t-0.766 0.539q-0.328 0-1.102-0.727t-0.773-1.039q0-0.281 0.469-0.922t0.703-0.641q0.547 0 1.273 0.719t0.727 1.234zM30.906 18.797q-0.047 1.203-0.945 2.328t-2.086 1.656v-0.469q-0.016-0.188 0.594-0.906 0.734-0.891 0.906-1.172-0.063-0.078-0.234-0.078-0.156 0-0.672 0.141-0.203-0.188-0.203-0.484 0-0.422 0.57-1t0.961-0.578q0.469 0 1.109 0.563zM19.141 13.859q0 0.578-0.789 1.563t-1.383 0.984q-0.734 0-1.219-1.422-0.359-1.031-0.359-1.703 0-0.813 0.594-2.656 0.641-2.016 1.141-2.359h0.469q0 0.016 0.086 0.117t0.086 0.273q0 0.156-0.25 0.484t-0.297 0.453q-0.563 1.797-0.563 2.875 0 0.688 0.766 1.734 0.484-0.344 1.391-0.844 0.328 0.344 0.328 0.5zM18.719 24.172q0 0.609-0.594 0.922-3.688 1.969-4.891 1.969h-0.563q-0.078-0.25-0.328-0.719 0.672-0.563 6.031-2.578 0.328 0.297 0.344 0.406zM57.219 13.359q0-0.141-0.422-0.906-0.469-0.859-0.766-0.859-0.359 0-0.914 0.797t-0.555 1.188q0 0.172 0.367 0.602t0.539 0.43q1.75-0.641 1.75-1.25zM35.734 0.047v-0.5q-0.859-0.422-1.063-0.422 0 0.063-0.086 0.328t-0.086 0.438q0.375 0.391 0.719 0.391 0.266 0 0.516-0.234z"></path>
</svg>
