<!-- Generated by IcoMoon.io -->
<svg version="1.1" xmlns="http://www.w3.org/2000/svg" width="60" height="32" viewBox="0 0 60 32">
<title>surah9</title>
<path d="M59.766 19.656q0 1.484-0.469 2.938-0.172 0.516-0.813 0.984-0.766-7.859-1.953-21.219-0.047-0.328-0.281-1.141t-0.234-1.078q0-0.719 1.047-2.016 2.281 4.109 2.281 4.203v0.75l-0.344 0.313q-0.469-0.266-0.781-0.422zM47.313 5.109q0 1.531-1.016 1.969-0.344 0.047-1.125 0.25-0.156 0.031-0.57 0.266t-0.617 0.234q-1.25 0-1.25-1.531 0-1.313 0.813-1.797-0.031 0.344 0.063 1.281 0.078 0.188 0.328 0.484h-0.031q-0.016 0 0 0.031h0.219q0.234 0 0.375-0.219-0.078-0.859 0.375-2.141 0.344 0.016 0.531 0.641 0.25 0.781 0.469 1.031 0.594-0.156 0.594-0.688 0-0.156-0.047-0.453t-0.047-0.438q0-0.422 0.313-0.641 0.625 0.391 0.625 1.719zM48.422-0.766q0 0.641-0.594 0.938-2.313 1.109-6.891 3.391-5.969 2.953-5.969 3.688 0 0.172 0.328 0.469 0.375 0.375 0.516 0.563v0.75q-0.172 0.172-0.547 0.172-1.391 0-1.391-1.656 0-1.125 1-2.016 0.047-0.047 3.641-2.039t8.125-4.133q1.109-0.516 1.031-0.516h0.578q0.172 0.141 0.172 0.391zM47.453 9.891q0 0.266-0.43 0.898t-0.68 0.633q-0.172 0-0.945-0.492t-0.93-0.492q-0.109 0-0.594 0.625t-0.656 0.625q-0.422 0-1.008-0.445t-0.586-0.867q0-0.313 0.438-0.883t0.734-0.57q0.156 0 0.695 0.273t0.711 0.273q0.156 0 0.594-0.555t0.844-0.555q0.391 0 1.102 0.594t0.711 0.938zM36.891-1.016q0.047 0.078 0.047 0.141 0 0.875-1.414 2.148t-2.273 1.273q-0.266 0-0.609-0.281v-0.406q0.641-0.359 1.938-1.375-0.531-0.297-1.109-0.297-0.219 0-0.953 0.391-0.984 0.5-1.203 0.594-0.109-0.047-0.328-0.188 0.891-1.5 1.375-1.922 0.766-0.672 2.141-0.672 1.625 0 2.391 0.594zM55.875 21.234q0 1.891-2.516 4h-0.641q0-0.313 1.047-1.555t1.031-1.648q-0.234-0.234-0.578-0.234-0.141 0-0.398 0.063t-0.383 0.063q-0.172-0.016-0.172-0.344 0-0.422 0.578-0.938t1-0.516q0.313 0 0.672 0.406t0.359 0.703zM28.203 0.063q0 0.156-0.070 0.328t-0.070 0.188q-0.25 0.125-0.578 0.125-0.266 0-0.563-0.094-0.344 1.297-1.109 3.859h-0.484q-0.813-1.719-1.531-2.438-0.125-0.047-0.906-0.234-0.641-0.203-0.641-0.813 0-1.188 0.984-1.188 0.688 0 1.25 0.766 0.969 1.344 1.031 1.453 0.078-0.078 0.281-0.375-0.047-0.422 0.266-1.469 0.391-1.359 1.031-1.359 0.469 0 0.844 0.594 0.266 0.438 0.266 0.656zM47.313 22.141q0 0.922-0.766 1.891t-1.656 1.328h-0.609q0.656-0.828 1.922-2.641-0.219-0.125-0.797-0.109-0.313-0.297-0.313-0.469 0-0.313 0.43-0.672t0.758-0.359q1.031 0 1.031 1.031zM33.063 4.5q0 0.719-2.266 1.844-1.156 0.734-2.219 1.281-2.078 1.078-4.016 2.219-0.297 0.172-0.891 0.688l0.375 1q0 0.375-0.328 0.719h-0.578q-0.625-0.484-0.625-0.984 0-1.75 2.469-3.203 1.234-0.609 3.672-1.922 3.063-1.734 4.047-2.063 0.359 0.328 0.359 0.422zM53.266 14.859q0 1.953-1.234 3.547-1.328 1.719-3.203 1.719-1.172 0-1.891-0.875-0.219-0.594-0.688-1.734-1.703 0.641-1.875 0.75-1.078 0.484-1.625 1.156-0.219 0.906-0.906 2.484-1.359 1.844-4.313 3.352t-5.234 1.508q-1.328 0-2.125-0.313-2.141-0.875-2.141-3.844 0-1.125 0.297-2.547 0.078-0.328-0.391-0.328-0.297 0-0.898 0.063t-0.93 0.063q-2.406 0-3.938-1.078-0.891-0.625-1.797-2-0.703-1.078-1.109-1.078-1.078 0-2.313 2.797-0.422 1.031-1.281 3.125-1.297 1.828-2.328 1.828-1.625 0-2.672-2.703-0.688-1.859-0.703-2.891-0.031-1.328 0.188-4.172 0-0.156-0.219-0.5t-0.25-0.438q-0.313-0.984-0.313-1.953 0-3.141 2.531-7.656 0.25-0.313 0.625-0.313 0.297 0.313 0.297 0.422 0 0.141-0.938 1.891-0.813 1.5-1.094 3.031-0.188 1.031-0.188 1.219 0 1.828 0.766 2.031 0.484-0.469 1.688-1.391 0.203 0.031 0.203 0.344 0 0.344-0.891 2.391-0.484 0.422-1.172 1.234-0.297 0.547-0.297 2.047 0 1.328 0.688 3.172 0.828 2.172 1.875 2.172 0.922 0 1.672-1.625 0.094-0.25 1.594-3.969 1.328-2.516 3.547-2.563 0.25 0.25 0.656 0.859 1.453 3.547 5.625 3.547 1.281 0 3.828-0.734 3.078-0.891 3.078-1.828 0-0.141-0.836-1.297t-0.836-1.328q0-0.547 0.594-1.734 0.906 0.234 1.578 1.609 0.609 1.234 0.609 2.266 0 2.563-2.406 3.719-0.969 0.313-2.563 1.375-0.438 0.516-0.438 1.625 0 1.406 1.055 2.328t2.477 0.922h0.938q0.672 0 3.25-1.234 2.313-1.109 2.563-1.281 1.328-0.984 2.047-1.875v-0.516q-0.25-0.219-0.344-0.219-0.281 0-0.828 0.148t-0.844 0.148q-2.828 0-2.828-2.578 0-0.969 0.906-2.188t1.844-1.219q0.781 0 1.766 1.375 0.422 0.625 1.266 1.828 2.141-0.047 4.203-2.063h0.5q0.141 0.594 0.484 1.75t1.672 1.156q0.766 0 1.656-0.469 1-0.547 0.938-1.266l-2.094-15.875q0.172-0.766 0.734-1.922h0.469q1.844 3.281 1.844 4.063v0.625q-0.125 0.063-0.516-0.031t-0.469-0.094zM29.172 12.594q0 0.5-0.383 0.977t-0.852 0.477q-0.844 0-0.844-1.25 0-0.766 0.375-1.672 0.422-1.047 0.984-1.359 0 0.297-0.195 0.961t-0.195 0.883v0.672q0.172-0.031 0.938-0.172 0.172 0.188 0.172 0.484zM21.984 7.938q0 0.344-0.461 0.938t-0.805 0.594q-0.125 0-0.82-0.406t-0.898-0.406q-0.141 0-0.648 0.555t-0.664 0.555q-0.359 0-1.938-1.125-0.078-0.297 0.438-1.047t0.875-0.75q0.141 0 0.781 0.352t0.813 0.352q0.141 0 0.688-0.555t0.688-0.555q0.422 0 1.188 0.555t0.766 0.945zM24.188 24.172q0 0.344-0.461 0.914t-0.789 0.57q-0.219 0-1.797-1.125 0.391-1.766 1.375-1.766 0.391 0 1.031 0.531t0.641 0.875zM20.188 22q0 0.391-2.023 1.813t-2.367 1.422h-0.734v-0.578q0-0.422 2.188-1.703 1.969-1.156 2.766-1.422 0 0.031 0.086 0.164t0.086 0.305zM40.125 17.297q-0.797-1.031-1.109-1.031-0.25 0-0.563 0.297v0.484q0.75 0.469 1.25 0.469 0.219 0 0.422-0.219z"></path>
</svg>
