<!-- Generated by IcoMoon.io -->
<svg version="1.1" xmlns="http://www.w3.org/2000/svg" width="62" height="32" viewBox="0 0 62 32">
<title>surah90</title>
<path d="M53.688-4q0 0.672-0.727 1.484t-1.414 0.813q-1.188 0-1.188-1.109 0-0.563 0.516-1.828 0.594-1.375 1.016-1.375 0.516 0 1.156 0.742t0.641 1.273zM61.734 20.672q0 0.656-0.625 1.938-0.141 0.234-0.609 0.453l-0.438-6.5-1.797-15.172q0-0.313 0.703-2.109h0.5l1.813 4.031v1.063q-0.75-0.297-0.984-0.297-0.047 0.469-0.234 1.328l1.672 11.078v4.188zM45.391 3.563q0 0.547-0.508 1.156t-1.023 0.609q-0.547 0-0.898-0.539t-0.352-1.102q0-0.609 0.703-2.047 0.594-1.203 0.875-1.547h0.484v0.484q0 0.172-0.477 1.102t-0.477 1.102q0 0.141 0.391 0.922 0.219 0 1.078-0.578 0.203 0.219 0.203 0.438zM40 1.391q0 0.453-0.469 0.922-0.297 0-1.141-0.578-0.438 0.703-0.656 2.641-0.219 1.828-0.969 2.641h-0.484q-0.563-1.313-0.672-1.516-0.438-0.859-0.984-1.219-0.609-0.156-1.969-0.891-0.063-1.766 0.969-1.766 0.859 0 1.672 0.906 0.422 0.516 1.297 1.578 0.297-0.375 0.688-2.516 0.359-1.797 0.969-1.797t1.18 0.508 0.57 1.086zM46.219 13.656q0 0.594-0.484 1.234-0.547 0.703-1.109 0.703-1.063 0-1.063-1.594 0-0.563 0.531-1.758t0.953-1.57q0.172-0.094 0.297-0.094 0.094 0 0.172 0.078l-0.844 2.5q0 0.422 0.375 0.766 0.297-0.188 0.953-0.688 0.219 0.203 0.219 0.422zM57.844 23.359q0 0.703-1.094 1.844t-1.891 1.438h-0.469v-0.484q0.766-0.688 2.078-2.063-0.109-0.078-0.5-0.078h-0.438q-0.172 0-0.172-0.313 0-0.328 0.586-0.891t0.914-0.563q0.984 0 0.984 1.109zM49.813 6.672q0 1.078-3.781 2.328-2.547 1.234-3.719 1.703-7.016 2.688-7.016 3.938 0 0.125 0.406 0.617t0.406 0.664v0.906q-0.047 0-0.188 0.078t-0.313 0.078q-0.734 0-1.203-0.875-0.359-0.656-0.359-1.078 0-1.453 0.734-2.141 1.375-1.234 3.688-2.234 1.25-0.516 3.766-1.609 3.109-1.391 7.234-2.875 0.344 0.344 0.344 0.5zM48.703 25.266q0 0.266-0.563 0.898t-0.813 0.633q-0.359 0-1.148-0.609t-0.789-0.922 0.453-0.977 0.781-0.664q0.359 0 1.219 0.648t0.859 0.992zM25.688 0.469q-0.813 0.75-2.75 1.609-2.313 1.047-2.922 1.453h-0.641q0-0.016-0.078-0.125t-0.078-0.281q0-0.578 1.703-1.406 0.594-0.266 2.063-0.969 1.094-0.531 2.422-1.078 0.172 0.156 0.281 0.156v0.641zM55.078 17.813q0 0.156-0.188 1.188-0.297 1.578-1.5 2.609t-2.813 1.031q-0.688 0-1.523-1.383t-1.523-1.383q-0.156 0-0.844 0.531-0.813 0.609-1.203 0.813-1.938 0.906-4.547 1.625-2.891 0.781-4.75 0.781-1.313 0-3.125-0.641-2.297-0.781-3.109-2-0.203 0.578-0.984 1.781-1.203 1.406-2.688 1.406-1.813 0-2.5-1.109-0.625-1.453-1.219-2.906-0.188 0-0.313 0.125-0.969 1.469-4.313 3.484-3.422 2.063-5.094 2.063-1.594 0-2.563-1.125-0.906-1.031-0.906-2.672 0-1.188 0.891-3.359 0.063-0.188 0.641-1.219 0.406-0.766 0.406-0.969 0 0.172-0.359-0.953-0.172-0.578-0.172-1.672 0-3.016 2.109-6.156 0.516 0 0.516 0.484 0 0.156-0.047 0.297-1.328 2.516-1.328 4.141 0 2.141 1.031 2.141 0.375 0 0.75-0.641l0.563-0.891q0.266 0.203 0.266 0.5 0 0.516-0.563 1.688-0.594 1.266-1.023 1.375t-1.148 0.703q-1.125 2.063-1.125 3.719 0 0.828 0.672 1.484t1.547 0.656q1.672 0 5.016-1.828 3.844-2.063 3.844-4.078 0-1.516-1.109-4.516t-1.109-3.844q0-0.906 0.438-1.797 0.422 0 0.594 0.297 0.672 1.359 1.672 3.75 0.547 1.703 1.109 4.031 0.031 0.344 0.094 0.969 0.109 0.391 0.328 1.391 0.203 1.188 0.484 2.609 0.578 1.453 2.078 1.453 2.063 0 2.063-1.922l-1.797-18.063q0-1.75 0.734-2.281 0.297 0 0.594 0.469 1.016 4.031 1.375 9.563l0.422 5.797q0.469 3.141 2.094 4.516 0.563 0.469 2.438 0.938 1.719 0.453 2.641 0.453 0.188 0 0.555-0.109t0.539-0.109q5.797-0.359 10.25-3.922 0.344 0.078 0.813 1.703 0.422 1.469 2.047 1.469 2.328 0 2.328-2.016l-2.063-17.078q0-0.969 0.734-1.922 0.344 0 0.453 0.141 2.141 4.359 2.141 4.578v0.469q-0.328 0.328-0.469 0.328-0.281 0-0.578-0.281-0.063 0.234-0.063 1.109zM22.391 24.313q0 0.516-1.758 1.633t-2.18 1.117h-0.609v-0.594q0-0.469 1.891-1.469 0.5-0.25 2.172-1.109 0.484 0 0.484 0.422zM52.297-3.75q-0.313-0.297-0.656-0.297l-0.172 0.641 0.656 0.172q0.172-0.188 0.172-0.516z"></path>
</svg>
