<!-- Generated by IcoMoon.io -->
<svg version="1.1" xmlns="http://www.w3.org/2000/svg" width="68" height="32" viewBox="0 0 68 32">
<title>surah91</title>
<path d="M67.813 4.875q-0.203 0.016-1.016 0.016-0.266 0.266-0.219 0.813l0.969 13.438q0.016 0.516 0.016 0.984 0 3.203-1.422 4.703-0.25-0.25-0.094-1.453 0.219-1.641 0.188-1.938-0.188-3.766-0.781-12.188l-0.547-7.531q0-1.078 1.063-1.953 1.844 3.719 1.844 4.484v0.625zM55.625 8.063q0 0.344-0.492 0.938t-0.805 0.594q-0.25 0-1.563-0.953-1.344 0.906-1.375 0.953-0.313 0-1.016-0.602t-0.703-0.93q0-0.688 1-1.453 0.125-0.094 0.5-0.094 0.203 0 0.313-0.078-0.047-0.141-0.406-0.609-0.297-0.375-0.297-0.672 0-0.359 0.414-1.016t0.758-0.656q0.516 0 1.109 0.891 0.5 0.719 0.5 1.016 0 0.266-0.469 0.914t-0.719 0.648q-0.391 0-0.344-0.016 0 0.094 0.375 0.438 0.172-0.094 0.734-0.563 0.469-0.391 0.688-0.391 0.344 0 1.070 0.727t0.727 0.914zM63.531 22.125q0 0.984-1.141 2.219-0.953 1.047-2.016 1.594l-0.016-0.125q0-0.406 0.875-1.406l1.188-1.344v-0.375q-0.25-0.219-0.344-0.219-0.172 0-0.531 0.133t-0.5 0.133v-0.469q0-0.438 0.828-0.984 0.328-0.188 0.75-0.188 0.906 0 0.906 1.031zM57.281 23.5q0 0.516-0.813 1.398t-1.328 0.883q-0.469 0-0.813-1-0.234-0.688-0.234-1.125 0-2.766 2.203-4.641-0.938 3.75-0.938 3.297 0 1.406 0.734 1.406 0.297 0 0.984-0.688 0.203 0.203 0.203 0.469zM50.922-0.172q-0.875 1.203-1.547 1.563-1.109 0.344-3.203 1.328-0.438 0.281-0.891 1.125t-0.453 1.391q0 0.156 0.055 0.477t0.055 0.461q0.156-0.031 1.109-0.031v0.5q0 0.266-0.5 0.773t-0.781 0.508q-0.406 0-0.727-0.492t-0.32-0.945q0-0.828 0.828-2.781-0.094-0.094-0.266-0.219l-19.344 7.219q-0.172-0.031-0.172-0.344 0-1.406 3.516-2.875 1.234-0.453 3.719-1.391 2.734-1.031 9.406-3.438 2.656-0.984 9.172-3.297 0.094 0.188 0.344 0.469zM40.953 10.5q0 0.813-0.703 1.797-0.797 1.031-1.578 1.031-1.328 0-1.328-1.375 0-0.563 0.516-1.766 0.563-1.438 1.156-1.438 0.484 0 1.211 0.633t0.727 1.117zM33.625 0.734q0 0.547-0.641 0.828-0.078-0.016-0.445-0.352t-0.586-0.336q-0.547 0-1.016 2.297-0.375 1.797-0.984 2.141-0.203-0.125-0.742-1.32t-1.258-1.68q-0.219 0-0.656-0.078-0.891-0.328-0.891-1.078 0-1.266 0.844-1.266 0.594 0 1.516 1.094 0.625 0.703 1.313 1.547 0.344-0.859 0.953-2.297 0.453-1.031 1.141-1.031 0.297 0 0.875 0.617t0.578 0.914zM50.922 22.391q0 0.969-1.18 2.242t-2.086 1.273q-0.125 0-0.203-0.031 0.156-0.297 1.313-1.344 1.047-0.938 1.047-1.375 0-0.391-0.406-0.391-0.125 0-0.398 0.047t-0.445 0.047v-0.438q0-0.344 0.539-0.703t0.914-0.359q0.906 0 0.906 1.031zM61.281 4.156q-0.313 0.313-0.453 0.313-0.172 0-0.336-0.148t-0.195-0.148q-0.094 0.375-0.094 0.938 0 1.188 0.422 3.586t0.422 3.602q0 1.625-0.844 3-1 1.625-2.563 1.625-0.906 0-2.359-1.25-1.922 1.547-2.219 1.547-0.688 0-2.203-1.547-0.875 0.719-2 0.969-0.672 0.141-1.953 0.391 0.844 0.859 0.844 1.969 0 3.609-2.219 3.609-1.719 0-3.563-2.922-4.484 0.859-4.188 0.859-0.5 0-2.703-1.547-0.156 0-1.211 0.836t-1.227 0.836q-0.891 0-1.453-0.563l-0.844-1.109q-0.781 0.422-2.313 0.953-0.469 0-1.375 0.078-0.25 0.938-0.859 2.406-1.141 1.625-4.625 3.141-3.25 1.453-5.203 1.453-2.438 0-3.953-1.25-1.656-1.344-1.656-3.734 0-1.766 1.203-4.797-0.094 0.203-0.219-1.063-0.094-1.234 0.297-2.953 0.25-0.547 0.828-2.063 0.359-0.844 1.953-3.109h0.469q0.172 0.031 0.172 0.375-2.344 4.719-2.344 5.469 0 1.391 0.891 1.641 0.734-0.469 0.938-1.109l0.641 0.203q-0.422 1.156-1.672 2.953-0.25 0.094-0.844 0.375-0.438 0.172-0.781 1.281-0.281 0.906-0.281 1.5 0 1.734 0.984 2.578 1.578 1.359 2.469 1.359h1.531q1.625 0 4.75-1.109 3.813-1.375 3.813-2.984 0-0.297-0.555-1.797t-0.555-1.797q0-0.219 0.32-0.922t0.461-0.797q0.469 0.688 1.063 1.406 0.766 0.938 2.266 0.938 0.891 0 2.016-0.719 0.453-0.266 1.109-1.156 0.516-0.203 0.641-0.203 0.031 0.109 0.031 0.281t-0.039 0.547-0.039 0.578q0 1.234 1.109 1.234 1 0 1.594-1.328 0.688-1.563 1.328-1.844 0.297 0.266 0.375 0.609-0.047 0.125-0.047 0.563 0 0.813 0.828 1.375 0.75 0.469 1.609 0.469 1.938 0 2.734-0.563 0.188-0.141 0.266-0.688 0.078-0.734 0.141-0.906 1.5-4.188 3.281-4.188 0.359 0 1.383 1.438t2.008 1.438q1.5 0 3.297-2.328 0.281 0 0.469 0.313-0.016-0.094-0.047-0.094-0.016 0.125-0.016 0.953 0 1.453 1.297 1.453 0.859 0 1.5-1.109l0.688-1.672q0.328 0.297 0.813 1.578 0.375 0.906 1.781 0.906 1.031 0 1.219-0.516v-1.328l-1.219-11q0-0.422 0.703-2.219 0.375 0 0.469 0.156 0.813 1.438 1.844 4.5zM20.875 8.906q0 0.484-0.445 1.008t-0.945 0.523q-0.266 0-0.68-0.445t-0.414-0.742q0-0.688 0.641-2.125 0.656-1.516 1.203-1.672l-0.75 2.422q0 0.469 0.406 1.031 0.172-0.047 0.781-0.422 0.203 0.203 0.203 0.422zM39.406 22.078q0 0.875-0.438 1.047-8.406 3.203-9.156 3.203h-0.875q-0.172-0.172-0.172-0.391 0-0.594 0.594-0.797 3.766-1.219 9.313-3.219 0.172 0 0.438 0.078t0.297 0.078zM20.875 14.859q0 0.297-0.297 0.797-0.172 0.047-1.281 0.141-0.766 0.078-0.906 0.484l0.703 2.563v1.563q0 2.234-0.734 2.609-0.031-0.938-0.297-3.359-0.25-1.5-0.438-2.375-0.203-0.797-0.203-0.578 0-0.859 0.797-1.938-0.125-0.156-0.203-0.563 0.641-1.016 0.938-1.016 0.484 0 1.203 0.594t0.719 1.078zM46.625 16.75q-1.234-1.219-1.578-2.266-0.203-0.313-0.5-0.313-0.516 0-1.016 0.828t-0.5 1.391q0 0.094 0.313 0.391 1.109-0.078 2.016-0.078 0.688 0 1.266 0.047zM39.547 11.359v-0.484q-0.281-0.156-0.734-0.438-0.266 0.359-0.266 0.703 0 0.203 0.078 0.391h0.531q0.328 0 0.391-0.172zM46.203 19.953q-0.328-0.656-0.766-0.656h-0.734q0.141 0.313 0.648 0.508t0.852 0.148z"></path>
</svg>
