<!-- Generated by IcoMoon.io -->
<svg version="1.1" xmlns="http://www.w3.org/2000/svg" width="54" height="32" viewBox="0 0 54 32">
<title>surah92</title>
<path d="M53.578 3.594q-0.031 0.172-0.344 0.172-0.266 0-0.844-0.547-0.234 0.25-0.188 1.188l1.109 15.063q0.016 0.234-0.328 3.203-0.266 0.625-0.656 1.844h-0.531q-0.094-0.406-0.094-2.125 0-1.375 0.078-3.594l-0.969-13.297v-3.469q0-0.188-0.203-0.719t-0.203-0.75q0-0.328 0.414-1.297t0.633-1.047q1.516 3.063 2.125 4.906v0.469zM37.234-1.359q0.016 0.656-2.781 2-1.234 0.563-4.359 2.016-0.094-0.203-0.313-0.469 0.141-0.297 0.578-0.719 5.031-2.828 6.016-2.828h0.859zM49.719 22.484q-0.109 0.938-1.25 2.281t-2.063 1.563q-0.063-0.422 0.992-1.367t1.055-1.414q0-0.188-0.531-0.438v-0.469q0.578-0.594 1.078-0.594 0.25 0 0.719 0.438zM35.313 9.422q0 0.516-0.891 1.359-0.781 0.75-1.375 0.984-0.391 0.063-1.25 0.313-0.672 0-1.609-0.172 0.172-0.375 1.109-0.828 1.188-0.594 1.375-0.766 0-0.125-0.234-0.281-0.625-0.313-1.281-0.313-0.125 0-1.438 0.813h-0.484q0.344-0.984 1.125-1.75 0.891-0.859 1.828-0.859 0.641 0 1.813 0.469 1.313 0.531 1.313 1.031zM47.219 3.734q-0.344 0.297-0.484 0.297-0.172 0-0.438-0.266-0.375 0.141-0.328 0.688l1.109 12.719q0.047 0.516 0.047 0.984 0 2.438-1.094 3.719t-2.969 1.281q-1.328 0-2.109-0.906-0.328-0.344-1.281-2.141-0.25 0.484-1.109 1.469-1.328 1.016-3.125 1.016-0.906 0-1.375-0.281-0.625-0.359-1.609-1.672-0.469 0.578-1.75 1.625-1.172 0.75-2.609 0.75-0.266 0-0.641-0.234-2.063 0.031-3.313-3.359h-0.125q-1.141 2.109-4.734 3.813-3.359 1.563-6.047 1.563-0.969 0-2.25-0.156-1.047-0.172-2.070-1.656t-1.023-2.609q0-1.719 0.836-3.938t0.836-2.141q0-0.516-0.344-1.539t-0.344-1.508q0-0.359 0.438-1.75 0.5-1.609 0.984-2.516 0.797-1.531 2.219-3.078 0.516 0 0.516 0.344 0 0.172-0.656 1.188-0.766 1.203-0.984 1.625-1.016 1.859-1.016 3.203 0 1.813 0.906 1.813 0.25 0 0.672-0.594 0.594-0.828 0.719-0.953 0.359 0.359 0.359 0.719 0 0.75-1.031 2.313-0.594 0.469-1.594 1.516-0.469 0.672-0.922 2.016-0.344 1.141-0.344 1.563 0 2.625 2.438 3.609 0.422 0.172 2.047 0.172 2.172 0 5.016-1.203 3.188-1.359 4.578-3.172 0.641-0.859 0.453-3.375l-1.109-14.25q-0.125-1.797 0.906-2.641 0.375 0.344 0.422 0.766 1.188 7.188 1.188 9.406v3.891q0 1.25 0.234 3.688 0.328 2.891 0.75 3.625 0.813 1.328 2.531 1.328 2.219 0 3.078-1.328 0.266-0.469 0.859-1.359 0.484-0.734 1.109-0.891 0.094 3.453 2.703 3.453 0.672 0 1.656-0.578t1.125-1.172q0.203-0.766 0.203-0.953l-0.844-17.109q-0.047-1.141 0.625-2.188 0.516 0.172 0.813 2.266 0.188 1.547 0.688 8.438-0.031 1.063 0.188 3.172 0.031 0.094 0.078 3.156 0.078 5.391 2.734 5.391 2.359 0 2.219-1.75l-1.531-18.344q-0.047-0.516 0.906-2.063 0.375 0.484 0.984 1.547 1.031 2.344 1.031 3.078v0.469zM19.391-0.406q0 0.156-0.078 0.367t-0.078 0.305q-0.016 0-0.117 0.086t-0.273 0.086q-0.219 0-0.484-0.25-0.359-0.266-0.453-0.297-0.359-0.094-0.563 0.5-0.094 1.281-0.766 3.641-0.391-0.125-0.688-0.953-0.375-1.063-0.422-1.141-0.422-0.594-1.453-1.109-0.703-0.359-0.703-1.078 0-0.328 0.289-0.719t0.586-0.391q0.672 0 1.969 1.797 0.203 0 0.281-0.094l0.656-1.313q0.5-0.813 1.031-0.813 0.344 0 0.805 0.531t0.461 0.844zM36 25.641q0 0.266-0.508 0.883t-0.742 0.617q-0.156 0-0.93-0.484t-0.914-0.484q-0.172 0-0.852 0.484t-0.836 0.484q-0.281 0-1.148-0.617t-0.867-0.883q0-0.406 0.461-1.039t0.805-0.633q0.172 0 1.070 0.547t1.070 0.547q0.125 0 0.688-0.617t0.766-0.617q0.438 0 1.188 0.68t0.75 1.133zM18.703 7.656q0 0.75-1.188 0.953-1.375 0.219-1.594 0.609 0.094 0.469 0.859 3.453 0.531 2.109 0.531 3.469 0 0.563-0.563 2.359-0.484 1.625-0.688 2-0.141-0.25-0.141-0.672 0-0.406 0.219-1.258t0.219-1.242q-0.031-0.156-0.516-2.953-0.891-5.031-0.891-4.234 0-0.984 1.109-2.563-0.688-0.281-0.688-0.422 0-0.422 0.445-1.008t0.852-0.586q0.516 0 1.273 0.773t0.758 1.32zM24.922 23.156q0 0.141-0.188 0.641-0.5 0.609-2.547 1.563-2.406 1.156-3.25 1.781-0.063 0-0.234-0.078t-0.281-0.078v-0.766q0.688-0.531 5.984-3.063h0.516z"></path>
</svg>
