<!-- Generated by IcoMoon.io -->
<svg version="1.1" xmlns="http://www.w3.org/2000/svg" width="66" height="32" viewBox="0 0 66 32">
<title>surah93</title>
<path d="M66.391 3.766q0 0.141-0.078 0.328t-0.078 0.203h-0.656l-0.375-0.422q-0.219 0.234-0.219 0.844l1.109 12.453q0 2.938-0.453 4.922-0.266 1.109-1.172 1.734l-0.375-12.469-1.031-10.375q0-0.25 0.469-1.063t0.703-1.016q0.594 0.516 1.094 1.797 0.688 1.828 0.828 2.125 0.234 0.359 0.234 0.938zM55.156 7.078q0 0.344-0.406 1t-0.703 0.656q-0.141 0-0.156-0.078t-0.188-0.078q-0.141 0.063-0.117 0.18t-0.148 0.117q-0.453 0-0.719-0.703-0.188-0.516-0.188-0.891 0-0.688 0.727-1.922t1.336-1.594v0.75q0 0.172-0.344 0.555t-0.344 0.539v1.234l0.25 0.234q0.266-0.141 0.813-0.406 0.188 0.188 0.188 0.406zM51.141 2.797q0 0.844-0.438 1.531-0.5 0.813-1.281 0.813-0.141 0-0.414-0.078t-0.414-0.078q-0.188 0-0.906 0.422t-0.891 0.422q-1.313 0-1.313-2.563 0-1 0.594-1.719 0.438 0.219 0.438 0.781 0.031 0.625 0 0.984 0.125 0.469 0.672 0.719 0.656-0.438 0.594-1.703-0.063-1.453 0.219-1.891 0.563 0.141 0.766 1.297 0.219 1.234 0.781 1.453l0.125-0.094q0-0.219-0.102-0.641t-0.102-0.641q0-0.531 0.469-1.234 0.422 0 0.594 0.297 0.609 1.031 0.609 1.922zM49.625 9.375q0 0.313-0.43 0.867t-0.758 0.555q-0.438 0-1.219-0.563t-0.781-1.016q0-0.438 0.484-1.016t0.906-0.578q0.484 0 1.141 0.664t0.656 1.086zM41.859 2.922q0 0.547-0.461 1.109t-0.992 0.563q-1.031 0-1.031-1.406 0-0.609 0.492-1.703t0.945-1.594h0.484q-0.313 0.891-0.688 2.125v0.531q0.25 0.25 0.375 0.25 0.063-0.047 0.703-0.266 0.172 0.172 0.172 0.391zM60 22.031q0.031 0.172 0.031 0.359 0 2.313-2.984 4.063h-0.484q0-0.109-0.156-0.344 0.813-0.891 2.219-2.609l-0.219-0.219q-0.375 0.141-0.813 0.547h-0.484v-0.594q0-0.344 0.75-1.047t1.109-0.703q0.203 0 0.57 0.258t0.461 0.289zM43.813 12.625q0 0.469-0.492 1.055t-0.961 0.586q-1.188 0-1.188-1.297 0-0.734 0.625-1.922 0.688-1.281 1.328-1.281 0.141 0 0.266 0.078-0.422 0.469-0.828 1.297v1.234q0.063 0.047 0.188 0.047 0.297 0 0.891-0.219 0.172 0.203 0.172 0.422zM38.547-0.516q0 0.75-2.266 1.422-0.5 0.125-2.188 0.688-5.813 1.922-9.656 3.547-0.984 0.422-1.797 1.453 0.328 0.219 0.25 1.578-0.031 0-0.211 0.070t-0.305 0.070q-0.5 0-0.844-0.563-0.266-0.453-0.266-0.734 0-0.547 0.781-1.563 0.766-0.938 1.313-1.219 2.328-1.188 9.719-3.875 3.688-1.344 4.188-1.297h1.125q0 0.016 0.078 0.125t0.078 0.297zM59.891 14.906q0 0.422-0.344 2.484-0.203 1.266-0.844 1.969-1.234 1.391-5.25 2.219-2.266 0.453-4.938 0.453-0.156 0-2.422-0.125l-2.438-0.156q-0.313 0-0.609 0.797-0.219 0.516-0.641 1.25-0.266 0.297-0.484 0.297-0.328-0.297-0.328-0.547 0-0.188 0.219-0.859 0.281-0.813 0.344-1.109l-2.438-2.188q-0.656 0.719-2.156 1.891-1.313 0.75-2.813 0.75-0.938 0-2.188-0.75-1.531-0.875-1.719-2.063-0.109-1.484-0.344-4.156-0.109-0.125-0.344-0.375-0.922 0.125-4.609 2.016 0.594 0.219 1.828 0.688 1.344 0.594 1.344 1.688 0 3.234-5.563 5.5-4.281 1.719-7.234 1.719-2.563 0-4.234-1.469-1.797-1.547-1.797-4.063 0-1.281 0.672-2.969l0.859-2.344q0-0.547-0.289-1.656t-0.289-1.672q0-2.219 2.688-6.891 0.297-0.516 1.141-1.063 0.188 0.156 0.344 0.156v0.766q0 0.141-0.625 1.078-0.766 1.188-0.875 1.422-0.125 0.344-0.766 2.078-0.344 0.953-0.344 1.5 0 1.984 0.813 1.984 0.234 0 0.695-0.547t0.773-0.547q0.031 0.016 0.047 0.047 0.156 0.141 0.156 0.438 0 0.547-0.688 1.719-0.594 1.063-0.766 1.219-2.016 1.766-2.016 3.781 0 1.891 1.453 3.25t3.344 1.359q0.25 0 0.484-0.031 0.516-0.688 0.516-2.438 0-1.031-0.477-2.766t-0.477-2.234q0-0.641 1.156-2.5v-0.172q-0.141 0.125-0.422 0.125l-0.016-0.031q-0.156-0.141-0.156-0.516 0-0.547 0.531-1.172t1.047-0.625q0.609 0 1.242 0.648t0.633 1.289q0 0.891-0.938 1.328-1.547 0.703-1.703 0.813 0.344 1.281 0.641 3.031 0.109 0.594-0.125 3.469-0.125 0.25-0.219 0.813v0.688l0.219 0.25q5.719-1.375 8.641-3.594 0.078-0.297-0.391-0.516-0.891-0.172-2.688-0.516-2.328-0.516-2.328-1.484 0-1.172 1.25-2.016 0.422-0.266 2.313-1.078 2.391-1.063 3.5-1.828-0.688-0.484-2.047-1.5-1.016-0.781-1.016-2.016 0-0.813 1.016-1.813t1.828-1.047l4.109-0.344q0.531 0 4.203 0.641 3.984 0.688 4.625 1.094-0.266 1.547-1.234 2.219t-2.953 1.563q-0.984 0.375-2.922 1.188-2.438 1.031-2.438 1.766 0 4.828 3.75 4.828 3.016 0 4.203-3 0.203-0.156 0.547-0.422h0.781q0 0.266 0.078 0.438-0.125 0.969 0.875 1.859 0.875 0.734 1.484 0.734 0.484 0 1.766-1.625 1.703-2.141 2.672-3 1.813-1.625 3.641-1.625 1.391 0 2.875 1.031 1.016 0.688 1.016 1.672 0 0.781-1.266 3.594 0.078 0.078 0.422 0.078 0.641 0 1.969-0.453 1.547-0.516 1.719-1 0.047-0.172 0.047-0.891l-1.375-15.578q0-0.797 0.859-2.297 0.469 0.031 1.359 1.781 0.844 1.641 0.844 2.016v0.859q-0.234 0.203-0.422 0.203-0.25 0-0.469-0.281-0.094 0.219-0.094 1.188zM24.141 1.5q0 0.219-0.563 0.82t-0.734 0.602q-1.047 0-1.047-1.5 0-1.547 1.484-2.781 0 0.313-0.188 1.008t-0.188 0.93q0 0.125 0.063 0.234t0.063 0.219q0.156 0.063 0.391 0.063 0.297 0 0.719-0.094v0.5zM19.859 5.141q0 1.672-0.859 3.438h-0.516v-2.406q0-1.797-0.625-3-0.109-0.25-0.984-1.453-0.75-1.031-0.75-1.203 0-0.25 0.344-0.781t0.563-0.531q0.359 0 1.078 0.813 0.563 0.672 0.719 1.016 1.031 2.219 1.031 4.109zM32.047 23.359q0 1.938-3.109 3.656l-0.641-0.203q0.766-0.828 2.219-2.5-0.141-0.219-0.813-0.219v-0.859q0-0.391 0.563-0.688 0.5-0.234 0.672-0.234 1.109 0 1.109 1.047zM53.516 16.828q-1.094-1.594-2.781-1.594-1.875 0-5.25 3.656v0.469q0.047 0 0.281 0.086t0.391 0.086q2.328 0 5.359-1.125 1.5-0.594 2-1.578zM35.906 9.172q-0.734-0.219-2.016-0.516-2.875-0.344-3.844-0.344-1.938 0-2.969 0.781 0.641 0.422 2.281 1.781 1.438 1.188 1.5 1.188 0.469 0 2.695-1.25t2.352-1.641z"></path>
</svg>
