<!-- Generated by IcoMoon.io -->
<svg version="1.1" xmlns="http://www.w3.org/2000/svg" width="60" height="32" viewBox="0 0 60 32">
<title>surah94</title>
<path d="M59.984 18.719q0 2.516-0.984 4.344-0.078 0.016-0.328 0.172-0.094-0.109-0.313-0.344 0-1.531-0.031-4.656l-2.781-18.188q0.219-1.563 0.891-2.297 0.391 0 0.594 0.328 0.063 0.141 0.828 1.375 0.969 1.547 1.438 3.375-0.109 0-0.219 0.234t-0.203 0.234l-0.844-0.422zM48.063 4.641q-0.766 1.563-1.375 1.563-1.078 0-1.078-1.688 0-1.297 1.594-3.438l0.203 0.906q-0.719 1.375-0.719 1.781 0 0.531 0.375 0.906 0.172-0.047 0.484-0.156 0.297-0.063 0.516 0.125zM47.531 11.594q0 0.391-0.398 0.891t-0.758 0.5q-0.172 0-0.781-0.492t-0.781-0.492q-0.125 0-0.664 0.492t-0.711 0.492q-0.313 0-1.016-0.602t-0.703-0.945q0-0.641 1.672-1.469-0.563-1.281-0.563-1.063 0-0.422 0.414-0.875t0.836-0.453 0.977 0.516 0.555 0.938q0 0.656-1.531 1.594 0.094 0.078 0.344 0.266 1.266-0.828 1.453-0.828 0.438 0 1.047 0.539t0.609 0.992zM48.219-0.797q0 0.516-0.594 0.859-0.984 0.453-2.906 1.328-1.297 0.813-4.703 2.813-7.844 4.453-7.844 5.656 0 0.172 0.609 0.641 0.844 0.672 0.906 0.75-0.828 0.906-1.047 0.906-0.625 0-1.164-0.656t-0.539-1.297q0-2.063 4.313-4.719 7.766-4.797 12.328-6.75h0.469q0.172 0.172 0.172 0.469zM35.484-0.453q0 0.688-1.453 1.75-1.172 0.844-1.641 0.984-2.172 0.594-2.266 0.594h-0.594v-0.516q0.984-0.547 2.906-1.625-0.672-0.5-1.453-0.5-0.266 0-2.531 0.969v-0.469q0-0.328 0.953-1.188 0.891-0.813 1.141-0.906 0.75-0.344 1.5-0.344 0.531 0 1.859 0.375 1.578 0.438 1.578 0.875zM38.953 12.234q0 0.734-0.773 1.633t-1.508 0.898q-1.031 0-1.031-1.375 0-0.719 0.602-2.016t1.117-1.703q0.094 0.359 0.375 0.953 1.219 1.25 1.219 1.609zM49.734 22.344q-0.047 0.25-0.344 0.688-0.188 0.203-1.484 0.82t-1.531 0.617q-0.156 0-0.609-0.203t-0.656-0.203q-0.469 0-1.328 0.641-1.031 0.781-1.125 0.828l-2.938 1.281-1.031-0.188q1.031-0.594 3.625-2.156l0.266-0.188q2.391-1.469 3.078-1.469 0.172 0 0.516 0.070t0.516 0.070 0.68-0.461 0.68-0.523q0.125 0.234 0.391 0.547 0.375-0.313 1.125-0.953zM26.328 5.531q-0.484 1.766-1.453 1.766-0.875 0-0.875-1.328 0-1.375 1.328-2.672 0 0.313-0.188 0.969t-0.188 0.969q0 0.453 0.5 0.813 0.313-0.266 0.875-0.516zM54.313 15.938q0.031 0.422-0.188 1.281-0.625 2.422-2.656 2.422-1.578 0-2.641-1.266-0.828 0.875-2.344 1.781-0.75 0.016-0.609 0.016-0.641 0-1.281-0.492t-0.656-0.492q0.703 0-0.781 0.633t-1.984 0.633q-0.563 0-1.57-0.555t-1.633-0.555q-2.281 0-4.234 2.016-1.078 1.25-3.297 3.734-1.844 2-3.734 2-2.813 0-2.813-2.578 0-0.641 0.203-1.266 0.094-0.297-0.047-0.578-0.984 0.609-3 1.609-1.953 0.734-3.891 0.734-2.031 0-3.727-1.172t-2.539-3.047q-1-2.297-1-4.703 0-2.266 0.656-4.828 0.766-2.828 1.953-4.453-0.844-0.938-2.703-2.063-1.016-0.625-1.016-1.875 0-3.469 6.156-3.469 4.797 0 8.906 0.594 0.156 0 0.156 0.313 0 1.422-3.031 2.906l-2.531 1.203q-1.438 0.906-2.031 1.328-1.125 0.797-2.156 1.922-0.719 0.766-1.328 1.875 0.984 0.25 1.75 0.25 0.219 0 0.688-0.063t0.688-0.063l2.922-0.578q2.906-0.531 4.063-0.531 2.609 0 4.281 1.422 1.797 1.531 1.797 4.109 0 0.516-0.766 2.609-0.688 1.844-0.813 2.047-0.75 0.906-1.844 2.641-0.438 1.078-0.734 3.563 0.172 0.609 1.25 0.609 1.406 0 3.406-2.156l3.734-4.094q2.438-2.188 4.906-2.188 0.906 0 2.109 0.555t1.578 0.555q0.906 0 1.5-0.719 1.109-1.328 1.656-1.75h0.484q0 0.25-0.063 0.781t-0.063 0.797q0.672 0.625 0.969 0.625 0.656 0 1.422-1.063l1.25-1.703h0.5q0.438 2.078 2.172 2.078 0.906 0 1.031-0.766l-2.766-16.344q0.047-0.203 0.297-1.063 0.172-0.672 0.688-1.078 0.453 0 0.75 0.578 1.844 3.5 1.844 3.891v0.891q-0.203 0.125-0.5 0.125-0.266 0-0.641-0.094-0.094 0.172-0.094 0.703zM37.703 12.75q-0.469-0.453-0.641-0.453-0.172 0.109-0.469 0.328 0.328 0.594 0.625 0.766 0.484-0.469 0.484-0.641zM18.453 1.938q-1.922-0.313-2.406-0.313-0.172 0-3.359 0.188-1.219 0.078-2.406 0.563 3.281 2.859 3.594 2.859 0.172 0 2.094-1.328 2.063-1.406 2.484-1.969zM27.875 14.719q0-1.531-1.688-2.734-1.547-1.094-3.156-1.094-1.156 0-3.367 0.422t-3.352 0.422q-0.516 0-2.141-0.547-1.297-0.438-2.063-0.109-0.844 1.641-0.844 3.359 0 1.75 0.719 4.453 0.219 0.766 1.156 1.641t1.766 1.219q1.969 0.766 2.859 0.766 2.094 0 4.578-1.297 2.344-1.219 3.797-2.906 1.734-1.969 1.734-3.594zM24.688 14.594q-0.938 0.859-4.063 2.156l-5.172 2.172q-0.172-0.031-0.172-0.313 0-0.703 0.594-0.984 1.422-0.719 8.641-3.828z"></path>
</svg>
