<!-- Generated by IcoMoon.io -->
<svg version="1.1" xmlns="http://www.w3.org/2000/svg" width="50" height="32" viewBox="0 0 50 32">
<title>095-At-Tiin</title>
<path d="M49.688 1.031q-0.141 0.094-0.469 0.094-0.297 0-0.781-0.094l0.984 14.422q0.031 0.438 0.031 0.828 0 2.797-1.188 4.313-0.125-0.25-0.328-0.609 0.234-1.953 0.063-3.75-1.484-15.75-1.484-18.156 0-0.922 1.031-2.297 2.141 3.578 2.141 4.5v0.75zM37.516 0.172q0 0.641-0.469 1.281-0.516 0.703-1.109 0.703-0.125 0-0.352-0.063t-0.336-0.063q-0.172 0-0.805 0.344t-0.805 0.344q-0.531 0-0.953-0.453t-0.422-0.984q0-2.25 0.609-2.984 0.281 0.297 0.305 1.344t0.539 1.438h0.391q0.391-0.438 0.391-1.031 0-0.25-0.070-0.703t-0.070-0.672q0-0.531 0.297-0.922h0.484q0.031 0.219 0.203 1.406 0.125 0.891 0.719 1.203l0.109-0.094q-0.047 0.172-0.047-1.281 0-0.953 0.469-1.375 0.219 0.125 0.57 1.172t0.352 1.391zM38.078 7.156q0 0.688-0.25 1.313-0.344 0.75-0.938 0.75-0.125 0-0.813-0.406t-0.828-0.406q-0.172 0-0.742 0.406t-0.711 0.406q-0.469 0-1.109-0.734-0.563-0.641-0.563-0.781 0-0.375 0.453-1.016t0.797-0.641q0.141 0 0.891 0.555t0.906 0.555q0.141 0 0.648-0.477t0.648-0.477q0.234 0 1.609 0.953zM28.922 5.453q0 0.406-0.719 0.891-0.609 0.391-0.781 0.391-0.75 0-0.969-1.172 0-2.125 1.719-3.938l0.234 0.75q-0.844 1.688-0.844 1.797 0 0.922 0.547 0.922 0.141 0 0.398-0.141t0.414-0.141v0.641zM19.531-1.094q0 0.375-0.539 0.992t-0.852 0.617q-0.344 0-0.969-0.594-0.016-0.25-0.016-0.5 0-1.891 1.297-3.609h0.5v0.484q0 0.156-0.406 0.672t-0.406 0.688v1.078q0.219 0.25 0.344 0.25 0.141-0.047 0.859-0.391 0.188 0 0.188 0.313zM44.875 19.766q0 0.563-0.375 0.75-1.578 0.844-7.453 3.109h-0.453q-0.188-0.031-0.188-0.344 0-0.563 0.609-0.844 6.594-3.094 7.109-3.094h0.547q0.203 0.172 0.203 0.422zM43.609 12.625q0 2.188-0.781 3.766-1.031 2.109-3.234 2.109-2.141 0-3-2.094h-0.359q-0.578 0.922-1.656 1.625-1.188 0.75-2.188 0.75-3.234 0-3.641-4.094l-0.219-2.047q-0.234-0.234-0.359-0.234-0.438 0-1.422 0.734t-1.25 1.172q-0.078 0.125-0.203 1.625-0.172 1.969-3.734 4.313-0.344 0.219-2.219 0.938-2.859 1.063-4.797 1.063-2.688 0-4.438-1.328-1.938-1.484-1.938-4.094 0-0.641 0.469-2.109l0.859-2.813q-0.203-1.109-0.172-3.328 0.234-1.328 1.391-3.609 1.281-2.469 2.203-3.063h0.641v0.5q-0.156 0.25-0.859 1.359-0.984 1.5-1.578 2.656-0.328 0.609-0.328 1.766 0 1.109 0.641 1.719 0.563-0.172 1.359-1.219 0.094 0.016 0.359 0.172-0.656 1.969-1.297 2.828-0.594 0.391-1.594 1.25-0.578 0.625-0.578 2.938 0 1.047 0.328 1.547 0.656 1.078 1.578 1.625 1.734 0.984 2.547 0.984h1.625q0.156 0 0.398-0.172t0.367-0.203q0.859-0.063 2.484-0.484 5.078-2.188 5.078-3.766 0-1.156-0.203-1.656-0.063-0.219-0.469-0.938-0.297-0.531-0.297-0.734 0-0.297 0.078-0.859t0.078-0.859q0.047 0 0.242-0.086t0.367-0.086q-0.563 0 0.508 0.625t1.492 0.625q0.984 0 1.547-0.859 0.328-0.547 0.984-1.625h0.5q0.594 1.125 0.938 3.219 0.469 2.781 0.609 3.453 0.953 0.813 2.219 0.813 1.156 0 2.438-1.141 1.125-0.953 1.75-2.156 0.219-0.297 0.609-0.297 0.344 1.875 0.734 2.453 0.547 0.875 1.844 0.875 1.438 0 1.859-0.719 0.281-0.5 0.281-1.953 0 0.719-0.781-6.266-0.719-6.328-0.719-10.047 0-0.422 0.469-1.922 0.078-0.078 0.453-0.297 0.109 0.641 0.484 1.703 1.5 2.516 1.5 2.781v0.828q0 0.109-0.891 0.281-0.219 0.172-0.219 0.641zM22.984 5.875l-0.344 0.328q-0.172-0.063-0.563-0.453t-0.547-0.391q-0.609 0-0.813 1.719-0.078 0.641-0.656 2.141-0.422 0-0.891-1.047-0.266-0.75-0.516-1.453-0.125-0.328-1.313-0.594-0.594-0.328-0.594-0.969 0-0.406 0.32-0.867t0.727-0.461 2.063 2.078q0.391-0.766 1.234-2.297 0.438-0.188 0.594-0.188 0.359 0 0.828 0.586t0.469 0.977v0.891zM30.609 22.734q0 0.25-0.547 0.852t-0.781 0.602q-0.141 0-0.766-0.492t-0.828-0.492q-0.156 0-0.719 0.422t-0.734 0.422q-0.297 0-1.008-0.594t-0.711-0.859q0-0.328 0.516-0.992t0.813-0.727q1.453 1.094 1.641 1.094 0.156 0 0.688-0.492t0.703-0.492q0.406 0 1.070 0.664t0.664 1.086zM18.547 14.297q0 0.219-0.563 0.82t-0.734 0.602q-0.344 0-1.047-0.586t-0.703-0.914q0-0.344 0.539-1.078t0.836-0.734q0.344 0 1.008 0.797t0.664 1.094zM15.766 24.109q0 0.625-0.484 0.844-1.5 0.703-4.109 1.516-2.391 0.734-2.813 0.734h-0.422q-0.313-0.313-0.313-0.609 0-0.25 0.938-0.594 1.359-0.438 2.703-0.906 0.719-0.266 4.328-1.469 0.172 0.203 0.172 0.484z"></path>
</svg>
