<!-- Generated by IcoMoon.io -->
<svg version="1.1" xmlns="http://www.w3.org/2000/svg" width="70" height="32" viewBox="0 0 70 32">
<title>surah96</title>
<path d="M69.484 18.875q0 2-0.891 4.281-0.063 0-0.227 0.063t-0.227 0.063l-0.063-0.047q-0.141-0.25-0.141-5l-2.219-17.375q0.203-0.891 0.344-1.266 0.203-0.578 0.594-0.953 2.125 3.844 2.125 4.203v1.031h-0.875q-0.094 0.203-0.094 0.797zM56.594 8.016q0 0.5-0.469 0.969t-0.969 0.469q-0.469 0-0.82-0.398t-0.352-0.867q0-1.938 1.625-3.719v0.766q0 0.219-0.258 0.828t-0.258 0.828q0 1.031 0.531 1.031 0.172 0 0.508-0.25t0.461-0.297v0.641zM58.406 1.422q0 0.766-0.734 1.063-2.047 0.781-7.328 3-1.453 0.719-5.156 2.391-7.828 3.344-7.828 4.469 0 0.125 0.406 0.633t0.406 0.68v0.859l-0.063 0.078q-0.078 0.125-0.328 0.125-0.641 0-1.109-0.766-0.422-0.672-0.422-1.328 0-2.219 4.188-4.047 5.766-2.609 17.313-7.719h0.469q0.188 0.188 0.188 0.563zM45.781-0.234q0 1.047-1.203 1.563-0.438 0.172-1.313 0.563-2.266 1.031-4.844 2.344-1.406 0.703-5.016 2.578-0.203-0.203-0.203-0.5 0-0.984 5.859-3.688 1.766-0.859 6.406-3.031 0.172 0.172 0.313 0.172zM57.188 23.453q0.141 0.547-0.406 1.063-2.266 2.234-5.234 2.234-2 0-2-1.109 0-0.125 0.359-0.914t0.406-0.977q-0.125-0.453-0.172-1.375 0.078-0.453 0.594-1.141 0.656-0.859 1.234-0.859 0.531 0 0.531 0.422 0 0.219-0.172 0.664t-0.172 0.586q0 0.156 0.156 0.156 0.141 0 0.477-0.141t0.477-0.141v0.5l-2.219 2.219q0.203 0.578 1.375 0.578 1.266 0 2.219-0.484zM63.234 16.094q0 0.344-0.094 0.484 0.094 2.078-1.109 3.531-1.25 1.516-3.281 1.516-1.516 0-3-0.781-0.906-0.5-1.984-1.484-0.891-0.781-1.047-0.781-0.172 0-1.984 0.734-2.125 0.813-2.766 1.031-5.266 1.703-8.531 1.703-3.844 0-6.031-1.984-0.5-0.469-0.969-1.625-0.609-1.531-0.828-1.922-0.578 0.516-1.781 1.469-0.703 0.172-1.859 0.984-0.188 1.016-0.922 2.906-1.078 1.609-5.109 3.391-3.031 1.359-5.547 1.359-1.109 0-2.75-0.672-1.906-0.766-2.266-1.609-0.75-1.656-0.75-3.203 0-0.641 0.422-1.969t0.422-1.969q0-0.203-0.492-1.398t-0.492-1.43q0-1.563 1.063-4.734 1.172-3.594 2.266-3.641 0 0.031 0.070 0.164t0.070 0.305q0 0.141-0.516 1.063-0.656 1.203-0.844 1.594-0.703 1.703-0.703 3.297 0 2.141 0.953 2.141 0.813 0 1.016-1.375 0.078 0 0.234-0.070t0.234-0.070q0.188 0.141 0.188 0.688 0 1.109-0.906 2.484-0.469 0.422-1.125 1.234-0.75 1.5-0.75 2.156 0 2.219 1.531 3.547 1.422 1.25 3.672 1.25 1.891 0 4.125-0.734 0.922-0.266 3.063-1.531 2.578-1.5 2.578-2.234 0-0.641-1.25-0.719-2.016-0.109-2.344-0.219-1.25-0.391-1.25-1.844 0-0.938 0.656-2.313 0.875-1.766 2.031-1.766 0.734 0 1.734 1.547 0.109 0.172 1.188 1.922 3.672-0.406 3.672-2.781l-1.531-12.313q0-0.938 0.438-2.063h0.5q1.125 4.422 2.047 12.078 0.047 1.203 0.359 3.594 0.328 1.234 1.094 2.484 1.344 2.172 5.531 2.172h1.453q1.875 0 4.906-0.938 1.203-0.391 3.656-1.156 0.453-0.141 1.063-0.734-0.953-1.453-1.938-1.453-0.203 0-0.672 0.211t-0.641 0.211-0.32-0.086-0.164-0.086v-0.453q0-0.313 0.93-1.211t1.336-1.023q1.719-0.625 3.469-0.625 3.781 0 5.875 1.563 0.031 0.219 0.031 0.438 0 1.109-0.891 1.703-0.375 0.141-1.109 0.469-0.828 0.359-1.203 1.031 0.25 0.688 1.578 1.297 1.203 0.578 2.016 0.578 1.016 0 2.266-0.719 0.484-0.297 0.594-0.766 0.047-0.141 0.047-0.734l-1.953-16.281q0-0.875 0.75-1.844 0.344 0 0.578 0.453 1.875 3.172 1.875 4.297 0 0.641-0.484 0.641-0.281 0-0.547-0.297-0.219 0.453-0.219 0.844zM25.703 2.75q0 0.297-0.461 0.727t-0.758 0.43q-0.359 0-0.727-0.367t-0.367-0.742q0-1.766 1.469-3.313-0.516 2.078-0.516 1.938 0 0.125 0.063 0.406t0.063 0.438l0.109 0.055t0.234 0.055q0.188 0 0.484-0.242t0.406-0.289v0.906zM20.594 1.938q-0.172 0.078-0.453 0.328-0.672-0.453-0.875-0.453-0.266 0-0.438 0.25-0.203 0.734-0.641 2.625-0.125 0.594-0.547 1.016-0.234-0.172-0.742-1.367t-0.977-1.492q-0.188 0-0.656-0.063-0.75-0.234-0.75-1.094 0-0.641 0.594-1.219 0.344-0.031 1.281 0.906 0.766 0.766 1.109 1.297 0.516-0.266 0.859-1.547 0.297-1.078 0.984-1.078 0.25 0 0.75 0.391t0.5 0.609v0.891zM25.594 9.031q0 0.609-1.109 1.375-0.141 0-0.781-0.422t-0.813-0.422q-0.141 0-0.758 0.492t-0.773 0.492q-0.469 0-1.859-0.984-0.063-0.531 0.336-1.148t0.914-0.617q0.172 0 0.859 0.336t0.859 0.336q0.156 0 0.695-0.617t0.68-0.617q0.375 0 1.531 1.125 0.219 0.219 0.219 0.672zM33.203 22.672q0 0.75-2.656 2.375-2.172 1.328-3.219 1.703-0.234-0.203-0.234-0.5 0-0.766 2.688-2.156 0.906-0.609 2.781-1.75h0.469q0.172 0 0.172 0.328zM19.344 19.359q0 0.375-0.477 0.906t-0.82 0.531q-0.5 0-0.859-0.594-0.328-0.516-0.328-1.063 0-0.688 0.547-2.094 0.578-1.516 1.078-1.797 0.203 0.031 0.203 0.375 0 0.25-0.422 1.297t-0.422 1.313q0 0.469 0.375 1.063 0.125 0 0.555-0.258t0.57-0.32v0.641zM54.25 15.188q-0.438-0.156-1.375-0.156 0.516 0.516 0.734 0.516 0.266 0 0.641-0.359zM25.188 16.578q-0.328-0.906-0.922-0.906-0.219 0-0.477 0.281t-0.258 0.516q0.438 0.359 0.891 0.359 0.359 0 0.766-0.25z"></path>
</svg>
