<!-- Generated by IcoMoon.io -->
<svg version="1.1" xmlns="http://www.w3.org/2000/svg" width="72" height="32" viewBox="0 0 72 32">
<title>surah97</title>
<path d="M71.938 17.422q-0.063 1.453-0.063 2.219t0.063 0.828q-0.109 1.188-1 3.797h-0.375q-0.078-0.094-0.25-0.328 0.25-1.625 0.25-2.656l-1.813-19.563q0-0.641 0.578-1.5h0.641q1.969 4.297 1.969 4.594v0.891q0.031 0.156-0.266 0.156l-0.734-0.156q-0.094 1.922 0.313 5.609zM59.344 7.75q0 0.656-1.031 1.422-1.266-0.813-1.406-0.813-0.125 0-0.578 0.484t-0.656 0.484q-0.219-0.172-1.719-1.266-0.047-0.344 0.266-1.031 0.391-0.891 0.984-0.891 0.156 0 0.648 0.352t0.664 0.352q0.141 0 0.648-0.352t0.648-0.352q0.516 0 1.023 0.547t0.508 1.063zM60.297-0.078q0 0.266-0.32 0.82t-0.539 0.648q-1.547 0.672-5.531 2.438-2.203 1.016-7.875 3.703-4.875 2.281-7.219 3.734h-0.609q-0.172-0.172-0.172-0.469 0-1.172 1.344-1.969 0.766-0.344 2.297-1.063 0.813-0.391 2.328-1.094 1.219-0.531 4.438-2.078 6.719-3.266 11.688-5.094 0.172 0.203 0.172 0.422zM46.203 3.047q0 0.438-0.461 1.070t-0.883 0.633q-0.391 0-0.781-0.523t-0.391-0.914q0-0.469 0.359-1.5 0.422-1.281 0.969-1.344 0.266 0.141 0.266 0.531 0 0.297-0.172 0.891t-0.172 0.828q0.047 0.031 0.203 0.031 0.297 0 0.859-0.203 0.203 0.203 0.203 0.5zM67.781 24.016q0 0.813-0.688 1.805t-1.453 1.367l-0.766-0.203q0.594-0.641 1.672-2.094-0.047-0.281-0.297-0.281-0.453-0.047-0.516-0.078-0.172-0.141-0.172-0.391 0-0.313 0.57-0.844t0.883-0.531q0.766 0 0.766 1.25zM39.25 0.469q0.031 0.109 0.031 0.234 0 1.016-1.211 2.125t-2.211 1.109h-0.734v-0.516q0.656-0.453 1.516-1.234-0.125-0.469-1.109-0.469-0.875 0-1.844 0.813h-0.484q0-0.031-0.078-0.125t-0.078-0.266q0-0.75 1.563-1.906 0.813-0.578 1.688-0.578 0.922 0 2.953 0.813zM50.891 13.563q0 0.563-0.484 1.031l-0.953-0.422q-0.453 0.375-0.703 2.016-0.234 1.75-0.813 2.422h-0.484q-0.391-1.063-1.031-2.391-0.219-0.5-0.891-0.734-0.781-0.328-0.953-0.5-0.328-0.375-0.328-1.016 0-0.266 0.359-0.648t0.625-0.383q0.641 0 2.297 2.078 0.469-0.172 0.953-1.609 0.422-1.297 1.109-1.297 1.297 0 1.297 1.453zM56.438 23.234q0 0.859-0.906 2.031-1.063 1.406-2.344 1.766l-0.766-0.188 2.344-2.234v-0.375q0.016-0.016 0.016-0.047-0.016-0.047-0.219-0.047-0.141 0-0.281 0.063t-0.156 0.063l-0.031-0.031q-0.141-0.141-0.141-0.438 0-0.594 0.531-1.094t1.109-0.5q0.297 0 0.57 0.367t0.273 0.664zM29.281 2.141q0 0.438-0.438 1.039t-0.859 0.602q-1.031 0-1.031-1.516 0-0.5 0.328-1.25t0.703-0.969q0.313 0.219 0.219 0.781-0.172 1.031-0.172 0.906 0.094 0.063 0.219 0.063 0.266 0 0.719-0.234 0.313 0.344 0.313 0.578zM66.141 17.766q0 1.484-0.641 2.875-0.844 1.906-2.469 2.219-0.828 0.172-1.625 0.172-0.469 0-3.172-0.891-1.406-1.734-1.656-1.734-0.141 0-1.688 0.656-1.875 0.766-2.516 0.969-0.766 0.234-3.453 0.703-3.313 0.563-5.156 0.563-2.375 0-5.422-0.859-1.969-0.563-2.922-2.063-0.25-0.375-0.969-1.5-0.203 0-0.297 0.125-0.859 1.797-3.906 3.906-3.125 2.219-5.031 2.219-3.25 0-3.094-4.891-0.125-0.109-0.297-0.109-0.25 0.109-1.578 0.813-1.641 0.891-2.906 1.234-0.609 0.078-1.641 0.219-0.641 0.156-2.313 0.719-1.438 0.469-1.609 0.469h-0.859l-0.172-0.156v-0.516q0.938-0.359 3.219-1.281 2.219-0.938 7.016-3.688 6.922-3.984 6.922-5.703 0-0.156-1.844-3.656-0.641-1.203-0.641-1.625 0-0.563 0.297-1.469 0.016-0.172 0.313-0.172 0.219 0 1.031 0.727t0.938 0.992q0.047 0.125-0.188 1.109 1.344 1.766 1.344 3.766 0 2.391-2.094 4.203-0.234 0.25-3.297 2.734-0.406 0.5-0.406 1.563 0 0.828 0.609 1.516t1.453 0.688q1.625 0 4.078-1.641 2.203-1.5 3.625-3.297 0.203-0.25 0.203-1.484 0-1.766-1.047-4.945t-1.047-4.336q0-0.766 0.172-1.578h0.484q0.594 0.578 1.438 2.781 0.516 1.531 1.047 3.063 0.328 0.906 0.594 2.969 0.25 1.969 0.672 2.953 0.641 1.516 2.203 2.594 1.516 0.422 3.016 0.813 1.375 0.313 3.266 0.313 6.484 0 11.109-2.109 0.609-0.266 0.688-0.859-0.328-2.828 0.141-3.891 1.109-2.563 2.25-2.563 0.938 0 1.688 1.844 0.594 1.406 0.594 2.047 0 0.375-0.281 1.43t-0.484 1.273q-0.984 1.109-1.031 1.234 0 0.656 1.328 1.188 1.031 0.406 1.578 0.406 0.422 0 1.406-0.313 1.25-0.391 1.453-0.891 0.016-0.125 0.016-0.781-0.063-1.031-0.469-5.141-0.313-3.281-0.703-8.297-0.031-0.625-0.109-2.203-0.016-0.188-0.188-0.617t-0.172-0.633q0-0.516 0.906-2.016 1.109 1.234 2.297 5.047-0.109 0.094-0.234 0.297-0.875 0.219-0.875 1.031zM35.656 23.234q0 0.734-0.469 1.688-0.641 1.281-1.547 1.281h-0.734q0.438-0.984 1.25-1.734-0.016-0.156-0.688-0.5v-0.438q0-0.328 0.531-0.828t0.828-0.5q0.828 0 0.828 1.031zM24.047 11.125q0 0.188-0.297 0.828h-0.594q-0.172 0-0.594-0.422-0.141 0-0.438 0.375-0.094 0.547-0.328 1.563t-0.703 1.656h-0.5q-0.313-1-1.156-2.781-0.563-0.016-1.594-0.703-0.031-0.172-0.031-0.516 0-1.234 1.109-1.234 0.641 0 1.156 0.734 0.688 0.969 0.844 1.063 0.219-0.172 0.781-1.328 0.438-0.891 1.016-0.891 0.359 0 0.844 0.641t0.484 1.016zM20.984 22.953q0 0.719-2.375 1.797-0.078 0.031-2.391 1.188l-1.313-0.172q0.297-0.766 1.328-1.203 0.594-0.219 1.75-0.719 0.766-0.484 2.359-1.359h0.5q0 0.031 0.070 0.18t0.070 0.289zM59.344 15.891q0-0.313-0.555-1.078t-0.898-0.766q-0.906 0-0.906 1.375 0 1.797 0.906 1.797 0.359 0 0.906-0.477t0.547-0.852z"></path>
</svg>
