<!-- Generated by IcoMoon.io -->
<svg version="1.1" xmlns="http://www.w3.org/2000/svg" width="62" height="32" viewBox="0 0 62 32">
<title>surah98</title>
<path d="M61.5 18.234q0 1.25-0.375 3.078-0.438 2.047-0.875 2.391-0.063-1.188-0.234-4.141l-0.172-2.781-1.672-15.016q0-1.125 0.891-2 0.141 0.078 0.297 0.172 0.906 1.781 1.984 5.172-0.047 0.047-0.984 0.047-0.234 0.469-0.234 0.703zM51.109 0.813q0 0.813-1.703 1.344-1.125 0.375-2.203 0.844-1.703 0.734-6.141 2.703-0.313-0.313-0.313-0.391 0-0.891 1.109-1.453 0.484-0.172 1.406-0.547 2.063-0.875 7.078-3h0.453q0.313 0.328 0.313 0.5zM50.281 9.672q0 0.734-0.594 0.734-0.297 0-0.844-0.266-0.469 0.438-0.734 2.016-0.25 1.672-0.781 2.281-0.109-0.063-0.813-1.297-0.328-0.594-0.672-0.938-1.625-1.188-1.625-1.719 0-1.031 0.813-1.031 0.438 0 2.141 1.672 0.375-0.422 0.734-1.906 0.281-1.031 1.063-1.031 0.438 0 0.875 0.516t0.438 0.969zM41.172 8.344q0 0.734-0.516 1.469t-1.234 0.734q-0.125 0-0.375-0.070t-0.359-0.070q-0.203 0-0.797 0.281t-0.766 0.281q-1.219 0-1.219-1.297 0-0.5 0.172-1.406 0.063-0.375 0.563-0.891 0.266 0.156 0.297 1.266 0.016 0.703 0.531 0.813 0.5-0.203 0.594-0.922v-1.172q0.047-0.297 0.219-0.516h0.5q0.047 0.109 0.188 0.984 0.109 0.688 0.594 1.078 0.375-0.344 0.375-0.641 0-0.156-0.148-0.438t-0.148-0.375q0-0.156 0.438-1.031 0.406-0.031 0.766 0.828 0.328 0.719 0.328 1.094zM40.328 0.953q0 0.813-0.594 1.109-1.922 0.906-8.172 3.844-1.938 0.984-7.109 3.547-0.313-0.328-0.313-0.469 0-0.172 0.188-0.406 0.297-0.297 0.328-0.344 0.516-0.875 1.641-1.5 1.031-0.531 2.172-1.047 2.281-1.016 8.141-3.75 2.719-1.297 3.531-1.5 0.188 0.219 0.188 0.516zM51.109 25.359q0 0.469-0.32 0.93t-0.789 0.461q-0.422 0-1.031-0.609t-0.609-0.969q0-0.281 0.438-0.805t0.734-0.523q0.422 0 1 0.555t0.578 0.961zM26.859 3.859q0 0.438-0.453 0.945t-0.891 0.508q-0.547 0-0.922-0.594-0.313-0.516-0.313-1.078 0-0.547 0.328-1.43t0.703-1.211q0.25 0.328 0.047 1.359-0.172 0.906 0.375 1.281 0.344-0.203 1.125-0.547v0.766zM55.547 17.969q0 1.938-0.969 3.219-1.078 1.406-2.969 1.406-0.797 0-1.828-0.547-1.125-0.563-1.375-1.25-0.641 0.609-1.609 1.344-1.172 0.891-2.578 0.891-1.188 0-2.141-0.766-0.844-0.813-1.703-1.594-2.359 1.797-3.859 1.797-2 0-2.938-2.516h-0.516q-2.484 2.359-6.719 2.359-2.563 0-4.125-1.047-0.875-0.625-1.828-2.016-0.719-1.094-1.188-1.094-0.531 0-1.266 0.969-1.094 1.344-1.953 3.438-1.109 2.672-2.516 2.672-0.781 0-1.469-0.75-1.672-1.813-1.672-6.25 0-1.703-0.078-1.922-0.25-0.313-0.609-1.109-0.203-0.656-0.203-1.594 0-0.156 0.125-0.461t0.125-0.461q0-1.219 0.703-2.828 0.453-0.953 1.344-2.844 0.266-0.594 0.797-0.891 0.531 0 0.531 0.422 0 0.094-0.797 1.891-0.859 2.016-1.125 2.781-0.156 0.469-0.156 1.406 0 1.672 0.75 1.672 0.141-0.172 1.094-1.078h0.5v1.031q-0.156 0.234-1.781 2.781-0.281 0.469-0.281 1.5 0 0.813 0.609 2.391 0.734 1.969 1.672 1.969 0.891 0 1.828-2 0.094-0.219 0.906-2.141 2.016-2.922 3.563-2.922 0.453 0 0.75 0.344 0.531 0.922 2.141 2.672 1.625 1.266 4.031 1.266 1.656 0 3.891-0.836t3.5-1.93h0.609q0.203 1.609 0.547 2.172 0.469 0.734 1.547 0.734 3.047 0 3.047-2.172 0-0.563-0.281-1.719t-0.281-1.719q0-0.859 0.734-1.875 0.844 0.375 1.219 3.641 0.234 2.078 0.734 2.938 0.813 1.328 2.781 1.328 1.766 0 3.844-3.031h0.516q0.609 2.609 2.844 2.609 2.141 0 2.141-1.25l-1.797-17.156q0-0.25 0.359-1.016t0.563-0.938q2.266 3.641 2.266 5.047 0 0.203-0.078 0.25t-0.078 0.078q-0.313 0.188-0.828 0.172-0.125 0.422-0.125 1.719zM34.109 12.844q0 0.422-0.445 0.938t-0.898 0.516q-0.359 0-1.039-0.555t-0.68-0.898 0.469-0.969 0.797-0.625q0.281 0 1.039 0.672t0.758 0.922zM43.5 25.641q0 0.344-0.383 0.797t-0.727 0.453q-0.141 0-0.68-0.344t-0.695-0.344q-0.094 0-0.625 0.406t-0.75 0.406q-0.594 0-0.906-0.375-0.5-0.531-0.891-0.734 0-0.391 0.359-1.078t0.672-0.688q0.156 0 0.891 0.406t0.906 0.406q0.125 0 0.633-0.477t0.742-0.477q0.375 0 0.914 0.633t0.539 1.008zM20.953 2.375q0 0.375-0.344 0.703h-0.469q-0.297-0.375-0.641-0.547-0.094 0.047-0.313 0.25-0.047 0.141-0.766 4-0.031 0-0.164 0.086t-0.273 0.086q-0.156 0-0.719-1.125-0.672-1.281-1.156-1.75-0.172-0.094-1.109-0.547-0.844-0.391-0.844-0.922 0-0.406 0.336-0.797t0.711-0.391q0.531 0 1.328 0.844l1.297 1.375q0.344-0.922 1.094-2.547 0.172-0.359 0.625-0.359 0.422 0 0.914 0.617t0.492 1.023zM27.609 14.766q0 0.656-0.406 1.297-0.469 0.719-1.078 0.719-1.188 0-1.188-1.797 0-0.688 0.422-1.891 0.422-1.313 0.891-1.703 0.516 0 0.516 0.344 0 0.25-0.414 1.211t-0.414 1.227q0 0.953 0.484 0.953 0.141 0 0.523-0.391t0.43-0.438q0.234 0.188 0.234 0.469zM21.922 11.25q0 0.188-0.891 1.516-0.219-0.047-0.898-0.43t-0.852-0.383q-0.141 0-0.648 0.484t-0.648 0.484q-0.281 0-1.016-0.703t-0.734-0.969q0-0.453 0.383-0.984t0.789-0.531q0.172 0 0.805 0.406t0.805 0.406q0.141 0 0.672-0.406t0.703-0.406q0.422 0 0.977 0.555t0.555 0.961zM32.313 23.359q0 0.516-0.875 1.734-0.953 1.359-1.734 1.359-0.109 0-0.172-0.031 0.281-0.516 1.516-2.078-0.188-0.344-0.484-0.344-0.156 0-0.352 0.055t-0.242 0.055q-0.156-0.016-0.156-0.344 0-0.344 0.531-0.953t0.859-0.609q0.359 0 0.734 0.391t0.375 0.766zM23.031 23.938q-0.75 0.641-5.734 3.219h-0.625q-0.141-0.172-0.141-0.406 0-0.594 2.672-2 1.063-0.516 3.156-1.563h0.672v0.75z"></path>
</svg>
