<!-- Generated by IcoMoon.io -->
<svg version="1.1" xmlns="http://www.w3.org/2000/svg" width="57" height="32" viewBox="0 0 57 32">
<title>surah99</title>
<path d="M56.656 3.875q-0.344 0.328-0.484 0.328-0.25 0-0.688-0.391-0.25 0.484-0.219 0.875l0.984 11.625v3.078q0 0.391-0.523 1.625t-0.805 1.469q-0.109-0.172-0.297-0.453 0.109-1.344 0.109-2.859 0-2.422-0.406-6.969-0.453-4.703-0.469-6.938-0.031-0.641-0.203-2.484l-0.172-1.828q0-0.641 0.156-0.891 0.438-0.531 0.875-1.125 0.156 0.094 0.422 0.344 0.5 1 1.375 3.172 0.125 0.516 0.344 1.422zM46.969 0.266q0 0.766-2.641 2-2 0.922-2.703 1.094-0.172-0.172-0.172-0.469 0-0.703 1.109-1.375 0.219-0.125 1.703-0.789t2.203-1.070q0.5 0 0.5 0.609zM46 8.859q0 1.891-2.266 2.031-0.234 0.031-0.703 0.281t-0.625 0.25q-1.25 0-1.25-1.953 0-1.281 0.781-1.641 0.328 0.484 0.328 1.375 0.063 0.094 0.359 0.422h0.375q0.125-0.703 0.516-2.047 0.094-0.031 0.344-0.172 0.219 0.516 0.688 1.5 0.125-0.734 0.813-1.781 0.641 0.203 0.641 1.734zM34.094 3.078q0 0.438-0.594 0.75-0.438 0.25-0.641 0.25-1.109 0-1.109-1.188 0-0.734 0.445-1.813t0.961-1.547q-0.297 2.484-0.297 2.141 0 0.391 0.344 0.734 0.516-0.25 0.891-0.25v0.922zM45.438 15.234q0 0.25-0.531 0.836t-0.781 0.586q-0.234 0-1.047-0.734t-0.813-0.969q0.656-1.734 1.328-1.734 0.344 0 1.094 0.82t0.75 1.195zM37.016 5.391q0 0.578-2.5 1.859-1.531 0.797-3.797 1.953h-0.594q-0.188-0.203-0.188-0.422 0-0.609 1.375-1.297 0.266-0.156 1.422-0.641 3.297-1.953 3.938-1.922 0.344 0.297 0.344 0.469zM50.156 22.953q0 0.813-0.773 1.922t-1.508 1.469q-0.219-0.188-0.219-0.391 0 0.156 1.406-2.125-0.125-0.172-0.375-0.531-0.344 0.203-0.641 0.203-0.203 0-0.391-0.078v-0.438q0-0.438 0.734-0.859 0.563-0.328 0.781-0.328 0.984 0 0.984 1.156zM25.938-0.703q0 0.469-2.672 1.875-2.547 1.328-3.766 1.656-0.203-0.156-0.359-0.156 0-0.594 0.188-0.781 0.344-0.438 6.266-3.078 0.344 0.344 0.344 0.484zM34.656 13.969q0 0.406-0.508 0.93t-0.898 0.523-1.016-0.641-0.625-1q0-0.344 0.406-0.945t0.703-0.602q0.453 0 1.195 0.633t0.742 1.102zM50.703 4.031q-0.344 0-1.125 0.141 0.297 4.984 0.578 7.594v4.578q-0.516 3.531-2.781 4.344-0.188 0.078-1.984 0.469-0.813 0.172-2.344 0.672-1.125 0.516-3.813 3.172-2.188 2.188-3.625 2.188-1.688 0-2.719-1.703-0.281-0.469-0.297-1.641-0.063-1.328 0.391-2.016v-0.375q-0.094-0.063-0.344-0.063-1.016 0-3.594 2.844-1.969 2.156-3.172 2.156-0.375 0.234-0.578 0.234h-0.688q-0.344 0-1.328-0.891-0.891-0.813-1.031-1.078-0.297-0.484-0.297-0.984 0-0.609 0.125-1.453 0.203-1.234 0.203-1.453-0.203-0.297-1.156-0.531-1.516-0.797-2.5-1.922-0.266-0.328-0.516-0.984-0.125-0.375-0.484-0.375-0.766 0-2.313 2.469-0.328 0.781-0.984 2.359-0.75 1.672-1.828 1.672-1.719 0-2.734-2.516-0.734-1.813-0.734-3.297 0-1.125 0.594-3.422 0.078-0.016 0.297-0.172 0.391 0.219 0.297 1.109-0.234 1.672-0.234 1.234 0 1.125 0.719 2.859 0.813 1.984 1.797 1.984 0.797 0 1.844-3 0.25-0.719 0.813-1.656 0.344-0.531 1.313-1.344 1.078-0.922 1.578-0.922 0.641 0 0.984 0.672l0.688 1.297q0.516 0.641 1.672 1.211t1.969 0.57q0.563 0 2.188-0.594 1.719-0.594 2-1.031 0.172-0.328 0.172-0.813l-1.234-13.906q0-1.672 1.063-2.641 1.578 3.547 1.578 3.797v0.766q-0.078 0-0.359 0.086t-0.516 0.055q-0.094 0.547-0.094 1.109 0 0.719 0.203 1.844 0.234 1.406 0.297 1.828 0.469 4.672 0.469 6.719 0 1.109-0.781 2.375t-1.766 1.734q-0.859 0.219-2.484 1.063-0.297 0.234-0.688 1.281t-0.391 1.5q0 0.125 0.438 1.25 0.203 0.484 1.156 0.484 1.266 0 2.594-1.25 1.203-1.5 3.906-4.078 0.844-0.391 2.344-1.109 0.859-0.172 2.531-0.625 2.406-0.734 2.406-2.141l-1.25-14.25q0-0.688 0.563-2.141 0.109 0 0.328-0.141 0.25 0.172 1.133 1.891t0.883 2.016v0.859q0 0.109-0.891 0.25-0.219 0.203-0.219 0.797l0.844 8.859q0 1.844-0.031 2.094-0.219 1.328-1.156 2.547-0.563 0.719-2.039 1.25t-1.898 1q-0.266 0.344-0.594 1.5-0.25 0.984-0.25 1.375 0 0.469 0.328 1.063 0.375 0.656 0.781 0.656 1.234 0 1.953-0.563 1.594-1.719 4.297-4.203 0.25-0.25 1.266-0.859 0.984-0.453 4.188-1.234 0.703-0.172 1.109-0.328 0.781-0.313 0.859-0.781 0.063-0.641 0.016-1.422l-0.953-14.844q-0.031-0.547 0.875-2.078 0.422 0.172 1.297 1.938t0.875 2.281v0.734zM25.375 13.016q0 0.469-0.391 1.023t-0.859 0.555q-1.109 0-1.109-1.656 0-1.891 1.422-4.281 0.516 0 0.516 0.391 0 0.234-0.477 1.336t-0.477 1.305q0 0.547 0.359 1.125 0.25 0 0.813-0.297 0.203 0.203 0.203 0.5zM21.359 9.813q0 0.453-0.32 0.953t-0.711 0.5q-0.172 0-0.813-0.406t-0.781-0.406q-0.125 0-0.555 0.336t-0.633 0.336q-0.344 0-1.18-0.57t-0.836-0.867q0-0.234 0.422-0.859 0.469-0.734 0.906-0.734 0.172 0 0.875 0.406t0.844 0.406q0.125 0 0.57-0.336t0.617-0.336q0.547 0 1.070 0.523t0.523 1.055zM19.953 22.688q0 0.766-5.156 3.125h-0.453q-0.188-0.203-0.188-0.422 0-0.984 5.625-3.188 0.172 0.219 0.172 0.484z"></path>
</svg>
